<?xml version="1.0" encoding="UTF-8"?>
<svg id="_圖層_2" data-name="圖層 2" xmlns="http://www.w3.org/2000/svg" xmlns:xlink="http://www.w3.org/1999/xlink" viewBox="0 0 360.74 313.32">
  <defs>
    <clipPath id="clippath">
      <path d="M226.47,303.69l-68.66-46.13-20.26,20.36-66.86-1.87L15.59,160.83,134.37,0c29.82,0,226.37,156.2,226.37,186.02l-134.26,117.67Z" style="fill: none;"/>
    </clipPath>
  </defs>
  <g id="_圖層_1-2" data-name="圖層 1">
    <g>
      <path d="M226.47,307.66L9.78,160.83h162.71c29.82,0,53.99,24.17,53.99,53.99v92.85Z" style="fill: #ff6d04; stroke: #2e3138; stroke-miterlimit: 10; stroke-width: 6px;"/>
      <g>
        <g>
          <g style="clip-path: url(#clippath);">
            <g>
              <path d="M85.71,143.4c-16.08,17.64-30.25,35.89-39.38,58.18-1.1,2.67-2.14,5.61-1.36,8.4.76,2.71,3.06,4.66,5.33,6.32,12.59,9.26,27.34,15.05,41.9,20.73,8.31,3.24,16.62,6.49,24.93,9.73,2.52-3.04,3.75-6.59,5.89-9.79,1.93-2.9,4.49-4.86,5.47-8.41.25-.9.38-1.89.04-2.76-.28-.71-.85-1.27-1.46-1.74-1.41-1.09-3.41-1.64-4.66-2.87-1.11-1.08-1.5-2.84-1.81-4.28-1.52-7.17-2.93-14.41-3.33-21.72-.34-6.46-.64-12.92-.89-19.38-.05-1.41-.08-2.93.72-4.09.79-1.16,2.2-1.7,3.54-2.11,11.88-3.69,25.14-2.7,36.35,2.7,1.34.65,2.72,1.41,3.5,2.68.8,1.31.83,2.94.82,4.48-.09,13.15-1.21,26.3-3.35,39.27-1.03,6.27-3.11,12.59-3.89,18.85-.8,6.49.26,13.55-.01,20.12-.11,2.73-.22,4.23,1.65,6.16,1.8,1.86,3.72,3.46,5.95,4.79,11.44,6.83,24.23,12.15,36.04,18.4-.57-10.42-1.13-20.84-1.7-31.27-.58-10.65-1.81-21.02-1.71-31.66.03-2.95.06-5.91-.17-8.86-.26-3.33-.84-6.63-1.17-9.96-.49-4.92-1-10.57-.29-15.47-.04.27,3.7,4.13,4.1,4.77,1.29,2.05,2.32,4.24,3.42,6.39,2.45,4.75,5.54,9.09,8.53,13.5.57.84,1.13,1.68,1.77,2.46,1.86,2.29,5.42,5.96,8.38,6.13,3.42.19,7.66-1.34,10.85-2.43,6.79-2.32,13.11-6.05,18.36-10.94.7-.66,1.51-1.38,2.47-1.32.67.04,1.26.46,1.91.61,1.07.25,2.16-.25,3.14-.73,3.18-1.55,6.36-3.11,9.54-4.66,4.48-2.19,9.22-4.61,11.72-8.92.61-1.05,1.08-2.21,1.94-3.07,1.67-1.68,4.3-1.8,6.67-1.97,5.35-.39,10.63-1.58,15.63-3.52,3.6-1.4,7.3-3.44,8.89-6.96,1.59-3.52-.25-8.66-4.1-9.03-4.31-.41-8.11,4.98-12.15,3.42-.79-.31-1.46-.86-2.25-1.18-4.35-1.78-8.03,3.99-12.6,5.09-2.38.58-4.86-.19-7.29-.5-3.28-.42-6.61-.02-9.88.44-9.03,1.27-18.01,2.99-26.87,5.14-1.81.44-3.78.88-5.47.09-1.07-.5-1.87-1.44-2.62-2.37-7.03-8.66-13.1-18.11-18.04-28.11-3.25-6.56-6.47-13.86-12.98-17.21-2.92-1.5-6.23-2.03-9.48-2.54-3.8-.6-7.6-1.2-11.41-1.79-4.38-.69-6.05.59-9.65,2.01-3.66,1.44-8.6,1.14-12.69,1.91-9.3,1.73-18.91,2.69-28.33,1.34-10.21-1.46-18.41-6.5-28.45-.85-3.82,2.15-7.05,5.11-10.02,8.36Z" style="fill: #fff;"/>
              <path d="M120.57,66.76c-1.5.45-2.39,2.06-2.56,3.61-.17,1.55.22,3.11.45,4.65.84,5.51-.27,11.12-1.36,16.58-.25,1.22-.51,2.49-1.22,3.51-.62.9-1.54,1.55-2.18,2.43-1.23,1.71-1.23,3.97-1.18,6.08.06,2.47.11,4.96.68,7.36.48,2.03,1.31,3.95,1.96,5.93,2.07,6.23,2.42,13.03.99,19.43,4.68,6.2,9.91,12.31,15.73,17.45,1.12.99,2.39,2.01,3.88,2,.9,0,1.76-.39,2.58-.76l5.96-2.73c2.84-1.3,5.7-2.62,8.25-4.42,2.17-1.53,4.09-3.39,5.99-5.24,2.42-2.35,4.85-4.71,7.27-7.06.41-.39.82-.8,1.07-1.31.27-.55.32-1.18.36-1.78.25-3.27.5-6.54.75-9.81.12-1.63.25-3.27.38-4.9.08-1.08-.21-3.65.35-4.55.38-.61,1.91-1.01,2.55-1.58.77-.69,1.35-1.57,1.76-2.51.81-1.85.97-3.98.68-5.96-.18-1.26-.72-2.66-1.92-3.1-.49-.18-1.03-.17-1.56-.16l-5.71.12c.08-2.1.32-4.38.41-6.48.06-1.64.13-3.29-.06-4.92-.35-3.01-1.55-5.84-2.73-8.63-.79-1.86-1.58-3.72-2.57-5.47-.21-.37-.45-.76-.83-.93-.32-.15-.68-.13-1.03-.11-3.02.14-6.05-.14-8.99-.82-.92-.21-1.84-.47-2.68-.9-.8-.4-1.51-.95-2.25-1.45-2.1-1.43-4.44-2.48-6.75-3.52-1.34-.6-2.7-1.21-4.15-1.5-1.74-.35-3.55-.21-5.31,0-2.3.27-4.77.79-6.99,1.46Z" style="fill: #fff;"/>
              <path d="M114.39,136.06s13.16,15.32,13.16,15.32l4.74,3.86h4.31l13.01-7.65,17.11-14.31s-.6,4.16-.6,4.16c-.75,5.09-1.53,10.17-2.3,15.26-.57,3.76-1.53,7.59-1.35,11.36.25,5.25.66,10.43.11,15.68-.37,3.5-1.09,6.95-1.77,10.41-4.27,21.77-6.57,43.93-6.88,66.12,0,.64-.05,1.35-.5,1.79-.65.63-1.73.35-2.57,0-8.39-3.47-15.17-9.72-22.6-14.77-2.13-1.45-4.49-3.33-4.44-5.9.08-3.54,4.66-5.47,5.36-8.95-2.36-1.87-4.76-3.76-6.53-6.2-3.34-4.59-4.96-11.47-5.05-17.06-.12-7.24-.44-14.47-.81-21.71-.72-14.14-1.64-28.28-1.64-42.45,0-.71-.27-4.38-.75-4.96Z" style="fill: #1f89bd;"/>
              <path d="M103.6,73.91c-.49,1.67-.84,3.39-.86,5.13-.02,1.51.2,3.01.43,4.5.27,1.79.37,3.71.73,5.47.37,1.8,1.75,3.42,2.42,5.11.2.51.37,1.04.65,1.51.23.38.52.71.82,1.04.92,1.04,1.83,2.1,2.78,3.12.4-.98,1.27-1.89,1.83-2.82.62-1.02,1.19-2.06,1.7-3.14,1.02-2.15,1.82-4.41,2.38-6.73,1.12-4.63,1.28-9.51.39-14.19-.22-1.17-.51-2.37-.29-3.54.43-2.37,3.19-3.92,5.4-4.2,4.29-.53,8.59.35,12.68,1.57,1.85.55,3.66,1.31,5.54,1.7,2.01.42,3.95,1.21,5.68,2.33.62.4,1.21.84,1.89,1.12.99.41,2.1.46,3.17.5,1.08.04,2.16.08,3.24.12.85.03,2.06-.15,2.84.23.94.45,2.43,3.41,2.43,4.45,3.48,7.13,5.2,14.67,4.04,22.51,1.53-.86,3.34-1.18,5.07-.91.49.08.98.2,1.47.1,1.16-.23,1.72-1.52,2.04-2.66.59-2.04,1.03-4.13,1.32-6.23.29-2.06.12-4.25.51-6.27.76-4.01.88-8.07-.26-12.06-2.06-7.21-7.91-12.9-14.62-16.26s-14.25-4.65-21.71-5.46c-1.79-.19-3.6-.36-5.39-.17-3.43.37-6.49,2.05-9.12,4.21-2.61,2.15-4.39,5.65-7.01,7.59-2.27,1.68-5.15,1.76-7.4,3.97-2.3,2.26-3.87,5.28-4.78,8.35Z" style="fill: #ff6d04;"/>
              <path d="M115.14,62.65s11.2-24.05,47.24-5.52c0,0,20.46,10.91,7.6,42.25" style="fill: none; fill-rule: evenodd; stroke: #2e3138; stroke-linecap: round; stroke-miterlimit: 10; stroke-width: 3px;"/>
              <path d="M115.13,61.7c-4.27,1.12-7.73,4.48-9.7,8.43-1.98,3.95-2.62,8.45-2.69,12.86-.08,4.84,3.78,12.27,6.31,16.39" style="fill: none; fill-rule: evenodd; stroke: #2e3138; stroke-linecap: round; stroke-miterlimit: 10; stroke-width: 3px;"/>
              <path d="M116.09,69.99c4.29-8.29,16.64-4.71,22.64-2.19,2.69,1.13,5.19,2.67,7.9,3.75,6.36,2.52,14.16,2.08,19.42-2.3" style="fill: none; fill-rule: evenodd; stroke: #2e3138; stroke-linecap: round; stroke-miterlimit: 10; stroke-width: 3px;"/>
              <path d="M145.13,63.86c.87.56,1.84.97,2.85,1.23,3.18.84,6.71.24,9.43-1.61" style="fill: none; fill-rule: evenodd; stroke: #2e3138; stroke-linecap: round; stroke-miterlimit: 10; stroke-width: 3px;"/>
              <path d="M127.43,58.97c2.46-.65,5.15-.41,7.46.66" style="fill: none; fill-rule: evenodd; stroke: #2e3138; stroke-linecap: round; stroke-miterlimit: 10; stroke-width: 3px;"/>
              <path d="M111.5,71.35c-1.6,2.22-2.48,4.96-2.45,7.7" style="fill: none; fill-rule: evenodd; stroke: #2e3138; stroke-linecap: round; stroke-miterlimit: 10; stroke-width: 3px;"/>
              <path d="M112.86,81.92c.46,3.56-.76,7.09-1.96,10.47" style="fill: none; fill-rule: evenodd; stroke: #2e3138; stroke-linecap: round; stroke-miterlimit: 10; stroke-width: 3px;"/>
              <path d="M116.09,69.99c.73,6.86,1.44,14-.92,20.48-1.15,3.15-2.97,6.01-4.9,8.75" style="fill: none; fill-rule: evenodd; stroke: #2e3138; stroke-linecap: round; stroke-miterlimit: 10; stroke-width: 3px;"/>
              <path d="M157.41,73.56c5.08,7.98,7.1,17.86,5.54,27.19" style="fill: none; fill-rule: evenodd; stroke: #2e3138; stroke-linecap: round; stroke-miterlimit: 10; stroke-width: 3px;"/>
              <path d="M163.4,99.71c1.38-.36,2.79-.69,4.22-.65,1.43.04,2.9.48,3.9,1.49.95.95,1.41,2.34,1.39,3.69s-.48,2.66-1.15,3.83c-.47.81-1.03,1.57-1.72,2.21-2,1.87-4.77,2.59-7.42,3.26" style="fill: none; fill-rule: evenodd; stroke: #2e3138; stroke-linecap: round; stroke-miterlimit: 10; stroke-width: 3px;"/>
              <path d="M163.97,105.36c.24-.5.68-.93,1.21-1.07.54-.15,1.16.01,1.52.44.35.43.37,1.13-.02,1.53" style="fill: none; fill-rule: evenodd; stroke: #2e3138; stroke-linecap: round; stroke-miterlimit: 10; stroke-width: 3px;"/>
              <path d="M116.79,124.78c-.83,5.31-.87,5.81-1.71,10.61" style="fill: none; fill-rule: evenodd; stroke: #2e3138; stroke-linecap: round; stroke-miterlimit: 10; stroke-width: 3px;"/>
              <path d="M164.53,113.54c-.02,9.1.84,11.25,1.68,18.21" style="fill: none; fill-rule: evenodd; stroke: #2e3138; stroke-linecap: round; stroke-miterlimit: 10; stroke-width: 3px;"/>
              <path d="M120.37,85.99c.49-.63,1.25-1.01,2.03-1.17.78-.15,1.59-.1,2.38.01.62.09,1.27.22,1.75.63" style="fill: none; fill-rule: evenodd; stroke: #2e3138; stroke-linecap: round; stroke-miterlimit: 10; stroke-width: 3px;"/>
              <path d="M149.05,84.6c1.72-1.23,4.16-1.34,5.98-.27" style="fill: none; fill-rule: evenodd; stroke: #2e3138; stroke-linecap: round; stroke-miterlimit: 10; stroke-width: 3px;"/>
              <path d="M134.69,95.41c-.16,2.81-.34,5.69-1.51,8.25-.32.69-.71,1.37-.79,2.12-.11,1.09.47,2.18,1.34,2.85s1.96.99,3.06,1.09c1.58.15,3.49-.32,4.04-1.82" style="fill: none; fill-rule: evenodd; stroke: #2e3138; stroke-linecap: round; stroke-miterlimit: 10; stroke-width: 3px;"/>
              <path d="M132.73,131.75c-2.14-.01-3.84-.19-6.76-1.15-2.77-.91-6.52-3.12-8.33-5.42,0,0-4.9-11.64-6.75-25.06" style="fill: none; fill-rule: evenodd; stroke: #2e3138; stroke-linecap: round; stroke-miterlimit: 10; stroke-width: 3px;"/>
              <path d="M115.14,136.64c2.72,5.96,9.91,12.3,14.56,16.8,1.03,1,2.18,1.98,3.91,2.07,1.58.08,3.41-.62,5.16-1.33,10.87-4.45,17.91-13.74,27.96-20.9" style="fill: none; fill-rule: evenodd; stroke: #2e3138; stroke-linecap: round; stroke-miterlimit: 10; stroke-width: 3px;"/>
              <path d="M119.76,216.15c-1.53-31.94-5.41-84.21-5.41-84.21-4.11,6.16-8.01,12.55-11.71,19.14-.26.47-.54.97-.6,1.54-.09.78.22,1.52.52,2.19,1.64,3.63,3.27,7.26,4.9,10.89-1.55,2.11-2.11,2.82-3.37,5.24l11.62,45.21" style="fill: none; fill-rule: evenodd; stroke: #2e3138; stroke-linecap: round; stroke-linejoin: round; stroke-width: 3px;"/>
              <path d="M153.15,256.25c3.61-22.92,13.57-122.98,13.57-122.98,4.55,7.49,5.68,17.11,10.23,24.6-3,2.96-6.01,5.91-9.01,8.87,2.6,3.28,5.21,6.56,7.81,9.84l-18.33,70.7" style="fill: none; fill-rule: evenodd; stroke: #2e3138; stroke-linecap: round; stroke-miterlimit: 10; stroke-width: 3px;"/>
              <path d="M159.44,117.38c-1.93,5.44-3.94,7.3-6.49,9.85-2.05,2.05-9.37,4.52-15.1,4.71" style="fill: none; fill-rule: evenodd; stroke: #2e3138; stroke-linecap: round; stroke-miterlimit: 10; stroke-width: 3px;"/>
              <circle cx="151.75" cy="96.82" r="1.4" style="fill: none; stroke: #2e3138; stroke-linecap: round; stroke-miterlimit: 10; stroke-width: 3px;"/>
              <path d="M122.62,96.82c0,.78.63,1.4,1.4,1.4s1.4-.63,1.4-1.4-.63-1.4-1.4-1.4-1.4.63-1.4,1.4Z" style="fill: none; stroke: #2e3138; stroke-linecap: round; stroke-miterlimit: 10; stroke-width: 3px;"/>
              <path d="M132.66,116.83s-.01,5.1,4.43,5.14c4.44.04,5.32-2.21,5.77-4.95,0,0-3.47-2.31-10.2-.19Z" style="fill: none; fill-rule: evenodd; stroke: #2e3138; stroke-linecap: round; stroke-miterlimit: 10; stroke-width: 3px;"/>
              <path d="M190.78,179.62c4.53,32.76,2.98,72.38,7.51,105.13" style="fill: none; stroke: #2e3138; stroke-linecap: round; stroke-miterlimit: 10; stroke-width: 3px;"/>
              <path d="M92.24,177.46c-.38,10.21-.24,16.58-.02,26.79" style="fill: none; fill-rule: evenodd; stroke: #2e3138; stroke-linecap: round; stroke-miterlimit: 10; stroke-width: 3px;"/>
              <path d="M277.72,177.31c5.74-1.26,9.99-7.35,15.87-7.13.4.01.81.07,1.14.29.92.63.6,2.07-.01,3-1.29,1.94-2.27,1.96-4.59,2.21" style="fill: none; fill-rule: evenodd; stroke: #2e3138; stroke-linecap: round; stroke-miterlimit: 10; stroke-width: 3px;"/>
              <path d="M303.64,183.94c1.08-1.02,2.34-2.36,3.61-3.1,1.38-.8,2.51-1.2,3.41-2.66.82-1.33,1.19-2.89,1.29-4.44.02-.36.03-.74-.15-1.04-.18-.31-.53-.5-.7-.81-.24-.44-.08-.98-.17-1.47-.15-.8-.91-1.32-1.61-1.75-.4-.24-.81-.49-1.26-.59-.43-.1-.89-.06-1.32.02-2.14.36-4.06,1.47-5.94,2.56-4.03,2.34-8.17,4.69-12.75,5.54" style="fill: #fff; fill-rule: evenodd; stroke: #2e3138; stroke-linecap: round; stroke-miterlimit: 10; stroke-width: 3px;"/>
              <path d="M297.56,182.49c5.67-1.13,5.17-1.35,9.87-3.44.69-.31,1.42-.63,2.23-.65.81-.02,1.69.4,1.72,1,.01.26-.13.51-.27.75-.56.94-1.14,1.9-2.09,2.64-.55.43-1.21.78-1.87,1.12-4.02,2.09-7.39,4.09-12.08,5.24-4.75,1.17-9.72,1.86-14.71,2.09" style="fill: #fff; fill-rule: evenodd; stroke: #2e3138; stroke-linecap: round; stroke-miterlimit: 10; stroke-width: 3px;"/>
              <path d="M311.76,173.11c-.02-.29-.31-.51-.61-.55-.29-.04-.58.06-.86.16-4.38,1.58-8.27,4.59-12.88,5.23" style="fill: none; fill-rule: evenodd; stroke: #2e3138; stroke-linecap: round; stroke-miterlimit: 10; stroke-width: 3px;"/>
              <path d="M310.08,168.88c-2.71.85-4.96,2.7-7.36,4.2-2.4,1.5-5.01,2.68-7.73,3.5" style="fill: none; fill-rule: evenodd; stroke: #2e3138; stroke-linecap: round; stroke-miterlimit: 10; stroke-width: 3px;"/>
              <path d="M166.36,128.9c7.58,1.46,15.16,2.93,22.74,4.39,2.57.5,5.19,1.01,7.46,2.3,4.32,2.44,6.68,7.19,8.91,11.62,6.5,12.91,13.92,25.36,22.2,37.2" style="fill: none; stroke: #2e3138; stroke-linecap: round; stroke-miterlimit: 10; stroke-width: 3px;"/>
              <path d="M226.77,185c15.21-4.24,30.65-7.65,46.23-10.21,1.59,6.96,3.18,13.92,4.76,20.88-16.14,9.22-32.7,17.69-49.62,25.38-4.24,1.93-9.27,3.79-13.34,1.52-2.31-1.28-3.76-3.65-5.12-5.92-5.55-9.29-11.11-18.59-16.66-27.88" style="fill: none; stroke: #2e3138; stroke-linecap: round; stroke-miterlimit: 10; stroke-width: 3px;"/>
              <path d="M92.16,178.76c-1.92,7.24-7.71,13.08-9.16,20.43" style="fill: none; fill-rule: evenodd; stroke: #2e3138; stroke-linecap: round; stroke-miterlimit: 10; stroke-width: 3px;"/>
            </g>
          </g>
          <g>
            <path d="M303.11,121.3v52.35c0,1.24-.83,9.3-9.51,9.3s-9.92-9.3-9.92-9.3v-52.7c-1.31-.78-2.2-2.41-2.25-3.93,7.99.58,16,.82,24,.71-.79,1.02-1.54,2.55-2.33,3.57Z" style="fill: #fff;"/>
            <path d="M301.4,140.29c.27,0,.59,0,.77.2.13.14.16.35.18.54.08.75.27,1.49.35,2.24v2.08c.05,7.92.42,15.92.47,23.84.01,1.99.02,4.02-.66,5.88-.45,1.24-1.19,2.35-1.97,3.41-3.09,3.8-5.34,5-10.02,3.35-4.15-1.46-7.25-5.21-7.35-9.78-.13-5.97-.05-12.02-.28-18.05-.11-2.76-1.43-11.91,1.41-13.48,1.71-.95,6.35-.03,8.34-.05,2.92-.03,5.83-.09,8.75-.19Z" style="fill: #ff6d04;"/>
            <g>
              <path d="M283.68,120.95v52.7s1.24,9.3,9.92,9.3,9.51-8.06,9.51-9.3v-52.35" style="fill: none; stroke: #000; stroke-linecap: round; stroke-linejoin: round; stroke-width: 3px;"/>
              <path d="M283.4,120.82c-1.03-1.03-1.85-2.26-2.43-3.6,3.25.09,6.49.13,9.74.22h15.29c-.88,1.39-1.73,3-2.69,4.34" style="fill: none; stroke: #000; stroke-linecap: round; stroke-linejoin: round; stroke-width: 3px;"/>
              <line x1="283.89" y1="140.38" x2="303.11" y2="140.38" style="fill: none; stroke: #000; stroke-linecap: round; stroke-linejoin: round; stroke-width: 3px;"/>
              <line x1="284.1" y1="130.46" x2="289.47" y2="130.46" style="fill: none; stroke: #000; stroke-linecap: round; stroke-linejoin: round; stroke-width: 3px;"/>
              <line x1="283.68" y1="150.3" x2="289.27" y2="150.3" style="fill: none; stroke: #000; stroke-linecap: round; stroke-linejoin: round; stroke-width: 3px;"/>
              <line x1="283.68" y1="160.22" x2="289.27" y2="160.22" style="fill: none; stroke: #000; stroke-linecap: round; stroke-linejoin: round; stroke-width: 3px;"/>
            </g>
          </g>
        </g>
        <g>
          <path d="M123.19,222.76c1.85,1.26,3.87,2.78,4.14,5,.08.7-.01,1.45.31,2.07.3.59.91.94,1.49,1.24,4.35,2.25,9.27,3.32,13.42,5.9,6.78,4.21,10.58,11.79,14.05,18.99.3.63.61,1.32.46,2-.16.68-1.04,1.21-1.58.77.47,1.58.67,3.38-.13,4.82-.8,1.44-2.94,2.19-4.17,1.09-.41-.37-.73-.92-1.27-1.01-.54-.09-1.01.32-1.49.56-1.28.64-2.87.14-3.98-.75-1.11-.9-1.88-2.13-2.79-3.23-4.64-5.64-12.43-7.48-18.21-11.93-1.21-.93-2.34-1.99-3.69-2.7-1.4-.74-2.97-1.08-4.51-1.46-14.41-3.58-27.21-11.67-39.74-19.64-1.29-.82-2.64-1.7-3.31-3.07-1.23-2.49.37-5.64,2.75-7.07,2.38-1.43,5.29-1.59,8.07-1.71,7.85-.35,15.71-.53,23.36,1.54,6.58,1.78,11.19,4.75,16.84,8.6Z" style="fill: #fff; fill-rule: evenodd;"/>
          <path d="M78.34,199.2c8.95,5.78,34.96,16.4,43.61,22.65,1.55,1.12,5.53,3.27,6.25,5.05.95,2.36-.88,3.56-2.41,5.77-2.96,4.27-5.55,8.81-7.73,13.53-14-4.87-27.74-10.48-41.15-16.79-6.84-3.22-13.59-6.61-20.25-10.19-4.49-2.41-10.65-5.24-11.13-11.21-.13-1.57.39-3.12.93-4.61,8.17-22.42,22.81-41.79,37.24-60.79,8.57-11.29,19.16-8.99,31.33-13.06" style="fill: none; fill-rule: evenodd; stroke: #2e3138; stroke-linecap: round; stroke-miterlimit: 10; stroke-width: 3px;"/>
          <path d="M127.3,231.27c4.81,1.31,9.52,2.97,14.09,4.95,7.15,3.1,11.13,10.46,14.16,17.36.72,1.63,1.33,3.63.32,5.1" style="fill: none; fill-rule: evenodd; stroke: #2e3138; stroke-linecap: round; stroke-miterlimit: 10; stroke-width: 3px;"/>
          <path d="M138.46,249.34c3.29,2.8,6.28,5.97,8.88,9.41.59.77,1.17,1.59,1.39,2.54.23.95.02,2.06-.75,2.65-1.34,1.05-3.29-.03-4.43-1.29-1.63-1.8-2.8-4.02-4.64-5.61-1.04-.89-2.25-1.55-3.49-2.15-5.6-2.73-11.78-4.4-16.78-8.12" style="fill: none; fill-rule: evenodd; stroke: #2e3138; stroke-linecap: round; stroke-miterlimit: 10; stroke-width: 3px;"/>
          <path d="M143.74,244.06c4.54,4.4,8.18,9.62,10.64,15.45.44,1.05.85,2.14.81,3.28-.04,1.13-.65,2.32-1.71,2.72-.83.31-1.79.09-2.55-.37-.76-.46-1.36-1.14-1.95-1.81" style="fill: none; fill-rule: evenodd; stroke: #2e3138; stroke-linecap: round; stroke-miterlimit: 10; stroke-width: 3px;"/>
        </g>
      </g>
    </g>
  </g>
</svg>