<?xml version="1.0" encoding="UTF-8"?>
<svg id="_圖層_2" data-name="圖層 2" xmlns="http://www.w3.org/2000/svg" xmlns:xlink="http://www.w3.org/1999/xlink" viewBox="0 0 259.8 300.19">
  <defs>
    <clipPath id="clippath">
      <polygon points="202.83 274.65 102.65 206.94 48.19 257.56 0 42.4 83.83 8.96 139.91 0 179.12 25.55 223.94 53.05 247.47 102.54 259.8 189.66 202.83 274.65" style="fill: none;"/>
    </clipPath>
  </defs>
  <g id="_圖層_1-2" data-name="圖層 1">
    <g>
      <path d="M226.58,294.54L9.88,147.7h162.71c29.82,0,53.99,24.17,53.99,53.99v92.85Z" style="fill: #ff6d04; stroke: #2e3138; stroke-miterlimit: 10; stroke-width: 6px;"/>
      <g style="clip-path: url(#clippath);">
        <g>
          <path d="M64.98,123.4c-.44-.63-.89-1.28-1.08-2.02-.34-1.34.22-2.72.56-4.06.91-3.62-.56-6.19-1.52-9.51-1-3.48-1.28-7.17-.78-10.77.09-.68.13-1.54-.48-1.85-1.07-.55-1.88,1.42-3.07,1.47-1.92-3.74-3.85-7.48-5.77-11.23-.45-.88-1.08-1.89-2.08-1.93-.77-.04-1.42.54-2.09.92-1.35.76-3.09.78-4.45.04-.87-.47-1.76-1.26-2.71-.96-2.24.7-.06,5.27-2.25,6.1-.41.16-.86.11-1.28.21-1.23.31-1.77,1.8-1.67,3.06s.66,2.45.76,3.71c.03.29.02.6-.11.86-.32.61-1.15.66-1.81.88-1.72.57-2.49,2.7-2.15,4.47.34,1.78,1.5,3.27,2.62,4.69,2.15,2.72,4.3,5.44,6.46,8.17,1.54,1.94,3.09,3.9,5.06,5.41,1.85,1.41,4.01,2.38,5.84,3.81,2.72,2.13,3.5,5.47,4.42,8.65,2.99,10.27,5.97,20.54,8.96,30.81,2.15,7.4,4.31,14.83,5.33,22.47.51,3.82.78,7.76,4.02,10.36,1.49,1.19,3.29,1.94,5.13,2.41.66.17,1.34.31,2.02.28.62-.03,1.23-.19,1.83-.36,2.31-.63,4.58-1.22,6.02-3.21,2.72-3.77,4.17-8.33,6.91-12.09,3.07-4.21,7.9-7.78,8.2-12.98.28-4.87-3.87-9.09-8.52-10.57-2.41-.77-4.92-.95-7.43-.9-1.56.03-4.93,1.11-6.34.43-2.63-1.27-3.92-9.11-5.03-11.84-3.58-8.77-8.12-17.15-13.52-24.94Z" style="fill: #fff;"/>
          <path d="M198.9,142.29c1.32,3.3,1.99,6.82,2.25,10.36.13,1.76.15,3.5.07,5.25-.07,1.49.29,2.97.19,4.48-.09,1.29-.38,2.57-.24,3.86.06.57.21,1.14.19,1.71-.13,2.75-4.19,3.51-6.2,4.3-.72.29-8.63,3.47-8.64,3.43-.12-.26-.23-.52-.35-.78-2.23.86-4.5,2.9-6.34,4.43-.15.12-.29.25-.38.42-.16.32-.04.7.05,1.04.34,1.21.52,2.59.31,3.84-.15.94-.64,1.74-.84,2.68-.94,4.46-.92,8.67-1.3,13.17-.43,5.12-.65,10.26-.66,15.4-.02,10.39.82,20.78,2.51,31.03.51,3.09,1.1,6.2.94,9.33-.04.86-.17,1.77-.71,2.43-.98,1.21-2.86,1.12-4.33.61-3.33-1.15-5.92-3.73-8.52-6.1-6.53-5.95-13.85-11.04-21.7-15.09-3.04-1.57-6.17-2.99-9.05-4.83-1.95-1.25-3.78-2.68-5.61-4.11-6.27-4.91-12.55-9.83-18.82-14.74-.99-.77-1.99-1.57-2.65-2.63-1.69-2.76.25-5.76.19-8.7-.08-3.71-1.47-7.24-2.53-10.75-.97-3.2-1.71-6.48-2.19-9.8-.23-1.58-.57-3.28-.58-4.87-.01-1.86.21-4.16.78-5.93.12-.37.26-.74.22-1.12-.06-.57-.54-1.01-1.07-1.22-.53-.21-1.11-.23-1.68-.28-3.91-.31-7.11-1.98-10.56-3.59-2.21-1.03-4.67-1.48-6.82-2.62-.22-.12-.45-.25-.57-.47-.21-.37-.04-.84.13-1.23,2.12-4.83,4.74-9.42,7.35-14,2.22-3.9,4.47-7.83,7.4-11.25,2.84-3.31,6.23-5.52,9.71-8.03,1.51-1.09,3.27-1.83,5.1-2.14.23-.04.47-.07.69,0,.16.05.31.14.45.23,1.17.81,2,2,2.99,3,1.07,1.09,2.23,2.08,3.47,2.96,2.46,1.75,5.19,3.11,8.03,4.13,4.42,1.6,9.07,2.43,13.71,3.09,2.6.37,5.23.46,7.85.45,2.21,0,4.53.18,6.63-.49,4.86-1.56,9.79-2.86,14.64-4.48,2.21-.73,4.15-2.22,6-3.63.48-.37,5.19-4.73,5.16-4.75,6.73,3.83,12.35,8.61,15.3,16.01Z" style="fill: #1f89bd;"/>
          <path d="M164.99,70.93c.38.25.77.49,1.22.72,1.21.63,2.28,1.57,3.63,1.9,2.18.53,4.75-.64,6.59.65.91.64,1.38,1.77,1.56,2.87.42,2.5-.45,5.18-2.24,6.96s-4.48,2.63-6.97,2.2c-.38-.06-.81-.14-1.11.1-.22.18-.29.48-.35.76-1.37,6.57-2.73,13.13-4.1,19.7-.27,1.29-.54,2.59-.71,3.9-.3,2.38-.27,4.79-.24,7.2,3.97,1.45,7.85,3.12,11.63,5.01-1.78,1.83-3.58,3.67-5.75,5.02-1.96,1.22-4.16,1.99-6.39,2.6-7.89,2.17-16.3,2.45-24.32.8-3.12-.64-6.24-1.6-8.83-3.45s-4.59-4.72-4.78-7.9c2.48-.5,4.95-1,7.43-1.5.44-.09.93-.21,1.16-.6.16-.28.14-.63.11-.96-.39-4.29-.79-8.57-1.18-12.86-4.36-1.41-8.91-4.06-11.6-7.77-2.19-3.02-3.19-6.72-4.14-10.32-.59-2.24-1.19-4.49-1.78-6.73-1.53-5.78.34-11.71,1.09-17.64,9.66-2.07,16.9-9.38,24.56-15.62.26-.21.56-.44.89-.44.35,0,.66.23.92.47,1.35,1.24,2.24,2.9,3.21,4.46,2.05,3.31,4.16,6.64,6.96,9.39,1.25,1.23,2.61,2.33,3.98,3.44l7.68,6.23c.66.53,1.24,1.01,1.87,1.43Z" style="fill: #fff;"/>
          <path d="M187.07,172.07c3.11-1.27,6.29-2.36,9.52-3.27,1.42-.4,2.87-.76,4.34-.77.18,0,.38.01.51.15.13.14.14.35.14.55.03,2.05,0,4.1-.11,6.15,0,.14-.02.28-.08.4-.1.18-.31.24-.5.29-4.96,1.33-10.1.98-14.98,2.84-1.19.45-5.59,2.91-6.51,1.46-.84-1.33-1.65-4.98.46-5.38,2.51-.48,4.83-1.46,7.21-2.43Z" style="fill: #8bc2dd; stroke: #2e3138; stroke-miterlimit: 10;"/>
          <path d="M182.73,125.99c-1.47,1.86-3.22,3.51-5.16,4.87-1.75,1.23-3.77,2.44-5.81,3.14-1.96.68-3.77,1.81-5.74,2.55-4.02,1.49-8.21,2.1-12.47,2.22-2.02.06-4.06.39-6.11.44-2.18.05-4.36-.02-6.53-.19-4.05-.32-8.11-1.03-11.86-2.58-1.08-.45-2.12-.96-3.14-1.52-2.53-1.4-4.89-3.12-7-5.1-1.06-.99-2.05-2.04-2.98-3.15-.38-.46-1.11-1.04-.86-1.55.22-.45,1.38-.83,1.82-1.04,1.01-.48,2.02-.96,3.03-1.44.95-.45,1.9-.9,2.91-1.2,1.23-.36,2.51-.49,3.79-.55.52,1.79,1.11,4.52,2.45,5.83,1.58,1.55,3.81,2.55,5.77,3.52,2.16,1.07,4.55,1.6,6.94,1.79,2.17.18,4.35.09,6.52-.07,2-.15,3.98-.11,5.95-.55,2.92-.66,5.87-1.32,8.6-2.54,1.44-.64,2.8-1.42,4.17-2.2,1.89-1.08,3.76-2.19,5.66-3.24,1.37-.75,2.23-.24,3.65.15,2.21.6,4.36,1.41,6.41,2.43Z" style="fill: #8bc2dd;"/>
          <path d="M167.95,86.8c-1.25,3.99-2.06,8.11-2.87,12.21-.51,2.58-1.01,5.17-1.01,7.8,3.07.35,6.23,0,9.15-1.02.74-.26,1.48-.57,2.08-1.09.62-.55,1.04-1.29,1.61-1.88,1.99-2.06,5.33-1.94,7.82-3.35,2.05-1.15,3.38-3.24,4.38-5.36s1.75-4.38,3.05-6.33c3.12-4.71,6.87-8.82,5.12-14.92-.33-1.14-.83-2.24-1.64-3.1-1.25-1.33-3.05-1.94-4.68-2.75-2-.99-4.39-2.5-5.64-4.41-1.27-1.94-1.52-4.13-2.11-6.31-.34-1.3-.92-2.52-1.5-3.73-1.22-2.57-2.44-5.16-4.14-7.44-1.84-2.49-4.18-4.55-6.5-6.59-2.71-2.39-5.5-4.82-8.88-6.1-3.52-1.34-7.4-1.32-11.17-1.27-3.48.04-6.75.72-10.2.26-1.51-.2-2.98-.61-4.49-.85-7.72-1.24-16.01,2.4-20.32,8.93-1.22,1.85-2.14,3.88-3.4,5.7-1.92,2.75-4.6,4.92-6.33,7.79-.57.95-1.04,1.96-1.67,2.86-.54.77-1.2,1.46-1.91,2.09-1.8,1.62-3.89,2.9-6.15,3.78-4.7,1.84-5.93,9.23-4.18,13.96,1.3,3.5,4.38,5.99,7.38,8.21.43.32.87.64,1.39.75-.13-.27-.21-.56-.24-.85-.32,3.9.06,7.86,1.14,11.62.3,1.06.66,2.11,1.26,3.03,1.02,1.57,2.64,2.65,4.26,3.59,2.43,1.41,5.26,2.64,7.97,1.92.92,1.97,2.88,3.3,4.97,3.92s4.29.62,6.47.56c1.6-.04,3.55-.38,4.07-1.89.41-1.21-.43-2.54-1.51-3.22-1.08-.69-2.37-.94-3.56-1.43-2.2-.9-3.99-2.61-5.35-4.56-1.36-1.95-2.33-4.14-3.24-6.33-1.12-2.69-2.2-5.42-2.75-8.29-.37-1.91-.51-3.87-.4-5.81.23-4.4.04-8.33.64-12.7.08-.56.17-1.13.47-1.6.39-.6,1.07-.93,1.73-1.23,2.45-1.12,4.93-2.18,7.35-3.38,6.13-3.05,11.85-7.11,16.04-12.52,1.06,2.63,2.97,4.81,4.87,6.92,5.93,6.56,12.11,12.9,18.53,18.98,1.64,1.55,3.57,3.19,5.83,3.04,1.52-.11,2.95-1.04,4.46-.86,1.43.17,2.59,1.35,3.07,2.7.49,1.35.4,2.84.12,4.25-.44,2.23-1.4,4.47-3.2,5.85-1.8,1.38-4.47,1.96-6.19.48Z" style="fill: #4b4c4e;"/>
          <path d="M164.11,106.59c2.58,2.15,10.05.29,11.85-2.73,1.8-3.02,5.07-2.85,6.53-3.01,7.56-.83,9.53-13.68,9.53-13.68,5.51-4.63,6.12-7.14,5.97-13.21s-8.04-7.16-8.04-7.16c-7.9-3.54-4.86-8.36-8.33-14.71-15.49-28.34-38.45-20.22-38.45-20.22,0,0-17.56-7.9-28.39,9.4-10.83,17.3-13.23,18.54-15.71,19.48s-12.62,7.62-3.72,20.2c0,0,2.69,2.45,5.86,4,0,0-2.11,19.49,13.67,18.92,0,0,2.96,5.59,12.17,4.59" style="fill: none; stroke: #2e3138; stroke-linecap: round; stroke-miterlimit: 10; stroke-width: 3px;"/>
          <path d="M113.28,62.14c15.51-3.52,26.98-16.95,26.98-16.95,0,0,13.4,20.46,30.82,29.94" style="fill: none; stroke: #2e3138; stroke-linecap: round; stroke-miterlimit: 10; stroke-width: 3px;"/>
          <path d="M170.61,74.64c.87-.42,1.81-.7,2.77-.8,1.08-.12,2.28.02,3.07.77.48.46.76,1.09.95,1.73.98,3.24-.09,7.01-2.62,9.26-.99.87-2.2,1.53-3.5,1.72-1.31.19-2.71-.12-3.72-.96" style="fill: none; stroke: #2e3138; stroke-linecap: round; stroke-miterlimit: 10; stroke-width: 3px;"/>
          <path d="M114.87,62.25s-7.07,44.33,23.17,41.61" style="fill: none; stroke: #2e3138; stroke-linecap: round; stroke-miterlimit: 10; stroke-width: 3px;"/>
          <path d="M168.02,81.51s-6.5,31.66-5.5,36.84" style="fill: none; stroke: #2e3138; stroke-linecap: round; stroke-miterlimit: 10; stroke-width: 3px;"/>
          <path d="M156.33,40.43c2.72,1.6,4.88,4.14,6.01,7.08.86,2.24,1.22,4.82,2.94,6.5" style="fill: none; stroke: #4b4c4e; stroke-linecap: round; stroke-miterlimit: 10; stroke-width: 3px;"/>
          <path d="M165.54,59.87c.7,1.01,1.4,2.01,2.09,3.02.99,1.43,2.21,3,3.94,3.16" style="fill: none; stroke: #4b4c4e; stroke-linecap: round; stroke-miterlimit: 10; stroke-width: 3px;"/>
          <path d="M174.28,53.6c1.57,1.22,2.57,3.14,2.67,5.13.08,1.59-.38,3.26.23,4.73.55,1.31,1.82,2.14,3.02,2.89" style="fill: none; stroke: #4b4c4e; stroke-linecap: round; stroke-miterlimit: 10; stroke-width: 3px;"/>
          <path d="M186.36,71.55c.66,1.21,1.33,2.43,1.66,3.76.34,1.33.31,2.81-.36,4.01" style="fill: none; stroke: #4b4c4e; stroke-linecap: round; stroke-miterlimit: 10; stroke-width: 3px;"/>
          <path d="M183.34,89.63c-.36,1.05-.72,2.11-1.08,3.16-.32.94-.65,1.9-1.25,2.69-.6.79-1.54,1.39-2.53,1.34" style="fill: none; stroke: #4b4c4e; stroke-linecap: round; stroke-miterlimit: 10; stroke-width: 3px;"/>
          <path d="M108.19,89.7c-1.74,2.38-1.53,5.98.46,8.16" style="fill: none; stroke: #4b4c4e; stroke-linecap: round; stroke-miterlimit: 10; stroke-width: 3px;"/>
          <path d="M104.51,65.94c-2.72,3.43-3.31,8.41-1.48,12.38" style="fill: none; stroke: #4b4c4e; stroke-linecap: round; stroke-miterlimit: 10; stroke-width: 3px;"/>
          <path d="M135.2,39.11c-2.45.21-5.15.52-6.82,2.33-.95,1.03-1.43,2.4-2.1,3.63-1.57,2.87-4.25,5.01-7.18,6.47-2.93,1.46-6.11,2.32-9.28,3.16" style="fill: none; stroke: #4b4c4e; stroke-linecap: round; stroke-miterlimit: 10; stroke-width: 3px;"/>
          <path d="M123.71,70.6c0,1.19.96,2.15,2.15,2.15s2.15-.96,2.15-2.15-.96-2.15-2.15-2.15-2.15.96-2.15,2.15Z" style="fill: #2e3117; stroke: #2e3138; stroke-miterlimit: 10;"/>
          <path d="M147.5,70.6c0,1.19.96,2.15,2.15,2.15s2.15-.96,2.15-2.15-.96-2.15-2.15-2.15-2.15.96-2.15,2.15Z" style="fill: #2e3117; stroke: #2e3138; stroke-miterlimit: 10;"/>
          <path d="M141.85,53.87c-1.28.2-2.59.2-3.87-.02" style="fill: none; stroke: #2e3138; stroke-linecap: round; stroke-miterlimit: 10; stroke-width: 3px;"/>
          <path d="M142.86,57.81c-1.94.33-3.94.35-5.89.06" style="fill: none; stroke: #2e3138; stroke-linecap: round; stroke-miterlimit: 10; stroke-width: 3px;"/>
          <path d="M137.74,71.43c-.57,1.82-1.39,3.56-2.44,5.16-.51.77-1.09,1.59-1.04,2.52.04.85.62,1.59,1.33,2.06,1.03.68,2.5.85,3.45.07" style="fill: none; stroke: #2e3138; stroke-linecap: round; stroke-miterlimit: 10; stroke-width: 3px;"/>
          <path d="M147.5,83.28c.61.72.96,1.68.94,2.63" style="fill: none; stroke: #2e3138; stroke-linecap: round; stroke-miterlimit: 10; stroke-width: 3px;"/>
          <line x1="131.08" y1="104.82" x2="132.22" y2="118.35" style="fill: none; stroke: #2e3138; stroke-linecap: round; stroke-miterlimit: 10; stroke-width: 3px;"/>
          <path d="M172.32,78.77c.11-.58.89-.84,1.4-.55.51.29.73.94.65,1.52-.08.58-.4,1.1-.74,1.57" style="fill: none; stroke: #2e3138; stroke-linecap: round; stroke-miterlimit: 10; stroke-width: 3px;"/>
          <path d="M163.04,118.24c3.62,1.18,7.15,2.63,10.56,4.33" style="fill: none; stroke: #2e3138; stroke-linecap: round; stroke-miterlimit: 10; stroke-width: 3px;"/>
          <path d="M132.39,118.28c-1.35.33-2.56.88-3.85,1.36-1.44.54-2.66.51-2.05,2.45,1.2,3.84,4.38,6.85,8.06,8.48,3.68,1.62,7.81,1.98,11.82,1.74,5.45-.33,10.79-1.75,15.85-3.77,2.55-1.02,5.04-2.19,7.47-3.47,1.65-.86,3.1-2.35,4.88-1.97,12.62,2.72,23.24,12.79,26.51,25.3,1.46,5.59.65,11.83.55,17.59-.06,3.35-.14,6.7-.25,10.05,0,0-7.92-.38-12.59,1.29s-7.3,3.59-9.23,2.85" style="fill: none; stroke: #2e3138; stroke-linecap: round; stroke-miterlimit: 10; stroke-width: 3px;"/>
          <path d="M182.29,127.08s-13.33,14.08-33.87,12.15c-20.54-1.92-22.84-2.09-34.33-14.14" style="fill: none; stroke: #2e3138; stroke-linecap: round; stroke-miterlimit: 10; stroke-width: 3px;"/>
          <path d="M201.43,168.94s-8.67-.65-14.41,2.36-7.88,3.64-7.88,3.64" style="fill: none; stroke: #2e3138; stroke-linecap: round; stroke-miterlimit: 10; stroke-width: 3px;"/>
          <g>
            <path d="M159.2,152.01c.68,1.51.54,3.36-.02,4.92-.99,2.76-3.17,4.78-5.57,5.93s-5.02,1.53-7.61,1.81c1.22,1.6,2.39,3.26,3.5,4.96,5.48-.16,10.55-5.22,11.44-11.42.28-1.94.16-4.02-.69-5.73-.63-1.26-1.86-2.58-3.18-2.5.89.36,1.7,1.05,2.13,2.03Z" style="fill: #fff; stroke: #2e3138; stroke-linecap: round; stroke-linejoin: round; stroke-width: 3px;"/>
            <path d="M159.22,151.23s-3.13-1.13-3.47,1.5c-.21,1.65.08,3.32.88,4.71,1.62,2.84,4.21,4.83,7.01,5.95,2.79,1.12,5.79,1.42,8.75,1.41-1.75,1.86-3.51,3.71-5.26,5.57-.18.19-.37.39-.6.49-.39.17-.83.04-1.23-.11-3.44-1.28-6.6-3.78-8.48-7.32-1.88-3.54-3.78-8.08-2.25-11.84,0,0,1.49-3.37,4.66-.36Z" style="fill: #fff; stroke: #2e3138; stroke-linecap: round; stroke-linejoin: round; stroke-width: 3px;"/>
          </g>
          <path d="M127.03,120.08c-3.95,2.01-8.23,3.27-12.35,4.9-6.6,2.61-11.39,6.98-16.03,12.2-1.76,1.98-3.17,4.23-4.55,6.49-3.63,5.96-7.05,12.04-10.26,18.23,6.17,5.19,14.41,7.84,22.45,7.2" style="fill: none; stroke: #2e3138; stroke-linecap: round; stroke-miterlimit: 10; stroke-width: 3px;"/>
          <path d="M111.04,155.87c-7.94,8.85-7.5,22.38-4.62,33.92,1.29,5.18,2.99,10.33,4.4,15.5" style="fill: none; stroke: #2e3138; stroke-linecap: round; stroke-miterlimit: 10; stroke-width: 3px;"/>
          <path d="M109.77,201.92c-.26,2.09-2.3,18.29-2.57,20.38" style="fill: none; stroke: #2e3138; stroke-linecap: round; stroke-miterlimit: 10; stroke-width: 3px;"/>
          <path d="M132.22,87.37s4.46,1.44,10.12,0c0,0,.3,4-5.49,4.05-4.27.04-4.63-4.05-4.63-4.05Z" style="fill: none; stroke: #2e3138; stroke-linecap: round; stroke-linejoin: round; stroke-width: 3px;"/>
          <path d="M129.7,83.92c-.66.43-1,1.29-.83,2.06" style="fill: none; stroke: #2e3138; stroke-linecap: round; stroke-miterlimit: 10; stroke-width: 3px;"/>
          <path d="M87.21,157.33c2.18.11,4.11,1.35,6.01,2.43,3.73,2.12,7.74,3.74,11.9,4.8" style="fill: none; stroke: #2e3138; stroke-linecap: round; stroke-miterlimit: 10; stroke-width: 3px;"/>
          <path d="M63.28,119.92c8.18,15.71,17.87,31.4,22.03,48.62" style="fill: none; stroke: #2e3138; stroke-linecap: round; stroke-miterlimit: 10; stroke-width: 3px;"/>
          <path d="M54.23,125.72c7.76,21.71,9.74,39.31,16.74,61.27.84,2.65,1.78,5.31,3.33,7.62,1.56,2.31,3.81,4.25,6.52,4.89,3.48.82,7.18-.63,9.89-2.95s4.63-5.42,6.5-8.46c2.38-3.88,4.76-7.75,7.15-11.63" style="fill: none; stroke: #2e3138; stroke-linecap: round; stroke-miterlimit: 10; stroke-width: 3px;"/>
          <path d="M63.16,118.68c.65-1.71.92-3.56.78-5.38-.2-2.52-1.16-4.94-1.33-7.47-.21-3.25.92-6.46.76-9.72-.03-.54-.16-1.19-.67-1.38-.43-.16-.89.09-1.26.36-1.67,1.26-2.76,3.26-2.9,5.35-.06.9.04,1.85-.35,2.66-.26.54-.72.96-1.09,1.43-1.24,1.57-1.54,3.72-1.24,5.69.29,1.98,1.12,3.83,1.94,5.65" style="fill: none; stroke: #2e3138; stroke-linecap: round; stroke-miterlimit: 10; stroke-width: 3px;"/>
          <path d="M57.85,98.48c-.86-3.04-1.83-6.05-2.91-9-.49-1.35-1.02-2.72-1.86-3.84-.84-1.12-2.03-1.98-3.33-2.01-.75-.02-1.58.32-1.89,1.1-.11.28-.14.58-.15.89-.09,2.71,1.41,5,2.1,7.49.66,2.39,2.23,4.27,2.82,6.69" style="fill: none; stroke: #2e3138; stroke-linecap: round; stroke-miterlimit: 10; stroke-width: 3px;"/>
          <path d="M51.2,96.59c-1.89-3.1-3.68-6.29-5.35-9.55-.63-1.23-1.28-2.51-2.33-3.29-1.05-.78-2.62-.86-3.44.22-.78,1.04-.55,2.61-.16,3.91.69,2.31,1.88,4.29,2.82,6.44,1,2.3,2.05,4.6,3.1,6.88" style="fill: none; stroke: #2e3138; stroke-linecap: round; stroke-miterlimit: 10; stroke-width: 3px;"/>
          <path d="M44.95,99.27c-.88-1.86-4.72-7.43-6.41-8.34-.76-.41-1.74-.66-2.37-.03-.45.45-.54,1.2-.53,1.88.04,2.56,1.05,4.98,2.31,7.11,1.26,2.13,2.78,4.04,4.03,6.18" style="fill: none; stroke: #2e3138; stroke-linecap: round; stroke-miterlimit: 10; stroke-width: 3px;"/>
          <path d="M41.67,106.38c-1.87-2.84-3.83-5.77-6.59-7.47-.44-.27-.93-.52-1.43-.5-.98.04-1.75,1.1-1.89,2.2-.14,1.1.21,2.2.63,3.21,1.27,3.05,3.25,5.72,5.69,7.65.41.33.84.64,1.2,1.04.39.44.68.97.99,1.48,2.53,4.11,7.58,10.54,14.5,9.98" style="fill: none; stroke: #2e3138; stroke-linecap: round; stroke-miterlimit: 10; stroke-width: 3px;"/>
        </g>
        <path d="M178.77,173.79c1.5,9.45,1.5,19.13,0,28.58-.61,3.88-1.48,7.75-1.58,11.68-.1,3.67.47,7.32.97,10.96,1.82,13.47,2.57,27.08,2.24,40.67" style="fill: none; stroke: #2e3138; stroke-linecap: round; stroke-miterlimit: 10; stroke-width: 3px;"/>
      </g>
      <g>
        <path d="M178.22,205.03c-4.61,6.82-9.51,13.43-14.69,19.82-.9,1.11-1.85,2.25-3.14,2.89-4.5,2.25-10.25-2.64-14.73-.34-1.2.61-2.1,1.67-2.97,2.7-1.48,1.75-2.96,3.5-4.44,5.26-.54.64-1.08,1.28-1.51,2-1.75,2.89-1.51,6.56-.76,9.86.36,1.6.91,3.29,2.24,4.25,1.33.96,3.62.65,4.1-.92.69,1.49,2.54,2.32,4.11,1.86.55-.16,1.11-.46,1.66-.3,1.15.35,1.48,2.5,2.62,2.14.55-.18.9-.94,1.46-.81.23.06.39.26.53.45.61.84,1.22,1.73,2.09,2.29.87.57,2.1.73,2.92.09,1.84-1.45-.2-4.76,1.15-6.67.29-.41.71-.7,1.13-.97,1.42-.89,3-1.56,4.26-2.66,1.62-1.42,2.58-3.43,3.85-5.18,4.24-5.84,11.35-7.49,16.51-12.08,5.1-4.53,11.42-8.14,14.8-14.29,1.53-2.78,2.32-5.96,2.3-9.13-.01-3.31-1.15-6.47-1.17-9.79-.02-3.34,1.01-6.58,1.42-9.89.34-2.7.26-5.46-.23-8.14-.04-.24-.05-.8-.2-.99-.17-.21-.2-.15-.53-.17-.71-.05-1.42-.14-2.13-.16-1.43-.04-2.85.04-4.26.25-3.05.45-5.99,1.5-8.85,2.66-1.09.44-2.17.91-3.28,1.27-.89.29-2.23.27-2.68,1.27-.11.24-.14.51-.16.78-.37,3.85-.74,7.7-1.11,11.55-.35,3.65-.51,7.43-.31,11.09Z" style="fill: #fff;"/>
        <path d="M200.89,175.58c.01,12.03.81,22.79-1.42,34.62-2.24,11.87-28.06,25.54-30.67,28.78" style="fill: none; stroke: #2e3138; stroke-linecap: round; stroke-miterlimit: 10; stroke-width: 3px;"/>
        <path d="M180.37,181.36c-.53,5.79-1.06,11.58-1.58,17.37-.2,2.22-.42,4.5-1.37,6.52-.76,1.62-8.57,14.14-18.69,24.04" style="fill: none; stroke: #2e3138; stroke-linecap: round; stroke-miterlimit: 10; stroke-width: 3px;"/>
        <path d="M141.42,232.98c-2.85.25-4.2,3.48-6.98,3.89-1.08.16-2.7-.03-3.57-.9-.82-.82-.27-2.62.38-3.43.27-.33.58-.59.9-.86,1.37-1.13,2.73-2.26,4.1-3.39.88-.73,9.67-.76,10.73-1.02.97-.24,1.69.17,2.67.36,3.01.6,6.04,1.15,9.07,1.65" style="fill: #fff; stroke: #2e3138; stroke-linecap: round; stroke-miterlimit: 10; stroke-width: 3px;"/>
        <path d="M158.29,243.08c-1.39.44-2.81.89-3.9,1.67-1.82,1.3-2.43,3.33-2.11,5.18.31,1.86,1.43,3.58,2.62,5.23.31.42.63.86,1.12,1.18.48.32,1.17.52,1.8.39,1.07-.22,1.43-1.2,1.48-2.02.11-1.8-.45-3.61-1.58-5.2.89-.4,1.78-.79,2.67-1.19,1.36-.61,2.47-1.22,3.37-2.41,1.04-1.39,2.94-3.59,3.8-5.11" style="fill: #fff; stroke: #2e3138; stroke-linecap: round; stroke-miterlimit: 10; stroke-width: 3px;"/>
        <path d="M153.45,238.98c-2,.58-3.9,1.5-5.59,2.72-.44.31-.86.65-1.19,1.08-.94,1.22-.89,2.95-.49,4.44.48,1.79,1.39,3.42,2.28,5.04.43.77.91,1.59,1.7,1.98s1.98.08,2.16-.78" style="fill: none; stroke: #2e3138; stroke-linecap: round; stroke-miterlimit: 10; stroke-width: 3px;"/>
        <path d="M148.13,234.72c-1.71.45-3.34,1.19-4.82,2.17-.97.65-1.92,1.46-2.28,2.57-.35,1.04-.13,2.17.08,3.25.19.94.38,1.89.57,2.83.32,1.58.65,3.19,1.4,4.62.75,1.43,2,2.68,3.57,3.05" style="fill: none; stroke: #2e3138; stroke-linecap: round; stroke-miterlimit: 10; stroke-width: 3px;"/>
        <path d="M144.55,231.86c-3.14,1.17-6.04,2.98-8.47,5.29-.36.34-.71.7-.93,1.15-.26.54-.3,1.16-.28,1.76.06,2.58.94,5.06,1.89,7.46.37.94.76,1.88,1.35,2.69s1.43,1.49,2.41,1.71c.98.22,2.11-.11,2.68-.94" style="fill: none; stroke: #2e3138; stroke-linecap: round; stroke-miterlimit: 10; stroke-width: 3px;"/>
        <path d="M180.76,181.14c.78-.81,1.6-1.6,2.52-2.25,2.71-1.92,6.11-2.56,9.38-3.15,2.79-.5,5.41-.38,8.24-.16" style="fill: none; stroke: #2e3138; stroke-linecap: round; stroke-miterlimit: 10; stroke-width: 3px;"/>
      </g>
    </g>
  </g>
</svg>