<?xml version="1.0" encoding="UTF-8"?>
<svg id="_圖層_2" data-name="圖層 2" xmlns="http://www.w3.org/2000/svg" viewBox="0 0 158.67 186.13">
  <g id="_圖層_1-2" data-name="圖層 1">
    <g>
      <path d="M87.43,8.48l22.97-6.33c3.24-.89,6.6,1.01,7.49,4.25l39.06,141.74c.89,3.24-1.01,6.6-4.25,7.49l-104.42,28.78c-3.24.89-6.6-1.01-7.49-4.25L1.72,38.42c-.89-3.24,1.01-6.6,4.25-7.49l21.86-6.03" style="fill: #fff;"/>
      <g>
        <path d="M73.21,147.67c-.23-.68-.73-2.06-1.42-2.2-.69-.14-2.39.81-3.08,1.05-2.15.75-4.28,1.54-6.39,2.36-.99.39-2.02.66-3.01,1.05-1.28.5-2.39,1.23-3.64,1.78-.12.05-.24.11-.3.22-.07.12-.06.26-.04.4.09.7.86,3.57,1.12,4.23,5.91-1.88,11.72-4.1,17.38-6.64,0-.02-.61-2.22-.61-2.24Z" style="fill: #ff6d04; stroke: #000; stroke-linecap: round; stroke-linejoin: round; stroke-width: 3px;"/>
        <path d="M65.13,115.05c.05.74-.05,3.7,0,4.45.01.18-13.89,5.08-15.14,5.44-2.09-4.04-4.74-4.08-1.49-4.94,3.46-.92,13.16-4.11,16.64-4.94Z" style="fill: #ff6d04; stroke: #000; stroke-linecap: round; stroke-linejoin: round; stroke-width: 3px;"/>
        <path d="M69.58,106.59c-.27-.85-2.09-3.65-2.36-4.5-10.14,1.43-17.46,3.01-27.94,5.7.35.88,2.29,4.81,3.27,5.18.83.31,2.79-.87,3.61-1.14,2.57-.83,5.21-1.41,7.86-1.91,1.26-.24,15.69-2.94,15.57-3.34Z" style="fill: #ff6d04; stroke: #000; stroke-linecap: round; stroke-linejoin: round; stroke-width: 3px;"/>
        <path d="M58.59,87.57c.6.86,1.06,3,1.66,3.86-6.59,2.86-13.34,5.36-20.19,7.51-.61.19-.04-4.81.61-5.38,1.33-1.16,3.97-1.65,5.62-2.24,4.04-1.44,8.14-2.69,12.3-3.75Z" style="fill: #ff6d04; stroke: #000; stroke-linecap: round; stroke-linejoin: round; stroke-width: 3px;"/>
        <path d="M53.35,64.57c-.26-.57-1.55-3.16-1.81-3.73-.08-.18-.17-.36-.34-.46-.21-.11-.47-.04-.7.04-6.25,2.09-13.05,3.7-19.05,6.4-.2,3.38,1.21,4.4,2.89,3.86,3.77-1.22,15.12-5.37,19-6.12Z" style="fill: #ff6d04; stroke: #000; stroke-linecap: round; stroke-linejoin: round; stroke-width: 3px;"/>
        <path d="M21.83,56.88c.83,5.74,3.75,11.18,8.18,14.93,2.98,2.52,6.55,4.24,10.03,6,9.67,4.89,21.82,11.41,25.19,22.56,3.3,10.89-2.74,23.24-7.33,32.84-2.6,5.44-5.6,10.81-6.7,16.74-.64,3.44-.6,7.01.09,10.44.34,1.7.81,3.44,1.52,5.02.9,2.02,1.49,1.38,3.27.5,3.35-1.64,1.39-4.41.63-6.91-1.01-3.33-.83-6.97-.03-10.32.99-4.13,2.89-7.97,4.78-11.77,3.91-7.86,6.74-15.78,8.85-24.33,1.39-6.59,1.64-13.79-1.53-19.74-2.9-5.44-8.27-9.1-13.74-11.92-5.47-2.83-11.31-5.07-16.27-8.72-3.52-2.59-6.53-5.88-8.83-9.6-1.17-1.89-1.77-4.27-2.98-6.07-.95-1.42-.15-1.39-1.95-1.25-1.05.08-2.37,1.01-3.18,1.61Z" style="fill: #ff6d04; stroke: #000; stroke-linecap: round; stroke-linejoin: round; stroke-width: 3px;"/>
        <path d="M70.78,137.13c-5.54-4.29-12.13-7.06-17.58-11.47-8.68-7.02-14.11-17.46-11.94-28.68,1.87-9.65,6.89-18.06,11.01-26.86,1.66-3.55,3.23-7.2,3.95-11.06.72-3.86.54-7.98-1.16-11.52-1.19.8-2.53,1.37-3.93,1.7,1.63,9.38-3.71,18.76-7.68,27.41s-8.39,17.13-8.26,26.65c.14,10.64,8,21.26,16.92,27.06,2.46,1.6,5.11,2.9,7.63,4.42,7.22,4.35,13.31,10.55,17.59,17.8,1.33,2.25,2.01,4.64,3.91,6.47-.05-.05,3.29-1.62,3.41-1.86.42-.84-.64-2.72-.98-3.49-.95-2.13-2.2-4.1-3.43-6.08-2.5-4.02-5.7-7.61-9.45-10.51Z" style="fill: #ff6d04; stroke: #000; stroke-linecap: round; stroke-linejoin: round; stroke-width: 3px;"/>
      </g>
      <path d="M74.79,21.08l-27.55,7.59c-3.14.87-6.49-.26-8.48-2.84l-5.24-6.8,46.68-12.87-1.19,10c-.28,2.34-1.95,4.28-4.22,4.91Z" style="fill: #1f89bd; stroke: #000; stroke-linecap: round; stroke-linejoin: round; stroke-width: 3px;"/>
      <polygon points="43.1 7.88 66.26 1.5 71.66 8.52 42.06 16.68 43.1 7.88" style="fill: #1f89bd; stroke: #000; stroke-linecap: round; stroke-linejoin: round; stroke-width: 3px;"/>
      <path d="M87.43,8.48l22.97-6.33c3.24-.89,6.6,1.01,7.49,4.25l39.06,141.74c.89,3.24-1.01,6.6-4.25,7.49l-104.42,28.78c-3.24.89-6.6-1.01-7.49-4.25L1.72,38.42c-.89-3.24,1.01-6.6,4.25-7.49l21.86-6.03" style="fill: none; stroke: #000; stroke-linecap: round; stroke-linejoin: round; stroke-width: 3px;"/>
      <path d="M86.6,14.62l23.59-6.5c1.62-.45,3.3.51,3.75,2.13l37.29,135.3c.45,1.62-.51,3.3-2.13,3.75l-100.97,27.83c-1.62.45-3.3-.51-3.75-2.13L7.08,39.69c-.45-1.62.51-3.3,2.13-3.75l22.57-6.22" style="fill: none; stroke: #000; stroke-linecap: round; stroke-linejoin: round; stroke-width: 3px;"/>
      <g>
        <line x1="70.79" y1="49.4" x2="107.25" y2="39.35" style="fill: #ff6d04;"/>
        <g>
          <line x1="70.79" y1="49.4" x2="71.27" y2="49.27" style="fill: none; stroke: #000; stroke-linecap: round; stroke-linejoin: round; stroke-width: 3px;"/>
          <line x1="76.34" y1="47.87" x2="104.23" y2="40.18" style="fill: none; stroke: #000; stroke-dasharray: 1.05 5.26; stroke-linecap: round; stroke-linejoin: round; stroke-width: 3px;"/>
          <line x1="106.77" y1="39.49" x2="107.25" y2="39.35" style="fill: none; stroke: #000; stroke-linecap: round; stroke-linejoin: round; stroke-width: 3px;"/>
        </g>
      </g>
      <g>
        <line x1="73.47" y1="59.12" x2="109.93" y2="49.08" style="fill: #ff6d04;"/>
        <g>
          <line x1="73.47" y1="59.12" x2="73.95" y2="58.99" style="fill: none; stroke: #000; stroke-linecap: round; stroke-linejoin: round; stroke-width: 3px;"/>
          <line x1="79.02" y1="57.59" x2="106.91" y2="49.91" style="fill: none; stroke: #000; stroke-dasharray: 1.05 5.26; stroke-linecap: round; stroke-linejoin: round; stroke-width: 3px;"/>
          <line x1="109.45" y1="49.21" x2="109.93" y2="49.08" style="fill: none; stroke: #000; stroke-linecap: round; stroke-linejoin: round; stroke-width: 3px;"/>
        </g>
      </g>
      <g>
        <line x1="76.15" y1="68.85" x2="112.61" y2="58.8" style="fill: #ff6d04;"/>
        <g>
          <line x1="76.15" y1="68.85" x2="76.63" y2="68.72" style="fill: none; stroke: #000; stroke-linecap: round; stroke-linejoin: round; stroke-width: 3px;"/>
          <line x1="81.7" y1="67.32" x2="109.59" y2="59.63" style="fill: none; stroke: #000; stroke-dasharray: 1.05 5.26; stroke-linecap: round; stroke-linejoin: round; stroke-width: 3px;"/>
          <line x1="112.13" y1="58.93" x2="112.61" y2="58.8" style="fill: none; stroke: #000; stroke-linecap: round; stroke-linejoin: round; stroke-width: 3px;"/>
        </g>
      </g>
      <line x1="78.83" y1="78.57" x2="115.29" y2="68.52" style="fill: #ff6d04; stroke: #000; stroke-linecap: round; stroke-linejoin: round; stroke-width: 3px;"/>
      <line x1="81.51" y1="88.29" x2="117.97" y2="78.25" style="fill: #ff6d04; stroke: #000; stroke-linecap: round; stroke-linejoin: round; stroke-width: 3px;"/>
      <line x1="84.19" y1="98.02" x2="120.65" y2="87.97" style="fill: #ff6d04; stroke: #000; stroke-linecap: round; stroke-linejoin: round; stroke-width: 3px;"/>
      <line x1="86.87" y1="107.74" x2="123.33" y2="97.69" style="fill: #ff6d04; stroke: #000; stroke-dasharray: 1 5; stroke-linecap: round; stroke-linejoin: round; stroke-width: 3px;"/>
      <line x1="89.55" y1="117.46" x2="126.01" y2="107.41" style="fill: #ff6d04; stroke: #000; stroke-dasharray: 1 5; stroke-linecap: round; stroke-linejoin: round; stroke-width: 3px;"/>
      <line x1="92.23" y1="127.19" x2="128.69" y2="117.14" style="fill: #ff6d04; stroke: #000; stroke-linecap: round; stroke-linejoin: round; stroke-width: 3px;"/>
      <line x1="94.91" y1="136.91" x2="131.37" y2="126.86" style="fill: #ff6d04; stroke: #000; stroke-linecap: round; stroke-linejoin: round; stroke-width: 3px;"/>
      <line x1="97.59" y1="146.63" x2="134.05" y2="136.58" style="fill: #ff6d04; stroke: #000; stroke-linecap: round; stroke-linejoin: round; stroke-width: 3px;"/>
    </g>
  </g>
</svg>