<?xml version="1.0" encoding="UTF-8"?>
<svg id="_圖層_2" data-name="圖層 2" xmlns="http://www.w3.org/2000/svg" xmlns:xlink="http://www.w3.org/1999/xlink" viewBox="0 0 284.73 342.63">
  <defs>
    <clipPath id="clippath">
      <path d="M61.44,213.51l3.74,47.44,9.71,5.88,31.6-21.35,142.94,97.16,8.4-143.08,26.89-81.25L212.46,6.72,129.81,0s-51.42,15.97-51.63,21.01c-.21,5.04-16.74,100.94-16.74,100.94v91.55Z" style="fill: none;"/>
    </clipPath>
  </defs>
  <g id="_圖層_1-2" data-name="圖層 1">
    <path d="M226.47,330L9.78,183.17h162.71c29.82,0,53.99,24.17,53.99,53.99v92.85Z" style="fill: #ff6d04; stroke: #2e3138; stroke-miterlimit: 10; stroke-width: 6px;"/>
    <g style="clip-path: url(#clippath);">
      <g>
        <path d="M198.9,265.74c.11,6.05.34,12.11.34,18.16,0,2.97-1.95,2.79-4.62,3.32-2.58.51-5.19.85-7.71,1.62-2.41.73-4.68,1.84-7.02,2.79-5.37,2.17-11.08,3.49-16.86,3.88-4.26.29-8.54.08-12.81-.12-10.05-.49-20.11-.98-30.1-2.24-2.46-.31-4.91-.67-7.35-1.08-1.66-.28-5.62-.3-6.92-1.34-1.29-1.03-1.44-4.49-1.71-6.09-.39-2.29-.67-4.6-.95-6.9-1.18-9.77-2.36-19.57-2.43-29.41-1.94-.44-3.62,1.27-5.44,2.05-2.04.87-4.37.58-6.56.27-4.02-.57-8.18-1.18-11.61-3.35-6.43-4.06-7.26-11.21-6.12-18.07,1.43-8.54,3.82-16.87,5.64-25.32.31-1.45.63-2.91,1.16-4.29,1.37-3.54,4.49-5.87,5.99-9.19,1.67-3.67,3.67-7.14,5.44-10.76,1.87-3.82,2.4-8.09,4.72-11.83.15-.23.29-.47.44-.7.55-.84,1.14-1.67,1.83-2.4,1-1.04,2.21-1.85,3.46-2.57,5.68-3.23,12.24-4.48,18.66-5.67,2.85-.53,5.7-1.06,8.55-1.59.78-.15,1.59-.29,2.37-.13.78.16,1.53.7,1.7,1.48.27,1.28-2.24,2.73-3.15,3.32,3.35,1.38,6.75,2.64,10.19,3.8,3.2,1.08,6.3,2.44,9.68,2.19,4.55-.34,9.06-1.06,13.49-2.16,2.14-.53,4.52-1.01,6.54-1.92,1.46-.66,3.52-1.18,4.68-2.29.69-.67.97-1.88,1.08-2.77,5.22.06,10.39,1.35,15.27,3.14,2.5.92,4.94,1.98,7.33,3.16,2.32,1.15,4.81,1.77,7.25,2.65.6.22,1.21.44,1.71.84.63.51,1.02,1.25,1.48,1.92,1.64,2.43,4.11,4.04,5.65,6.53,1.5,2.44,2.33,5.22,3.06,7.96.77,2.89,1.49,5.81,1.84,8.78.27,2.23.33,4.48.39,6.73.19,6.81.39,13.62.58,20.43.13,4.7-1.06,9.19-1.55,13.85-.56,5.29-1.46,10.54-2.67,15.72-.47,1.98-.99,3.98-2.01,5.74-1.02,1.76-2.61,3.28-4.58,3.79-2.5.65-4.69-.78-7.08-.57-2.14.19-1.39,1.73-1.36,3.62.03,1.68.06,3.36.09,5.04Z" style="fill: #1f89bd;"/>
        <path d="M164.2,221.28c.07.51.16,1.06.48,1.46.43.53,1.17.69,1.85.79,2.76.4,5.57.42,8.36.44l5.79.04c.66,0,1.38-.02,1.86-.47.48-.45.54-1.18.57-1.84.29-6.16.29-12.33,0-18.48-5.39-.83-10.87-1.11-16.32-.82-1.71.09-2.26.32-2.44,1.92-.21,1.87-.46,3.73-.57,5.61-.22,3.79-.09,7.59.41,11.35Z" style="fill: #ffad0f;"/>
        <polygon points="104.7 291.37 107.38 457.4 108.29 458.79 133.39 458.96 135.03 457.4 143.75 384.05 148.38 353.66 151.66 377.26 161.48 444.58 164.11 457.88 165.95 460.12 192.21 458.91 197.92 331.79 199.74 292.34 199.5 285.51 180.54 292.34 171.74 294.11 152.22 295.43 134.03 294.93 119.43 293.74 109.26 292.45 105.8 290.05 104.7 291.37" style="fill: #fff;"/>
        <path d="M117.06,85.36c-.9,2.98-1.8,5.95-2.69,8.93-1.34,4.44-2.68,8.9-3.5,13.46-.48,2.71-.78,5.45-1.06,8.18-.52,4.97-1.01,10.06.19,14.91.3,1.23.72,2.43,1.3,3.56,1.69,3.29,4.74,5.72,8.06,7.33,3.33,1.62,6.95,2.5,10.55,3.35.28,3.21.78,6.26,1.07,9.47.11,1.21.08,2.69-.96,3.31-.61.36-1.61.61-1.44,1.29.06.21.23.37.41.51,4.84,3.97,11.26,5.68,17.52,5.64,1.35,0,2.71-.09,4.02-.39,1.4-.31,2.74-.85,4.1-1.3,6.08-2.03,12.71-2.41,18.43-5.29-.58-5.99-1.15-12.02-.75-18.03.21-3.05-.48-6.1.01-9.13,2.3-.8,4.15-1.59,6.19-2.9,1.08-.69,2.15-1.5,2.72-2.64.94-1.86.27-4.26-1.22-5.7-1.5-1.45-3.65-2.05-5.73-2.06-2.08-.02-4.13.49-6.15.99-.43.11-.88.22-1.32.14-.41-.07-.77-.29-1.12-.51-5.84-3.75-10.22-9.71-12.06-16.4-.79-2.86-1.13-5.85-2.14-8.64-1.12-3.06-3.07-6.06-2.59-9.28l-8.46,2.89c-1.85.63-3.72,1.27-5.66,1.56-1.99.3-4.02.22-6.03,0-4.09-.46-7.93-1.59-11.69-3.25Z" style="fill: #fff;"/>
        <path d="M128.23,61.7c-1.21-1.82-1.79-4.37-3.85-5.12-1.32-.48-2.81.03-3.99.79-1.6,1.04-2.89,2.57-3.63,4.33-2.27-1.48-5.29-1.71-7.76-.59-2.46,1.12-4.29,3.55-4.67,6.23-.61,4.33,2.27,8.31,5.19,11.56,3.76,4.19,8.23,6.67,13.66,8.16,4.29,1.18,8.82,1.5,13.23.9,4.22-.57,8.56-1.24,12.38-3.24,1.44,12.75,7.51,24.94,16.84,33.76.5.47,1.04.95,1.71,1.1.57.12,1.17-.02,1.74-.16,2.05-.5,4.1-1,6.15-1.51.84-.21,1.73-.44,2.34-1.05.53-.53.78-1.26,1.01-1.97,2.12-6.56,3.71-13.38,3.83-20.3.04-2.1-.06-4.2-.33-6.28-.24-1.85-.11-3.7-.46-5.55-.7-3.72-2.33-7.26-4.64-10.25-.7-.91-1.47-1.78-2.36-2.51-.59-.49-1.23-.91-1.87-1.33-3.53-2.34-6.88-4.65-11.1-5.53-2.75-.57-5.58-.59-8.38-.48-5.05.21-10.06.88-15.04,1.72-3.87.66-7.49,1.12-10.02-2.68Z" style="fill: #4b4c4e;"/>
        <circle cx="119.82" cy="107.96" r="2.56" style="fill: #2e3138;"/>
        <circle cx="142.78" cy="110.7" r="2.56" style="fill: #2e3138;"/>
        <path d="M168,120.1c-6.27-3.24-10.71-9.29-13.39-15.81-2.69-6.52-3.8-13.56-4.9-20.53-9.77,5.61-22.27,6.16-32.48,1.42-6.54-3.03-12.52-8.97-12.56-16.19-.02-3.14,1.29-6.45,3.97-8.09,2.68-1.64,6.76-.97,8.2,1.82.24-2.21,1.24-4.47,3.14-5.62,1.9-1.15,4.78-.75,5.85,1.2.42.76.53,1.65.83,2.46,1.03,2.83,4.19,4.42,7.2,4.53s5.92-.96,8.74-2.02c0,0,26.75-5.78,36.37,12.1,9.61,17.88-1.64,41.37-1.64,41.37" style="fill: none; stroke: #2e3138; stroke-linecap: round; stroke-miterlimit: 10; stroke-width: 3px;"/>
        <path d="M168.15,120.88c2.57-2.67,6.74-3.66,10.23-2.43,2.25.79,4.34,2.79,4.18,5.17-.11,1.64-1.24,3.02-2.49,4.09-3.05,2.6-7.37,3.95-11.19,2.73" style="fill: none; stroke: #2e3138; stroke-linecap: round; stroke-miterlimit: 10; stroke-width: 3px;"/>
        <path d="M117.22,85.18s-25.99,59.82,13.77,59.69" style="fill: none; stroke: #2e3138; stroke-linecap: round; stroke-miterlimit: 10; stroke-width: 3px;"/>
        <line x1="171.56" y1="132.01" x2="172.55" y2="157.37" style="fill: none; stroke: #2e3138; stroke-linecap: round; stroke-miterlimit: 10; stroke-width: 3px;"/>
        <path d="M129.74,145.19c.55,4.31,1.1,8.62,1.65,12.93" style="fill: none; stroke: #2e3138; stroke-linecap: round; stroke-miterlimit: 10; stroke-width: 3px;"/>
        <path d="M129.82,104.52c-.31,2.83-1.37,5.58-3.03,7.89-.52.72-1.12,1.45-1.25,2.33-.08.54.03,1.09.24,1.59.86,2.12,3.61,3.22,5.7,2.3" style="fill: none; stroke: #2e3138; stroke-linecap: round; stroke-miterlimit: 10; stroke-width: 3px;"/>
        <path d="M138.33,103.36c3.14.02,6.27.96,8.91,2.68" style="fill: none; stroke: #2e3138; stroke-linecap: round; stroke-miterlimit: 10; stroke-width: 3px;"/>
        <path d="M125.27,102.13c-3.09-.81-6.4-.74-9.45.19" style="fill: none; stroke: #2e3138; stroke-linecap: round; stroke-miterlimit: 10; stroke-width: 3px;"/>
        <path d="M135.6,126.48c1.04.51,1.65,1.76,1.43,2.89" style="fill: none; stroke: #2e3138; stroke-linecap: round; stroke-miterlimit: 10; stroke-width: 3px;"/>
        <path d="M130.95,157.84c-1.19.06-4.54.85-3.1,1.57,4.44,2.62,16.12,6.49,17.09,6.43.94-.06,19.57-3.46,27.51-6.43.65-.24,1.35-.57,1.58-1.22.23-.65-.52-1.52-1.09-1.12" style="fill: none; stroke: #2e3138; stroke-linecap: round; stroke-miterlimit: 10; stroke-width: 3px;"/>
        <path d="M173,122.98c.35-.52,1.06-.63,1.68-.69.14-.01.29-.03.43,0,.28.06.49.3.62.55.4.77.16,1.81-.53,2.33" style="fill: none; stroke: #2e3138; stroke-linecap: round; stroke-miterlimit: 10; stroke-width: 3px;"/>
        <path d="M122.86,68.88c3.11,2.52,7.01,4.07,11,4.38" style="fill: none; stroke: #2e3138; stroke-linecap: round; stroke-miterlimit: 10; stroke-width: 3px;"/>
        <path d="M111.6,69.56c.21,3.26,1.86,6.41,4.43,8.43" style="fill: none; stroke: #2e3138; stroke-linecap: round; stroke-miterlimit: 10; stroke-width: 3px;"/>
        <path d="M162.1,89.66c.43,3.09,1.91,6.03,4.14,8.22" style="fill: none; stroke: #2e3138; stroke-linecap: round; stroke-miterlimit: 10; stroke-width: 3px;"/>
        <path d="M176.22,94.72c.63.41.69,1.3.67,2.05-.03,1.66-.1,3.34-.5,4.95-.5,2-1.53,3.91-1.55,5.97" style="fill: none; stroke: #2e3138; stroke-linecap: round; stroke-miterlimit: 10; stroke-width: 3px;"/>
        <path d="M103.1,191.28c-4.59,25.87-1.21,72,1.56,98.13,11.72,6.99,25.54,3.72,39.09,5.35,16.48,1.99,37.26-.92,55.75-9.25" style="fill: none; stroke: #2e3138; stroke-linecap: round; stroke-miterlimit: 10; stroke-width: 3px;"/>
        <path d="M183.43,203.25c.12,6.59.14,13.18.06,19.77,0,.3-.02.62-.2.85-.25.3-.69.32-1.08.32h-16.2c-1.31-.01-2.36-1.08-2.34-2.39l.3-19.03c6.49-.1,12.96.33,19.45.48Z" style="fill: none; stroke: #2e3138; stroke-linecap: round; stroke-miterlimit: 10; stroke-width: 3px;"/>
        <path d="M164.22,206.92c6.36.65,12.76.87,19.14.65" style="fill: none; stroke: #2e3138; stroke-linecap: round; stroke-miterlimit: 10; stroke-width: 3px;"/>
        <path d="M104.66,289.41s2.72,124.05,2.72,169.31c0,0,17.85,1.46,27.25,0l13.21-108.11" style="fill: none; stroke: #2e3138; stroke-linecap: round; stroke-miterlimit: 10; stroke-width: 3px;"/>
        <path d="M143.75,323.48c3.16,14,17.97,134.98,21.18,136.32h27.25l4.81-117.83c3.91-39.91,2.51-56.46,2.51-56.46,0-3.51.25-7.27-.96-28.72" style="fill: none; stroke: #2e3138; stroke-linecap: round; stroke-miterlimit: 10; stroke-width: 3px;"/>
        <path d="M189.86,305.85c.79,6.22,1.57,12.44,2.36,18.66.42,3.32,1.45,7.37,4.71,8.15" style="fill: none; stroke: #2e3138; stroke-linecap: round; stroke-linejoin: round; stroke-width: 3px;"/>
        <g>
          <path d="M169.82,176.65c.75,1.66.6,3.7-.02,5.43-1.09,3.04-3.5,5.27-6.15,6.55-2.65,1.27-5.54,1.69-8.4,2,1.35,1.77,2.64,3.59,3.86,5.48,6.05-.18,11.65-5.76,12.63-12.61.31-2.14.18-4.44-.76-6.33-.69-1.39-2.05-2.85-3.52-2.76.98.4,1.87,1.16,2.36,2.24Z" style="fill: #fff; stroke: #000; stroke-linecap: round; stroke-linejoin: round; stroke-width: 3px;"/>
          <path d="M169.84,175.78s-3.45-1.25-3.83,1.66c-.23,1.82.09,3.66.97,5.2,1.79,3.13,4.65,5.33,7.74,6.56s6.39,1.57,9.66,1.56c-1.94,2.05-3.87,4.1-5.81,6.15-.2.21-.41.43-.66.54-.43.19-.92.04-1.36-.12-3.8-1.41-7.29-4.17-9.36-8.08-2.08-3.9-4.17-8.92-2.48-13.07,0,0,1.65-3.72,5.14-.4Z" style="fill: #fff; stroke: #000; stroke-linecap: round; stroke-linejoin: round; stroke-width: 3px;"/>
        </g>
        <path d="M189.25,219c.15-6.09.3-12.18.45-18.27" style="fill: none; stroke: #2e3138; stroke-linecap: round; stroke-miterlimit: 10; stroke-width: 3px;"/>
        <g>
          <path d="M120.58,223.98c-1.99-.85-4.35-1.48-6.24-.44-1.36.74-2.18,2.21-2.59,3.71-.41,1.49-.48,3.06-.75,4.58-.51,2.87-1.73,5.61-3.52,7.91-.72.92-1.58,2.12-.99,3.14.39.69,1.27.89,2.05,1.04,4.8.88,9.86,1.73,14.44.06.4-.15.82-.33,1.08-.67.22-.29.3-.66.37-1.01.82-3.98,1.29-8.01,1.48-12.07.07-1.38.38-2.6-.52-3.68-.99-1.19-3.43-1.98-4.82-2.57Z" style="fill: #fff;"/>
          <path d="M174.35,156.22c6.13,1.79,12.26,3.57,18.38,5.36,7.78,2.27,15.86,5.72,19.68,13.32,2.1,4.18,3.01,8.85,3.69,13.48,1.81,12.2,2.24,24.62,1.23,36.91-.51,6.25-1.4,12.46-2.67,18.6-.96,4.64-1.3,11.06-6.45,12.97-2.68.99-5.63.76-8.48.51-19.54-1.74-56.39-10.34-75.82-13.06" style="fill: none; stroke: #2e3138; stroke-linecap: round; stroke-miterlimit: 10; stroke-width: 3px;"/>
          <path d="M124.97,227.48c15.41-1.03,50.81,3.29,66.25,3.65" style="fill: none; stroke: #2e3138; stroke-linecap: round; stroke-miterlimit: 10; stroke-width: 3px;"/>
          <path d="M129.59,154.53c-9.23,1.52-18.34,3.84-27.17,6.92-1.98.69-3.99,1.44-5.58,2.8-1.92,1.64-3.04,3.99-4.1,6.28-10.49,22.81-19.34,35.91-21.88,60.89-.65,6.37,2.16,11.57,3.18,12.89" style="fill: none; stroke: #2e3138; stroke-linecap: round; stroke-miterlimit: 10; stroke-width: 3px;"/>
          <g>
            <path d="M109.75,167.46c-.82,1.45-1.13,3.54.16,4.6.72.59,1.71.67,2.64.73.95.06,1.91.11,2.86.17,1.68.1,3.4.2,5.04-.23,1.63-.43,3.2-1.48,3.8-3.05.25-.64.33-1.34.57-1.99.48-1.26,1.55-2.19,2.26-3.33,1.93-3.11.91-7.13,1.36-10.76.19-1.51.61-3.15-.17-4.46-.97-1.63-3.28-1.8-5.12-1.37-3.37.79-6.36,2.96-8.34,5.8-1.54,2.21-2.53,4.84-2.89,7.5-.13,1,.11,2.05-.15,3.01-.32,1.22-1.44,2.3-2.05,3.38Z" style="fill: #fff;"/>
            <path d="M87.55,214.77c7.13-20.32,15.14-28.96,23.2-48.94,4.06.92,8.11,1.84,12.17,2.76.59.13,1.21.29,1.61.73.4.44.5,1.08.56,1.68.66,6.06-9.42,49.54-13.98,62.33-1.81,5.09-3.96,10.59-8.63,13.32-2.33,1.36-6.25,3.78-8.91,4.19-5.09.79-15.95.18-20.38-7.88" style="fill: #1f89bd; stroke: #2e3138; stroke-linecap: round; stroke-miterlimit: 10; stroke-width: 3px;"/>
            <path d="M111.82,165.5c.48-3.51.78-7.04.74-10.57-.04-3.78-.72-7.39.78-11.07.23-.57.5-1.14.96-1.62.74-.79,1.9-1.28,3.07-1.67,5.31-1.77,11.26-1.92,17.05-2.04.84-.02,1.82,0,2.35.51.66.63.19,1.57-.4,2.24-.98,1.11-2.27,2.05-3.76,2.76-1.21.58-3.53,1.09-3.28,2.77.08.55.27,1.08.55,1.56.4.7,1.02,1.36.98,2.16-.03.54-.37,1.03-.39,1.57-.02.67.44,1.24.82,1.8s.7,1.28.4,1.87c-.14.26-.38.46-.53.7-.38.6-.23,1.39.05,2.05s.67,1.28.74,1.99c.09.97-.47,1.91-1.22,2.53-.75.62-1.68.98-2.59,1.32" style="fill: #fff; stroke: #2e3138; stroke-linecap: round; stroke-miterlimit: 10; stroke-width: 3px;"/>
            <path d="M127.94,165.54c-.53,1.14-1.43,2.09-2.53,2.7" style="fill: none; stroke: #2e3138; stroke-linecap: round; stroke-miterlimit: 10; stroke-width: 3px;"/>
          </g>
          <path d="M124.93,227.57c-1.45-1.13-2.94-2.29-4.71-2.8-.75-.22-1.52-.31-2.3-.38-1.15-.11-2.31-.16-3.46-.16" style="fill: none; stroke: #2e3138; stroke-linecap: round; stroke-miterlimit: 10; stroke-width: 3px;"/>
          <path d="M122.73,244.89c-1.51.48-3.14.97-4.89.92-.86-.02-1.69-.18-2.51-.32-2.87-.5-5.81-.89-8.8-1.17" style="fill: none; stroke: #2e3138; stroke-linecap: round; stroke-miterlimit: 10; stroke-width: 3px;"/>
          <path d="M125.88,227.28c-1.52,5.61-2.5,11.37-2.91,17.17" style="fill: none; stroke: #2e3138; stroke-linecap: round; stroke-miterlimit: 10; stroke-width: 3px;"/>
        </g>
        <path d="M117.92,125.21c-.35.11-.62.43-.76.77-.14.34-.18.72-.22,1.09-.03.26-.05.55.09.78" style="fill: none; stroke: #2e3138; stroke-linecap: round; stroke-miterlimit: 10; stroke-width: 3px;"/>
        <path d="M125.21,131.8c-.17-.44-.33-.93-.18-1.38.15-.45.77-.74,1.12-.43.3.36.49.87.34,1.32-.15.45-.73.75-1.13.5" style="fill: none; stroke: #2e3138; stroke-linecap: round; stroke-miterlimit: 10; stroke-width: 3px;"/>
      </g>
    </g>
  </g>
</svg>