<?xml version="1.0" encoding="UTF-8"?>
<svg id="_圖層_2" data-name="圖層 2" xmlns="http://www.w3.org/2000/svg" viewBox="0 0 31.46 31.05">
  <g id="_圖層_1-2" data-name="圖層 1">
    <path d="M3.28,10.06c.03.22.11.42.26.58.35.37.93.34,1.43.44s1.06.52.89,1c-.11.3-.45.43-.75.55-1.67.68-2.99,2.17-3.46,3.91-.17.62-.23,1.29-.04,1.91s.66,1.17,1.28,1.33c.31.08.65.07.97.13.83.16,1.45.82,2.02,1.44.12.14.25.28.29.46.07.3-.13.59-.3.85-.82,1.25-1.16,2.81-.94,4.3.03.21.08.43.19.62.1.18.26.32.41.46.7.64,1.49,1.31,2.43,1.29,1.03-.02,1.87-.89,2.27-1.83.17-.4.32-.87.71-1.08.55-.28,1.22.15,1.55.67.34.52.52,1.15.97,1.58.24.22.53.37.84.5,1.14.46,2.46.54,3.59.07,1.14-.47,2.05-1.51,2.21-2.73.08-.57,0-1.15.1-1.72.1-.57.48-1.15,1.05-1.22.63-.08,1.13.46,1.68.77,1.17.66,2.78.21,3.58-.87s.81-2.62.2-3.82c-.31-.61-.79-1.21-.69-1.89.12-.83,1-1.27,1.7-1.72.87-.56,1.63-1.34,2-2.31.37-.97.3-2.13-.32-2.96-1.08-1.44-3.38-.18-3.81-2.16-.14-.66,0-1.35.02-2.03.04-1.25-.37-2.57-1.31-3.4-.79-.7-2.29-1.09-3.28-.59-1.05.52-1.12,2.08-2.36,2.19-.64.06-1.31-.15-1.8-.56-.9-.74-1.26-2.08-2.32-2.56-.84-.38-1.86-.05-2.54.55-.69.61-1.12,1.45-1.53,2.27-.7,1.39-.78,3.28-2.52,2-.88-.65-2.17-.54-3.06.09-.89.63-1.41,1.68-1.59,2.76-.04.24-.06.49-.02.72Z" style="fill: #fff; stroke: #2e3138; stroke-miterlimit: 10; stroke-width: 3px;"/>
  </g>
</svg>