<?xml version="1.0" encoding="UTF-8"?>
<svg id="_圖層_2" data-name="圖層 2" xmlns="http://www.w3.org/2000/svg" viewBox="0 0 31.42 30.08">
  <g id="_圖層_1-2" data-name="圖層 1">
    <path d="M3.28,9.11c.03.22.11.42.26.58.35.37.93.34,1.43.44s1.06.52.89,1c-.11.3-.45.43-.75.55-1.67.67-2.99,2.16-3.45,3.9-.17.62-.23,1.29-.04,1.9.19.61.66,1.17,1.28,1.33.31.08.65.07.96.13.82.16,1.45.82,2.01,1.44.12.14.25.28.29.46.07.3-.13.59-.3.85-.82,1.25-1.16,2.81-.94,4.29.03.21.08.43.19.62.1.18.26.32.41.46.69.63,1.49,1.31,2.43,1.29,1.03-.02,1.87-.89,2.27-1.83.17-.4.32-.87.71-1.07.55-.28,1.21.15,1.55.67.33.52.52,1.15.96,1.57.24.22.53.37.84.49,1.14.46,2.45.54,3.59.07,1.13-.46,2.05-1.51,2.21-2.73.08-.57,0-1.15.1-1.72.1-.56.48-1.15,1.05-1.22.63-.08,1.13.46,1.68.77,1.17.66,2.78.21,3.58-.87s.81-2.62.2-3.81c-.31-.61-.79-1.21-.69-1.88.12-.83,1-1.27,1.7-1.71.87-.55,1.63-1.34,2-2.3.37-.97.3-2.13-.32-2.96-1.08-1.44-3.38-.18-3.81-2.16-.14-.66,0-1.35.02-2.02.04-1.25-.37-2.57-1.31-3.39-.94-.83-2.45-1.04-3.47-.31-.93.67-1.25,1.87-1.61,2.96-.36,1.09-.96,2.26-2.07,2.55-1.21.31-2.39-.59-3.18-1.56s-1.51-2.11-2.68-2.55c-.17-.07-.36-.11-.54-.09-1.12.11-.68,1.78-1.13,2.48-.1.16-.23.3-.4.37-.45.17-.86-.27-1.24-.55-.88-.65-2.16-.54-3.06.08-.89.63-1.41,1.68-1.59,2.75-.04.24-.06.49-.02.72Z" style="fill: #2e3138; stroke: #2e3138; stroke-miterlimit: 10; stroke-width: 3px;"/>
  </g>
</svg>