<?xml version="1.0" encoding="UTF-8"?>
<svg id="_圖層_2" data-name="圖層 2" xmlns="http://www.w3.org/2000/svg" viewBox="0 0 487.47 497.38">
  <g id="_圖層_1-2" data-name="圖層 1">
    <g>
      <path d="M269.35,171.6s3.83-31.1,35.71-55.71,83.35,10.91,135.37,135.09c52.02,124.18,68.8,255.91,0,244.17-68.8-11.75-112.59-15.91-141.88-68.79l51.27-51.62-4.79-69.98-75.69-133.17Z" style="fill: #d36f62;"/>
      <path d="M357.91,465.38c22.73,4.97,46.72,2.82,69.07,9.3,3.35.97,6.81,2.24,9.13,4.85,2.32,2.61,3.03,6.95.68,9.54-2.07,2.27-5.54,2.41-8.61,2.38-10.03-.09-20.14-.18-29.97-2.18-12.78-2.59-24.76-8.31-37.54-10.9-4.41-.89-8.93-1.42-13.13-3.05-6.02-2.33-10.94-6.75-15.73-11.08-3.66-3.32-7.33-6.63-10.85-10.1-2.99-2.93-8.34-7.07-9.68-11.03,7.51,3.93,14.03,9.89,21.85,13.67,7.89,3.81,16.22,6.7,24.78,8.58Z" style="fill: #f4a289;"/>
      <path d="M428.71,492.96c-.18,0-.36,0-.54,0-9.95-.09-20.25-.18-30.26-2.21-6.48-1.31-12.82-3.44-18.96-5.5-6.04-2.03-12.29-4.12-18.58-5.4-1.1-.22-2.2-.42-3.3-.62-3.34-.6-6.79-1.23-10.07-2.5-6.35-2.46-11.58-7.19-16.19-11.37l-.08-.07c-3.59-3.25-7.3-6.61-10.82-10.07-.63-.62-1.38-1.3-2.17-2.02-2.99-2.73-6.71-6.13-7.89-9.59-.2-.58-.02-1.22.45-1.62.47-.4,1.13-.47,1.67-.19,3.6,1.88,7,4.24,10.29,6.52,3.67,2.54,7.47,5.17,11.53,7.13,7.82,3.78,16.04,6.62,24.45,8.46h0c10.17,2.23,20.82,3.03,31.12,3.8,12.61.95,25.65,1.93,38.05,5.52,3.59,1.04,7.27,2.4,9.83,5.3,2.65,2.99,3.66,8.25.67,11.54-2.33,2.57-5.91,2.88-9.19,2.88ZM316.84,448.25c.97.96,1.99,1.89,2.92,2.74.82.75,1.59,1.45,2.25,2.1,3.48,3.42,7.17,6.76,10.73,9.98l.08.07c4.64,4.2,9.43,8.53,15.26,10.79,3.01,1.17,6.17,1.74,9.52,2.34,1.12.2,2.25.41,3.36.63,6.48,1.31,12.81,3.44,18.94,5.5,6.04,2.03,12.3,4.13,18.6,5.4,9.73,1.97,19.87,2.06,29.69,2.15,2.9.02,5.86-.1,7.49-1.89,1.81-1.99,1.1-5.51-.7-7.53-2.06-2.32-5.26-3.49-8.42-4.4-12.1-3.51-24.98-4.48-37.44-5.41-10.4-.78-21.16-1.59-31.54-3.86h0c-8.63-1.89-17.08-4.81-25.11-8.69-4.27-2.06-8.16-4.76-11.93-7.37-1.25-.87-2.48-1.72-3.71-2.54Z" style="fill: #2e3138;"/>
      <path d="M225.91,173.37s-2.8-58.31-33-75.94c-30.21-17.62-100.69,67.12-141.8,146C10,322.3,2.08,448.37,1.61,457.39c-.54,10.35-1.63,41.11,72.16,19.3,97.82-28.92,124.76-24.72,145.45-63.96" style="fill: #d36f62;"/>
      <path d="M204.8,431.46c-44.13,17.66-90.9,28.68-138.27,32.59-7.53.62-11.85,2.33-19.05,4.61-2.89.92-6.28,2.62-6.33,5.65-.03,2.05,1.67,3.8,3.6,4.49,1.93.69,4.04.55,6.08.38,16.35-1.4,32.55-4.43,48.3-9.03,14.96-4.37,29.6-10.17,45.03-12.31,5.61-.78,16.33-4.36,21.88-5.48,16.26-3.28,26.26-9.96,38.74-20.9Z" style="fill: #f4a289;"/>
      <path d="M48.2,480.82c-1.35,0-2.67-.14-3.95-.6-2.74-.98-4.63-3.42-4.59-5.93.03-2.16,1.33-5.14,7.37-7.06,1.02-.32,1.98-.64,2.91-.94,5.72-1.85,9.85-3.2,16.48-3.74,47.35-3.91,93.72-14.84,137.83-32.49.68-.27,1.45-.01,1.84.61.38.62.26,1.43-.29,1.91-12.78,11.19-22.85,17.89-39.43,21.24-2.31.47-5.55,1.37-8.99,2.33-4.75,1.33-9.66,2.7-12.99,3.16-10.96,1.52-21.76,4.99-32.2,8.34-4.12,1.32-8.39,2.69-12.62,3.93-15.82,4.62-32.17,7.68-48.6,9.09-.93.08-1.86.15-2.77.15ZM196.83,436.17c-41.82,15.82-85.56,25.69-130.17,29.37-6.28.52-10.27,1.81-15.8,3.61-.93.3-1.9.62-2.92.94-1.96.62-5.25,2-5.28,4.24-.02,1.39,1.3,2.59,2.61,3.06,1.58.57,3.4.47,5.45.29,16.22-1.39,32.38-4.41,48.01-8.98,4.19-1.22,8.44-2.59,12.54-3.9,10.56-3.39,21.49-6.9,32.71-8.45,3.13-.43,7.94-1.78,12.59-3.08,3.49-.98,6.79-1.9,9.2-2.39,12.83-2.59,21.64-7.3,31.06-14.71Z" style="fill: #2e3138;"/>
      <path d="M448.65,497.38c-2.69,0-5.52-.25-8.47-.76-4.27-.73-8.45-1.43-12.53-2.11-61.78-10.36-102.59-17.2-130.41-67.43-.32-.58-.22-1.31.25-1.78l50.79-51.14-4.72-68.96-75.52-132.87c-.16-.28-.22-.6-.18-.92.04-.33,1.04-8.13,6.02-19.06,4.58-10.05,13.55-24.75,30.26-37.65,9.41-7.26,20.15-9.37,31.91-6.26,33.56,8.87,71.12,59.29,105.75,141.96,20.61,49.21,35.53,99.23,42.01,140.84,7.02,45.1,3.85,77.58-9.15,93.95-6.44,8.11-15.17,12.19-26.02,12.19ZM300.42,426.61c27.11,48.07,67.22,54.79,127.73,64.94,4.08.68,8.26,1.39,12.54,2.12,13.68,2.34,24.33-1.14,31.64-10.34,12.47-15.69,15.42-47.37,8.54-91.62-6.44-41.39-21.29-91.16-41.81-140.15-46.23-110.36-84.85-135.22-103.75-140.22-10.82-2.86-20.68-.93-29.31,5.74-16.18,12.49-24.87,26.69-29.31,36.4-4.14,9.05-5.46,16-5.76,17.83l75.43,132.72c.11.2.18.41.19.64l4.79,69.98c.03.43-.13.85-.43,1.16l-50.48,50.81Z" style="fill: #2e3138;"/>
      <path d="M31.14,485.81c-10.17,0-17.9-2.06-23.13-6.18C-.7,472.76-.13,461.93.11,457.31c.08-1.45,1.95-36.05,9.53-80.96,9.38-55.56,22.89-100.52,40.14-133.62,33.66-64.56,89.9-137.53,125.76-147.89,7.06-2.04,13.16-1.61,18.13,1.29,12.7,7.41,22.56,23.14,28.52,45.48,4.46,16.74,5.22,31.53,5.22,31.67.04.83-.6,1.53-1.43,1.57-.86.04-1.53-.6-1.57-1.43-.03-.58-3.11-57.71-32.26-74.71-4.23-2.47-9.54-2.8-15.78-1-15.85,4.58-37.76,23.01-61.69,51.91-22.28,26.9-44.96,61.33-62.24,94.48-17.11,32.82-30.51,77.47-39.84,132.73-7.56,44.74-9.42,79.17-9.49,80.62-.24,4.51-.73,13.9,6.77,19.81,10.24,8.08,31.6,7.4,63.47-2.02,24.24-7.17,44.43-12.38,60.64-16.56,49.95-12.89,68.64-17.72,83.9-46.66.39-.73,1.29-1.01,2.03-.63.73.39,1.01,1.29.63,2.03-15.88,30.12-34.92,35.03-85.8,48.17-16.2,4.18-36.35,9.38-60.54,16.54-17.32,5.12-31.71,7.68-43.05,7.68Z" style="fill: #2e3138;"/>
      <path d="M158.09,143.89c-13.77,10.67-25.25,24.03-34.48,35.65-23.22,29.24-42.05,62-56.58,96.36-19.97,47.22-31.84,94.39-22.36,145.92,1.39,7.57,3.74,15.87,10.33,19.86,3.13,1.89,6.85,2.54,10.49,2.95,21.29,2.38,43.5-2.13,64.51-5.28,22-3.3,43.93-7.07,65.79-11.26,5.87-1.12,11.98-2.39,16.64-6.13,5.06-4.07,7.62-10.45,9.54-16.66,5.36-17.37,7.31-35.58,8.89-53.68,3.65-41.94,5.44-84.05,5.36-126.16-.02-12.58-.33-25.65-5.88-36.94-1.92-3.91-3.27-9.84-4.42-15.16-2.74-12.71-2.02-30.85-15.48-38.08-15.48-8.32-39.95-.99-52.34,8.61Z" style="fill: #ea8a7d; stroke: #2e3138; stroke-linecap: round; stroke-linejoin: round; stroke-width: 3px;"/>
      <path d="M78.07,446.8c-4.27,0-8.53-.2-12.75-.68-3.74-.42-7.68-1.09-11.09-3.15-7.13-4.31-9.58-12.97-11.03-20.87-8.31-45.15-1.38-90.42,22.46-146.77,15.14-35.78,34.24-68.32,56.79-96.71,8.65-10.89,20.41-24.81,34.74-35.91h0c12.06-9.34,37.52-17.58,53.97-8.74,11.27,6.06,13.15,19.05,14.81,30.52.44,3.04.86,5.92,1.43,8.57,1.18,5.47,2.48,11.11,4.3,14.81,5.53,11.25,6,23.69,6.03,37.6.08,41.98-1.72,84.47-5.36,126.29-1.53,17.63-3.49,36.31-8.95,54-1.89,6.13-4.56,12.99-10.04,17.38-5.1,4.1-11.87,5.4-17.3,6.44-22.36,4.28-44.51,8.07-65.84,11.27-3.1.46-6.22.96-9.36,1.45-14.08,2.22-28.52,4.51-42.79,4.51ZM159.01,145.08c-14.07,10.9-25.68,24.65-34.23,35.4-22.38,28.17-41.34,60.48-56.38,96.01-23.6,55.78-30.46,100.52-22.27,145.06,1.33,7.25,3.52,15.15,9.63,18.85,2.92,1.76,6.47,2.36,9.88,2.74,17.94,2,36.65-.95,54.75-3.81,3.15-.5,6.28-.99,9.38-1.46,21.29-3.19,43.41-6.98,65.73-11.25,5.1-.98,11.46-2.19,15.98-5.83,4.84-3.89,7.29-10.23,9.05-15.93,5.37-17.4,7.31-35.91,8.83-53.37,3.63-41.73,5.43-84.13,5.35-126.02-.03-13.54-.48-25.61-5.72-36.29-1.97-4.01-3.32-9.86-4.54-15.5-.59-2.75-1.02-5.67-1.46-8.77-1.63-11.29-3.33-22.97-13.26-28.31-9.84-5.29-32.94-5.29-50.71,8.47h0Z" style="fill: #2e3138;"/>
      <path d="M274.41,168.65c-8.63,15.21-16.82,30.97-20.57,48.06-7.44,33.97,3.82,70.17,24.32,98.26,11.42,15.65,26.33,31.11,26.58,50.48.14,10.46-4.16,20.39-7.11,30.43-2.95,10.04-4.41,21.48.92,30.48,8.79,14.86,32.43,18.25,47.88,18.03,22.69-.32,44.27,8.81,66.89,9.39,20.79.54,30.13-10.12,32.55-29.91,11.03-90.18-19.11-184.58-80.36-251.68-13.9-15.23-30.52-29.52-51.19-33.94-20.6-4.4-30.87,14.45-39.91,30.4Z" style="fill: #ea8a7d; stroke: #2e3138; stroke-linecap: round; stroke-linejoin: round; stroke-width: 3px;"/>
      <path d="M414.84,455.3c-.51,0-1.02,0-1.55-.02-10.88-.28-21.64-2.54-32.04-4.72-11.33-2.38-23.05-4.84-34.8-4.67-8.84.13-38.59-.86-49.19-18.77-4.66-7.88-5.01-18.23-1.07-31.67.69-2.35,1.46-4.72,2.21-7.01,2.43-7.47,4.95-15.19,4.84-22.98-.21-15.56-10.37-28.77-20.2-41.55-2.03-2.64-4.13-5.37-6.09-8.06-22.66-31.06-31.62-67.32-24.57-99.47,3.93-17.95,12.76-34.44,20.73-48.48l.48-.85c8.79-15.51,19.74-34.82,41.05-30.27,22.93,4.9,40.65,21.97,51.99,34.39,61.66,67.55,91.84,162.09,80.74,252.88-2.6,21.28-12.96,31.25-32.53,31.25ZM347.6,442.88c11.67,0,23.16,2.41,34.27,4.74,10.27,2.16,20.89,4.38,31.5,4.66,18.99.48,28.54-8.33,31.02-28.59,11-89.93-18.9-183.57-79.98-250.49-23.09-25.29-39.82-31.22-50.4-33.48-19.16-4.09-29.07,13.39-37.81,28.82l-.48.85c-7.86,13.85-16.56,30.09-20.41,47.64-6.86,31.31,1.91,66.69,24.06,97.06,1.94,2.66,4.03,5.37,6.05,8,10.13,13.17,20.6,26.78,20.82,43.34.11,8.29-2.48,16.25-4.99,23.95-.74,2.27-1.5,4.62-2.18,6.92-3.7,12.59-3.44,22.17.77,29.29,9.78,16.52,38.11,17.41,46.57,17.3.39,0,.79,0,1.18,0ZM274.41,168.65h.01-.01Z" style="fill: #2e3138;"/>
      <path d="M231.35,1.5v165.02c-6.48,11.59-12.61,21.75-17.8,29.3l-3.29,5.82c-3.05,4.94-1.69,3.38-4.7,8.31-3.01,4.93-7.3,9.67-12.99,10.64-7.84,1.35-15.26-5.28-17.68-12.85s-1.09-15.78.25-23.61c-6.8,6.23-8.34,17.43-3.47,25.26-5.03,2.47-11.39.25-15.23-3.84-3.84-4.09-5.67-9.63-7.11-15.05-.97,8.88,2.81,18.14,9.7,23.81-3.14,1.27-13.28,9.48-9.15,13.39-.49-6.33,7.27-9.49,12.68-8.31,3.04.66,5.68,2.47,8.23,4.23,3.34,2.31,6.68,4.62,10.02,6.93,1.11.77,2.26,1.58,2.87,2.79.93,1.84.36,4.06-.24,6.04-2.11,7.04-4.59,14.61-10.61,18.83-3.95,2.77-8.89,3.68-13.68,4.27-4.32.53-8.66.86-13.01.99-2.58.08-5.21.08-7.67-.7-3.98-1.26-7.12-4.47-9.17-8.11-2.05-3.64-3.15-7.73-4.24-11.76-.87,8.07,1.57,16.45,6.64,22.79-4.61,2.04-9.26,4.1-13.3,7.12-4.03,3.02-7.45,7.12-8.7,12,2.79-6.08,9.79-9.18,16.45-9.82,6.66-.64,13.35.63,20.04.66,8.14.04,16.29-1.8,23.62-5.33-3.85,6.22-7.7,12.44-11.55,18.67-3.72,6-7.74,12.3-14.05,15.47-4.63,2.33-10.04,2.72-14.71,4.96-3.9,1.87-7.17,5.02-9.18,8.85.92-2.67,3.43-4.54,6.09-5.49s5.53-1.14,8.33-1.5c5.7-.72,11.31-2.15,16.66-4.24.76,4.54-3.08,14.06-7.1,21.83-5.58,10.78-8.38,13.95-15.32,23.09-3.62,4.77-7.39,8.94-12.92,11.4-6.24,2.78-12.71,5.61-19.54,5.62,2.12,1.26,4.72,1.34,7.18,1.24,4.23-.17,10.69.94,23.97-7.01,2.27-1.36,3.91-3.58,5.52-5.69.76,1.56.18,4.68,0,6.36-.23,2.23-.68,4.44-1.34,6.58-1.32,4.28-3.48,8.31-6.38,11.73,7.24-3.7,9.95-12.45,12.44-20.19,5.96-18.55,14.56-36.25,25.47-52.4,1.24.71,1.89,2.76,2.38,4.11,2.98,8.04,5.95,16.07,8.93,24.11,1.43,3.86,2.86,7.73,3.94,11.71,2.16,7.97,2.87,16.33,2.09,24.56-.61,6.41-2.31,13.07-6.84,17.65,8.13-6.81,13.05-17.31,13.05-27.92,5.79,4.5,12.21,6.09,19.34,6.34-2.34-1.07-4.64-2.21-6.91-3.42-1.69-.9-3.36-1.84-4.83-3.06-1.56-1.3-2.84-2.88-4.05-4.51-6.14-8.21-8.34-17.59-11.25-27.39-3.07-10.34-6.96-18.97-10.38-29.21-.93-2.79-.77-4.17.52-6.88,1.38-2.89,39.11-70.21,54.02-84.09l23.95-33.03s44.79,51.05,55.79,62.55c11,11.5,10.4,16.55,10.4,16.55l-.26,11.39c.41,28.58-8.95,32.51-8.95,32.51,4.79-1.2,8.05-7,8.05-7,1.1,6.73,6.96,12.44,12.34,16.63-3.12-2-4.84-5.58-6.07-9.08-4.86-13.81-4.36-29.43,1.37-42.91,6.68,10.14,13.38,20.31,18.65,31.24,2.27,4.7,4.26,9.53,6.35,14.32,1.8,4.13,1.01,8.69-.48,12.88-.9,2.51-2.06,4.96-3.8,6.99-1.73,2.03-4.08,3.61-6.71,4.05,2.64.76,5.43-.57,7.58-2.28,3.72-2.94,6.45-7.11,7.66-11.69,1.71,2,2.92,4.65,4.2,6.95,1.51,2.7,3,5.41,4.31,8.21,2.51,5.4,4.33,11.28,3.64,17.29-.81,7.05-5.22,13.59-11.45,16.98,8,.64,15.83-6.18,16.3-14.2,2.49,3.61,3.34,8.08,3.94,12.43.9,6.43,1.4,13.01.26,19.41-1.15,6.4-4.09,12.65-9.11,16.77,5.97-2.13,9.89-8.02,11.71-14.09s1.96-12.5,2.83-18.77c.13-.95.47-2.11,1.42-2.29.71-.13,1.35.38,1.89.86,2.81,2.48,5.82,4.8,9.23,6.35,5.42,2.46,11.74,2.84,17.42,1.05-8.09,1.96-16.37-2.9-22.05-8.99-14.45-15.52-16.51-37.59-28.48-55.09-1.67-2.44-3.34-4.88-5.01-7.33-.37-.54-.76-1.12-.8-1.78-.07-1.09.87-2.03,1.92-2.35,1.04-.32,2.16-.15,3.24.01,5.85.9,11.76,1.81,17.29,3.92,5.53,2.11,10.74,5.55,13.93,10.53-.63-2.9-1.47-5.8-3.08-8.29-1.61-2.49-4.5-4.95-7.42-5.49,1.33-3.71,4.68-6.4,8.33-7.88,3.65-1.48,8.71-3.59,12.63-4-4.19-1.7-10.08-.15-14.34,1.34,2.78-6.86,2.05-15.04-1.89-21.31,1.19,4.53,2.07,10.18.13,14.63-1.66,3.81-5.75,7.68-9.85,8.62-3.93.9-9.47.16-13.2-1.27-4.05-1.56-7.45-4.5-10.22-7.84-1.36-1.64-2.59-3.39-3.67-5.23-2.39-4.06-3.8-8.55-6.11-12.66-2.28-4.08-4.81-8.01-7.43-11.88-3.79-5.6-7.58-11.3-11.69-16.68-3.08-4.04-8.06-8.54-6.56-14.21.6-2.29,2.28-4.15,4.17-5.57,5.41-4.08,12.62-5.1,19.36-4.4,4.82.5,10.19,2.35,11.97,6.85.81,2.05.73,4.33.6,6.52-.19,3.04-.58,6.35-2.76,8.48s-6.72,1.78-7.43-1.18c-.62,3.56,3.25,6.78,6.84,6.39,3.59-.39,6.45-3.44,7.69-6.83,1.25-3.39,1.2-7.1,1.14-10.72,2.21,8.06,7.28,15.31,14.09,20.14-.21-.2-.42-.39-.63-.59-3.45-3.33-6.28-7.3-8.32-11.64-1-2.13-1.66-4.37-2.49-6.56-.74-1.93.41-4.27,1.94-5.54,1.42-1.18,3.3-1.66,5.14-1.86,1.84-.21,3.7-.18,5.52-.5,1.5-.27,2.96-.78,4.3-1.51-4.53.34-9.75.47-14.17-.67-3.51-.91-6.96-3.73-8.55-6.96-1.9-3.85-1.19-9.09,2.26-11.64-7.78,5.65-16.95,9.37-26.46,10.75-3.23.47-6.83.58-9.42-1.4-3.4-2.59-3.65-7.63-2.83-11.83.8-4.14,2.33-8.14,4.5-11.75,2.83-4.71,6.76-8.86,8.39-14.1,1.63-5.24-.26-12.25-5.59-13.59,4.29,2.45,4,9.04,1.21,13.12-2.78,4.08-7.21,6.73-10.45,10.46-3.67,4.23-5.69,9.86-5.55,15.46.14,5.72,2.71,12.07.97,17.73-2.06,6.69-9.67,5.33-14.18,1.57-3.14-2.62-26.62-40.56-26.62-40.56V1.5" style="fill: #fff;"/>
      <path d="M361.39,400.06c-.53,0-1.03-.28-1.31-.76-.36-.63-.21-1.44.35-1.9,4.34-3.56,7.39-9.2,8.58-15.88,1.18-6.57.52-13.26-.27-18.93-.37-2.66-.85-5.57-1.87-8.24-.97,2.64-2.66,5.1-4.93,7.08-3.46,3.02-7.87,4.55-12.08,4.22-.66-.05-1.21-.53-1.35-1.18-.14-.65.17-1.31.75-1.63,5.83-3.17,9.92-9.23,10.68-15.83.56-4.9-.56-10.13-3.51-16.49-1.26-2.7-2.67-5.28-4.26-8.12-.31-.55-.61-1.12-.92-1.7-.48-.91-.97-1.83-1.5-2.71-1.53,3.74-4.03,7.07-7.21,9.59-3.06,2.42-6.23,3.32-8.93,2.54-.67-.19-1.12-.83-1.08-1.53.04-.7.56-1.28,1.25-1.39,2.1-.36,4.17-1.62,5.82-3.55,1.4-1.64,2.52-3.71,3.52-6.52,1.71-4.8,1.89-8.65.52-11.77-.54-1.25-1.08-2.5-1.62-3.75-1.5-3.47-3.04-7.07-4.7-10.52-4.81-9.99-10.92-19.48-16.96-28.66-4.58,12.5-4.71,26.62-.29,39.18.83,2.35,2,5.14,3.98,7.11.51.43,1.05.85,1.6,1.28.63.49.77,1.4.3,2.05-.46.66-1.36.83-2.04.4-.7-.45-1.33-.96-1.9-1.52-5.27-4.38-8.65-8.64-10.24-12.9-1.57,1.9-4.02,4.22-7.07,4.99-.76.19-1.54-.24-1.79-.98-.25-.74.12-1.55.84-1.86.05-.03,8.41-4.3,8.03-31.1l.26-11.44s0-.1,0-.14h0s.09-4.78-9.99-15.33c-9.86-10.32-47.28-52.86-54.59-61.18l-22.85,31.51c-.06.08-.12.15-.19.22-14.78,13.76-52.41,80.95-53.69,83.64-1.16,2.44-1.24,3.41-.45,5.76,1.44,4.32,2.99,8.41,4.49,12.36,2.03,5.35,4.12,10.89,5.9,16.89.35,1.18.69,2.35,1.03,3.51,2.44,8.43,4.75,16.4,9.99,23.41,1.11,1.48,2.33,3.02,3.81,4.25,1.39,1.16,3.02,2.06,4.57,2.89,2.23,1.19,4.53,2.32,6.83,3.38.65.3,1,1.01.83,1.71-.16.7-.8,1.18-1.51,1.15-7.18-.25-12.94-1.86-17.9-5.03-.78,10.09-5.7,19.74-13.48,26.25-.61.51-1.52.45-2.07-.14-.54-.59-.53-1.5.04-2.07,3.59-3.62,5.68-9.1,6.41-16.73.77-8.09.08-16.18-2.05-24.02-1.06-3.92-2.5-7.81-3.9-11.58l-9.07-24.5c-.18-.49-.42-1.15-.7-1.73-10.32,15.61-18.45,32.54-24.17,50.36l-.12.37c-2.52,7.86-5.38,16.78-13.07,20.7-.64.33-1.41.16-1.86-.41-.44-.56-.43-1.36.03-1.9,2.71-3.2,4.82-7.07,6.09-11.21.63-2.05,1.07-4.17,1.29-6.29.03-.29.07-.62.12-.97.05-.38.1-.83.15-1.3-1.02,1.16-2.16,2.22-3.53,3.04-11.97,7.17-18.63,7.19-23.03,7.2-.59,0-1.13,0-1.65.02-2.58.1-5.54.02-8.01-1.45-.58-.34-.86-1.03-.68-1.69.18-.65.77-1.1,1.44-1.1,6.63,0,13.16-2.92,18.93-5.49,5.05-2.25,8.58-6,12.33-10.94.85-1.12,1.64-2.16,2.38-3.12,5.3-6.93,7.96-10.41,12.8-19.75,4.07-7.85,6.65-14.94,6.99-19-4.86,1.73-9.91,2.94-15.03,3.58-.5.06-1.01.12-1.52.18-2.3.27-4.47.52-6.5,1.24-1.46.52-2.69,1.27-3.62,2.18-.62.82-1.17,1.69-1.65,2.6-.36.69-1.2.99-1.92.68-.72-.31-1.08-1.13-.82-1.87.43-1.23,1.15-2.37,2.12-3.37,2.07-2.68,4.76-4.87,7.82-6.34,2.41-1.15,4.97-1.83,7.45-2.49,2.57-.68,5-1.33,7.24-2.45,6.12-3.08,10.18-9.65,13.45-14.92l9.05-14.63c-6.33,2.39-13.12,3.61-19.86,3.59-2.69-.01-5.4-.22-8.02-.43-4.1-.32-7.97-.62-11.87-.24-5.63.54-12.58,3.18-15.23,8.96-.32.71-1.13,1.05-1.86.79-.73-.26-1.15-1.03-.95-1.79,1.54-6.04,5.88-10.31,9.25-12.83,3.67-2.75,7.79-4.71,11.86-6.52-4.54-6.45-6.65-14.48-5.8-22.34.08-.72.65-1.28,1.38-1.33.71-.05,1.38.41,1.56,1.11,1.05,3.89,2.13,7.92,4.1,11.42,2.12,3.76,5.07,6.39,8.31,7.42,2.26.72,4.78.71,7.18.63,4.28-.13,8.61-.46,12.87-.98,4.59-.57,9.35-1.44,13-4.01,5.41-3.8,7.83-10.7,10.03-18.03.56-1.85,1-3.62.34-4.93-.45-.89-1.48-1.6-2.39-2.23l-10.02-6.93c-2.41-1.67-4.91-3.39-7.7-4-2.98-.65-6.72.26-8.9,2.16-1.44,1.26-2.1,2.79-1.96,4.57.05.62-.29,1.2-.85,1.47-.56.27-1.23.16-1.68-.26-1.2-1.14-1.67-2.64-1.34-4.35.76-4.03,5.74-8.34,8.96-10.42-6.21-6.03-9.56-15.09-8.62-23.69.08-.72.66-1.28,1.38-1.33.72-.06,1.38.41,1.56,1.11,1.39,5.22,3.17,10.59,6.76,14.41,2.89,3.08,7.72,5.26,11.98,4.08-4.17-8.33-2.31-19.25,4.61-25.59.47-.43,1.17-.52,1.73-.21.56.31.87.94.76,1.57-1.24,7.27-2.65,15.51-.3,22.91,2.12,6.65,8.83,13.06,15.99,11.83,4.36-.75,8.39-4.1,11.96-9.95,1.45-2.37,1.86-3.2,2.25-4,.43-.86.87-1.75,2.46-4.32l3.26-5.77s.04-.08.07-.11c4.96-7.23,10.86-16.93,17.54-28.84V1.5c0-.83.67-1.5,1.5-1.5s1.5.67,1.5,1.5v165.02c0,.26-.07.51-.19.73-6.78,12.12-12.78,22-17.83,29.36l-3.25,5.76c-1.54,2.5-1.93,3.29-2.35,4.13-.43.86-.87,1.75-2.38,4.23-4.04,6.62-8.76,10.44-14.01,11.34-8.87,1.52-16.81-5.86-19.36-13.88-1.94-6.11-1.58-12.52-.73-18.56-3.16,5.78-3.27,13.38.21,18.97.22.36.28.8.17,1.2-.12.41-.4.75-.78.93-5.88,2.89-12.99.09-16.98-4.16-1.05-1.11-1.95-2.33-2.74-3.61,1.59,3.94,4.12,7.51,7.38,10.19.41.34.61.86.53,1.39-.08.52-.43.97-.92,1.16-.91.37-2.47,1.4-4.05,2.73,2.36-.8,5-1.01,7.33-.5,3.37.73,6.24,2.72,8.77,4.47l10.02,6.93c1.14.79,2.56,1.77,3.36,3.34,1.16,2.29.57,4.79-.14,7.15-2.36,7.86-4.99,15.28-11.18,19.62-4.19,2.95-9.38,3.92-14.36,4.53-4.35.54-8.77.87-13.15,1-2.65.08-5.46.08-8.17-.77-3.97-1.26-7.53-4.39-10.02-8.81-.11-.2-.22-.4-.33-.6,1.09,3.6,2.84,6.99,5.21,9.95.29.36.4.84.29,1.29-.11.45-.42.83-.85,1.02-4.47,1.97-9.09,4.02-13,6.95-.71.53-1.46,1.14-2.22,1.84,2.62-1.23,5.63-2.04,8.93-2.35,4.17-.4,8.35-.08,12.39.24,2.57.2,5.22.41,7.8.42.07,0,.15,0,.22,0,7.83,0,15.69-1.79,22.74-5.19.6-.29,1.32-.15,1.77.35.45.5.51,1.23.16,1.79l-11.55,18.67c-3.46,5.6-7.77,12.56-14.65,16.03-2.51,1.26-5.21,1.98-7.82,2.67-1.91.51-3.74.99-5.48,1.67.5-.06.99-.12,1.48-.18.5-.06.99-.11,1.49-.18,5.58-.71,11.06-2.1,16.3-4.15.42-.16.89-.13,1.29.09.39.22.66.61.74,1.06,1,5.98-4.73,17.92-7.25,22.77-4.96,9.58-7.84,13.35-13.08,20.19-.74.97-1.53,1.99-2.38,3.11-4.03,5.3-7.87,9.35-13.5,11.86-3.09,1.38-6.39,2.85-9.85,3.96,4.07-.08,10.05-.75,20.08-6.76,1.94-1.16,3.45-3.15,4.92-5.07l.18-.24c.32-.41.82-.64,1.34-.58.52.05.97.37,1.2.83.83,1.7.51,4.23.26,6.27-.04.33-.08.64-.11.91-.2,1.89-.55,3.78-1.04,5.63,1.04-2.53,1.9-5.2,2.72-7.74l.12-.37c6.01-18.73,14.64-36.48,25.65-52.78.44-.65,1.31-.85,1.99-.46,1.61.92,2.36,2.99,2.91,4.51l.14.38,8.93,24.11c1.42,3.83,2.88,7.79,3.98,11.84,2.22,8.2,2.94,16.64,2.14,25.09-.2,2.15-.51,4.15-.93,6,2.67-5.02,4.15-10.69,4.15-16.41,0-.57.33-1.09.84-1.35.51-.25,1.13-.19,1.58.16,2.89,2.25,6.02,3.82,9.64,4.8-1.3-.72-2.68-1.57-3.92-2.6-1.72-1.43-3.08-3.13-4.29-4.76-5.57-7.45-7.95-15.67-10.47-24.37-.33-1.16-.67-2.32-1.02-3.49-1.75-5.9-3.73-11.14-5.83-16.69-1.51-3.98-3.07-8.1-4.53-12.48-1.03-3.08-.9-4.87.59-8,1.29-2.7,39.14-70.23,54.24-84.44l23.86-32.91c.27-.37.69-.6,1.14-.62.47-.02.9.17,1.2.51.45.51,44.9,51.16,55.75,62.5,10.69,11.18,10.88,16.7,10.81,17.66l-.26,11.35c.01.87.02,1.72.01,2.54.79-4.47,2.08-8.84,3.85-13.02.22-.51.69-.86,1.25-.91.55-.05,1.08.21,1.39.67,6.6,10.02,13.43,20.37,18.75,31.42,1.69,3.51,3.25,7.13,4.76,10.63.54,1.25,1.07,2.49,1.61,3.73,1.68,3.86,1.54,8.43-.45,13.98-.32.88-.64,1.7-.99,2.47,1.29-1.91,2.27-4.04,2.86-6.28.14-.54.57-.95,1.12-1.08.54-.12,1.11.06,1.47.49,1.42,1.66,2.47,3.64,3.49,5.55.3.56.59,1.11.89,1.64,1.61,2.89,3.06,5.52,4.36,8.31,3.2,6.87,4.4,12.62,3.77,18.09-.62,5.47-3.25,10.61-7.19,14.42,1.51-.6,2.95-1.47,4.24-2.6,2.86-2.49,4.61-5.88,4.81-9.3.04-.64.48-1.18,1.09-1.36.62-.17,1.27.07,1.64.59,2.74,3.97,3.6,8.83,4.19,13.07.83,5.91,1.5,12.9.25,19.88-.21,1.2-.49,2.37-.81,3.51.18-.49.35-1,.5-1.52,1.23-4.09,1.68-8.5,2.12-12.76.19-1.9.4-3.86.66-5.79.36-2.6,1.63-3.37,2.63-3.56,1.47-.28,2.61.73,3.16,1.21,2.27,2,5.32,4.5,8.86,6.11.12.05.24.11.36.16-2.33-1.52-4.59-3.43-6.72-5.71-8.3-8.92-12.65-20.05-16.86-30.82-3.25-8.31-6.61-16.91-11.77-24.45l-5.01-7.33c-.42-.61-.99-1.45-1.06-2.53-.12-1.92,1.41-3.4,2.98-3.88,1.39-.42,2.78-.21,3.9-.03,5.85.9,11.89,1.83,17.6,4,2.9,1.11,6.48,2.86,9.69,5.55-.2-.37-.41-.74-.64-1.09-1.57-2.43-4.22-4.42-6.43-4.83-.43-.08-.81-.35-1.03-.73-.22-.38-.26-.84-.11-1.25,1.35-3.75,4.7-6.95,9.18-8.77l.47-.19c.15-.06.3-.12.45-.18-.51.16-1.04.34-1.58.52-.56.19-1.17.04-1.58-.38s-.52-1.05-.3-1.6c.9-2.22,1.41-4.58,1.53-6.97-.15.5-.33.99-.54,1.46-1.96,4.5-6.54,8.49-10.89,9.49-4.56,1.05-10.49.04-14.07-1.34-3.87-1.49-7.52-4.28-10.84-8.28-1.4-1.69-2.68-3.52-3.81-5.42-1.3-2.21-2.32-4.54-3.31-6.79-.86-1.97-1.75-4.01-2.81-5.89-1.98-3.53-4.31-7.27-7.36-11.78l-1.17-1.74c-3.35-4.96-6.81-10.08-10.47-14.87-.51-.67-1.07-1.35-1.65-2.04-2.95-3.57-6.61-8.01-5.17-13.46.62-2.34,2.21-4.49,4.72-6.39,5.12-3.87,12.38-5.53,20.42-4.7,3.94.41,10.9,1.97,13.21,7.79.91,2.3.85,4.7.7,7.17-.2,3.26-.63,6.94-3.21,9.46-1.27,1.24-3.16,1.88-5.03,1.77.98.65,2.15.98,3.23.87,3.3-.36,5.54-3.38,6.45-5.86,1.17-3.17,1.11-6.73,1.05-10.17-.01-.76.54-1.4,1.29-1.51.47-.07.93.09,1.26.41.34-1.68,1.37-3.25,2.59-4.27.82-.68,1.79-1.2,2.95-1.58-.54-.1-1.07-.22-1.59-.35-3.9-1.01-7.73-4.13-9.52-7.75-1.19-2.4-1.46-5.11-.94-7.58-6.68,3.84-14.07,6.41-21.7,7.51-3.26.47-7.4.71-10.55-1.69-3.31-2.52-4.55-7.37-3.4-13.31.84-4.33,2.42-8.45,4.69-12.24.96-1.59,2.04-3.13,3.08-4.61,2.13-3.02,4.14-5.87,5.17-9.16.46-1.46.6-3.08.44-4.63-.31,1.93-1.05,3.84-2.14,5.44-1.71,2.5-3.96,4.47-6.14,6.38-1.6,1.4-3.1,2.71-4.41,4.22-3.43,3.95-5.32,9.21-5.19,14.44.05,1.93.39,3.95.75,6.08.68,4,1.38,8.14.15,12.12-1.08,3.53-3.41,4.89-5.16,5.41-3.89,1.16-8.54-.74-11.41-3.13-3.23-2.69-24.52-37.02-26.94-40.92-.15-.24-.22-.51-.22-.79V1.5c0-.83.67-1.5,1.5-1.5s1.5.67,1.5,1.5v164.59c9.05,14.62,23.95,38.06,26.08,39.84,2.67,2.23,6.22,3.28,8.64,2.56,1.53-.45,2.59-1.6,3.15-3.42,1.02-3.3.4-6.92-.24-10.74-.36-2.14-.74-4.36-.79-6.51-.15-5.97,2.01-11.97,5.92-16.48,1.44-1.67,3.1-3.11,4.7-4.52,2.13-1.86,4.15-3.62,5.64-5.81,1.53-2.24,2.15-5.24,1.6-7.64-.35-1.53-1.13-2.65-2.32-3.33-.65-.37-.93-1.17-.65-1.86.28-.7,1.03-1.08,1.76-.89,2.37.6,4.32,2.15,5.63,4.49,1.76,3.15,2.16,7.36,1.02,11.01-1.17,3.75-3.41,6.93-5.58,10-1.01,1.44-2.06,2.93-2.96,4.42-2.09,3.48-3.54,7.27-4.32,11.26-.44,2.26-1.09,7.79,2.27,10.35,2.26,1.72,5.62,1.5,8.3,1.11,9.28-1.34,18.21-4.97,25.8-10.48.67-.49,1.6-.34,2.09.33.49.67.35,1.6-.32,2.09-2.68,1.98-3.49,6.37-1.81,9.77,1.4,2.84,4.52,5.38,7.58,6.17,4.36,1.13,9.6.93,13.68.63.7-.06,1.35.4,1.55,1.07.2.68-.1,1.4-.73,1.74-1.49.81-3.09,1.37-4.76,1.66-1.18.21-2.35.28-3.48.35-.71.04-1.42.09-2.13.17-1.95.22-3.37.72-4.35,1.53-1.11.92-1.97,2.61-1.5,3.85.29.75.55,1.51.82,2.27.51,1.46,1,2.84,1.63,4.18,1.99,4.22,4.68,7.99,8,11.2.2.19.4.38.6.57.58.54.65,1.43.15,2.05-.5.61-1.39.74-2.03.28-5.11-3.62-9.23-8.46-12-14.01-.19,1.31-.49,2.61-.95,3.88-1.59,4.32-5.1,7.39-8.94,7.81-2.37.26-4.92-.73-6.66-2.57-1.49-1.59-2.16-3.62-1.82-5.56.12-.7.72-1.22,1.43-1.24.74-.02,1.34.46,1.51,1.15.18.76.85,1.1,1.38,1.25,1.22.35,2.71.02,3.55-.8,1.82-1.77,2.14-4.79,2.31-7.49.13-2.11.19-4.16-.5-5.88-1.79-4.52-8.1-5.64-10.73-5.91-7.29-.76-13.79.7-18.3,4.11-1.96,1.48-3.18,3.08-3.62,4.76-1.05,3.96,1.82,7.43,4.59,10.78.6.73,1.19,1.44,1.72,2.13,3.71,4.86,7.19,10.02,10.57,15.02l1.17,1.73c3.1,4.58,5.48,8.39,7.5,11.99,1.13,2.02,2.05,4.12,2.94,6.16,1,2.27,1.94,4.42,3.15,6.48,1.04,1.77,2.23,3.46,3.53,5.03,2.99,3.6,6.22,6.09,9.61,7.4,3.27,1.26,8.55,2.08,12.32,1.21,3.44-.79,7.23-4.13,8.82-7.76,1.42-3.26,1.35-7.72-.2-13.65-.19-.72.18-1.46.85-1.76.68-.29,1.47-.05,1.87.58,3.66,5.81,4.72,13.15,2.98,19.78,5.35-1.53,9.47-1.67,12.56-.41.64.26,1.02.92.92,1.6-.1.68-.64,1.21-1.33,1.28-3.54.37-8.28,2.3-11.75,3.7l-.47.19c-3.07,1.24-5.47,3.22-6.81,5.55,2.91,1.16,5.3,3.62,6.59,5.62,1.83,2.83,2.69,6.03,3.29,8.79.15.71-.22,1.43-.89,1.71-.67.28-1.44.03-1.84-.58-3.43-5.36-9.08-8.36-13.21-9.94-5.41-2.06-11.29-2.97-16.99-3.84-.91-.14-1.84-.28-2.58-.06-.5.15-.87.57-.85.82.02.26.32.7.54,1.02l5.01,7.33c5.35,7.82,8.77,16.58,12.08,25.05,4.29,10.99,8.35,21.37,16.26,29.86,6.45,6.92,14.15,10.12,20.6,8.56.78-.19,1.58.28,1.8,1.05.22.78-.22,1.59-.99,1.83-6.01,1.9-12.75,1.49-18.49-1.12-3.9-1.77-7.18-4.45-9.6-6.59-.29-.25-.46-.38-.58-.45-.07.14-.18.43-.25.96-.26,1.88-.46,3.81-.65,5.68-.45,4.4-.92,8.95-2.23,13.32-2.26,7.51-6.86,13-12.64,15.07-.17.06-.34.09-.5.09ZM312.41,293.07c.09,0,.18,0,.26.02.63.11,1.11.61,1.22,1.23.36,2.19,1.3,4.41,2.83,6.67-1.71-5.36-2.65-10.97-2.83-16.6-.55,3.57-1.3,6.48-2.13,8.83.2-.1.42-.15.65-.15Z" style="fill: #2e3138;"/>
      <path d="M224.2,205.65c-.12,0-.24-.01-.37-.05-3.21-.81-6.29-2.32-8.89-4.37-.65-.51-.76-1.46-.25-2.11.51-.65,1.46-.76,2.11-.25,2.27,1.79,4.96,3.11,7.77,3.82.8.2,1.29,1.02,1.09,1.82-.17.68-.78,1.13-1.45,1.13Z" style="fill: #2e3138;"/>
      <path d="M229.96,193.17c-3.38,0-6.74-1.73-8.68-4.5-.48-.68-.31-1.61.37-2.09.68-.47,1.61-.31,2.09.37,1.46,2.08,4.03,3.34,6.58,3.21.82-.04,1.53.59,1.58,1.42.04.83-.59,1.53-1.42,1.58-.17,0-.34.01-.51.01Z" style="fill: #2e3138;"/>
      <path d="M271.23,196.6c-.7,0-1.33-.5-1.47-1.22-.16-.81.37-1.6,1.19-1.76,2.25-.44,4.35-1.47,6.07-2.98.62-.55,1.57-.49,2.12.13.55.62.49,1.57-.13,2.12-2.12,1.87-4.71,3.14-7.48,3.67-.1.02-.19.03-.29.03Z" style="fill: #2e3138;"/>
      <path d="M261.71,187.57c-.69,0-1.32-.49-1.47-1.19-.17-.81.35-1.61,1.16-1.78,2.94-.62,5.63-2.22,7.58-4.5.54-.63,1.48-.7,2.11-.17.63.54.71,1.48.17,2.11-2.38,2.79-5.66,4.74-9.25,5.49-.1.02-.21.03-.31.03Z" style="fill: #2e3138;"/>
      <path d="M237.67,180.29c-.19,0-.38-.04-.56-.11-4.1-1.65-7.79-4.29-10.68-7.63-.54-.63-.47-1.57.15-2.12.63-.54,1.57-.47,2.12.15,2.58,2.98,5.88,5.34,9.53,6.81.77.31,1.14,1.18.83,1.95-.24.58-.8.94-1.39.94Z" style="fill: #2e3138;"/>
      <path d="M254.62,148.69c-6.18,0-12.34-.65-18.39-1.96-.81-.17-1.33-.97-1.15-1.78.17-.81.97-1.32,1.78-1.15,7.58,1.63,15.35,2.21,23.09,1.72.82-.05,1.54.58,1.59,1.4.05.83-.58,1.54-1.4,1.59-1.84.12-3.68.17-5.52.17Z" style="fill: #2e3138;"/>
      <path d="M245.74,124.17c-2.81,0-5.62-.27-8.39-.82-.81-.16-1.34-.95-1.18-1.76.16-.81.95-1.34,1.76-1.18,6.81,1.35,13.9.9,20.49-1.28.79-.26,1.63.17,1.9.95.26.79-.17,1.64-.95,1.9-4.4,1.45-9.01,2.19-13.62,2.19Z" style="fill: #2e3138;"/>
      <path d="M250.45,100.12c-4.11,0-8.22-.48-12.07-1.44-.8-.2-1.29-1.01-1.09-1.82.2-.8,1.01-1.29,1.82-1.09,6.36,1.59,13.48,1.79,20.04.57.82-.15,1.6.39,1.75,1.2.15.81-.39,1.6-1.2,1.75-3.01.56-6.13.84-9.25.84Z" style="fill: #2e3138;"/>
      <path d="M249.62,73.68c-4.28,0-8.56-.79-12.58-2.36-.77-.3-1.15-1.17-.85-1.94.3-.77,1.17-1.15,1.94-.85,6.46,2.53,13.69,2.85,20.35.88.8-.23,1.63.22,1.86,1.02.23.79-.22,1.63-1.02,1.86-3.16.93-6.44,1.39-9.72,1.39Z" style="fill: #2e3138;"/>
      <path d="M244.91,49.86c-2.4,0-4.81-.22-7.19-.65-.81-.15-1.35-.93-1.21-1.75.15-.82.93-1.35,1.75-1.21,6.64,1.22,13.49.59,19.8-1.82.77-.3,1.64.09,1.94.87.3.77-.09,1.64-.87,1.94-4.56,1.74-9.38,2.62-14.22,2.62Z" style="fill: #2e3138;"/>
      <path d="M250.08,29.16c-4.58,0-9.16-.78-13.44-2.34-.78-.28-1.18-1.14-.9-1.92.28-.78,1.14-1.18,1.92-.9,6.79,2.46,14.39,2.83,21.39,1.04.8-.21,1.62.28,1.83,1.08.21.8-.28,1.62-1.08,1.83-3.16.81-6.44,1.21-9.72,1.21Z" style="fill: #2e3138;"/>
      <path d="M45.81,334.14c-.39,0-.78-.15-1.07-.45-9.93-10.16-15.31-19.69-17.98-31.85-.18-.81.33-1.61,1.14-1.79.81-.18,1.61.33,1.79,1.14,2.55,11.58,7.69,20.67,17.2,30.4.58.59.57,1.54-.02,2.12-.29.29-.67.43-1.05.43Z" style="fill: #2e3138;"/>
      <path d="M54.68,480.68c-6.43,0-12.79-.77-18.33-2.35-6.12-1.74-9.78-4.76-10.58-8.74-.85-4.24,1.66-8.59,7.26-12.58,11.03-7.85,22.69-11.81,38.98-13.23.82-.07,1.55.54,1.62,1.36.07.83-.54,1.55-1.36,1.62-15.72,1.37-26.94,5.16-37.5,12.68-3.18,2.27-6.82,5.76-6.06,9.54.71,3.54,4.99,5.46,8.46,6.44,11.97,3.4,27.94,2.9,39.73-1.25.78-.28,1.64.14,1.91.92.27.78-.14,1.64-.92,1.91-6.88,2.42-15.11,3.65-23.22,3.65Z" style="fill: #2e3138;"/>
      <path d="M425.75,492.93c-7.33,0-14.44-1.03-20.16-2.2-.81-.17-1.33-.96-1.17-1.77.17-.81.95-1.34,1.77-1.17,10.09,2.06,24.62,3.69,36.56-.31,3.6-1.21,8.67-3.29,11.1-7.45,2.3-3.94,1.86-9.49-1.1-13.81-3.28-4.79-8.58-7.19-12.45-8.36-5.06-1.53-10.51-1.9-15.77-2.25-1.47-.1-3.56-.13-5.57-.16-2.05-.03-4.17-.06-5.73-.16-.83-.06-1.45-.77-1.4-1.6.06-.83.78-1.46,1.6-1.4,1.47.1,3.56.13,5.57.16,2.05.03,4.17.06,5.73.16,5.43.37,11.05.75,16.44,2.37,4.33,1.31,10.28,4.02,14.06,9.54,3.6,5.25,4.08,12.09,1.21,17.01-2.94,5.04-8.67,7.43-12.74,8.79-5.69,1.91-11.89,2.61-17.95,2.61Z" style="fill: #2e3138;"/>
      <path d="M447.89,358.55c-.56,0-1.1-.31-1.35-.85-.36-.75-.04-1.64.7-2,10.49-5.03,15.64-14.43,19.3-22.97.33-.76,1.21-1.11,1.97-.79.76.33,1.11,1.21.79,1.97-3.88,9.05-9.37,19.03-20.76,24.49-.21.1-.43.15-.65.15Z" style="fill: #2e3138;"/>
      <g>
        <path d="M387.11,362.42c.06.37.19.72.45.99.61.63,1.6.59,2.47.75.86.16,1.83.9,1.53,1.72-.19.51-.78.74-1.29.94-2.88,1.16-5.15,3.73-5.96,6.73-.29,1.07-.39,2.22-.07,3.28.32,1.06,1.14,2.01,2.21,2.3.54.14,1.11.11,1.66.22,1.42.28,2.5,1.41,3.47,2.48.21.23.43.48.5.79.12.52-.23,1.02-.52,1.47-1.41,2.16-2,4.85-1.62,7.4.06.37.13.74.32,1.07.18.31.45.56.71.8,1.2,1.09,2.57,2.26,4.19,2.23,1.77-.03,3.22-1.53,3.91-3.16.3-.7.56-1.5,1.23-1.85.95-.49,2.09.26,2.67,1.16.58.9.89,1.98,1.66,2.72.41.39.92.64,1.44.85,1.96.79,4.23.93,6.19.13,1.96-.8,3.53-2.61,3.81-4.71.13-.98-.01-1.99.17-2.96.18-.97.82-1.98,1.81-2.11,1.08-.14,1.95.79,2.9,1.33,2.01,1.14,4.79.37,6.17-1.49,1.38-1.86,1.4-4.52.34-6.58-.54-1.04-1.36-2.08-1.19-3.25.2-1.42,1.72-2.19,2.93-2.96,1.51-.96,2.82-2.3,3.45-3.97s.51-3.67-.56-5.1c-1.86-2.48-5.82-.31-6.57-3.73-.25-1.14,0-2.32.03-3.49.07-2.16-.64-4.42-2.26-5.85-1.62-1.43-4.22-1.8-5.98-.54-1.6,1.15-2.16,3.23-2.79,5.1-.62,1.87-1.66,3.91-3.57,4.4-2.08.54-4.11-1.03-5.48-2.69s-2.6-3.64-4.62-4.39c-.3-.11-.62-.19-.94-.16-1.94.19-1.18,3.08-1.95,4.27-.17.27-.4.52-.69.64-.77.29-1.48-.46-2.14-.95-1.51-1.11-3.73-.93-5.27.15-1.54,1.08-2.43,2.9-2.74,4.75-.07.41-.1.84-.04,1.25Z" style="fill: #2e3138;"/>
        <path d="M409.45,397.49c-1.3,0-2.64-.26-3.91-.77-.51-.21-1.27-.55-1.91-1.15-.69-.65-1.08-1.43-1.42-2.12-.15-.3-.29-.6-.47-.87-.26-.4-.64-.63-.77-.63-.07.07-.26.54-.38.82l-.11.27c-1.04,2.44-3.1,4.03-5.27,4.07-2.31.04-4.14-1.62-5.23-2.62-.31-.29-.7-.64-1-1.16-.31-.54-.43-1.11-.5-1.59-.44-2.91.23-5.99,1.84-8.45.08-.12.17-.25.23-.36-.02-.02-.04-.05-.07-.07-.91-1-1.73-1.84-2.65-2.02-.19-.04-.38-.05-.58-.07-.35-.03-.75-.06-1.18-.18-1.51-.4-2.76-1.67-3.26-3.31-.37-1.21-.35-2.59.05-4.11.89-3.32,3.37-6.2,6.51-7.6-.05,0-.1-.01-.15-.02-.81-.1-1.91-.24-2.75-1.11-.46-.48-.75-1.08-.86-1.81h0c-.08-.52-.06-1.08.04-1.72.4-2.43,1.63-4.52,3.35-5.73,2.17-1.53,5.06-1.58,7.02-.13.12.09.25.19.38.29.1.08.23.19.36.28.07-.25.12-.7.16-1,.15-1.25.42-3.57,2.85-3.82.67-.06,1.24.11,1.61.25,2.06.77,3.39,2.47,4.56,3.97.23.29.46.59.69.87.51.62,2.3,2.62,3.94,2.19,1.01-.26,1.86-1.41,2.53-3.43l.17-.51c.61-1.88,1.31-4,3.17-5.33,2.24-1.61,5.61-1.33,7.85.63,1.83,1.61,2.86,4.24,2.77,7.03-.01.37-.04.74-.07,1.11-.06.74-.12,1.43,0,2.02.16.76.39.88,2,1.1,1.3.18,3.09.43,4.3,2.05,1.33,1.77,1.62,4.27.76,6.53-.89,2.33-2.69,3.84-4.05,4.7l-.45.28c-.81.5-1.72,1.06-1.8,1.62-.06.41.28,1,.64,1.63.14.24.27.48.4.72,1.37,2.65,1.18,5.93-.47,8.16-1.87,2.53-5.51,3.38-8.11,1.91-.29-.17-.58-.36-.87-.56-.39-.27-.87-.61-1.1-.59-.13.02-.43.37-.52.89-.07.4-.08.85-.08,1.33,0,.5,0,1.01-.08,1.56-.34,2.54-2.2,4.86-4.73,5.9-1.05.43-2.21.65-3.4.65ZM400.95,388.95c1.32,0,2.59.89,3.31,2,.25.39.45.78.63,1.16.27.53.5.99.8,1.28.2.19.51.37.97.55,1.72.69,3.57.74,5.06.13,1.54-.63,2.7-2.04,2.9-3.52.05-.36.05-.75.05-1.17,0-.56,0-1.2.13-1.86.27-1.49,1.33-3.1,3.09-3.32,1.36-.18,2.42.56,3.2,1.1.21.15.42.3.64.42,1.28.73,3.26.22,4.22-1.08.97-1.31,1.06-3.36.21-5-.1-.2-.22-.4-.34-.6-.54-.94-1.21-2.11-1.01-3.54.28-1.95,1.96-2.99,3.19-3.75l.42-.26c.97-.62,2.26-1.68,2.85-3.24.49-1.29.35-2.72-.35-3.67-.44-.59-1.17-.71-2.31-.87-1.55-.21-3.89-.54-4.52-3.44-.22-1.03-.14-2.02-.06-2.91.03-.32.05-.64.06-.95.06-1.91-.59-3.65-1.75-4.68-1.17-1.03-3.02-1.23-4.12-.45-1.06.76-1.54,2.25-2.06,3.83l-.17.53c-1.03,3.08-2.54,4.84-4.62,5.38-2.3.6-4.86-.56-7.02-3.19-.25-.3-.49-.61-.74-.93-1.02-1.3-1.98-2.54-3.25-3.01-.11-.04-.18-.06-.22-.07-.1.25-.17.82-.21,1.18-.09.79-.2,1.68-.67,2.41-.4.61-.86,1.01-1.43,1.22-1.44.53-2.58-.37-3.26-.92-.1-.08-.2-.16-.3-.23-.91-.67-2.42-.6-3.52.17-1.08.76-1.85,2.13-2.12,3.77-.07.4-.06.64-.04.78h0c.02.12.05.17.05.18.1.11.66.18.96.21.23.03.47.06.7.1.83.15,1.92.67,2.48,1.66.37.65.43,1.38.18,2.05-.41,1.12-1.46,1.54-2.08,1.79-2.49,1.01-4.44,3.2-5.12,5.75-.26.96-.29,1.79-.08,2.46.19.64.66,1.15,1.16,1.29.17.05.41.07.67.09.3.03.6.05.9.11,1.97.38,3.31,1.87,4.29,2.95.26.29.7.77.85,1.47.25,1.13-.34,2.03-.7,2.58-1.24,1.9-1.75,4.21-1.42,6.4.02.11.06.41.14.54.06.11.26.29.43.44,1.07.98,2.16,1.87,3.15,1.84,1.12-.02,2.09-1.14,2.56-2.25l.1-.24c.31-.76.74-1.8,1.82-2.36.43-.22.87-.32,1.31-.32Z" style="fill: #2e3138;"/>
      </g>
      <g>
        <path d="M333.51,193.91c.06.37.19.72.45.99.61.63,1.61.59,2.47.75.86.16,1.83.9,1.53,1.73-.19.52-.78.74-1.29.94-2.88,1.17-5.16,3.74-5.96,6.74-.29,1.07-.39,2.23-.07,3.29.32,1.06,1.14,2.02,2.21,2.3.54.14,1.11.11,1.67.22,1.42.28,2.5,1.41,3.48,2.49.21.23.43.48.5.79.12.52-.23,1.02-.52,1.47-1.42,2.16-2,4.85-1.62,7.41.06.37.13.75.32,1.07.18.31.45.56.71.8,1.2,1.1,2.57,2.26,4.2,2.23,1.78-.03,3.22-1.53,3.92-3.16.3-.7.56-1.51,1.23-1.85.95-.49,2.1.26,2.67,1.16s.89,1.99,1.67,2.72c.41.39.92.65,1.44.85,1.97.79,4.24.93,6.2.13,1.96-.8,3.54-2.61,3.82-4.71.13-.98-.01-1.99.17-2.97.18-.98.82-1.98,1.81-2.11,1.08-.14,1.96.79,2.91,1.33,2.01,1.14,4.8.37,6.18-1.5,1.38-1.86,1.4-4.53.34-6.59-.54-1.05-1.36-2.09-1.19-3.25.2-1.43,1.72-2.19,2.94-2.96,1.51-.96,2.82-2.31,3.46-3.98s.51-3.68-.56-5.11c-1.86-2.49-5.83-.31-6.58-3.73-.25-1.14,0-2.33.03-3.49.07-2.16-.64-4.43-2.26-5.86-1.36-1.2-3.95-1.88-5.67-1.02-1.8.91-1.94,3.58-4.07,3.77-1.11.1-2.25-.26-3.11-.97-1.55-1.28-2.17-3.6-4-4.42-1.44-.65-3.2-.09-4.39.96-1.19,1.05-1.93,2.5-2.64,3.91-1.21,2.4-1.35,5.66-4.34,3.45-1.51-1.11-3.74-.93-5.27.15-1.54,1.08-2.43,2.9-2.74,4.76-.07.41-.1.84-.04,1.25Z" style="fill: #d5d6d7;"/>
        <path d="M355.88,229.03c-1.3,0-2.64-.26-3.91-.77-.51-.21-1.27-.55-1.91-1.15-.69-.65-1.08-1.43-1.43-2.12-.15-.3-.29-.6-.47-.88-.26-.4-.65-.63-.77-.63-.07.07-.26.54-.38.82l-.11.27c-1.04,2.44-3.11,4.04-5.27,4.08-2.16.03-3.76-1.28-5.23-2.62-.3-.27-.7-.64-1-1.16-.32-.55-.43-1.12-.51-1.6-.44-2.91.23-5.99,1.85-8.46.08-.12.17-.26.23-.36-.02-.02-.04-.05-.07-.07-.91-1-1.74-1.84-2.66-2.02-.19-.04-.38-.05-.58-.07-.35-.03-.76-.06-1.19-.18-1.51-.4-2.76-1.67-3.26-3.31-.37-1.21-.35-2.6.05-4.11.89-3.33,3.38-6.21,6.52-7.61-.05,0-.1-.01-.15-.02-.81-.1-1.91-.24-2.75-1.11-.46-.48-.75-1.09-.86-1.81-.08-.52-.06-1.08.04-1.72.4-2.43,1.63-4.52,3.36-5.74,2.17-1.53,5.06-1.58,7.03-.13.34.25.56.36.68.41.21-.29.49-1.03.68-1.53.21-.56.45-1.19.75-1.8.73-1.46,1.56-3.11,2.99-4.36,1.78-1.57,4.13-2.04,6-1.2,1.45.65,2.27,1.88,3,2.96.44.65.85,1.27,1.34,1.67.55.46,1.31.69,2.02.63.4-.04.63-.31,1.21-1.23.51-.81,1.15-1.81,2.31-2.39,2.36-1.18,5.58-.3,7.33,1.24,1.83,1.61,2.87,4.24,2.77,7.04-.01.37-.04.74-.07,1.11-.06.74-.12,1.43,0,2.02.17.76.39.88,2,1.1,1.31.18,3.09.43,4.31,2.05,1.33,1.77,1.62,4.28.76,6.54-.89,2.33-2.69,3.85-4.05,4.71l-.46.28c-.81.5-1.72,1.06-1.8,1.62-.06.41.28,1,.64,1.63.14.24.27.48.4.72,1.37,2.66,1.18,5.94-.47,8.17-1.87,2.53-5.52,3.39-8.12,1.91-.29-.17-.58-.36-.87-.56-.4-.27-.89-.61-1.1-.59-.13.02-.43.37-.52.89-.07.4-.07.85-.08,1.34,0,.5,0,1.01-.08,1.56-.34,2.55-2.2,4.86-4.74,5.9-1.06.43-2.22.65-3.41.65ZM347.36,220.47c1.32,0,2.59.89,3.31,2.01.25.39.45.78.64,1.16.27.53.5.99.8,1.28.21.19.52.37.97.55,1.73.69,3.58.74,5.07.13,1.54-.63,2.7-2.04,2.9-3.52.05-.36.05-.75.05-1.17,0-.57,0-1.21.13-1.87.27-1.49,1.34-3.1,3.09-3.33,1.36-.18,2.43.56,3.2,1.1.21.15.42.3.64.42,1.29.73,3.26.22,4.23-1.08.97-1.31,1.06-3.37.21-5.01-.1-.2-.22-.4-.34-.6-.54-.94-1.21-2.12-1.01-3.54.28-1.96,1.96-2.99,3.2-3.75l.42-.26c.98-.62,2.26-1.68,2.86-3.25.49-1.29.35-2.73-.36-3.67-.44-.59-1.17-.72-2.32-.87-1.55-.21-3.89-.54-4.52-3.44-.22-1.03-.14-2.03-.06-2.91.03-.32.05-.64.07-.96.06-1.91-.59-3.66-1.76-4.69-.94-.83-2.9-1.36-4-.81-.42.21-.75.73-1.13,1.32-.65,1.03-1.55,2.44-3.48,2.61-1.51.13-3.03-.34-4.2-1.3-.82-.68-1.41-1.55-1.92-2.31-.58-.86-1.07-1.6-1.74-1.9-.9-.4-2.07.09-2.78.71-.99.87-1.65,2.19-2.29,3.46-.23.46-.43.99-.62,1.5-.55,1.45-1.11,2.95-2.62,3.4-1.49.44-2.88-.58-3.33-.92-.91-.67-2.43-.6-3.52.17-1.08.76-1.85,2.13-2.13,3.78-.07.4-.06.64-.04.78h0c.02.12.05.17.05.18.1.1.64.17.96.21.24.03.47.06.7.1.83.15,1.92.67,2.48,1.67.37.65.43,1.38.18,2.05-.41,1.12-1.46,1.55-2.09,1.8-2.5,1.01-4.44,3.21-5.12,5.76-.26.97-.29,1.79-.08,2.46.2.64.66,1.16,1.16,1.29.17.05.41.07.67.09.3.03.6.05.9.11,1.97.39,3.32,1.87,4.3,2.95.26.29.7.77.86,1.47.25,1.13-.34,2.04-.7,2.58-1.24,1.9-1.75,4.22-1.42,6.41.02.11.06.41.14.55.06.11.26.29.43.44,1.07.98,2.11,1.86,3.16,1.84,1.12-.02,2.09-1.15,2.57-2.25l.1-.24c.31-.76.74-1.8,1.82-2.36.43-.22.88-.32,1.31-.32Z" style="fill: #2e3138;"/>
      </g>
      <g>
        <path d="M276.4,167.28c-.3.23-.54.52-.65.88-.26.84.25,1.69.53,2.53.27.83.09,2.04-.78,2.17-.54.08-1.02-.33-1.45-.68-2.41-1.97-5.76-2.73-8.78-1.99-1.08.26-2.14.72-2.92,1.52-.78.79-1.22,1.97-.96,3.04.13.54.43,1.03.6,1.57.44,1.38-.04,2.87-.51,4.24-.1.3-.22.61-.45.82-.4.35-1.01.29-1.54.25-2.58-.2-5.22.57-7.28,2.14-.3.23-.59.48-.78.8-.19.31-.27.66-.36,1.01-.39,1.58-.75,3.34.06,4.75.88,1.54,2.89,2.09,4.66,1.92.76-.07,1.59-.23,2.22.19.89.6.77,1.97.26,2.9-.51.94-1.32,1.73-1.59,2.77-.14.54-.12,1.12-.06,1.68.25,2.1,1.22,4.16,2.86,5.5,1.64,1.33,3.99,1.85,5.97,1.09.93-.36,1.74-.97,2.68-1.28.94-.31,2.14-.23,2.72.57.64.88.24,2.1.23,3.19-.04,2.32,1.98,4.38,4.28,4.7,2.29.32,4.64-.94,5.94-2.86.66-.98,1.18-2.19,2.28-2.61,1.35-.51,2.75.46,4.01,1.16,1.56.86,3.38,1.37,5.15,1.12s3.47-1.31,4.21-2.94c1.29-2.83-2.52-5.27.12-7.56.88-.77,2.04-1.12,3.08-1.65,1.93-.97,3.58-2.69,4.05-4.8.4-1.77-.25-4.37-1.82-5.46-1.66-1.15-4.07.02-5.26-1.76-.62-.93-.86-2.1-.65-3.19.38-1.97,2.11-3.63,1.96-5.63-.12-1.58-1.46-2.85-2.95-3.39-1.49-.54-3.12-.49-4.7-.44-2.69.09-5.61,1.53-5.11-2.15.25-1.86-.98-3.73-2.66-4.56-1.69-.83-3.72-.74-5.49-.12-.39.14-.79.32-1.12.57Z" style="fill: #96989b;"/>
        <path d="M276.04,215.09c-.3,0-.6-.02-.9-.06-3.12-.43-5.62-3.21-5.57-6.21,0-.34.04-.68.08-1.03.05-.48.11-1.07-.02-1.25-.08-.11-.53-.2-1.04-.03-.38.13-.78.34-1.21.57-.44.24-.89.48-1.4.68-2.4.92-5.32.41-7.45-1.32-1.85-1.5-3.1-3.87-3.41-6.48-.07-.55-.13-1.38.09-2.23.24-.92.74-1.64,1.18-2.27.19-.27.38-.55.54-.84.23-.42.24-.87.18-.98-.1-.02-.6.03-.9.06l-.3.03c-2.64.26-5.03-.79-6.11-2.67-1.06-1.86-.69-3.91-.21-5.85.1-.41.23-.93.54-1.43.33-.54.77-.92,1.16-1.21,2.34-1.78,5.37-2.67,8.3-2.44.15.01.3.02.43.03.01-.03.02-.06.03-.09.44-1.28.78-2.41.5-3.3-.06-.18-.14-.36-.22-.54-.14-.33-.31-.69-.41-1.13-.37-1.52.14-3.22,1.34-4.45.89-.91,2.11-1.56,3.63-1.93,3.35-.82,7.07-.02,9.81,2.07l-.06-.15c-.3-.76-.71-1.8-.34-2.95.2-.63.59-1.18,1.18-1.62h0c.42-.32.92-.57,1.53-.79,2.33-.81,4.75-.74,6.65.19,2.38,1.17,3.81,3.68,3.49,6.1-.06.42-.05.67-.03.8.35.04,1.13-.07,1.67-.14.59-.08,1.26-.18,1.94-.2,1.63-.06,3.48-.12,5.26.53,2.23.81,3.77,2.65,3.93,4.69.12,1.58-.56,2.89-1.16,4.05-.36.7-.7,1.36-.82,1.98-.14.7.02,1.48.42,2.08.22.33.57.4,1.66.48.95.06,2.14.14,3.21.88,2.17,1.5,2.94,4.75,2.43,7.02-.54,2.38-2.35,4.55-4.84,5.81-.33.17-.67.32-1.01.47-.68.3-1.31.58-1.77.98-.59.51-.59.77,0,2.29.47,1.23,1.11,2.92.27,4.76-.92,2.02-2.98,3.48-5.37,3.81-2.47.34-4.67-.52-6.08-1.29l-.47-.26c-.82-.47-1.75-1-2.29-.8-.39.15-.74.73-1.12,1.35-.15.24-.29.47-.44.7-1.49,2.21-4.02,3.57-6.49,3.57ZM269.16,203.42c1.09,0,2.2.39,2.9,1.36.81,1.11.67,2.4.57,3.33-.03.26-.06.51-.06.76-.02,1.48,1.37,2.97,2.98,3.19,1.62.22,3.46-.69,4.49-2.21.13-.19.25-.39.37-.59.57-.93,1.27-2.08,2.62-2.59,1.85-.7,3.57.29,4.83,1l.43.24c1.01.56,2.56,1.18,4.22.95,1.37-.19,2.56-1,3.05-2.07.3-.67.07-1.37-.35-2.45-.56-1.46-1.4-3.67.85-5.62.79-.69,1.71-1.1,2.52-1.45.29-.13.58-.26.87-.4,1.71-.86,2.93-2.28,3.27-3.79.28-1.22-.19-3.19-1.21-3.9-.39-.27-1-.31-1.7-.35-1.22-.08-2.88-.19-3.96-1.8-.84-1.25-1.16-2.82-.87-4.31.2-1.05.68-1.98,1.11-2.79.48-.92.89-1.71.83-2.43-.08-.98-1.07-1.77-1.96-2.1-1.24-.45-2.71-.4-4.14-.35-.51.02-1.07.1-1.62.17-1.54.22-3.12.44-4.24-.66-1.1-1.1-.87-2.8-.8-3.36.15-1.13-.64-2.42-1.84-3.01-1.18-.58-2.76-.6-4.33-.05-.38.13-.59.26-.7.34h0c-.11.08-.13.13-.13.13-.04.14.15.65.27.95.09.22.17.44.25.66.26.8.33,2-.27,2.98-.39.63-1,1.04-1.72,1.15-1.18.18-2.06-.54-2.58-.97-2.08-1.71-4.95-2.36-7.51-1.73-.97.24-1.71.61-2.2,1.11-.47.48-.7,1.14-.57,1.64.04.18.14.4.24.63.12.28.24.55.33.84.61,1.91-.05,3.81-.52,5.19-.13.37-.34.98-.88,1.46-.87.76-1.95.67-2.6.62-2.26-.18-4.54.49-6.3,1.83-.09.07-.33.25-.41.38-.07.11-.13.36-.18.59-.34,1.41-.61,2.75-.1,3.65.55.97,2.01,1.29,3.21,1.17l.26-.03c.82-.09,1.93-.21,2.94.47,1.61,1.09,1.58,3.32.74,4.86-.22.41-.47.77-.71,1.11-.34.49-.63.91-.74,1.32-.07.27-.08.63-.02,1.12.22,1.85,1.07,3.49,2.32,4.51,1.29,1.05,3.09,1.39,4.48.85.34-.13.69-.32,1.06-.52.5-.27,1.06-.57,1.7-.78.46-.15.98-.24,1.5-.24Z" style="fill: #2e3138;"/>
      </g>
      <g>
        <path d="M260.81,116.78c-.36-.11-.73-.14-1.09-.02-.84.27-1.23,1.19-1.75,1.89-.52.71-1.61,1.26-2.22.62-.38-.4-.32-1.02-.29-1.57.21-3.1-1.11-6.27-3.47-8.31-.84-.73-1.83-1.32-2.93-1.49-1.1-.17-2.31.14-3.03.99-.37.42-.59.95-.93,1.4-.87,1.16-2.36,1.64-3.75,2.04-.3.09-.62.18-.93.11-.52-.12-.82-.65-1.1-1.11-1.33-2.22-3.5-3.92-5.96-4.69-.36-.11-.73-.2-1.1-.18-.36.03-.7.16-1.03.29-1.51.6-3.16,1.33-3.84,2.8-.75,1.61-.03,3.57,1.14,4.91.5.57,1.11,1.16,1.13,1.92.03,1.07-1.15,1.77-2.21,1.9-1.06.13-2.18-.07-3.17.31-.53.2-.98.55-1.4.93-1.57,1.42-2.68,3.41-2.82,5.52-.13,2.11.81,4.32,2.57,5.49.83.55,1.8.86,2.6,1.44.8.59,1.43,1.61,1.11,2.55-.35,1.03-1.57,1.41-2.47,2.03-1.91,1.31-2.42,4.16-1.35,6.21,1.07,2.05,3.46,3.24,5.78,3.18,1.18-.03,2.47-.31,3.45.34,1.19.8,1.22,2.5,1.38,3.93.2,1.78.85,3.54,2.07,4.84s3.08,2.07,4.84,1.73c3.05-.59,2.82-5.11,6.23-4.29,1.14.27,2.1,1.01,3.13,1.55,1.91,1.01,4.27,1.36,6.26.52,1.67-.7,3.42-2.74,3.39-4.65-.03-2.02-2.38-3.31-1.62-5.31.4-1.04,1.21-1.91,2.23-2.38,1.83-.84,4.18-.38,5.72-1.67,1.21-1.02,1.48-2.84,1.05-4.37s-1.41-2.82-2.37-4.08c-1.63-2.14-4.5-3.68-1.21-5.41,1.66-.87,2.47-2.96,2.17-4.81-.3-1.86-1.55-3.46-3.09-4.54-.34-.24-.72-.46-1.11-.58Z" style="fill: #fff;"/>
        <path d="M239.18,158.37c-1.84,0-3.7-.82-5.08-2.28-1.71-1.81-2.29-4.1-2.47-5.7l-.06-.53c-.1-.94-.2-2.01-.67-2.33-.34-.23-1.02-.18-1.75-.13-.28.02-.55.04-.82.04-2.96.08-5.86-1.53-7.14-3.98-1.46-2.79-.64-6.44,1.83-8.14.28-.19.58-.36.88-.54.42-.24.94-.53,1.01-.74.04-.12-.15-.55-.58-.86-.32-.24-.73-.44-1.17-.65-.45-.22-.91-.45-1.37-.75-2.14-1.42-3.42-4.1-3.24-6.84.15-2.38,1.35-4.77,3.3-6.54.41-.37,1.05-.91,1.87-1.22.89-.34,1.76-.35,2.53-.36.33,0,.67,0,.99-.04.48-.06.85-.31.9-.42-.04-.09-.37-.47-.57-.7l-.2-.22c-1.74-2-2.28-4.56-1.37-6.52.97-2.1,3.27-3.02,4.64-3.57.4-.16.89-.35,1.48-.4.63-.05,1.19.1,1.66.24,2.81.88,5.29,2.82,6.81,5.35.07.12.16.26.23.36.03-.01.06-.02.09-.03,1.3-.38,2.41-.76,2.98-1.51.12-.15.21-.32.31-.49.18-.31.39-.65.68-.99,1.02-1.18,2.7-1.75,4.4-1.49,1.25.19,2.49.81,3.68,1.84,2.61,2.25,4.12,5.75,4,9.19.03-.04.06-.09.08-.13.44-.68,1.05-1.62,2.2-1.99.63-.21,1.3-.2,2,.02h0c.5.16,1,.41,1.53.79,2.01,1.42,3.36,3.44,3.7,5.52.43,2.62-.79,5.24-2.95,6.38-.38.2-.57.35-.66.44.17.32.71.88,1.08,1.28.41.43.88.92,1.29,1.46.99,1.3,2.12,2.76,2.62,4.59.64,2.29.03,4.61-1.54,5.92-1.22,1.02-2.68,1.22-3.97,1.4-.78.11-1.51.21-2.09.48-.65.3-1.19.88-1.45,1.55-.14.38,0,.7.57,1.63.5.81,1.12,1.82,1.14,3.12.04,2.64-2.16,5.15-4.31,6.06-2.25.94-5.07.73-7.54-.57-.33-.17-.65-.36-.96-.55-.64-.38-1.24-.73-1.82-.87-.76-.18-.96-.03-1.87,1.32-.73,1.1-1.73,2.6-3.72,2.98-.38.07-.76.11-1.14.11ZM230,144.36c.84,0,1.74.13,2.57.69,1.64,1.1,1.84,3.07,1.98,4.52l.05.49c.13,1.15.53,2.77,1.67,3.99.95,1,2.3,1.51,3.46,1.28.72-.14,1.15-.74,1.8-1.7.87-1.3,2.18-3.27,5.07-2.57,1.02.25,1.88.76,2.65,1.21.27.16.55.33.83.48,1.69.89,3.55,1.06,4.98.46,1.16-.49,2.49-2.01,2.47-3.25,0-.47-.33-.99-.7-1.59-.64-1.04-1.52-2.46-.83-4.27.54-1.41,1.63-2.58,3-3.21.97-.44,2.01-.59,2.92-.72,1.02-.14,1.91-.27,2.46-.74.75-.63.82-1.9.57-2.81-.35-1.27-1.25-2.44-2.12-3.57-.31-.41-.7-.82-1.08-1.21-1.07-1.12-2.17-2.29-1.92-3.84.25-1.54,1.78-2.34,2.28-2.6,1.01-.53,1.6-1.92,1.39-3.24-.21-1.3-1.11-2.6-2.47-3.56-.33-.23-.56-.33-.69-.37h0c-.12-.04-.18-.03-.18-.03-.14.05-.44.5-.61.77-.13.2-.26.4-.4.58-.5.68-1.44,1.43-2.58,1.51-.74.05-1.43-.21-1.93-.73-.83-.86-.75-1.99-.71-2.66.18-2.69-.95-5.4-2.95-7.12-.76-.65-1.49-1.04-2.18-1.15-.66-.1-1.33.09-1.67.48-.12.14-.24.35-.37.56-.15.26-.31.52-.49.76-1.21,1.61-3.13,2.17-4.53,2.58-.37.11-1,.29-1.7.13-1.12-.26-1.68-1.2-2.02-1.76-1.17-1.94-3.03-3.41-5.15-4.07-.11-.03-.4-.12-.55-.11-.13,0-.37.11-.58.19-1.35.54-2.6,1.1-3.03,2.04-.47,1.01.12,2.38.91,3.29l.17.2c.55.61,1.3,1.45,1.33,2.67.05,1.94-1.78,3.21-3.53,3.42-.46.06-.9.06-1.32.07-.6,0-1.11.01-1.5.16-.26.1-.56.3-.92.63-1.38,1.25-2.23,2.89-2.33,4.5-.1,1.66.66,3.32,1.9,4.15.3.2.66.37,1.04.56.51.25,1.08.53,1.62.93,1.22.9,2.21,2.55,1.65,4.23-.44,1.3-1.56,1.94-2.38,2.4-.22.13-.45.25-.65.39-1.22.84-1.62,2.84-.87,4.28.76,1.45,2.58,2.42,4.41,2.38.23,0,.46-.02.69-.04.33-.02.69-.05,1.06-.05Z" style="fill: #2e3138;"/>
      </g>
    </g>
  </g>
</svg>