<?xml version="1.0" encoding="UTF-8"?>
<svg id="_圖層_2" data-name="圖層 2" xmlns="http://www.w3.org/2000/svg" viewBox="0 0 34.12 30.46">
  <g id="_圖層_1-2" data-name="圖層 1">
    <path d="M16.44,2.11c-.17.13-.31.3-.38.51-.15.49.15.98.3,1.47.16.48.05,1.18-.45,1.26-.32.05-.59-.19-.84-.39-1.4-1.14-3.34-1.58-5.09-1.16-.63.15-1.24.42-1.69.88-.45.46-.71,1.14-.55,1.76.08.32.25.6.35.91.25.8-.02,1.67-.3,2.46-.06.17-.13.35-.26.48-.23.21-.58.17-.89.15-1.49-.12-3.03.33-4.22,1.24-.17.13-.34.28-.45.46-.11.18-.16.38-.21.59-.22.92-.43,1.94.03,2.76.51.89,1.68,1.21,2.7,1.11.44-.04.92-.14,1.29.11.51.35.45,1.14.15,1.68-.3.54-.76,1.01-.92,1.6-.08.32-.07.65-.03.97.15,1.22.71,2.41,1.66,3.19.95.77,2.31,1.07,3.46.63.54-.21,1.01-.56,1.56-.74.55-.18,1.24-.13,1.58.33.37.51.14,1.22.13,1.85-.02,1.34,1.15,2.54,2.48,2.72,1.33.18,2.69-.55,3.44-1.66.38-.57.68-1.27,1.32-1.51.78-.29,1.59.27,2.32.67.91.5,1.96.79,2.98.65,1.03-.14,2.01-.76,2.44-1.7.75-1.64-1.46-3.05.07-4.38.51-.44,1.18-.65,1.79-.96,1.12-.57,2.08-1.56,2.35-2.78.23-1.03-.14-2.53-1.06-3.17-.96-.67-2.36.01-3.05-1.02-.36-.54-.5-1.22-.37-1.85.22-1.14,1.23-2.1,1.14-3.26-.07-.92-.85-1.65-1.71-1.97-.86-.31-1.81-.28-2.72-.25-1.56.05-3.25.89-2.96-1.25.15-1.08-.57-2.16-1.54-2.64-.98-.48-2.15-.43-3.18-.07-.23.08-.46.18-.65.33Z" style="fill: #96989b; stroke: #2e3138; stroke-miterlimit: 10; stroke-width: 3px;"/>
  </g>
</svg>