<?xml version="1.0" encoding="UTF-8"?>
<svg id="_圖層_2" data-name="圖層 2" xmlns="http://www.w3.org/2000/svg" xmlns:xlink="http://www.w3.org/1999/xlink" viewBox="0 0 644.58 343.39">
  <defs>
    <clipPath id="clippath">
      <circle cx="346.63" cy="142.51" r="60.28" style="fill: none;"/>
    </clipPath>
  </defs>
  <g id="_圖層_1-2" data-name="圖層 1">
    <path d="M193.6,145.16c2.01.16,6.13.4,7.26-1.22,1.14-1.63.56-7.07.71-9.11.44-6.37.77-12.75.99-19.13.09-2.98.52-5.95.62-8.93.13-3.86-.52-7.54-.57-11.36,0-.36-.02-.74-.22-1.03-.22-.31-.61-.45-.98-.55-1.91-.55-3.89-.85-5.87-.91-1.69,17.35-2.4,34.8-2.1,52.23.06,0,.12,0,.18.01Z" style="fill: #ff6d04; stroke: #000; stroke-linecap: round; stroke-linejoin: round; stroke-width: 3px;"/>
    <path d="M281.24,157.58c-1.98-.69-3.96-1.38-5.93-2.07-.48-.17,2.25-41.49,2.73-45.13,12.76-.92,9.32,8.05,7.95,17.4-1.45,9.95-3.04,19.89-4.75,29.8Z" style="fill: #ff6d04; stroke: #000; stroke-linecap: round; stroke-linejoin: round; stroke-width: 3px;"/>
    <path d="M310.45,179.4c2.5.26,5.01.51,7.51.77,7.54-27.78,11.55-48.42,16.22-78.47-2.66-.06-8.24-1.3-10.28.82-1.72,1.79-.84,8.16-1.06,10.57-.7,7.55-2.14,15.01-3.77,22.41-.78,3.53-9.78,43.78-8.62,43.9Z" style="fill: #ff6d04; stroke: #000; stroke-linecap: round; stroke-linejoin: round; stroke-width: 3px;"/>
    <path d="M365,173.97l-8.64,1.81c-.07-20.19.92-40.38,2.97-60.47.18-1.78,9.32,3.41,10.07,5.74,1.52,4.72-.15,12.08-.45,17-.74,12.03-2.06,24.02-3.94,35.92Z" style="fill: #ff6d04; stroke: #000; stroke-linecap: round; stroke-linejoin: round; stroke-width: 3px;"/>
    <path d="M436.55,185.46c1.76-.03,3.52-.05,5.28-.08.54,0,1.13-.03,1.55-.37.53-.42.62-1.17.68-1.84,1.53-18.47,4.9-37.79,4.56-56.28-8.51-4.25-6.51,20.7-6.97,25.63-1.02,11.07-2.73,22.09-5.1,32.95Z" style="fill: #ff6d04; stroke: #000; stroke-linecap: round; stroke-linejoin: round; stroke-width: 3px;"/>
    <path d="M484.97,113.03c-15.75-4.2-33.04-2.69-47.61,4.6-9.82,4.91-18.19,12.21-26.6,19.27-23.33,19.57-53.62,43.71-86.17,40.07-31.77-3.55-56.99-32.81-76.69-55.32-11.16-12.75-21.71-26.44-35.81-35.84-8.19-5.46-17.44-9.3-27.07-11.32-4.76-1-9.77-1.72-14.65-1.65-6.23.09-5.21,2.33-4.92,7.89.54,10.47,9.86,8.47,17.15,9.3,9.73,1.1,18.91,5.57,26.69,11.36,9.57,7.12,17.39,16.29,25.11,25.38,15.98,18.8,33.28,34.88,53.05,49.79,15.48,10.89,33.8,19.52,52.66,17.91,17.25-1.47,32.66-11.28,46.02-22.29,13.36-11.01,25.6-23.59,40.53-32.35,10.6-6.23,22.42-10.35,34.58-12.18,6.18-.93,12.98.16,18.98-.97,4.71-.88,3.75,1.16,5.4-3.66.96-2.8.03-7.23-.64-10.01Z" style="fill: #ff6d04; stroke: #000; stroke-linecap: round; stroke-linejoin: round; stroke-width: 3px;"/>
    <path d="M223.51,150.57c17.2-9.55,31.68-23.51,49.08-32.69,27.73-14.64,60.73-17.1,87.28.93,22.85,15.51,39,37.79,57.17,58.17,7.34,8.23,15.02,16.31,24.18,22.45,9.16,6.13,20.02,10.25,31.03,9.75-.73-3.96-.74-8.06-.03-12.02-26.02-6.18-46.24-26.17-64.19-45.99-17.95-19.82-36.07-41.05-60.79-51.26-27.64-11.41-60.72-6.69-85.59,9.91-6.87,4.58-13.15,9.98-19.85,14.8-19.23,13.83-41.97,22.68-65.45,25.72-7.27.94-14.2.05-21.05,2.94.18-.07.54,10.29,1.02,10.86,1.71,2.02,7.74,1.36,10.09,1.32,6.55-.1,13.04-1.14,19.5-2.12,13.16-1.99,25.97-6.3,37.61-12.76Z" style="fill: #ff6d04; stroke: #000; stroke-linecap: round; stroke-linejoin: round; stroke-width: 3px;"/>
    <circle cx="350.43" cy="147.99" r="72.16" transform="translate(-2.01 291.13) rotate(-45)" style="fill: #2e3138; stroke: #2e3138; stroke-linecap: round; stroke-linejoin: round; stroke-width: 3px;"/>
    <path d="M375.5,208.2c8.16,38.27,16.32,76.55,24.48,114.82,1.35,6.32,1.99,14.4-3.54,17.74-4.22,2.55-9.99.47-13.16-3.3-3.17-3.77-4.37-8.77-5.48-13.57-8.46-36.71-16.93-73.43-25.39-110.14" style="fill: #78797a; stroke: #2e3138; stroke-linecap: round; stroke-linejoin: round; stroke-width: 3px;"/>
    <circle cx="346.63" cy="142.51" r="72.16" transform="translate(-18.35 57.36) rotate(-9.22)" style="fill: #78797a; stroke: #2e3138; stroke-linecap: round; stroke-linejoin: round; stroke-width: 3px;"/>
    <circle cx="346.63" cy="142.51" r="60.28" style="fill: #fff; stroke: #2e3138; stroke-linecap: round; stroke-linejoin: round; stroke-width: 3px;"/>
    <path d="M381.01,122.19c-.94-1.27-1.84-2.57-2.71-3.89-1.48-2.25-2.87-4.57-4.72-6.53-5.15-5.47-12.05-8.69-19.38-10.06-5.06-.95-10.16-1-15.29-.79-3.04.13-8.4-.41-9.5-3.94-.64-2.03.63-4.28,2.43-5.42,1.8-1.14,3.99-1.43,6.11-1.62,6.8-.6,13.72-.48,20.36,1.13,11.93,2.9,21.17,11.64,28.58,21.07,3.17,4.04,5.56,8.88,5.85,14.01.11,1.82-.35,4.07-2.09,4.63-1.67.53-3.28-.86-4.44-2.17-1.83-2.06-3.57-4.2-5.2-6.42Z" style="fill: #fff;"/>
    <g style="opacity: .32;">
      <g style="clip-path: url(#clippath);">
        <path d="M75.83,141.77c3.89.31,11.88.77,14.08-2.38,2.2-3.17,1.1-13.71,1.37-17.67.86-12.35,1.5-24.72,1.91-37.1.17-5.78,1-11.54,1.2-17.32.25-7.48-1.02-14.62-1.11-22.04,0-.69-.03-1.43-.43-1.99-.43-.6-1.19-.86-1.9-1.07-3.7-1.07-7.54-1.66-11.39-1.76-3.28,33.66-4.65,67.5-4.08,101.31.11,0,.23.02.35.03Z" style="fill: #ff6d04; stroke: #000; stroke-linecap: round; stroke-linejoin: round; stroke-width: 3px;"/>
        <path d="M245.83,165.87c-3.84-1.34-7.67-2.68-11.51-4.02-.93-.33,4.36-80.48,5.3-87.54,24.76-1.79,18.08,15.61,15.43,33.76-2.82,19.31-5.89,38.58-9.21,57.8Z" style="fill: #ff6d04; stroke: #000; stroke-linecap: round; stroke-linejoin: round; stroke-width: 3px;"/>
        <path d="M302.49,208.2l14.57,1.49c14.62-53.88,22.4-93.93,31.46-152.23-5.16-.12-15.98-2.53-19.94,1.6-3.33,3.48-1.63,15.84-2.06,20.5-1.36,14.65-4.15,29.12-7.31,43.48-1.51,6.85-18.98,84.93-16.73,85.16Z" style="fill: #ff6d04; stroke: #000; stroke-linecap: round; stroke-linejoin: round; stroke-width: 3px;"/>
        <path d="M408.31,197.67c-5.59,1.17-11.18,2.34-16.77,3.51-.14-39.16,1.79-78.33,5.77-117.29.35-3.45,18.08,6.62,19.53,11.13,2.94,9.16-.29,23.44-.88,32.98-1.44,23.33-4,46.59-7.65,69.67Z" style="fill: #ff6d04; stroke: #000; stroke-linecap: round; stroke-linejoin: round; stroke-width: 3px;"/>
        <path d="M547.1,219.96c3.42-.05,6.83-.11,10.25-.16,1.05-.02,2.18-.06,3.01-.71,1.02-.81,1.21-2.27,1.32-3.57,2.98-35.82,9.5-73.3,8.84-109.18-16.5-8.25-12.64,40.15-13.52,49.71-1.99,21.48-5.29,42.84-9.9,63.92Z" style="fill: #ff6d04; stroke: #000; stroke-linecap: round; stroke-linejoin: round; stroke-width: 3px;"/>
        <path d="M641.04,79.45c-30.55-8.15-64.08-5.22-92.36,8.92-19.04,9.53-35.29,23.69-51.6,37.37-45.25,37.96-104.01,84.78-167.15,77.73-61.63-6.88-110.55-63.64-148.77-107.3-21.65-24.73-42.11-51.28-69.46-69.51-15.89-10.59-33.84-18.04-52.52-21.96-9.24-1.94-18.95-3.34-28.41-3.19-12.08.18-10.1,4.52-9.55,15.31,1.04,20.3,19.12,16.44,33.27,18.03,18.87,2.13,36.68,10.81,51.77,22.03,18.57,13.81,33.73,31.6,48.72,49.23,31,36.47,64.57,67.66,102.9,96.59,30.03,21.13,65.56,37.86,102.15,34.74,33.46-2.85,63.35-21.88,89.26-43.23,25.92-21.36,49.67-45.75,78.62-62.76,20.57-12.08,43.5-20.08,67.08-23.62,11.99-1.8,25.18.31,36.81-1.88,9.14-1.71,7.27,2.24,10.47-7.09,1.86-5.43.05-14.03-1.25-19.42Z" style="fill: #ff6d04; stroke: #000; stroke-linecap: round; stroke-linejoin: round; stroke-width: 3px;"/>
        <path d="M133.84,152.27c33.37-18.52,61.45-45.6,95.2-63.42,53.79-28.39,117.8-33.17,169.31,1.8,44.32,30.09,75.66,73.31,110.89,112.85,14.23,15.97,29.13,31.64,46.9,43.54,17.78,11.9,38.83,19.88,60.2,18.91-1.42-7.69-1.44-15.63-.07-23.33-50.47-11.99-89.7-50.76-124.52-89.21-34.82-38.45-69.96-79.63-117.91-99.43-53.62-22.14-117.78-12.97-166.03,19.23-13.32,8.89-25.51,19.36-38.51,28.71-37.3,26.82-81.42,44-126.96,49.89-14.1,1.82-27.54.1-40.84,5.7.34-.14,1.04,19.97,1.97,21.07,3.32,3.91,15.01,2.63,19.58,2.56,12.7-.19,25.29-2.22,37.82-4.12,25.52-3.87,50.38-12.23,72.96-24.76Z" style="fill: #ff6d04; stroke: #000; stroke-linecap: round; stroke-linejoin: round; stroke-width: 3px;"/>
      </g>
    </g>
  </g>
</svg>