<?xml version="1.0" encoding="UTF-8"?>
<svg id="_圖層_2" data-name="圖層 2" xmlns="http://www.w3.org/2000/svg" viewBox="0 0 179.18 175.31">
  <g id="_圖層_1-2" data-name="圖層 1">
    <g>
      <path d="M86.84,50.4s-10.71-23.26-8.66-33.06c.17-.79,4.69-12.89,17.57-12.71,0,0-5.34-2.61-7.95,5.95-2.61,8.56,4.39,30.51,4.39,30.51l-4.29,8.26" style="fill: #fff; stroke: #2e3138; stroke-linecap: round; stroke-linejoin: round; stroke-width: 1.9px;"/>
      <path d="M98.96,55.7s1.4-11.38,13.07-20.39c11.67-9.01,30.5,3.99,49.53,49.43,19.04,45.44,25.18,93.64,0,89.35-25.18-4.3-41.2-5.82-51.92-25.17l18.76-18.89-1.75-25.61-27.7-48.73Z" style="fill: #d36f62;"/>
      <path d="M83.07,56.35s-1.02-21.34-12.08-27.79c-11.05-6.45-36.84,24.56-51.89,53.42C4.06,110.85,1.16,156.98.99,160.28c-.2,3.79-.6,15.04,26.4,7.06,35.79-10.58,45.65-9.05,53.22-23.41" style="fill: #d36f62;"/>
      <path d="M98.96,55.7s1.4-11.38,13.07-20.39c11.67-9.01,30.5,3.99,49.53,49.43,19.04,45.44,25.18,93.64,0,89.35-25.18-4.3-41.2-5.82-51.92-25.17l18.76-18.89-1.75-25.61-27.7-48.73Z" style="fill: none; stroke: #2e3138; stroke-linecap: round; stroke-linejoin: round; stroke-width: 1.9px;"/>
      <path d="M83.07,56.35s-1.02-21.34-12.08-27.79c-11.05-6.45-36.84,24.56-51.89,53.42C4.06,110.85,1.16,156.98.99,160.28c-.2,3.79-.6,15.04,26.4,7.06,35.79-10.58,45.65-9.05,53.22-23.41" style="fill: none; stroke: #2e3138; stroke-linecap: round; stroke-linejoin: round; stroke-width: 1.9px;"/>
      <path d="M58.25,45.56c-5.04,3.9-9.24,8.79-12.62,13.05-8.5,10.7-15.39,22.69-20.7,35.26-7.31,17.28-11.65,34.54-8.18,53.39.51,2.77,1.37,5.81,3.78,7.27,1.15.69,2.51.93,3.84,1.08,7.79.87,15.92-.78,23.61-1.93,8.05-1.21,16.08-2.59,24.07-4.12,2.15-.41,4.38-.87,6.09-2.24,1.85-1.49,2.79-3.82,3.49-6.09,1.96-6.35,2.68-13.02,3.25-19.64,1.34-15.35,1.99-30.76,1.96-46.16,0-4.6-.12-9.39-2.15-13.52-.7-1.43-1.2-3.6-1.62-5.55-1-4.65-.74-11.29-5.67-13.94-5.66-3.04-14.62-.36-19.15,3.15Z" style="fill: #ea8a7d; stroke: #2e3138; stroke-linecap: round; stroke-linejoin: round; stroke-width: 1.9px;"/>
      <path d="M100.82,54.62c-3.16,5.57-6.16,11.33-7.53,17.59-2.72,12.43,1.4,25.68,8.9,35.96,4.18,5.73,9.63,11.38,9.73,18.47.05,3.83-1.52,7.46-2.6,11.13-1.08,3.67-1.61,7.86.34,11.15,3.22,5.44,11.87,6.68,17.52,6.6,8.3-.12,16.2,3.22,24.48,3.44,7.61.2,11.02-3.7,11.91-10.94,4.04-33-6.99-67.54-29.4-92.1-5.09-5.57-11.17-10.8-18.73-12.42-7.54-1.61-11.29,5.29-14.61,11.12Z" style="fill: #ea8a7d; stroke: #2e3138; stroke-linecap: round; stroke-linejoin: round; stroke-width: 1.9px;"/>
      <path d="M90.73,58.33c4.37,4.97,17.41,19.46,20.61,22.81,4.02,4.21,3.8,6.05,3.8,6.05l-.09,4.17c.15,10.46-3.27,11.9-3.27,11.9,1.75-.44,2.95-2.56,2.95-2.56.4,2.46,2.55,4.55,4.52,6.08-1.14-.73-1.77-2.04-2.22-3.32-1.78-5.05-1.6-10.77.5-15.7,2.44,3.71,4.9,7.43,6.82,11.43.83,1.72,1.56,3.49,2.32,5.24.66,1.51.37,3.18-.18,4.71-.33.92-.76,1.82-1.39,2.56s-1.49,1.32-2.45,1.48c.96.28,1.99-.21,2.77-.83,1.36-1.08,2.36-2.6,2.8-4.28.63.73,1.07,1.7,1.54,2.54.55.99,1.1,1.98,1.58,3.01.92,1.97,1.58,4.13,1.33,6.33-.29,2.58-1.91,4.97-4.19,6.21,2.93.23,5.79-2.26,5.96-5.19.91,1.32,1.22,2.96,1.44,4.55.33,2.35.51,4.76.09,7.1s-1.5,4.63-3.33,6.14c2.18-.78,3.62-2.93,4.29-5.15.67-2.22.72-4.57,1.04-6.87.05-.35.17-.77.52-.84.26-.05.49.14.69.31,1.03.91,2.13,1.75,3.38,2.32,1.98.9,4.3,1.04,6.37.38-2.96.72-5.99-1.06-8.07-3.29-5.29-5.68-6.04-13.76-10.42-20.16-.61-.89-1.22-1.79-1.83-2.68-.14-.2-.28-.41-.29-.65-.02-.4.32-.74.7-.86.38-.12.79-.06,1.19,0,2.14.33,4.3.66,6.33,1.44,2.02.77,3.93,2.03,5.1,3.85-.23-1.06-.54-2.12-1.13-3.03-.59-.91-1.65-1.81-2.71-2.01.49-1.36,1.71-2.34,3.05-2.88,1.34-.54,3.19-1.31,4.62-1.46-1.53-.62-3.69-.05-5.25.49,1.02-2.51.75-5.5-.69-7.8.43,1.66.76,3.72.05,5.35-.61,1.39-2.1,2.81-3.61,3.16-1.44.33-3.47.06-4.83-.47-1.48-.57-2.73-1.65-3.74-2.87-.5-.6-.95-1.24-1.34-1.91-.87-1.48-1.39-3.13-2.23-4.63-.84-1.49-1.76-2.93-2.72-4.35-1.39-2.05-2.78-4.14-4.28-6.1-1.13-1.48-2.95-3.13-2.4-5.2.22-.84.84-1.52,1.53-2.04,1.98-1.49,4.62-1.87,7.08-1.61,1.76.18,3.73.86,4.38,2.51.3.75.27,1.58.22,2.39-.07,1.11-.21,2.32-1.01,3.1s-2.46.65-2.72-.43c-.23,1.3,1.19,2.48,2.5,2.34s2.36-1.26,2.82-2.5.44-2.6.42-3.92c.81,2.95,2.66,5.6,5.16,7.37-.08-.07-.15-.14-.23-.22-1.26-1.22-2.3-2.67-3.04-4.26-.37-.78-.61-1.6-.91-2.4-.27-.71.15-1.56.71-2.03.52-.43,1.21-.61,1.88-.68.67-.08,1.35-.06,2.02-.18.55-.1,1.08-.29,1.58-.55-1.66.12-3.57.17-5.19-.25-1.28-.33-2.55-1.37-3.13-2.55-.7-1.41-.44-3.33.83-4.26-2.85,2.07-6.2,3.43-9.68,3.93-1.18.17-2.5.21-3.45-.51-1.24-.95-1.34-2.79-1.04-4.33.29-1.51.85-2.98,1.65-4.3,1.03-1.72,2.47-3.24,3.07-5.16.6-1.92-.1-4.48-2.04-4.97,1.57.9,1.46,3.31.44,4.8-1.02,1.49-2.64,2.46-3.82,3.83-1.34,1.55-2.08,3.61-2.03,5.66.05,2.09.99,4.42.35,6.49-.75,2.45-3.54,1.95-5.19.57-.89-.74-9.42-14.46-11.8-18.27" style="fill: #fff; stroke: #2e3138; stroke-linecap: round; stroke-linejoin: round; stroke-width: 1.9px;"/>
      <path d="M112.37,19.2c-.08-3.19-2.21-7.3-4.26-9.74-2.06-2.44-3.42-5.59-12.35-4.83,2.17.06,5.65-.04,7.32,3.08,1.03,1.92.29,3.26.23,5.43-.15,5.44-9.6,26.06-17.35,39.87l-1.48,1.88c-2.15,3.8-4.18,7.14-5.92,9.67l-1.2,2.13c-1.12,1.81-.62,1.24-1.72,3.04-1.1,1.8-2.67,3.54-4.75,3.89-2.87.49-5.59-1.93-6.47-4.7-.88-2.77-.4-5.77.09-8.64-2.49,2.28-3.05,6.38-1.27,9.24-1.84.91-4.17.09-5.57-1.4-1.4-1.5-2.08-3.52-2.6-5.51-.35,3.25,1.03,6.64,3.55,8.71-1.15.46-4.86,3.47-3.35,4.9-.18-2.32,2.66-3.47,4.64-3.04,1.11.24,2.08.9,3.01,1.55,1.22.85,2.44,1.69,3.67,2.54.41.28.83.58,1.05,1.02.34.67.13,1.48-.09,2.21-.77,2.58-1.68,5.34-3.88,6.89-1.45,1.02-3.25,1.35-5.01,1.56-1.58.19-3.17.32-4.76.36-.94.03-1.91.03-2.81-.26-1.46-.46-2.6-1.64-3.35-2.97-.75-1.33-1.15-2.83-1.55-4.3-.32,2.95.58,6.02,2.43,8.34-1.69.75-3.39,1.5-4.86,2.6-1.48,1.1-2.73,2.61-3.18,4.39,1.02-2.23,3.58-3.36,6.02-3.59,2.44-.23,4.89.23,7.33.24,2.98.01,5.96-.66,8.64-1.95-1.41,2.28-2.82,4.55-4.23,6.83-1.36,2.2-2.83,4.5-5.14,5.66-1.69.85-3.67,1-5.38,1.82-1.43.68-2.62,1.84-3.36,3.24.34-.98,1.26-1.66,2.23-2.01.97-.35,2.02-.42,3.05-.55,2.09-.26,4.14-.79,6.1-1.55.28,1.66-1.13,5.15-2.6,7.99-2.04,3.94-3.07,5.1-5.61,8.45-1.33,1.75-2.7,3.27-4.73,4.17-2.28,1.02-4.65,2.05-7.15,2.06.78.46,1.73.49,2.63.45,1.55-.06,3.91.35,8.77-2.57.83-.5,1.43-1.31,2.02-2.08.28.57.07,1.71,0,2.33-.08.82-.25,1.62-.49,2.41-.48,1.57-1.27,3.04-2.34,4.29,2.65-1.35,3.64-4.56,4.55-7.39,2.18-6.79,5.33-13.27,9.32-19.18.45.26.69,1.01.87,1.5,1.09,2.94,2.18,5.88,3.27,8.82.52,1.41,1.05,2.83,1.44,4.28.79,2.92,1.05,5.98.77,8.99-.22,2.34-.85,4.78-2.5,6.46,2.98-2.49,4.77-6.33,4.78-10.22,2.12,1.65,4.47,2.23,7.08,2.32-.85-.39-1.7-.81-2.53-1.25-.62-.33-1.23-.67-1.77-1.12-.57-.47-1.04-1.06-1.48-1.65-2.25-3.01-3.05-6.44-4.12-10.02-1.12-3.78-2.55-6.94-3.8-10.69-.34-1.02-.28-1.52.19-2.52.5-1.06,14.31-25.69,19.77-30.77l7.44-10.26s22.92-35.14,22.77-40.88Z" style="fill: #fff; stroke: #2e3138; stroke-linecap: round; stroke-linejoin: round; stroke-width: 1.9px;"/>
      <path d="M79.39,66.11c.9.71,1.94,1.22,3.05,1.5" style="fill: none; stroke: #2e3138; stroke-linecap: round; stroke-linejoin: round; stroke-width: 1.9px;"/>
      <path d="M81.82,61.63c.64.92,1.77,1.47,2.88,1.41" style="fill: none; stroke: #2e3138; stroke-linecap: round; stroke-linejoin: round; stroke-width: 1.9px;"/>
      <path d="M102.13,63.08c-.7.62-1.56,1.04-2.48,1.22" style="fill: none; stroke: #2e3138; stroke-linecap: round; stroke-linejoin: round; stroke-width: 1.9px;"/>
      <path d="M99.25,59.17c-.79.92-1.89,1.58-3.08,1.83" style="fill: none; stroke: #2e3138; stroke-linecap: round; stroke-linejoin: round; stroke-width: 1.9px;"/>
      <path d="M83.67,55.69c1,1.16,2.28,2.07,3.7,2.64" style="fill: none; stroke: #2e3138; stroke-linecap: round; stroke-linejoin: round; stroke-width: 1.9px;"/>
      <path d="M10.73,103.24c1.02,4.63,3.13,8,6.44,11.39" style="fill: none; stroke: #2e3138; stroke-linecap: round; stroke-linejoin: round; stroke-width: 1.9px;"/>
      <path d="M171.62,114.88c-1.61,3.77-3.63,6.91-7.33,8.68" style="fill: none; stroke: #2e3138; stroke-linecap: round; stroke-linejoin: round; stroke-width: 1.9px;"/>
      <path d="M78.18,17.34s2.83-11.16,4.49-12.11c2.96-1.68,6.6-3.93,12.8-4.26,8.19-.43,14.11,5.16,16.4,8.62,0,0,.76,8.48.5,9.61,0,0-3.28-6.54-16.43-7.26-13.15-.72-17.76,5.4-17.76,5.4Z" style="fill: #fff; stroke: #2e3138; stroke-linecap: round; stroke-linejoin: round; stroke-width: 1.9px;"/>
    </g>
  </g>
</svg>