<?xml version="1.0" encoding="UTF-8"?>
<svg id="_圖層_2" data-name="圖層 2" xmlns="http://www.w3.org/2000/svg" viewBox="0 0 621.31 496.52">
  <g id="_圖層_1-2" data-name="圖層 1">
    <g>
      <g>
        <path d="M216,228.02c-7.62,3.73-15.27,7.9-20.88,14.27-9.14,10.38-11.49,24.91-13.46,38.6-4.11,28.49-8.22,56.98-12.33,85.48-2.11,14.6-3.66,29.92-3.08,44.74.17,4.32.53,8.67-.09,12.95-.45,3.14-1.42,6.18-2.05,9.29-.92,4.5-1.12,9.12-1.33,13.71-.64,14.36-1.28,28.71-1.91,43.07-.04.92-.04,1.95.59,2.62,1.74,1.83,11.08,1.64,13.55,1.82,6.23.46,12.49.28,18.73.11,2.31-.06,4.63-.13,6.94-.21,1.15-.04,2.31-.11,3.47-.11,1.12,0,1.41-.08,1.71-1.28.57-2.28,1.09-4.57,1.57-6.87.44-2.14.84-4.29.99-6.46.23-3.38-.14-6.76-.23-10.15-.09-3.38.12-6.86,1.44-9.97,1.94,3.85,2.3,8.28,2.62,12.57.32,4.29.63,8.58.69,12.88.03,2.17,0,4.35.22,6.52.06.58.15,1.19.52,1.64.82,1.01,2.21.75,3.33.69,1.61-.08,3.23-.11,4.85-.16,3.23-.1,6.46-.2,9.69-.3,6.45-.18,12.91-.33,19.36-.41,12.94-.16,25.9-.03,38.83.65.65.03,1.3.07,1.95.11,13.42.76,26.83,1.66,40.27,2.01,13.03.34,25.2-.85,38.16-2.84,26.62-4.1,52.97-9.96,78.81-17.54,4.59-1.35,16.55-1.89,18.01-6.5.99-3.13-.87-9.18-.87-12.61,0-4.35.3-8.7.47-13.04.62-15.78-.33-31.58-1.93-47.28-.8-7.86-2-15.69-2.77-23.55-.5-5.06.62-9.43.88-14.4.74-14.46-4.17-30.7-6.38-44.99-2.36-15.29-4.72-30.59-7.08-45.88-.84-5.41-1.71-10.94-4.28-15.78-3.22-6.06-8.79-10.46-14.33-14.51-8.14-5.94-16.56-11.5-25.23-16.64-5.1-3.03-10.31-5.92-15.83-8.09-5.81-2.28-11.91-3.72-17.98-5.16-25.91-6.13-53.91-12.53-80.32-5.57-25.82,6.8-51.16,14.74-75.28,26.57Z" style="fill: #fff;"/>
        <path d="M356.98,391.96c-.64,6.32-.5,13.12,2.99,18.43.71,1.07,1.56,2.08,2.68,2.73,1.02.59,2.2.84,3.37,1.01,6.25.88,13.57-1.24,16.23-6.96,1.54-3.32,1.23-7.18.55-10.77-.81-4.27-2.15-8.56-4.89-11.93-2.77-3.4-8.41-6.62-12.9-5.56-5.91,1.4-7.5,7.87-8.02,13.06Z" style="fill: #ff6d04;"/>
        <path d="M248.77,391.61c-1.98,2.06-2.18,5.2-2.11,8.05.12,4.81.71,9.67,2.43,14.16,1.72,4.5,4.66,8.63,8.74,11.19,1.33.84,2.83,1.51,4.41,1.52,1.33.01,2.62-.45,3.8-1.07,6.54-3.45,9.47-11.95,7.6-19.11-1.98-7.59-16.4-23.56-24.87-14.74Z" style="fill: #ff6d04;"/>
        <path d="M279.01,443.32c-.93-4.89-1.17-9.91-.72-14.87.06-.61.13-1.25.47-1.77,1.09-1.65,3.68-.78,5.21.47,5.37,4.42,8,11.46,13.2,16.08,6.18,5.49,15.32,6.77,23.35,4.82,8.03-1.95,15.1-6.74,21.32-12.19,9.75-8.55,18.11-19.53,20.24-32.33s-3.44-27.41-15.21-32.86c-7.55,1.62-17.21,3.62-23.45,8.17-3.44,2.51-4.87,6.1-6.15,10.16-1.41,4.45-1.44,9.21-2.24,13.81-.8,4.6-2.64,9.38-6.54,11.95-5.31,3.49-12.33,1.74-18.43-.01-6.1-1.75-13.28-3.22-18.32.64-3.46,2.65-4.91,7.15-5.63,11.45-.93,5.53-1.58,7.63-.72,13.18.65,4.19,6.61,6.22,10.78,5.51,1.11-.19,3.06-1.11,2.85-2.22Z" style="fill: #1f89bd;"/>
        <path d="M375.42,493.18c1.29-4.56-.44-9.82-4.18-12.73,2.54-3.99,2.36-9.54-.44-13.35,1.71-2.15,3.52-4.55,3.41-7.3-.05-1.29-.54-2.55-.43-3.84.23-2.94,3.23-4.73,5.02-7.08,1.89-2.48,2.44-5.91,1.43-8.86-.3-.88-.73-1.73-.76-2.66-.06-2.02,1.73-3.52,2.88-5.19,1.67-2.44,2.01-5.73.87-8.46s-4.77-5-7.67-5.59c-3.37-.68-7.09.93-8.91,3.85-.59.95-1,2.02-1.73,2.86-2.29,2.62-7.18,2.49-8.41,5.74-.67,1.77.09,4.01-1.09,5.49-1.41,1.76-4.38,1.01-6.23,2.3-2.46,1.71-1.82,6.12-4.44,7.58-1.6.89-3.6.19-5.42.43-2.31.32-4.26,2.41-4.4,4.74-3.06-2.08-7.41-2.03-10.41.12-.93.67-1.89,1.56-3.03,1.44-.72-.08-1.33-.56-1.94-.95-2.97-1.9-7.05-1.89-10.01.02-1.27-3.97-6.66-5.94-10.2-3.72-.92.58-1.88,1.41-2.94,1.16-1.27-.31-1.69-2-2.84-2.63-1.79-.97-3.9,1.12-5.9.76-.8-.14-1.47-.66-2.15-1.1-4.02-2.58-9.6-2.48-13.52.25-1.01-4.31-5.76-6.53-10.08-7.52-2.29-.52-4.72-.86-6.94-.11-2.22.76-4.12,2.91-3.85,5.24.11.98.59,1.98.29,2.92-.27.85-1.07,1.39-1.76,1.95-3.13,2.56-4.52,7.06-3.38,10.94.28.96.7,1.94.48,2.91-.27,1.17-1.36,1.91-2.2,2.76-1.76,1.75-2.64,4.35-2.3,6.81.25,1.87,1.12,3.92.1,5.51-.45.7-1.19,1.14-1.84,1.67-4.1,3.35-3.25,10.93,1.49,13.3l16.35.19c2.11-2.76,2.18-6.91.16-9.74,3.25-2.73,3.98-8,1.58-11.5,3.17-1.74,4.44-6.25,2.64-9.39,2.74,4.48,9.2,6.19,13.79,3.64,5.1,4.9,13.55,5.88,19.63,2.27,5.36,4.01,13.29,4.2,18.83.44,4.3,3.51,11.44,2.73,14.88-1.63,4.89,2.53,11.56.73,14.52-3.92,4.07,0,8.12-1.7,10.96-4.63-2.98,2.71-4.68,6.76-4.53,10.78.03.77.12,1.54-.05,2.29-.24,1.09-1,1.99-1.55,2.96-2.4,4.26-.13,10.43,4.47,12.11-1.45,1.94-1.32,4.91.3,6.71l21.42-.26Z" style="fill: #f9b388;"/>
        <path d="M262.91,361.95c2.89-6.26,7.6-12.25,14.24-14.11,5.63-1.57,11.58.06,17.36.9,6.83.99,13.83.84,20.61-.44,6.68-1.26,13.18-3.6,19.96-4.15,6.78-.55,14.25,1.09,18.55,6.36,1.05,1.29,1.89,2.8,2.06,4.45.24,2.33-.88,4.58-2.12,6.56-7.42,11.85-19.92,19.51-32.5,25.63-12.57,6.12-25.83,11.23-36.85,19.84-2.66,2.08-5.26,4.4-8.45,5.51-10.35,3.58-14.26-11.08-15.97-18.47-2.45-10.65-1.49-22.13,3.11-32.08Z" style="fill: #fff9cb; stroke: #2e3138; stroke-linecap: round; stroke-linejoin: round; stroke-width: 3px;"/>
        <path d="M309.97,368.58c2.18,3.53,2.78,7.85,2.46,11.99-.32,4.14-1.51,8.15-2.69,12.12" style="fill: none; stroke: #2e3138; stroke-linecap: round; stroke-linejoin: round; stroke-width: 3px;"/>
        <path d="M346.87,370.68c11.77,5.45,17.33,20.07,15.21,32.86s-10.49,23.77-20.24,32.33c-6.21,5.45-13.28,10.24-21.32,12.19-8.03,1.95-17.18.67-23.35-4.82-5.2-4.62-7.83-11.65-13.2-16.08-1.52-1.26-4.12-2.12-5.21-.47-.34.51-.42,1.15-.47,1.77-.45,4.96-.21,9.98.72,14.87" style="fill: none; stroke: #2e3138; stroke-linecap: round; stroke-linejoin: round; stroke-width: 3px;"/>
        <path d="M317.27,389.01c-1.41,4.45-1.44,9.21-2.24,13.81-.8,4.6-2.64,9.38-6.54,11.95-5.31,3.49-12.33,1.74-18.43-.01-6.1-1.75-13.28-3.22-18.32.64-3.46,2.65-4.91,7.15-5.63,11.45-.93,5.53-1.58,7.63-.72,13.18" style="fill: none; stroke: #2e3138; stroke-linecap: round; stroke-linejoin: round; stroke-width: 3px;"/>
        <path d="M257.04,388.58c-2.38-.17-5-.26-6.87,1.21-2,1.58-2.43,4.39-2.63,6.92-.51,6.39-.42,13.04,2.18,18.89,2.61,5.85,8.26,10.73,14.67,10.71" style="fill: none; stroke: #2e3138; stroke-linecap: round; stroke-linejoin: round; stroke-width: 3px;"/>
        <path d="M359.69,382.04c.9-2.31,3.36-3.66,5.79-4.14,3.35-.66,6.94.02,9.82,1.86,3.45,2.2,5.73,5.91,6.88,9.84,1.15,3.92,1.27,8.08,1.14,12.16-.07,2.08-.21,4.2-.98,6.13-1.55,3.88-5.48,6.43-9.57,7.3-4.09.87-8.34.29-12.44-.55" style="fill: none; stroke: #2e3138; stroke-linecap: round; stroke-linejoin: round; stroke-width: 3px;"/>
        <g>
          <path d="M251.59,65.12c-1.7,5.64-3.4,11.28-5.1,16.92-2.54,8.41-5.08,16.85-6.62,25.5-.91,5.13-1.47,10.31-2.01,15.49-.99,9.41-1.92,19.05.36,28.23.58,2.32,1.36,4.61,2.45,6.73,3.21,6.22,8.97,10.83,15.27,13.89,6.3,3.06,13.17,4.73,19.98,6.35.53,6.09,1.48,11.85,2.02,17.93.2,2.29.16,5.09-1.82,6.26-1.15.68-3.06,1.16-2.72,2.45.11.41.44.71.77.97,9.17,7.52,21.32,10.75,33.18,10.67,2.56-.02,5.12-.18,7.62-.73,2.65-.59,5.19-1.61,7.77-2.46,11.51-3.84,24.08-4.56,34.91-10.02-1.09-11.35-2.19-22.76-1.41-34.14.39-5.77-.91-11.55.02-17.28,4.35-1.51,7.85-3,11.72-5.5,2.04-1.31,4.06-2.84,5.15-5,1.77-3.52.52-8.06-2.32-10.8-2.83-2.74-6.92-3.88-10.86-3.91s-7.82.93-11.64,1.88c-.82.2-1.67.41-2.5.27-.77-.13-1.46-.55-2.12-.97-11.06-7.1-19.36-18.39-22.84-31.07-1.49-5.42-2.13-11.08-4.06-16.36-2.11-5.79-5.81-11.48-4.9-17.57-5.34,1.82-10.68,3.65-16.02,5.47-3.51,1.2-7.04,2.4-10.71,2.95-3.77.56-7.62.42-11.41,0-7.74-.87-15.01-3.01-22.14-6.15Z" style="fill: #fff;"/>
          <path d="M272.73,20.31c-2.29-3.44-3.4-8.28-7.29-9.69-2.5-.91-5.32.05-7.55,1.5-3.04,1.97-5.47,4.86-6.88,8.2-4.29-2.8-10.02-3.24-14.69-1.12-4.67,2.12-8.12,6.72-8.84,11.79-1.16,8.19,4.3,15.74,9.82,21.9,3.54,3.94,8.11,6.21,11.86,9.72,4.05,3.8-.02,7.8,2.84,11.27.63.76,1.62,1.11,2.57,1.36,7.07,1.92,14.61,1.11,21.82,2.41,11.51,2.08,21.48,9.44,29.31,18.13,7.84,8.69,13.93,18.77,20.79,28.26,2.74,3.78,5.92,7.7,10.43,8.92,4.78,1.3,9.09-.68,13.31-2.57,3.74-1.67,7.47-2.64,11.52-3.63,1.59-.39,3.27-.83,4.44-1.98,1-1,1.48-2.39,1.91-3.74,4.01-12.42,7.02-25.33,7.26-38.44.07-3.97-.11-7.95-.62-11.89-.45-3.5-.21-7-.88-10.51-1.33-7.05-4.41-13.75-8.78-19.42-1.33-1.73-2.79-3.37-4.47-4.76-1.12-.92-2.33-1.72-3.53-2.52-6.68-4.42-13.03-8.81-21.02-10.47-5.2-1.08-10.57-1.13-15.88-.9-9.56.4-19.06,1.66-28.48,3.26-7.33,1.25-14.19,2.11-18.98-5.08Z" style="fill: #fff;"/>
          <path d="M251.88,64.78c-12.39-5.74-23.7-17-23.78-30.65-.03-5.95,2.44-12.22,7.51-15.33,5.07-3.11,12.79-1.84,15.52,3.45.46-4.19,2.34-8.47,5.95-10.65,3.61-2.18,9.05-1.42,11.08,2.27.79,1.44,1,3.12,1.57,4.67,1.95,5.36,7.94,8.38,13.63,8.58s11.21-1.82,16.55-3.82c0,0,50.67-10.94,68.87,22.91,18.21,33.86-3.11,78.35-3.11,78.35" style="fill: none; stroke: #2e3138; stroke-linecap: round; stroke-linejoin: round; stroke-width: 3px;"/>
          <path d="M348.34,132.38c4.86-5.06,12.76-6.94,19.38-4.61,4.26,1.5,8.22,5.29,7.92,9.79-.2,3.1-2.35,5.73-4.71,7.74-5.78,4.92-13.96,7.48-21.19,5.16" style="fill: none; stroke: #2e3138; stroke-linecap: round; stroke-miterlimit: 10; stroke-width: 3px;"/>
          <path d="M251.88,64.78s-49.22,113.28,26.08,113.04" style="fill: none; stroke: #2e3138; stroke-linecap: round; stroke-miterlimit: 10; stroke-width: 3px;"/>
          <line x1="354.8" y1="153.46" x2="356.67" y2="201.49" style="fill: none; stroke: #2e3138; stroke-linecap: round; stroke-miterlimit: 10; stroke-width: 3px;"/>
          <path d="M275.59,178.44c1.04,8.16,2.09,16.33,3.13,24.49" style="fill: none; stroke: #2e3138; stroke-linecap: round; stroke-miterlimit: 10; stroke-width: 3px;"/>
        </g>
        <path d="M277.92,204.87s-77.55,23.32-90.35,50.12c-16.49,34.52-26.96,236.86-26.96,236.86" style="fill: none; stroke: #2e3138; stroke-linecap: round; stroke-linejoin: round; stroke-width: 3px;"/>
        <path d="M359.74,204.87s62.54,8.99,82.98,48.07c20.45,39.09,25.43,218.15,25.43,218.15" style="fill: none; stroke: #2e3138; stroke-linecap: round; stroke-linejoin: round; stroke-width: 3px;"/>
        <path d="M214.2,313.19s-7.91,146.44,0,181.83" style="fill: none; stroke: #2e3138; stroke-linecap: round; stroke-linejoin: round; stroke-width: 3px;"/>
        <path d="M407.6,304.65s10.92,134.64,13.36,181.01" style="fill: none; stroke: #2e3138; stroke-linecap: round; stroke-linejoin: round; stroke-width: 3px;"/>
        <g>
          <path d="M326.12,251.05s1.26-10.23,11.75-18.33c10.49-8.1,27.42,3.59,44.54,44.45,17.12,40.86,22.64,84.2,0,80.33-22.64-3.86-37.04-5.24-46.68-22.63l16.87-16.98-1.58-23.02-24.9-43.81Z" style="fill: #d36f62;"/>
          <path d="M355.26,347.71c7.48,1.64,15.37.93,22.73,3.06,1.1.32,2.24.74,3,1.6.76.86,1,2.29.22,3.14-.68.75-1.82.79-2.83.78-3.3-.03-6.63-.06-9.86-.72-4.2-.85-8.15-2.73-12.35-3.59-1.45-.29-2.94-.47-4.32-1-1.98-.77-3.6-2.22-5.17-3.65-1.21-1.09-2.41-2.18-3.57-3.32-.98-.97-2.74-2.33-3.19-3.63,2.47,1.29,4.61,3.25,7.19,4.5,2.6,1.25,5.34,2.21,8.15,2.82Z" style="fill: #f4a289;"/>
          <path d="M311.83,251.63s-.92-19.19-10.86-24.98c-9.94-5.8-33.13,22.08-46.65,48.03-13.53,25.95-16.13,67.43-16.29,70.4-.18,3.4-.54,13.53,23.74,6.35,32.18-9.51,41.05-8.13,47.85-21.04" style="fill: #d36f62;"/>
          <path d="M304.89,336.55c-14.52,5.81-29.91,9.44-45.49,10.72-2.48.2-3.9.77-6.27,1.52-.95.3-2.07.86-2.08,1.86,0,.67.55,1.25,1.18,1.48.63.23,1.33.18,2,.12,5.38-.46,10.71-1.46,15.89-2.97,4.92-1.44,9.74-3.35,14.82-4.05,1.85-.26,5.37-1.43,7.2-1.8,5.35-1.08,8.64-3.28,12.75-6.88Z" style="fill: #f4a289;"/>
          <path d="M326.12,251.05s1.26-10.23,11.75-18.33c10.49-8.1,27.42,3.59,44.54,44.45,17.12,40.86,22.64,84.2,0,80.33-22.64-3.86-37.04-5.24-46.68-22.63l16.87-16.98-1.58-23.02-24.9-43.81Z" style="fill: none; stroke: #2e3138; stroke-linecap: round; stroke-linejoin: round; stroke-width: 3px;"/>
          <path d="M311.83,251.63s-.92-19.19-10.86-24.98c-9.94-5.8-33.13,22.08-46.65,48.03-13.53,25.95-16.13,67.43-16.29,70.4-.18,3.4-.54,13.53,23.74,6.35,32.18-9.51,41.05-8.13,47.85-21.04" style="fill: none; stroke: #2e3138; stroke-linecap: round; stroke-linejoin: round; stroke-width: 3px;"/>
          <path d="M289.52,241.94c-4.53,3.51-8.31,7.9-11.34,11.73-7.64,9.62-13.83,20.4-18.62,31.7-6.57,15.54-10.48,31.05-7.36,48.01.46,2.49,1.23,5.22,3.4,6.53,1.03.62,2.25.84,3.45.97,7,.78,14.31-.7,21.23-1.74,7.24-1.09,14.45-2.33,21.64-3.7,1.93-.37,3.94-.79,5.47-2.02,1.67-1.34,2.51-3.44,3.14-5.48,1.76-5.71,2.41-11.71,2.92-17.66,1.2-13.8,1.79-27.65,1.76-41.51,0-4.14-.11-8.44-1.93-12.15-.63-1.29-1.08-3.24-1.45-4.99-.9-4.18-.67-10.15-5.09-12.53-5.09-2.74-13.14-.33-17.22,2.83Z" style="fill: #ea8a7d; stroke: #2e3138; stroke-linecap: round; stroke-linejoin: round; stroke-width: 3px;"/>
          <path d="M327.79,250.08c-2.84,5.01-5.54,10.19-6.77,15.81-2.45,11.18,1.26,23.09,8,32.33,3.76,5.15,8.66,10.23,8.75,16.61.05,3.44-1.37,6.71-2.34,10.01-.97,3.3-1.45,7.07.3,10.03,2.89,4.89,10.67,6,15.75,5.93,7.47-.11,14.57,2.9,22.01,3.09,6.84.18,9.91-3.33,10.71-9.84,3.63-29.67-6.29-60.73-26.44-82.81-4.57-5.01-10.04-9.71-16.84-11.17-6.78-1.45-10.16,4.75-13.13,10Z" style="fill: #ea8a7d; stroke: #2e3138; stroke-linecap: round; stroke-linejoin: round; stroke-width: 3px;"/>
          <path d="M313.62,195.09v54.29c-2.13,3.81-4.15,7.16-5.86,9.64l-1.08,1.91c-1,1.62-.56,1.11-1.55,2.73s-2.4,3.18-4.27,3.5c-2.58.44-5.02-1.74-5.82-4.23-.79-2.49-.36-5.19.08-7.77-2.24,2.05-2.74,5.74-1.14,8.31-1.66.81-3.75.08-5.01-1.26s-1.87-3.17-2.34-4.95c-.32,2.92.92,5.97,3.19,7.84-1.03.42-4.37,3.12-3.01,4.41-.16-2.08,2.39-3.12,4.17-2.73,1,.22,1.87.81,2.71,1.39,1.1.76,2.2,1.52,3.3,2.28.37.25.74.52.95.92.31.61.12,1.34-.08,1.99-.69,2.32-1.51,4.81-3.49,6.19-1.3.91-2.92,1.21-4.5,1.41-1.42.18-2.85.28-4.28.33-.85.03-1.71.03-2.52-.23-1.31-.42-2.34-1.47-3.02-2.67-.67-1.2-1.04-2.54-1.39-3.87-.29,2.66.52,5.41,2.19,7.5-1.52.67-3.05,1.35-4.37,2.34-1.33.99-2.45,2.34-2.86,3.95.92-2,3.22-3.02,5.41-3.23,2.19-.21,4.39.21,6.59.22,2.68.01,5.36-.59,7.77-1.76-1.27,2.05-2.53,4.09-3.8,6.14-1.22,1.98-2.55,4.05-4.62,5.09-1.52.77-3.3.9-4.84,1.63-1.28.61-2.36,1.65-3.02,2.91.3-.88,1.13-1.49,2-1.81.88-.31,1.82-.38,2.74-.49,1.87-.24,3.72-.71,5.48-1.39.25,1.49-1.01,4.63-2.34,7.18-1.84,3.55-2.76,4.59-5.04,7.6-1.19,1.57-2.43,2.94-4.25,3.75-2.05.91-4.18,1.85-6.43,1.85.7.41,1.55.44,2.36.41,1.39-.06,3.52.31,7.89-2.31.75-.45,1.29-1.18,1.82-1.87.25.51.06,1.54,0,2.09-.08.73-.22,1.46-.44,2.17-.43,1.41-1.15,2.74-2.1,3.86,2.38-1.22,3.28-4.1,4.09-6.64,1.96-6.1,4.79-11.93,8.38-17.24.41.23.62.91.78,1.35.98,2.64,1.96,5.29,2.94,7.93.47,1.27.94,2.54,1.3,3.85.71,2.62.95,5.37.69,8.08-.2,2.11-.76,4.3-2.25,5.81,2.68-2.24,4.29-5.7,4.29-9.19,1.9,1.48,4.02,2,6.36,2.09-.77-.35-1.53-.73-2.27-1.13-.55-.3-1.11-.6-1.59-1.01-.51-.43-.93-.95-1.33-1.48-2.02-2.7-2.75-5.79-3.7-9.01-1.01-3.4-2.29-6.24-3.41-9.61-.31-.92-.25-1.37.17-2.26.45-.95,12.87-23.1,17.77-27.67l7.88-10.87s14.74,16.8,18.36,20.58,3.42,5.44,3.42,5.44l-.08,3.75c.13,9.4-2.94,10.7-2.94,10.7,1.58-.4,2.65-2.3,2.65-2.3.36,2.21,2.29,4.09,4.06,5.47-1.03-.66-1.59-1.84-2-2.99-1.6-4.54-1.44-9.68.45-14.12,2.2,3.33,4.4,6.68,6.14,10.28.75,1.55,1.4,3.14,2.09,4.71.59,1.36.33,2.86-.16,4.24-.3.83-.68,1.63-1.25,2.3-.57.67-1.34,1.19-2.21,1.33.87.25,1.79-.19,2.49-.75,1.22-.97,2.12-2.34,2.52-3.85.56.66.96,1.53,1.38,2.29.5.89.99,1.78,1.42,2.7.83,1.78,1.42,3.71,1.2,5.69-.27,2.32-1.72,4.47-3.77,5.58,2.63.21,5.21-2.03,5.36-4.67.82,1.19,1.1,2.66,1.3,4.09.3,2.12.46,4.28.09,6.39-.38,2.1-1.34,4.16-3,5.52,1.96-.7,3.25-2.64,3.85-4.63.6-2,.64-4.11.93-6.18.04-.31.16-.69.47-.75.23-.04.44.13.62.28.93.82,1.91,1.58,3.04,2.09,1.78.81,3.86.94,5.73.35-2.66.65-5.39-.95-7.25-2.96-4.76-5.11-5.43-12.37-9.37-18.13-.55-.8-1.1-1.61-1.65-2.41-.12-.18-.25-.37-.26-.59-.02-.36.29-.67.63-.77.34-.1.71-.05,1.07,0,1.93.3,3.87.6,5.69,1.29,1.82.69,3.53,1.82,4.58,3.47-.21-.95-.49-1.91-1.01-2.73s-1.48-1.63-2.44-1.81c.44-1.22,1.54-2.11,2.74-2.59s2.87-1.18,4.15-1.32c-1.38-.56-3.32-.05-4.72.44.91-2.26.68-4.95-.62-7.01.39,1.49.68,3.35.04,4.81-.55,1.25-1.89,2.53-3.24,2.84-1.29.3-3.12.05-4.34-.42-1.33-.51-2.45-1.48-3.36-2.58-.45-.54-.85-1.12-1.21-1.72-.79-1.33-1.25-2.81-2.01-4.17-.75-1.34-1.58-2.64-2.44-3.91-1.25-1.84-2.5-3.72-3.85-5.49-1.01-1.33-2.65-2.81-2.16-4.67.2-.75.75-1.36,1.37-1.83,1.78-1.34,4.15-1.68,6.37-1.45,1.58.17,3.35.77,3.94,2.25.27.67.24,1.42.2,2.15-.06,1-.19,2.09-.91,2.79-.72.7-2.21.58-2.44-.39-.2,1.17,1.07,2.23,2.25,2.1s2.12-1.13,2.53-2.25c.41-1.12.4-2.34.37-3.53.73,2.65,2.39,5.04,4.64,6.63-.07-.06-.14-.13-.21-.2-1.14-1.1-2.07-2.4-2.74-3.83-.33-.7-.55-1.44-.82-2.16-.24-.63.13-1.4.64-1.82.47-.39,1.09-.54,1.69-.61.6-.07,1.22-.06,1.81-.16.49-.09.97-.26,1.42-.5-1.49.11-3.21.16-4.66-.22-1.15-.3-2.29-1.23-2.81-2.29-.63-1.27-.39-2.99.74-3.83-2.56,1.86-5.58,3.08-8.71,3.54-1.06.15-2.25.19-3.1-.46-1.12-.85-1.2-2.51-.93-3.89.26-1.36.77-2.68,1.48-3.87.93-1.55,2.22-2.91,2.76-4.64.54-1.72-.09-4.03-1.84-4.47,1.41.81,1.32,2.97.4,4.32-.92,1.34-2.37,2.22-3.44,3.44-1.21,1.39-1.87,3.24-1.83,5.09.05,1.88.89,3.97.32,5.83-.68,2.2-3.18,1.75-4.66.52-1.03-.86-8.76-13.35-8.76-13.35v-54.29" style="fill: #fff; stroke: #2e3138; stroke-linecap: round; stroke-linejoin: round; stroke-width: 2px;"/>
          <path d="M327.33,252.98c-1.29-2.05-2.25-3.6-2.25-3.6v-54.29" style="fill: none; stroke: #2e3138; stroke-linecap: round; stroke-linejoin: round; stroke-width: 3px;"/>
          <path d="M314.38,259.57l4.52-6.23s2.04,2.32,4.78,5.44" style="fill: none; stroke: #2e3138; stroke-linecap: round; stroke-linejoin: round; stroke-width: 3px;"/>
          <path d="M313.62,195.09v54.29c-.48.85-.94,1.68-1.41,2.47" style="fill: none; stroke: #2e3138; stroke-linecap: round; stroke-linejoin: round; stroke-width: 3px;"/>
          <path d="M308.53,260.41c.81.63,1.75,1.1,2.74,1.35" style="fill: none; stroke: #2e3138; stroke-linecap: round; stroke-linejoin: round; stroke-width: 3px;"/>
          <path d="M310.71,256.38c.58.82,1.59,1.32,2.59,1.27" style="fill: none; stroke: #2e3138; stroke-linecap: round; stroke-linejoin: round; stroke-width: 3px;"/>
          <path d="M328.97,257.69c-.63.55-1.41.94-2.23,1.09" style="fill: none; stroke: #2e3138; stroke-linecap: round; stroke-linejoin: round; stroke-width: 3px;"/>
          <path d="M326.38,254.17c-.71.83-1.7,1.42-2.77,1.64" style="fill: none; stroke: #2e3138; stroke-linecap: round; stroke-linejoin: round; stroke-width: 3px;"/>
          <path d="M315.7,253.42c-1.28-.51-2.43-1.34-3.33-2.38" style="fill: none; stroke: #2e3138; stroke-linecap: round; stroke-linejoin: round; stroke-width: 3px;"/>
          <path d="M315.33,242.39c2.53.55,5.14.74,7.73.58" style="fill: none; stroke: #2e3138; stroke-linecap: round; stroke-linejoin: round; stroke-width: 3px;"/>
          <path d="M315.69,234.69c2.32.46,4.75.31,6.99-.44" style="fill: none; stroke: #2e3138; stroke-linecap: round; stroke-linejoin: round; stroke-width: 3px;"/>
          <path d="M316.05,226.58c2.15.54,4.59.61,6.8.19" style="fill: none; stroke: #2e3138; stroke-linecap: round; stroke-linejoin: round; stroke-width: 3px;"/>
          <path d="M315.67,217.6c2.22.87,4.73.98,7.02.3" style="fill: none; stroke: #2e3138; stroke-linecap: round; stroke-linejoin: round; stroke-width: 3px;"/>
          <path d="M315.8,210.3c2.26.41,4.63.2,6.78-.62" style="fill: none; stroke: #2e3138; stroke-linecap: round; stroke-linejoin: round; stroke-width: 3px;"/>
          <path d="M315.53,202.95c2.33.85,4.92.97,7.33.36" style="fill: none; stroke: #2e3138; stroke-linecap: round; stroke-linejoin: round; stroke-width: 3px;"/>
          <path d="M246.79,293.79c.92,4.16,2.81,7.2,5.79,10.24" style="fill: none; stroke: #2e3138; stroke-linecap: round; stroke-linejoin: round; stroke-width: 3px;"/>
          <path d="M262.97,351.08c-3.97,1.4-9.32,1.57-13.37.42-1.35-.38-2.85-1.12-3.13-2.5-.3-1.47.97-2.77,2.19-3.64,3.91-2.78,7.93-3.86,12.58-4.26" style="fill: none; stroke: #2e3138; stroke-linecap: round; stroke-linejoin: round; stroke-width: 3px;"/>
          <path d="M373.49,343.89c1,.07,2.72.04,3.72.11,1.78.12,3.59.24,5.3.76,1.71.52,3.35,1.47,4.36,2.94,1.01,1.48,1.28,3.53.38,5.07-.81,1.4-2.39,2.16-3.92,2.67-3.75,1.25-8.41.91-12.28.12" style="fill: none; stroke: #2e3138; stroke-linecap: round; stroke-linejoin: round; stroke-width: 3px;"/>
          <path d="M391.45,304.26c-1.45,3.39-3.27,6.21-6.59,7.81" style="fill: none; stroke: #2e3138; stroke-linecap: round; stroke-linejoin: round; stroke-width: 3px;"/>
        </g>
        <path d="M242.01,492.85c-4.74-2.36-5.59-9.94-1.49-13.3.64-.53,1.39-.97,1.84-1.67,1.02-1.58.16-3.64-.1-5.51-.34-2.46.54-5.06,2.3-6.81.85-.84,1.94-1.59,2.2-2.76.22-.97-.2-1.95-.48-2.91-1.14-3.88.25-8.38,3.38-10.94.69-.56,1.5-1.1,1.76-1.95.3-.94-.18-1.94-.29-2.92-.27-2.33,1.63-4.49,3.85-5.24,2.22-.76,4.65-.41,6.94.11,4.31.99,9.07,3.21,10.08,7.52,3.92-2.73,9.5-2.83,13.52-.25.68.44,1.35.96,2.15,1.1,2,.36,4.11-1.73,5.9-.76,1.15.62,1.57,2.31,2.84,2.63,1.05.26,2.02-.58,2.94-1.16,3.53-2.22,8.92-.25,10.2,3.72,2.96-1.92,7.04-1.93,10.01-.02.61.39,1.21.87,1.94.95,1.14.12,2.09-.77,3.03-1.44,3.01-2.15,7.36-2.2,10.41-.12.14-2.33,2.09-4.42,4.4-4.74,1.82-.25,3.82.46,5.42-.43,2.62-1.46,1.98-5.86,4.44-7.58,1.85-1.29,4.82-.54,6.23-2.3,1.18-1.48.43-3.72,1.09-5.49,1.22-3.25,6.12-3.12,8.41-5.74.73-.84,1.14-1.91,1.73-2.86,1.82-2.92,5.53-4.53,8.91-3.85,2.9.58,6.53,2.86,7.67,5.59s.8,6.02-.87,8.46c-1.14,1.67-2.94,3.17-2.88,5.19.03.93.46,1.78.76,2.66,1.01,2.95.45,6.38-1.43,8.86-1.79,2.35-4.79,4.14-5.02,7.08-.1,1.29.38,2.55.43,3.84.11,2.74-1.69,5.15-3.41,7.3,2.79,3.82,2.97,9.36.44,13.35,3.74,2.91,5.47,8.17,4.18,12.73" style="fill: none; stroke: #2e3138; stroke-linecap: round; stroke-linejoin: round; stroke-width: 3px;"/>
        <path d="M258.36,493.04c2.11-2.76,2.18-6.91.16-9.74,3.25-2.73,3.98-8,1.58-11.5,3.17-1.74,4.44-6.25,2.64-9.39,2.74,4.48,9.2,6.19,13.79,3.64,5.1,4.9,13.55,5.88,19.63,2.27,5.36,4.01,13.29,4.2,18.83.44,4.3,3.51,11.44,2.73,14.88-1.63,4.89,2.53,11.56.73,14.52-3.92,4.07,0,8.12-1.7,10.96-4.63-2.98,2.71-4.68,6.76-4.53,10.78.03.77.12,1.54-.05,2.29-.24,1.09-1,1.99-1.55,2.96-2.4,4.26-.13,10.43,4.47,12.11-1.45,1.94-1.32,4.91.3,6.71" style="fill: none; stroke: #2e3138; stroke-linecap: round; stroke-linejoin: round; stroke-width: 3px;"/>
        <line x1="210.86" y1="409.8" x2="205.9" y2="495.02" style="fill: none; stroke: #2e3138; stroke-linecap: round; stroke-linejoin: round; stroke-width: 3px;"/>
        <g>
          <path d="M343.42,79.98c-.14,1.61,1.04,3.1,2.48,3.84,1.44.73,3.1.87,4.71.99,4.82.37,10.41.44,13.57-3.22,1.37-1.58,2.04-3.64,2.53-5.67.55-2.27.91-4.71.09-6.9-.82-2.19-3.2-3.94-5.45-3.33,3.53-1.9,5.06-6.79,3.23-10.36-1.83-3.57-6.69-5.19-10.3-3.44,2.1-7.91-3.09-17.02-10.97-19.25-.95-.27-1.92-.45-2.83-.85-.79-.35-1.5-.85-2.22-1.33-2.83-1.91-5.9-3.57-9.25-4.19-3.35-.62-7.04-.09-9.71,2.03-7.56-4.46-18.25-2.55-23.78,4.26-3.47-1.13-7.43-.66-10.54,1.25-3.11,1.91-5.32,5.22-5.89,8.83-.62,3.93-5.64,6.48-4.87,10.38.15.74.48,1.45.46,2.21-.03.83-.48,1.57-.88,2.3-3.64,6.6-3.56,15.1.22,21.62,3.77,6.52,11.09,10.84,18.63,10.98.8.01,1.64,0,2.37.32.74.33,1.29.98,1.87,1.55,4.33,4.23,11.46,4.3,17,1.86,1.44-.63,2.83-1.42,4.34-1.83,3.6-.99,7.73.36,10.05,3.29.52.66.97,1.41,1.65,1.91.74.55,1.66.75,2.55.95,5.07,1.11,10.54,2.63,13.59,6.84,1.43,1.97,2.18,4.36,3.64,6.31,1.45,1.95,4.08,3.42,6.29,2.42,2.41-1.1,2.86-4.3,2.76-6.95-.18-4.84-1.18-9.99-4.59-13.43,2.36-.83,4.92-1.83,6.09-4.04.73-1.38.78-3.01,1.15-4.53s1.26-3.12,2.79-3.46" style="fill: #f79255;"/>
          <path d="M279.1,42.64c.57-3.6,2.78-6.92,5.89-8.83,3.11-1.91,7.07-2.38,10.54-1.25,5.54-6.81,16.23-8.73,23.78-4.26,2.67-2.12,6.36-2.65,9.71-2.03,3.35.62,6.42,2.29,9.25,4.19.72.48,1.43.99,2.22,1.33.9.4,1.88.58,2.83.85,7.87,2.23,13.06,11.34,10.97,19.25,3.6-1.76,8.47-.13,10.3,3.44,1.83,3.57.3,8.47-3.23,10.36,2.25-.62,4.63,1.14,5.45,3.33.82,2.19.46,4.63-.09,6.9-.49,2.03-1.16,4.09-2.53,5.67-3.16,3.66-8.75,3.59-13.57,3.22-1.61-.12-3.27-.26-4.71-.99-1.44-.73-2.62-2.23-2.48-3.84" style="fill: none; stroke: #4b4c4e; stroke-linecap: round; stroke-linejoin: round; stroke-width: 3px;"/>
          <path d="M288.87,46.45c-2.47-.9-4.79-2.52-7.42-2.5-3.61.03-6.58,3.43-7.02,7.02-.44,3.59,1.16,7.16,3.39,10" style="fill: none; stroke: #4b4c4e; stroke-linecap: round; stroke-linejoin: round; stroke-width: 3px;"/>
          <path d="M274.92,55.64c-1.93,1.97-2.89,4.7-3.42,7.4-1.36,6.97,0,14.64,4.56,20.09,4.55,5.45,12.49,8.17,19.15,5.71,2.45,3.42,6.37,5.73,10.55,6.22,4.17.49,8.53-.85,11.7-3.6.55-.47,1.08-1,1.78-1.22,1.16-.36,2.38.25,3.5.72,5.21,2.19,11.54,1.47,16.11-1.85" style="fill: none; stroke: #4b4c4e; stroke-linecap: round; stroke-linejoin: round; stroke-width: 3px;"/>
          <path d="M329.11,93.41c.76,2.77,3.53,4.51,6.25,5.43,2.72.92,5.66,1.33,8.15,2.77,3.89,2.25,6.03,6.67,7.04,11.05" style="fill: none; stroke: #4b4c4e; stroke-linecap: round; stroke-linejoin: round; stroke-width: 3px;"/>
          <path d="M360.63,84.24c.2,1.98-.67,3.98-2.02,5.44-1.35,1.46-3.15,2.45-5,3.18-2.44.96-5.05,1.51-7.67,1.62" style="fill: none; stroke: #4b4c4e; stroke-linecap: round; stroke-linejoin: round; stroke-width: 3px;"/>
          <path d="M351.85,93.63c.99.9,1.95,1.84,2.86,2.82.79.85,1.56,1.75,2.1,2.78.6,1.12.92,2.35,1.18,3.59.61,2.89.89,5.84.84,8.79" style="fill: none; stroke: #4b4c4e; stroke-linecap: round; stroke-linejoin: round; stroke-width: 3px;"/>
          <path d="M295.98,88.9c-1.8-4.97-.97-10.81,2.15-15.08" style="fill: none; stroke: #4b4c4e; stroke-linecap: round; stroke-linejoin: round; stroke-width: 3px;"/>
          <path d="M291.63,63.75c-.5,4.03,2.58,8.16,6.58,8.84,4,.68,8.27-2.21,9.13-6.17,2.88,4.95,7.62,9.21,13.31,9.86,3.91.45,7.98-.93,10.82-3.65,2.84-2.72,4.39-6.73,4.11-10.66" style="fill: none; stroke: #4b4c4e; stroke-linecap: round; stroke-linejoin: round; stroke-width: 3px;"/>
          <path d="M278.44,67.16c1.12,1.3,2.25,2.6,3.65,3.59,1.4.99,3.11,1.64,4.81,1.44,1.73-.2,3.26-1.23,4.52-2.43" style="fill: none; stroke: #4b4c4e; stroke-linecap: round; stroke-linejoin: round; stroke-width: 3px;"/>
          <path d="M303.87,39.67c2.56,1.93,3.48,5.75,2.09,8.64-1.39,2.89-4.96,4.55-8.06,3.75" style="fill: none; stroke: #4b4c4e; stroke-linecap: round; stroke-linejoin: round; stroke-width: 3px;"/>
          <path d="M306.85,48.2c1.48.77,3.14,1.16,4.81,1.15,1.92-.02,3.91-.65,5.21-2.07,1.47-1.61,1.81-3.96,1.69-6.14" style="fill: none; stroke: #4b4c4e; stroke-linecap: round; stroke-linejoin: round; stroke-width: 3px;"/>
          <path d="M313.49,50.27c2.48,1.82,3.64,5.26,2.77,8.22" style="fill: none; stroke: #4b4c4e; stroke-linecap: round; stroke-linejoin: round; stroke-width: 3px;"/>
          <path d="M330.27,50.11c-.97,3.6.57,7.66,3.49,9.98,2.92,2.31,7.03,2.91,10.6,1.83" style="fill: none; stroke: #4b4c4e; stroke-linecap: round; stroke-linejoin: round; stroke-width: 3px;"/>
          <path d="M309.16,83.14c.83.12,1.69-.01,2.45-.37.86-.4,1.57-1.08,2.14-1.84,1.25-1.67,1.88-3.79,1.74-5.87" style="fill: none; stroke: #4b4c4e; stroke-linecap: round; stroke-linejoin: round; stroke-width: 3px;"/>
          <path d="M319.83,84.71c0-1.29-.54-2.57-1.45-3.48-.92-.9-2.21-1.42-3.5-1.4" style="fill: none; stroke: #4b4c4e; stroke-linecap: round; stroke-linejoin: round; stroke-width: 3px;"/>
          <path d="M318.15,32.83c.76-2.09,1.59-4.27,3.26-5.74,2.67-2.34,6.84-2.17,10-.58.73.37,1.43.8,2.02,1.36,1.26,1.2,1.93,2.91,2.18,4.63.25,1.72.13,3.47,0,5.2" style="fill: none; stroke: #4b4c4e; stroke-linecap: round; stroke-linejoin: round; stroke-width: 3px;"/>
          <path d="M296.85,31.16c-1.23,1.74-1.93,3.86-1.98,5.99" style="fill: none; stroke: #4b4c4e; stroke-linecap: round; stroke-linejoin: round; stroke-width: 3px;"/>
        </g>
        <path d="M348.45,50.15c-.16-.05-.33-.06-.5-.01-.38.12-.56.54-.8.87s-.74.57-1.01.28c-.17-.18-.15-.47-.13-.72.1-1.42-.51-2.86-1.58-3.79-.38-.33-.84-.6-1.34-.68-.5-.08-1.05.07-1.39.45-.17.19-.27.44-.42.64-.4.53-1.08.75-1.71.93-.14.04-.28.08-.43.05-.24-.06-.38-.3-.5-.51-.61-1.01-1.6-1.79-2.72-2.14-.16-.05-.33-.09-.5-.08-.16.01-.32.07-.47.13-.69.27-1.44.61-1.75,1.28-.34.74-.01,1.63.52,2.24.23.26.51.53.52.88.01.49-.53.81-1.01.87-.48.06-.99-.03-1.45.14-.24.09-.45.25-.64.42-.72.65-1.22,1.56-1.29,2.52-.06.97.37,1.97,1.18,2.51.38.25.82.39,1.19.66s.65.73.51,1.16c-.16.47-.72.65-1.13.93-.87.6-1.11,1.9-.62,2.84.49.94,1.58,1.48,2.64,1.45.54-.01,1.13-.14,1.57.16.55.37.56,1.14.63,1.8.09.81.39,1.62.95,2.21s1.41.94,2.21.79c1.39-.27,1.29-2.33,2.84-1.96.52.13.96.46,1.43.71.87.46,1.95.62,2.86.24.76-.32,1.56-1.25,1.55-2.12-.01-.92-1.09-1.51-.74-2.42.18-.48.55-.87,1.02-1.09.83-.38,1.91-.17,2.61-.76.55-.46.67-1.3.48-1.99-.19-.7-.64-1.29-1.08-1.86-.75-.98-2.06-1.68-.55-2.47.76-.4,1.13-1.35.99-2.2-.14-.85-.71-1.58-1.41-2.07-.15-.11-.33-.21-.51-.26Z" style="fill: #98999a; stroke: #2e3138; stroke-miterlimit: 10; stroke-width: 3px;"/>
        <path d="M296.86,363.88c-.16-.05-.33-.06-.5-.01-.38.12-.56.54-.8.86-.24.32-.74.57-1.01.28-.17-.18-.15-.47-.13-.72.1-1.42-.51-2.86-1.58-3.79-.38-.33-.84-.6-1.34-.68-.5-.08-1.05.07-1.39.45-.17.19-.27.44-.42.64-.4.53-1.08.75-1.71.93-.14.04-.28.08-.43.05-.24-.06-.38-.3-.5-.51-.61-1.01-1.6-1.79-2.72-2.14-.16-.05-.33-.09-.5-.08-.16.01-.32.07-.47.13-.69.27-1.44.61-1.75,1.28-.34.74-.01,1.63.52,2.24.23.26.51.53.52.88.01.49-.53.81-1.01.87-.48.06-.99-.03-1.45.14-.24.09-.45.25-.64.42-.72.65-1.22,1.56-1.29,2.52-.06.97.37,1.97,1.18,2.51.38.25.82.39,1.19.66.37.27.65.73.51,1.16-.16.47-.72.65-1.13.93-.87.6-1.11,1.9-.62,2.84.49.94,1.58,1.48,2.64,1.45.54-.01,1.13-.14,1.57.16.55.37.56,1.14.63,1.8.09.81.39,1.62.95,2.21.56.59,1.41.94,2.21.79,1.39-.27,1.29-2.33,2.84-1.96.52.13.96.46,1.43.71.87.46,1.95.62,2.86.24.76-.32,1.56-1.25,1.55-2.12-.01-.92-1.09-1.51-.74-2.42.18-.48.55-.87,1.02-1.09.83-.38,1.91-.17,2.61-.76.55-.46.67-1.3.48-1.99-.19-.7-.64-1.29-1.08-1.86-.75-.98-2.06-1.68-.55-2.47.76-.4,1.13-1.35.99-2.2-.14-.85-.71-1.58-1.41-2.07-.15-.11-.33-.21-.51-.26Z" style="fill: #98999a; stroke: #2e3138; stroke-miterlimit: 10; stroke-width: 3px;"/>
        <path d="M384.86,389.05c-.16-.05-.33-.06-.5-.01-.38.12-.56.54-.8.86-.24.32-.74.57-1.01.28-.17-.18-.15-.47-.13-.72.1-1.42-.51-2.86-1.58-3.79-.38-.33-.84-.6-1.34-.68-.5-.08-1.05.07-1.39.45-.17.19-.27.44-.42.64-.4.53-1.08.75-1.71.93-.14.04-.28.08-.43.05-.24-.06-.38-.3-.5-.51-.61-1.01-1.6-1.79-2.72-2.14-.16-.05-.33-.09-.5-.08-.16.01-.32.07-.47.13-.69.27-1.44.61-1.75,1.28-.34.74-.01,1.63.52,2.24.23.26.51.53.52.88.01.49-.53.81-1.01.87-.48.06-.99-.03-1.45.14-.24.09-.45.25-.64.42-.72.65-1.22,1.56-1.29,2.52-.06.97.37,1.97,1.18,2.51.38.25.82.39,1.19.66s.65.73.51,1.16c-.16.47-.72.65-1.13.93-.87.6-1.11,1.9-.62,2.84.49.94,1.58,1.48,2.64,1.45.54-.01,1.13-.14,1.57.16.55.37.56,1.14.63,1.8.09.81.39,1.62.95,2.21s1.41.94,2.21.79c1.39-.27,1.29-2.33,2.84-1.96.52.13.96.46,1.43.71.87.46,1.95.62,2.86.24.76-.32,1.56-1.25,1.55-2.12-.01-.92-1.09-1.51-.74-2.42.18-.48.55-.87,1.02-1.09.83-.38,1.91-.17,2.61-.76.55-.46.67-1.3.48-1.99-.19-.7-.64-1.29-1.08-1.86-.75-.98-2.06-1.68-.55-2.47.76-.4,1.13-1.35.99-2.2-.14-.85-.71-1.58-1.41-2.07-.15-.11-.33-.21-.51-.26Z" style="fill: #98999a; stroke: #2e3138; stroke-miterlimit: 10; stroke-width: 3px;"/>
      </g>
      <text transform="translate(459.37 30.97)" style="fill: #4b4c4e; font-family: GenJyuuGothic-Monospace-Bold, &apos;Gen Jyuu Gothic Monospace&apos;; font-size: 36px; font-weight: 700; letter-spacing: .05em;"><tspan x="0" y="0">腦部</tspan></text>
      <line x1="445.88" y1="19.18" x2="354.42" y2="48.78" style="fill: none; stroke: #4b4c4e; stroke-linecap: round; stroke-miterlimit: 10; stroke-width: 2px;"/>
      <line x1="201.17" y1="228.27" x2="113.13" y2="189.68" style="fill: none; stroke: #4b4c4e; stroke-linecap: round; stroke-miterlimit: 10; stroke-width: 2px;"/>
      <line x1="267.17" y1="376.27" x2="92.88" y2="349.18" style="fill: none; stroke: #4b4c4e; stroke-linecap: round; stroke-miterlimit: 10; stroke-width: 2px;"/>
      <line x1="495.88" y1="363.18" x2="376.04" y2="384.34" style="fill: none; stroke: #4b4c4e; stroke-linecap: round; stroke-miterlimit: 10; stroke-width: 2px;"/>
      <text transform="translate(25.09 199.61)" style="fill: #4b4c4e; font-family: GenJyuuGothic-Monospace-Bold, &apos;Gen Jyuu Gothic Monospace&apos;; font-size: 36px; font-weight: 700; letter-spacing: .05em;"><tspan x="0" y="0">骨頭</tspan></text>
      <text transform="translate(0 360.05)" style="fill: #4b4c4e; font-family: GenJyuuGothic-Monospace-Bold, &apos;Gen Jyuu Gothic Monospace&apos;; font-size: 36px; font-weight: 700; letter-spacing: .05em;"><tspan x="0" y="0">肝臟</tspan></text>
      <text transform="translate(509.71 372.05)" style="fill: #4b4c4e; font-family: GenJyuuGothic-Monospace-Bold, &apos;Gen Jyuu Gothic Monospace&apos;; font-size: 36px; font-weight: 700; letter-spacing: .05em;"><tspan x="0" y="0">腎上腺</tspan></text>
    </g>
  </g>
</svg>