<?xml version="1.0" encoding="UTF-8"?>
<svg id="_圖層_2" data-name="圖層 2" xmlns="http://www.w3.org/2000/svg" viewBox="0 0 633.42 423.78">
  <g id="_圖層_1-2" data-name="圖層 1">
    <g>
      <path d="M75.73,132.18c-2.83-6.02-5.6-11.93-8.37-17.83-.98-2.1-1.03-2.39.74-3.89,5.87-4.99,12.37-8.97,19.42-12.06.51-.22,1.02-.44,1.74-.74-.34-1.01-.68-1.99-1.02-2.98-.67-1.97-.39-2.9,1.61-3.75,3.69-1.56,7.45-2.93,11.18-4.37.42-.16.83-.32,1.4-.54-.45-1.3-.86-2.54-1.29-3.76-1.02-2.92-2.05-5.83-3.09-8.74-.27-.75-.7-1.13-1.61-.92-4.93,1.15-9.87,2.28-14.82,3.32-.53.11-1.45-.27-1.75-.72-2.69-4.05-5.3-8.14-7.87-12.26-.8-1.29-.53-2.15.92-2.55,2.61-.71,5.1-2.06,7.96-1.68.62.08,1.3-.16,1.94-.3,12.9-2.74,25.79-5.49,38.69-8.23,2.98-.63,3.69.13,3.54,3.2-.17,3.58-.15,7.18-.1,10.77.03,2.16-.04,2.4-2.2,2.86-4.01.86-8.02,1.71-12.14,2.59.07.49.1.88.18,1.25.76,3.52,1.55,7.03,2.3,10.55.22,1.05.69,1.37,1.81,1.16,2.74-.52,5.5-.89,8.25-1.35,1.55-.26,2.5.36,3.09,1.79,1.45,3.54,1.47,3.51,5.2,3.13,9.38-.93,18.76-1.89,28.15-2.73,2.36-.21,4.76-.01,7.13.05,1.14.03,2.03,1.29,2.14,3.08.39,6.07.76,12.14,1.13,18.21.03.45.05.89.08,1.45,1.11.08,2.16.16,3.21.24,58.82,4.61,109.42,42.05,131.03,96.97,20.51,52.12,10.71,111.76-25.32,154.6-3.01,3.58-5.43,7.66-8.45,11.23-18.19,21.52-40.61,36.96-67.26,46.15-76.74,26.46-160.77-11.45-191.75-86.46-20.96-50.74-13.1-109.08,20.52-152.39,5.07-6.52,9.94-13.22,15.3-19.49,7.88-9.21,17.07-17.03,27.05-23.92.42-.29.83-.58,1.24-.88.07-.05.1-.16.04-.05ZM193.04,406.92c81.87-18.51,132.99-96.79,115.98-178.96-8.33-40.24-30.4-72.29-64.92-94.58-39.91-25.77-83.3-31.92-128.8-17.46-33.62,10.68-60.46,31.17-79.69,60.75-22.68,34.9-30.35,73.34-21.49,114,17.89,82.06,96.57,132.75,178.91,116.25ZM74.83,62.65c.32.56.55,1.05.85,1.5,1.71,2.57,3.48,5.11,5.12,7.72.6.95,1.2,1.08,2.23.85,12.43-2.68,24.87-5.32,37.31-7.97.4-.08.83-.1,1.18-.28.29-.16.67-.52.67-.8,0-3.58-.04-7.15-.08-11.09-15.69,3.34-31.4,6.68-47.28,10.06ZM139.88,87.88c1.06,6.5,2.07,12.78,3.1,19.11,4.28-.34,8.84-.7,13.76-1.09-1.39-6.53-2.74-12.89-4.15-19.47-4.08.47-8.39.96-12.71,1.45ZM117.38,112.41c3.28-.88,6.54-1.75,9.84-2.63-1.19-6.6-2.36-13.1-3.52-19.52-4.04.86-8.03,1.71-12.15,2.58,1.97,6.63,3.87,13.02,5.83,19.57ZM103.86,117.17c-.15-.49-.26-.92-.41-1.33-1.55-4.13-3.12-8.24-4.64-12.37-.56-1.52-.96-3.1-1.56-4.6-.17-.42-.93-1.01-1.19-.91-3.17,1.17-6.3,2.46-9.52,3.74,2.89,6.57,5.69,12.94,8.51,19.38,2.92-1.29,5.82-2.58,8.81-3.9ZM137.17,88.12c-3.9.51-7.4.97-10.89,1.42,1.22,6.68,2.41,13.16,3.64,19.85,3.62-.77,6.97-1.48,10.41-2.22-1.03-6.21-2.08-12.53-3.16-19.06ZM106.34,116.2c2.43-.86,4.48-1.76,6.63-2.29,1.59-.4,1.73-1.12,1.32-2.46-1.74-5.77-3.43-11.55-5.15-17.32-.04-.12-.19-.21-.42-.46-3.09.98-6.23,1.99-9.52,3.03,2.44,6.67,4.76,13.02,7.13,19.51ZM92.62,122.28c-2.82-6.43-5.61-12.8-8.52-19.43-2.86,1.76-5.45,3.35-8.11,4.98,3.12,6.29,6.12,12.34,9.17,18.48,2.58-1.39,4.88-2.63,7.46-4.02ZM166.13,85.97c-3.58.07-6.93.13-10.48.19,1.21,6.57,2.36,12.83,3.55,19.08.05.28.5.68.77.69,2.42.07,4.83.06,7.52.08-.45-6.65-.9-13.18-1.36-20.05ZM124.96,87.07c-.17-.49-.31-.81-.39-1.14-.4-1.77-1.4-2.1-3.17-1.84-8.54,1.23-16.66,3.88-24.69,6.9-1.98.74-3.93,1.57-6.02,2.41.4,1.16.75,2.14,1.13,3.24,10.79-4.29,21.79-7.38,33.14-9.56ZM112.6,415.45c2.12.54,3.92,1.04,5.74,1.46,1.87.42,4.03,1.49,5.55.92,1.61-.6,2.65-2.78,3.88-4.31.99-1.23,1.89-2.54,2.89-3.88-3.59-.9-6.92-1.76-10.25-2.56-.32-.08-.86.01-1.04.23-2.22,2.62-4.39,5.27-6.75,8.14ZM78.21,130.57c1.66-1.03,3.14-1.95,4.63-2.88-3.05-6.15-6.05-12.18-9.12-18.38-1.21.96-2.22,1.78-3.26,2.57-.73.55-.79,1.12-.39,1.96,2.06,4.34,4.05,8.72,6.11,13.07.58,1.22,1.31,2.37,2.04,3.67ZM89.32,394.65c-2.29,2.93-4.53,5.77-6.89,8.79,2.73,1.32,5.21,2.54,7.72,3.71.24.11.77.06.92-.12,2.3-2.65,4.56-5.34,6.9-8.1-2.97-1.47-5.72-2.84-8.65-4.29ZM47.51,377.68c2.25,2.1,4.39,4.1,6.61,6.17,2.46-2.86,4.82-5.6,7.22-8.4-2.16-1.97-4.24-3.86-6.38-5.82-2.48,2.68-4.87,5.27-7.44,8.04ZM79.73,389.08c-2.5,2.79-4.96,5.56-7.55,8.44,2.77,1.63,5.3,3.11,7.86,4.61,2.34-2.99,4.59-5.87,6.88-8.8-2.47-1.46-4.77-2.83-7.19-4.26ZM110.78,83.45c-.87-4.11-1.71-8.11-2.6-12.1-.09-.39-.61-1.03-.83-.99-2.31.41-4.61.93-7.01,1.44.42,1.07.77,1.9,1.07,2.75,1.09,3.15,2.14,6.33,3.29,9.46.15.4.86.93,1.19.85,1.66-.38,3.28-.93,4.9-1.42ZM185.98,410.85c-4.17.47-8.03.88-11.87,1.37-.41.05-.84.51-1.12.89-1.23,1.67-2.42,3.37-3.6,5.08-.46.67-.88,1.37-1.55,2.44,4.17-.58,7.86-1.09,11.56-1.63.31-.05.66-.28.86-.54,1.87-2.45,3.71-4.91,5.73-7.61ZM21.8,343.99c2.26-2.63,4.34-5.02,6.39-7.45.21-.25.36-.8.23-1.05-1.3-2.49-2.66-4.95-4.09-7.56-2.22,2.39-4.32,4.64-6.38,6.92-.22.24-.4.79-.28,1.04,1.31,2.66,2.68,5.28,4.13,8.09ZM35.09,346.13c-1.66-2.57-3.26-5.06-4.96-7.69-2.22,2.6-4.33,5.05-6.4,7.53-.18.21-.27.71-.14.92,1.4,2.33,2.84,4.62,4.38,7.08,2.5-2.75,4.8-5.28,7.13-7.84ZM63.1,391.17c2.35,1.67,4.57,3.24,6.82,4.85,2.58-2.89,5.02-5.63,7.52-8.42-2.26-1.56-4.37-3.02-6.52-4.5-2.64,2.72-5.17,5.34-7.82,8.08ZM34.52,363.04c2.55-2.8,4.89-5.36,7.24-7.93-1.73-2.29-3.37-4.45-5.09-6.72-2.23,2.45-4.41,4.83-6.54,7.25-.22.25-.31.9-.14,1.15,1.43,2.06,2.94,4.07,4.54,6.25ZM116.84,406.08c-2.47-.84-4.66-1.61-6.88-2.3-.33-.1-.93.02-1.15.27-2.3,2.55-4.54,5.15-7,7.96,2.67.87,5.1,1.68,7.56,2.43.24.07.69-.15.87-.37,2.17-2.6,4.31-5.22,6.6-8ZM10.55,286.18c-1.19,1.08-2.09,2.15-3.21,2.86-2.86,1.83-3.65,4.22-2.63,7.43.59,1.88.86,3.87,1.31,5.97,2.16-1.84,4.21-3.56,6.22-5.33.25-.22.46-.71.4-1.01-.64-3.22-1.34-6.42-2.09-9.93ZM160.83,412.73c-2.02-.07-3.75.06-5.42-.22-2.53-.43-4.32.38-5.85,2.39-1.52,1.99-3.3,3.78-5.21,5.93,2.04.1,3.67.02,5.24.28,2.96.48,5.16-.37,6.72-3,.61-1.03,1.56-1.86,2.34-2.79.67-.79,1.33-1.59,2.17-2.59ZM68.77,381.46c-1.84-1.47-3.57-2.83-5.38-4.27-2.42,2.83-4.77,5.57-7.2,8.42,1.67,1.36,3.18,2.6,4.78,3.9,2.6-2.67,5.12-5.28,7.81-8.04ZM20.03,318.47c-2.21,2.43-4.3,4.7-6.33,7-.21.24-.33.78-.21,1.07.81,2.03,1.7,4.04,2.63,6.23,2.3-2.45,4.43-4.67,6.48-6.95.24-.27.27-.94.11-1.31-.81-1.96-1.71-3.88-2.69-6.04ZM40.5,370.19c2.38-2.86,4.63-5.58,6.95-8.37-1.32-1.53-2.59-3.01-3.96-4.6-2.47,2.7-4.84,5.3-7.27,7.95,1.48,1.74,2.85,3.34,4.28,5.02ZM100.53,400.04c-2.43,2.9-4.75,5.67-7.18,8.58,1.87.76,3.54,1.47,5.24,2.1.28.1.83-.03,1.03-.26,2.29-2.61,4.53-5.27,6.86-7.99-2.02-.83-3.93-1.61-5.94-2.43ZM256.11,380.13c-.48.35-.96.69-1.44,1.05-7.34,5.61-15.13,10.51-23.35,14.72-2.26,1.16-4.87,4.15-5.84,6.78,11.26-6.2,21.51-13.63,30.62-22.56ZM16.55,309.34c-2.27,2.17-4.46,4.24-6.62,6.33-.15.14-.24.49-.17.68.73,2.21,1.5,4.41,2.34,6.85,2.3-2.52,4.36-4.74,6.36-7.01.23-.26.31-.85.19-1.2-.62-1.81-1.33-3.6-2.1-5.65ZM13.54,299.57c-2.31,1.97-4.49,3.82-6.65,5.69-.15.13-.22.47-.17.68.61,2.31,1.26,4.62,1.95,7.15,2.35-2.2,4.45-4.16,6.53-6.15.2-.19.34-.65.26-.92-.58-2.08-1.23-4.14-1.92-6.45ZM184.03,417.88c.07.11.14.22.2.33,3.11-.81,6.22-1.61,9.33-2.42.14-.04.3-.12.38-.23,1.53-2.34,3.05-4.68,4.78-7.37-3.04.65-5.61,1.19-8.17,1.75-.28.06-.61.2-.77.41-1.93,2.5-3.84,5.01-5.76,7.52ZM2.62,276.17c2.07-1.81,3.8-3.29,5.49-4.81.24-.22.49-.59.48-.88-.12-3.17-.3-6.35-.47-9.77-1.75,1.38-3.35,2.6-4.9,3.88-.27.22-.47.68-.47,1.04-.07,3.38-.09,6.77-.12,10.54ZM3.59,288.83c2.22-2,4.21-3.76,6.16-5.56.18-.16.24-.55.21-.82-.34-2.65-.7-5.29-1.1-8.18-1.98,1.75-3.84,3.36-5.65,5.02-.21.19-.3.64-.28.95.19,2.76.42,5.51.66,8.59ZM127.1,418.73c.81.15,1.48.18,2.09.39,2.71.93,4.84.37,6.33-2.23.42-.73,1.13-1.29,1.69-1.94,1.01-1.16,2-2.33,3.16-3.68-2.21-.37-4.09-.72-5.98-.97-.35-.05-.89.18-1.12.47-2.04,2.57-4.03,5.19-6.17,7.97ZM3.54,253.99c1.54-1.2,2.82-2.09,3.96-3.13.5-.45.93-1.18,1.02-1.83.51-4.06.92-8.14,1.35-12.21.04-.36.02-.73.03-1.08-2.77,1.13-4.31,2.99-4.47,5.96-.07,1.4-.5,2.78-.72,4.18-.4,2.57-.75,5.15-1.18,8.11ZM45.64,375.74c2.54-2.76,4.96-5.37,7.41-8.03-1.32-1.36-2.51-2.58-3.79-3.9-2.36,2.86-4.64,5.62-6.95,8.42,1.14,1.21,2.15,2.27,3.32,3.51ZM170.04,412.5c-1.83.05-3.43.08-5.02.16-.27.01-.6.18-.78.38-2.27,2.57-4.51,5.17-7.05,8.09,2.54-.12,4.65-.2,6.76-.33.25-.02.57-.25.72-.47,1.76-2.53,3.49-5.07,5.37-7.82ZM198.26,414.02c.07.1.13.2.2.3,1.88-.64,3.74-1.39,5.65-1.91,2.07-.56,3.59-1.62,4.51-3.63.63-1.37,1.54-2.61,2.53-4.25-3.05.92-5.61,1.68-8.17,2.47-.27.08-.59.25-.73.48-1.35,2.17-2.66,4.36-3.98,6.54ZM148.32,412.15c-1.17-.13-2.27-.18-3.34-.38-1.01-.19-1.67.09-2.33.9-1.65,2.04-3.42,3.98-5.13,5.96-.37.42-.71.87-1.21,1.47,1.57.16,2.82.33,4.07.39.39.02.93-.14,1.17-.42,2.25-2.58,4.45-5.2,6.76-7.92ZM223.8,399.54c-1.9.78-3.85,1.63-5.83,2.39-1.61.62-3.18,1.14-3.96,2.97-.65,1.52-1.65,2.89-2.54,4.4,5.59-1.57,9.99-4.35,12.34-9.76ZM6.96,233.99c2.77-1.11,4.02-2.6,4.4-5.17.54-3.58,1.62-7.09,2.46-10.63.1-.4.16-.81.24-1.22-.92.45-1.88.96-2.14,1.71-1.7,4.96-3.26,9.97-4.97,15.31ZM3.07,261.22c1.16-.89,2.1-1.83,3.21-2.43,2.08-1.12,2.2-2.85,1.88-5.01-1.15.92-2.11,1.9-3.26,2.57-1.91,1.11-1.98,2.79-1.84,4.87ZM18.78,203.55c-.14-.08-.28-.16-.42-.24-1.44,3.22-2.89,6.43-4.33,9.65.21.1.42.19.64.29,2.26-2.83,2.44-6.6,4.11-9.69Z" style="fill: #2e3138;"/>
      <path d="M93.2,33.23c.76,3.56,1.52,7.13,2.27,10.69.08.39.23.87.09,1.19-.21.5-.61,1.19-1.01,1.25-.41.06-1.13-.42-1.36-.86-.34-.65-.41-1.45-.54-2.2-1.5-8.54-3.56-16.94-6.33-25.16-.32-.93-1.01-2.09.39-2.59,1.52-.55,1.87.79,2.19,1.86,1.57,5.23,3.11,10.48,4.65,15.72-.12.03-.24.06-.35.09Z" style="fill: #2e3138;"/>
      <path d="M126.45,20.15c-.19,1.01-.26,1.77-.47,2.5-1.61,5.64-3.25,11.27-4.89,16.89-.08.29-.2.57-.33.85-.4.85-.98,1.54-2,1.12-.98-.4-.75-1.24-.51-2.08,1.8-6.16,3.57-12.33,5.33-18.5.25-.86.46-1.79,1.57-1.69.47.04.89.61,1.29.9Z" style="fill: #2e3138;"/>
      <path d="M75.71,48.59c.22,1.21-.57,1.95-1.52,1.65-.42-.13-.8-.42-1.15-.7-3.63-2.97-7.28-5.92-10.85-8.97-.41-.35-.37-1.21-.54-1.83.63-.13,1.32-.48,1.86-.33.74.21,1.43.74,2.05,1.26,3.1,2.6,6.16,5.22,9.23,7.86.41.35.71.81.93,1.06Z" style="fill: #2e3138;"/>
      <path d="M130.1,46.69c-.56-.34-1.42-.58-1.54-1.02-.13-.48.29-1.43.74-1.67,4.15-2.19,8.35-4.3,12.58-6.32.49-.23,1.31.24,1.97.38-.16.58-.15,1.48-.51,1.68-4.3,2.33-8.66,4.56-13.24,6.94Z" style="fill: #2e3138;"/>
      <path d="M60.95,66.94c-2.29.3-4.1.55-5.9.76-.88.1-1.7-.09-1.85-1.11-.15-1.04.63-1.41,1.49-1.55,3.24-.53,6.48-1.1,9.75-1.5.55-.07,1.19.6,1.79.93-.43.54-.77,1.36-1.32,1.55-1.43.49-2.95.69-3.96.9Z" style="fill: #2e3138;"/>
      <path d="M193.04,406.92c-82.34,16.5-161.02-34.19-178.91-116.25-8.87-40.66-1.2-79.1,21.49-114,19.23-29.58,46.07-50.07,79.69-60.75,45.5-14.46,88.89-8.31,128.8,17.46,34.52,22.29,56.58,54.33,64.92,94.58,17.02,82.17-34.1,160.45-115.97,178.96ZM296.75,230.85c-15.35-73.53-87.4-121.39-161.51-106.88-74.99,14.68-123.63,87.51-108.93,162.13,14.76,74.94,87.63,123.54,162.25,108.75,75.65-15,124.26-89.09,108.18-164Z" style="fill: #ff6d04;"/>
      <path d="M74.83,62.65c15.88-3.38,31.59-6.72,47.28-10.06.04,3.93.09,7.51.08,11.09,0,.27-.38.64-.67.8-.34.19-.78.2-1.18.28-12.44,2.65-24.88,5.28-37.31,7.97-1.04.22-1.64.09-2.23-.85-1.65-2.61-3.42-5.14-5.12-7.72-.3-.45-.53-.94-.85-1.5Z" style="fill: #ff6d04;"/>
      <path d="M139.88,87.88c4.33-.49,8.63-.98,12.71-1.45,1.4,6.58,2.75,12.95,4.15,19.47-4.91.39-9.48.75-13.76,1.09-1.03-6.33-2.05-12.62-3.1-19.11Z" style="fill: #1f89bd;"/>
      <path d="M117.38,112.41c-1.95-6.56-3.85-12.95-5.83-19.57,4.12-.88,8.11-1.73,12.15-2.58,1.16,6.42,2.33,12.93,3.52,19.52-3.3.88-6.56,1.75-9.84,2.63Z" style="fill: #1f89bd;"/>
      <path d="M103.86,117.17c-2.99,1.32-5.89,2.61-8.81,3.91-2.83-6.44-5.63-12.81-8.51-19.38,3.22-1.29,6.35-2.57,9.52-3.74.26-.1,1.02.49,1.19.91.6,1.5,1,3.08,1.56,4.6,1.53,4.13,3.1,8.25,4.64,12.37.16.41.26.84.41,1.33Z" style="fill: #1f89bd;"/>
      <path d="M137.17,88.12c1.08,6.53,2.13,12.85,3.16,19.06-3.44.73-6.79,1.45-10.41,2.22-1.23-6.69-2.41-13.17-3.64-19.85,3.49-.46,6.99-.91,10.89-1.42Z" style="fill: #1f89bd;"/>
      <path d="M106.34,116.2c-2.37-6.48-4.7-12.84-7.13-19.5,3.29-1.05,6.43-2.05,9.52-3.03.23.25.38.34.42.46,1.72,5.77,3.41,11.56,5.15,17.32.4,1.34.27,2.06-1.32,2.46-2.15.53-4.2,1.43-6.63,2.29Z" style="fill: #1f89bd;"/>
      <path d="M92.62,122.28c-2.58,1.39-4.88,2.63-7.46,4.02-3.04-6.13-6.04-12.18-9.17-18.48,2.66-1.63,5.25-3.22,8.11-4.98,2.91,6.64,5.7,13,8.52,19.43Z" style="fill: #1f89bd;"/>
      <path d="M166.13,85.97c.47,6.87.91,13.4,1.36,20.05-2.69-.02-5.11-.01-7.52-.08-.27,0-.72-.41-.77-.69-1.19-6.25-2.34-12.51-3.55-19.08,3.55-.07,6.9-.13,10.48-.19Z" style="fill: #1f89bd;"/>
      <path d="M124.96,87.07c-11.35,2.19-22.35,5.27-33.14,9.56-.39-1.1-.73-2.08-1.13-3.24,2.09-.84,4.04-1.66,6.02-2.41,8.03-3.02,16.15-5.68,24.69-6.9,1.77-.25,2.77.08,3.17,1.84.07.33.22.65.39,1.14Z" style="fill: #b6b6b6;"/>
      <path d="M112.6,415.45c2.37-2.87,4.54-5.52,6.75-8.14.19-.22.72-.31,1.04-.23,3.34.8,6.66,1.66,10.25,2.56-.99,1.34-1.9,2.64-2.89,3.88-1.23,1.53-2.27,3.71-3.88,4.31-1.53.57-3.69-.5-5.55-.92-1.82-.41-3.62-.92-5.73-1.46Z" style="fill: #fff;"/>
      <path d="M78.21,130.57c-.73-1.3-1.46-2.45-2.04-3.67-2.06-4.34-4.04-8.72-6.11-13.07-.4-.84-.34-1.4.39-1.96,1.04-.79,2.05-1.61,3.26-2.57,3.08,6.19,6.07,12.23,9.12,18.38-1.49.93-2.97,1.85-4.63,2.88Z" style="fill: #1f89bd;"/>
      <path d="M89.32,394.65c2.92,1.45,5.68,2.82,8.65,4.29-2.34,2.76-4.6,5.45-6.9,8.1-.16.18-.68.23-.92.12-2.51-1.17-5-2.39-7.72-3.71,2.37-3.02,4.6-5.86,6.89-8.79Z" style="fill: #fff;"/>
      <path d="M47.51,377.68c2.57-2.78,4.96-5.36,7.44-8.04,2.14,1.95,4.22,3.85,6.38,5.82-2.4,2.79-4.76,5.54-7.22,8.4-2.22-2.07-4.36-4.07-6.61-6.17Z" style="fill: #fff;"/>
      <path d="M79.73,389.08c2.42,1.43,4.72,2.79,7.19,4.26-2.29,2.93-4.54,5.81-6.88,8.8-2.56-1.5-5.09-2.99-7.86-4.61,2.58-2.89,5.05-5.65,7.54-8.44Z" style="fill: #fff;"/>
      <path d="M110.78,83.45c-1.62.49-3.24,1.04-4.9,1.42-.33.07-1.05-.46-1.19-.85-1.15-3.13-2.19-6.31-3.29-9.46-.3-.85-.65-1.69-1.07-2.75,2.4-.51,4.69-1.03,7.01-1.44.22-.04.74.6.83.99.9,3.99,1.73,7.99,2.6,12.1Z" style="fill: #b6b6b6;"/>
      <path d="M185.98,410.85c-2.02,2.69-3.86,5.16-5.73,7.61-.19.25-.55.49-.86.54-3.69.54-7.39,1.05-11.56,1.63.68-1.07,1.09-1.78,1.55-2.44,1.18-1.71,2.37-3.41,3.6-5.08.28-.38.71-.83,1.12-.89,3.85-.49,7.71-.9,11.87-1.37Z" style="fill: #fff;"/>
      <path d="M21.8,343.99c-1.45-2.81-2.82-5.44-4.13-8.09-.12-.25.06-.8.28-1.04,2.06-2.28,4.16-4.53,6.38-6.92,1.42,2.61,2.79,5.07,4.09,7.56.13.25-.02.8-.23,1.05-2.04,2.43-4.13,4.83-6.38,7.45Z" style="fill: #fff;"/>
      <path d="M35.09,346.13c-2.32,2.56-4.63,5.09-7.13,7.84-1.53-2.46-2.98-4.76-4.38-7.08-.13-.21-.04-.71.14-.92,2.07-2.48,4.18-4.93,6.4-7.53,1.7,2.64,3.31,5.12,4.97,7.69Z" style="fill: #fff;"/>
      <path d="M63.1,391.17c2.65-2.74,5.18-5.35,7.82-8.08,2.15,1.48,4.26,2.94,6.52,4.5-2.49,2.8-4.94,5.53-7.52,8.42-2.26-1.6-4.47-3.17-6.82-4.85Z" style="fill: #fff;"/>
      <path d="M34.52,363.04c-1.6-2.18-3.11-4.19-4.54-6.25-.17-.24-.08-.9.14-1.15,2.13-2.42,4.32-4.8,6.54-7.25,1.72,2.27,3.36,4.44,5.09,6.72-2.34,2.57-4.68,5.13-7.23,7.93Z" style="fill: #fff;"/>
      <path d="M116.84,406.08c-2.29,2.78-4.43,5.4-6.6,8-.19.22-.64.44-.87.37-2.45-.75-4.89-1.56-7.56-2.43,2.46-2.81,4.7-5.41,7-7.96.22-.25.82-.38,1.15-.27,2.22.69,4.41,1.47,6.88,2.3Z" style="fill: #fff;"/>
      <path d="M10.55,286.18c.75,3.51,1.45,6.71,2.09,9.93.06.3-.15.79-.4,1.01-2.01,1.76-4.06,3.48-6.22,5.33-.45-2.1-.71-4.09-1.31-5.97-1.01-3.21-.23-5.6,2.63-7.43,1.12-.72,2.01-1.78,3.21-2.86Z" style="fill: #fff;"/>
      <path d="M160.83,412.73c-.84,1-1.5,1.8-2.17,2.59-.79.93-1.73,1.76-2.34,2.79-1.56,2.63-3.76,3.48-6.72,3-1.57-.26-3.2-.18-5.24-.28,1.91-2.15,3.68-3.95,5.21-5.93,1.54-2.01,3.32-2.82,5.85-2.39,1.66.28,3.4.16,5.42.22Z" style="fill: #fff;"/>
      <path d="M68.77,381.46c-2.69,2.77-5.21,5.37-7.81,8.04-1.6-1.3-3.11-2.54-4.78-3.9,2.44-2.84,4.78-5.59,7.2-8.42,1.81,1.44,3.54,2.81,5.38,4.27Z" style="fill: #fff;"/>
      <path d="M20.03,318.47c.97,2.16,1.88,4.09,2.69,6.04.15.37.13,1.04-.11,1.31-2.06,2.28-4.18,4.5-6.48,6.95-.94-2.2-1.82-4.2-2.63-6.23-.12-.29,0-.83.21-1.07,2.04-2.3,4.12-4.56,6.33-7Z" style="fill: #fff;"/>
      <path d="M40.5,370.19c-1.43-1.68-2.8-3.29-4.28-5.02,2.42-2.65,4.8-5.25,7.27-7.95,1.37,1.6,2.65,3.08,3.96,4.6-2.32,2.79-4.57,5.51-6.95,8.37Z" style="fill: #fff;"/>
      <path d="M100.53,400.04c2.01.82,3.92,1.6,5.94,2.43-2.33,2.73-4.57,5.38-6.86,7.99-.2.22-.74.36-1.03.26-1.7-.63-3.37-1.34-5.24-2.1,2.43-2.91,4.75-5.68,7.18-8.58Z" style="fill: #fff;"/>
      <path d="M256.11,380.13c-9.11,8.93-19.36,16.36-30.62,22.56.97-2.63,3.58-5.63,5.84-6.78,8.22-4.21,16.01-9.11,23.35-14.72.47-.36.96-.7,1.44-1.05Z" style="fill: #fff;"/>
      <path d="M16.55,309.34c.77,2.05,1.48,3.83,2.1,5.65.12.35.04.94-.19,1.2-2,2.27-4.06,4.49-6.36,7.01-.84-2.44-1.61-4.64-2.34-6.85-.06-.19.03-.54.17-.68,2.16-2.09,4.35-4.16,6.62-6.33Z" style="fill: #fff;"/>
      <path d="M13.54,299.57c.7,2.31,1.34,4.37,1.92,6.45.07.27-.06.72-.26.92-2.07,1.99-4.18,3.95-6.53,6.15-.7-2.53-1.34-4.83-1.95-7.15-.05-.2.02-.55.17-.68,2.16-1.88,4.35-3.73,6.65-5.7Z" style="fill: #fff;"/>
      <path d="M184.03,417.88c1.92-2.51,3.82-5.03,5.76-7.52.17-.21.5-.35.77-.41,2.56-.56,5.12-1.1,8.17-1.75-1.74,2.68-3.25,5.03-4.78,7.37-.07.11-.24.2-.38.23-3.11.81-6.22,1.62-9.33,2.42-.07-.11-.14-.22-.21-.33Z" style="fill: #fff;"/>
      <path d="M2.62,276.17c.04-3.77.06-7.16.13-10.54,0-.35.21-.82.47-1.04,1.55-1.28,3.15-2.51,4.9-3.88.17,3.42.35,6.59.47,9.77.01.29-.24.67-.48.88-1.7,1.52-3.42,3-5.49,4.81Z" style="fill: #fff;"/>
      <path d="M3.59,288.83c-.24-3.08-.47-5.84-.66-8.59-.02-.32.07-.76.28-.95,1.81-1.66,3.67-3.27,5.65-5.02.39,2.89.76,5.53,1.1,8.18.03.27-.03.66-.21.82-1.95,1.8-3.94,3.56-6.16,5.56Z" style="fill: #fff;"/>
      <path d="M127.1,418.73c2.15-2.79,4.14-5.4,6.18-7.97.22-.28.76-.51,1.12-.47,1.89.25,3.77.6,5.98.97-1.16,1.35-2.16,2.52-3.16,3.68-.56.65-1.27,1.21-1.69,1.94-1.49,2.6-3.62,3.16-6.33,2.23-.61-.21-1.28-.25-2.09-.39Z" style="fill: #fff;"/>
      <path d="M3.54,253.99c.43-2.95.78-5.53,1.18-8.11.22-1.4.64-2.78.72-4.18.16-2.97,1.7-4.83,4.47-5.96-.01.35,0,.72-.03,1.08-.43,4.07-.84,8.15-1.35,12.21-.08.65-.52,1.38-1.02,1.83-1.14,1.04-2.42,1.93-3.96,3.13Z" style="fill: #fff;"/>
      <path d="M45.64,375.74c-1.18-1.24-2.18-2.3-3.32-3.51,2.31-2.8,4.58-5.56,6.95-8.42,1.28,1.32,2.47,2.54,3.79,3.9-2.45,2.66-4.87,5.27-7.41,8.03Z" style="fill: #fff;"/>
      <path d="M170.04,412.5c-1.88,2.75-3.61,5.3-5.37,7.82-.16.22-.47.46-.72.47-2.11.13-4.22.21-6.76.33,2.54-2.92,4.78-5.51,7.05-8.09.18-.2.51-.37.78-.38,1.59-.08,3.19-.11,5.02-.16Z" style="fill: #fff;"/>
      <path d="M198.26,414.02c1.32-2.18,2.64-4.37,3.98-6.54.14-.23.46-.39.73-.48,2.56-.79,5.12-1.55,8.17-2.47-.99,1.64-1.9,2.88-2.53,4.25-.92,2.01-2.43,3.06-4.51,3.63-1.92.52-3.77,1.26-5.65,1.91-.07-.1-.13-.2-.2-.3Z" style="fill: #fff;"/>
      <path d="M148.32,412.15c-2.31,2.73-4.51,5.35-6.76,7.92-.24.28-.78.44-1.17.42-1.26-.06-2.51-.23-4.07-.39.49-.6.84-1.05,1.21-1.47,1.72-1.98,3.48-3.93,5.13-5.96.66-.81,1.32-1.09,2.33-.9,1.07.2,2.16.25,3.34.38Z" style="fill: #fff;"/>
      <path d="M223.8,399.54c-2.35,5.41-6.75,8.19-12.34,9.76.89-1.51,1.89-2.88,2.54-4.4.79-1.83,2.36-2.35,3.96-2.97,1.98-.77,3.93-1.61,5.83-2.39Z" style="fill: #fff;"/>
      <path d="M6.96,233.99c1.71-5.34,3.27-10.35,4.97-15.31.26-.75,1.21-1.25,2.14-1.71-.08.41-.14.82-.24,1.22-.84,3.54-1.92,7.04-2.46,10.63-.39,2.57-1.64,4.07-4.41,5.17Z" style="fill: #fff;"/>
      <path d="M3.07,261.22c-.14-2.07-.07-3.75,1.84-4.87,1.15-.67,2.11-1.65,3.26-2.57.32,2.16.2,3.89-1.88,5.01-1.12.6-2.05,1.54-3.21,2.43Z" style="fill: #fff;"/>
      <path d="M18.78,203.55c-1.68,3.09-1.85,6.87-4.11,9.69-.21-.1-.42-.19-.64-.29,1.44-3.22,2.89-6.43,4.33-9.65.14.08.28.16.42.24Z" style="fill: #fff;"/>
      <path d="M296.75,230.85c16.07,74.91-32.53,149-108.18,164-74.62,14.79-147.48-33.8-162.25-108.75-14.7-74.62,33.94-147.45,108.93-162.13,74.11-14.51,146.15,33.35,161.51,106.88ZM189.97,392.03c72.81-16.19,119.49-86.14,104.44-159.76-15.01-73.45-85.86-120.69-160.01-105.43-73.4,15.11-120.51,85.96-105.24,160.01,15.24,73.87,86.63,120.24,160.81,105.19Z" style="fill: #2e3138;"/>
      <path d="M294.41,232.27c15.05,73.62-31.63,143.57-104.44,159.76-74.18,15.05-145.57-31.31-160.81-105.19-15.27-74.04,31.84-144.89,105.25-160.01,74.15-15.26,144.99,31.99,160.01,105.44Z" style="fill: #fff;"/>
      <path d="M151.97,264.62c-2.24-5.97-.94-11.24,4.12-14.52.3-.2.5-.97.38-1.36-2.77-9.22-5.49-18.46-8.43-27.64-4.84-15.11-9.74-30.2-14.78-45.25-3.68-11.01-7.62-21.93-11.45-32.89-1.09-3.12,0-5.54,3.12-6.76.98-.38,2.05-.57,3.08-.82,1.04-.25,1.76.09,2.13,1.15,1.73,4.87,3.67,9.67,5.18,14.61,5.35,17.39,10.68,34.8,15.79,52.26,4.14,14.16,7.97,28.4,11.86,42.63.46,1.69,1.06,2.71,2.86,3.33,4.24,1.46,7.03,5.6,6.93,10.24-.1,4.44-2.24,7.97-6.3,9.72-3.93,1.7-8.02,1.61-11.52-1.41-.86-.74-1.64-.85-2.72-.62-35.2,7.52-70.42,15.01-105.63,22.5-.59.13-1.23.39-1.78.29-.55-.1-1.04-.58-1.55-.9.35-.54.59-1.22,1.07-1.58.45-.33,1.15-.34,1.74-.47,34.62-7.37,69.23-14.74,103.84-22.11.64-.14,1.28-.27,2.06-.44ZM160.9,248.57c-.26-.98-.46-1.76-.67-2.54-3.45-12.62-6.74-25.28-10.39-37.83-4.55-15.67-9.35-31.28-14.14-46.88-2.22-7.22-4.69-14.36-7.07-21.53-.18-.54-.73-1.46-.89-1.41-1.08.3-2.24.66-3.1,1.33-.42.33-.54,1.49-.32,2.12,3.23,9.39,6.64,18.73,9.81,28.15,3.32,9.9,6.41,19.88,9.63,29.81,4.09,12.58,8.26,25.14,12.32,37.73,1.19,3.7,2.15,7.49,3.24,11.31.54-.09.97-.16,1.59-.26Z" style="fill: #2e3138;"/>
      <path d="M273.96,221.51c-.44-.25-1.22-.44-1.34-.83-.14-.47.11-1.27.48-1.66,1.93-2.07,3.96-4.04,5.91-6.09.66-.7,1.28-1.5,2.27-.71.88.7.5,1.63-.11,2.28-1.91,2.09-3.88,4.13-5.85,6.16-.31.32-.76.48-1.36.85Z" style="fill: #2e3138;"/>
      <path d="M47.83,255.07c-3.28-.02-6.12,0-8.95-.1-.41-.01-1.04-.56-1.13-.96-.1-.42.22-1.08.58-1.4.33-.29.94-.35,1.43-.35,2.48,0,4.96.04,7.45.09.88.02,1.78.27,1.67,1.3-.06.57-.77,1.06-1.04,1.42Z" style="fill: #2e3138;"/>
      <path d="M260.78,203.2c.62.23,1.19.34,1.62.63,2.16,1.49,4.28,3.02,6.41,4.56.71.52,1.18,1.22.58,2.06-.61.86-1.42.58-2.14.09-2.23-1.56-4.47-3.11-6.64-4.76-.39-.3-.61-1-.64-1.53-.02-.31.49-.66.81-1.06Z" style="fill: #2e3138;"/>
      <path d="M55.29,249.72c.25,1.7.51,3.4.74,5.1.12.9.08,1.83-1.06,1.99-1.05.15-1.37-.67-1.53-1.51-.45-2.43-.93-4.86-1.25-7.3-.06-.47.46-1.34.87-1.45.45-.12,1.32.28,1.57.71.42.71.49,1.62.71,2.45-.02,0-.04,0-.05.01Z" style="fill: #2e3138;"/>
      <path d="M118.02,376.56c-.28-.17-.88-.38-1.22-.79-1.61-1.93-3.18-3.88-4.68-5.9-.26-.34-.29-1.19-.04-1.49.3-.36,1.06-.61,1.53-.51.53.11,1.07.59,1.42,1.05,1.35,1.76,2.66,3.55,3.91,5.38.66.97.33,1.98-.93,2.26Z" style="fill: #2e3138;"/>
      <path d="M140.71,385.32c-.78-.53-1.55-.79-1.74-1.27-.16-.39.23-1.26.64-1.58,1.77-1.39,3.61-2.72,5.51-3.94.48-.31,1.26-.17,1.9-.23.05.6.38,1.5.11,1.74-2.01,1.79-4.15,3.45-6.41,5.29Z" style="fill: #2e3138;"/>
      <path d="M124.91,384.35c-.71-.43-1.51-.64-1.66-1.07-.15-.44.18-1.31.58-1.62,1.9-1.42,3.86-2.76,5.87-4.01.44-.27,1.4-.28,1.72.02.31.29.38,1.45.1,1.68-2.1,1.71-4.32,3.28-6.62,4.99Z" style="fill: #2e3138;"/>
      <path d="M276.07,199.18c-.12.27-.21.85-.51,1-.44.22-1.13.34-1.53.13-.98-.5-1.83-1.25-2.77-1.83-.98-.61-2.06-1.08-2.99-1.76-.4-.29-.82-1.13-.67-1.44.22-.45,1.18-1.02,1.44-.87,2.3,1.31,4.51,2.76,6.74,4.19.11.07.13.27.28.59Z" style="fill: #2e3138;"/>
      <path d="M128.98,361.59c.33.16,1.02.31,1.46.72,1.51,1.41,3,2.85,4.33,4.42.34.4.06,1.32.07,2-.64-.07-1.48.1-1.87-.24-1.71-1.48-3.31-3.08-4.9-4.7-.76-.78-.4-1.9.92-2.19Z" style="fill: #2e3138;"/>
      <path d="M262.76,331.15c-.28.46-.47,1.15-.84,1.26-.46.14-1.27,0-1.58-.34-.8-.89-1.4-1.97-2.1-2.94-.53-.73-1.22-1.37-1.63-2.16-.27-.53-.15-1.25-.21-1.88.68.01,1.54-.23,2.01.09.76.52,1.3,1.38,1.85,2.16.84,1.19,1.6,2.44,2.49,3.82Z" style="fill: #2e3138;"/>
      <path d="M34.5,261.07c.68.26,1.31.36,1.77.7,1.54,1.13,3.07,2.3,4.48,3.57.31.28.39,1.22.15,1.61-.23.39-1,.67-1.51.63-.47-.04-.93-.53-1.36-.87-1.26-1-2.54-1.99-3.73-3.06-.36-.33-.68-.91-.68-1.38,0-.38.52-.75.87-1.21Z" style="fill: #2e3138;"/>
      <path d="M271.56,317.53c-.22.4-.44,1.27-.82,1.34-.53.11-1.49-.21-1.71-.64-.99-1.92-1.86-3.92-2.61-5.96-.15-.4.38-1.47.7-1.51.55-.08,1.49.24,1.72.68.97,1.88,1.75,3.86,2.72,6.08Z" style="fill: #2e3138;"/>
      <path d="M277.87,293.11c.2.94.56,1.88.54,2.81,0,.55-.61,1.09-.94,1.63-.52-.38-1.34-.66-1.49-1.15-.6-1.98-1.05-4-1.41-6.04-.08-.43.41-1.33.73-1.37.52-.07,1.41.23,1.61.64.52,1.07.75,2.28,1.1,3.43-.04.01-.08.02-.13.04Z" style="fill: #2e3138;"/>
      <path d="M264.6,302.92c-.61-.31-1.27-.44-1.47-.81-.21-.38-.16-1.26.12-1.49,1.73-1.4,3.53-2.71,5.37-3.96.28-.18,1.12.01,1.32.3.26.36.37,1.27.14,1.48-1.74,1.53-3.58,2.95-5.48,4.48Z" style="fill: #2e3138;"/>
      <path d="M276.76,306.89c-1.12.07-2.53.3-3.93.2-.56-.04-1.06-.79-1.59-1.22.5-.47.94-1.22,1.51-1.34,1.47-.31,3-.31,4.5-.5.89-.11,1.84-.06,1.85.95,0,.56-.82,1.15-1.33,1.68-.15.15-.48.12-1.01.24Z" style="fill: #2e3138;"/>
      <path d="M261.89,223.11c-1.08.19-1.84-.57-1.52-1.59.56-1.79,1.24-3.55,2.01-5.25.18-.39.99-.74,1.47-.68.35.04.97.87.88,1.16-.65,2.01-1.43,3.98-2.22,5.94-.09.23-.48.33-.62.42Z" style="fill: #2e3138;"/>
      <path d="M160.9,248.57c-.63.1-1.05.17-1.59.27-1.09-3.83-2.04-7.61-3.24-11.31-4.06-12.59-8.23-25.15-12.32-37.73-3.23-9.93-6.31-19.91-9.63-29.81-3.16-9.42-6.58-18.75-9.81-28.15-.22-.62-.1-1.79.32-2.12.86-.68,2.01-1.03,3.1-1.33.16-.04.71.87.89,1.41,2.39,7.17,4.85,14.31,7.07,21.53,4.8,15.6,9.59,31.21,14.14,46.88,3.65,12.56,6.94,25.22,10.39,37.83.21.77.41,1.55.67,2.54Z" style="fill: #ff6d04;"/>
    </g>
    <g>
      <path d="M281.42,118.01c-3.17,4.12-6.3,8.23-9.48,12.3-11.97,15.33-23.81,30.77-35.98,45.94-10.65,13.29-21.69,26.26-32.55,39.39-8.97,10.85-17.93,21.72-26.89,32.58-2.09,2.54-4.14,5.11-6.23,7.65-.43.52-.94.99-1.49,1.37-1.47,1.03-3,.44-3.51-1.24-.11-.36-.35-.76-.66-.95-1.58-1.02-2.13-2.22-1.26-3.93,2.26-4.43,4.54-8.86,7.04-13.15,5.62-9.65,11.25-19.31,17.13-28.81,5.96-9.62,12.37-18.96,18.32-28.59,9.03-14.6,17.94-29.29,26.7-44.06,5.33-8.98,10.33-18.16,15.37-27.31,1.54-2.79,2.71-5.78,4.08-8.66.5-1.05.45-1.73-.63-2.51-5.8-4.19-11.52-8.48-17.27-12.74-.54-.4-1.15-.77-1.58-1.27-.56-.66-1.47-1.52-1.36-2.14.2-1.17.94-2.19,2.39-2.57,9.89-2.56,19.32-6.43,28.16-11.46,7.34-4.18,14.29-9.08,21.31-13.81,4.61-3.11,9.18-6.32,13.53-9.78,2.62-2.08,4.76-4.75,7.19-7.09.39-.38,1.12-.49,1.72-.55.44-.04.92.32,1.37.31,4.92-.13,9.88.4,14.73-.88,1.03-.27,2.06.8,2.12,2.21.03.66-.11,1.36-.35,1.98-6.63,17.26-11.21,35.13-15.55,53.04-2.04,8.4-3.32,17-4.67,25.55-.47,2.97-.04,6.08-.19,9.11-.06,1.23-.38,2.54-.94,3.63-.52,1.01-1.53.52-2.26-.03-2.93-2.22-5.82-4.49-8.76-6.7-2.98-2.24-6-4.42-9-6.62-.14-.11-.34-.14-.55-.22ZM168.13,253.72c.14.1.29.21.43.31,1.17-1.4,2.35-2.8,3.5-4.21,7.76-9.53,15.47-19.11,23.29-28.58,7.92-9.59,16.03-19.02,23.92-28.63,8.11-9.87,16.13-19.82,24.05-29.84,8.07-10.21,15.99-20.54,23.97-30.82,3.91-5.04,7.81-10.1,11.69-15.16,1.29-1.68,2.74-1.93,4.51-.6,4.95,3.72,9.88,7.47,14.81,11.2.6.45,1.21.9,1.92,1.42,0-2.53-.28-4.87.04-7.13,1.15-7.99,2.11-16.05,3.88-23.91,4.15-18.37,8.83-36.6,15.33-54.31.17-.45.28-.92.42-1.39-1.46.88-2.66,1.85-3.86,2.82-10.39,8.4-20.71,16.87-31.18,25.17-9.05,7.17-18.95,13-29.49,17.74-.78.35-1.45.97-2.25,1.2-2.16.63-4.35,1.13-6.87,1.76.7.6,1.1.99,1.55,1.33,2.92,2.23,5.84,4.44,8.76,6.66,2.73,2.08,5.46,4.17,8.19,6.25,1.14.87,1.46,1.8.54,3.09-.78,1.1-1.34,2.35-2.07,3.49-6.42,10.08-12.71,20.24-19.31,30.2-14.37,21.71-28.79,43.38-43.38,64.93-9.33,13.78-19,27.33-28.5,40.99-1.37,1.97-2.62,4.02-3.92,6.03ZM232.34,142.14c-1.27,2.12-2.49,4.17-3.58,5.98,1.73,1.55,3.32,2.98,5.02,4.5,3.19-4.86,6.34-9.65,9.5-14.47-2.07-1.68-3.96-3.22-5.94-4.83-1.24,2.21-2.48,4.43-3.67,6.55,1.43,1.21,2.74,2.28,4,3.4.64.57.97,1.44.2,1.99-.4.29-1.4.15-1.88-.17-1.24-.82-2.33-1.86-3.65-2.95ZM250.24,76.26c3.24,2.2,6.22,4.23,9.21,6.24.17.12.51.17.68.08,2.2-1.13,4.38-2.28,6.73-3.52-3.19-2.01-6.08-3.86-9-5.65-.3-.18-.85-.18-1.19-.04-2.04.87-4.04,1.8-6.43,2.89ZM247.25,115.97c-1.22,2.26-2.31,4.39-3.51,6.45-.52.9-.36,1.47.36,2.11,1.67,1.5,3.3,3.05,5.05,4.68,1.73-2.71,3.42-5.38,5.2-8.16-2.39-1.71-4.65-3.33-7.09-5.09ZM275.95,73.45c-3.09-1.83-5.87-3.48-8.66-5.11-.22-.13-.59-.23-.78-.13-2.1,1.14-4.17,2.31-6.43,3.58,3.08,1.92,5.97,3.74,8.88,5.52.2.12.59.14.78.03,2.01-1.23,3.99-2.49,6.21-3.89ZM165.8,252.31c6.75-9.86,13.5-19.72,20.32-29.68-.48-.32-.88-.58-1.26-.86-.41-.3-.82-.62-1.45-1.1-5.6,10.81-12.82,20.54-17.61,31.64ZM259.25,113.14c-2.62-1.84-5.13-3.59-7.7-5.4-1.02,2.07-2,4.03-2.98,6.01,2.45,1.75,4.78,3.42,7.23,5.17,1.19-1.99,2.32-3.88,3.45-5.79ZM232.19,154.95c-1.57-1.66-3.02-3.2-4.57-4.83-1.64,2.72-3.25,5.38-4.74,7.84,1.5,1.59,2.84,3.01,4.35,4.6,1.74-2.67,3.34-5.13,4.95-7.61ZM284.19,56.42c2.43,1.68,4.57,3.17,6.73,4.62.27.18.82.32,1.02.17,1.68-1.24,3.3-2.55,4.94-3.84-2.5-1.65-4.84-3.18-7.32-4.82-1.62,1.17-3.37,2.42-5.38,3.87ZM247.99,77.16c-2,.79-4.01,1.58-6.3,2.48,3.74,2.15,7.2,4.15,10.67,6.12.22.13.59.18.82.09,1.26-.51,2.5-1.07,3.9-1.68-2.95-2.68-6.65-3.9-9.08-7.02ZM276.44,61.77c2.81,1.63,5.38,3.14,7.97,4.62.24.14.71.18.91.04,1.39-1,2.73-2.06,4.14-3.15-2.56-1.84-4.93-3.55-7.42-5.34-1.7,1.16-3.55,2.43-5.61,3.84ZM282.83,68.44c-3.03-1.77-5.84-3.4-8.81-5.13-1.41.94-3,1.99-4.89,3.25,3.24,1.82,6.22,3.5,9.21,5.18,1.5-1.1,2.88-2.12,4.49-3.3ZM249.67,87.18c-3.98-2.28-7.53-4.31-11.09-6.33-.19-.1-.48-.13-.69-.07-1.23.33-2.45.7-4.1,1.18,3.4,2.34,6.45,4.44,9.51,6.52.25.17.66.27.95.2,1.67-.43,3.33-.92,5.41-1.5ZM221.41,171.22c1.53-2.27,2.98-4.4,4.33-6.39-1.51-1.6-2.86-3.02-4.33-4.58-1.64,2.73-3.16,5.27-4.73,7.89,1.37.92,2.61,1.74,3.84,2.57.24.16.49.28.89.51ZM254.89,100.67q-2.52,4.32,1.12,7.08c.42.32.84.66,1.28.95,1.11.72,2.23,1.41,3.42,2.16.71-1.2,1.36-2.16,1.84-3.21.15-.33.02-1.07-.25-1.29-2.41-1.92-4.88-3.77-7.42-5.69ZM219.92,173.39c-1.58-1.05-3.05-2.02-4.61-3.06-1.54,2.47-3.01,4.81-4.54,7.27,1.52,1.06,2.88,2.01,4.36,3.05,1.6-2.42,3.15-4.77,4.8-7.26ZM247.76,131.18c-2.07-1.78-4.02-3.45-6.07-5.2-1.07,1.79-2.07,3.48-3.07,5.17,2.07,1.63,4.05,3.19,6.1,4.8,1.14-1.79,2.14-3.36,3.04-4.76ZM318.73,39.39c-4.43.04-8.57.04-12.7.14-.48.01-.94.5-1.48.8,2.06,2.13,5.08,2.71,6.17,5.62,2.62-2.14,5.21-4.27,8-6.56ZM298.73,46.12c2.16,1.55,4.22,3.03,6.37,4.57,1.46-1.21,2.92-2.44,4.38-3.65-2.04-1.4-3.96-2.77-5.94-4.05-.34-.22-1.07-.31-1.32-.11-1.15.94-2.2,2.01-3.49,3.23ZM299.06,55.71c1.34-1.11,2.68-2.2,4.01-3.29-2.06-1.51-3.99-2.95-5.95-4.34-.25-.18-.79-.28-1.01-.14-1.39.91-2.73,1.91-4.33,3.05,2.54,1.65,4.83,3.14,7.29,4.72ZM209.28,189.37c1.46-2.2,2.87-4.31,4.36-6.56-1.47-1.03-2.83-1.99-4.25-2.99-.55.9-1.02,1.67-1.5,2.45q-2.42,3.93,1.39,7.11ZM203.96,188.38c-1.45,2.1-2.81,4.07-4.21,6.09,1.3,1.09,2.5,2.1,3.87,3.24,1.47-2.16,2.81-4.12,4.2-6.18-1.32-1.07-2.51-2.05-3.86-3.16ZM198.24,196.7c-1.13,1.84-2.28,3.72-3.44,5.61,1.26,1.03,2.4,1.97,3.64,2.98,1.29-1.87,2.48-3.61,3.72-5.42-1.3-1.05-2.52-2.03-3.93-3.17ZM188.81,211.92c-1.33,2.22-2.69,4.5-4.05,6.79,1.11.66,2.03,1.21,3.02,1.8,1.54-2.15,2.99-4.15,4.43-6.16-1.21-.87-2.25-1.61-3.39-2.43ZM193.72,212.19c1.19-1.72,2.24-3.23,3.28-4.74-1.24-1.03-2.34-1.94-3.54-2.93-1.12,1.76-2.22,3.48-3.34,5.23,1.22.83,2.31,1.57,3.59,2.44Z" style="fill: #2e3138;"/>
      <path d="M319.93,42.06c-.14.46-.26.93-.42,1.38-6.5,17.72-11.18,35.96-15.33,54.32-1.78,7.87-2.72,15.93-3.88,23.92-.33,2.25-.05,4.6-.04,7.13-.7-.52-1.32-.96-1.92-1.42-4.94-3.73-9.86-7.48-14.81-11.19-1.77-1.33-3.23-1.08-4.51.6-3.89,5.06-7.78,10.12-11.7,15.16-7.97,10.29-15.9,20.61-23.97,30.82-7.93,10.03-15.95,19.97-24.04,29.85-7.89,9.6-16.01,19.04-23.93,28.62-7.82,9.48-15.52,19.06-23.28,28.58-1.16,1.42-2.34,2.81-3.51,4.21-.15-.1-.28-.21-.42-.31,1.3-2.02,2.55-4.07,3.91-6.03,9.5-13.67,19.18-27.22,28.51-41,14.58-21.56,29-43.23,43.37-64.94,6.59-9.96,12.9-20.12,19.31-30.2.72-1.13,1.29-2.39,2.07-3.49.92-1.3.6-2.22-.53-3.09-2.73-2.08-5.47-4.17-8.2-6.25-2.91-2.23-5.85-4.44-8.76-6.66-.44-.34-.85-.72-1.55-1.33,2.51-.63,4.71-1.13,6.87-1.76.79-.24,1.48-.86,2.24-1.21,10.54-4.73,20.44-10.56,29.49-17.74,10.47-8.29,20.79-16.76,31.18-25.16,1.2-.97,2.4-1.94,3.87-2.81Z" style="fill: #1f89bd;"/>
      <path d="M232.34,142.14c1.32,1.09,2.42,2.12,3.65,2.95.48.32,1.48.46,1.88.17.77-.55.44-1.42-.2-1.99-1.26-1.12-2.57-2.19-4-3.4,1.19-2.12,2.43-4.33,3.67-6.55,1.98,1.6,3.87,3.15,5.94,4.83-3.16,4.82-6.31,9.61-9.5,14.47-1.7-1.52-3.29-2.95-5.02-4.5,1.08-1.81,2.31-3.86,3.58-5.98Z" style="fill: #fff;"/>
      <path d="M250.24,76.26c2.39-1.08,4.4-2.02,6.43-2.89.34-.14.89-.15,1.19.04,2.92,1.79,5.81,3.63,9,5.65-2.35,1.24-4.53,2.4-6.73,3.52-.17.09-.51.03-.68-.08-2.99-2.01-5.97-4.04-9.21-6.24Z" style="fill: #fff;"/>
      <path d="M247.25,115.97c2.45,1.76,4.7,3.38,7.09,5.09-1.77,2.78-3.47,5.45-5.2,8.16-1.75-1.63-3.38-3.18-5.05-4.68-.72-.64-.88-1.21-.36-2.11,1.2-2.07,2.29-4.2,3.51-6.46Z" style="fill: #fff;"/>
      <path d="M275.95,73.45c-2.22,1.4-4.2,2.67-6.21,3.89-.19.12-.58.09-.78-.03-2.91-1.79-5.8-3.6-8.88-5.52,2.26-1.27,4.33-2.45,6.43-3.58.18-.1.56,0,.78.13,2.79,1.63,5.56,3.28,8.66,5.11Z" style="fill: #fff;"/>
      <path d="M165.8,252.31c4.79-11.11,12.01-20.84,17.61-31.64.63.48,1.03.8,1.45,1.1.38.28.78.53,1.26.86-6.82,9.96-13.57,19.82-20.32,29.68Z" style="fill: #fff;"/>
      <path d="M259.25,113.14c-1.14,1.91-2.26,3.79-3.45,5.79-2.44-1.75-4.78-3.42-7.23-5.17.98-1.98,1.96-3.95,2.98-6.01,2.57,1.8,5.08,3.56,7.7,5.4Z" style="fill: #fff;"/>
      <path d="M232.19,154.95c-1.62,2.48-3.21,4.94-4.95,7.61-1.51-1.6-2.85-3.02-4.35-4.6,1.49-2.46,3.09-5.12,4.74-7.84,1.55,1.63,3,3.17,4.57,4.83Z" style="fill: #fff;"/>
      <path d="M284.19,56.42c2.01-1.45,3.75-2.7,5.38-3.87,2.48,1.64,4.82,3.17,7.32,4.82-1.64,1.29-3.27,2.6-4.94,3.84-.2.15-.75.01-1.02-.17-2.16-1.45-4.3-2.94-6.73-4.62Z" style="fill: #fff;"/>
      <path d="M247.99,77.16c2.43,3.12,6.13,4.34,9.08,7.02-1.4.61-2.64,1.17-3.9,1.68-.23.09-.59.03-.82-.09-3.47-1.97-6.93-3.97-10.67-6.12,2.29-.9,4.31-1.7,6.3-2.48Z" style="fill: #fff;"/>
      <path d="M276.44,61.77c2.06-1.41,3.91-2.68,5.61-3.84,2.49,1.8,4.86,3.5,7.42,5.34-1.42,1.09-2.76,2.15-4.14,3.15-.2.14-.67.1-.91-.04-2.59-1.47-5.16-2.98-7.97-4.62Z" style="fill: #fff;"/>
      <path d="M282.83,68.44c-1.61,1.18-2.99,2.19-4.49,3.29-2.99-1.68-5.97-3.36-9.21-5.18,1.89-1.26,3.48-2.31,4.89-3.25,2.97,1.73,5.78,3.37,8.81,5.14Z" style="fill: #fff;"/>
      <path d="M249.67,87.18c-2.08.59-3.74,1.07-5.41,1.5-.29.07-.7-.03-.95-.2-3.07-2.08-6.11-4.18-9.51-6.52,1.65-.48,2.87-.85,4.1-1.18.21-.06.5-.04.69.07,3.56,2.02,7.11,4.05,11.09,6.33Z" style="fill: #fff;"/>
      <path d="M221.41,171.22c-.4-.23-.65-.36-.89-.51-1.24-.82-2.48-1.65-3.84-2.57,1.57-2.62,3.1-5.16,4.73-7.89,1.47,1.56,2.82,2.98,4.33,4.58-1.34,1.99-2.79,4.12-4.33,6.39Z" style="fill: #fff;"/>
      <path d="M254.89,100.67c2.53,1.93,5,3.77,7.42,5.69.27.22.41.95.25,1.29-.48,1.04-1.13,2.01-1.84,3.21-1.19-.75-2.31-1.44-3.42-2.16-.44-.29-.86-.63-1.28-.95q-3.65-2.76-1.12-7.07Z" style="fill: #fff;"/>
      <path d="M219.92,173.39c-1.64,2.49-3.2,4.84-4.8,7.26-1.48-1.03-2.84-1.99-4.36-3.05,1.53-2.46,3-4.8,4.54-7.27,1.57,1.04,3.03,2.01,4.61,3.06Z" style="fill: #fff;"/>
      <path d="M247.76,131.18c-.9,1.41-1.9,2.98-3.04,4.76-2.05-1.61-4.03-3.17-6.1-4.8,1-1.69,2.01-3.37,3.07-5.17,2.05,1.75,4,3.43,6.07,5.2Z" style="fill: #fff;"/>
      <path d="M318.73,39.39c-2.79,2.29-5.39,4.41-8,6.56-1.09-2.91-4.11-3.48-6.17-5.62.53-.3,1-.79,1.48-.8,4.13-.1,8.27-.1,12.7-.14Z" style="fill: #fff;"/>
      <path d="M298.73,46.12c1.3-1.22,2.34-2.29,3.49-3.23.25-.21.99-.11,1.32.11,1.98,1.28,3.9,2.65,5.94,4.05-1.46,1.21-2.92,2.44-4.38,3.65-2.15-1.54-4.21-3.02-6.37-4.57Z" style="fill: #fff;"/>
      <path d="M299.06,55.71c-2.45-1.59-4.74-3.08-7.29-4.72,1.6-1.14,2.94-2.14,4.33-3.05.22-.14.76-.04,1.01.14,1.97,1.39,3.9,2.83,5.95,4.34-1.33,1.09-2.66,2.19-4.01,3.29Z" style="fill: #fff;"/>
      <path d="M209.28,189.37q-3.81-3.17-1.39-7.11c.48-.78.95-1.55,1.5-2.45,1.43,1,2.79,1.96,4.25,2.99-1.5,2.25-2.9,4.36-4.36,6.56Z" style="fill: #fff;"/>
      <path d="M203.96,188.38c1.36,1.11,2.55,2.08,3.86,3.16-1.4,2.05-2.74,4.02-4.2,6.18-1.36-1.14-2.57-2.15-3.87-3.24,1.4-2.03,2.76-4,4.21-6.1Z" style="fill: #fff;"/>
      <path d="M198.24,196.7c1.41,1.14,2.63,2.12,3.93,3.17-1.24,1.81-2.44,3.55-3.72,5.42-1.24-1.02-2.38-1.95-3.64-2.98,1.16-1.89,2.31-3.76,3.44-5.61Z" style="fill: #fff;"/>
      <path d="M188.81,211.92c1.15.82,2.19,1.57,3.39,2.43-1.44,2-2.89,4.01-4.43,6.16-.98-.59-1.91-1.14-3.02-1.8,1.37-2.29,2.73-4.57,4.05-6.79Z" style="fill: #fff;"/>
      <path d="M193.72,212.19c-1.28-.87-2.37-1.61-3.59-2.44,1.12-1.75,2.21-3.47,3.34-5.23,1.2.99,2.3,1.9,3.54,2.93-1.04,1.5-2.1,3.02-3.29,4.74Z" style="fill: #fff;"/>
      <path d="M295.95,100.88c-2.31,1.17-4.26,2.23-6.28,3.13-.35.16-1.31-.22-1.41-.53-.15-.45.06-1.32.42-1.58,1.05-.75,2.25-1.29,3.38-1.92.67-.37,1.3-.88,2.02-1.09.58-.17,1.65-.21,1.83.08.3.5.05,1.32.04,1.91Z" style="fill: #2e3138;"/>
      <path d="M287.73,113.87c-.72-.79-.38-1.93.66-2.03,2.21-.21,4.44-.28,6.66-.28.37,0,.97.57,1.04.96.07.39-.36,1.24-.62,1.26-2.44.2-4.89.26-7.33.35-.16,0-.32-.2-.41-.25Z" style="fill: #2e3138;"/>
      <path d="M286.06,96.52c-.6.21-.99.38-1.41.48-1.69.4-3.38.78-5.07,1.17-.81.18-1.64.22-1.93-.73-.31-1.03.42-1.51,1.28-1.73,1.82-.46,3.65-.94,5.5-1.26.49-.09,1.21.25,1.58.64.24.25.05.93.05,1.43Z" style="fill: #2e3138;"/>
      <path d="M295.53,91.93c-.87.83-2.03.61-2.11-.32-.17-1.99-.17-4.01-.05-6.01.02-.39.91-.72,1.4-1.09.33.47.92.91.96,1.4.14,1.57.1,3.16.07,4.74,0,.5-.21.99-.28,1.27Z" style="fill: #2e3138;"/>
      <g>
        <path d="M245.25,54.36c-18.79-9.01-38.89-15.07-59.54-17.87-1.76-.24-2.49,2.47-.71,2.71,20.4,2.76,40.29,8.68,58.85,17.58,1.61.77,3.02-1.64,1.4-2.42Z" style="fill: #2e3138;"/>
        <path d="M239.58,37.41c-9.86-3.77-19.78-7.4-29.75-10.89-1.7-.59-2.4,2.12-.71,2.71,9.97,3.49,19.88,7.12,29.75,10.89,1.68.64,2.37-2.07.71-2.71Z" style="fill: #2e3138;"/>
        <path d="M352.38,152.98c-7.16-14.73-17.46-27.82-30.09-38.24-1.38-1.14-3.38.82-1.99,1.96,12.47,10.29,22.59,23.13,29.66,37.67.79,1.63,3.22.23,2.43-1.39Z" style="fill: #2e3138;"/>
        <path d="M355.38,131.23c-2.67-4.34-5.8-8.4-9.33-12.07-1.25-1.3-3.24.67-1.99,1.96,3.37,3.51,6.34,7.35,8.89,11.49.94,1.54,3.38.15,2.43-1.39Z" style="fill: #2e3138;"/>
      </g>
    </g>
    <g>
      <g>
        <g>
          <path d="M470.59,43.48c0,1.79-1.45,3.24-3.24,3.24s-3.24-1.45-3.24-3.24,1.45-3.24,3.24-3.24,3.24,1.45,3.24,3.24Z" style="fill: #fff; stroke: #2e3138; stroke-linecap: round; stroke-miterlimit: 10; stroke-width: 2.31px;"/>
          <path d="M585.71,43.48c0,1.79-1.45,3.24-3.24,3.24s-3.24-1.45-3.24-3.24,1.45-3.24,3.24-3.24,3.24,1.45,3.24,3.24Z" style="fill: #fff; stroke: #2e3138; stroke-linecap: round; stroke-miterlimit: 10; stroke-width: 2.31px;"/>
          <polyline points="467.35 40.24 522.67 1.39 582.47 40.24" style="fill: none; stroke: #2e3138; stroke-linecap: round; stroke-miterlimit: 10; stroke-width: 2.31px;"/>
          <g>
            <rect x="427.03" y="29.68" width="205.23" height="262.16" rx="16.28" ry="16.28" style="fill: #ff6d04; stroke: #2e3138; stroke-linecap: round; stroke-miterlimit: 10; stroke-width: 2.31px;"/>
            <rect x="447.57" y="57.27" width="162.52" height="201.8" style="fill: #fff; stroke: #2e3138; stroke-linecap: round; stroke-miterlimit: 10; stroke-width: 2.31px;"/>
            <path d="M447.57,57.27s-1.94,185.4-28.49,192.32h178.71s16.19-145.51,12.3-192.32h-162.52Z" style="fill: #fff; stroke: #2e3138; stroke-linecap: round; stroke-linejoin: round; stroke-width: 2.31px;"/>
            <g>
              <path d="M467.29,124.77c2.79,0,5.06,2.27,5.06,5.06s-2.27,5.06-5.06,5.06-5.06-2.27-5.06-5.06,2.27-5.06,5.06-5.06M467.29,122.45c-4.07,0-7.37,3.3-7.37,7.37s3.3,7.37,7.37,7.37,7.37-3.3,7.37-7.37-3.3-7.37-7.37-7.37h0Z" style="fill: #dfdfdf;"/>
              <path d="M487.02,124.77c2.79,0,5.06,2.27,5.06,5.06s-2.27,5.06-5.06,5.06-5.06-2.27-5.06-5.06,2.27-5.06,5.06-5.06M487.02,122.45c-4.07,0-7.37,3.3-7.37,7.37s3.3,7.37,7.37,7.37,7.37-3.3,7.37-7.37-3.3-7.37-7.37-7.37h0Z" style="fill: #dfdfdf;"/>
              <path d="M506.76,124.77c2.79,0,5.06,2.27,5.06,5.06s-2.27,5.06-5.06,5.06-5.06-2.27-5.06-5.06,2.27-5.06,5.06-5.06M506.76,122.45c-4.07,0-7.37,3.3-7.37,7.37s3.3,7.37,7.37,7.37,7.37-3.3,7.37-7.37-3.3-7.37-7.37-7.37h0Z" style="fill: #dfdfdf;"/>
              <path d="M526.49,124.77c2.79,0,5.06,2.27,5.06,5.06s-2.27,5.06-5.06,5.06-5.06-2.27-5.06-5.06,2.27-5.06,5.06-5.06M526.49,122.45c-4.07,0-7.37,3.3-7.37,7.37s3.3,7.37,7.37,7.37,7.37-3.3,7.37-7.37-3.3-7.37-7.37-7.37h0Z" style="fill: #dfdfdf;"/>
              <path d="M546.23,124.77c2.79,0,5.06,2.27,5.06,5.06s-2.27,5.06-5.06,5.06-5.06-2.27-5.06-5.06,2.27-5.06,5.06-5.06M546.23,122.45c-4.07,0-7.37,3.3-7.37,7.37s3.3,7.37,7.37,7.37,7.37-3.3,7.37-7.37-3.3-7.37-7.37-7.37h0Z" style="fill: #dfdfdf;"/>
              <path d="M565.96,124.77c2.79,0,5.06,2.27,5.06,5.06s-2.27,5.06-5.06,5.06-5.06-2.27-5.06-5.06,2.27-5.06,5.06-5.06M565.96,122.45c-4.07,0-7.37,3.3-7.37,7.37s3.3,7.37,7.37,7.37,7.37-3.3,7.37-7.37-3.3-7.37-7.37-7.37h0Z" style="fill: #dfdfdf;"/>
              <path d="M585.69,124.77c2.79,0,5.06,2.27,5.06,5.06s-2.27,5.06-5.06,5.06-5.06-2.27-5.06-5.06,2.27-5.06,5.06-5.06M585.69,122.45c-4.07,0-7.37,3.3-7.37,7.37s3.3,7.37,7.37,7.37,7.37-3.3,7.37-7.37-3.3-7.37-7.37-7.37h0Z" style="fill: #dfdfdf;"/>
            </g>
            <g>
              <path d="M467.29,146.09c2.79,0,5.06,2.27,5.06,5.06s-2.27,5.06-5.06,5.06-5.06-2.27-5.06-5.06,2.27-5.06,5.06-5.06M467.29,143.77c-4.07,0-7.37,3.3-7.37,7.37s3.3,7.37,7.37,7.37,7.37-3.3,7.37-7.37-3.3-7.37-7.37-7.37h0Z" style="fill: #dfdfdf;"/>
              <path d="M487.02,146.09c2.79,0,5.06,2.27,5.06,5.06s-2.27,5.06-5.06,5.06-5.06-2.27-5.06-5.06,2.27-5.06,5.06-5.06M487.02,143.77c-4.07,0-7.37,3.3-7.37,7.37s3.3,7.37,7.37,7.37,7.37-3.3,7.37-7.37-3.3-7.37-7.37-7.37h0Z" style="fill: #dfdfdf;"/>
              <path d="M506.76,146.09c2.79,0,5.06,2.27,5.06,5.06s-2.27,5.06-5.06,5.06-5.06-2.27-5.06-5.06,2.27-5.06,5.06-5.06M506.76,143.77c-4.07,0-7.37,3.3-7.37,7.37s3.3,7.37,7.37,7.37,7.37-3.3,7.37-7.37-3.3-7.37-7.37-7.37h0Z" style="fill: #dfdfdf;"/>
              <path d="M526.49,146.09c2.79,0,5.06,2.27,5.06,5.06s-2.27,5.06-5.06,5.06-5.06-2.27-5.06-5.06,2.27-5.06,5.06-5.06M526.49,143.77c-4.07,0-7.37,3.3-7.37,7.37s3.3,7.37,7.37,7.37,7.37-3.3,7.37-7.37-3.3-7.37-7.37-7.37h0Z" style="fill: #dfdfdf;"/>
              <path d="M546.23,146.09c2.79,0,5.06,2.27,5.06,5.06s-2.27,5.06-5.06,5.06-5.06-2.27-5.06-5.06,2.27-5.06,5.06-5.06M546.23,143.77c-4.07,0-7.37,3.3-7.37,7.37s3.3,7.37,7.37,7.37,7.37-3.3,7.37-7.37-3.3-7.37-7.37-7.37h0Z" style="fill: #dfdfdf;"/>
              <path d="M565.96,146.09c2.79,0,5.06,2.27,5.06,5.06s-2.27,5.06-5.06,5.06-5.06-2.27-5.06-5.06,2.27-5.06,5.06-5.06M565.96,143.77c-4.07,0-7.37,3.3-7.37,7.37s3.3,7.37,7.37,7.37,7.37-3.3,7.37-7.37-3.3-7.37-7.37-7.37h0Z" style="fill: #dfdfdf;"/>
              <path d="M585.69,146.09c2.79,0,5.06,2.27,5.06,5.06s-2.27,5.06-5.06,5.06-5.06-2.27-5.06-5.06,2.27-5.06,5.06-5.06M585.69,143.77c-4.07,0-7.37,3.3-7.37,7.37s3.3,7.37,7.37,7.37,7.37-3.3,7.37-7.37-3.3-7.37-7.37-7.37h0Z" style="fill: #dfdfdf;"/>
            </g>
            <g>
              <path d="M463.53,167.4c2.79,0,5.06,2.27,5.06,5.06s-2.27,5.06-5.06,5.06-5.06-2.27-5.06-5.06,2.27-5.06,5.06-5.06M463.53,165.09c-4.07,0-7.37,3.3-7.37,7.37s3.3,7.37,7.37,7.37,7.37-3.3,7.37-7.37-3.3-7.37-7.37-7.37h0Z" style="fill: #dfdfdf;"/>
              <path d="M483.26,167.4c2.79,0,5.06,2.27,5.06,5.06s-2.27,5.06-5.06,5.06-5.06-2.27-5.06-5.06,2.27-5.06,5.06-5.06M483.26,165.09c-4.07,0-7.37,3.3-7.37,7.37s3.3,7.37,7.37,7.37,7.37-3.3,7.37-7.37-3.3-7.37-7.37-7.37h0Z" style="fill: #dfdfdf;"/>
              <path d="M502.99,167.4c2.79,0,5.06,2.27,5.06,5.06s-2.27,5.06-5.06,5.06-5.06-2.27-5.06-5.06,2.27-5.06,5.06-5.06M502.99,165.09c-4.07,0-7.37,3.3-7.37,7.37s3.3,7.37,7.37,7.37,7.37-3.3,7.37-7.37-3.3-7.37-7.37-7.37h0Z" style="fill: #dfdfdf;"/>
              <path d="M522.73,167.4c2.79,0,5.06,2.27,5.06,5.06s-2.27,5.06-5.06,5.06-5.06-2.27-5.06-5.06,2.27-5.06,5.06-5.06M522.73,165.09c-4.07,0-7.37,3.3-7.37,7.37s3.3,7.37,7.37,7.37,7.37-3.3,7.37-7.37-3.3-7.37-7.37-7.37h0Z" style="fill: #dfdfdf;"/>
              <path d="M542.46,167.4c2.79,0,5.06,2.27,5.06,5.06s-2.27,5.06-5.06,5.06-5.06-2.27-5.06-5.06,2.27-5.06,5.06-5.06M542.46,165.09c-4.07,0-7.37,3.3-7.37,7.37s3.3,7.37,7.37,7.37,7.37-3.3,7.37-7.37-3.3-7.37-7.37-7.37h0Z" style="fill: #dfdfdf;"/>
              <path d="M562.19,167.4c2.79,0,5.06,2.27,5.06,5.06s-2.27,5.06-5.06,5.06-5.06-2.27-5.06-5.06,2.27-5.06,5.06-5.06M562.19,165.09c-4.07,0-7.37,3.3-7.37,7.37s3.3,7.37,7.37,7.37,7.37-3.3,7.37-7.37-3.3-7.37-7.37-7.37h0Z" style="fill: #dfdfdf;"/>
              <path d="M581.93,167.4c2.79,0,5.06,2.27,5.06,5.06s-2.27,5.06-5.06,5.06-5.06-2.27-5.06-5.06,2.27-5.06,5.06-5.06M581.93,165.09c-4.07,0-7.37,3.3-7.37,7.37s3.3,7.37,7.37,7.37,7.37-3.3,7.37-7.37-3.3-7.37-7.37-7.37h0Z" style="fill: #dfdfdf;"/>
            </g>
            <g>
              <path d="M457.43,188.72c2.79,0,5.06,2.27,5.06,5.06s-2.27,5.06-5.06,5.06-5.06-2.27-5.06-5.06,2.27-5.06,5.06-5.06M457.43,186.41c-4.07,0-7.37,3.3-7.37,7.37s3.3,7.37,7.37,7.37,7.37-3.3,7.37-7.37-3.3-7.37-7.37-7.37h0Z" style="fill: #dfdfdf;"/>
              <path d="M477.16,188.72c2.79,0,5.06,2.27,5.06,5.06s-2.27,5.06-5.06,5.06-5.06-2.27-5.06-5.06,2.27-5.06,5.06-5.06M477.16,186.41c-4.07,0-7.37,3.3-7.37,7.37s3.3,7.37,7.37,7.37,7.37-3.3,7.37-7.37-3.3-7.37-7.37-7.37h0Z" style="fill: #dfdfdf;"/>
              <path d="M496.9,188.72c2.79,0,5.06,2.27,5.06,5.06s-2.27,5.06-5.06,5.06-5.06-2.27-5.06-5.06,2.27-5.06,5.06-5.06M496.9,186.41c-4.07,0-7.37,3.3-7.37,7.37s3.3,7.37,7.37,7.37,7.37-3.3,7.37-7.37-3.3-7.37-7.37-7.37h0Z" style="fill: #dfdfdf;"/>
              <path d="M516.63,188.72c2.79,0,5.06,2.27,5.06,5.06s-2.27,5.06-5.06,5.06-5.06-2.27-5.06-5.06,2.27-5.06,5.06-5.06M516.63,186.41c-4.07,0-7.37,3.3-7.37,7.37s3.3,7.37,7.37,7.37,7.37-3.3,7.37-7.37-3.3-7.37-7.37-7.37h0Z" style="fill: #dfdfdf;"/>
              <path d="M536.36,188.72c2.79,0,5.06,2.27,5.06,5.06s-2.27,5.06-5.06,5.06-5.06-2.27-5.06-5.06,2.27-5.06,5.06-5.06M536.36,186.41c-4.07,0-7.37,3.3-7.37,7.37s3.3,7.37,7.37,7.37,7.37-3.3,7.37-7.37-3.3-7.37-7.37-7.37h0Z" style="fill: #dfdfdf;"/>
              <path d="M556.1,188.72c2.79,0,5.06,2.27,5.06,5.06s-2.27,5.06-5.06,5.06-5.06-2.27-5.06-5.06,2.27-5.06,5.06-5.06M556.1,186.41c-4.07,0-7.37,3.3-7.37,7.37s3.3,7.37,7.37,7.37,7.37-3.3,7.37-7.37-3.3-7.37-7.37-7.37h0Z" style="fill: #dfdfdf;"/>
              <path d="M575.83,188.72c2.79,0,5.06,2.27,5.06,5.06s-2.27,5.06-5.06,5.06-5.06-2.27-5.06-5.06,2.27-5.06,5.06-5.06M575.83,186.41c-4.07,0-7.37,3.3-7.37,7.37s3.3,7.37,7.37,7.37,7.37-3.3,7.37-7.37-3.3-7.37-7.37-7.37h0Z" style="fill: #dfdfdf;"/>
            </g>
            <rect x="459.92" y="110.82" width="14.74" height="5.83" rx="1.55" ry="1.55" style="fill: #4b4c4e;"/>
            <rect x="479.66" y="110.82" width="14.74" height="5.83" rx="1.55" ry="1.55" style="fill: #4b4c4e;"/>
            <rect x="499.39" y="110.82" width="14.74" height="5.83" rx="1.55" ry="1.55" style="fill: #4b4c4e;"/>
            <rect x="519.12" y="110.82" width="14.74" height="5.83" rx="1.55" ry="1.55" style="fill: #4b4c4e;"/>
            <rect x="538.86" y="110.82" width="14.74" height="5.83" rx="1.55" ry="1.55" style="fill: #4b4c4e;"/>
            <rect x="558.59" y="110.82" width="14.74" height="5.83" rx="1.55" ry="1.55" style="fill: #4b4c4e;"/>
            <rect x="578.32" y="110.82" width="14.74" height="5.83" rx="1.55" ry="1.55" style="fill: #4b4c4e;"/>
          </g>
        </g>
        <path d="M526.47,74.45c.12.29.02.66-.09.98-1.25,3.54-2.18,7.19-2.8,10.89-.31,1.88-.54,3.77-.68,5.68-.05.7.17,1.73-.54,2.02-.67.27-2.15-.11-2.89-.15-.13,1.07-.25,2.14-.38,3.22-.04.31-.05.68.2.86.14.1.33.11.5.12,3.74.13,7.48.25,11.22.38.1-.39.73-4.03.54-4.07-.7-.13-1.4-.2-2.1-.3-.4-.06-1.41-.05-1.56-.44-.09-.23.13-.85.18-1.1.06-.34.12-.67.18-1,.12-.64.23-1.28.34-1.93.24-1.53.5-3.06.77-4.58.54-3.05,1.13-6.09,1.78-9.12.39-1.82.79-3.63,1.22-5.44.44-1.88-1.86-1.65-3.22-1.88-1.77-.31-3.55-.58-5.33-.82-.47,1.8-.94,3.61-1.4,5.41,1.14.29,2.28.58,3.41.87.18.05.36.09.49.22.06.06.1.12.13.19Z" style="fill: #ff6d04; stroke: #2e3138; stroke-miterlimit: 10; stroke-width: 1.69px;"/>
      </g>
      <line x1="460.77" y1="123.44" x2="473.28" y2="136.94" style="fill: none; stroke: #2e3138; stroke-linecap: round; stroke-miterlimit: 10;"/>
      <line x1="480.5" y1="123.44" x2="493.02" y2="136.94" style="fill: none; stroke: #2e3138; stroke-linecap: round; stroke-miterlimit: 10;"/>
      <line x1="500.23" y1="123.44" x2="512.75" y2="136.94" style="fill: none; stroke: #2e3138; stroke-linecap: round; stroke-miterlimit: 10;"/>
      <line x1="519.97" y1="123.44" x2="532.48" y2="136.94" style="fill: none; stroke: #2e3138; stroke-linecap: round; stroke-miterlimit: 10;"/>
      <line x1="539.7" y1="123.44" x2="552.22" y2="136.94" style="fill: none; stroke: #2e3138; stroke-linecap: round; stroke-miterlimit: 10;"/>
      <line x1="559.44" y1="123.44" x2="571.95" y2="136.94" style="fill: none; stroke: #2e3138; stroke-linecap: round; stroke-miterlimit: 10;"/>
      <line x1="579.17" y1="123.44" x2="591.68" y2="136.94" style="fill: none; stroke: #2e3138; stroke-linecap: round; stroke-miterlimit: 10;"/>
      <line x1="460.77" y1="144.44" x2="473.28" y2="157.94" style="fill: none; stroke: #2e3138; stroke-linecap: round; stroke-miterlimit: 10;"/>
      <line x1="480.5" y1="144.44" x2="493.02" y2="157.94" style="fill: none; stroke: #2e3138; stroke-linecap: round; stroke-miterlimit: 10;"/>
      <line x1="500.23" y1="144.44" x2="512.75" y2="157.94" style="fill: none; stroke: #2e3138; stroke-linecap: round; stroke-miterlimit: 10;"/>
      <line x1="519.97" y1="144.44" x2="532.48" y2="157.94" style="fill: none; stroke: #2e3138; stroke-linecap: round; stroke-miterlimit: 10;"/>
      <line x1="539.7" y1="144.44" x2="552.22" y2="157.94" style="fill: none; stroke: #2e3138; stroke-linecap: round; stroke-miterlimit: 10;"/>
      <line x1="559.44" y1="144.44" x2="571.95" y2="157.94" style="fill: none; stroke: #2e3138; stroke-linecap: round; stroke-miterlimit: 10;"/>
      <line x1="579.17" y1="144.44" x2="591.68" y2="157.94" style="fill: none; stroke: #2e3138; stroke-linecap: round; stroke-miterlimit: 10;"/>
      <line x1="456.77" y1="165.44" x2="469.28" y2="178.94" style="fill: none; stroke: #2e3138; stroke-linecap: round; stroke-miterlimit: 10;"/>
      <line x1="476.5" y1="165.44" x2="489.02" y2="178.94" style="fill: none; stroke: #2e3138; stroke-linecap: round; stroke-miterlimit: 10;"/>
      <line x1="496.23" y1="165.44" x2="508.75" y2="178.94" style="fill: none; stroke: #2e3138; stroke-linecap: round; stroke-miterlimit: 10;"/>
      <line x1="515.97" y1="165.44" x2="528.48" y2="178.94" style="fill: none; stroke: #2e3138; stroke-linecap: round; stroke-miterlimit: 10;"/>
    </g>
  </g>
</svg>