<?xml version="1.0" encoding="UTF-8"?>
<svg xmlns="http://www.w3.org/2000/svg" viewBox="0 0 240.4 412.87">
  <g style="isolation: isolate;">
    <g id="_圖層_2" data-name="圖層 2">
      <g id="_圖層_1-2" data-name="圖層 1">
        <g>
          <ellipse cx="54.98" cy="379.1" rx="54.98" ry="19.08" style="fill: #e6e6e7; mix-blend-mode: multiply;"/>
          <ellipse cx="176.72" cy="388.5" rx="62.74" ry="24.37" style="fill: #e6e6e7; mix-blend-mode: multiply;"/>
          <g>
            <path d="M75.93,40.32c.32.31.65.62.97.93,1.49,1.47,2.87,3.04,4.13,4.7.81,1.06,1.66,2.23,2.93,2.62,1.64.49,3.53-.46,5.07.28,1.2.58,1.75,2.06,1.65,3.38s-.73,2.55-1.34,3.74c-.23.45-.46.89-.69,1.34-.34.66-.69,1.33-1.24,1.83-1.29,1.17-3.24,1.06-4.97.89-.8-.08-1.68-.21-2.18-.84-.39.63-.58,1.35-.77,2.06-1.15,4.29-2.5,8.52-4.02,12.69l.41-.8c-.62.09-.88.84-.95,1.46-.14,1.23-.5,2.36-.59,3.62-.03.49-.38,4.89-.06,5.01,3.7,1.35,7.33,2.91,10.86,4.68-1.66,1.71-3.35,3.43-5.37,4.68-1.83,1.14-3.89,1.85-5.97,2.43-7.37,2.03-15.22,2.29-22.71.75-2.91-.6-5.82-1.49-8.24-3.22-2.42-1.73-4.29-4.41-4.47-7.38,2.31-.47,4.62-.94,6.94-1.4.41-.08.87-.2,1.08-.56.15-.26.13-.59.1-.9-.37-4-.74-8-1.11-12.01-4.07-1.32-8.32-3.8-10.83-7.25-2.05-2.82-2.98-6.27-3.87-9.64-.55-2.09-1.11-4.19-1.66-6.28-1.43-5.4.32-10.93,1.02-16.47,1.43-.31,2.7-.8,4.03-1.35,1.25-.52,2.8-.28,4.15-.4,3.3-.3,6.55-1.13,9.58-2.47,4.67-2.06,8.73-5.23,12.83-8.27.13-.09.27-.19.43-.2.32,0,.5.36.61.67,1.48,4.4,3.65,8.57,6.46,12.27,1.28,1.68,3.1,3.16,4.08,4.99.92,1.71,2.31,3.06,3.71,4.4Z" style="fill: #fff;"/>
            <path d="M20,134.59c-3.47-2.02-7.19-4.1-11.2-3.9-.43.02-.89.08-1.2.38-.32.3-.4.78-.46,1.22-.15,1.08-.31,2.19-.07,3.26.24,1.07.96,2.1,2.02,2.38.65.18,1.34.05,2.01.04,2.6-.06,4.94,1.44,7.19,2.76,2.24,1.32,4.85,2.54,7.36,1.85.2-.06.41-.13.55-.29.14-.17.18-.4.21-.62.2-1.67.38-3.13-1.14-4.01-1.76-1.01-3.52-2.05-5.27-3.07Z" style="fill: #8bc2dd;"/>
            <path d="M96.44,134.55c3.12-1.19,6.31-2.21,9.54-3.05,1.43-.37,2.88-.71,4.35-.71.18,0,.38.01.51.14.13.13.14.33.14.51.03,1.92,0,3.83-.11,5.74,0,.13-.02.26-.08.37-.1.17-.31.23-.5.28-4.97,1.24-10.12.92-15.01,2.65-2.05.73-4.12,1.74-6.33,1.79-1.31.03-1.33-.28-1.32-1.48,0-.65,0-1.35.1-2,.2-1.27.27-1.76,1.5-1.98,2.52-.45,4.84-1.37,7.22-2.27Z" style="fill: #8bc2dd;"/>
            <path d="M84.32,89.89c-.04.06-.08.11-.12.17-3.49,4.72-8.1,8.9-13.73,10.73-6.15,2-12.7,2.77-19.15,2.19-3.33-.3-6.66-.96-9.74-2.41-.88-.42-1.74-.9-2.58-1.42-3.76-2.37-7.04-5.7-9.54-9.68,2.21-1.65,4.7-2.81,7.28-3.43,2.6,3.28,5.35,6.68,9,8.22,1.42.6,2.93.88,4.43,1.14,4.96.84,10.03,1.33,14.98.37,2.81-.54,5.57-1.59,8.05-3.21,1.23-.8,2.39-1.75,3.43-2.84,1.04-1.09,1.78-2.48,2.56-3.76.08-.14.18-.28.33-.35.16-.07.35-.02.51.03,1.07.32,2.13.66,3.18,1.04.67.24,1.42.58,1.65,1.25.23.67-.13,1.37-.55,1.96Z" style="fill: #8bc2dd;"/>
            <path d="M80.34,59.83c-1.76,3.49-3.13,7.16-4.49,10.82-.86,2.3-.73,5.13-1.12,7.55,2.78.79,4.75.43,7.59-.07.72-.13,1.45-.3,2.08-.69.66-.41,1.15-1.03,1.77-1.49,2.14-1.6,5.2-.98,7.72-1.9,2.06-.75,3.61-2.47,4.85-4.27,1.24-1.8,2.28-3.77,3.77-5.37,3.59-3.86,7.67-7.08,6.98-12.97-.13-1.1-.43-2.19-1.04-3.11-.95-1.41-2.51-2.25-3.89-3.24-1.69-1.22-3.67-2.97-4.53-4.92-.88-1.98-.78-4.04-.98-6.14-.12-1.25-.47-2.46-.81-3.67-.73-2.55-1.47-5.12-2.68-7.49-1.32-2.57-3.16-4.83-4.99-7.06-2.14-2.61-4.34-5.28-7.25-6.97-3.04-1.77-6.62-2.33-10.1-2.87-3.21-.49-6.33-.36-9.44-1.31-1.36-.41-2.66-1.01-4-1.46-6.93-2.31-15.11-.21-20.07,5.15-1.4,1.52-2.56,3.26-4,4.74-2.18,2.24-4.98,3.84-7.02,6.22-.67.78-1.25,1.65-1.97,2.38-.62.63-1.33,1.16-2.07,1.63-1.9,1.22-4.03,2.09-6.24,2.56-4.61.98-6.86,7.6-5.97,12.23.66,3.42,3.12,6.18,5.55,8.68.34.35.7.72,1.16.9-.08-.27-.11-.55-.1-.82-.89,3.55-1.13,7.25-.71,10.88.12,1.02.29,2.04.7,2.98.7,1.6,2.03,2.84,3.38,3.95,2.03,1.66,4.44,3.23,7.05,2.98.55,1.95,2.16,3.48,3.98,4.36,1.83.89,3.86,1.22,5.87,1.5,1.48.2,3.33.19,4.03-1.12.57-1.05,0-2.4-.9-3.2-.89-.8-2.04-1.22-3.06-1.85-1.89-1.17-3.28-3.01-4.24-5.01-.96-2-1.51-4.17-2.03-6.33-.63-2.65-1.2-5.33-1.28-8.05-.05-1.82.12-3.64.51-5.41.88-4.02,1.3-7.67,2.51-11.6.15-.5.32-1.02.68-1.41.45-.49,1.13-.69,1.78-.87,2.43-.66,4.88-1.26,7.28-2,6.11-1.88,12-4.76,16.68-9.1.58,2.58,2,4.89,3.43,7.11,4.46,6.95,9.2,13.72,14.19,20.29,1.28,1.68,2.81,3.48,4.91,3.68,1.42.13,2.88-.51,4.24-.12,1.29.37,2.18,1.63,2.42,2.95s-.07,2.68-.53,3.93c-.74,1.99-1.97,3.9-3.84,4.91-1.87,1-4.41,1.13-5.78-.5Z" style="fill: #4b4c4e;"/>
            <path d="M94.13,91.25c.7.16,1.41.04,2.13.3,2.67.96,5.02,3.81,6.43,6.18,1.89,3.17,2.81,6.8,3.7,10.38l2.91,11.64c.5,2,1.02,3.99,1.5,5.99.25,1.04.2,2.07.07,3.12-.2,1.64-.15,1.7-1.62,2.02-2.34.52-4.76.65-7.11,1.18-4.79,1.1-9.44,2.77-13.82,5-.59,5.59-1.33,11.2-1.49,16.79-.18,6.05.56,11.53,1.35,17.53.46,3.52.65,7.06.83,10.6.22,4.24.44,8.49.66,12.73.19,3.64,1.09,7.14,1.31,10.84.22,3.78.98,7.51,1.72,11.21,1.81,9.02.77,18.05.95,27.25.15,7.89-.37,15.92-.79,23.8-.3,5.64-.59,11.28-.74,16.92-.07,2.85-.11,5.7-.09,8.55.01,1.38.24,2.91.08,4.28-.12,1.01-.66,1.95-.75,3.03-.11,1.47.03,3.04-.63,4.41-.09.18-.19.36-.35.49-.17.13-.39.19-.61.23-.73.14-1.42.08-2.15.07-20.35-.28-40.74-.97-61.03.65-.41.03-.86.06-1.2-.18-.31-.21-.58-.57-.58-.95,0-2.54-.26-5.74-.83-9.73-.97-6.77-2.31-15.57-2.15-22.4.19-8.27-2.1-16.46-1.84-24.73.33-10.53.28-21.07.92-31.59.34-5.59.85-11.17,1.68-16.71.42-2.79.95-5.55,1.49-8.32.43-2.24,1.66-4.96,1.66-7.22.21-.88.43-1.76.64-2.64.66-2.7,1.29-5.43,2.13-8.08.68-2.16,2.06-4.62,1.88-6.93-.16-2.16-1.33-4.6-1.93-6.68-1.32-4.51-2.63-9.03-3.95-13.54-.92-3.15-1.39-7.63-3.04-10.45-1.14-1.95-4.6-3.82-6.81-4.48-2.37-.7-4.74-1.2-7.24-1.1,1.52-9.59,3.4-18.32,6.52-27.51.78-2.3,1.68-4.63,3.29-6.44,1.2-1.35,2.74-2.36,4.26-3.35,1.76-1.15,3.52-2.29,5.28-3.44.31-.2.66-.42,1.04-.38.36.04.65.31.92.56,2.74,2.66,5.58,5.23,8.53,7.66,2.7,2.22,7.12,2.73,10.46,3.63,2.81.75,5.65,1.47,8.54,1.8,2.87.33,6.42.83,9.19-.03,3.11-.96,5.89-2.75,8.6-4.5,1.09-.71,2.19-1.41,3.28-2.12,1.39-.9,3.16-1.67,4.4-2.73,1.08-.93,1.83-2.19,2.59-3.37.58-.89,1.08-2.43,2.3-2.23,1.63.27,3.15.97,4.65,1.66.88.41,1.86,1.06,2.79,1.3.02,0,.05.01.07.02Z" style="fill: #1f89bd;"/>
            <path d="M221.47,209.03c-14.07,6.92-30.32,7.4-45.99,7.63-7.1.1-14.23.17-21.3-.63-3.56-.4-7.09-1.02-10.55-1.97-2.17-.6-6.39-3.93-6.79-.15-.08.74.12,1.46.57,2.05-1.55.64-16.33,1.55-16.31,1.93-.37-8.22-1.02-16.43-1.94-24.61-.69-6.09-2.32-12.75-1.88-18.9.56-7.96,1.22-15.91,1.9-23.86.71-8.23,1.44-16.46,2.24-24.68.3-3.17.62-6.34.95-9.5.55-5.17,2.35-10.28,5.09-14.7.13-.21.26-.42.4-.63.5-.76,1.02-1.51,1.65-2.16.9-.94,1.99-1.67,3.12-2.31,5.12-2.91,11.03-4.04,16.82-5.11,2.57-.48,5.14-.96,7.71-1.44.7-.13,1.43-.26,2.13-.12.7.14,1.38.63,1.53,1.33.25,1.16-2.02,2.47-2.84,3,3.02,1.24,6.09,2.38,9.19,3.43,2.89.97,5.68,2.2,8.73,1.98,4.1-.3,8.17-.96,12.16-1.95,1.93-.48,4.08-.91,5.9-1.74,1.32-.6,3.17-1.06,4.22-2.07.62-.6.88-1.7.97-2.5,4.71.05,9.37,1.22,13.77,2.83,2.25.83,4.46,1.79,6.61,2.85,2.09,1.03,4.34,1.6,6.53,2.39.54.19,1.09.4,1.54.76.57.46.92,1.12,1.33,1.73,1.48,2.19,3.71,3.64,5.09,5.89,1.35,2.2,2.1,4.71,2.76,7.18.7,2.61,1.34,5.23,1.66,7.91.24,2.01.3,4.04.36,6.07.17,6.14.35,12.28.52,18.43.08,2.87.1,5.98-1.56,8.32-.51.72-1.52,1.4-1.82,2.23-.25.7-.04,1.74-.08,2.48-.12,2.43-.3,4.86-.52,7.29-.46,4.88-1.82,10.65-6.44,12.3-1.84.66-5.09.33-6.55,1.74-.84.8-.41,2.5-.39,3.65.03,1.51.06,3.03.08,4.54.11,6.15.23,12.29.34,18.44" style="fill: #1f89bd;"/>
            <path d="M190.76,149.86c.06.46.14.95.43,1.31.39.48,1.05.62,1.67.71,2.49.36,5.02.38,7.54.4,1.74.01,3.48.02,5.22.03.59,0,1.25-.02,1.68-.42.43-.41.49-1.06.52-1.65.26-5.55.26-11.12,0-16.67-4.86-.75-9.8-1-14.71-.74-1.54.08-2.03.28-2.2,1.73-.19,1.69-.41,3.37-.51,5.06-.2,3.41-.08,6.85.37,10.23Z" style="fill: #ffad0f;"/>
            <path d="M51.43,372.25c-1.41,2.81-3.34,5.36-5.64,7.49-.4.37-.82.73-1.19,1.14-.67.74-1.18,1.62-1.85,2.37-1.58,1.78-3.89,2.72-6.19,3.33-.93.24-1.87.45-2.83.48-2.04.07-4.03-.62-5.93-1.37-.2-.08-.42-.16-.63-.13s-.42.24-.36.45c.03.11.11.19.2.27,1.71,1.52,4.16,1.78,6.44,1.97,2.35.2,4.82.38,6.99-.56.62-.27,1.2-.63,1.78-.99.91-.56,1.82-1.12,2.73-1.69.83-.51,4.48-4.96,5.44-6.65.78-1.38,1.73-2.66,2.4-4.09.47-1,1.2-2.9.71-4.01-.61-1.36-1.75,1.38-2.05,1.98Z" style="fill: #ff6d04;"/>
            <path d="M80.32,385.82c-1.64-.08-3.37-.25-4.72-1.18-.9-.62-1.57-1.53-2.46-2.15-.81-.56-1.78-.87-2.55-1.48-.81-.65-1.33-1.58-1.87-2.46-1.78-2.92-3.98-5.54-6.18-8.16-.56.47-.27,1.37.06,2.02,2.34,4.58,5.07,9,8.53,12.81.45.49.91.98,1.45,1.37.84.61,1.83.97,2.81,1.29,2.16.7,4.41,1.21,6.68,1.08,2.26-.13,4.56-.98,6.08-2.66.44-.49.81-1.04,1.33-1.46-3,.98-6.02,1.14-9.16.98Z" style="fill: #ff6d04;"/>
            <path d="M77.17,360.2c.82,1.95,1.65,3.91,2.47,5.86,1.08,2.55,2.29,5.26,4.66,6.69-1.62.19-3.2.67-4.65,1.42-.65.33-1.35.73-2.06.57-.37-.09-.69-.33-1-.56-4.55-3.52-8.56-7.75-11.84-12.48-.39-.56-.77-1.13-.97-1.78-.13-.43-.18-.89-.23-1.34-.6-5.61-1.2-11.21-1.8-16.82-.36-3.32-.16-6.79-.24-10.13-.05-2.31-.54-4.66-.65-6.99-.13-2.65-.25-5.3-.38-7.95-.17-3.47-.33-6.95.01-10.4,6.7.23,13.42.21,20.12-.05-1.07,13.18-2.14,26.37-2.59,39.59-.09,2.56-.57,5.13-.82,7.67-.13,1.28-.07,2.57-.02,3.86.04.88-.35,2.01-.01,2.82Z" style="fill: #fff;"/>
            <path d="M54.38,306.79c-.37,9.18-.75,18.36-1.12,27.54-.09,2.14-.02,4.32-.19,6.46-.16,2.03-.33,4.06-.53,6.1-.29,2.94-.09,5.91-.39,8.85-.07.65-.16,1.3-.15,1.96.02.7.28,1.25.05,1.93-.41,1.19-1.02,2.29-1.74,3.31-1.49,2.11-3.4,3.87-5.22,5.68-.75.75-1.55,1.47-2.17,2.33-.4.56-.74,1.17-1.26,1.63-.5.45-1.14.7-1.77.95l-2.04.82c-.14.06-.29.12-.44.12-.21,0-.41-.09-.61-.19-1.74-.85-3.59-1.49-5.48-1.92,1.28-2.04,2.57-4.08,3.85-6.12.58-.91,1.16-1.84,1.51-2.86.33-.96.46-1.99.54-3,.38-4.48.07-8.99-.24-13.47-.33-4.86-.67-9.72-1-14.58-.28-4.04-.18-8.1-.55-12.14-.07-.77-.16-1.54-.2-2.32-.06-1.01-.05-2.01-.05-3.02.02-2.61.04-5.21.06-7.82,1.13-.73,3.15-.35,4.43-.35,1.64,0,3.27.03,4.91.06,3.26.05,6.53.11,9.8.05Z" style="fill: #fff;"/>
            <path d="M45.55,368.77c-1.41,1.34-2.82,2.69-4.28,3.97-.92.81-1.93,1.62-3.13,1.81-1.5.24-2.94-.51-4.35-1.07-1.41-.56-3.13-.9-4.34.02-.42.32-.73.77-1.03,1.2l-4.08,5.97c-.15.22-.3.45-.31.71-.01.25.11.49.25.71.96,1.54,2.6,2.57,4.33,3.1s3.57.62,5.39.62c1.96,0,3.97-.09,5.77-.88,2.28-1,3.95-2.99,5.54-4.92.7-.85,1.4-1.7,2.1-2.55,1.95-2.37,3.91-4.75,5.51-7.37,1.08-1.77,2.02-3.78,1.79-5.84-.14-1.23-.73-2.4-1.62-3.27-.2-.19-.43-.45-.69-.58-.51-.25-.36-.29-.66.13-.36.5-.5,1.29-.8,1.84-1.33,2.47-3.39,4.46-5.39,6.37Z" style="fill: #fff9cb;"/>
            <path d="M67.46,366c.62.68,1.3,1.3,1.94,1.95,2.38,2.42,4.36,5.46,7.49,6.77.22.09.44.17.68.15.24-.02.45-.15.65-.28.44-.28.88-.55,1.32-.83.76-.48,1.56-.97,2.45-1.04,1.06-.09,2.07.42,3.02.91,1.02.53,2.06,1.08,2.86,1.9,1.05,1.07,1.61,2.51,2.14,3.91.41,1.06.82,2.22.52,3.32-.47,1.74-2.46,2.57-4.24,2.85-2.49.39-5.06.2-7.52-.35-1.69-.38-3.36-.93-4.86-1.8-2.26-1.31-4.04-3.29-5.69-5.31-1.14-1.39-2.24-2.82-3.34-4.25-1-1.3-2.01-2.61-2.65-4.11-.94-2.21-1.03-4.68-.96-7.08.05-1.67,1.38-4.18,2.82-1.9,1.12,1.77,1.94,3.62,3.37,5.19Z" style="fill: #fff9cb;"/>
            <path d="M74.99,77.77c2.05,2.38,8.02,1.5,10.14-1.01,2.11-2.51,5.11-1.86,6.48-1.78,7.09.39,10.86-11.16,10.86-11.16,5.78-3.43,6.72-5.65,7.51-11.27s-6.32-7.82-6.32-7.82c-6.74-4.46-3.21-8.44-5.44-14.82C88.23,1.46,65.83,5.45,65.83,5.45c0,0-14.98-9.94-27.59,4.36-12.6,14.3-15,15.08-17.43,15.57-2.43.49-12.78,5.11-6.49,18.05,0,0,2.1,2.66,4.79,4.57,0,0-4.9,17.64,9.73,19.5,0,0,1.88,5.6,10.52,6.08" style="fill: none; stroke: #2e3138; stroke-linecap: round; stroke-miterlimit: 10; stroke-width: 2.47px;"/>
            <path d="M33.71,28.82c14.83-.9,27.43-11.53,27.43-11.53,0,0,9.25,20.88,23.86,32.26" style="fill: none; stroke: #2e3138; stroke-linecap: round; stroke-miterlimit: 10; stroke-width: 2.47px;"/>
            <path d="M84.63,49.03c.86-.26,1.77-.37,2.67-.32,1.01.06,2.09.36,2.71,1.17.38.49.54,1.12.62,1.74.41,3.14-1.14,6.45-3.82,8.13-1.04.66-2.26,1.08-3.49,1.06-1.23-.02-2.48-.52-3.28-1.45" style="fill: none; stroke: #2e3138; stroke-linecap: round; stroke-miterlimit: 10; stroke-width: 2.47px;"/>
            <path d="M35.15,29.16s-13.23,39.77,15.04,41.85" style="fill: none; stroke: #2e3138; stroke-linecap: round; stroke-miterlimit: 10; stroke-width: 2.47px;"/>
            <path d="M80.04,59.36s-6.47,19.48-5.53,24.32" style="fill: none; stroke: #2e3138; stroke-linecap: round; stroke-miterlimit: 10; stroke-width: 2.47px;"/>
            <path d="M76.66,15.35c2.27,1.89,3.87,4.55,4.47,7.44.46,2.2.4,4.63,1.73,6.43" style="fill: none; stroke: #2e3138; stroke-linecap: round; stroke-miterlimit: 10; stroke-width: 2.47px;"/>
            <path d="M82.2,34.65c.49,1.03.98,2.07,1.47,3.1.7,1.47,1.58,3.1,3.15,3.51" style="fill: none; stroke: #2e3138; stroke-linecap: round; stroke-miterlimit: 10; stroke-width: 2.47px;"/>
            <path d="M91.2,30.21c1.26,1.36,1.89,3.29,1.68,5.13-.17,1.48-.85,2.95-.5,4.4.3,1.29,1.35,2.25,2.34,3.12" style="fill: none; stroke: #2e3138; stroke-linecap: round; stroke-miterlimit: 10; stroke-width: 2.47px;"/>
            <path d="M99.61,48.57c.42,1.21.85,2.44.96,3.72.11,1.28-.14,2.64-.94,3.64" style="fill: none; stroke: #2e3138; stroke-linecap: round; stroke-miterlimit: 10; stroke-width: 2.47px;"/>
            <path d="M94.08,64.77c-.49.92-.98,1.83-1.47,2.75-.44.82-.89,1.65-1.56,2.28-.68.63-1.63,1.05-2.53.85" style="fill: none; stroke: #2e3138; stroke-linecap: round; stroke-miterlimit: 10; stroke-width: 2.47px;"/>
            <path d="M24.84,53.45c-1.96,1.93-2.32,5.28-.82,7.59" style="fill: none; stroke: #2e3138; stroke-linecap: round; stroke-miterlimit: 10; stroke-width: 2.47px;"/>
            <path d="M25.05,31c-3.02,2.75-4.33,7.25-3.24,11.18" style="fill: none; stroke: #2e3138; stroke-linecap: round; stroke-miterlimit: 10; stroke-width: 2.47px;"/>
            <path d="M57.39,10.93c-2.29-.18-4.82-.3-6.64,1.11-1.04.8-1.68,2-2.49,3.03-1.88,2.41-4.68,3.97-7.6,4.87-2.92.9-5.98,1.21-9.03,1.5" style="fill: none; stroke: #2e3138; stroke-linecap: round; stroke-miterlimit: 10; stroke-width: 2.47px;"/>
            <path d="M42.03,38.2c-.18,1.09.56,2.13,1.65,2.31,1.09.18,2.13-.56,2.31-1.65s-.56-2.13-1.65-2.31c-1.09-.18-2.13.56-2.31,1.65Z" style="fill: #2e3138;"/>
            <path d="M63.95,41.81c-.18,1.09.56,2.13,1.65,2.31s2.13-.56,2.31-1.65c.18-1.09-.56-2.13-1.65-2.31-1.09-.18-2.13.56-2.31,1.65Z" style="fill: #2e3138;"/>
            <path d="M61.28,25.54c-1.21,0-2.42-.21-3.56-.6" style="fill: none; stroke: #2e3138; stroke-linecap: round; stroke-miterlimit: 10; stroke-width: 2.47px;"/>
            <path d="M61.62,29.32c-1.84.01-3.68-.27-5.43-.84" style="fill: none; stroke: #2e3138; stroke-linecap: round; stroke-miterlimit: 10; stroke-width: 2.47px;"/>
            <path d="M54.83,41.09c-.8,1.59-1.82,3.07-3.03,4.38-.58.64-1.25,1.3-1.34,2.16-.09.79.33,1.56.91,2.1.84.79,2.17,1.16,3.17.58" style="fill: none; stroke: #2e3138; stroke-linecap: round; stroke-miterlimit: 10; stroke-width: 2.47px;"/>
            <path d="M55.56,58.9c-2.21,1.27-5.23.91-7.08-.84" style="fill: none; stroke: #2e3138; stroke-linecap: round; stroke-miterlimit: 10; stroke-width: 2.47px;"/>
            <path d="M52,63.02c-.97-.16-1.94-.32-2.91-.48" style="fill: none; stroke: #2e3138; stroke-linecap: round; stroke-miterlimit: 10; stroke-width: 2.47px;"/>
            <path d="M62.03,53.49c.46.76.63,1.69.47,2.56" style="fill: none; stroke: #2e3138; stroke-linecap: round; stroke-miterlimit: 10; stroke-width: 2.47px;"/>
            <path d="M45.68,51.01c-1.47-.19-3.02.63-3.7,1.95" style="fill: none; stroke: #2e3138; stroke-linecap: round; stroke-miterlimit: 10; stroke-width: 2.47px;"/>
            <line x1="45.14" y1="71.05" x2="46.21" y2="83.68" style="fill: none; stroke: #2e3138; stroke-linecap: round; stroke-miterlimit: 10; stroke-width: 2.47px;"/>
            <path d="M85.59,53.09c.19-.51.95-.64,1.37-.3s.53.98.36,1.5-.53.95-.92,1.34" style="fill: none; stroke: #2e3138; stroke-linecap: round; stroke-miterlimit: 10; stroke-width: 2.47px;"/>
            <path d="M74.99,83.58c3.38,1.1,6.68,2.46,9.86,4.05" style="fill: none; stroke: #2e3138; stroke-linecap: round; stroke-miterlimit: 10; stroke-width: 2.47px;"/>
            <path d="M79.33,85.6c-1.6,2.9-5.52,7.23-8.29,8.53-2.77,1.3-5.77,1.83-8.75,2.07-3.89.31-7.8.13-11.66-.54-2.8-.49-5.59-1.24-8.11-2.73-2.51-1.49-4.68-3.89-5.87-6.83,2.57-.82,4.99-1.76,7.54-2.48" style="fill: none; stroke: #2e3138; stroke-linecap: round; stroke-miterlimit: 10; stroke-width: 2.47px;"/>
            <path d="M85.05,87.83s15.86,3.92,18.54,11.08c2.3,6.15,7.1,27.31,8.08,36.06.18,1.65-1.12,3.09-2.79,3.08-3,0-7.71.3-11.37,1.98-5.81,2.68-9.82,2.7-9.82,2.7" style="fill: none; stroke: #2e3138; stroke-linecap: round; stroke-miterlimit: 10; stroke-width: 2.47px;"/>
            <line x1="88.73" y1="123.54" x2="87.68" y2="142.74" style="fill: none; stroke: #2e3138; stroke-linecap: round; stroke-miterlimit: 10; stroke-width: 2.47px;"/>
            <path d="M37.61,85.77s-9.52,2.6-18.88,8.97c-5.83,3.97-9.37,19.98-11.84,39.84-.16,1.28.24,3.34,1.53,3.21,1.77-.19,4.88.3,8.44,2.26,6.59,3.61,6.32,1.64,6.32,1.64" style="fill: none; stroke: #2e3138; stroke-linecap: round; stroke-miterlimit: 10; stroke-width: 2.47px;"/>
            <path d="M25.96,118.02c-1.89,7.77-3.8,15.75-2.77,23.67.27,2.13.76,4.22,1.28,6.3,1.09,4.34,2.35,8.65,3.77,12.9.84,2.51,3.11,6.1,2.04,8.57-.44,1.01-.86,2.03-1.24,3.07-1.72,4.67-2.96,9.52-3.98,14.38-1.8,8.55-2.88,17.25-3.57,25.96-1.03,13.07-1.15,26.21-.73,39.31.59,18.21,2.24,36.38,4.54,54.45l65.72-.77s5.62-58.65,1.65-90.11c-2.11-16.69-4.98-52.81-4.98-52.81" style="fill: none; stroke: #2e3138; stroke-linecap: round; stroke-miterlimit: 10; stroke-width: 2.47px;"/>
            <path d="M85.66,88.83s-11.68,16.15-28.41,14.35c-16.74-1.79-18.61-1.95-27.97-13.2" style="fill: none; stroke: #2e3138; stroke-linecap: round; stroke-miterlimit: 10; stroke-width: 2.47px;"/>
            <path d="M111.12,131.05s-10.21.7-15.57,3.5c-5.36,2.81-7.26,2.67-7.26,2.67" style="fill: none; stroke: #2e3138; stroke-linecap: round; stroke-miterlimit: 10; stroke-width: 2.47px;"/>
            <path d="M22.24,136.28s-1.4-.25-5.37-3.21c-3.97-2.96-9.51-1.99-9.51-1.99" style="fill: none; stroke: #2e3138; stroke-linecap: round; stroke-miterlimit: 10; stroke-width: 2.47px;"/>
            <line x1="80.1" y1="305.99" x2="77.4" y2="360.51" style="fill: none; stroke: #2e3138; stroke-linecap: round; stroke-miterlimit: 10; stroke-width: 2.47px;"/>
            <line x1="60.43" y1="306.63" x2="62.8" y2="359.42" style="fill: none; stroke: #2e3138; stroke-linecap: round; stroke-miterlimit: 10; stroke-width: 2.47px;"/>
            <line x1="54.67" y1="306.62" x2="52.06" y2="359.42" style="fill: none; stroke: #2e3138; stroke-linecap: round; stroke-miterlimit: 10; stroke-width: 2.47px;"/>
            <line x1="35" y1="307.26" x2="37.39" y2="360.51" style="fill: none; stroke: #2e3138; stroke-linecap: round; stroke-miterlimit: 10; stroke-width: 2.47px;"/>
            <path d="M77.77,361.33c1.28,6.55,7.05,11.05,11.48,16.04,1.15,1.3,2.3,2.93,1.93,4.62-.31,1.44-1.63,2.43-2.95,3.08-4.56,2.24-10.32,1.8-14.48-1.1-2.29-1.59-4.05-3.81-5.7-6.06-1.43-1.95-2.79-3.95-4.15-5.95-1.29-1.9-2.62-3.87-3.09-6.12-.48-2.25.09-4.88,1.97-6.21" style="fill: none; stroke: #2e3138; stroke-linecap: round; stroke-miterlimit: 10; stroke-width: 2.47px;"/>
            <path d="M84.27,372.81c-2.03.02-4.05.74-5.64,2.01-.25.2-.52.42-.84.4-.19-.02-.35-.12-.51-.22-5.87-3.73-10.7-9.09-13.79-15.32" style="fill: none; stroke: #2e3138; stroke-linecap: round; stroke-miterlimit: 10; stroke-width: 2.47px;"/>
            <path d="M90.88,383.41c-1.26,3.37-5,5.32-8.59,5.41s-8.41,0-13.89-6.28c-.91-1.04-1.57-2.28-2.36-3.42-2.76-4-5.64-8.42-5.26-13.26" style="fill: none; stroke: #2e3138; stroke-linecap: round; stroke-miterlimit: 10; stroke-width: 2.47px;"/>
            <path d="M37.55,361.36c-1.28,6.55-7.05,11.05-11.48,16.04-1.15,1.3-2.3,2.93-1.93,4.62.31,1.44,1.63,2.43,2.95,3.08,4.56,2.24,10.32,1.8,14.48-1.1,2.29-1.59,4.05-3.81,5.7-6.06,1.43-1.95,2.79-3.95,4.15-5.95,1.29-1.9,2.62-3.87,3.09-6.12.48-2.25-.09-4.88-1.97-6.21" style="fill: none; stroke: #2e3138; stroke-linecap: round; stroke-miterlimit: 10; stroke-width: 2.47px;"/>
            <path d="M31.05,372.84c2.03.02,4.05.74,5.64,2.01.25.2.52.42.84.4.19-.02.35-.12.51-.22,5.87-3.73,10.7-9.09,13.79-15.32" style="fill: none; stroke: #2e3138; stroke-linecap: round; stroke-miterlimit: 10; stroke-width: 2.47px;"/>
            <path d="M24.44,383.44c1.26,3.37,5,5.32,8.59,5.41,3.59.09,8.41,0,13.89-6.28.91-1.04,1.57-2.28,2.36-3.42,2.76-4,5.64-8.42,5.26-13.26" style="fill: none; stroke: #2e3138; stroke-linecap: round; stroke-miterlimit: 10; stroke-width: 2.47px;"/>
            <polygon points="137.11 213.05 139.53 362.76 140.35 364.02 162.99 364.18 164.46 362.76 172.32 296.62 176.5 269.22 179.46 290.5 188.31 351.21 190.68 363.2 192.34 365.22 216.02 364.13 221.17 249.5 222.81 213.93 222.59 207.78 205.5 213.93 197.57 215.53 179.96 216.71 163.56 216.27 150.39 215.2 141.23 214.03 138.1 211.87 137.11 213.05" style="fill: #fff;"/>
            <path d="M148.26,27.29c-.81,2.68-1.62,5.37-2.43,8.05-1.21,4.01-2.42,8.02-3.15,12.14-.43,2.44-.7,4.91-.96,7.38-.47,4.48-.91,9.07.17,13.44.27,1.11.65,2.19,1.17,3.21,1.53,2.96,4.27,5.16,7.27,6.61,3,1.46,6.27,2.25,9.51,3.02.25,2.9.71,5.64.96,8.54.1,1.09.08,2.42-.87,2.98-.55.32-1.45.55-1.3,1.16.05.19.21.34.37.46,4.36,3.58,10.15,5.12,15.8,5.08,1.22,0,2.44-.08,3.63-.35,1.26-.28,2.47-.76,3.7-1.17,5.48-1.83,11.46-2.17,16.62-4.77-.52-5.4-1.04-10.84-.67-16.25.19-2.75-.43-5.5.01-8.23,2.07-.72,3.74-1.43,5.58-2.62.97-.63,1.93-1.35,2.45-2.38.85-1.68.25-3.84-1.1-5.14-1.35-1.3-3.29-1.85-5.17-1.86-1.88-.01-3.72.44-5.54.9-.39.1-.79.19-1.19.13-.37-.06-.7-.26-1.01-.46-5.27-3.38-9.22-8.76-10.87-14.79-.71-2.58-1.02-5.28-1.93-7.79-1.01-2.76-2.77-5.46-2.33-8.37-2.54.87-5.09,1.74-7.63,2.61-1.67.57-3.35,1.14-5.1,1.41-1.8.27-3.63.2-5.43,0-3.69-.41-7.15-1.43-10.54-2.93Z" style="fill: #fff;"/>
            <path d="M130.34,395.93c3.67,1.48,7.77,1.38,11.72,1.24,2.31-.08,4.75-.2,6.65-1.52,1.02-.7,1.79-1.7,2.55-2.68,1.9-2.46,3.8-4.91,5.69-7.37,1.43-1.85,2.92-3.85,3.1-6.18-1.43-.19-2.66.95-3.62,2.01-1.92,2.12-3.74,4.34-5.44,6.64-.98,1.32-1.98,2.72-3.48,3.41-1.25.57-2.68.56-4.05.54-2.75-.04-5.49-.08-8.24-.12-2.05-.03-4.12-.06-6.09-.63-1.21-.35-5.95-3.75-4.62-.53.98,2.37,3.53,4.25,5.83,5.18Z" style="fill: #4b4c4e;"/>
            <path d="M134.79,371.25c-.46.67-.96,1.33-1.62,1.8-.75.53-1.65.77-2.48,1.16-2.34,1.09-3.99,3.32-4.9,5.73-.91,2.41-1.15,5.02-1.29,7.59-.02.44-.04.92.2,1.3.23.36.65.55,1.05.71,3.5,1.43,7.12,2.64,10.87,3.09,5.8.7,12.21-.74,16-5.18,1.12-1.32,1.98-2.84,3-4.24.83-1.13,1.76-2.18,2.62-3.28,3.27-4.18,5.47-9.18,6.36-14.41.04-.26.08-.54-.02-.79-.23-.55-.99-.59-1.59-.55-5.9.46-11.82.58-17.73.36-1.84-.07-5.36-1.06-6.77.3-1.54,1.48-2.44,4.6-3.7,6.41Z" style="fill: #9e9e9f;"/>
            <path d="M225.55,396.61c-3.67,1.48-7.77,1.38-11.72,1.24-1.82-.06-3.71-.13-5.41-.84-1.88-.78-3.27-1.67-4.57-3.17-2.04-2.35-3.79-5.57-5.54-8.14-.65-.96-1.26-1.94-1.87-2.93-.5-.8-1-1.62-1.19-2.55.87-.05,1.47-.19,2.29.24.75.4,1.37,1.03,1.93,1.65,1.92,2.12,3.74,4.34,5.44,6.64.98,1.32,1.98,2.72,3.48,3.41,1.25.57,2.68.56,4.05.54,2.75-.04,5.49-.08,8.24-.12,2.05-.03,4.12-.06,6.09-.63,1.21-.35,5.95-3.75,4.62-.53-.98,2.37-3.53,4.25-5.83,5.18Z" style="fill: #4b4c4e;"/>
            <path d="M220.53,372.3c.46.67.96,1.33,1.62,1.8.75.53,1.65.77,2.48,1.16,1.58.74,2.86,2.01,3.78,3.47.45.71.7,1.52,1.11,2.24.5.87,1.2,1.5,1.39,2.54.09.47.07.95.05,1.43-.05,1.2-.1,2.41-.15,3.61-.05,1.16-.11,1.57-1.24,2.03-3.5,1.43-7.12,2.64-10.87,3.09-5.8.7-12.21-.74-16-5.18-1.12-1.32-1.98-2.84-3-4.24-.83-1.13-1.76-2.18-2.62-3.28-3.27-4.18-5.47-9.18-6.36-14.41-.04-.26-.08-.54.02-.79.23-.55.99-.59,1.59-.55,5.9.46,11.82.58,17.73.36,1.84-.07,5.36-1.06,6.77.3,1.54,1.48,2.44,4.6,3.7,6.41Z" style="fill: #9e9e9f;"/>
            <path d="M158.33,5.96c-1.09-1.64-1.62-3.94-3.47-4.61-1.19-.43-2.53.02-3.6.71-1.45.94-2.6,2.32-3.27,3.9-2.04-1.33-4.77-1.54-7-.54-2.22,1.01-3.86,3.2-4.21,5.61-.55,3.9,2.05,7.5,4.68,10.43,3.39,3.78,7.42,6.01,12.32,7.36,3.87,1.06,7.95,1.35,11.93.81,3.81-.51,7.72-1.12,11.16-2.93,1.3,11.5,6.78,22.49,15.18,30.44.45.43.94.86,1.54.99.52.11,1.05-.02,1.57-.14,1.85-.45,3.69-.9,5.54-1.36.76-.19,1.56-.39,2.11-.94.48-.47.7-1.14.91-1.78,1.91-5.91,3.34-12.06,3.46-18.3.03-1.89-.05-3.79-.29-5.66-.21-1.67-.1-3.33-.42-5-.63-3.36-2.1-6.54-4.18-9.25-.63-.82-1.33-1.61-2.13-2.27-.53-.44-1.11-.82-1.68-1.2-3.18-2.11-6.21-4.19-10.01-4.98-2.48-.51-5.03-.54-7.56-.43-4.55.19-9.07.79-13.56,1.55-3.49.59-6.75,1.01-9.04-2.42Z" style="fill: #4b4c4e;"/>
            <path d="M153.06,47.67c0,1.28-1.04,2.31-2.31,2.31s-2.31-1.04-2.31-2.31,1.04-2.31,2.31-2.31,2.31,1.04,2.31,2.31Z" style="fill: #2e3138;"/>
            <circle cx="171.45" cy="50.15" r="2.31" style="fill: #2e3138;"/>
            <path d="M194.19,58.62c-5.65-2.92-9.66-8.38-12.08-14.26-2.42-5.88-3.43-12.23-4.42-18.51-8.81,5.06-20.08,5.55-29.29,1.28-5.9-2.73-11.29-8.09-11.32-14.6-.02-2.83,1.16-5.82,3.58-7.3,2.42-1.48,6.09-.87,7.39,1.64.22-1.99,1.11-4.03,2.83-5.07,1.72-1.04,4.31-.68,5.28,1.08.38.69.48,1.49.75,2.22.93,2.55,3.78,3.99,6.49,4.09,2.71.1,5.34-.87,7.88-1.82,0,0,24.12-5.21,32.79,10.91,8.67,16.12-1.48,37.31-1.48,37.31" style="fill: none; stroke: #2e3138; stroke-linecap: round; stroke-miterlimit: 10; stroke-width: 2.47px;"/>
            <path d="M194.33,59.32c2.32-2.41,6.08-3.3,9.23-2.2,2.03.71,3.91,2.52,3.77,4.66-.1,1.48-1.12,2.73-2.24,3.69-2.75,2.34-6.65,3.56-10.09,2.46" style="fill: none; stroke: #2e3138; stroke-linecap: round; stroke-miterlimit: 10; stroke-width: 2.47px;"/>
            <path d="M148.4,27.13s-23.44,53.94,12.42,53.82" style="fill: none; stroke: #2e3138; stroke-linecap: round; stroke-miterlimit: 10; stroke-width: 2.47px;"/>
            <line x1="197.4" y1="69.36" x2="198.29" y2="92.22" style="fill: none; stroke: #2e3138; stroke-linecap: round; stroke-miterlimit: 10; stroke-width: 2.47px;"/>
            <path d="M159.69,81.25c.5,3.89.99,7.78,1.49,11.66" style="fill: none; stroke: #2e3138; stroke-linecap: round; stroke-miterlimit: 10; stroke-width: 2.47px;"/>
            <path d="M159.76,44.57c-.28,2.55-1.23,5.03-2.73,7.12-.47.65-1.01,1.31-1.12,2.1-.07.48.03.98.21,1.43.78,1.91,3.26,2.91,5.14,2.07" style="fill: none; stroke: #2e3138; stroke-linecap: round; stroke-miterlimit: 10; stroke-width: 2.47px;"/>
            <path d="M167.44,43.53c2.83.02,5.66.87,8.03,2.42" style="fill: none; stroke: #2e3138; stroke-linecap: round; stroke-miterlimit: 10; stroke-width: 2.47px;"/>
            <path d="M155.66,42.41c-2.78-.73-5.77-.67-8.52.17" style="fill: none; stroke: #2e3138; stroke-linecap: round; stroke-miterlimit: 10; stroke-width: 2.47px;"/>
            <path d="M153.48,65.54c2.52,1.39,5.56,1.81,8.36,1.14" style="fill: none; stroke: #2e3138; stroke-linecap: round; stroke-miterlimit: 10; stroke-width: 2.47px;"/>
            <path d="M155.79,69.99c.84.12,1.67.25,2.51.37" style="fill: none; stroke: #2e3138; stroke-linecap: round; stroke-miterlimit: 10; stroke-width: 2.47px;"/>
            <path d="M164.98,64.37c.93.46,1.49,1.58,1.29,2.61" style="fill: none; stroke: #2e3138; stroke-linecap: round; stroke-miterlimit: 10; stroke-width: 2.47px;"/>
            <path d="M149.3,62.83c-.3.17-.6.33-.9.5-.01.38-.03.75-.04,1.12" style="fill: none; stroke: #2e3138; stroke-linecap: round; stroke-miterlimit: 10; stroke-width: 2.47px;"/>
            <path d="M160.78,92.65c-1.07.06-4.1.77-2.8,1.41,4.01,2.36,14.53,5.85,15.41,5.8.85-.05,17.64-3.12,24.81-5.8.58-.22,1.22-.52,1.42-1.1.2-.59-.47-1.37-.98-1.01" style="fill: none; stroke: #2e3138; stroke-linecap: round; stroke-miterlimit: 10; stroke-width: 2.47px;"/>
            <path d="M198.69,61.22c.32-.47.95-.57,1.52-.62.13-.01.26-.03.39,0,.25.06.44.27.56.5.36.69.14,1.63-.48,2.1" style="fill: none; stroke: #2e3138; stroke-linecap: round; stroke-miterlimit: 10; stroke-width: 2.47px;"/>
            <path d="M153.49,12.44c2.81,2.27,6.32,3.67,9.92,3.95" style="fill: none; stroke: #2e3138; stroke-linecap: round; stroke-miterlimit: 10; stroke-width: 2.47px;"/>
            <path d="M143.33,13.05c.19,2.94,1.68,5.78,4,7.6" style="fill: none; stroke: #2e3138; stroke-linecap: round; stroke-miterlimit: 10; stroke-width: 2.47px;"/>
            <path d="M188.87,31.17c.39,2.79,1.72,5.44,3.73,7.41" style="fill: none; stroke: #2e3138; stroke-linecap: round; stroke-miterlimit: 10; stroke-width: 2.47px;"/>
            <path d="M201.6,35.74c.57.37.62,1.17.6,1.85-.03,1.5-.09,3.01-.45,4.47-.45,1.81-1.38,3.52-1.4,5.39" style="fill: none; stroke: #2e3138; stroke-linecap: round; stroke-miterlimit: 10; stroke-width: 2.47px;"/>
            <path d="M135.67,122.8c-4.14,23.33-1.09,64.92,1.41,88.49,10.57,6.3,23.03,3.35,35.24,4.83,14.86,1.79,33.6-.83,50.27-8.34" style="fill: none; stroke: #2e3138; stroke-linecap: round; stroke-miterlimit: 10; stroke-width: 2.47px;"/>
            <path d="M208.1,133.6c.11,5.94.13,11.88.06,17.83,0,.27-.01.56-.18.76-.22.27-.62.29-.97.29h-14.61c-1.18-.01-2.13-.98-2.11-2.15l.27-17.16c5.85-.09,11.69.3,17.54.44Z" style="fill: none; stroke: #2e3138; stroke-linecap: round; stroke-miterlimit: 10; stroke-width: 2.47px;"/>
            <path d="M190.78,136.91c5.73.59,11.5.78,17.26.59" style="fill: none; stroke: #2e3138; stroke-linecap: round; stroke-miterlimit: 10; stroke-width: 2.47px;"/>
            <path d="M137.08,211.29s2.45,111.85,2.45,152.67c0,0,16.09,1.32,24.57,0l11.91-97.48" style="fill: none; stroke: #2e3138; stroke-linecap: round; stroke-miterlimit: 10; stroke-width: 2.47px;"/>
            <path d="M172.32,242.01c2.85,12.62,16.21,121.72,19.1,122.92h24.57l4.34-106.25c3.53-35.99,2.26-50.91,2.26-50.91,0-3.16.22-6.55-.87-25.9" style="fill: none; stroke: #2e3138; stroke-linecap: round; stroke-miterlimit: 10; stroke-width: 2.47px;"/>
            <path d="M164.1,363.96c1.47,8.86-3.29,12.93-5.07,15.44-1.31,1.85-2.62,3.71-3.94,5.56-1.11,1.57-2.32,3.42-3.76,4.71-1.2,1.07-2.72,2.02-4.28,2.47-.7.2-4.7.75-5.65.83-3.45.31-6.38.06-9.75-.83-1.53-.4-3.02-.98-4.41-1.73-1.18-.64-2.34-1.47-2.89-2.69-.49-1.09-.43-2.34-.26-3.51.42-2.85,1.52-5.64,3.38-7.83s4.54-3.76,7.41-4.03" style="fill: none; stroke: #2e3138; stroke-linecap: round; stroke-miterlimit: 10; stroke-width: 2.47px;"/>
            <path d="M133.24,372.26c2.62-2.93,3.49-5.54,6.29-8.31" style="fill: none; stroke: #2e3138; stroke-linecap: round; stroke-miterlimit: 10; stroke-width: 2.47px;"/>
            <path d="M124.2,383.55c-.76,2.63-1.9,7.59,2.94,10.99,2.24,1.58,5.08,2.02,7.81,2.24,2.23.18,4.47.21,6.71.11,2.01-.1,4.03-.19,5.91-.95,3.44-1.38,5.26-4.34,7.31-7.25,2.22-3.16,4.34-6.39,6.35-9.7,1.73-2.85,3.67-7.59,3.14-10.89" style="fill: none; stroke: #2e3138; stroke-linecap: round; stroke-miterlimit: 10; stroke-width: 2.47px;"/>
            <path d="M148.2,365.8c-2.29,2.24-4.17,4.9-5.5,7.82" style="fill: none; stroke: #2e3138; stroke-linecap: round; stroke-miterlimit: 10; stroke-width: 2.47px;"/>
            <path d="M143.78,366.98c2.06-.22,4.34-.38,6.02.84" style="fill: none; stroke: #2e3138; stroke-linecap: round; stroke-miterlimit: 10; stroke-width: 2.47px;"/>
            <path d="M141.79,369.08c2.07-.42,4.32.16,5.92,1.53" style="fill: none; stroke: #2e3138; stroke-linecap: round; stroke-miterlimit: 10; stroke-width: 2.47px;"/>
            <path d="M140.25,372.1c1.61-.12,3.24-.02,4.82.32.78.16,1.63.45,1.98,1.17" style="fill: none; stroke: #2e3138; stroke-linecap: round; stroke-miterlimit: 10; stroke-width: 2.47px;"/>
            <path d="M191.42,364.93c-1.47,8.86,3.29,12.93,5.07,15.44,1.31,1.85,2.62,3.71,3.94,5.56,1.11,1.57,2.32,3.42,3.76,4.71,1.2,1.07,2.72,2.02,4.28,2.47.7.2,4.7.75,5.65.83,3.45.31,6.38.06,9.75-.83,1.53-.4,3.02-.98,4.41-1.73,1.18-.64,2.34-1.47,2.89-2.69.49-1.09.43-2.34.26-3.51-.42-2.85-1.52-5.64-3.38-7.83s-4.54-3.76-7.41-4.03" style="fill: none; stroke: #2e3138; stroke-linecap: round; stroke-miterlimit: 10; stroke-width: 2.47px;"/>
            <path d="M222.28,373.24c-2.62-2.93-3.49-5.54-6.29-8.31" style="fill: none; stroke: #2e3138; stroke-linecap: round; stroke-miterlimit: 10; stroke-width: 2.47px;"/>
            <path d="M231.31,384.53c.76,2.63,1.9,7.59-2.94,10.99-2.24,1.58-5.08,2.02-7.81,2.24-2.23.18-4.47.21-6.71.11-2.01-.1-4.03-.19-5.91-.95-3.44-1.38-5.26-4.34-7.31-7.25-2.22-3.16-4.34-6.39-6.35-9.7-1.73-2.85-3.67-7.59-3.14-10.89" style="fill: none; stroke: #2e3138; stroke-linecap: round; stroke-miterlimit: 10; stroke-width: 2.47px;"/>
            <path d="M207.31,366.78c2.29,2.24,4.17,4.9,5.5,7.82" style="fill: none; stroke: #2e3138; stroke-linecap: round; stroke-miterlimit: 10; stroke-width: 2.47px;"/>
            <path d="M211.74,367.95c-2.06-.22-4.34-.38-6.02.84" style="fill: none; stroke: #2e3138; stroke-linecap: round; stroke-miterlimit: 10; stroke-width: 2.47px;"/>
            <path d="M213.72,370.05c-2.07-.42-4.32.16-5.92,1.53" style="fill: none; stroke: #2e3138; stroke-linecap: round; stroke-miterlimit: 10; stroke-width: 2.47px;"/>
            <path d="M215.26,373.08c-1.61-.12-3.24-.02-4.82.32-.78.16-1.63.45-1.98,1.17" style="fill: none; stroke: #2e3138; stroke-linecap: round; stroke-miterlimit: 10; stroke-width: 2.47px;"/>
            <path d="M213.9,226.12c.71,5.61,1.42,11.22,2.13,16.83.38,3,1.31,6.65,4.25,7.35" style="fill: none; stroke: #2e3138; stroke-linecap: round; stroke-linejoin: round; stroke-width: 2.47px;"/>
            <g>
              <path d="M195.83,109.61c.67,1.5.54,3.34-.02,4.9-.98,2.74-3.16,4.76-5.55,5.9s-5,1.53-7.58,1.8c1.22,1.59,2.38,3.24,3.48,4.94,5.46-.16,10.51-5.2,11.39-11.37.28-1.93.16-4.01-.68-5.7-.62-1.25-1.85-2.57-3.17-2.49.88.36,1.69,1.05,2.12,2.02Z" style="fill: #fff; stroke: #000; stroke-linecap: round; stroke-linejoin: round; stroke-width: 2.47px;"/>
              <path d="M195.85,108.83s-3.11-1.13-3.45,1.49c-.21,1.64.08,3.3.87,4.69,1.61,2.82,4.2,4.8,6.98,5.92,2.78,1.11,5.76,1.42,8.71,1.41-1.75,1.85-3.49,3.7-5.24,5.54-.18.19-.37.39-.6.49-.39.17-.83.04-1.23-.11-3.42-1.27-6.57-3.76-8.44-7.29-1.87-3.52-3.76-8.05-2.24-11.78,0,0,1.49-3.36,4.63-.36Z" style="fill: #fff; stroke: #000; stroke-linecap: round; stroke-linejoin: round; stroke-width: 2.47px;"/>
            </g>
            <g>
              <path d="M74.99,108.97c.67,1.5.54,3.34-.02,4.9-.98,2.74-3.16,4.76-5.54,5.9-2.39,1.15-5,1.53-7.58,1.8,1.22,1.59,2.38,3.24,3.48,4.94,5.46-.16,10.51-5.2,11.39-11.37.28-1.93.16-4.01-.68-5.7-.62-1.25-1.85-2.57-3.17-2.49.88.36,1.69,1.05,2.12,2.02Z" style="fill: #fff; stroke: #000; stroke-linecap: round; stroke-linejoin: round; stroke-width: 2.47px;"/>
              <path d="M75.02,108.19s-3.11-1.13-3.45,1.49c-.21,1.64.08,3.3.87,4.69,1.61,2.82,4.2,4.8,6.98,5.92,2.78,1.11,5.76,1.42,8.71,1.41-1.75,1.85-3.49,3.7-5.24,5.54-.18.19-.37.39-.6.49-.39.17-.83.04-1.23-.11-3.42-1.27-6.57-3.76-8.44-7.29s-3.76-8.05-2.24-11.78c0,0,1.49-3.36,4.63-.36Z" style="fill: #fff; stroke: #000; stroke-linecap: round; stroke-linejoin: round; stroke-width: 2.47px;"/>
            </g>
            <g>
              <path d="M21.26,142.73c-3.9-2.42-8.41-3.87-12.99-4.17-1.02,6.96-1.08,14.06-.19,21.03.23,1.78.58,3.69,1.85,4.96,1.43,1.43,3.69,1.68,5.68,1.34,4.54-.78,8.2-4.07,11.43-7.37,6.37-6.5,12.27-13.75,15.36-22.3,2.17,1.89,5.6.83,8.29,1.85.75.28,1.43.72,2.08,1.19,1.37.98,2.66,2.08,3.91,3.2.57.51,1.12,1.16,1.72,1.61.68.52,1.63.85,2.39,1.25.69.36,1.38.71,2.04,1.12,1.15.7,2.2,1.55,3.14,2.52.48.5.92,1.02,1.33,1.57.39.51.98.71,1.55,1.02,2.7,1.48,5.24,3.22,7.82,4.89,5.75,3.71,11.61,7.46,18.2,9.31,1.99.56,4.08.94,6.11.59,7.3-1.26,8.42-11.93,8.9-17.68.16-1.97.03-3.95-.24-5.91-.1-.75.07-3.96-1.07-3.91-.3.01-.56.21-.82.38-1.55,1.07-3.44,1.51-5.28,1.94-3.58.82-7.16,1.65-10.74,2.47-.64.15-1.29.29-1.94.22-.99-.12-1.9-.91-2.67-1.5-3.97-3.01-8.54-5.19-12.91-7.6-4.56-2.52-9.12-5.03-13.67-7.55-2.22-1.23-3.13-1.68-3.89-4.15-.45-1.47-1.08-2.91-2.08-4.08-1.54-1.82-4.28-2.94-6.62-2.86-1.91.07-3.82.14-5.73.21-.94.03-1.88.09-2.82.1-.79.01-1.39.41-1.91,1-.42.47-.74,1.02-1.07,1.56-.29.49-.59.98-.79,1.52-.2.52-.2,1.05-.21,1.6-.04,1.2-.02,2.41-.18,3.61-.48,3.58-2.45,5.95-5.32,7.87-3.33,2.23-6.14,6.1-8.69,9.16Z" style="fill: #fff;"/>
              <path d="M20.36,143.92c4.23-5.14,10.06-11.48,13.08-12.49" style="fill: none; stroke: #2e3138; stroke-linecap: round; stroke-miterlimit: 10; stroke-width: 2.47px;"/>
              <path d="M8.42,137.79s-4.5,24.98,2.6,28.38c7.1,3.4,22.9-9.52,31.18-28.95" style="fill: none; stroke: #2e3138; stroke-linecap: round; stroke-miterlimit: 10; stroke-width: 2.47px;"/>
              <path d="M56.48,124.75s22.9,10.09,32.25,19.17" style="fill: none; stroke: #2e3138; stroke-linecap: round; stroke-miterlimit: 10; stroke-width: 2.47px;"/>
              <path d="M108.89,138.07s4.16,28.07-9.28,28.53c-13.44.46-47.92-28.43-47.92-28.43" style="fill: none; stroke: #2e3138; stroke-linecap: round; stroke-miterlimit: 10; stroke-width: 2.47px;"/>
              <path d="M53.36,121.05c-1.83-2.38-8.23-7.73-11.06-4.45-.71.82-.89,2.08-1.79,2.69-.68.47-1.64.47-2.19,1.08-1.06,1.16.34,3.33-.7,4.51-.36.41-.99.65-1.09,1.2-.11.6.53,1.09.55,1.7.02.8-.97,1.2-1.34,1.91-.32.61-.12,1.4.3,1.94.43.55,1.05.9,1.65,1.25,1.37.79,2.74,1.57,4.1,2.36,1.54.88,3.09,1.77,4.79,2.27,1.7.49,3.59.56,5.19-.19" style="fill: none; stroke: #2e3138; stroke-linecap: round; stroke-miterlimit: 10; stroke-width: 2.47px;"/>
              <path d="M48.34,116.89c.29-.65,1.06-.97,1.76-.92.7.05,1.35.41,1.93.8,2.7,1.84,4.6,4.82,5.11,8.05" style="fill: none; stroke: #2e3138; stroke-linecap: round; stroke-miterlimit: 10; stroke-width: 2.47px;"/>
              <path d="M33.4,131.2c.08-1.84,1.04-3.52,1.48-5.32.25-1.02.32-2.08.52-3.11.35-1.9,1.11-3.73,2.2-5.32.38-.55.82-1.1,1.41-1.41,1.07-.57,2.38-.28,3.56.03" style="fill: none; stroke: #2e3138; stroke-linecap: round; stroke-miterlimit: 10; stroke-width: 2.47px;"/>
            </g>
            <path d="M213.35,147.8c.13-5.49.27-10.98.4-16.48" style="fill: none; stroke: #2e3138; stroke-linecap: round; stroke-miterlimit: 10; stroke-width: 2.47px;"/>
            <path d="M160.81,89.69s-30.49,2.85-34.45,12.54c-1.99,4.87-2.75,10.42-3.65,15.57-1.52,8.7-2.64,17.47-3.49,26.26-1.87,19.43-1.57,38.52.58,57.84.6,5.36,1.07,10.74,1.42,16.13,5.2,0,10.4-.59,15.46-1.76" style="fill: none; stroke: #2e3138; stroke-linecap: round; stroke-miterlimit: 10; stroke-width: 2.47px;"/>
            <g>
              <path d="M182.26,141.11c-.54-1.67-.91-3.38-1.48-5.04-1.2-3.54-3.27-6.79-5.98-9.36-.46-.44-1.03-.88-1.65-.78-.54.08-.94.57-1.09,1.09-.15.52-.09,1.08-.03,1.61.32,2.55.91,5.07,1.75,7.51-3.8-3.5-4.83-9.27-8.63-12.76-.6-.55-1.37-1.06-2.17-.88-.95.21-1.41,1.25-1.75,2.16-.19.49-.54,1.08-1.06.98-.17-.03-.32-.14-.47-.23-.89-.53-2.12-.39-2.86.33-.74.72-.91,1.95-.41,2.85-.8-.12-1.68-.21-2.34.26-.88.63-.89,1.95-.55,2.98.34,1.03.96,1.99,1.04,3.07-.57.52-1.58.41-2.03,1.03-.34.47-.19,1.12-.01,1.67,1.99,6.19,5.85,12.06,11.65,15,1.66.84,3.43,1.42,5.2,2,3.57,1.17,7.15,2.34,10.72,3.51.25.08.52.17.78.12.16-.03.32-.11.46-.2,2.1-1.29,2.99-3.84,3.72-6.19.32-1.01.73-2.13.72-3.21,0-.9-.42-1.17-.91-1.86-1.18-1.66-2-3.71-2.63-5.64Z" style="fill: #fff;"/>
              <path d="M187.33,144.74c-1.14,2.67-2.28,5.33-3.42,8-.47,1.09-.94,2.19-1.64,3.14-1,1.35-2.4,2.33-3.8,3.25,13.76,8.22,27.57,16.47,42.4,22.54,1.88.77,3.8,1.51,5.82,1.69,2.02.18,4.18-.26,5.69-1.62,2.55-2.3,2.63-6.23,3.43-9.34.95-3.69,2.4-7.87,2.56-11.69.04-.9-1.17-6.81,1.09-6.03-5.95-2.04-12.6-.69-18.66-2.39-2.7-.76-5.26-2.01-7.9-2.95-2.21-.79-4.59-1.24-6.86-1.93-2.93-.89-5.89-1.67-8.91-2.18-1.62-.27-3.25-.47-4.88-.56-.55-.03-4.72-.38-4.92.07Z" style="fill: #1f89bd;"/>
              <path d="M199.92,91.19c5.53,1.61,11.05,3.22,16.58,4.83,7.02,2.05,14.3,5.16,17.74,12.01,1.89,3.77,2.71,7.98,3.33,12.16,2.78,18.75,1.95,38.06-2.77,56.41-.68,2.63-1.85,5.67-4.49,6.32-3.85.95-13.61-2.27-16.96-3.87-5.29-2.53-7.45-4.14-12.75-6.67-10.59-5.06-12.86-8.12-23.44-13.18" style="fill: none; stroke: #2e3138; stroke-linecap: round; stroke-miterlimit: 10; stroke-width: 2.47px;"/>
              <g>
                <path d="M185.19,146.98c-1.03-2.27-1.95-4.6-2.74-6.96-.39-1.17-.75-2.36-1.09-3.55-.31-1.11-1.06-2.06-1.73-3.02-1.21-1.74-2.42-3.47-3.63-5.21-.51-.74-1.03-1.48-1.63-2.16-.38-.43-.92-.86-1.46-.66-.25.09-.43.3-.58.52-.74,1.12-.77,2.56-.41,3.83.21.73.58,1.39.91,2.08.62,1.31,1.08,2.69,1.53,4.06" style="fill: none; stroke: #2e3138; stroke-linecap: round; stroke-miterlimit: 10; stroke-width: 2.47px;"/>
                <path d="M175.06,136.74c-2.73-2.64-3.88-4.19-5.99-7.31-1.45-2.15-3.14-6.96-6.2-7.07-.21,0-.42.01-.61.08-.56.2-.9.77-1.08,1.34-1,3.15,2.39,6.84,4.12,9.18,2.33,3.14,2.09,3.39,4.94,6.08" style="fill: none; stroke: #2e3138; stroke-linecap: round; stroke-miterlimit: 10; stroke-width: 2.47px;"/>
                <path d="M163.79,130.99c-.7-1.36-1.94-2.96-2.9-4.16-.47-.59-.99-1.17-1.64-1.56-.65-.39-1.46-.58-2.18-.34-.25.08-.49.22-.65.42-.36.45-.29,1.1-.19,1.67.13.73.29,1.46.48,2.18.15.59.43,1.03.71,1.57.89,1.69,1.84,3.54,2.91,5.1,1.11,1.6,2.62,2.87,4.1,4.1.78.66,1.57,1.31,2.35,1.97" style="fill: none; stroke: #2e3138; stroke-linecap: round; stroke-miterlimit: 10; stroke-width: 2.47px;"/>
                <path d="M157.42,130.78c-.59-.69-1.36-1.91-2.24-2.15-.34-.09-.7-.11-1.04-.04-.25.05-.49.14-.68.31-.2.18-.32.43-.38.69-.15.7.15,1.41.44,2.06.78,1.73,1.53,3.46,2.25,5.21.33.8.59,1.68,1.02,2.43.42.75.97,1.45,1.5,2.12,1.33,1.67,3.14,3.34,5.1,4.05" style="fill: none; stroke: #2e3138; stroke-linecap: round; stroke-miterlimit: 10; stroke-width: 2.47px;"/>
                <path d="M156.4,138.46c-.32-.89-.98-2.16-1.72-2.76-.57-.46-1.48-.78-2-.26-.32.31-.36.8-.35,1.24.08,3.31,1.87,6.19,3.6,8.89,1.17,1.83,2.74,3.35,4.44,4.67.72.56,1.48,1.29,2.26,1.75,1.04.62,2.48.9,3.63,1.3,5.07,1.78,9.06,3.19,14.13,4.97" style="fill: none; stroke: #2e3138; stroke-linecap: round; stroke-miterlimit: 10; stroke-width: 2.47px;"/>
              </g>
              <path d="M177.16,159.2c6.41-.11,7.7-8.57,9.59-13.83.08-.23.19-.46.39-.6.2-.14.46-.15.71-.16,1.66-.03,3.33.02,4.98.22,2.43.28,4.81.87,7.18,1.45,6.15,1.51,12.34,3.04,18.14,5.57" style="fill: none; stroke: #2e3138; stroke-linecap: round; stroke-miterlimit: 10; stroke-width: 2.47px;"/>
            </g>
            <g>
              <path d="M125.53,219.53c.04,2.32.08,4.64.11,6.96.02,1.17.04,2.34.25,3.49.25,1.36.77,2.65,1.29,3.93.76,1.89,1.53,3.79,2.29,5.68.64,1.59,1.19,4.48,2.38,5.71,2.99,3.08,2.4-5.14,2.11-6.35q-.46-1.96-.92-3.92" style="fill: none; stroke: #2e3138; stroke-linecap: round; stroke-miterlimit: 10; stroke-width: 2.47px;"/>
              <path d="M133.77,245.07c.33.41.96.47,1.44.25.47-.22.81-.67,1.04-1.14.65-1.3.69-2.82.7-4.28.01-.97.02-1.95.04-2.92.02-1.44-.01-3.03-.97-4.11" style="fill: none; stroke: #2e3138; stroke-linecap: round; stroke-miterlimit: 10; stroke-width: 2.47px;"/>
              <path d="M127.86,226.03c-.17,3.21.64,6.47,2.3,9.23.23.39.53.8.97.89.45.1.91-.17,1.23-.51.95-.99,1.14-2.5,1.03-3.87-.11-1.37-.48-2.72-.44-4.1.1-3.35,2.6-6.51,1.81-9.76" style="fill: none; stroke: #2e3138; stroke-linecap: round; stroke-miterlimit: 10; stroke-width: 2.47px;"/>
            </g>
          </g>
        </g>
      </g>
    </g>
  </g>
</svg>