<?xml version="1.0" encoding="UTF-8"?>
<svg id="_圖層_2" data-name="圖層 2" xmlns="http://www.w3.org/2000/svg" viewBox="0 0 339.52 232.78">
  <g id="_圖層_1-2" data-name="圖層 1">
    <g>
      <path d="M71.3,171.6c7.36-8.82,14.73-17.64,22.09-26.46,15.57-18.65,32.14-38.03,54.8-46.76,15.19-5.85,31.87-6.37,48.15-6.12,5.53.08,11.18.23,16.46-1.41,4.3-1.34,8.15-3.82,11.83-6.41,15.38-10.85,28.83-24.28,44.39-34.87,15.56-10.59,34.34-19.17,52.99-16.58v129.37c-.44,0-.88-.08-1.33,9.25H75.83" style="fill: #fff9cb;"/>
      <path d="M45.32,17.51v161.79c3.55,0,7.95.24,11.49-.02h279.58" style="fill: none; stroke: #2e3138; stroke-linecap: round; stroke-linejoin: round; stroke-width: 4.88px;"/>
      <path d="M76.8,153.68c12.99-15.84,26.09-31.79,41.92-44.79,15.83-13,34.77-23,55.15-25.01,15.68-1.54,32.45,1.5,46.58-5.47,6.39-3.15,11.68-8.12,16.86-13.02,7.04-6.65,14.08-13.31,21.12-19.96,4.09-3.87,8.21-7.76,12.9-10.87,15.13-10.05,34.34-10.99,52.5-11.61" style="fill: none; stroke: #2e3138; stroke-linecap: round; stroke-linejoin: round; stroke-width: 4.88px;"/>
      <g>
        <path d="M64.69,113.11c.33.06.66.14.98.23,5.89,1.62,12.51,8.38,12.47,15.71,6.67-4.35,13.71-5.11,21.11-2.43,5.78,2.09,11.32,6.1,14.01,12.24,2.94,6.71,1.11,13.1-2.91,18.32,4.48-.96,8.66-.63,12.42,2.67,3.54,3.11,5.72,7.93,6.46,12.93.39,2.68.39,5.52-.59,8-2.12,5.38-8,7.4-13.22,7.59,6.44,4.63,4.97,18.81-2.73,20.71-2.22.55-4.77-.24-6.11-2.31,1.22,7.35-3.02,15.35-9.34,17.61-6.32,2.26-13.87-1.54-16.61-8.34-2.05,11.72-11.84,15.34-21.4,14.03-2.23-.3-4.47-.89-6.44-2.11-3-1.86-5.24-5.19-6.02-8.95-4.87,5.45-13.18,6.42-18.94,2.21-5.76-4.21-8.37-13.17-5.95-20.41-1.07-1.01-3.77-.33-5.11-.64-6.86-1.6-12.08-7.89-13.74-15.51-1.08-4.97-.67-10.91,1.6-15.43,1.89-3.76,6.44-8.54,10.64-7.71-2.2-6.22-2.15-13.41,2.96-17.98,4.54-4.05,11.69-3.72,15.92.73-2.49-3.54-3.67-8.23-3.2-12.73.26-2.49,1.08-5.02,2.76-6.66,2.05-2.01,4.99-2.35,7.71-2.2,4.04.22,8.33,1.54,10.87,5.1-2.01-3.83-.77-9.14,2.24-12.01,2.76-2.63,6.63-3.38,10.2-2.68Z" style="fill: #ff6d04; stroke: #2e3138; stroke-linecap: round; stroke-linejoin: round; stroke-width: 4.88px;"/>
        <path d="M34.3,159.94c-1.2-.04-2.22.99-2.93,2.08-1.44,2.21-2.22,5.05-1.81,7.76.41,2.71,2.1,5.21,4.42,6.04,1.03.37,2.13.41,3.21.35.93-.05,1.87-.19,2.74-.59" style="fill: none; stroke: #2e3138; stroke-linecap: round; stroke-linejoin: round; stroke-width: 4.88px;"/>
        <path d="M45.72,194.83c.09,1.73.33,3.44.72,5.12.3,1.3.71,2.6,1.42,3.68,1.03,1.56,2.63,2.54,4.28,3.1,3.27,1.12,7.09.64,9.69-1.86,2.6-2.51,3.54-7.21,1.64-10.42,2.6-.08,4.95-2.65,5.1-5.58.15-2.93-1.91-5.79-4.48-6.22" style="fill: none; stroke: #2e3138; stroke-linecap: round; stroke-linejoin: round; stroke-width: 4.88px;"/>
        <path d="M64.65,142.25c.81-1.57,2.51-2.21,4.1-2.52,2.11-.41,4.35-.45,6.33.47,2.08.97,3.74,2.96,4.63,5.29.89,2.34,1.03,4.99.58,7.48" style="fill: none; stroke: #2e3138; stroke-linecap: round; stroke-linejoin: round; stroke-width: 4.88px;"/>
        <path d="M95.39,164.36c3.16-1.43,6.77-2.85,9.85-1.2,2.41,1.3,3.87,4.45,3.56,7.44-.31,2.99-2.32,5.63-4.85,6.56,4.32,4.27,2.43,11.06-1.74,14.26-2.1,1.61-4.51,2.88-7.05,2.93-2.01.04-3.97-.68-5.88-1.4-1.35-.5-2.94-1.33-3.04-2.93" style="fill: none; stroke: #2e3138; stroke-linecap: round; stroke-linejoin: round; stroke-width: 4.88px;"/>
        <path d="M83.53,173.2c1.16.57,2.41,1.21,3.02,2.47.34.7.45,1.52.54,2.32.14,1.27.25,2.64-.3,3.76-.3.6-.76,1.06-1.26,1.44-2.16,1.61-5.22,1.46-7.25-.35-.67-.6-1.25-1.38-1.49-2.31-.24-.93-.11-2.01.47-2.73" style="fill: none; stroke: #2e3138; stroke-linecap: round; stroke-linejoin: round; stroke-width: 4.88px;"/>
        <path d="M59.37,149.52c-1.39-1.47-3.4-1.92-5.3-2.02-1.11-.06-2.26,0-3.28.5-.85.42-1.56,1.14-2.12,1.97-1.48,2.2-1.88,5.28-1.01,7.86.86,2.59,2.96,4.6,5.36,5.16" style="fill: none; stroke: #2e3138; stroke-linecap: round; stroke-linejoin: round; stroke-width: 4.88px;"/>
        <path d="M82.53,203.35c-.02,1.79-1,3.45-2.33,4.43-1.33.98-2.95,1.34-4.54,1.32-.44,0-.89-.04-1.29-.26-.33-.18-.6-.48-.86-.79-.84-1-1.61-2.08-2.28-3.23" style="fill: none; stroke: #2e3138; stroke-linecap: round; stroke-linejoin: round; stroke-width: 4.88px;"/>
      </g>
      <g>
        <path d="M300.54,2.47c1.25-.1,2.49.12,3.59.75,2.31,1.32,3.48,4.15,3.29,6.8,1.08-2.35,3.4-3.99,5.91-4.6,2.08-.51,5.74-.73,7.66.45.79.48,5.46,6.4,4.79,7.15,1.27-1.42,3.49-1.7,5.28-1.05,1.79.65,3.21,2.05,4.36,3.57.9,1.18,1.7,2.55,1.65,4.04-.11,3.47-3.58,5.66-6.33,6.96,1.04-.47,2.32-.08,3.13.72.81.8,1.2,1.94,1.38,3.07.41,2.63-.45,5.63-2.72,7.02-1.67,1.03-3.76,1.02-5.72.98,1.14,2.11,1.18,4.77.11,6.91-1.52,3.05-5.29,5.56-8.54,3.69,1.12.02,2.07.99,2.3,2.09.23,1.09-.15,2.25-.78,3.17-2.77,4.06-9.18,5.55-13.73,4.3-2.03-.56-4.11-1.56-5.64-3.02-.72-.68-3.54-3.9-2.96-5.03-1.03,1.99-2.96,3.44-5.09,4.12-2.14.68-4.46.62-6.63.08-1.39-.35-2.8-.93-3.71-2.04-1.31-1.6-1.64-4.75-1.39-6.74-1.68-.11-3.34-.05-4.97-.56-1.62-.51-3.14-1.55-3.85-3.09-.47-1.01-.56-2.15-.62-3.26-.1-1.76-.09-3.69,1.04-5.04,1.01-1.2,2.93-1.17,3.84-2.33.88-1.12.32-3.37.41-4.7.1-1.63-.86-1.91-1.57-3.13-.76-1.31-.38-2.91-.86-4.39-.45-1.39-1.14-2.71-1.45-4.14-.71-3.27.75-6.84,3.38-8.91,2.63-2.07,6.28-2.67,9.52-1.84,1.19.31,2.36.81,3.28,1.63,2.19,1.95,2.53,5.22,2.5,8.16.45-3.3,1.4-6.67,3.68-9.09,1.41-1.5,3.43-2.51,5.46-2.67Z" style="fill: #ff6d04; stroke: #2e3138; stroke-linecap: round; stroke-linejoin: round; stroke-width: 4.88px;"/>
        <path d="M290.12,18.72c-1.27-1.91-1.44-4.55-.3-6.54,1.14-2,3.58-3.2,5.83-2.77,1.95.37,3.62,1.93,4.12,3.85s-.19,4.1-1.71,5.37" style="fill: #ff6d04; stroke: #2e3138; stroke-linecap: round; stroke-linejoin: round; stroke-width: 4.88px;"/>
        <path d="M280.1,33.46c.24,2.69,3.04,4.61,5.75,4.66.7.01,1.42-.08,2.07-.34,1.6-.65,2.65-2.4,2.61-4.13-.04-1.73-1.09-3.37-2.58-4.25" style="fill: none; stroke: #2e3138; stroke-linecap: round; stroke-linejoin: round; stroke-width: 4.88px;"/>
        <path d="M310.49,26.1c.27-1.01,1.11-1.8,2.07-2.23.96-.43,2.03-.53,3.07-.57,2.2-.08,4.65.25,6.08,1.93,1.44,1.69,1.37,4.15,1.17,6.36-.17,1.87-.5,3.95-2,5.08-1.63,1.22-3.91.79-5.89.3" style="fill: none; stroke: #2e3138; stroke-linecap: round; stroke-linejoin: round; stroke-width: 4.88px;"/>
        <path d="M313.75,34.6c1.09,2-.22,4.87-2.44,5.36s-4.61-1.57-4.46-3.84" style="fill: none; stroke: #2e3138; stroke-linecap: round; stroke-linejoin: round; stroke-width: 4.88px;"/>
        <path d="M294.76,46.48c-1.11-.08-2.16.62-2.79,1.53-.63.91-.91,2.02-1.12,3.11-.54,2.75-.6,5.99,1.43,7.92,1.39,1.32,3.41,1.68,5.31,1.97,1.86.29,3.83.57,5.56-.17,1.73-.73,2.94-2.4,3.53-4.18s.63-3.71.58-5.59" style="fill: #ff6d04; stroke: #2e3138; stroke-linecap: round; stroke-linejoin: round; stroke-width: 4.88px;"/>
        <path d="M275.33,17.66c-2.44.4-4.64,2.04-5.72,4.26-.52,1.07-.79,2.25-.93,3.43-.17,1.4-.18,2.84.22,4.19.59,1.97,2.06,3.63,3.87,4.61,1.81.98,3.94,1.31,5.99,1.09,1.33-.14,2.66-.51,3.79-1.24" style="fill: #ff6d04; stroke: #2e3138; stroke-linecap: round; stroke-linejoin: round; stroke-width: 4.88px;"/>
      </g>
    </g>
  </g>
</svg>