<?xml version="1.0" encoding="UTF-8"?>
<svg xmlns="http://www.w3.org/2000/svg" viewBox="0 0 569.66 444.26">
  <g style="isolation: isolate;">
    <g id="_圖層_2" data-name="圖層 2">
      <g id="_圖層_1-2" data-name="圖層 1">
        <g>
          <g>
            <path d="M39.35,325.5l32.15,10.46s9.8,2.02,13.99-10.88c4.14-12.72-5.26-16.56-5.26-16.56l-31.98-10.4-8.91,27.38Z" style="fill: #1f89bd;"/>
            <path d="M48.26,298.12l-32.15-10.46s-9.8-2.02-13.99,10.88c-4.14,12.72,5.26,16.56,5.26,16.56l31.98,10.4,8.91-27.38Z" style="fill: #fff;"/>
          </g>
          <path d="M80.4,332.65s-3.03,7.29-17.99.36l-55.04-17.91s-5.48-3.6-5.61-7.41l78.63,24.96Z" style="fill: #fffded; mix-blend-mode: multiply;"/>
          <g>
            <path d="M39.35,325.5l32.15,10.46s9.8,2.02,13.99-10.88c4.14-12.72-5.26-16.56-5.26-16.56l-31.98-10.4-8.91,27.38Z" style="fill: none; stroke: #2e3138; stroke-linecap: round; stroke-miterlimit: 10; stroke-width: 2.11px;"/>
            <path d="M48.26,298.12l-32.15-10.46s-9.8-2.02-13.99,10.88c-4.14,12.72,5.26,16.56,5.26,16.56l31.98,10.4,8.91-27.38Z" style="fill: none; stroke: #2e3138; stroke-linecap: round; stroke-miterlimit: 10; stroke-width: 2.11px;"/>
          </g>
        </g>
        <g>
          <path d="M552.32,331.29c-1.38-1.91-2.05-3.72-.75-4.83.85-.72,2.09-.63,3.21-.54,3.37.25,6.78-.03,10.07-.82.66-.16,1.36-.36,1.81-.87.44-.5.56-1.2.65-1.87,1.16-8.79,1.3-19.63-6.36-25.39-1.58-1.19-5.41-3.41-5.8-5.55,0-1.85.62-1.71,2.03-2.49,2.2-1.22,2.57,0,2.41-2.84-.27-4.71-3.13-10.37-4.53-14.89-3.06-9.91-6.22-19.79-9.47-29.64-2.39-7.23-5.4-14.51-7.15-21.88-1.74-7.32-3.33-14.67-5.25-21.95-1.96-7.41-4.07-14.88-7.91-21.52-2.56-4.42-5.84-8.38-9.14-12.29-15.3-18.13-31.33-35.64-48.06-52.46-5.26-5.29-10.88-10.69-18.02-12.83-7.16-2.15-14.54-.3-21.79-.8-7.98-.56-16.01-.64-24-.9-1.41-.05-1.57-1.75-1.87-3.13-1.05-4.83-1.7-9.74-1.95-14.67-.03-.52-.04-1.06.18-1.52.23-.48.68-.8,1.1-1.12,2.48-1.9,4.47-4.6,5.02-7.68.55-3.08-.55-6.53-3.1-8.34-2.83-2.01-6.64-1.7-10.09-1.3-.64-8.29-3.25-16.42-7.54-23.53-1.66-2.76-3.72-5.48-6.66-6.78-3.2-1.41-6.86-.91-10.34-1.21-3.98-.34-7.78-1.74-11.69-2.57-6.14-1.3-12.49-1.16-18.77-1.02-2.56.06-5.18.13-7.6.96-2.42.84-4.67,2.59-5.45,5.03-.81,2.55.09,5.29.94,7.83,2.45,7.3,4.6,15.03,3.29,22.62-.72,4.19-2.46,8.13-4.47,11.88-.59,1.11-1.23,2.26-1.24,3.52,0,.86.28,1.69.56,2.5,1.33,3.79,2.66,7.58,3.99,11.38,1.25,3.57,3.2,6.51,4.74,9.94.35.78.67,1.57.92,2.39.66,2.16.47,4.3.66,6.48.17,1.88.21,3.9-1.46,5.16-1.73,1.3-1.73-.08-3.56,1.07-10.25,6.46-23,7.85-33.5,13.9-11.99,6.91-20.19,19.99-21.17,33.79-.23,3.24-.09,6.5-.29,9.75-.34,5.45-1.64,10.83-3.83,15.83-4.42-6.65-8.27-13.67-11.51-20.96-1.99-4.49-3.97-9.36-8.04-12.1-1.73-1.17-3.73-1.86-5.72-2.51-1.62-.53-3.73-.88-4.73.49-.44.6-.53,1.4-.45,2.14.45,4.54,5.98,7.8,5.32,12.32-6.44-4.7-14.54-7.09-22.51-6.64-1.36.08-2.76.25-3.9.99-1.14.74-1.91,2.2-1.47,3.48.79,2.27,4.54,2.49,5.09,4.83-3.57-.66-7.29-.52-10.8.42-.88.24-1.79.54-2.42,1.21-1.25,1.33-.82,3.62.44,4.94s3.11,1.88,4.88,2.32c4.42,1.1,8.96,1.75,13.52,1.94.62,1.76,1.45,3.45,2.46,5.02-4.94-1.38-10.16-1.75-15.24-1.08-1.51.2-3.08.52-4.28,1.47-1.2.94-1.9,2.68-1.23,4.05.85,1.72,3.15,1.95,5.06,1.99,4.75.11,9.82.63,13.49,3.64,3.74,3.07,5.19,8.03,7.12,12.46,2.06,4.74,4.88,9.15,8.3,13.02-1.51,2.56-1.48,5.73-1.16,8.68,2.14,19.82,4.44,40.16,13.67,57.83,1.07,2.04,2.24,4.07,3.9,5.67,1.6,1.55,3.59,2.63,5.65,3.47,10.14,4.12,22.53,2.03,30.76-5.19,9.81-8.61,12.85-22.49,14.4-35.46.61-5.05,1.09-10.19,3.05-14.88,8.15,18.7,13.93,38.44,17.16,58.59,2.31,14.42,3.46,29.32,3.4,43.92,0,12.67-.1,25.35-.15,38.02-.03,6.56-.05,13.11-.08,19.67,0,2.42-1.4,17.09,1.61,16.85.72-.06,1.34-.48,1.92-.91,2.26-1.69,4.03-3.94,6.32-5.57,2.03-1.44,3.94-2.43,5.74-4.25,4.64-4.7,7.95-10.47,12.09-15.58,4.05-5,8.93-9.35,12.42-14.75,3.3-5.12,5.22-10.99,6.84-16.85,1.6-5.83,2.94-11.76,3.29-17.79.3-5.13-.13-10.27-.55-15.39-1.89-22.87-4.75-46.05-12.11-67.88-3.94-11.69-7.74-22.98-10.99-34.88-2.2-8.08-2.06-16.76-5.19-24.53-4.89-12.12-5.98-25.23-10.05-37.64-4.59-13.99-6.72-28.66-8.82-43.23.25,1.76,9.53,5.78,11.2,6.68,4.17,2.26,8.45,4.32,12.8,6.19,4.13,1.77,8.37,3.53,12.69,4.79,4.23,1.24,7.11-2.01,10.07-4.92,1.45-1.42,2.8-2.95,4.14-4.48,6.06-6.87,12.11-13.74,18.17-20.61,1.48,7.78,2.52,15.64,3.12,23.54.97,12.78,1.31,27.02,4.52,39.42.85,3.3,1.89,6.56,2.63,9.89,1.51,6.77,1.79,13.74,2.07,20.67.8,19.89,1.6,39.78,2.4,59.67,1.14,28.23,12.96,57.41,29.89,80.03,2.59,3.47,6.42,8.24,10.54,9.91.65.26,1.36.35,2.06.43,14.92,1.71,29.46,4.59,44.47,5.09,6.25.21,12.51.18,18.77.14,7-.04,14-.07,21.01-.11,3.3-.02,6.61-.04,9.9-.35,2.54-.24,7.02-.35,9.15-1.9,1.58-1.15.7-1.68-.3-3.44-.82-1.44-1.69-2.86-2.59-4.26-1.64-2.54-3.41-4.99-5.31-7.34-1.01-1.25-4.63-4.31-6.69-7.16ZM527.22,301.73c-7.23-8.72-14.46-17.44-21.69-26.16-3.41-4.11-1.69-3.76-4.69-8.19-3.25-4.79-7.85-11.7-10.58-16.8-6.96-13.01-11.65-21.15-16.54-35.08-1.72-4.91-5.07-12.65-6.31-17.7-.98-4-6.06-19.63-6.06-19.63,2.93-8.81,16.96,5.94,20.4,9,3.51,3.12,7.02,6.24,10.53,9.35,1.66,1.47,3.34,2.98,4.44,4.9.89,1.57,1.35,3.34,1.81,5.08,7.58,29.34,15.17,58.68,22.75,88.02,1.31.81,2.87-.7,4.41-.76,1.65-.07,2.92,1.65,2.99,3.3.07,1.65-.71,3.2-1.47,4.66Z" style="fill: #fff; fill-rule: evenodd;"/>
          <path d="M373.2,388.14c-.61-2-1.23-4.07-.95-6.14.32-2.34,1.74-4.35,3-6.35,6.35-10.13,9.15-22.17,9.79-34.11.42-7.69-.02-15.39-.77-23.04-.44-4.51-4.27-14.74,2.99-14.74,11.46,0,23.23.81,34.09-2.88,1.83-.62,3.68-1.38,5.62-1.38,6.03,0,4.5,5.76,5.55,9.65,1.49,5.54,4.62,10.51,7.73,15.28,4.41,6.77,8.92,13.48,13.52,20.11,1.14,1.65,2.34,3.34,4.07,4.36,1.26.74,2.71,1.08,4.13,1.39,10.1,2.25,20.28,4.16,30.51,5.74,5.08.78,10.26,1.78,15.39,2.12,4.04.27,8.21-.48,12.33-.43,1.31.02,2.66.05,3.86.59,1.43.65,2.44,1.94,3.34,3.22,5.62,7.93,9.29,17.06,12.9,26.08,5.73,14.32,11.47,28.64,17.2,42.96.31.78.63,1.64.34,2.43-.27.73-.97,1.18-1.64,1.56-12.91,7.38-30.08,8.4-44.6,7.4-1.48-.1-2.98-.24-4.37-.75-1.57-.57-2.93-1.59-4.24-2.61-2.25-1.75-4.46-3.55-6.62-5.41-2.84-2.45-5.61-4.99-8.28-7.62-2.5-2.46-4.77-5.61-7.58-7.69-5.31-3.93-9.95-8.74-14.84-13.25-10.68-9.83-21.54-19.6-30.42-31.15.61,6.64,2.73,13.03,2.89,19.85.09,3.91-.14,7.82,0,11.73.38,10.73,3.53,21.43,2.04,32.07-.14,1-.34,2.04-.93,2.86-.94,1.3-2.63,1.76-4.2,2.1-14.28,3.08-29.26,2.87-43.45-.61-1.14-.28-2.3-.59-3.27-1.25-1.91-1.29-2.74-3.65-3.43-5.86-4.75-15.25-7.01-31.03-11.67-46.24Z" style="fill: #4b4c4e;"/>
          <g>
            <path d="M327.76,61.19c-.25,2.18-.55,4.6-1.34,6.45-.81,1.89-2.42,2.8-2.22,5.13.15,1.75.91,3.38,1.51,5.04,1.25,3.43,1.85,7.07,3.14,10.49,1.7,4.54,4.55,8.75,5.29,13.61,1.07,4.88,1.85,9.97,3.28,14.76.27.9.56,1.82,1.16,2.54.48.58,1.12.99,1.75,1.39,9.06,5.75,18.58,10.79,28.44,15.05,3,1.3,6.3,2.55,9.47,1.73,2.42-.62,4.38-2.37,6.16-4.12,6.77-6.63,12.6-14.21,17.28-22.44.59-1.05,1.18-2.11,1.5-3.27.62-2.18.3-4.51-.02-6.75-.56-3.95-1.13-7.9-1.69-11.85-.52-3.66-.33-7.87,1.33-11.27,1.27-2.6,4.07-4.3,5.03-7.03,1.1-3.12-.71-6.73-3.5-8.48-2.8-1.76-6.32-1.97-9.59-1.5-.81-6.82-2.73-13.51-5.66-19.71-1.44-3.04-3.14-6-5.51-8.39-3.42-3.45-7.31-4.57-12-4.45-7.02.19-13.89-1.79-20.81-3.02-5.34-.95-10.97-1.46-16.3-.13-1.77.44-4.31.93-5.6,2.26-1.45,1.49-1.87,4.31-1.93,6.29-.08,2.69.49,5.34.89,8,.89,5.95.94,12.03.15,18-.07.54-.14,1.11-.2,1.7Z" style="fill: #fff;"/>
            <path d="M309.6,40.5c-.31,2.3-.42,4.64-.11,6.93.28,1.99.87,3.93,1.47,5.85.71,2.31,1.23,4.82,2.06,7.06.85,2.29,2.99,4.15,4.22,6.26.37.63.7,1.29,1.16,1.85.38.45.83.83,1.28,1.21,1.43,1.19,2.84,2.4,4.29,3.56.33-1.37,1.29-2.75,1.85-4.08.62-1.46,1.16-2.96,1.62-4.48.92-3.04,1.52-6.19,1.79-9.35.54-6.33-.22-12.79-2.34-18.79-.53-1.5-1.15-3.02-1.1-4.61.1-3.21,3.42-5.81,6.28-6.62,7.3-2.05,14.97-.92,22.3.37,3.79.67,7.58,1.41,11.41,1.85,1.87.22,3.75.37,5.64.39,1.82.02,3.7-.38,5.5-.31,1.87.07,3.88,1.14,5.23,2.38.86.79,1.57,1.74,2.23,2.7,6.01,8.7,9.32,19.24,9.36,29.82,1.84-1.44,4.17-2.23,6.51-2.22.66,0,1.34.06,1.95-.16,1.48-.53,1.96-2.35,2.16-3.91.37-2.81.53-5.65.49-8.49-.04-2.77-.69-5.63-.59-8.37.2-5.44-.46-10.82-2.77-15.85-4.17-9.1-13.02-15.43-22.54-18.51-9.52-3.08-19.73-3.28-29.73-2.84-2.4.1-4.82.25-7.14.86-4.45,1.18-8.15,4-11.18,7.38-3.01,3.35-4.65,8.33-7.73,11.41-2.66,2.67-6.44,3.35-8.96,6.72-2.57,3.45-4.05,7.74-4.62,11.97Z" style="fill: #ff6d04;"/>
            <path d="M336.78,118.64c6.66,7.26,18.68,10.87,27.8,14.59,3.46,1.41,4.4,3.16,8.11,3.65,3.71.49,7.7-.05,10.71-2.26,3.43-2.52,5.09-6.75,7.92-9.93,1.42-1.6,3.12-2.92,4.65-4.41,4.07-3.97,7.61-8.74,10.33-13.73,1.74,15.17,4.61,29.74,7.13,44.79,6.96,41.66,5.5,84.12,10.18,126.01.73,6.57,1.78,13.39,4.9,19.31.45.86.86,2.11.05,2.64-.38.25-.88.2-1.33.2-1.32,0-.77.92-2.03,1.33-9.62,3.16-19.75,4.77-29.88,4.77-3.18,0-9.2.9-11.42-1.86-2.33-2.92-2.36-9.76-3.2-13.36-4.63-19.92-11.04-39.37-16.25-59.14-1.54-5.86-2.99-11.75-4.26-17.67-6.98-32.46-14.81-62.86-23.4-94.94Z" style="fill: #1f89bd;"/>
            <path d="M322.89,22.67s9.94-33.96,61.18-16.75c0,0,29.16,10.29,18.5,54.19" style="fill: none; fill-rule: evenodd; stroke: #2e3138; stroke-linecap: round; stroke-miterlimit: 10; stroke-width: 2.11px;"/>
            <path d="M322.68,21.43c-5.41,2.33-9.29,7.46-11.1,13.06-1.81,5.61-1.76,11.66-.97,17.5.87,6.39,7.45,15.41,11.61,20.34" style="fill: none; fill-rule: evenodd; stroke: #2e3138; stroke-linecap: round; stroke-miterlimit: 10; stroke-width: 2.11px;"/>
            <path d="M325.61,32.16c3.99-11.79,20.99-9.55,29.41-7.43,3.77.95,7.38,2.49,11.16,3.36,8.89,2.05,19.09-.1,25.15-6.92" style="fill: none; fill-rule: evenodd; stroke: #2e3138; stroke-linecap: round; stroke-miterlimit: 10; stroke-width: 2.11px;"/>
            <path d="M362.66,18.25c1.27.56,2.63.9,4,1.05,4.36.48,8.9-1.03,12.12-4.01" style="fill: none; fill-rule: evenodd; stroke: #2e3138; stroke-linecap: round; stroke-miterlimit: 10; stroke-width: 2.11px;"/>
            <path d="M359.47,9.96c3.28-.87,6.87-.55,9.95.88" style="fill: none; fill-rule: evenodd; stroke: #2e3138; stroke-linecap: round; stroke-miterlimit: 10; stroke-width: 2.11px;"/>
            <path d="M319.82,34.88c-1.67,3.25-2.27,7.04-1.69,10.65" style="fill: none; fill-rule: evenodd; stroke: #2e3138; stroke-linecap: round; stroke-miterlimit: 10; stroke-width: 2.11px;"/>
            <path d="M323.74,48.55c1.32,4.6.42,9.5-.49,14.19" style="fill: none; fill-rule: evenodd; stroke: #2e3138; stroke-linecap: round; stroke-miterlimit: 10; stroke-width: 2.11px;"/>
            <path d="M325.61,32.16c2.34,8.9,4.7,18.17,2.9,27.19-.88,4.38-2.71,8.52-4.7,12.52" style="fill: none; fill-rule: evenodd; stroke: #2e3138; stroke-linecap: round; stroke-miterlimit: 10; stroke-width: 2.11px;"/>
            <path d="M380.81,28.59c8.3,9.5,12.94,22.12,12.76,34.73" style="fill: none; fill-rule: evenodd; stroke: #2e3138; stroke-linecap: round; stroke-miterlimit: 10; stroke-width: 2.11px;"/>
            <path d="M393.95,61.86c1.75-.75,3.54-1.47,5.43-1.71,1.89-.24,3.91.06,5.45,1.18,1.45,1.07,2.33,2.8,2.57,4.58.25,1.78-.1,3.61-.75,5.29-.45,1.17-1.05,2.28-1.82,3.26-2.26,2.86-5.77,4.38-9.13,5.78" style="fill: none; fill-rule: evenodd; stroke: #2e3138; stroke-linecap: round; stroke-miterlimit: 10; stroke-width: 2.11px;"/>
            <path d="M395.84,69.2c.21-.71.7-1.36,1.38-1.66.68-.3,1.54-.22,2.09.28.55.5.71,1.41.28,2.02" style="fill: none; fill-rule: evenodd; stroke: #2e3138; stroke-linecap: round; stroke-miterlimit: 10; stroke-width: 2.11px;"/>
            <path d="M333.9,99.73c1.44,5.04,2.38,13.78,3.5,18.88" style="fill: none; fill-rule: evenodd; stroke: #2e3138; stroke-linecap: round; stroke-miterlimit: 10; stroke-width: 2.11px;"/>
            <path d="M400.86,77.83c1.33,10.5,2.28,18.49,3.62,28.99" style="fill: none; fill-rule: evenodd; stroke: #2e3138; stroke-linecap: round; stroke-miterlimit: 10; stroke-width: 2.11px;"/>
            <path d="M355.23,61.96c.35,3.73.69,7.57-.34,11.18-.28.97-.66,1.95-.61,2.96.07,1.46,1.06,2.78,2.33,3.5s2.79.91,4.25.83c2.12-.12,4.54-1.13,4.97-3.2" style="fill: none; fill-rule: evenodd; stroke: #2e3138; stroke-linecap: round; stroke-miterlimit: 10; stroke-width: 2.11px;"/>
            <path d="M343.7,64.12c.27,1.78-.95,3.45-2.74,3.72s-3.45-.95-3.72-2.74c-.27-1.78.95-3.45,2.74-3.72,1.78-.27,3.45.95,3.72,2.74Z" style="fill: #2e3138;"/>
            <path d="M381.4,58.38c.27,1.78-.95,3.45-2.74,3.72s-3.45-.95-3.72-2.74c-.27-1.78.95-3.45,2.74-3.72s3.45.95,3.72,2.74Z" style="fill: #2e3138;"/>
            <path d="M359.93,110.26c-2.82.41-12.17-1.39-15.89-3.09-2.63-1.2-7.49-3.66-9.45-6.27,0,0-7.73-12.12-9.79-27.96" style="fill: none; fill-rule: evenodd; stroke: #2e3138; stroke-linecap: round; stroke-miterlimit: 10; stroke-width: 2.11px;"/>
            <path d="M337.4,118.61c8.12,6.81,22.42,13.19,31.96,17.8,2.12,1.02,4.39,2.01,6.73,1.77,2.14-.22,4.03-1.44,5.8-2.68,10.95-7.67,15.27-17.77,23.08-28.61" style="fill: none; fill-rule: evenodd; stroke: #2e3138; stroke-linecap: round; stroke-miterlimit: 10; stroke-width: 2.11px;"/>
            <path d="M377.41,272.86c.2.4-31.62-59.44-49.81-81.45-.92-1.12-1.9-2.27-2.26-3.68-.32-1.23-.15-2.54.06-3.79,1.42-8.39,4.46-16.51,8.91-23.76-3.93-4.15-7.87-8.3-11.8-12.46-.72-.76-1.49-1.61-1.57-2.66-.06-.77.25-1.51.56-2.21,4.32-9.84,9.07-19.49,14.23-28.92,0,0,33.6,142.83,41.68,158.92Z" style="fill: none; fill-rule: evenodd; stroke: #2e3138; stroke-linecap: round; stroke-linejoin: round; stroke-width: 2.11px;"/>
            <path d="M420.76,263.97c-.22,1.01,19.29-60.97,17.96-94.08-.08-1.95-.2-3.95-1.03-5.72-.83-1.78-2.31-3.16-3.74-4.5-4.88-4.54-9.77-9.08-14.65-13.62,3.37-4.5,6.74-9,10.11-13.5-7.5-8.97-15-17.94-22.5-26.9,0,0,19.37,132.5,13.87,158.32Z" style="fill: none; fill-rule: evenodd; stroke: #2e3138; stroke-linecap: round; stroke-miterlimit: 10; stroke-width: 2.11px;"/>
            <path d="M396.65,86.51c-1.46,7.56-6.1,14.23-12.36,17.78-2.1,1.19-4.35,2.04-6.62,2.79-4.1,1.36-8.28,2.41-12.52,3.16" style="fill: none; fill-rule: evenodd; stroke: #2e3138; stroke-linecap: round; stroke-miterlimit: 10; stroke-width: 2.11px;"/>
            <path d="M337.86,191.94s-35.47-68.82-3.09-80.82l.96,2.82s-26.26,8.42,6.23,77.37" style="fill: #a0a0a1; stroke: #2e3138; stroke-miterlimit: 10; stroke-width: 2.11px;"/>
            <g>
              <circle cx="343.57" cy="201.86" r="10.67" transform="translate(-22.65 358.93) rotate(-53.65)" style="fill: #fff; stroke: #2e3138; stroke-miterlimit: 10; stroke-width: 2.11px;"/>
              <path d="M350.58,200.8c.59,3.87-2.07,7.49-5.94,8.08-3.87.59-7.49-2.07-8.08-5.94-.59-3.87,2.07-7.49,5.94-8.08,3.87-.59,7.49,2.07,8.07,5.94Z" style="fill: #a0a0a1; stroke: #2e3138; stroke-miterlimit: 10; stroke-width: 2.11px;"/>
            </g>
            <path d="M405.32,97.84s25.16,14.46,25.03,44.02c0,0,37.09-.65,11.62,57.94l-2.9-2.14s23.69-49.96-10.98-53.04c-34.67-3.08-10.83,49.21-10.83,49.21l-2.81.59s-25.1-49.63,9.97-53.17c0,0,5.55-17.78-19.46-39.46l.36-3.95Z" style="fill: #a0a0a1; stroke: #2e3138; stroke-miterlimit: 10; stroke-width: 2.11px;"/>
            <path d="M442.16,200.29c-.16,1.2-1.26,2.05-2.47,1.89-1.2-.16-2.05-1.26-1.89-2.47.16-1.2,1.26-2.05,2.47-1.89s2.05,1.26,1.89,2.47Z" style="fill: #a0a0a1; stroke: #2e3138; stroke-miterlimit: 10; stroke-width: 2.11px;"/>
            <path d="M418.43,194.94c-.16,1.2-1.26,2.05-2.47,1.89-1.2-.16-2.05-1.26-1.89-2.47s1.26-2.05,2.47-1.89,2.05,1.26,1.89,2.47Z" style="fill: #a0a0a1; stroke: #2e3138; stroke-miterlimit: 10; stroke-width: 2.11px;"/>
            <path d="M369.5,47.53c.34.86,1.51,1.11,2.38.78.86-.33,1.5-1.06,2.14-1.73,1.75-1.82,3.82-3.35,6.08-4.49" style="fill: none; fill-rule: evenodd; stroke: #2e3138; stroke-linecap: round; stroke-miterlimit: 10; stroke-width: 2.11px;"/>
            <path d="M345.21,52.45c.3.45-.07,1.09-.58,1.27-.5.18-1.06.05-1.58-.07-2.82-.65-5.71-.98-8.6-.99" style="fill: none; fill-rule: evenodd; stroke: #2e3138; stroke-linecap: round; stroke-miterlimit: 10; stroke-width: 2.11px;"/>
            <path d="M371.93,93.01c-.63-1.58-1.22-3.5-.21-4.87,1.01-1.36,3.11-1.35,4.63-.62,2.19,1.05,3.76,3.42,3.63,5.85-.1,1.79-1.81,4.91-3.96,4.87-2.18-.04-3.42-3.57-4.08-5.24Z" style="fill: none; fill-rule: evenodd; stroke: #2e3138; stroke-linecap: round; stroke-miterlimit: 10; stroke-width: 2.11px;"/>
            <path d="M326.94,116.35c-12.48,5.09-20.52,6.56-31.93,13.72-5.66,3.56-9.74,8.14-13.26,14.08-3.44,5.82-9.15,38.88-10.03,45.59" style="fill: none; fill-rule: evenodd; stroke: #2e3138; stroke-linecap: round; stroke-miterlimit: 10; stroke-width: 2.11px;"/>
            <path d="M411.16,97.79c11.93,1.72,23.93-1.56,35.83-.11,8.31,1.01,13.94,7.43,20.08,12.78,15.85,13.82,53.74,58.14,57.9,65.18,3.03,5.14,33.75,111.65,34.99,111.51.35-.04-1.12,1.23-1.37,1.49" style="fill: none; fill-rule: evenodd; stroke: #2e3138; stroke-linecap: round; stroke-miterlimit: 10; stroke-width: 2.11px;"/>
            <path d="M463.71,173.8q19.45,15.72,34.44,28.06" style="fill: none; fill-rule: evenodd; stroke: #2e3138; stroke-linecap: round; stroke-miterlimit: 10; stroke-width: 2.11px;"/>
            <path d="M496.9,197.8c7.69,24.1,17.21,72.49,23.83,96.91,7-.41,13.99-.82,20.99-1.24,6.62-.39,14.06-1.17,18.24-6.32" style="fill: none; fill-rule: evenodd; stroke: #2e3138; stroke-linecap: round; stroke-miterlimit: 10; stroke-width: 2.11px;"/>
            <path d="M459.61,169.39c25.98,112.99,90.21,147.21,109,183.48" style="fill: none; fill-rule: evenodd; stroke: #2e3138; stroke-linecap: round; stroke-miterlimit: 10; stroke-width: 2.11px;"/>
            <path d="M315.86,241c29.45,71.83,16.08,151.24,18.04,177.53" style="fill: none; fill-rule: evenodd; stroke: #2e3138; stroke-linecap: round; stroke-miterlimit: 10; stroke-width: 2.11px;"/>
            <path d="M242.83,225.96c.34,11.67,8.08,63.83,20.61,69.38,4.29,1.9,9.08,2.36,13.78,2.31,8.34-.09,17.22-1.99,23.01-7.99,5.44-5.63,7.18-13.76,8.7-21.44,1.52-7.69,3.03-15.37,4.55-23.06" style="fill: none; fill-rule: evenodd; stroke: #2e3138; stroke-linecap: round; stroke-miterlimit: 10; stroke-width: 2.11px;"/>
            <path d="M285.05,212.6c1.18.85,15.78,25.25,15.78,36.46" style="fill: none; fill-rule: evenodd; stroke: #2e3138; stroke-linecap: round; stroke-miterlimit: 10; stroke-width: 2.11px;"/>
            <path d="M555.99,291.96c2.54,3.03,6.57,4.46,9.19,7.42,4.07,4.62,3.67,11.53,3.03,17.66-.34,3.28-1.02,8.68-5.49,8.45-.51-.03-1.04-.14-1.52.02-.75.25-1.15,1.07-1.82,1.49-1.93,1.2-4.54-1.5-6.56-.47-.59.3-1.02.89-1.65,1.09-1.64.52-3.28-1.84-4.84-1.13-.41.19-.71.56-1.06.85-.92.76-2.29.91-3.35.37-2.3-1.17-2.41-5.56-2.76-7.76-.27-1.69-.27-3.61-.73-5.22-2.45,3.27.1,9.06,2.13,11.81,1.11,1.5,2.56,2.91,2.77,4.87.56,5.32-7.52-.1-8.81-1.54-2.37-2.65-6.65-12.18-7.29-13.67-.62-1.43-.3-3.41-.1-4.9.61-4.6,1.25-9.2,1.91-13.8" style="fill: #fff; fill-rule: evenodd; stroke: #2e3138; stroke-linecap: round; stroke-linejoin: round; stroke-width: 2.11px;"/>
          </g>
          <g>
            <path d="M191.21,219.37c-1.58,1.77-2.53,4.01-3.17,6.3-2.02,7.3-.02,14.28,1.1,21.5.4,2.54,1.43,4.93,2.45,7.29,1.83,4.23,5.78,7.55,10.52,7.68,1.95.05,3.87-.4,5.76-.86,1.96-.47,3.93-.94,5.89-1.41.79-.19,1.6-.39,2.28-.83.72-.46,1.24-1.16,1.7-1.88,2.58-4.02,3.5-8.94,3.41-13.72-.09-4.78-1.11-9.49-2.13-14.16-.4-1.84-.81-3.7-1.5-5.45-1.74-4.42-5.99-9.51-10.95-9.58-5.13-.07-11.81,1.14-15.38,5.13Z" style="fill: #ffac70;"/>
            <path d="M211.71,237.3c1.94,12.77-1.86,23.94-8.5,24.94-6.64,1.01-13.59-8.52-15.53-21.29-1.94-12.77,1.86-23.94,8.5-24.94,6.64-1.01,13.59,8.52,15.53,21.29Z" style="fill: none; stroke: #2e3138; stroke-linecap: round; stroke-linejoin: round; stroke-width: 2.11px;"/>
            <path d="M205.66,214.57c6.64-1.01,13.59,8.52,15.53,21.29,1.74,11.44-.62,20.62-5.97,23.87" style="fill: none; stroke: #2e3138; stroke-linecap: round; stroke-linejoin: round; stroke-width: 2.11px;"/>
            <path d="M197.16,215.82c.06-.11.2-.14.32-.16,2.82-.47,5.66-.88,8.5-1.23" style="fill: none; stroke: #2e3138; stroke-linecap: round; stroke-linejoin: round; stroke-width: 2.11px;"/>
            <path d="M203.2,262.42c4.01-.9,8.01-1.8,12.02-2.7" style="fill: none; stroke: #2e3138; stroke-linecap: round; stroke-linejoin: round; stroke-width: 2.11px;"/>
            <path d="M189.6,232.96c6.11,3.72,12.11,7.6,18,11.65" style="fill: none; stroke: #2e3138; stroke-linecap: round; stroke-linejoin: round; stroke-width: 2.11px;"/>
          </g>
          <path d="M421.11,261.88c2.57,30.87,15.03,60.84,35.11,84.43,1.11,1.31,2.27,2.61,3.72,3.54,1.74,1.11,3.79,1.59,5.8,2.03,32.28,7.07,70.47,7.55,102.86,1" style="fill: none; fill-rule: evenodd; stroke: #2e3138; stroke-linecap: round; stroke-miterlimit: 10; stroke-width: 2.11px;"/>
          <path d="M376.71,272.51c9.65,26.52,8.92,76.19,7.14,82.84-7.14,26.77-28.91,46.86-48.85,66.1" style="fill: none; fill-rule: evenodd; stroke: #2e3138; stroke-linecap: round; stroke-miterlimit: 10; stroke-width: 2.11px;"/>
          <g>
            <path d="M275.67,198.86c-.03-5.84.79-11.68,2.43-17.29.41-1.4.88-2.81,1.78-3.96.89-1.15,2.29-2.01,3.74-1.9,1.73.13,3.13,1.59,3.72,3.23.59,1.63.53,3.42.46,5.15-.36,9.55-.74,19.17-2.75,28.51" style="fill: none; fill-rule: evenodd; stroke: #2e3138; stroke-linecap: round; stroke-miterlimit: 10; stroke-width: 2.11px;"/>
            <path d="M275.67,198.86c-5.25-8.82-9.48-18.22-13.46-27.66-3.32-7.88-6.23-15.53-14.69-19.18-1.76-.76-4.01-1.2-5.4.1-1.17,1.1-1.18,2.97-.75,4.52,1.05,3.78,3.97,6.52,5.86,9.84,2.27,3.98,3.48,4.82,5.55,8.94,2,3.98,3.51,6.16,6.01,9.81" style="fill: none; fill-rule: evenodd; stroke: #2e3138; stroke-linecap: round; stroke-miterlimit: 10; stroke-width: 2.11px;"/>
            <path d="M276.36,221.39c4.47-2.69,8.02-6.9,9.91-11.76" style="fill: none; fill-rule: evenodd; stroke: #2e3138; stroke-linecap: round; stroke-miterlimit: 10; stroke-width: 2.11px;"/>
            <path d="M245.61,221.65c-6.51,2.97.03,9.84,3.33,11.5s7.12,1.92,10.81,1.8c6.91-.22,14.03-1.77,19.49-6.01,5.46-4.24,8.85-11.6,6.97-18.25" style="fill: none; fill-rule: evenodd; stroke: #2e3138; stroke-linecap: round; stroke-miterlimit: 10; stroke-width: 2.11px;"/>
            <path d="M238.94,196.09c7.56.37,15.2-1.1,22.07-4.26" style="fill: none; fill-rule: evenodd; stroke: #2e3138; stroke-linecap: round; stroke-miterlimit: 10; stroke-width: 2.11px;"/>
            <path d="M248.75,169.89c-7.35-7.77-19.01-11.16-29.37-8.55-1.11.28-2.36.77-2.69,1.87-.4,1.34.83,2.59,2.01,3.35,2.5,1.63,5.33,2.75,8.27,3.28,2.02.37,4.13.46,6,1.31,3.74,1.68,5.6,5.79,7.83,9.24,1.82,2.82,4.06,5.36,6.63,7.51" style="fill: none; fill-rule: evenodd; stroke: #2e3138; stroke-linecap: round; stroke-miterlimit: 10; stroke-width: 2.11px;"/>
            <path d="M235.25,173.37c-5.4-.94-13.42-3.31-18.91-2.89-1.38.11-2.78.26-4.03.73-1.25.47-2.35,1.29-2.69,2.35-.45,1.4.54,2.9,2,3.8,1.45.9,3.28,1.3,5.08,1.62,4.64.83,9.38,1.22,14.1,1.62" style="fill: none; fill-rule: evenodd; stroke: #2e3138; stroke-linecap: round; stroke-miterlimit: 10; stroke-width: 2.11px;"/>
            <path d="M229.83,180.82c.98,3.22,2.56,6.26,4.64,8.91" style="fill: none; fill-rule: evenodd; stroke: #2e3138; stroke-linecap: round; stroke-miterlimit: 10; stroke-width: 2.11px;"/>
            <path d="M232.1,186.25c-1.38-1.36-3.45-1.68-5.38-1.82-4.42-.32-8.98.1-13.36.68-1.2.16-2.5.42-3.28,1.34-1.23,1.46-.38,3.89,1.25,4.89,1.63,1,3.68.94,5.57.66,1.89-.27,3.81-.72,5.69-.38,2.26.41,4.15,1.92,5.94,3.37,1.33,1.09,2.71,2.24,3.37,3.82,3.43,8.3,5.34,17.7,13.71,22.83,3.99,2.44,12.25,2.12,16.92,1.8" style="fill: none; fill-rule: evenodd; stroke: #2e3138; stroke-linecap: round; stroke-miterlimit: 10; stroke-width: 2.11px;"/>
            <path d="M249.1,224.14c1,3.16,3.81,8.72,10.65,10.81" style="fill: none; fill-rule: evenodd; stroke: #2e3138; stroke-linecap: round; stroke-miterlimit: 10; stroke-width: 2.11px;"/>
          </g>
        </g>
      </g>
    </g>
  </g>
</svg>