<?xml version="1.0" encoding="UTF-8"?>
<svg id="_圖層_2" data-name="圖層 2" xmlns="http://www.w3.org/2000/svg" xmlns:xlink="http://www.w3.org/1999/xlink" viewBox="0 0 786.99 175.74">
  <defs>
    <filter id="drop-shadow-1" x="98.94" y="0" width="688.05" height="133.73" filterUnits="userSpaceOnUse">
      <feOffset dx="12" dy="12"/>
      <feGaussianBlur result="blur" stdDeviation="0"/>
      <feFlood flood-color="#000" flood-opacity=".2"/>
      <feComposite in2="blur" operator="in"/>
      <feComposite in="SourceGraphic"/>
    </filter>
  </defs>
  <g id="_圖層_1-2" data-name="圖層 1">
    <g>
      <path d="M103.43,10.04C108.9-.15,739.51.89,761.64,2.59c1.97.15,4.27-.03,5.79,1.04,6.18,4.38,7.44,89.63,4.68,91.6-5.95,4.26-491.13.92-545.14,1.95-2.98,11.07-10.72,20.8-25.65,23.04,3.19-2.89,6.39-7.4,6.63-14.05.09-2.33.59-8.2.59-8.2-1.89-1.74-104.1,1.14-106.81-1.45-2.63-2.52-.84-81.74,1.7-86.48Z" style="fill: #fff; filter: url(#drop-shadow-1); stroke: #2e3138; stroke-linecap: round; stroke-linejoin: round; stroke-width: 3px;"/>
      <path d="M171.19,73.03c0,2.83-2.3,5.13-5.13,5.13s-5.13-2.3-5.13-5.13,2.3-5.13,5.13-5.13,5.13,2.3,5.13,5.13Z" style="fill: #ff6d04; stroke: #2e3138; stroke-miterlimit: 10; stroke-width: 3px;"/>
      <path d="M127.69,140.33c7.49,6.75,14.92,14.99,15.48,25.06.04.77.04,1.57-.3,2.26-.68,1.38-2.44,1.84-3.98,1.83-3.99-.04-7.64-2.16-11.52-3.1-9.46-2.28-18.97,2.58-28.36,5.15-2.92.8-5.95,1.39-8.96,1.1-3.49-.33-6.75-1.79-10.1-2.79-8.79-2.63-18.5-2.03-26.9,1.66-1.93.85-3.95,1.88-6.03,1.57-1.12-.17-2.14-.71-3.24-.99-2.82-.73-5.75.33-8.55,1.14-7.57,2.19-15.64,2.64-23.4,1.31-4.46-.77-9.67-3.11-9.98-7.62-.08-1.24.24-2.46.59-3.65,3.27-11.06,9.44-21.54,18.75-28.35,2.96-2.17,6.19-3.93,9.4-5.69,2.71-1.48,5.46-2.98,8.46-3.73,5.48-1.36,11.22-.09,16.78.94,10.58,1.97,21.51,3.06,32.23,1.53,2.63-.37,5.37-.81,7.89-1.66,1.61-.54,3.06-1.6,4.8-1.66,4.34-.16,9.77,3.16,13.36,5.31,4.9,2.94,9.35,6.57,13.59,10.39Z" style="fill: #fff;"/>
      <path d="M94.17,48.99c1.7.51,2.72,2.34,2.91,4.11.19,1.77-.25,3.53-.51,5.29-.95,6.27.3,12.64,1.55,18.86.28,1.39.58,2.83,1.38,4,.7,1.02,1.75,1.76,2.48,2.77,1.4,1.94,1.4,4.52,1.35,6.91-.06,2.81-.13,5.64-.77,8.37-.54,2.31-1.49,4.49-2.23,6.74-2.36,7.09-2.75,14.81-1.12,22.1-5.32,7.05-11.27,14-17.89,19.85-1.27,1.12-2.72,2.28-4.41,2.28-1.03,0-2-.44-2.93-.87-2.26-1.04-4.52-2.07-6.78-3.11-3.23-1.48-6.48-2.97-9.39-5.02-2.47-1.74-4.65-3.86-6.82-5.96-2.76-2.68-5.51-5.36-8.27-8.04-.46-.45-.93-.91-1.21-1.49-.3-.62-.36-1.34-.41-2.03-.28-3.72-.57-7.44-.85-11.16-.14-1.86-.28-3.72-.43-5.58-.09-1.23.24-4.15-.39-5.17-.43-.7-2.18-1.14-2.9-1.8-.87-.79-1.53-1.78-2-2.86-.92-2.11-1.1-4.52-.78-6.78.21-1.44.82-3.02,2.18-3.52.56-.21,1.17-.2,1.77-.18,2.17.05,4.33.09,6.5.14-.09-2.38-.37-4.99-.46-7.37-.07-1.87-.15-3.74.07-5.6.4-3.42,1.76-6.65,3.11-9.82.9-2.11,1.79-4.23,2.92-6.22.24-.42.51-.86.95-1.06.36-.17.77-.14,1.17-.13,3.43.16,6.88-.16,10.23-.93,1.05-.24,2.09-.54,3.05-1.02.91-.46,1.71-1.08,2.55-1.65,2.39-1.62,5.05-2.82,7.68-4,1.53-.69,3.07-1.38,4.72-1.7,1.98-.39,4.03-.24,6.04,0,2.61.31,5.42.9,7.95,1.66Z" style="fill: #fff;"/>
      <path d="M99.2,128.15l-14.97,17.43-5.39,4.38h-4.91l-14.8-8.7-19.47-16.28.69,4.73,4.99,33.08c.3,1.8.6,3.59.9,5.38.27,1.59.87,3.06.83,4.71,0,.11,0,.23.07.31.08.08.21.09.32.09,1.01-.01,2.04.02,3.05-.04.99-.06,2-.26,2.99-.12,1.97.27,3.7,1.45,5.64,1.91,4.12.99,8.21-1.36,12.26-2.61,3.29-1.02,6.8-1.33,10.22-.9,5.54.69,11.82,3.13,17.13.2.14-.08.29-.17.38-.31.11-.19.09-.42.07-.63-.23-2-.43-4.02-.71-6.01-.26-1.83-.13-3.76-.13-5.62,0-4.06,0-8.12,0-12.17v-13.19c0-.81.3-4.98.85-5.64Z" style="fill: #1f89bd;"/>
      <path d="M111.47,57.46c.56,1.9.95,3.85.98,5.83.02,1.72-.23,3.42-.49,5.12-.31,2.04-.42,4.22-.83,6.22-.43,2.04-1.99,3.89-2.76,5.82-.23.58-.42,1.18-.74,1.71-.26.43-.59.81-.93,1.19-1.05,1.18-2.09,2.39-3.16,3.55-.46-1.12-1.44-2.16-2.08-3.2-.71-1.15-1.36-2.35-1.94-3.57-1.16-2.45-2.07-5.02-2.71-7.66-1.27-5.27-1.45-10.81-.44-16.14.25-1.33.58-2.69.33-4.03-.49-2.7-3.63-4.46-6.14-4.77-4.88-.6-9.77.39-14.43,1.78-2.11.63-4.16,1.49-6.3,1.94-2.29.48-4.49,1.38-6.46,2.65-.7.45-1.38.95-2.15,1.27-1.13.47-2.39.52-3.61.57-1.23.05-2.46.09-3.69.14-.97.04-2.34-.17-3.24.26-1.07.51-2.77,3.88-2.77,5.06-3.95,8.11-5.92,16.68-4.59,25.6-1.74-.97-3.8-1.35-5.77-1.04-.55.09-1.12.23-1.67.12-1.32-.26-1.95-1.73-2.32-3.02-.67-2.32-1.17-4.7-1.5-7.09-.33-2.34-.14-4.83-.58-7.13-.87-4.56-1-9.18.3-13.71,2.35-8.21,9-14.68,16.63-18.5,7.63-3.82,16.21-5.29,24.7-6.21,2.04-.22,4.1-.41,6.13-.19,3.9.42,7.38,2.33,10.37,4.79,2.97,2.44,4.99,6.43,7.98,8.63,2.59,1.91,5.86,2,8.41,4.52,2.61,2.58,4.41,6,5.43,9.5Z" style="fill: #ff6d04;"/>
      <path d="M98.34,44.65s-12.74-27.36-53.73-6.27c0,0-23.27,12.41-8.65,48.06" style="fill: none; fill-rule: evenodd; stroke: #2e3138; stroke-linecap: round; stroke-miterlimit: 10; stroke-width: 3px;"/>
      <path d="M98.35,43.57c4.86,1.27,8.79,5.1,11.04,9.59,2.25,4.49,2.98,9.61,3.06,14.63.09,5.5-4.3,13.95-7.18,18.64" style="fill: none; fill-rule: evenodd; stroke: #2e3138; stroke-linecap: round; stroke-miterlimit: 10; stroke-width: 3px;"/>
      <path d="M97.27,53c-4.87-9.43-18.92-5.36-25.75-2.49-3.06,1.28-5.9,3.04-8.98,4.26-7.24,2.87-16.11,2.36-22.09-2.61" style="fill: none; fill-rule: evenodd; stroke: #2e3138; stroke-linecap: round; stroke-miterlimit: 10; stroke-width: 3px;"/>
      <path d="M64.24,46.02c-.99.64-2.1,1.1-3.24,1.4-3.62.96-7.63.28-10.73-1.83" style="fill: none; fill-rule: evenodd; stroke: #2e3138; stroke-linecap: round; stroke-miterlimit: 10; stroke-width: 3px;"/>
      <path d="M84.37,40.46c-2.8-.74-5.86-.47-8.48.75" style="fill: none; fill-rule: evenodd; stroke: #2e3138; stroke-linecap: round; stroke-miterlimit: 10; stroke-width: 3px;"/>
      <path d="M102.49,54.55c1.83,2.53,2.82,5.64,2.79,8.76" style="fill: none; fill-rule: evenodd; stroke: #2e3138; stroke-linecap: round; stroke-miterlimit: 10; stroke-width: 3px;"/>
      <path d="M100.94,66.57c-.52,4.04.87,8.06,2.23,11.91" style="fill: none; fill-rule: evenodd; stroke: #2e3138; stroke-linecap: round; stroke-miterlimit: 10; stroke-width: 3px;"/>
      <path d="M97.27,53c-.84,7.8-1.64,15.92,1.04,23.3,1.3,3.58,3.38,6.83,5.57,9.95" style="fill: none; fill-rule: evenodd; stroke: #2e3138; stroke-linecap: round; stroke-miterlimit: 10; stroke-width: 3px;"/>
      <path d="M50.26,57.06c-5.78,9.07-8.07,20.31-6.3,30.92" style="fill: none; fill-rule: evenodd; stroke: #2e3138; stroke-linecap: round; stroke-miterlimit: 10; stroke-width: 3px;"/>
      <path d="M43.45,86.81c-1.57-.41-3.17-.78-4.8-.74-1.62.04-3.29.55-4.44,1.7-1.08,1.09-1.6,2.66-1.58,4.19.02,1.53.55,3.03,1.31,4.36.53.93,1.18,1.79,1.95,2.52,2.27,2.12,5.43,2.95,8.44,3.7" style="fill: none; fill-rule: evenodd; stroke: #2e3138; stroke-linecap: round; stroke-miterlimit: 10; stroke-width: 3px;"/>
      <path d="M42.8,93.23c-.27-.57-.77-1.05-1.38-1.22-.61-.17-1.32.01-1.73.5-.4.49-.42,1.28.02,1.74" style="fill: none; fill-rule: evenodd; stroke: #2e3138; stroke-linecap: round; stroke-miterlimit: 10; stroke-width: 3px;"/>
      <path d="M96.47,115.32c.94,6.04.99,6.61,1.94,12.07" style="fill: none; fill-rule: evenodd; stroke: #2e3138; stroke-linecap: round; stroke-miterlimit: 10; stroke-width: 3px;"/>
      <path d="M42.17,102.53c.03,10.36-.95,12.79-1.91,20.71" style="fill: none; fill-rule: evenodd; stroke: #2e3138; stroke-linecap: round; stroke-miterlimit: 10; stroke-width: 3px;"/>
      <path d="M92.39,71.2c-.55-.72-1.42-1.15-2.31-1.33s-1.81-.11-2.71.01c-.71.1-1.44.25-1.99.72" style="fill: none; fill-rule: evenodd; stroke: #2e3138; stroke-linecap: round; stroke-miterlimit: 10; stroke-width: 3px;"/>
      <path d="M59.77,69.62c-1.95-1.4-4.73-1.52-6.8-.31" style="fill: none; fill-rule: evenodd; stroke: #2e3138; stroke-linecap: round; stroke-miterlimit: 10; stroke-width: 3px;"/>
      <path d="M76.11,81.92c.18,3.19.39,6.47,1.72,9.38.36.78.81,1.56.9,2.41.13,1.24-.54,2.48-1.52,3.25-.98.77-2.23,1.12-3.48,1.24-1.8.17-3.97-.37-4.6-2.07" style="fill: none; fill-rule: evenodd; stroke: #2e3138; stroke-linecap: round; stroke-miterlimit: 10; stroke-width: 3px;"/>
      <path d="M78.34,123.24c2.43-.01,4.37-.22,7.68-1.31,3.15-1.04,7.42-3.55,9.47-6.16,0,0,5.58-13.24,7.68-28.5" style="fill: none; fill-rule: evenodd; stroke: #2e3138; stroke-linecap: round; stroke-miterlimit: 10; stroke-width: 3px;"/>
      <path d="M98.35,128.81c-3.1,6.78-11.27,13.99-16.56,19.1-1.17,1.13-2.48,2.26-4.45,2.35-1.8.09-3.88-.7-5.87-1.52-12.36-5.06-20.37-15.63-31.8-23.77" style="fill: none; fill-rule: evenodd; stroke: #2e3138; stroke-linecap: round; stroke-miterlimit: 10; stroke-width: 3px;"/>
      <path d="M110.9,167.82c-1.43-2.75-2.07-3.56-3.83-5.96,1.86-4.13,3.72-8.26,5.58-12.39.34-.76.7-1.6.59-2.49-.07-.65-.38-1.22-.68-1.75-4.2-7.49-8.65-14.76-13.32-21.77,0,0,.04,21.19-.11,47.16" style="fill: none; fill-rule: evenodd; stroke: #2e3138; stroke-linecap: round; stroke-linejoin: round; stroke-width: 3px;"/>
      <path d="M29.41,174.24c2.96-3.73,5.92-7.46,8.88-11.19-3.42-3.36-6.84-6.72-10.25-10.09,5.17-8.52,6.46-19.46,11.63-27.98,0,0,3.04,21.16,7.15,47.23" style="fill: none; fill-rule: evenodd; stroke: #2e3138; stroke-linecap: round; stroke-miterlimit: 10; stroke-width: 3px;"/>
      <path d="M47.96,106.9c2.2,6.18,4.48,8.31,7.38,11.21,2.33,2.33,10.66,5.14,17.18,5.36" style="fill: none; fill-rule: evenodd; stroke: #2e3138; stroke-linecap: round; stroke-miterlimit: 10; stroke-width: 3px;"/>
      <path d="M99.24,123.46s18.61,6.11,30.72,18.25,13.99,25.77,13.99,25.77" style="fill: none; fill-rule: evenodd; stroke: #2e3138; stroke-linecap: round; stroke-miterlimit: 10; stroke-width: 3px;"/>
      <path d="M79.37,110.07c-.14-1.66-.91-3.33-2.28-4.27-1.2-.82-2.7-1.01-4.14-1.15-1.19-.12-2.4-.21-3.57.04-1.17.25-2.3.89-2.88,1.94-.53.95-.54,2.09-.48,3.18.08,1.45.32,3.03,1.38,4.03.54.51,1.25.82,1.96,1.03,2.46.72,5.4.51,7.88-.08,2.1-.5,2.29-2.8,2.13-4.72Z" style="fill: none; fill-rule: evenodd; stroke: #2e3138; stroke-linecap: round; stroke-miterlimit: 10; stroke-width: 3px;"/>
      <path d="M91.05,83.01c-.34-.99-1.26-1.75-2.3-1.89-1.03-.14-2.13.34-2.72,1.19" style="fill: none; stroke: #2e3138; stroke-linecap: round; stroke-miterlimit: 10; stroke-width: 3px;"/>
      <path d="M59.77,82.05c-.34-.99-1.26-1.75-2.3-1.89-1.03-.14-2.13.34-2.72,1.19" style="fill: none; stroke: #2e3138; stroke-linecap: round; stroke-miterlimit: 10; stroke-width: 3px;"/>
      <path d="M39.67,124.98s-31.67,7.95-38.17,42.5" style="fill: none; stroke: #2e3138; stroke-linecap: round; stroke-miterlimit: 10; stroke-width: 3px;"/>
      <path d="M124.92,49.06c.12,1.49.34,3.14,1.49,4.1.88.74,2.11.89,3.26.99,5.44.34,10.88.28,16.31.58.15,0,.31.02.42.13.1.1.13.25.14.39.27,2.16.42,4.36.08,6.51-.34,2.15-1.2,4.27-2.74,5.81-2.07,2.09-5.32,2.92-8.14,2.08-3.47-1.03-3.93-3.45-3.43-6.63.03-.19.06-.41-.06-.57-.11-.16-.33-.21-.52-.24-1.96-.34-3.91-.68-5.87-1.02-.89,3.57-1.71,7.62.31,10.69.88,1.33,2.21,2.31,3.61,3.07.52.28,1.05.53,1.59.76,3.94,1.64,8.49,1.83,12.54.48,8.3-2.77,12.4-10.8,12.93-19.07.34-5.3.09-10.63-.77-15.88-.52-3.22-1.42-6.65-3.96-8.69-2.28-1.83-5.88-2.23-8.68-2.77-3.42-.66-7.06-.24-10.21,1.24-7.13,3.34-8.89,10.85-8.3,18.04ZM137.87,39.68c2.09-1.27,4.82-1.34,7.04-.29.96.45,1.84,1.12,2.36,2.04.51.9.63,1.96.66,2.99.06,2.04-.4,2.39-2.33,2.42-1.57.02-9.72.1-10.67-1.28-.12-.17-.2-.38-.23-.61-.27-1.98,1.63-4.32,3.18-5.27Z" style="fill: #ff6d04; stroke: #2e3138; stroke-linecap: round; stroke-linejoin: round; stroke-width: 3px;"/>
    </g>
  </g>
</svg>