<?xml version="1.0" encoding="UTF-8"?>
<svg xmlns="http://www.w3.org/2000/svg" viewBox="0 0 557.04 341.01">
  <g style="isolation: isolate;">
    <g id="_圖層_2" data-name="圖層 2">
      <g id="_圖層_1-2" data-name="圖層 1">
        <g>
          <path d="M4.66,115.97c-1.97-2.81-2.96-6.19-3.47-9.58-1.65-10.81,2.4-20.5,5.24-30.67,1-3.58,2.89-6.84,4.75-10.05,3.35-5.76,9.58-9.85,16.41-9.23,2.8.25,5.48,1.24,8.12,2.21,2.74,1.01,5.48,2.02,8.22,3.03,1.1.41,2.23.83,3.13,1.58.95.79,1.59,1.88,2.12,2.99,3.02,6.22,3.5,13.43,2.56,20.28-.94,6.85-3.21,13.43-5.46,19.97-.89,2.58-1.79,5.17-3.08,7.57-3.25,6.05-10.22,12.63-17.34,11.88-7.38-.78-16.75-3.64-21.2-9.98Z" style="fill: #ffac70;"/>
          <ellipse cx="20.21" cy="89.06" rx="33.8" ry="17.56" transform="translate(-71.02 84.88) rotate(-74.59)" style="fill: none; stroke: #2e3138; stroke-linecap: round; stroke-linejoin: round; stroke-width: 2.08px;"/>
          <path d="M24.58,125.33c9.35,2.58,20.95-9.92,25.91-27.91,4.44-16.12,2.62-29.7-4.51-35.27" style="fill: none; stroke: #2e3138; stroke-linecap: round; stroke-linejoin: round; stroke-width: 2.08px;"/>
          <path d="M12.6,122.08c.07.16.27.23.44.28,3.97,1.16,7.97,2.23,11.99,3.21" style="fill: none; stroke: #2e3138; stroke-linecap: round; stroke-linejoin: round; stroke-width: 2.08px;"/>
          <path d="M29.2,56.23c5.6,1.97,11.2,3.94,16.79,5.91" style="fill: none; stroke: #2e3138; stroke-linecap: round; stroke-linejoin: round; stroke-width: 2.08px;"/>
          <path d="M4.66,96.21c9.4-4.3,18.67-8.85,27.82-13.66" style="fill: none; stroke: #2e3138; stroke-linecap: round; stroke-linejoin: round; stroke-width: 2.08px;"/>
          <path d="M190.95,105.91l-16.8-31.11s-3.91-9.7,8.57-16.44c12.31-6.64,18.02,2.3,18.02,2.3l16.7,30.94-26.5,14.3Z" style="fill: #ff6d04;"/>
          <path d="M217.45,91.61l16.8,31.11s3.91,9.7-8.57,16.44c-12.31,6.64-18.02-2.3-18.02-2.3l-16.7-30.94,26.5-14.3Z" style="fill: #fff;"/>
          <path d="M175.9,65.03s-6.93,4.48,3.01,18.57l28.75,53.26s4.74,4.96,8.67,4.38l-40.43-76.2Z" style="fill: #fffded; mix-blend-mode: multiply;"/>
          <path d="M190.95,105.91l-16.8-31.11s-3.91-9.7,8.57-16.44c12.31-6.64,18.02,2.3,18.02,2.3l16.7,30.94-26.5,14.3Z" style="fill: none; stroke: #2e3138; stroke-linecap: round; stroke-miterlimit: 10; stroke-width: 2.08px;"/>
          <path d="M217.45,91.61l16.8,31.11s3.91,9.7-8.57,16.44c-12.31,6.64-18.02-2.3-18.02-2.3l-16.7-30.94,26.5-14.3Z" style="fill: none; stroke: #2e3138; stroke-linecap: round; stroke-miterlimit: 10; stroke-width: 2.08px;"/>
          <path d="M365.52,49.02l-25.89,24.08s-8.4,6.22-18.06-4.16c-9.53-10.24-2.3-18.02-2.3-18.02l25.75-23.95,20.51,22.05Z" style="fill: #ff6d04;"/>
          <path d="M345.01,26.97l25.89-24.08s8.4-6.22,18.06,4.16c9.53,10.24,2.3,18.02,2.3,18.02l-25.75,23.95-20.51-22.05Z" style="fill: #fff;"/>
          <path d="M329.73,73.87s6.08,5.58,17.22-7.58l44.32-41.22s3.61-5.83,2.06-9.49l-63.59,58.29Z" style="fill: #fffded; mix-blend-mode: multiply;"/>
          <path d="M365.52,49.02l-25.89,24.08s-8.4,6.22-18.06-4.16c-9.53-10.24-2.3-18.02-2.3-18.02l25.75-23.95,20.51,22.05Z" style="fill: none; stroke: #2e3138; stroke-linecap: round; stroke-miterlimit: 10; stroke-width: 2.08px;"/>
          <path d="M345.01,26.97l25.89-24.08s8.4-6.22,18.06,4.16c9.53,10.24,2.3,18.02,2.3,18.02l-25.75,23.95-20.51-22.05Z" style="fill: none; stroke: #2e3138; stroke-linecap: round; stroke-miterlimit: 10; stroke-width: 2.08px;"/>
          <path d="M417.08,108.95c-.19.21-.38.43-.56.66-3.22,4.12-4.32,12.16-.55,17.18-6.81.42-12.04,3.49-15.76,9.12-2.9,4.39-4.67,9.98-3.38,15.58,1.41,6.12,5.94,9.58,11.37,11.11-3.57,1.63-6.28,4-7.18,8.18-.85,3.95.12,8.38,2.17,12.2,1.1,2.04,2.56,4,4.5,5.2,4.21,2.62,9.29,1,12.98-1.53-2.06,6.48,6.2,15.48,12.47,12.85,1.81-.76,3.16-2.6,3.02-4.71,2.92,5.68,9.93,9.02,15.43,7.34,5.5-1.68,8.76-8.15,7.16-14.23,7.4,7.01,15.99,4.5,21.9-1.29,1.38-1.35,2.62-2.9,3.35-4.74,1.11-2.81.95-6.25-.43-9.23,6.14,1.26,12.35-2.32,14.16-8.16s-.97-13.34-6.34-17.09c.22-1.24,2.42-2.15,3.19-3.06,3.91-4.61,4.28-11.6,1.52-17.69-1.79-3.97-5.12-7.85-8.98-9.8-3.22-1.63-8.79-2.58-11.26.13-1.66-5.4-5.37-10.32-11.23-10.85-5.19-.47-9.95,3.41-10.58,8.64-.1-3.71-1.68-7.54-4.3-10.39-1.45-1.58-3.31-2.9-5.3-3.18-2.44-.33-4.64.94-6.43,2.43-2.66,2.22-4.95,5.32-4.87,9.06-.57-3.66-4.14-6.68-7.68-7.12-3.24-.4-6.29,1.06-8.39,3.37Z" style="fill: #ff6d04; stroke: #2e3138; stroke-linecap: round; stroke-linejoin: round; stroke-width: 2.08px;"/>
          <path d="M461.93,125.63c.81-.64,2.03-.45,3.08-.07,2.12.78,4.11,2.34,5.21,4.41s1.21,4.66.05,6.42c-.52.78-1.26,1.38-2.03,1.88-.67.44-1.39.83-2.18,1" style="fill: none; stroke: #2e3138; stroke-linecap: round; stroke-linejoin: round; stroke-width: 2.08px;"/>
          <path d="M471.91,155.47c.82,1.23,1.54,2.54,2.12,3.89.46,1.05.84,2.15.9,3.26.09,1.6-.51,3.09-1.36,4.32-1.68,2.44-4.55,4.07-7.62,3.67-3.07-.4-6.12-3.15-6.46-6.33-1.83,1.27-4.76.71-6.36-1.23-1.6-1.94-1.65-4.96-.09-6.57" style="fill: none; stroke: #2e3138; stroke-linecap: round; stroke-linejoin: round; stroke-width: 2.08px;"/>
          <path d="M432.01,128.98c-1.36-.67-2.86-.23-4.11.36-1.66.8-3.22,1.92-4.12,3.56-.94,1.73-1.06,3.95-.48,6.01.58,2.06,1.84,3.96,3.42,5.44" style="fill: none; stroke: #2e3138; stroke-linecap: round; stroke-linejoin: round; stroke-width: 2.08px;"/>
          <path d="M422.16,159.9c-2.9.63-6.12,1.5-7.39,4.21-.99,2.12-.39,5.04,1.35,6.94s4.47,2.69,6.69,2.04c-.79,5.15,3.98,8.85,8.48,8.92,2.27.04,4.57-.33,6.35-1.59,1.4-1,2.38-2.5,3.33-3.97.67-1.03,1.34-2.42.59-3.57" style="fill: none; stroke: #2e3138; stroke-linecap: round; stroke-linejoin: round; stroke-width: 2.08px;"/>
          <path d="M434.84,159.92c-.51.99-1.04,2.07-.82,3.24.12.66.47,1.28.82,1.87.55.95,1.18,1.95,2.13,2.43.51.26,1.07.34,1.61.34,2.31,0,4.34-1.67,4.81-3.95.16-.76.15-1.59-.16-2.35-.31-.76-.95-1.44-1.72-1.64" style="fill: none; stroke: #2e3138; stroke-linecap: round; stroke-linejoin: round; stroke-width: 2.08px;"/>
          <path d="M439.36,131.28c.21-1.72,1.36-3.06,2.62-4.1.73-.61,1.55-1.16,2.51-1.33.8-.14,1.65-.01,2.46.27,2.14.76,3.99,2.67,4.72,4.89.73,2.22.32,4.68-1.05,6.28" style="fill: none; stroke: #2e3138; stroke-linecap: round; stroke-linejoin: round; stroke-width: 2.08px;"/>
          <path d="M450.94,180.15c.93,1.22,2.46,1.86,3.87,1.86,1.41,0,2.72-.59,3.8-1.41.3-.23.59-.48.75-.84.14-.3.17-.64.19-.98.07-1.12.04-2.25-.08-3.39" style="fill: none; stroke: #2e3138; stroke-linecap: round; stroke-linejoin: round; stroke-width: 2.08px;"/>
          <path d="M389,256.5c.18,1.38.71,2.69,1.66,3.74,1.98,2.21,5.34,2.83,8.19,2.01-2.31,1.72-3.56,4.64-3.65,7.52-.07,2.39.54,6.43,2.27,8.25.71.75,8.25,4.47,8.91,3.56-1.26,1.71-1.04,4.2.08,6s2.98,3.03,4.91,3.93c1.5.7,3.18,1.26,4.79.87,3.77-.92,5.34-5.22,6.12-8.53-.27,1.24.45,2.55,1.52,3.25,1.07.69,2.4.86,3.67.79,2.96-.16,6.04-1.8,7.03-4.6.73-2.07.24-4.34-.27-6.47,2.56.75,5.48.18,7.57-1.48,2.97-2.37,4.83-7.06,2.04-10.18.28,1.22,1.57,2.03,2.81,2.03,1.25,0,2.42-.68,3.28-1.59,3.79-3.97,3.91-11.31,1.5-15.98-1.08-2.09-2.66-4.12-4.61-5.45-.91-.62-5.08-2.96-6.18-2.05,1.93-1.59,3.07-4.03,3.31-6.51.24-2.49-.36-5.01-1.46-7.26-.7-1.44-1.67-2.84-3.09-3.57-2.06-1.06-5.56-.69-7.68.05-.51-1.81-.83-3.63-1.77-5.3-.93-1.65-2.42-3.06-4.27-3.48-1.21-.28-2.47-.11-3.7.08-1.94.3-4.05.76-5.26,2.3-1.08,1.38-.59,3.47-1.65,4.73-1.01,1.22-3.6,1.13-5.03,1.54-1.76.49-2.29-.49-3.78-.98-1.6-.52-3.27.26-4.99.08-1.62-.17-3.22-.61-4.85-.61-3.74-.01-7.29,2.41-8.94,5.76-1.65,3.35-1.46,7.47.21,10.82.61,1.23,1.43,2.39,2.54,3.2,2.64,1.94,6.29,1.55,9.48.83-3.49,1.25-6.95,3.09-9.07,6.14-1.31,1.89-1.94,4.33-1.65,6.57Z" style="fill: #ff6d04; stroke: #2e3138; stroke-linecap: round; stroke-linejoin: round; stroke-width: 2.08px;"/>
          <path d="M404.31,241.35c-2.38-.94-5.29-.51-7.2,1.2s-2.66,4.65-1.67,7.01c.86,2.04,2.95,3.5,5.16,3.6,2.21.1,4.42-1.16,5.46-3.12" style="fill: #ff6d04; stroke: #2e3138; stroke-linecap: round; stroke-linejoin: round; stroke-width: 2.08px;"/>
          <path d="M418.06,226.99c2.99-.36,5.74,2.25,6.42,5.18.18.77.25,1.56.11,2.34-.34,1.9-2,3.45-3.9,3.81-1.9.36-3.93-.41-5.24-1.83" style="fill: none; stroke: #2e3138; stroke-linecap: round; stroke-linejoin: round; stroke-width: 2.08px;"/>
          <path d="M417.11,261.85c-1.04.53-1.71,1.63-1.95,2.78-.24,1.14-.11,2.33.09,3.49.43,2.42,1.36,5.02,3.52,6.19,2.17,1.18,4.85.52,7.21-.21,2-.62,4.2-1.46,5.08-3.36.95-2.06-.05-4.45-1.05-6.5" style="fill: none; stroke: #2e3138; stroke-linecap: round; stroke-linejoin: round; stroke-width: 2.08px;"/>
          <path d="M427.14,263.43c2.43.72,5.26-1.37,5.28-3.91s-2.79-4.67-5.23-3.97" style="fill: none; stroke: #2e3138; stroke-linecap: round; stroke-linejoin: round; stroke-width: 2.08px;"/>
          <path d="M435.68,239.95c-.34-1.19.17-2.5,1.02-3.4s1.99-1.46,3.13-1.94c2.88-1.23,6.4-2.05,8.98-.28,1.77,1.21,2.62,3.33,3.39,5.33.75,1.96,1.51,4.05,1.11,6.1-.4,2.06-1.93,3.77-3.74,4.83s-3.9,1.55-5.96,1.93" style="fill: #ff6d04; stroke: #2e3138; stroke-linecap: round; stroke-linejoin: round; stroke-width: 2.08px;"/>
          <path d="M399.72,225.46c-.13-2.75,1.15-5.53,3.32-7.23,1.05-.82,2.27-1.38,3.53-1.82,1.49-.52,3.06-.86,4.63-.73,2.29.19,4.44,1.41,5.93,3.15,1.49,1.75,2.34,3.99,2.58,6.28.16,1.49.06,3.03-.47,4.43" style="fill: #ff6d04; stroke: #2e3138; stroke-linecap: round; stroke-linejoin: round; stroke-width: 2.08px;"/>
          <path d="M534.64,251.4c1.11-.81,2.03-1.9,2.56-3.22,1.13-2.77.37-5.99-1.42-8.08,2.36,1.19,5.33.89,7.82-.4,2.07-1.07,5.29-3.53,6.18-5.9.37-.98.66-9.31-.37-9.45,1.95.28,3.99-1.09,5.1-2.93s1.44-4.04,1.48-6.14c.03-1.64-.14-3.37-1.09-4.58-2.23-2.84-6.51-2.17-9.63-1.27,1.17-.35,2.01-1.61,2.19-2.87.18-1.26-.18-2.5-.73-3.57-1.28-2.5-3.85-4.4-6.62-3.94-2.05.34-3.8,1.86-5.43,3.31-.34-2.59-1.94-4.86-4.17-5.88-3.16-1.46-7.89-.85-9.48,3.06.93-.82,1.13-2.33.65-3.41-.48-1.08-1.51-1.78-2.61-2.1-4.85-1.41-11.17,1.97-14.23,6.29-1.37,1.94-2.5,4.27-2.89,6.61-.18,1.09-.58,5.83.61,6.36-2.1-.93-4.62-.76-6.84.22-2.22.97-4.15,2.7-5.65,4.72-.96,1.3-1.79,2.8-1.87,4.39-.12,2.29,1.54,5.17,2.99,6.66-1.35,1.3-2.79,2.45-3.85,4.06-1.05,1.59-1.69,3.56-1.34,5.37.23,1.19.85,2.21,1.49,3.19,1,1.55,2.2,3.17,3.98,3.48,1.6.28,3.19-1.13,4.68-.82,1.43.3,2.35,2.59,3.25,3.65,1.1,1.29.45,2.23.61,3.75.17,1.64,1.47,2.72,1.98,4.3.47,1.49.71,3.09,1.33,4.51,1.42,3.26,4.85,5.21,8.35,5.05,3.5-.16,6.95-2.28,9.17-5.32.82-1.12,1.5-2.38,1.77-3.73.64-3.22-1.08-6.21-2.92-8.65,2.41,2.44,5.3,4.59,8.72,4.98,2.11.24,4.45-.37,6.25-1.69Z" style="fill: #ff6d04; stroke: #2e3138; stroke-linecap: round; stroke-linejoin: round; stroke-width: 2.08px;"/>
          <path d="M515.82,245.28c.11,2.52,1.59,4.85,3.79,5.7,2.19.85,4.99.11,6.63-1.88,1.42-1.72,1.86-4.23,1.1-6.2-.76-1.97-2.69-3.3-4.76-3.27" style="fill: #ff6d04; stroke: #2e3138; stroke-linecap: round; stroke-linejoin: round; stroke-width: 2.08px;"/>
          <path d="M498.27,240.13c-1.45-2.44-.28-6.07,1.97-8.06.59-.52,1.24-.96,1.96-1.21,1.76-.61,3.72.1,4.75,1.58,1.03,1.48,1.16,3.62.44,5.43" style="fill: none; stroke: #2e3138; stroke-linecap: round; stroke-linejoin: round; stroke-width: 2.08px;"/>
          <path d="M502.6,218.64c-.89.86-2.2,1.04-3.3.72-1.09-.31-2.01-1.04-2.86-1.8-2.15-1.92-4.2-4.6-3.68-7.69.36-2.11,1.84-3.87,3.26-5.48,1.39-1.58,2.88-3.24,4.79-3.87,1.91-.64,3.96-.11,5.56.96,1.6,1.08,2.82,2.66,3.94,4.27" style="fill: #ff6d04; stroke: #2e3138; stroke-linecap: round; stroke-linejoin: round; stroke-width: 2.08px;"/>
          <path d="M503.99,256.83c-2.3,1.42-5.17,1.63-7.45.55-1.1-.52-2.05-1.32-2.91-2.21-1.01-1.05-1.91-2.25-2.4-3.68-.72-2.08-.5-4.53.42-6.66.92-2.13,2.52-3.94,4.38-5.23,1.21-.84,2.56-1.49,3.97-1.69" style="fill: #ff6d04; stroke: #2e3138; stroke-linecap: round; stroke-linejoin: round; stroke-width: 2.08px;"/>
          <path d="M418.26,68.15c-6.31,2.01-12.25,5.15-17.47,9.22" style="fill: none; stroke: #2e3138; stroke-linecap: round; stroke-linejoin: round; stroke-width: 4.16px;"/>
          <path d="M370.4,104.4c-8.29,6.63-16.08,13.89-23.28,21.7" style="fill: none; stroke: #2e3138; stroke-linecap: round; stroke-linejoin: round; stroke-width: 4.16px;"/>
          <path d="M336.91,158c-2.86,7.73-5.05,15.71-6.53,23.81" style="fill: none; stroke: #2e3138; stroke-linecap: round; stroke-linejoin: round; stroke-width: 4.16px;"/>
          <path d="M332.49,204.68c-.77,6.78-.52,13.67.75,20.38" style="fill: none; stroke: #2e3138; stroke-linecap: round; stroke-linejoin: round; stroke-width: 4.16px;"/>
          <path d="M341.72,254.2c1.91,6.03,3.82,12.07,5.74,18.1" style="fill: none; stroke: #2e3138; stroke-linecap: round; stroke-linejoin: round; stroke-width: 4.16px;"/>
          <path d="M366.86,299.03c5.9,6.98,12.77,13.14,20.34,18.26" style="fill: none; stroke: #2e3138; stroke-linecap: round; stroke-linejoin: round; stroke-width: 4.16px;"/>
          <path d="M418.8,333.85c7.42,1.13,14.76,2.83,21.92,5.08" style="fill: none; stroke: #2e3138; stroke-linecap: round; stroke-linejoin: round; stroke-width: 4.16px;"/>
          <path d="M444.42,60.56c6.44-2.22,13.62-2.26,20.09-.1" style="fill: none; stroke: #2e3138; stroke-linecap: round; stroke-linejoin: round; stroke-width: 4.16px;"/>
          <path d="M341.82,235.84l37.03,16.07s10.36,5.94,3.91,20.8c-6.36,14.65-17.8,10.65-17.8,10.65l-36.83-15.98,13.68-31.54Z" style="fill: #1f89bd;"/>
          <path d="M328.13,267.37l-37.03-16.07s-10.36-5.94-3.91-20.8c6.36-14.65,17.8-10.65,17.8-10.65l36.83,15.98-13.68,31.54Z" style="fill: #fff;"/>
          <path d="M384.18,261.9s3.06-8.92-15.8-14.54l-63.39-27.5s-7.75-1.11-10.87,2.19l90.06,39.85Z" style="fill: #fffded; mix-blend-mode: multiply;"/>
          <path d="M341.82,235.84l37.03,16.07s10.36,5.94,3.91,20.8c-6.36,14.65-17.8,10.65-17.8,10.65l-36.83-15.98,13.68-31.54Z" style="fill: none; stroke: #2e3138; stroke-linecap: round; stroke-miterlimit: 10; stroke-width: 2.08px;"/>
          <path d="M328.13,267.37l-37.03-16.07s-10.36-5.94-3.91-20.8c6.36-14.65,17.8-10.65,17.8-10.65l36.83,15.98-13.68,31.54Z" style="fill: none; stroke: #2e3138; stroke-linecap: round; stroke-miterlimit: 10; stroke-width: 2.08px;"/>
          <path d="M339.9,79.6c-1.47,9.76,2.8,20.17,10.69,26.08" style="fill: none; stroke: #2e3138; stroke-linecap: round; stroke-miterlimit: 10; stroke-width: 2.08px;"/>
          <path d="M338.96,117.29c-3.66-7.45-11.08-12.3-18.55-15.92-25.17-12.21-55.01-14.46-81.72-6.15" style="fill: none; stroke: #2e3138; stroke-linecap: round; stroke-miterlimit: 10; stroke-width: 2.08px;"/>
        </g>
      </g>
    </g>
  </g>
</svg>