<?xml version="1.0" encoding="UTF-8"?>
<svg id="_圖層_2" data-name="圖層 2" xmlns="http://www.w3.org/2000/svg" viewBox="0 0 222.75 577.76">
  <g id="_圖層_1-2" data-name="圖層 1">
    <g>
      <path d="M60.63,126.63c1.58-1.27,3.7-1.87,5.71-1.6,1.05.14,2.11.53,2.81,1.33,1.22,1.4.95,3.54.32,5.29-.77,2.16-1.77,4.38-3.47,5.91-2.61,2.35-1.07,7.45-3.94,9.47-.82.58-2,.94-2.17,1.92-.08.47.12.99-.11,1.41-.29.52-1.01.52-1.58.69-1.86.53-2.44,3.06-4.2,3.88-1.11.52-2.48.24-3.55.84-1.32.74-1.68,2.49-2.77,3.55-1.1,1.07-2.75,1.27-4.28,1.33-3.6.16-7.22-.11-10.76-.79-.43-.08-.9-.2-1.18-.54-.31-.39-.27-.95-.27-1.45-.01-2.64-1.75-4.99-2.11-7.6-.47-3.47,1.51-7.04.58-10.42-.22-.8-.6-1.63-.34-2.41.16-.49.54-.87.89-1.25,2.03-2.2,3.33-5.06,3.66-8.04.06-.51.09-1.05.37-1.47.26-.39.69-.63,1.1-.85,2.03-1.11,4.07-2.21,6.1-3.32,1.42-.77,2.86-1.55,4.43-1.97,1.18-.31,2.41-.4,3.63-.49,2.3-.17,5.24-1.13,7.12.39.65.53,4.85,5.35,4,6.19Z" style="fill: #fff;"/>
      <path d="M39.13,90.5c.87,4.28,2.02,8.6,4.41,12.27,4.96,7.61,14.71,11.16,23.76,10.47,1.03-.08,2.14-.19,3.04.33.87.5,1.32,1.47,1.73,2.39,1.68,3.77,3.36,7.55,5.04,11.32-1.38.77-2.76,1.54-4.14,2.31,2.08,2.59,2.36,6.13,2.98,9.39.62,3.26,2.02,6.84,5.11,8.05,4.24,1.66,8.51-2.01,11.8-5.17,7.59-7.28,16.35-13.34,25.83-17.88,3.62-1.73,7.78-3.76,8.72-7.66.57-2.36-.24-4.82-1.05-7.11-2.46-7-4.91-14.01-7.37-21.01-.45-1.29-.91-2.72-.42-4,.47-1.22,1.67-1.97,2.79-2.64,3.07-1.84,6.26-3.97,7.64-7.26,1.39-3.3-.07-7.99-3.59-8.64-1.75-.32-3.51.4-5.28.63-1.77.22-3.96-.36-4.43-2.09-.26-.96.12-1.98.03-2.96-.21-2.46-2.95-3.76-5.3-4.5-17.76-5.62-36.68-7.48-55.2-5.52-8.14.86-17.19-.17-17.97,9.28-.83,10-.11,20.2,1.87,30.03Z" style="fill: #fff;"/>
      <path d="M28.11,159.29c-8.33,10.74-10.98,24.71-16.74,37.01-2.96,6.33-6.78,12.27-9.18,18.83-2.4,6.56-3.27,14.1-.25,20.41,2.35,4.91,7.01,8.66,12.32,9.89,8.55,1.98,17.26-2.38,24.35-7.54,5.48-3.99,10.54-8.56,15.08-13.6,2.27-2.52,4.41-5.16,6.41-7.9,1.67-2.29,3.46-5.62,6.75-5.67-.44,4.19.02,8.46,1.33,12.46,1.32,4.04,3.49,7.76,4.86,11.78,1.25,3.68,1.82,7.56,2.37,11.4,1.02,7.07,2.05,14.16,2.41,21.31.15,3.08-.04,6.07.71,9.02,1.55,6.15,2.46,12.22,3.15,18.51.02.22.06.46.2.63.17.2.46.25.72.28,5.26.69,10.51,1.38,15.8,1.77,5.92.44,11.87.49,17.78,1.14,2.78.31,5.51,1.04,8.3,1.03,3.05,0,6.1.06,9.14.17,12.11.43,24.34,1.46,36.39-.4.84-.13,1.68-.27,2.51-.43,3.16-.6,6.27-1.41,9.39-2.22,4.92-1.28,9.83-2.56,14.75-3.84,2.52-.66,5.04-1.31,7.55-1.97.76-.2,3.06-.38,3.58-.93.63-.68.12-2.17.02-3.13-1.08-10.21-1.14-20.49-1.21-30.75-.03-4.59,3.83-6.34,5.99-10.03,5.63-9.63,2.84-20.55,1.56-30.94-1.07-8.66-1.46-17.5-4.2-25.85-1.18-3.62-1.67-7.37-3.06-10.96-.73-1.89-1.58-3.73-2.39-5.58-.8-1.82-1.33-3.94-2.3-5.66-1.86-3.32-3.8-6.56-5.44-10.04-2.93-6.22-5.61-12.6-9.34-18.4-3.51-5.45-8.66-10.89-14.02-14.56-4.98-3.41-10.82-5.33-16.63-6.98-10.05-2.86-20.28-5.06-30.61-6.59,1.89.94,2.24,3.66,1.29,5.55-.96,1.88-2.81,3.12-4.58,4.27-10.7,6.94-21.41,13.87-32.11,20.81-2.64,1.71-5.35,3.45-8.4,4.19-.52.13-1.09.22-1.59,0-.56-.25-.88-.83-1.16-1.37-1.31-2.55-2.62-5.11-3.94-7.66-1.04-2.02-2-5.32-3.89-6.71-.32-.24-.8-.32-1.12-.07-.13.1-.22.25-.31.39-.98,1.62-1.95,3.24-2.91,4.88-.24.42-.49.84-.67,1.29-.53,1.29-.65,2.6-1.4,3.79-.67,1.06-1.48,2.06-2.1,3.23-.9,1.7-1.79,3.4-2.81,5.02-1.2,1.91-2.02,2.33-4.39,1.83-.3.6.24,1.26.31,1.93.26,2.33-3.53,3.03-5.15,3.06-.73.01-1.49-.08-2.16.2-2.4,1-1.57,5.47-4.03,6.31-.63.21-1.31.1-1.97-.01-4.62-.8-10.32-1.79-14.94-2.59Z" style="fill: #1f89bd;"/>
      <g>
        <path d="M82.06,299.27c-.26.49-.44,1.08-.52,1.81-.58,5.16.17,10.84.25,16.02.15,9.42.3,18.85.45,28.27l1.2,75.49c.38,23.75.75,47.51,1.13,71.26.17,10.55.33,21.09.5,31.64l1.22,1.89,33.41.24,2.18-2.12,11.6-99.31,6.17-41.14,4.36,31.95,13.07,91.15,3.49,18,2.45,3.04,34.96-1.64,7.59-172.11c0-3.31.3-6.64.45-9.94.53-11.57,1.05-23.13,1.58-34.7.13-2.89.38-5.79.39-8.68.01-2.16.64-6.94-1.66-8.16-3.1-1.65-13.42,2.61-16.86,3.39-4.47,1.02-8.95,2.03-13.49,2.68-3.92.56-7.88.84-11.83,1.12-24.77,1.77-49.91,3.51-74.22-1.57-3.27-.68-6.57-1-7.86,1.44Z" style="fill: #fff;"/>
        <path d="M71.5,573.55c5.42,2.22,11.46,2.07,17.3,1.87,3.4-.12,7.01-.3,9.81-2.28,1.5-1.06,2.64-2.55,3.76-4.02,2.8-3.69,5.6-7.38,8.4-11.06,2.11-2.78,4.31-5.78,4.58-9.29-2.11-.28-3.92,1.42-5.35,3.02-2.83,3.19-5.52,6.52-8.03,9.97-1.44,1.98-2.93,4.09-5.13,5.12-1.84.86-3.95.85-5.98.82-4.05-.06-8.1-.12-12.16-.18-3.02-.04-6.08-.1-8.99-.94-1.79-.52-8.78-5.62-6.83-.8,1.44,3.56,5.2,6.38,8.6,7.77Z" style="fill: #4b4c4e;"/>
        <path d="M78.07,536.5c-.68,1-1.42,2-2.4,2.7-1.1.79-2.44,1.16-3.67,1.74-3.45,1.64-5.89,4.98-7.23,8.6-1.34,3.62-1.69,7.54-1.91,11.4-.04.67-.06,1.38.3,1.95.34.54.97.82,1.55,1.07,5.16,2.15,10.5,3.97,16.04,4.64,8.56,1.04,18.02-1.11,23.62-7.78,1.66-1.98,2.92-4.27,4.43-6.37,1.22-1.7,2.6-3.27,3.87-4.93,4.82-6.28,8.08-13.78,9.39-21.64.07-.39.12-.81-.03-1.18-.35-.83-1.47-.89-2.35-.82-8.7.7-17.44.88-26.17.55-2.71-.1-7.91-1.59-9.99.45-2.27,2.22-3.59,6.91-5.46,9.63Z" style="fill: #9e9e9f;"/>
        <path d="M212.02,574.58c-5.42,2.22-11.46,2.07-17.3,1.87-2.68-.09-5.47-.2-7.98-1.27-2.77-1.18-4.83-2.5-6.75-4.76-3.01-3.53-5.59-8.36-8.18-12.23-.96-1.44-1.86-2.91-2.76-4.39-.73-1.2-1.48-2.44-1.75-3.82,1.28-.08,2.17-.29,3.37.36,1.1.6,2.02,1.54,2.85,2.48,2.83,3.19,5.52,6.52,8.03,9.97,1.44,1.98,2.93,4.09,5.13,5.12,1.84.86,3.95.85,5.98.82,4.05-.06,8.1-.12,12.16-.18,3.02-.04,6.08-.1,8.99-.94,1.79-.52,8.78-5.62,6.83-.8-1.44,3.56-5.2,6.38-8.6,7.77Z" style="fill: #4b4c4e;"/>
        <path d="M204.62,538.07c.68,1,1.42,2,2.4,2.7,1.1.79,2.44,1.16,3.67,1.74,2.34,1.11,4.22,3.02,5.58,5.22.67,1.07,1.03,2.29,1.64,3.36.74,1.31,1.77,2.25,2.06,3.82.13.71.1,1.43.07,2.15-.08,1.81-.15,3.61-.23,5.42-.07,1.73-.16,2.35-1.83,3.05-5.16,2.15-10.5,3.97-16.04,4.64-8.56,1.04-18.02-1.11-23.62-7.78-1.66-1.98-2.92-4.27-4.43-6.37-1.22-1.7-2.6-3.27-3.87-4.93-4.82-6.28-8.08-13.78-9.39-21.64-.07-.39-.12-.81.03-1.18.35-.83,1.47-.89,2.35-.82,8.7.7,17.44.88,26.17.55,2.71-.1,7.91-1.59,9.99.45,2.27,2.22,3.59,6.91,5.46,9.63Z" style="fill: #9e9e9f;"/>
        <path d="M81.44,296.33s3.62,167.94,3.62,229.22c0,0,23.75,1.98,36.26,0l17.58-146.36" style="fill: none; stroke: #2e3138; stroke-linecap: round; stroke-miterlimit: 10; stroke-width: 2.42px;"/>
        <path d="M133.46,342.46c4.21,18.95,23.92,182.75,28.19,184.56h36.26l6.4-159.52c5.21-54.04,3.34-76.44,3.34-76.44" style="fill: none; stroke: #2e3138; stroke-linecap: round; stroke-miterlimit: 10; stroke-width: 2.42px;"/>
        <path d="M121.32,525.55c2.17,13.31-4.85,19.41-7.48,23.19-1.94,2.78-3.87,5.56-5.81,8.35-1.64,2.36-3.43,5.14-5.55,7.08-1.77,1.61-4.02,3.04-6.32,3.71-1.03.3-6.94,1.12-8.33,1.25-5.1.47-9.42.09-14.39-1.24-2.26-.61-4.45-1.47-6.51-2.6-1.74-.96-3.45-2.2-4.27-4.03-.72-1.63-.64-3.51-.38-5.27.63-4.28,2.24-8.46,4.99-11.76,2.75-3.3,6.7-5.65,10.93-6.04" style="fill: none; stroke: #2e3138; stroke-linecap: round; stroke-miterlimit: 10; stroke-width: 2.42px;"/>
        <path d="M75.77,538.02c3.87-4.4,5.16-8.32,9.29-12.47" style="fill: none; stroke: #2e3138; stroke-linecap: round; stroke-miterlimit: 10; stroke-width: 2.42px;"/>
        <path d="M62.44,554.97c-1.13,3.95-2.8,11.39,4.34,16.5,3.31,2.37,7.5,3.04,11.53,3.37,3.29.27,6.6.32,9.9.16,2.96-.14,5.95-.29,8.73-1.42,5.08-2.07,7.76-6.51,10.79-10.88,3.28-4.74,6.41-9.6,9.37-14.56,2.56-4.29,5.42-11.39,4.63-16.34" style="fill: none; stroke: #2e3138; stroke-linecap: round; stroke-miterlimit: 10; stroke-width: 2.42px;"/>
        <path d="M97.87,528.32c-3.38,3.36-6.15,7.36-8.11,11.74" style="fill: none; stroke: #2e3138; stroke-linecap: round; stroke-miterlimit: 10; stroke-width: 2.42px;"/>
        <path d="M91.33,530.09c3.05-.33,6.41-.58,8.89,1.26" style="fill: none; stroke: #2e3138; stroke-linecap: round; stroke-miterlimit: 10; stroke-width: 2.42px;"/>
        <path d="M88.41,533.24c3.05-.63,6.37.24,8.74,2.3" style="fill: none; stroke: #2e3138; stroke-linecap: round; stroke-miterlimit: 10; stroke-width: 2.42px;"/>
        <path d="M86.13,537.78c2.38-.18,4.78-.02,7.12.48,1.15.25,2.41.68,2.92,1.75" style="fill: none; stroke: #2e3138; stroke-linecap: round; stroke-miterlimit: 10; stroke-width: 2.42px;"/>
        <path d="M161.65,527.02c-2.17,13.31,4.85,19.41,7.48,23.19,1.94,2.78,3.87,5.56,5.81,8.35,1.64,2.36,3.43,5.14,5.55,7.08,1.77,1.61,4.02,3.04,6.32,3.71,1.03.3,6.94,1.12,8.33,1.25,5.1.47,9.42.09,14.39-1.24,2.26-.61,4.45-1.47,6.51-2.6,1.74-.96,3.45-2.2,4.27-4.03.72-1.63.64-3.51.38-5.27-.63-4.28-2.24-8.46-4.99-11.76-2.75-3.3-6.7-5.65-10.93-6.04" style="fill: none; stroke: #2e3138; stroke-linecap: round; stroke-miterlimit: 10; stroke-width: 2.42px;"/>
        <path d="M207.2,539.49c-3.87-4.4-5.16-8.32-9.29-12.47" style="fill: none; stroke: #2e3138; stroke-linecap: round; stroke-miterlimit: 10; stroke-width: 2.42px;"/>
        <path d="M220.53,556.44c1.13,3.95,2.8,11.39-4.34,16.5-3.31,2.37-7.5,3.04-11.53,3.37-3.29.27-6.6.32-9.9.16-2.96-.14-5.95-.29-8.73-1.42-5.08-2.07-7.76-6.51-10.79-10.88-3.28-4.74-6.41-9.6-9.37-14.56-2.56-4.29-5.42-11.39-4.63-16.34" style="fill: none; stroke: #2e3138; stroke-linecap: round; stroke-miterlimit: 10; stroke-width: 2.42px;"/>
        <path d="M185.11,529.79c3.38,3.36,6.15,7.36,8.11,11.74" style="fill: none; stroke: #2e3138; stroke-linecap: round; stroke-miterlimit: 10; stroke-width: 2.42px;"/>
        <path d="M191.64,531.55c-3.05-.33-6.41-.58-8.89,1.26" style="fill: none; stroke: #2e3138; stroke-linecap: round; stroke-miterlimit: 10; stroke-width: 2.42px;"/>
        <path d="M194.57,534.7c-3.05-.63-6.37.24-8.74,2.3" style="fill: none; stroke: #2e3138; stroke-linecap: round; stroke-miterlimit: 10; stroke-width: 2.42px;"/>
        <path d="M196.84,539.25c-2.38-.18-4.78-.02-7.12.48-1.15.25-2.41.68-2.92,1.75" style="fill: none; stroke: #2e3138; stroke-linecap: round; stroke-miterlimit: 10; stroke-width: 2.42px;"/>
        <path d="M194.83,318.6c1.05,8.42,2.09,16.85,3.14,25.27.56,4.5,1.93,9.98,6.27,11.03" style="fill: none; stroke: #2e3138; stroke-linecap: round; stroke-linejoin: round; stroke-width: 2.42px;"/>
      </g>
      <g>
        <path d="M33.88,58.54c-.08.17-.15.34-.16.53,0,.2.07.4.16.59.41.91.95,1.76,1.62,2.5.51-.12.87-.59,1.04-1.09.17-.5.18-1.03.26-1.55.13-.89.43-1.75.61-2.63.13-.6.35-1.57,0-2.14-.41-.68-.92.02-1.27.39-.93,1.01-1.7,2.16-2.26,3.4Z" style="fill: #ff6d04;"/>
        <g>
          <path d="M108.4,194.36c-.75-1.79-1.04-3.76-1.9-5.51-.86-1.76-2.25-3.21-3.14-4.94-1.14-2.22-1.4-4.77-2.28-7.1-.88-2.33-2.72-4.63-5.21-4.76-.74-.04-1.52.14-2.08.62-1.31,1.13-.92,3.22-.42,4.87.49,1.63.99,3.25,1.48,4.88.25.81.49,1.64.45,2.49s-.45,1.72-1.21,2.1c-.77.39-1.73.17-2.44-.31-.71-.48-1.22-1.2-1.72-1.9-3.55-5-7.1-10-10.65-15-.53-.74-1.08-1.51-1.88-1.94-.8-.43-1.91-.43-2.5.27-.7.83-.33,2.08-.05,3.13s.23,2.49-.79,2.86c-1.06.38-2.1-.78-3.23-.71-.77.05-1.41.69-1.68,1.41-.27.72-.26,1.52-.23,2.29.07,2.19.25,4.55,1.63,6.25-1.01.1-1.64,1.23-1.59,2.24.05,1.01.59,1.92,1.07,2.81,2.22,4.07,3.58,8.57,5.93,12.57,1.21,2.06,2.68,3.96,4.31,5.71,3.75,4.02,8.32,7.17,12.85,10.28,1.26.87,2.46,1.27,3.85,1.85,1.47.61,2.76,1.58,3.97,2.61,1.72,1.46,3.35,3.08,5.39,4.06.61-.44.78-1.26.9-2,.43-2.57.56-5.43,1.38-7.89.82-2.46,2.35-4.61,3.78-6.75.51-.77,1.03-1.57,1.2-2.47.2-1.07-.34-1.88-.65-2.85-.32-1.04-.56-2.05-1.05-3.03-1.05-2.11-2.59-3.94-3.5-6.12Z" style="fill: #fff;"/>
          <path d="M113.16,197.96c.23.61.49,1.25,1,1.65.68.53,1.63.51,2.49.44,3.5-.29,6.94-1.06,10.37-1.82,2.37-.53,4.73-1.06,7.1-1.59.81-.18,1.69-.41,2.15-1.1.46-.69.33-1.6.18-2.41-1.39-7.62-3.13-15.18-5.23-22.65-6.84.51-13.63,1.72-20.23,3.61-2.07.59-2.67,1.02-2.44,3.05.27,2.35.49,4.7.89,7.04.8,4.7,2.04,9.33,3.72,13.79Z" style="fill: #ffad0f;"/>
          <path d="M51.89,68.94c.4,1.74-.68,3.47-2.42,3.87-1.74.4-3.47-.68-3.87-2.42-.4-1.74.68-3.47,2.42-3.87s3.47.68,3.87,2.42Z" style="fill: #2e3138;"/>
          <path d="M80.8,65.81c.4,1.74-.68,3.47-2.42,3.87s-3.47-.68-3.87-2.42.68-3.47,2.42-3.87c1.74-.4,3.47.68,3.87,2.42Z" style="fill: #2e3138;"/>
          <path d="M111.62,71.82c2.39-4,7.22-6.39,11.85-5.88,2.98.33,6.11,2.19,6.59,5.15.33,2.04-.67,4.06-1.89,5.71-3,4.05-7.91,6.92-12.94,6.51" style="fill: none; stroke: #2e3138; stroke-linecap: round; stroke-miterlimit: 10; stroke-width: 2.42px;"/>
          <path d="M38.7,45.02s-14.51,78.11,34.17,66.71" style="fill: none; stroke: #2e3138; stroke-linecap: round; stroke-miterlimit: 10; stroke-width: 2.42px;"/>
          <line x1="118.94" y1="84.49" x2="127.33" y2="115.29" style="fill: none; stroke: #2e3138; stroke-linecap: round; stroke-miterlimit: 10; stroke-width: 2.42px;"/>
          <path d="M71.43,112.48c1.9,5.13,3.79,10.25,5.69,15.38" style="fill: none; stroke: #2e3138; stroke-linecap: round; stroke-miterlimit: 10; stroke-width: 2.42px;"/>
          <path d="M60.02,62.62c.42,3.56-.1,7.22-1.48,10.53-.43,1.03-.96,2.09-.87,3.21.06.68.35,1.32.74,1.88,1.66,2.35,5.34,2.93,7.64,1.2" style="fill: none; stroke: #2e3138; stroke-linecap: round; stroke-miterlimit: 10; stroke-width: 2.42px;"/>
          <path d="M74,59.19c3.94-.26,7.96.64,11.41,2.55" style="fill: none; stroke: #2e3138; stroke-linecap: round; stroke-miterlimit: 10; stroke-width: 2.42px;"/>
          <path d="M53.47,60.09c-3.98.51-7.81,2.16-10.92,4.69" style="fill: none; stroke: #2e3138; stroke-linecap: round; stroke-miterlimit: 10; stroke-width: 2.42px;"/>
          <path d="M75.09,85.97c1.41.33,2.52,1.68,2.57,3.14" style="fill: none; stroke: #2e3138; stroke-linecap: round; stroke-miterlimit: 10; stroke-width: 2.42px;"/>
          <path d="M76.49,127.63c-1.44.41-5.32,2.33-3.36,2.8,1.47,7.54,7.26,17.94,8.43,17.59,1.14-.34,37.31-24.31,46.21-30.21.72-.48,1.5-1.08,1.59-1.95.09-.86-1.07-1.71-1.65-1.06" style="fill: none; stroke: #2e3138; stroke-linecap: round; stroke-miterlimit: 10; stroke-width: 2.42px;"/>
          <path d="M118.14,73.03c.28-.74,1.12-1.07,1.87-1.32.17-.06.35-.12.53-.12.36,0,.69.23.92.5.7.83.71,2.17,0,3" style="fill: none; stroke: #2e3138; stroke-linecap: round; stroke-miterlimit: 10; stroke-width: 2.42px;"/>
          <path d="M207.87,251.88c-.81,6.77-.95,26.53-.15,33.3.23,1.99.4,4.35-1.13,5.64-.62.52-1.43.76-2.2.99-19.53,5.71-40.57,7.6-60.85,8.21-10.58.31-21.18.11-31.74-.57-5.28-.34-10.56-.81-15.82-1.39-1.44-.16-14.09-.96-14.31-1.88-3.04-12.92-4.63-26.3-5.39-39.54-.66-11.62-3.53-22.43-7.75-33.27-2.52-6.49-2.6-12.3-2.3-19.25.17-4.02.41-8.12-.66-12-.66-2.4-1.8-4.64-2.78-6.94-2.01-4.69-3.36-9.67-4.01-14.73" style="fill: none; stroke: #2e3138; stroke-linecap: round; stroke-miterlimit: 10; stroke-width: 2.42px;"/>
          <path d="M131.62,170.43c2.01,8.04,3.9,16.11,5.67,24.2.08.36.15.76-.01,1.09-.22.44-.75.59-1.23.7l-19.85,4.57c-1.6.37-3.19-.65-3.53-2.25l-5.01-23.4c7.92-1.96,15.98-3.26,23.97-4.91Z" style="fill: none; stroke: #2e3138; stroke-linecap: round; stroke-miterlimit: 10; stroke-width: 2.42px;"/>
          <path d="M109.13,180.36c7.97-1,15.88-2.54,23.64-4.62" style="fill: none; stroke: #2e3138; stroke-linecap: round; stroke-miterlimit: 10; stroke-width: 2.42px;"/>
          <path d="M59.17,93.66c-.01-1.89.59-3.87,2.03-5.1,1.44-1.23,3.79-1.44,5.18-.16.85.78,1.21,1.94,1.53,3.05.46,1.63.89,3.32.67,4.99-.21,1.68-1.21,3.36-2.82,3.9-4.61,1.56-6.57-3.07-6.59-6.7Z" style="fill: none; stroke: #2e3138; stroke-linecap: round; stroke-miterlimit: 10; stroke-width: 2.42px;"/>
          <path d="M42.2,93.46c-4.4-.18-8.82.27-13.1,1.32" style="fill: none; stroke: #2e3138; stroke-linecap: round; stroke-miterlimit: 10; stroke-width: 2.42px;"/>
          <path d="M34.21,104.53c-1.64.74-3.28,1.47-4.92,2.21" style="fill: none; stroke: #2e3138; stroke-linecap: round; stroke-miterlimit: 10; stroke-width: 2.42px;"/>
          <path d="M37.75,214.83c5.09-12.08,5.23-40.27,8.04-53.08-3.28.01-6.55-.25-9.78-.79-2.19-.36-5.63-2.04-7.83-1.65-4.26.75-6.94,11.37-8.54,15.03-5.62,12.84-10.73,25.9-15.32,39.15-2.64,7.62-5,16.46-.83,23.35,2.77,4.57,8.05,7.27,13.38,7.75,5.32.48,10.67-1.02,15.48-3.35,7.16-3.46,13.28-8.7,18.63-14.52,4.85-5.27,10.51-11.32,14.37-17.25" style="fill: none; stroke: #2e3138; stroke-linecap: round; stroke-miterlimit: 10; stroke-width: 2.42px;"/>
          <path d="M31.08,159.47c.59-4.46-3.71-8.78-2.36-13.07.44-1.39,1.45-2.61,1.52-4.07.08-1.6-1.01-3.17-.6-4.73.43-1.64,2.3-2.46,3.11-3.95,1.07-1.96.05-4.59,1.17-6.53.43-.75,1.14-1.3,1.85-1.81,3.14-2.24,6.62-4.01,10.28-5.22,3.54-1.17,7.67-1.75,10.8.27,1.83,1.18,3.06,3.1,4.08,5.03,2.1,3.98,3.58,8.29,4.38,12.72.17.97-.58,2.48-1.28,1.79" style="fill: none; stroke: #2e3138; stroke-linecap: round; stroke-miterlimit: 10; stroke-width: 2.42px;"/>
          <path d="M62.3,125.29c1.5-.57,3.12-.85,4.72-.84.74,0,1.52.1,2.09.57.46.38.71.95.86,1.52.56,2.06.1,4.29-.84,6.21-.94,1.92-2.31,3.58-3.68,5.22" style="fill: none; stroke: #2e3138; stroke-linecap: round; stroke-miterlimit: 10; stroke-width: 2.42px;"/>
          <path d="M42.9,126.25c3.12.81,6.25,1.62,9.37,2.43,1.33.34,2.7.71,3.79,1.55.75.58,1.33,1.36,1.89,2.13,1.04,1.42,2.08,2.84,3.11,4.25,1.71,2.34,3.51,5.19,2.57,7.93-.27.79-.85,1.56-1.67,1.71-1.26.23-2.25-.99-2.98-2.04-1.85-2.65-4.04-5.11-6.72-6.93-2.67-1.82-8.38-3.26-11.61-3.19" style="fill: none; stroke: #2e3138; stroke-linecap: round; stroke-miterlimit: 10; stroke-width: 2.42px;"/>
          <path d="M59.97,145.62c.99.77,1.19,2.31.57,3.4-.62,1.09-1.92,1.69-3.18,1.66-1.25-.03-2.45-.63-3.37-1.48-.55-.51-1.02-1.1-1.58-1.61-1.2-1.08-2.74-1.67-4.25-2.24-3.34-1.27-6.86-2.56-10.4-2.08" style="fill: none; stroke: #2e3138; stroke-linecap: round; stroke-miterlimit: 10; stroke-width: 2.42px;"/>
          <path d="M54.76,150.16c.87.41,1.36,1.44,1.23,2.39-.14.95-.85,1.77-1.74,2.12-1.18.47-2.51.16-3.74-.16-1.79-.46-3.58-.91-5.37-1.37-.76-.19-1.55-.39-2.33-.3-1.22.14-2.26.95-3.1,1.84" style="fill: none; stroke: #2e3138; stroke-linecap: round; stroke-miterlimit: 10; stroke-width: 2.42px;"/>
          <path d="M47.13,160.43c.75-1.24,1.5-2.49,2.25-3.73" style="fill: none; stroke: #2e3138; stroke-linecap: round; stroke-miterlimit: 10; stroke-width: 2.42px;"/>
          <path d="M181.95,212.79c-5.98-2.26-60.8-12.49-68.02-7.5-7.22,5-6.66,21.93-6.66,21.93,0,0,70.72,27.67,96.9,24.38,30.7-3.85-5.21-111.16-29.99-125.69-10.62-6.23-15.33-10.96-46.84-13.77" style="fill: none; stroke: #2e3138; stroke-linecap: round; stroke-miterlimit: 10; stroke-width: 2.42px;"/>
          <path d="M153.63,164.99s12.42,35.1,21.34,46.03" style="fill: none; stroke: #2e3138; stroke-linecap: round; stroke-miterlimit: 10; stroke-width: 2.42px;"/>
          <path d="M112.78,204.39c-1.88-7.79-6.9-14.43-9.63-21.96-1.15-3.17-2.01-6.69-4.58-8.89-1.11-.96-2.67-1.6-4.05-1.11-1.52.54-2.31,2.3-2.25,3.91.06,1.61.8,3.1,1.52,4.54l2.98,5.98" style="fill: none; stroke: #2e3138; stroke-linecap: round; stroke-miterlimit: 10; stroke-width: 2.42px;"/>
          <path d="M76.23,177.34c-1.43-1.68-3.72-3.36-5.86-4.03-2.06-.64-2.75,1.89-2.37,3.48.46,1.94,2.07,4,3.16,5.64,2.6,3.92,5.7,7.47,8.78,11.01" style="fill: none; stroke: #2e3138; stroke-linecap: round; stroke-miterlimit: 10; stroke-width: 2.42px;"/>
          <path d="M72.95,184.97c-.18-.62-1.64-1.71-2.28-1.81-.64-.1-1.3.13-1.79.55-.14.12-.27.26-.34.43-.87,1.99,1.66,4.8,2.75,6.19,2.82,3.58,5.96,6.91,9.39,9.92" style="fill: none; stroke: #2e3138; stroke-linecap: round; stroke-miterlimit: 10; stroke-width: 2.42px;"/>
          <path d="M71.59,193.54c3.9,6.91,8.86,13.22,14.66,18.64,2.5,2.33,5.17,4.52,8.21,6.07,1.49.76,3.05,1.37,4.51,2.17,3.04,1.67,5.54,4.14,8.01,6.58" style="fill: none; stroke: #2e3138; stroke-linecap: round; stroke-miterlimit: 10; stroke-width: 2.42px;"/>
          <path d="M83.46,190.2c-4.46-5.94-7.73-12.77-9.57-19.97-.1-.39-.19-.82-.02-1.18.19-.41.66-.62,1.11-.71,1.28-.24,2.62.26,3.65,1.07s1.78,1.91,2.48,3.02c3.16,5.04,5.59,10.92,10.6,14.12.12.08.27.16.4.1.13-.05.14-.31,0-.31" style="fill: none; stroke: #2e3138; stroke-linecap: round; stroke-miterlimit: 10; stroke-width: 2.42px;"/>
          <path d="M52.16,87.65c-.6,1-.81,2.23-.57,3.38" style="fill: none; stroke: #2e3138; stroke-linecap: round; stroke-miterlimit: 10; stroke-width: 2.42px;"/>
        </g>
        <g>
          <path d="M121.25,40.18c0-8.68-3.16-17.31-8.84-24.08-5.68-6.77-13.82-11.62-22.71-13.54-2.44-.52-4.92-.83-7.4-1.1-7.94-.85-19.29.39-26.54,3.64-5.76,2.58-10.72,8.34-13.76,13.66-3.03,5.32-5.38,11.24-6.37,17.22" style="fill: #ffa768;"/>
          <path d="M36.67,63.2c-4.41-1.3-6.28-6.24-6.77-10.61-.69-6.07.51-13.04,5.74-16.61,1.76-1.2,3.84-1.91,5.91-2.54,22.12-6.74,46.62-6.09,68.24,1.81,4.8,1.75,9.58,3.93,13.15,7.45,1.26,1.25,2.4,2.73,2.64,4.45.28,1.94-.61,3.87-.67,5.83-.04,1.3.28,2.59.2,3.88-.13,2.25-1.45,4.32-3.15,5.89-1.71,1.57-3.79,2.7-5.85,3.82.98-1.88,1.99-4.33.91-6.14-.74-1.23-2.21-1.84-3.6-2.34-16.42-5.86-34.41-6.11-51.97-6.3-7.21-.08-14.5-.14-21.51,1.51-2.07.49-4.27,1.24-5.42,2.94-1.74,2.56-1.02,6.68,2.17,6.96Z" style="fill: #ffa768; stroke: #2e3138; stroke-linecap: round; stroke-linejoin: round; stroke-width: 2.42px;"/>
          <path d="M121.25,40.18c0-8.68-3.16-17.31-8.84-24.08-5.68-6.77-13.82-11.62-22.71-13.54-2.44-.52-4.92-.83-7.4-1.1-7.94-.85-19.29.39-26.54,3.64-5.76,2.58-10.72,8.34-13.76,13.66-3.03,5.32-5.38,11.24-6.37,17.22" style="fill: none; stroke: #2e3138; stroke-linecap: round; stroke-linejoin: round; stroke-width: 2.42px;"/>
          <path d="M96.45,4.71c6,3.47,9.1,9.99,11.86,16.13,1.09,2.43,2.19,4.89,2.72,7.49.5,2.5.46,5.07.42,7.62" style="fill: none; stroke: #2e3138; stroke-linecap: round; stroke-linejoin: round; stroke-width: 2.42px;"/>
          <path d="M94.75,4.11c8.02,7.96,12.56,18.99,12.36,30.03" style="fill: none; stroke: #2e3138; stroke-linecap: round; stroke-linejoin: round; stroke-width: 2.42px;"/>
          <path d="M88.37,2.86c2.9,4.06,4.15,8.96,4.67,13.84.52,4.88.64,9.13.31,14.03" style="fill: none; stroke: #2e3138; stroke-linecap: round; stroke-linejoin: round; stroke-width: 2.42px;"/>
          <path d="M85.48,1.92c1.74,1.8,2.69,4.16,3.42,6.51,2.14,6.88,2.72,14.19,1.69,21.31" style="fill: none; stroke: #2e3138; stroke-linecap: round; stroke-linejoin: round; stroke-width: 2.42px;"/>
          <path d="M76.9,1.35c-3.39,2.15-6.12,7.03-6.68,8.12-5.96,11.62-4.77,13.81-5.26,19" style="fill: none; stroke: #2e3138; stroke-linecap: round; stroke-linejoin: round; stroke-width: 2.42px;"/>
          <path d="M80.17,1.44c-2.65,2.71-4.64,5.92-6.6,9.11-.86,1.4-1.72,2.79-2.46,4.25-2.22,4.38-3.29,9.31-2.85,14.14-.14-.17-.27-.34-.41-.51" style="fill: none; stroke: #2e3138; stroke-linecap: round; stroke-linejoin: round; stroke-width: 2.42px;"/>
          <path d="M64.52,2.4c-4.33,3.3-7.86,7.42-11.37,11.51-.85.99-1.7,1.99-2.39,3.08-.6.96-1.07,1.98-1.51,3.01-1.65,3.83-2.99,7.82-3.36,11.94" style="fill: none; stroke: #2e3138; stroke-linecap: round; stroke-linejoin: round; stroke-width: 2.42px;"/>
          <path d="M68,2.08c-2.35,1.82-4.54,3.82-6.57,5.97-.97,1.03-1.9,2.1-2.82,3.17-1.27,1.48-2.52,2.98-3.54,4.63-.67,1.09-1.23,2.23-1.79,3.37-1.96,3.99-3.94,8.05-4.71,12.39" style="fill: none; stroke: #2e3138; stroke-linecap: round; stroke-linejoin: round; stroke-width: 2.42px;"/>
          <path d="M116.5,38.19c.62,1.55,1.26,3.21.89,4.84-.21.95-.75,1.8-1.1,2.72-.64,1.68-.62,3.51-.71,5.29-.06,1.12-.17,2.23-.33,3.34-.19,1.31-.49,2.7-1.44,3.67" style="fill: none; stroke: #2e3138; stroke-linecap: round; stroke-linejoin: round; stroke-width: 2.42px;"/>
          <path d="M113.66,36.73c.67,1.83.7,3.87.09,5.72-.22.65-.51,1.27-.73,1.92-1.37,4.03.11,8.63-1.63,12.53" style="fill: none; stroke: #2e3138; stroke-linecap: round; stroke-linejoin: round; stroke-width: 2.42px;"/>
          <path d="M92.01,30.51c.68,1.38.8,2.96.6,4.48-.19,1.52-.68,2.98-1.17,4.44-.3.89-.61,1.79-.75,2.71-.27,1.76.05,3.54.13,5.31.08,1.77-.12,3.67-1.26,5.08" style="fill: none; stroke: #2e3138; stroke-linecap: round; stroke-linejoin: round; stroke-width: 2.42px;"/>
          <path d="M88.53,30.58c.33,1.64.66,3.33.25,4.96-.31,1.23-1.03,2.33-1.5,3.51-1.74,4.39-.16,8.73-1.14,13.32" style="fill: none; stroke: #2e3138; stroke-linecap: round; stroke-linejoin: round; stroke-width: 2.42px;"/>
          <path d="M64.5,29.66c-1.27,1.19-1.67,2.98-1.79,4.66-.12,1.69-.03,3.42-.58,5.02-.27.77-.67,1.49-.99,2.24-1.37,3.18-1.18,6.75-.97,10.17" style="fill: none; stroke: #2e3138; stroke-linecap: round; stroke-linejoin: round; stroke-width: 2.42px;"/>
          <path d="M60.05,29.54c-1.09,1.08-.9,2.79-.89,4.29.01,1.73-.32,3.46-.98,5.07-.33.81-.74,1.6-1.01,2.43-.33,1.03-.43,2.12-.5,3.19-.14,2.34-.12,4.69.06,7.02" style="fill: none; stroke: #2e3138; stroke-linecap: round; stroke-linejoin: round; stroke-width: 2.42px;"/>
          <path d="M36.41,35.27c-1.37.76-1.99,3.26-1.93,4.76.05,1.5.44,3.02.14,4.49-.18.87-.59,1.7-.74,2.58-.13.8-.04,1.61.05,2.42.19,1.68.4,3.41,1.23,4.91" style="fill: none; stroke: #2e3138; stroke-linecap: round; stroke-linejoin: round; stroke-width: 2.42px;"/>
        </g>
      </g>
    </g>
  </g>
</svg>