<?xml version="1.0" encoding="UTF-8"?>
<svg id="_圖層_2" data-name="圖層 2" xmlns="http://www.w3.org/2000/svg" viewBox="0 0 536.26 430.24">
  <g id="_圖層_1-2" data-name="圖層 1">
    <g>
      <g>
        <path d="M359.63,48.57c-1.47,4.88-2.94,9.75-4.41,14.63-2.19,7.28-4.39,14.57-5.73,22.05-.79,4.44-1.27,8.92-1.74,13.4-.85,8.14-1.66,16.47.31,24.42.5,2.01,1.17,3.98,2.12,5.82,2.77,5.38,7.76,9.37,13.21,12.01,5.45,2.65,11.39,4.09,17.28,5.49.46,5.27,1.28,10.24,1.75,15.51.17,1.98.14,4.4-1.58,5.41-.99.58-2.64,1-2.35,2.12.09.35.38.61.67.84,7.93,6.5,18.44,9.3,28.69,9.23,2.21-.01,4.43-.15,6.59-.63,2.29-.51,4.49-1.39,6.72-2.13,9.96-3.32,20.83-3.94,30.19-8.67-.94-9.82-1.89-19.69-1.22-29.53.34-4.99-.78-9.99.02-14.95,3.76-1.31,6.79-2.6,10.14-4.76,1.76-1.14,3.51-2.45,4.46-4.32,1.54-3.04.45-6.97-2-9.34-2.45-2.37-5.98-3.35-9.39-3.38-3.41-.03-6.76.81-10.07,1.63-.71.18-1.44.35-2.16.23-.67-.11-1.27-.47-1.84-.84-9.56-6.14-16.74-15.91-19.75-26.87-1.29-4.69-1.84-9.58-3.51-14.15-1.83-5.01-5.02-9.93-4.24-15.2-4.62,1.58-9.24,3.16-13.86,4.73-3.04,1.04-6.09,2.08-9.26,2.55-3.26.49-6.59.37-9.87,0-6.7-.75-12.98-2.6-19.15-5.32Z" style="fill: #fff;"/>
        <path d="M492.6,378.67c-25.55,12.56-55.07,13.43-83.54,13.86-23.69.35-48.19.41-69.97-8.93-1.02-32.05-4.82-64.39-9.62-96.23-1.24-8.24-2.62-16.46-3.54-24.74-.52-4.67-.89-9.36-1.22-14.06-.28-3.95.16-8.02-.75-11.85-1.93-8.15-6.09-15.52-9.43-23.14-.97-2.22-1.89-4.51-2.13-6.93-.33-3.24.59-6.49,1.85-9.5,3.27-7.82,6.08-16.64,13.72-21.25,4.02-2.43,8.33-3.65,12.89-4.6,4.12-.85,8.08-2.81,12.28-3.77,9.45-2.17,19.27-2.76,28.91-1.66-1.35,1.64-2.96,3.07-4.74,4.22,5.49,2.25,11.06,4.33,16.69,6.23,5.25,1.77,10.32,4,15.86,3.59,7.45-.55,14.85-1.74,22.09-3.54,3.51-.87,7.41-1.65,10.71-3.15,2.39-1.09,5.76-1.93,7.66-3.76,1.13-1.09,1.6-3.08,1.77-4.53,8.55.09,17.02,2.21,25.01,5.15,4.09,1.5,8.09,3.25,12,5.18,3.8,1.88,7.88,2.9,11.87,4.33.98.35,1.98.73,2.79,1.38,1.03.83,1.67,2.04,2.42,3.14,1.46,2.16,3.37,3.97,4.91,6.08,3.92,5.37,5.09,12.22,5.89,18.82.96,7.96,1.52,15.97,1.69,23.99.16,7.72-.58,15.45-.11,23.12.97,15.82.73,31.71-.74,47.49-.83,8.86-3.31,19.35-11.69,22.34-3.34,1.19-9.24.6-11.91,3.16-1.52,1.46-.75,4.54-.71,6.63.05,2.75.1,5.5.15,8.25.21,11.17.42,22.33.63,33.5" style="fill: #1f89bd;"/>
        <path d="M377.91,9.81c-1.98-2.98-2.94-7.16-6.3-8.38-2.16-.78-4.6.05-6.53,1.3-2.63,1.7-4.73,4.21-5.95,7.09-3.71-2.42-8.67-2.8-12.71-.97-4.04,1.83-7.02,5.81-7.64,10.2-1.01,7.08,3.72,13.62,8.5,18.94,6.16,6.86,13.48,10.92,22.38,13.37,7.03,1.93,14.45,2.45,21.67,1.48,6.91-.93,14.02-2.04,20.28-5.31,2.35,20.89,12.31,40.84,27.58,55.29.82.77,1.71,1.56,2.81,1.8.94.2,1.91-.03,2.84-.26,3.36-.82,6.71-1.64,10.07-2.47,1.38-.34,2.83-.71,3.84-1.72.87-.86,1.28-2.07,1.66-3.23,3.47-10.74,6.07-21.91,6.28-33.24.06-3.43-.1-6.88-.53-10.28-.39-3.02-.19-6.06-.76-9.09-1.15-6.09-3.81-11.89-7.6-16.79-1.15-1.49-2.41-2.92-3.87-4.12-.97-.8-2.01-1.49-3.06-2.18-5.77-3.83-11.27-7.62-18.18-9.05-4.5-.93-9.14-.97-13.73-.78-8.27.35-16.48,1.43-24.63,2.82-6.34,1.08-12.27,1.83-16.41-4.39Z" style="fill: #4b4c4e;"/>
        <circle cx="364.14" cy="85.58" r="4.2" style="fill: #2e3138;"/>
        <circle cx="401.76" cy="90.08" r="4.2" style="fill: #2e3138;"/>
        <path d="M443.05,105.47c-10.26-5.3-17.54-15.22-21.94-25.9-4.4-10.68-6.23-22.21-8.03-33.62-15.99,9.19-36.47,10.08-53.21,2.33-10.72-4.97-20.5-14.7-20.57-26.51-.03-5.15,2.11-10.57,6.5-13.26,4.39-2.69,11.07-1.59,13.43,2.98.39-3.62,2.02-7.33,5.14-9.21,3.12-1.88,7.83-1.23,9.59,1.96.68,1.25.87,2.7,1.35,4.04,1.68,4.63,6.86,7.24,11.79,7.42,4.93.18,9.69-1.58,14.31-3.31,0,0,43.82-9.46,59.57,19.82,15.75,29.28-2.69,67.77-2.69,67.77" style="fill: none; stroke: #2e3138; stroke-linecap: round; stroke-miterlimit: 10; stroke-width: 2.46px;"/>
        <path d="M443.31,106.74c4.21-4.37,11.04-6,16.76-3.99,3.68,1.29,7.11,4.57,6.85,8.47-.18,2.68-2.03,4.95-4.08,6.7-5,4.26-12.07,6.47-18.33,4.47" style="fill: none; stroke: #2e3138; stroke-linecap: round; stroke-miterlimit: 10; stroke-width: 2.46px;"/>
        <path d="M359.88,48.28s-42.57,97.97,22.56,97.76" style="fill: none; stroke: #2e3138; stroke-linecap: round; stroke-miterlimit: 10; stroke-width: 2.46px;"/>
        <line x1="448.89" y1="124.97" x2="450.51" y2="166.51" style="fill: none; stroke: #2e3138; stroke-linecap: round; stroke-miterlimit: 10; stroke-width: 2.46px;"/>
        <path d="M380.39,146.57c.9,7.06,1.81,14.12,2.71,21.18" style="fill: none; stroke: #2e3138; stroke-linecap: round; stroke-miterlimit: 10; stroke-width: 2.46px;"/>
        <path d="M380.52,79.95c-.51,4.64-2.24,9.14-4.96,12.92-.85,1.18-1.83,2.37-2.04,3.82-.13.88.05,1.78.39,2.6,1.42,3.47,5.92,5.28,9.34,3.76" style="fill: none; stroke: #2e3138; stroke-linecap: round; stroke-miterlimit: 10; stroke-width: 2.46px;"/>
        <path d="M394.46,78.06c5.15.04,10.28,1.58,14.59,4.39" style="fill: none; stroke: #2e3138; stroke-linecap: round; stroke-miterlimit: 10; stroke-width: 2.46px;"/>
        <path d="M373.06,76.03c-5.05-1.33-10.48-1.22-15.48.31" style="fill: none; stroke: #2e3138; stroke-linecap: round; stroke-miterlimit: 10; stroke-width: 2.46px;"/>
        <path d="M369.1,118.04c4.57,2.53,10.1,3.29,15.19,2.07" style="fill: none; stroke: #2e3138; stroke-linecap: round; stroke-miterlimit: 10; stroke-width: 2.46px;"/>
        <path d="M373.3,126.12c1.52.23,3.04.45,4.56.68" style="fill: none; stroke: #2e3138; stroke-linecap: round; stroke-miterlimit: 10; stroke-width: 2.46px;"/>
        <path d="M389.99,115.92c1.7.84,2.71,2.88,2.35,4.73" style="fill: none; stroke: #2e3138; stroke-linecap: round; stroke-miterlimit: 10; stroke-width: 2.46px;"/>
        <path d="M361.52,113.12c-.55.3-1.09.6-1.64.9-.02.68-.05,1.36-.07,2.04" style="fill: none; stroke: #2e3138; stroke-linecap: round; stroke-miterlimit: 10; stroke-width: 2.46px;"/>
        <path d="M382.37,167.28c-1.95.1-7.44,1.4-5.08,2.57,7.28,4.29,26.4,10.63,27.99,10.53,1.55-.1,32.05-5.67,45.06-10.54,1.06-.4,2.22-.94,2.59-2s-.86-2.48-1.78-1.83" style="fill: none; stroke: #2e3138; stroke-linecap: round; stroke-miterlimit: 10; stroke-width: 2.46px;"/>
        <path d="M451.24,110.18c.58-.85,1.73-1.03,2.76-1.13.24-.02.48-.05.71,0,.46.1.8.49,1.02.91.65,1.26.26,2.96-.87,3.81" style="fill: none; stroke: #2e3138; stroke-linecap: round; stroke-miterlimit: 10; stroke-width: 2.46px;"/>
        <path d="M369.13,21.59c5.1,4.13,11.47,6.66,18.02,7.17" style="fill: none; stroke: #2e3138; stroke-linecap: round; stroke-miterlimit: 10; stroke-width: 2.46px;"/>
        <path d="M350.68,22.7c.34,5.34,3.05,10.49,7.26,13.8" style="fill: none; stroke: #2e3138; stroke-linecap: round; stroke-miterlimit: 10; stroke-width: 2.46px;"/>
        <path d="M433.39,55.61c.7,5.07,3.13,9.88,6.78,13.46" style="fill: none; stroke: #2e3138; stroke-linecap: round; stroke-miterlimit: 10; stroke-width: 2.46px;"/>
        <path d="M456.51,63.9c1.03.68,1.12,2.13,1.1,3.36-.06,2.72-.16,5.47-.82,8.11-.82,3.28-2.51,6.4-2.54,9.79" style="fill: none; stroke: #2e3138; stroke-linecap: round; stroke-miterlimit: 10; stroke-width: 2.46px;"/>
        <path d="M336.76,222.05c-7.52,42.38-1.98,117.93,2.56,160.73,19.2,11.45,41.82,6.09,64.02,8.77,26.99,3.26,61.03-1.5,91.31-15.15" style="fill: none; stroke: #2e3138; stroke-linecap: round; stroke-miterlimit: 10; stroke-width: 2.46px;"/>
        <path d="M304.28,341.61c-2.94-30.32-5.17-60.96-2.23-91.37,1.45-14.97,4.43-29.48,8.59-43.91,2.64-9.18,5.33-18.88,11.58-26.37,7.48-8.97,38.65-13.29,58.91-15.46" style="fill: none; stroke: #2e3138; stroke-linecap: round; stroke-miterlimit: 10; stroke-width: 2.46px;"/>
        <g>
          <path d="M425.92,274.02c.11.84.25,1.73.79,2.39.71.87,1.91,1.13,3.03,1.29,4.53.66,9.12.69,13.69.72,3.16.02,6.32.04,9.48.06,1.08,0,2.27-.03,3.05-.77.78-.74.89-1.93.94-3.01.47-10.08.47-20.19,0-30.28-8.83-1.36-17.8-1.81-26.73-1.35-2.79.14-3.69.52-4,3.15-.35,3.06-.75,6.11-.93,9.2-.37,6.2-.14,12.43.68,18.59Z" style="fill: #ffad0f;"/>
          <path d="M457.41,244.49c.2,10.79.23,21.59.1,32.38,0,.48-.03,1.01-.33,1.38-.4.49-1.13.53-1.76.53l-26.53-.02c-2.14,0-3.86-1.75-3.83-3.89l.5-31.17c10.63-.16,21.23.55,31.86.79Z" style="fill: none; stroke: #2e3138; stroke-linecap: round; stroke-miterlimit: 10; stroke-width: 2.46px;"/>
          <path d="M425.95,250.51c10.41,1.07,20.89,1.43,31.35,1.06" style="fill: none; stroke: #2e3138; stroke-linecap: round; stroke-miterlimit: 10; stroke-width: 2.46px;"/>
        </g>
      </g>
      <g>
        <path d="M466.83,275.59c.52,3.59.91,7.21.88,10.95,0,1.24-.04,2.56-.73,3.6-.95,1.42-2.81,1.85-4.49,2.16-25.52,4.76-51.03,9.51-76.55,14.27-1.99,12.79-1.96,25.9.08,38.69,11.34.84,22.7-.74,33.96-2.32,19.82-2.78,39.63-5.57,59.45-8.35,15.73-2.21,34.16-5.66,39.86-22.56,1.44-4.26,1.54-8.84,1.56-13.33.09-18.43-1.01-36.86-3.27-55.16-.11-.9-.23-1.83-.67-2.62-1.1-2.01-3.7-2.53-5.98-2.83-12.05-1.6-24.42-3.42-36.6-2.41-10.53.87-9.95,10.48-9.96,19.16-.02,7.2,1.46,13.93,2.45,20.77Z" style="fill: #1f89bd;"/>
        <path d="M452.96,165.33c14.07,3,27.92,7.01,41.42,11.97,4.18,1.54,8.42,3.22,11.78,6.14,7.16,6.21,8.87,16.49,9.84,25.92,3,29.17,3.23,58.54,3.45,87.87.08,10.13-.22,21.96-9.25,28.42-5.74,4.11-12.88,5.64-19.81,6.97-30.3,5.85-60.97,9.81-91.77,11.85" style="fill: none; stroke: #2e3138; stroke-linecap: round; stroke-miterlimit: 10; stroke-width: 2.46px;"/>
        <path d="M466.59,237.5c-1.52,13.01.07,40.41,1.91,53.38" style="fill: none; stroke: #2e3138; stroke-linecap: round; stroke-miterlimit: 10; stroke-width: 2.46px;"/>
        <path d="M386.84,307.15c28.32-8.59,57.59-14.06,87.1-16.28" style="fill: none; stroke: #2e3138; stroke-linecap: round; stroke-miterlimit: 10; stroke-width: 2.46px;"/>
      </g>
      <path d="M151.97,360.88c-6.81,4.26-13.81,8.7-18.39,15.3-4.58,6.6-6.12,16-1.51,22.58,3.73,5.32,10.6,7.65,17.1,7.7,6.5.05,12.83-1.81,19.16-3.25,19.1-4.34,39.05-4.94,58.38-1.74,7.57,1.25,15.11,3.1,21.97,6.53,5.74,2.86,10.89,6.77,16.48,9.9,12.31,6.88,26.42,9.81,40.43,11.41,12.13,1.38,24.81,1.77,36.14-2.8,6.84-2.76,12.84-7.19,19.08-11.1,30.13-18.86,67.53-25.77,102.41-18.92,8.07,1.59,16.1,3.89,24.33,3.84,8.23-.04,16.97-2.88,21.74-9.58,6.45-9.03,3.73-21.54-.18-31.92-4.87.58-9.71,1.83-14.62,1.83l-342.53.21Z" style="fill: #dbdbdc;"/>
      <line x1="134.68" y1="360.24" x2="535.02" y2="360.24" style="fill: none; stroke: #2e3138; stroke-linecap: round; stroke-miterlimit: 10; stroke-width: 2.46px;"/>
      <path d="M184.3,350.96c-.19-5.42-.4-10.83-.59-16.25v-128.38l205.39.16v138.1" style="fill: #62646a; stroke: #2e3138; stroke-linecap: round; stroke-miterlimit: 10; stroke-width: 2.46px;"/>
      <path d="M444.23,359.15c6.55-.88,13.01-7.98,13.36-14.58H183.71l.19,6.3c.38,2.39,1.58,4.65,3.35,6.31,1.77,1.66,4.1,2.7,6.52,2.92l250.47-.95Z" style="fill: #62646a; stroke: #2e3138; stroke-linecap: round; stroke-miterlimit: 10; stroke-width: 2.46px;"/>
      <path d="M493.62,332c.2,9.26.33,18.52.39,27.78" style="fill: none; stroke: #2e3138; stroke-linecap: round; stroke-miterlimit: 10; stroke-width: 2.46px;"/>
      <path d="M273.61,268.72h-120.06c-1.03-10.47,4.57-21.5,12.35-28.58,7.79-7.08,18.99-10.21,29.32-8.2,1.78.35,3.59.84,5.37.51,3.98-.73,6.06-4.98,8.23-8.4,6.83-10.75,20.52-16.67,33.03-14.28,12.51,2.39,23.06,12.92,25.46,25.43,8.31-5.1,20.16-1.59,25.8,6.37,5.65,7.95,5.64,19,1.68,27.92l-21.18-.77Z" style="fill: #fff; stroke: #2e3138; stroke-linecap: round; stroke-miterlimit: 10; stroke-width: 2.46px;"/>
      <g>
        <rect x="97.84" y="152.94" width="151.72" height="138.67" style="fill: #fff;"/>
        <rect x="97.84" y="152.94" width="151.72" height="17.7" style="fill: #ff6d04;"/>
        <line x1="99.58" y1="170.64" x2="249.56" y2="170.64" style="fill: #62646a; stroke: #2e3138; stroke-linecap: round; stroke-miterlimit: 10; stroke-width: 2.46px;"/>
        <circle cx="107.53" cy="162.59" r="3.03" style="fill: #2e3117;"/>
        <circle cx="116.04" cy="162.59" r="3.03" style="fill: #2e3117;"/>
        <circle cx="125.42" cy="162.59" r="3.03" style="fill: #2e3117;"/>
        <rect x="114.66" y="205.3" width="108.39" height="13.65" style="fill: #fff; stroke: #2e3138; stroke-linecap: round; stroke-miterlimit: 10; stroke-width: 2.46px;"/>
        <rect x="219.95" y="205.3" width="13.65" height="13.65" style="fill: #fff; stroke: #2e3138; stroke-linecap: round; stroke-miterlimit: 10; stroke-width: 2.46px;"/>
        <g>
          <circle cx="225.5" cy="210.85" r="2.66" style="fill: #fff; stroke: #2e3138; stroke-linecap: round; stroke-miterlimit: 10; stroke-width: 1.64px;"/>
          <line x1="227.38" y1="212.73" x2="230.1" y2="215.44" style="fill: #fff; stroke: #2e3138; stroke-linecap: round; stroke-miterlimit: 10; stroke-width: 1.64px;"/>
        </g>
        <rect x="97.84" y="152.94" width="151.72" height="138.67" style="fill: none; stroke: #2e3138; stroke-linecap: round; stroke-miterlimit: 10; stroke-width: 2.46px;"/>
      </g>
      <path d="M31.58,306.32h151.97c1.31-13.26-5.78-27.22-15.63-36.18-9.86-8.96-24.04-12.93-37.12-10.38-2.25.44-4.55,1.06-6.8.65-5.04-.92-7.67-6.31-10.42-10.63-8.65-13.61-25.97-21.1-41.81-18.08-15.84,3.02-29.19,16.36-32.22,32.2-10.52-6.46-25.51-2.01-32.66,8.06s-7.14,24.06-2.12,35.34l26.81-.97Z" style="fill: #fff; stroke: #2e3138; stroke-linecap: round; stroke-miterlimit: 10; stroke-width: 2.46px;"/>
    </g>
  </g>
</svg>