<?xml version="1.0" encoding="UTF-8"?>
<svg id="_圖層_2" data-name="圖層 2" xmlns="http://www.w3.org/2000/svg" viewBox="0 0 711.66 555.56">
  <g id="_圖層_1-2" data-name="圖層 1">
    <g>
      <g>
        <path d="M240.4,199.74c5.22-1.44,11.11-.19,15.3,3.24,1,.82,1.92,1.76,3.08,2.35,1.15.59,2.46.78,3.73,1,18.66,3.2,35.76,13.34,48.92,26.95,6.32,6.53,11.78,13.86,16.44,21.66,4.55,7.62,9.8,16.49,10.92,25.44.29,2.35.23,4.74.46,7.1.27,2.79.96,5.52,1.46,8.28,2.37,13,.71,26.4,1.94,39.56.8,8.56,2.81,17,2.7,25.63-.11,8.69-1.08,17.38-1.27,26.08-.16,7.36-.45,14.82-2.65,21.85-.48,1.53-1.09,3.09-2.27,4.17-1.63,1.5-4.01,1.79-6.21,2.05-32.44,3.84-63.42,17.02-96.03,18.87-.15-9.27,1.15-18.57,3.85-27.44.32-1.05.7-2.16,1.58-2.81,2.68-1.99,8.67-1.7,11.89-2.24,4.6-.77,9.19-1.67,13.69-2.92,10.07-2.81,19.56-7.34,28.95-11.93.93-.45,1.88-.93,2.57-1.7.7-.78,1.06-1.81,1.36-2.82,3.87-13.05-.72-27.39.19-40.75.61-8.87,3.43-17.98.73-26.45-3.45-10.84-14.64-16.93-24.86-21.94-4.92-2.41-9.67-4.79-14.99-6.15-5.06-1.3-10.3-1.57-15.48-2.1-4.36-.45-8.7-1.08-13.01-1.9-.36-.07-.73-.15-1-.39-.24-.21-.36-.52-.48-.81-.73-1.85-1.46-3.7-2.19-5.56-1.53-3.87,1.97-3.57,4.83-3.47,1.62.05,3.23.24,4.81.55.45.09,4.24,1.34,4.35,1.22,3.64-3.99,2.98-10.16,2.09-15.49-2.16-13-4.33-25.99-6.49-38.99-1.13-6.8,1.03-13.28,1.07-20.18Z" style="fill: #fff9cb;"/>
        <path d="M25.94,179.64c-6.38,1.09-13.19,2.4-17.77,6.97-6.39,6.4-6.14,16.64-5.64,25.67,1.28,23.23,1.29,46.5.67,69.75-.31,11.63-.78,23.26-1.32,34.88-.23,4.91-.16,9.76-.18,14.6-.03,5.74-1.34,11.41-1.19,17.2.02.92.06,1.84.13,2.76.26,3.76.9,7.5,1.1,11.26.3,5.54-.33,11.09-.39,16.64-.06,5.99.17,12.47,1.36,18.36.86,4.25,4.68,6.42,8.05,8.98,19.82,15.02,40.52,28.88,61.96,41.49,6.84,4.02,13.87,7.96,21.59,9.83,9.84,2.39,19.13.7,28.97-.72,10.45-1.51,20.86-3.21,31.22-5.22,11.98-2.32,23.89-5.03,35.73-7.96,3.16-.78,6.36-1.58,9.61-1.49,1.22.03,2.63.11,3.42-.81.43-.5.56-1.19.66-1.85.46-2.77,5.58-33.07,4.9-33.07-6.83-1.33-13.66-2.67-20.5-4-1.09-.21-2.22-.44-3.1-1.12-2.5-1.92-1.53-5.82-.49-8.8,4.81-13.71,5.97-28.68,3.32-42.97-21.4.53-42.88-1.95-63.6-7.35-4.93-1.29-10.09-2.9-13.51-6.68-7.64-8.44-2.68-21.8-4.29-33.07-.97-6.77-4.42-12.88-7.25-19.11-6.31-13.92-9.67-28.96-12.98-43.88-1.25-5.61-2.49-11.23-3.15-16.94-1.11-9.56-.51-19.31,1.69-28.68,1.3-5.54,4.74-10.44,5.38-16.18.24-2.17.32-5.6-1.95-6.69-2.73-1.32-9.36.13-12.32.48-16.81,1.98-33.44,4.86-50.15,7.72Z" style="fill: #fff9cb;"/>
        <path d="M80.49,204.85c-11.85,4.87-23.76,9.75-36.25,12.63-5.73,1.32-11.6,2.23-17.05,4.45-1.63.67-3.45,1.77-3.54,3.54-.04.82.32,1.6.67,2.34l10.2,21.54c1.37,2.9,2.77,5.84,4.94,8.2,2.18,2.38,5.02,4.04,7.79,5.7,19.36,11.58,38.88,26.63,44.86,48.38.67,2.43,1.18,4.97,2.51,7.12,1.33,2.15,3.75,3.85,6.24,3.49,4.75-.7,4.8-5.35,4.47-8.9-.37-3.83,1.25-7.69.48-11.51-.72-3.55-3-5.86-4.82-8.84-1.9-3.13-1.48-6.27-2.16-9.66-.54-2.68-1.71-5.33-2.39-8.03-1.88-7.44-3.76-14.89-5.64-22.33-2.68-10.61-5.36-21.22-8.04-31.83" style="fill: #ff6d04;"/>
        <path d="M257.15,224.89c2.31,5.9,5.75,11.38,7.24,17.53,1.36,5.61,1.03,11.48.47,17.22-.89,9.15-2.32,18.25-4.28,27.24-6.63-3.42-14.54-2.54-21.95-3.37-3.23-.37-6.78-1.31-8.49-4.08-.88-1.42-1.13-3.12-1.37-4.76,2.67.13,5.32.64,8,.57,2.67-.07,5.48-.82,7.3-2.78,2.61-2.81,2.45-7.14,2.01-10.95-1.31-11.17-3.75-22.17-5.3-33.31-.92-6.63-4.45-20.54.78-26.23,2.82-3.07,8.95-3.31,12.73-3.03-.29,9.09-.53,17.24,2.88,25.95Z" style="fill: #ff6d04;"/>
        <g>
          <path d="M13.68,409.8c.3,8.9,2.11,35.7,6.07,35.12,3.88-1.29,5.9-18.49,6.52-27.79" style="fill: #fff; stroke: #2e3138; stroke-linecap: round; stroke-miterlimit: 10; stroke-width: 3px;"/>
          <path d="M114.35,458.64c.3,8.9,5.52,36.83,9.03,37.67,5.46,1.68,7.17-31.4,6.88-40.25" style="fill: #fff; stroke: #2e3138; stroke-linecap: round; stroke-miterlimit: 10; stroke-width: 3px;"/>
          <path d="M313.14,420.36c.3,8.9,5.52,36.82,9.03,37.67,5.46,1.68,7.17-31.4,6.88-40.25" style="fill: #fff; stroke: #2e3138; stroke-linecap: round; stroke-miterlimit: 10; stroke-width: 3px;"/>
          <path d="M239.72,215.72c.03.54.07,1.09.13,1.63.45,4.23,1.58,8.51,2.35,12.69,1.47,7.94,2.94,15.89,3.81,23.92.61,5.62.92,11.38-.43,16.87-.17.69-.38,1.4-.89,1.9-.45.45-1.08.67-1.69.86-3.77,1.15-7.62,1.38-11.53,1.45-2.75.05-4.56-1.74-7.32-2.2-4.2-.7-8.27-2.42-11.46-5.24-3.19-2.82-5.44-6.77-5.89-11-.44-4.12.8-8.21,1.26-12.33.77-6.95-.68-14.01.16-20.95.62-5.2,2.5-10.15,4.36-15.04.5-1.31,1.01-2.65,1.89-3.75,1.47-1.84,3.76-2.81,6.02-3.48,2.93-.88,5.97-1.39,9.03-1.54,1.19-.06,3.19-.4,4.29.17,1.11.57,1.32,1.72,2,2.7,1.1,1.59,2.52,2.38,3.04,4.33.78,2.95.69,6,.87,9Z" style="fill: #fff;"/>
          <g>
            <path d="M117.04,262.25c-1.24,10.84-6,20.91-9.48,31.25s-5.66,21.83-1.75,32.02c3.96,10.32,13.66,17.57,24.08,21.24,10.42,3.67,21.64,4.25,32.67,4.79,8.22.41,16.45.81,24.67,1.22,1.61.08,3.27.15,4.77-.44,2.06-.81,3.47-2.75,4.43-4.74,2.58-5.37,2.68-11.56,4.15-17.33,1.56-6.16,4.67-11.8,7.13-17.66,5.12-12.21,7.44-25.59,6.74-38.81-7.49-4.41-16.07-7.01-24.57-8.81-24.11-5.09-48.41-5.95-72.84-2.73Z" style="fill: #1f89bd;"/>
            <g>
              <path d="M136.87,71.01c-.6.34-1.23.66-1.93.95-1.92.8-3.65,2.11-5.74,2.44-3.37.54-7.13-1.56-10.07.18-1.46.87-2.3,2.51-2.72,4.16-.93,3.74.05,7.91,2.56,10.84,2.51,2.93,6.47,4.54,10.31,4.19.58-.05,1.25-.12,1.67.28.31.3.38.76.44,1.19,1.27,10.13,2.55,20.26,3.82,30.39.25,2,.5,3.99.6,6,.17,3.65-.17,7.31-.51,10.95-1.93.53-5.09.87-6.74,2-1.76,1.2.03,3.28,1.33,4.42,2.76,2.42,6.14,4,9.59,5.25,7.8,2.83,16.15,4.1,24.43,3.71,1.84-.09,3.69-.25,5.5-.63,2.48-.52,4.86-1.42,7.22-2.32,4.48-1.71,9.65-3.59,12.76-7.46,2.27-2.83-.48-2.22-2.59-2.66-1.8-.38-5.11-.99-5.76-3.08-.36-1.16,2.4-16.37,2.86-16.47,6.78-1.61,14.02-5.08,18.55-10.37,3.69-4.31,5.65-9.8,7.54-15.16,1.17-3.33,2.34-6.66,3.51-9.99,3.02-8.59.9-17.8.49-26.9-14.4-4.31-24.5-16.28-35.36-26.69-.37-.36-.79-.73-1.3-.78-.53-.05-1.03.27-1.45.6-2.2,1.72-3.75,4.13-5.41,6.38-3.51,4.77-7.12,9.57-11.7,13.4-2.05,1.71-4.25,3.22-6.45,4.73-4.14,2.84-8.27,5.67-12.41,8.51-1.07.73-2,1.37-3.02,1.95Z" style="fill: #fff;"/>
              <path d="M130.46,94.74c1.41,6.21,2.14,12.55,2.86,18.88.45,3.97.91,7.97.58,11.95-4.71.16-9.45-.75-13.76-2.65-1.09-.48-2.18-1.04-3.02-1.9-.88-.9-1.42-2.08-2.22-3.05-2.77-3.37-7.84-3.6-11.46-6.03-2.96-1.99-4.74-5.32-6-8.66-1.26-3.34-2.13-6.85-3.86-9.98-4.17-7.52-9.36-14.21-5.96-23.26.63-1.68,1.54-3.3,2.87-4.51,2.05-1.86,4.86-2.57,7.43-3.6,3.15-1.26,6.97-3.26,9.1-6,2.17-2.79,2.81-6.08,3.96-9.32.68-1.93,1.71-3.71,2.72-5.48,2.16-3.75,4.33-7.53,7.18-10.79,3.09-3.55,6.89-6.39,10.66-9.21,4.4-3.29,8.93-6.65,14.21-8.18,5.51-1.6,11.39-1.1,17.1-.57,5.28.48,10.15,1.91,15.44,1.63,2.31-.12,4.6-.56,6.91-.74,11.86-.94,23.99,5.59,29.74,16.01,1.63,2.95,2.77,6.15,4.47,9.06,2.58,4.4,6.38,8.03,8.66,12.59.75,1.5,1.33,3.1,2.19,4.55.73,1.24,1.65,2.36,2.64,3.4,2.54,2.67,5.56,4.88,8.87,6.49,6.91,3.36,7.87,14.72,4.64,21.68-2.39,5.15-7.37,8.55-12.19,11.56-.68.43-1.4.86-2.19.97.23-.39.39-.82.47-1.26.02,5.96-1.05,11.92-3.15,17.5-.59,1.57-1.26,3.12-2.28,4.44-1.74,2.26-4.33,3.7-6.9,4.92-3.86,1.84-8.29,3.37-12.32,1.95-1.63,2.88-4.78,4.65-8.01,5.34-3.24.69-6.59.42-9.88.07-2.42-.26-5.34-1-5.94-3.36-.48-1.89.96-3.8,2.68-4.71s3.71-1.14,5.57-1.73c3.44-1.1,6.38-3.48,8.68-6.27,2.3-2.79,4.03-6,5.69-9.22,2.03-3.94,3.99-7.96,5.18-12.24.79-2.85,1.24-5.8,1.32-8.76.18-6.7.95-12.65.58-19.34-.05-.85-.11-1.74-.52-2.49-.52-.96-1.52-1.54-2.47-2.08-3.58-2-7.22-3.9-10.73-6.02-8.92-5.37-17.12-12.23-22.82-20.95-1.92,3.86-5.08,6.94-8.22,9.9-9.79,9.24-19.94,18.09-30.42,26.54-2.68,2.16-5.81,4.41-9.21,3.9-2.29-.34-4.35-1.94-6.67-1.85-2.18.08-4.09,1.73-4.99,3.72-.9,1.99-.95,4.26-.7,6.43.39,3.44,1.58,6.95,4.14,9.27,2.57,2.32,6.54,3.52,9.33,1.48Z" style="fill: #4b4c4e;"/>
              <path d="M133.88,125.22c-4.18,2.95-15.28-.79-17.64-5.58s-7.35-4.94-9.54-5.36c-11.37-2.17-12.8-21.91-12.8-21.91-7.8-7.7-8.41-11.58-7.45-20.77.96-9.19,13.07-9.89,13.07-9.89,12.41-4.41,8.39-12.09,14.42-21.31C140.87-.71,174.73,14.39,174.73,14.39c0,0,27.6-9.85,41.93,17.72,14.33,27.56,17.82,29.74,21.47,31.47s18.22,13.09,3.19,31.09c0,0-4.37,3.38-9.38,5.35,0,0,.84,29.83-23.04,27.04,0,0-5.17,8.12-19.02,5.49" style="fill: none; stroke: #2e3117; stroke-linecap: round; stroke-miterlimit: 10; stroke-width: 3px;"/>
              <path d="M216.38,63.97c-23.1-7.23-38.88-29-38.88-29,0,0-22.82,29.4-50.4,41.68" style="fill: none; stroke: #2e3117; stroke-linecap: round; stroke-miterlimit: 10; stroke-width: 3px;"/>
              <path d="M127.9,75.96c-1.26-.75-2.66-1.28-4.1-1.55-1.63-.31-3.46-.24-4.75.79-.79.63-1.29,1.56-1.66,2.5-1.88,4.8-.72,10.65,2.86,14.36,1.39,1.45,3.15,2.59,5.1,3.04,1.96.45,4.12.15,5.76-1.01" style="fill: none; stroke: #2e3117; stroke-linecap: round; stroke-miterlimit: 10; stroke-width: 3px;"/>
              <path d="M213.96,63.94s5.33,68.11-40.2,60.3" style="fill: none; stroke: #2e3117; stroke-linecap: round; stroke-miterlimit: 10; stroke-width: 3px;"/>
              <path d="M153.72,25.81c-4.32,2.09-7.91,5.69-9.99,10.02-1.58,3.29-2.44,7.16-5.25,9.5" style="fill: none; stroke: #2e3117; stroke-linecap: round; stroke-miterlimit: 10; stroke-width: 3px;"/>
              <path d="M137.38,54.17c-1.18,1.44-2.36,2.89-3.54,4.33-1.68,2.05-3.71,4.28-6.36,4.32" style="fill: none; stroke: #2e3117; stroke-linecap: round; stroke-miterlimit: 10; stroke-width: 3px;"/>
              <path d="M124.89,43.61c-2.53,1.66-4.29,4.46-4.68,7.46-.31,2.4.18,5-.93,7.15-.99,1.92-3.01,3.02-4.93,4.02" style="fill: none; stroke: #2e3117; stroke-linecap: round; stroke-miterlimit: 10; stroke-width: 3px;"/>
              <path d="M104.38,69.36c-1.15,1.75-2.31,3.52-2.98,5.51-.67,1.98-.82,4.23.06,6.13" style="fill: none; stroke: #2e3117; stroke-linecap: round; stroke-miterlimit: 10; stroke-width: 3px;"/>
              <path d="M106.77,97.16c.42,1.64.83,3.28,1.25,4.93.37,1.46.76,2.96,1.58,4.23.82,1.27,2.16,2.3,3.67,2.34" style="fill: none; stroke: #2e3117; stroke-linecap: round; stroke-miterlimit: 10; stroke-width: 3px;"/>
              <path d="M220.76,106.4c2.34,3.83,1.6,9.26-1.68,12.32" style="fill: none; stroke: #2e3117; stroke-linecap: round; stroke-miterlimit: 10; stroke-width: 3px;"/>
              <path d="M229.23,70.81c3.7,5.53,4,13.16.74,18.97" style="fill: none; stroke: #2e3117; stroke-linecap: round; stroke-miterlimit: 10; stroke-width: 3px;"/>
              <path d="M185.93,26.37c3.7.61,7.75,1.42,10.07,4.36,1.32,1.68,1.87,3.81,2.74,5.77,2.03,4.55,5.85,8.11,10.11,10.69,4.26,2.57,8.99,4.26,13.69,5.92" style="fill: none; stroke: #2e3117; stroke-linecap: round; stroke-miterlimit: 10; stroke-width: 3px;"/>
              <path d="M174.05,47.96c1.92.46,3.91.62,5.87.45" style="fill: none; stroke: #2e3117; stroke-linecap: round; stroke-miterlimit: 10; stroke-width: 3px;"/>
              <path d="M172.04,53.81c2.91.74,5.93,1.01,8.93.8" style="fill: none; stroke: #2e3117; stroke-linecap: round; stroke-miterlimit: 10; stroke-width: 3px;"/>
              <path d="M178.15,75.09c.64,2.83,1.68,5.57,3.07,8.12.67,1.24,1.46,2.55,1.28,3.94-.16,1.28-1.14,2.33-2.26,2.96-1.64.91-3.89.99-5.24-.32" style="fill: none; stroke: #2e3117; stroke-linecap: round; stroke-miterlimit: 10; stroke-width: 3px;"/>
              <path d="M165.56,97.49c-1.02,1.02-1.65,2.43-1.75,3.87" style="fill: none; stroke: #2e3117; stroke-linecap: round; stroke-miterlimit: 10; stroke-width: 3px;"/>
              <line x1="184.2" y1="126.56" x2="182.19" y2="143.59" style="fill: none; stroke: #2e3117; stroke-linecap: round; stroke-miterlimit: 10; stroke-width: 3px;"/>
              <path d="M124.79,82.02c-.09-.89-1.25-1.38-2.06-1.01-.81.37-1.22,1.34-1.16,2.23.05.89.47,1.72.94,2.48" style="fill: none; stroke: #2e3117; stroke-linecap: round; stroke-miterlimit: 10; stroke-width: 3px;"/>
              <path d="M158.65,76.26c.04.56.54.98,1.1.94.56-.04.98-.54.94-1.1s-.54-.98-1.1-.94-.98.54-.94,1.1Z" style="fill: none; stroke: #2e3117; stroke-linecap: round; stroke-linejoin: round; stroke-width: 3px;"/>
              <path d="M194.64,75.37c.04.56.54.98,1.1.94.56-.04.98-.54.94-1.1-.04-.56-.54-.98-1.1-.94-.56.04-.98.54-.94,1.1Z" style="fill: none; stroke: #2e3117; stroke-linecap: round; stroke-linejoin: round; stroke-width: 3px;"/>
              <path d="M176.17,108.4c.87.21,1.77.36,2.65.13.87-.23,1.72-.88,2.16-1.95.22-.53.32-1.14.42-1.73.11-.65.22-1.34.07-1.98-.28-1.16-1.28-1.61-2.14-1.84-1.79-.47-5.34-1.21-6.5,1.5-1.4,3.28,1.45,5.41,3.35,5.87Z" style="fill: none; stroke: #2e3117; stroke-linecap: round; stroke-miterlimit: 10; stroke-width: 3px;"/>
              <path d="M174.47,113.16c.57.58,1.37.93,2.19.96" style="fill: none; stroke: #2e3117; stroke-linecap: round; stroke-miterlimit: 10; stroke-width: 3px;"/>
              <path d="M187.45,98.5c.53.63,1.05,1.29,1.37,2.05.32.76.41,1.65.1,2.41" style="fill: none; stroke: #2e3117; stroke-linecap: round; stroke-miterlimit: 10; stroke-width: 3px;"/>
            </g>
            <path d="M226.76,199.47c-2.35.5-4.75.87-6.97,1.92-.21.1-.45.24-.52.5-.06.21,0,.44.07.65.39,1.36.78,2.72,1.17,4.09,6.17.22,12.2-1.66,18.03-3.88,1.36-.52,2.76-1.08,3.83-2.21.22-.24.44-.52.51-.87.05-.27,0-.55-.03-.82-.18-1.24-.1-3.85-1.36-4.21-1.16-.33-3.1,1.12-4.15,1.55-3.45,1.41-6.99,2.51-10.58,3.27Z" style="fill: #8fc4de;"/>
            <path d="M80.23,212.63c.11,1.85.17,3.71.16,5.57,3.73.36,7.47.72,11.22.79,1.75.03,3.49,0,5.24.11,1.58.1,3.15.31,4.72.49,4.21.48,8.32.38,12.5,0,.36-.03.76-.1.97-.39.12-.17.16-.39.18-.6.07-.66.07-1.34-.15-1.97-.21-.63-.66-1.2-1.27-1.45-.61-.25-1.25-.14-1.89-.17-.53-.02-1.01-.21-1.53-.22-2.43-.03-4.85-.04-7.28-.12-4.91-.17-9.82-.51-14.71-1.03-.72-.08-8.15-.71-8.17-1.02Z" style="fill: #8fc4de;"/>
            <path d="M192.81,146.2c-1.25,4.29-4.25,8.03-8.16,10.19-2.93,1.62-6.26,2.34-9.54,3.04l-11.14,2.39c-8.16,1.75-16.06,3.89-24.03.12-1.59-.75-3.08-1.67-4.57-2.59-3.26-2.01-6.63-4.12-8.69-7.34-.73-1.14-1.42-2.51-2.73-2.84-.77-.19-1.58.03-2.33.3-1.88.66-3.59,1.57-5.29,2.6-1.62.97-4.21,3.55-5.96,4.25-3.4,1.37-6.24,4.03-8.8,6.63-3.47,3.52-5.53,5.22-8.11,9.44-1.99,3.25-3.93,6.54-5.35,10.07-1.21,2.99-2.02,6.12-2.95,9.21-.89,2.94-2.54,5.85-2.98,8.85-.12.78-2.01,12.93-1.89,12.95,10.53,1.89,24.57,1.85,35.22.87,2.89,8.74-.23,19.2.24,28.33.2,3.85.32,7.71.35,11.57.02,2.12-1,7.71.38,9.4.61.75,1.67.93,2.63,1.05,22.19,2.82,44.39,5.64,66.58,8.46,4.25.54,8.5,1.08,12.77,1.46,3.65.33,7.94.25,11.38,1.64,2.93,1.18,4.61,2.82,8.16,1.9.45-.12.93-.29,1.2-.66.31-.42.3-.99.27-1.51-.12-2.47-.25-4.95-.37-7.42-.53-10.61-1.06-21.37,1.27-31.73.92-4.08,2.27-8.06,2.91-12.19.64-4.13.52-8.53-1.38-12.26-1.08-2.11-2.74-4.04-2.98-6.4-.48-4.62,6.06-4.97,9.14-6.01,4.75-1.6,9.51-3.2,14.26-4.8.02,0-4.22-13.91-4.55-15.08-1.84-6.67-4.34-13.36-8.93-18.54-4.17-4.7-9.8-7.86-15.54-10.39-6.44-2.84-13.17-5.01-20.06-6.47" style="fill: #1f89bd;"/>
            <g>
              <path d="M126.2,150.78c-.32-.87-.49-1.79-.36-2.7.18-1.24,1.01-2.44,2.21-2.78,1.14-.32,2.36.16,3.29.89,1.47,1.15,2.36,2.87,3.55,4.31,2.35,2.88,5.76,4.59,9.23,5.73,6.44,2.11,13.88,2.84,20.44.86,1.88-.57,3.69-1.33,5.58-1.83,2.06-.55,4.19-.79,6.25-1.37,3.19-.9,6.1-2.59,8.95-4.28,1.56-.93,3.18-1.92,4.12-3.48,1.23-2.05,1.82-1.79,4.04-2.05.72-.08,1.59.06,1.91.71.12.24.14.52.15.79.06,2.69-1.25,5.27-3.07,7.25s-4.11,3.46-6.4,4.86c-1.54.94-3.12,1.87-4.83,2.46-1.85.64-3.82.87-5.74,1.26-3.11.63-6.12,1.69-9.21,2.43-10.57,2.51-22.54,1.36-31.76-4.57-3.11-2-6.27-4.26-7.94-7.56-.15-.3-.29-.61-.4-.92Z" style="fill: #8fc4de;"/>
              <g>
                <path d="M183.41,142.04s16.65,3.61,19.08,5.16" style="fill: none; stroke: #2e3138; stroke-linecap: round; stroke-miterlimit: 10; stroke-width: 3px;"/>
                <path d="M130.31,145.05c2.71,7.13,9.42,12.34,17.16,12.78,9.31.54,19.4.24,28.37-2.76,5.48-1.83,11.1-5.04,13.03-10.48" style="fill: none; stroke: #2e3138; stroke-linecap: round; stroke-miterlimit: 10; stroke-width: 3px;"/>
                <path d="M124.79,148.68c1.55,2.8,1.77,4,4.17,6.12,2.28,2.02,8.89,6.46,11.8,7.35,12.79,3.95,19.76,1.78,33-.14,5.24-.76,13.94-4.64,17.65-8.42,2.08-2.12,3.31-4.9,4.5-7.62" style="fill: none; stroke: #2e3138; stroke-linecap: round; stroke-miterlimit: 10; stroke-width: 3px;"/>
                <path d="M202.55,147.07c5.55,2.06,10.98,4.46,16.24,7.18,2.33,1.21,4.66,2.5,6.6,4.27,1.98,1.8,3.5,4.05,4.91,6.33,6.03,9.75,10.61,23.39,13.02,34.6" style="fill: none; stroke: #2e3138; stroke-linecap: round; stroke-miterlimit: 10; stroke-width: 3px;"/>
                <path d="M115.17,220c-7.79,1.04-18.34-.03-26.12-.74-1.9-.17-3.8-.37-5.7-.58-2.5-.28-2.77-.27-2.52-2.84.56-5.65,1.4-11.19,2.65-16.74.84-3.76,1.8-7.49,2.76-11.23.93-3.65,1.87-7.31,3.28-10.81,5.12-12.69,34.53-31.23,47.87-34.27" style="fill: none; stroke: #2e3138; stroke-linecap: round; stroke-miterlimit: 10; stroke-width: 3px;"/>
                <path d="M243.33,199.45c-7.08,4.82-14.61,6.41-22.81,7.58" style="fill: none; stroke: #2e3138; stroke-linecap: round; stroke-miterlimit: 10; stroke-width: 3px;"/>
                <path d="M216.34,192.45c2.87,7.4,4.68,15.21,5.38,23.11.34,3.8.41,7.63,0,11.43-.51,4.7-1.76,9.29-2.48,13.96-1.58,10.23,1.03,27.1,1.99,37.41" style="fill: none; stroke: #2e3138; stroke-linecap: round; stroke-miterlimit: 10; stroke-width: 3px;"/>
                <path d="M115.5,205.89c.93,23.25,1.74,35.49.77,58.06,0,0-1.78,13.83-6.02,24.48-4.24,10.65-14.89,54.91,25.45,59.67,40.34,4.76,54.46,3.49,54.46,3.49" style="fill: none; stroke: #2e3138; stroke-linecap: round; stroke-miterlimit: 10; stroke-width: 3px;"/>
              </g>
              <path d="M82.2,212.63c10.52,1.41,21.58,1.68,32.19,1.79" style="fill: none; stroke: #2e3138; stroke-linecap: round; stroke-miterlimit: 10; stroke-width: 3px;"/>
              <path d="M220.49,201.05c9.29-.92,12.63-2.41,20.92-6.69" style="fill: none; stroke: #2e3138; stroke-linecap: round; stroke-miterlimit: 10; stroke-width: 3px;"/>
            </g>
            <line x1="131.38" y1="95.25" x2="137.38" y2="142.79" style="fill: none; stroke: #2e3117; stroke-linecap: round; stroke-miterlimit: 10; stroke-width: 3px;"/>
          </g>
          <path d="M110.09,129.15c5.88-.63,11.83-.61,17.7.05" style="fill: none; stroke: #2e3138; stroke-linecap: round; stroke-miterlimit: 10; stroke-width: 3px;"/>
          <g>
            <path d="M268.47,288.56c4.34.84,8.7,1.7,12.8,3.33,9.87,3.92,17.81,12.41,21.06,22.51,3.77,11.73,1.34,24.4.28,36.68-.87,10.02-.81,20.09-.84,30.14,0,1.1-.02,2.26-.58,3.21-1.12,1.91-3.73,2.09-5.91,2.42-7.68,1.14-13.97,6.49-21.09,9.57-5.06,2.19-10.53,3.23-15.96,4.2-21.61,3.88-43.6,7.04-65.47,5.11-2.52-.22-5.53-1.19-7.82-2.31-.41-.2-.84-.43-1.08-.83-.32-.51-.24-1.16-.16-1.76,1.23-8.67,2.45-17.34,3.68-26.01.54-3.82.39-7.5,1.13-11.33.76-3.94,1.72-7.88,1.66-11.92-.07-4.72-1.53-9.32-1.97-14.02-.52-5.51.35-11.04.72-16.56.43-6.42.18-12.86-.07-19.29-.31-8.08-.63-16.15-.94-24.23,2.31-.62,4.44,1.52,5.47,3.67,1.03,2.15,1.68,4.67,3.59,6.1,1.92,1.43,5.58.36,5.24-2.01,1.24.08,2.43.79,3.1,1.84,1.81-1.98,5.14-2.34,7.33-.79.41.29,1.51-3.66,1.56-4.05-.16,1.3,4.92-1.06,5.2-1.19,2.15-1.06,4.22-.07,6.4.62,1.97.62,4.03.92,6.08,1.21,12.25,1.73,24.46,3.33,36.6,5.68Z" style="fill: #1f89bd;"/>
            <path d="M255.1,402.13c-.22.06-.46.13-.58.33-.11.18-.08.42-.05.63,3.44,20.97,8.58,41.67,15.34,61.81,1.79,5.32,3.69,10.63,4.67,16.16.93,5.25,1.01,10.6,1.3,15.92.06,1.02.13,2.08.57,3,.43.88,1.16,1.57,1.88,2.22,6.12,5.55,12.9,10.37,20.16,14.33.66.36,1.37.72,2.11.65.61-.06,1.15-.4,1.67-.73,2.82-1.81,5.64-3.62,8.46-5.44-1-1.52-2.84-2.21-4.45-3.07-5.01-2.64-8.57-7.5-10.68-12.75-2.11-5.25-2.92-10.93-3.59-16.55-2.72-22.97-3.35-46.14-3.97-69.27-.11-4.07-.15-8.14-.33-12.2-.23-5.39-3.44-3.01-7.61-1.87-8.3,2.27-16.61,4.55-24.91,6.82Z" style="fill: #fff;"/>
            <g>
              <path d="M204.69,469.48c.04,8.37.29,16.74.82,25.09.21,3.27.46,6.55.26,9.82-.53,8.67,3.76,12.57,9.69,18.34,1.18,1.15,2.42,2.27,3.41,3.59.64.86,1.17,1.81,1.97,2.51.79.69,1.79,1.08,2.76,1.46,1.06.41,2.12.83,3.19,1.24.22.09.45.18.69.18.33,0,.64-.15.94-.3,2.7-1.34,5.56-2.37,8.5-3.06l-6.07-9.46c-2.27-3.53-4.32-7.65-5.36-11.74-.48-1.89-.77-3.85-.61-5.8.11-1.37.43-2.71.76-4.05,1.53-6.31,1.64-12.92,3.15-19.14,1.64-6.75,3.02-13.6,4.41-20.42.61-2.96,1.21-5.92,1.67-8.91,1.22-8.01,1.37-16.12,2.28-24.16.45-3.97,1.08-7.93,2.14-11.79.72-2.63,4.03-7.73-.22-8.8-1.13-.29-2.32-.09-3.48.09-7.93,1.25-15.96,1.79-23.99,1.64-.41,0-.84,0-1.17.23-.25.19-.4.48-.52.77-2.28,5.27-3.24,11.01-3.62,16.71-1.01,15.3-1.67,30.64-1.6,45.96Z" style="fill: #fff;"/>
              <path d="M205.65,528.48c2.24,4.34,5.26,8.28,8.88,11.56.63.57,1.28,1.13,1.86,1.75,1.06,1.14,1.86,2.49,2.91,3.65,2.48,2.75,6.09,4.17,9.67,5.08,1.44.37,2.92.67,4.41.71,3.17.08,6.25-1.01,9.19-2.22.31-.13.65-.26.98-.21s.65.37.57.7c-.04.17-.17.3-.3.42-2.64,2.38-6.44,2.83-9.98,3.16-3.66.34-7.49.66-10.87-.78-.97-.41-1.88-.96-2.78-1.51-1.42-.86-2.84-1.72-4.27-2.58-1.3-.79-7.04-7.64-8.54-10.26-1.23-2.13-2.72-4.1-3.78-6.32-.74-1.55-1.91-4.48-1.16-6.22.92-2.13,2.74,2.12,3.22,3.05Z" style="fill: #fff;"/>
              <path d="M214.73,522.99c2.21,2.07,4.41,4.14,6.71,6.11,1.44,1.24,3.02,2.49,4.9,2.77,2.33.35,4.57-.84,6.75-1.73s4.86-1.45,6.74-.03c.66.49,1.14,1.18,1.61,1.86,2.14,3.08,4.29,6.15,6.43,9.23.23.33.47.69.5,1.1.02.4-.17.77-.37,1.11-1.47,2.41-4,4.03-6.69,4.88-2.69.85-5.55,1.01-8.37,1.05-3.05.03-6.18-.09-8.98-1.29-3.56-1.52-6.19-4.59-8.68-7.56-1.1-1.31-2.2-2.62-3.3-3.94-3.07-3.66-6.14-7.33-8.67-11.37-1.71-2.74-3.2-5.84-2.86-9.05.2-1.92,1.11-3.75,2.47-5.11.3-.31.67-.71,1.06-.9.79-.4.55-.45,1.03.2.56.76.8,2,1.27,2.85,2.1,3.82,5.33,6.88,8.48,9.83Z" style="fill: #fff9cb;"/>
              <path d="M209.77,406.46c-6.65,16.6-3.7,104.83-3.7,104.83" style="fill: none; stroke: #2e3117; stroke-linecap: round; stroke-miterlimit: 10; stroke-width: 3px;"/>
              <line x1="241.49" y1="405.27" x2="224.6" y2="504.85" style="fill: none; stroke: #2e3117; stroke-linecap: round; stroke-miterlimit: 10; stroke-width: 3px;"/>
              <path d="M224.6,504.85c1.25,11.91,13.58,23.58,20.53,31.27,1.81,2,3.61,4.52,3.07,7.16-.46,2.24-2.49,3.8-4.54,4.83-7.05,3.55-16.01,2.95-22.53-1.5-3.58-2.44-6.36-5.87-8.94-9.34-2.24-3.01-4.39-6.1-6.53-9.18-2.04-2.94-4.12-5.97-4.9-9.46-.77-3.49.07-7.59,2.98-9.68" style="fill: none; stroke: #2e3117; stroke-linecap: round; stroke-miterlimit: 10; stroke-width: 3px;"/>
              <path d="M237.33,529.11c-3.16.06-6.29,1.2-8.74,3.2-.38.31-.81.67-1.3.63-.29-.02-.55-.18-.8-.33-9.18-5.72-16.76-13.98-21.66-23.62" style="fill: none; stroke: #2e3117; stroke-linecap: round; stroke-miterlimit: 10; stroke-width: 3px;"/>
              <path d="M247.75,545.49c-1.9,5.25-7.7,8.34-13.28,8.53s-13.07.12-21.69-9.56c-1.43-1.61-2.48-3.52-3.72-5.28-4.35-6.17-8.89-13.01-8.37-20.54" style="fill: none; stroke: #2e3117; stroke-linecap: round; stroke-miterlimit: 10; stroke-width: 3px;"/>
            </g>
            <path d="M279.27,515.95c3.04,3.82,6.78,7.09,10.97,9.6.73.44,1.48.86,2.17,1.36,1.26.91,2.32,2.08,3.57,3.01,2.96,2.21,6.79,2.9,10.48,3.09,1.49.08,2.99.08,4.46-.17,3.13-.54,5.93-2.22,8.58-3.97.28-.19.58-.38.92-.4.34-.01.71.24.7.57,0,.18-.11.33-.22.47-2.12,2.85-5.77,4.03-9.17,5.05-3.52,1.05-7.22,2.11-10.82,1.36-1.03-.22-2.03-.58-3.03-.94-1.56-.57-3.13-1.13-4.69-1.7-1.43-.52-8.39-6.12-10.39-8.39-1.62-1.85-3.47-3.49-4.95-5.46-1.03-1.38-2.75-4.02-2.35-5.87.49-2.27,3.1,1.55,3.75,2.36Z" style="fill: #fff;"/>
            <path d="M267.45,460.27c.06.2.12.41.18.61.85,2.82,2.41,5.34,3.35,8.05.88,2.52.64,5.65.81,8.34.4,6.34.89,12.69,2.05,18.94.2,1.07-.03,2,.53,2.95.99,1.68,2.28,3.16,3.7,4.48,2.94,2.73,6.4,4.81,9.75,6.99,1.39.9,2.82,1.75,4.04,2.86.79.72,1.5,1.55,2.43,2.08.91.52,1.96.71,2.99.89,1.12.2,2.24.4,3.37.59.24.04.48.08.71.04.33-.06.6-.27.86-.48,2.39-1.85,4.99-3.42,7.73-4.66-2.6-2.7-5.2-5.4-7.8-8.09-3.2-3.32-6.66-6.38-7.9-10.99-.86-3.18-.94-6.5-1.11-9.79-.42-8.28-2.08-16.3-2.95-24.46-.4-3.72.57-7.56.25-11.36-.33-3.99-1.1-7.93-1.57-11.9-1.54-13.03.28-26.39-2.44-39.22-.1-.49-.25-1.04-.69-1.29-.39-.22-.87-.14-1.31-.04-3.28.7-30.61,8.77-30.66,8.49.96,5.33,2.61,10.5,4.47,15.57,1.43,3.88,1.84,7.55,2.88,11.48,2.59,9.86,3.46,20.15,6.33,29.92Z" style="fill: #fff;"/>
            <path d="M287.1,508.79c2.57,1.6,5.14,3.19,7.77,4.68,1.66.93,3.44,1.85,5.34,1.76,2.35-.11,4.32-1.71,6.28-3.01s4.48-2.37,6.6-1.35c.74.36,1.35.94,1.94,1.51,2.7,2.6,5.41,5.2,8.11,7.79.29.28.6.59.7.98.1.38-.01.79-.15,1.16-.97,2.65-3.14,4.74-5.61,6.1-2.47,1.36-5.24,2.08-8,2.66-2.98.63-6.08,1.12-9.06.5-3.79-.8-6.97-3.3-9.99-5.72-1.34-1.07-2.67-2.14-4.01-3.22-3.72-2.99-7.46-5.98-10.73-9.46-2.21-2.35-4.28-5.11-4.57-8.32-.17-1.92.35-3.89,1.42-5.49.24-.36.52-.82.86-1.09.7-.55.45-.55,1.05,0,.7.64,1.17,1.8,1.8,2.55,2.8,3.34,6.57,5.7,10.23,7.98Z" style="fill: #fff9cb;"/>
            <path d="M292.86,489.35c4.03,9.55,18.36,20.41,26.68,26.6,2.16,1.61,4.43,3.72,4.41,6.42-.02,2.29-1.7,4.21-3.5,5.62-6.22,4.86-15.12,6.02-22.39,2.93-3.99-1.7-7.38-4.51-10.6-7.41-2.79-2.52-5.5-5.12-8.2-7.73-2.57-2.48-5.21-5.05-6.65-8.32-1.44-3.27-1.41-7.46,1.03-10.07" style="fill: none; stroke: #2e3117; stroke-linecap: round; stroke-miterlimit: 10; stroke-width: 3px;"/>
            <path d="M310.52,510.6c-3.09.67-5.94,2.41-7.95,4.85-.32.38-.66.81-1.15.87-.29.04-.58-.07-.85-.17-10.12-3.81-19.17-10.44-25.86-18.93" style="fill: none; stroke: #2e3117; stroke-linecap: round; stroke-miterlimit: 10; stroke-width: 3px;"/>
            <path d="M323.88,524.39c-.84,5.52-5.92,9.68-11.35,10.97-5.44,1.29-12.8,2.68-23.14-5.14-1.72-1.3-3.12-2.97-4.68-4.45-5.47-5.2-11.26-11.02-12.22-18.51" style="fill: none; stroke: #2e3117; stroke-linecap: round; stroke-miterlimit: 10; stroke-width: 3px;"/>
            <path d="M217.31,279.44c13.88,5.65,29.34,5.44,44.16,7.73,14.81,2.29,30.57,8.23,37.69,21.43,6.12,11.35,4.34,25.1,3.17,37.94-1.14,12.46-1.55,24.99-1.22,37.5-33.51,19.86-72.44,24.17-111.28,21.23-2.01-.15-3.44-.4-5.32-1.13-.44-.17-.9-.38-1.13-.79-.23-.4-.18-.89-.13-1.35,1.55-13.25,4-26.48,5.77-39.7,0,0,2.44-13.63-4-13.35" style="fill: none; stroke: #2e3138; stroke-linecap: round; stroke-miterlimit: 10; stroke-width: 3px;"/>
            <path d="M254.14,402.63l18.44,76.86s1.68,10.69,2.13,17.73" style="fill: none; stroke: #2e3117; stroke-linecap: round; stroke-miterlimit: 10; stroke-width: 3px;"/>
            <line x1="286.84" y1="393.79" x2="292.86" y2="489.35" style="fill: none; stroke: #2e3117; stroke-linecap: round; stroke-miterlimit: 10; stroke-width: 3px;"/>
          </g>
          <path d="M94.51,169.65c-38.71,5.1-32.93,4.34-72.77,10.79-3.37.55-6.8,1.13-9.78,2.8-4.89,2.74-7.86,8.09-9.03,13.57-1.17,5.48-.77,11.16-.36,16.74l-1.07,179.38c-.19,7.79,8.51,13.52,15.02,17.8,18.3,12.01,36.6,24.02,54.9,36.03,8.31,5.45,16.97,11.04,26.81,12.44,6.8.97,13.7-.14,20.48-1.25,32.46-5.31,53.52-11.06,85.97-16.38" style="fill: none; stroke: #2e3138; stroke-linecap: round; stroke-miterlimit: 10; stroke-width: 3px;"/>
          <path d="M3.06,253.7c30.8-4.1,61.61,13.79,79.53,39.17,17.92,25.38,24.74,57.03,26.81,88.03,1.61,24.14.6,48.37-.53,72.54" style="fill: none; stroke: #2e3138; stroke-linecap: round; stroke-miterlimit: 10; stroke-width: 3px;"/>
          <path d="M37.68,256.21c-1.29-8.27-4.16-12.8-9.46-19.29-2.78-3.41-6.28-7.32-5.14-11.56.84-3.13,4.07-5.09,7.26-5.7,3.19-.61,6.47-.19,9.72-.32,11.48-.43,21.51-7.43,32.17-11.72,3.03-1.22,6.14-2.22,9.31-3" style="fill: none; stroke: #2e3138; stroke-linecap: round; stroke-miterlimit: 10; stroke-width: 3px;"/>
          <path d="M58.1,235.41c6.52-.16,12.81,2.83,17.84,6.99,5.03,4.16,8.98,9.45,12.87,14.69,5.27,7.09,10.61,14.34,13.54,22.67" style="fill: none; stroke: #2e3138; stroke-linecap: round; stroke-miterlimit: 10; stroke-width: 3px;"/>
          <path d="M109.62,373.69c26.29-3.39,52.58-6.79,78.88-10.18" style="fill: none; stroke: #2e3138; stroke-linecap: round; stroke-miterlimit: 10; stroke-width: 3px;"/>
          <g>
            <path d="M124.47,270.32c.16.77.36,1.62,1,2.08.55.4,1.28.41,1.96.41,30.45-.31,60.75-9.77,85.97-26.83,5.51-3.73,11.93-8.02,18.27-6-5.43,1.77-10.1,5.76-12.7,10.84,3.89,2.03,8.55,2.55,12.79,1.42,2.15-.58,5.26-1.09,5.9,1.05.27.91-.14,1.94.23,2.81.44,1.05,1.82,1.46,2.24,2.51.74,1.84-1.89,3.27-2.42,5.18-.43,1.56.63,3.17.55,4.79-.12,2.29-2.55,3.86-4.84,4.01-2.29.15-4.51-.7-6.74-1.24-.63-.15-1.35-.27-1.89.1-.41.27-.61.76-.83,1.19-1.48,2.83-4.73,4.33-7.89,4.77-3.16.44-6.38.03-9.57.08-6.12.09-12.08,1.85-17.94,3.61-13.39,4-26.79,8-39.76,13.2-10.7,4.29-21.41,9.45-32.92,9.93-1.91.08-3.91.01-5.62-.85-1.68-.84-2.92-2.36-3.95-3.93-4.53-6.89-6-15.27-8.79-23.03-6.59-18.36-10.01-37.64-11.14-57.17,8.28.39,16.56.78,24.85,1.17.73.03,1.51.09,2.1.52.62.46.89,1.23,1.12,1.96,2.72,8.57,3.96,17.65,5.76,26.46,1.43,6.99,2.86,13.99,4.29,20.98Z" style="fill: #fff;"/>
            <path d="M234.06,239.97c1.73-.54,3.79-.88,5.22.24.23.18.45.41.56.68.36.91-.47,1.81-1.19,2.47-1.79,1.64-3.38,3.5-4.72,5.53-.48.72-.93,1.47-1.58,2.04-1.22,1.08-2.95,1.35-4.57,1.43-2.36.12-4.73-.06-7.04-.53-.6-.12-1.28-.34-1.5-.9-.2-.5.06-1.06.34-1.52,2.81-4.63,9.5-7.87,14.48-9.44Z" style="fill: #fff9cb;"/>
            <path d="M220.45,276.84c-1.75.52-3.82.36-5.17,1.59-1.47,1.34-1.35,3.64-1.41,5.63-.06,2.16-.47,4.3-.88,6.43,4.23-4.19,10.8-4.7,16.12-7.37.61-.31,1.25-.69,1.5-1.33.52-1.37-1.03-2.54-1.76-3.8-.68-1.16-.68-2.6-1.17-3.86-.78-1.99-2.15-2.22-3.23-.7-1.1,1.55-2.06,2.83-4,3.41Z" style="fill: #fff9cb;"/>
            <g>
              <path d="M113.55,214.46c4.49,20.99,8.39,38.45,11.71,59.66" style="fill: none; stroke: #2e3138; stroke-linecap: round; stroke-miterlimit: 10; stroke-width: 3px;"/>
              <path d="M86.3,219.92c3.18,26.58,8.8,52.58,15.15,69.96,2.05,5.61,4.67,11.82,10.21,14.03,5.03,2.01,10.66-.03,15.71-2,21.99-8.58,48.44-17.64,71.14-24.13" style="fill: none; stroke: #2e3138; stroke-linecap: round; stroke-miterlimit: 10; stroke-width: 3px;"/>
              <path d="M194.14,279.13c6.53-2.91,14.05-1.65,21.19-2.02,2.88-.15,6.05-.74,7.78-3.05,1.25-1.66,1.49-3.9,2.74-5.56.63-.84,1.57-1.81,1.1-2.76-.18-.37-.56-.62-.71-1.01-.32-.83.53-1.6.89-2.42.62-1.38-.53-3.2-2.04-3.25.64-2.13,4.28-2.61,4.21-4.83-.03-1.09-1.09-1.9-2.16-2.11-1.07-.2-2.16.04-3.24.18-2.39.29-5.58-1.96-7.84-2.79,2.43.83,5.35-.12,6.83-2.22s1.39-5.17-.21-7.18c-3.46,4.24-9.6,4.84-14.49,7.3-5.64,2.84-9.63,8.21-15.08,11.4-4.13,2.42-8.89,3.47-13.56,4.47-17.61,3.75-35.3,7.16-53.05,10.23" style="fill: none; stroke: #2e3138; stroke-linecap: round; stroke-linejoin: round; stroke-width: 3px;"/>
              <path d="M230.55,252.3c1.78-.34,3.55-.67,5.33-1.01.61-.12,1.31-.2,1.78.29.41.44.49,1.22.3,1.85s-.61,1.11-1.06,1.48c-1.95,1.56-4.48,1.19-6.76,1.74" style="fill: none; stroke: #2e3138; stroke-linecap: round; stroke-linejoin: round; stroke-width: 3px;"/>
              <path d="M233.29,256.25c1.46-.14,2.94.08,4.3.63.61.25,1.2.58,1.61,1.1.4.52.57,1.26.26,1.84-.21.4-.6.67-.97.92-1.17.79-2.05,1-3.48,1.09-1.46.09-2.91.18-4.37.27-.88.05-1.88.06-2.47-.59" style="fill: none; stroke: #2e3138; stroke-linecap: round; stroke-linejoin: round; stroke-width: 3px;"/>
              <path d="M234.06,261.92c.76.04,1.52-.07,2.27,0s1.54.39,1.92,1.04c.42.73.21,1.68-.2,2.42-.18.32-.4.63-.69.86-.78.62-1.61.52-2.5.44-1.06-.1-2.2.03-3.26.11-1.39.11-2.81.28-4.15-.07" style="fill: none; stroke: #2e3138; stroke-linecap: round; stroke-linejoin: round; stroke-width: 3px;"/>
              <path d="M236.03,266.91c.82.07,1.57.62,1.89,1.38.32.76.17,1.68-.35,2.31-.4.48-.97.77-1.55.99-3.38,1.32-7.17.79-10.75.24-.51-.08-.53-.14-.75-.6" style="fill: none; stroke: #2e3138; stroke-linecap: round; stroke-linejoin: round; stroke-width: 3px;"/>
              <path d="M224.99,244.43c1.1-.34,2.12-.92,3.12-1.49,2.02-1.15,4.04-2.29,6.06-3.44,1.01-.57,2.07-1.16,3.23-1.21,1.16-.05,2.44.64,2.65,1.78.24,1.31-.91,2.4-1.89,3.31-2.25,2.08-4.1,4.59-5.43,7.36" style="fill: none; stroke: #2e3138; stroke-linecap: round; stroke-linejoin: round; stroke-width: 3px;"/>
              <path d="M213.7,278.83c1.48,4.35-1.35,9.06-.83,13.63.44-1.74,1.76-3.16,3.3-4.09,1.54-.93,3.28-1.45,5-1.96,1.86-.55,3.73-1.1,5.59-1.65,1.27-.37,2.56-.76,3.62-1.56,1.06-.79,1.84-2.09,1.65-3.39-2.46-1.04-3.41-3.97-4.08-6.55" style="fill: none; stroke: #2e3138; stroke-linecap: round; stroke-linejoin: round; stroke-width: 3px;"/>
              <path d="M223.9,241.69c.71-1.53,2.65-1.97,4.33-2.12,1.42-.12,2.86-.17,4.28-.13" style="fill: none; stroke: #2e3138; stroke-linecap: round; stroke-linejoin: round; stroke-width: 3px;"/>
            </g>
            <path d="M86.47,219.57l27.83,1.79" style="fill: none; stroke: #2e3138; stroke-linecap: round; stroke-miterlimit: 10; stroke-width: 3px;"/>
          </g>
          <path d="M237.72,204c.62,4.25,1.6,12.11,2.37,16.43,2.94,16.51,5.79,27.61,6.9,44.34.14,2.1.25,4.3-.6,6.22-1.31,2.95-4.65,4.58-7.87,4.78-3.22.19-6.39-.78-9.47-1.75" style="fill: none; stroke: #2e3138; stroke-linecap: round; stroke-miterlimit: 10; stroke-width: 3px;"/>
          <path d="M237.54,202.84c6.34-3.52,10.91-2.29,18.02-3.69-2.9,10.71-1.78,22.47,3.1,32.44,1.94,3.97,4.48,7.73,5.52,12.02,1.05,4.33.5,8.86-.06,13.28-1.36,10.77-1.28,19.51-2.64,30.28" style="fill: none; stroke: #2e3138; stroke-linecap: round; stroke-miterlimit: 10; stroke-width: 3px;"/>
          <path d="M302.28,342.48c5.22-.2,10.44-.39,15.66-.59,8.34-.31,16.92-1.15,24.57-4.47.26-24.55.32-50.07-10.09-72.3-3.75-8.01-8.76-15.35-13.75-22.66-3.25-4.76-6.53-9.56-10.64-13.6-4.95-4.88-10.97-8.53-17.11-11.8-11.21-5.97-23.35-10.9-36.05-11.23" style="fill: none; stroke: #2e3138; stroke-linecap: round; stroke-miterlimit: 10; stroke-width: 3px;"/>
          <path d="M303.36,322.67c12.81,5.34,25.79,10.26,38.93,14.74" style="fill: none; stroke: #2e3138; stroke-linecap: round; stroke-miterlimit: 10; stroke-width: 3px;"/>
          <path d="M343.21,337.7c1.55,8,.76,16.18.83,24.36.08,9.53.17,19.05.25,28.58.04,5.06.07,10.26-1.71,15-3.45,9.2-12.19,10.12-20.67,11.81-10.79,2.15-21.58,4.3-32.36,6.46" style="fill: none; stroke: #2e3138; stroke-linecap: round; stroke-miterlimit: 10; stroke-width: 3px;"/>
          <path d="M261.23,432.47c-8.7.67-17.32,2.54-25.52,5.53" style="fill: none; stroke: #2e3138; stroke-linecap: round; stroke-miterlimit: 10; stroke-width: 3px;"/>
          <path d="M226.33,305.85c4.65,1.47,9.73.21,14.53,1.09,4.55.83,8.69,3.66,11.12,7.59,2.42,3.93,3.09,8.91,1.78,13.34" style="fill: none; stroke: #2e3138; stroke-linecap: round; stroke-miterlimit: 10; stroke-width: 3px;"/>
          <path d="M169.04,294.18c9.32.77,18.6-1.4,27.69-3.56" style="fill: none; stroke: #2e3138; stroke-linecap: round; stroke-miterlimit: 10; stroke-width: 3px;"/>
          <path d="M179.26,229.28c.68,1.38.23,3.11-.73,4.31-.96,1.2-2.35,1.98-3.73,2.66-1.84.91-3.74,1.7-5.68,2.37" style="fill: none; stroke: #2e3138; stroke-linecap: round; stroke-miterlimit: 10; stroke-width: 3px;"/>
          <path d="M98.13,320.27c2.78-.38,5.53-.96,8.24-1.72" style="fill: none; stroke: #2e3138; stroke-linecap: round; stroke-miterlimit: 10; stroke-width: 3px;"/>
        </g>
      </g>
      <path d="M267.56,103.36c-2.11,4-4.26,8.05-7.33,11.38-3.07,3.32-7.23,5.89-11.75,6.09,11.56,5.18,25.86-1.79,32.19-12.76,14.64,4.64,30.66,4.8,45.39.46,4.8-1.41,9.51-3.32,13.51-6.32,6.97-5.23,11.34-13.77,11.5-22.49.16-8.72-3.89-17.41-10.66-22.9-9-7.29-21.39-8.49-32.97-8.51-10.8-.03-21.85.75-31.79,4.97-9.94,4.22-18.71,12.4-21.24,22.9-2.53,10.5,2.99,23.54,13.16,27.19Z" style="fill: #fff; stroke: #2e3138; stroke-linecap: round; stroke-linejoin: round; stroke-width: 3px;"/>
      <g>
        <path d="M550.96,131.56c1.06,2.74,2.18,5.46,3.34,8.15,1.54,3.55,2.67,2.75,4.96.99,2.62-2.01,5.28-3.96,7.91-5.94,1.49-1.12,3.07-2.36,3.62-4.14.66-2.12-.31-4.37-1.27-6.37-1.11-2.35-2.31-4.79-4.42-6.3-1.32-.94-2.89-1.44-4.43-1.92-1.5-.47-14.87-5.67-15.59-2.06-.05.25.02.51.1.75,1.7,5.69,3.62,11.32,5.77,16.85Z" style="fill: #6f7071;"/>
        <path d="M658.89,164.65c.58,2.21,1.83,4.24,3.54,5.75.69-.17.8-1.09.75-1.8-.33-5.01-1.35-9.98-3.01-14.72-.91-2.61-2.02-5.14-3.13-7.68-3.73-8.54-7.13-17.16-10.74-25.74-3.88-9.24-5.97-17.86-7.54-27.89-3.01-19.21-.19-38.77-5.15-57.92-1.21-4.66-2.82-9.28-5.49-13.29-3.97-5.94-10.1-10.19-16.65-13.05-8.87-3.87-18.58-6.14-28.12-6.92-7.09-.57-14.48-.57-21.13,2.27-3.39,1.45-6.44,3.57-9.42,5.72-8.76,6.31-16.98,13.12-24.3,21.06-4.37,4.74-6.93,11.23-6.59,17.7,2.05-4.97,7.07-7.94,11.77-10.55.57-.32,1.25-.64,1.83-.36.56.27.76.96.85,1.58.84,5.91-1.9,13.17,2.53,17.18l8.87-8.81c.75-.75,1.61-1.54,2.67-1.56,1.11-.02,2.02.82,2.83,1.58,8.07,7.61,18.46,12.73,29.41,14.51-.84-2.49-1.68-4.98-2.52-7.46,6.84,2.54,13.68,5.08,20.52,7.63.72.27,1.47.55,1.99,1.12.63.7.8,1.68.94,2.61.63,4.1,1.26,8.21,1.89,12.31,2.22-2.66,6.8-2.66,9.22-.18s2.45,6.8.29,9.5-6.14,3.67-9.41,2.54c-1.27,10.19-2.25,20.41-2.95,30.65-.06.92-.11,1.9.36,2.7.37.63,1.02,1.05,1.65,1.44,10.82,6.75,21.64,13.51,32.46,20.26,3.67,2.29,7.38,4.61,10.42,7.7,4.32,4.39,7.21,10.25,12.34,13.67-.88-.58-1.95-10.57-2.51-12.26-1.13-3.37-2.7-6.12-3.45-9.57-1.04-4.76-2.3-9.38-3.8-13.93" style="fill: #6f7071;"/>
        <path d="M437.46,498.7c2.67,2.03,6.31,1.99,9.65,2.21.44.03.91.07,1.27.33,1.22.88.02,2.74-.06,4.24-.13,2.52,2.98,3.75,5.47,4.18,6.46,1.11,13.02,1.94,19.55,1.46s13.09-2.33,18.4-6.16c.64-.46,1.27-.95,2-1.23,3.04-1.13,6.36,1.81,9.5,1.02,3.87-.98,3.54-5.09,4.39-8.07,1.29-4.53,2.35-7.66,2.01-12.57-.07-.95-.14-1.94-.61-2.78-1.28-2.32-8.76-.17-11.19.09-8.34.87-15.07,6.9-22.49,10.83-.64.34-1.31.67-2.03.73-1.93.15-3.41-1.6-4.53-3.18-.38-.54-.79-1.2-.56-1.83.16-.42.56-.69.93-.93,3.95-2.56,7.55-5.66,10.66-9.19,1.74-1.97,3.42-4.41,3.02-7.01-4.39.02-8.37,2.48-11.92,5.06-3.96,2.88-8.15,6.43-13.23,6.87-4.41.38-8.15-2.59-12.42-2.46-8.01.25-15.36,12.7-7.86,18.4Z" style="fill: #ff6d04;"/>
        <path d="M472.2,314.62c-5.27.83-11.11,1.56-15.57-1.38-2.56-1.69-5.57-4.58-8.1-2.84-.7.48-1.15,1.25-1.53,2.01-4.95,9.96-1.49,21.85,1.91,32.45,8.33,25.99,15.82,52.26,22.45,78.73,2,7.98,3.93,16.12,3.49,24.33-.44,8.21-3.6,16.65-10.1,21.68-5.38,4.16-12.53,5.66-17.62,10.18.92,1.34,2.74,1.65,4.36,1.85,4.67.57,9.56,1.11,13.97-.55,5.84-2.2,10.21-8.06,16.43-8.6.82,3.35-1.58,6.69-4.4,8.67-2.82,1.99-6.16,3.21-8.74,5.49-.63.56-1.26,1.38-.98,2.18.22.61.88.92,1.5,1.12,6.34,2.1,13.72.6,19.3-3.06,5.75-3.77,14.02-7.4,20.67-6.78-1.44-14.21.91-26.84,1.78-41.1.43-6.98.11-13.98-.24-20.97-1.11-22.44-2.54-44.87-4.29-67.28,6.76,2.05,13.92,2.76,20.96,2.09,1.14-.11-1.66-15.11-2.02-16.48-1.48-5.56-3.75-10.9-6.72-15.83-2.14-3.55-5.17-9.15-9.27-10.75-4.14-1.61-10.28.58-14.42,1.23-7.61,1.2-15.21,2.4-22.82,3.61Z" style="fill: #fff;"/>
        <path d="M536.73,54.6c-4.97,12.79-5.34,27.31-1.02,40.33,2.02,6.1,5.29,12.14,10.76,15.51,4.75,2.93,10.57,3.49,15.71,5.66,9.32,3.94,11.88,14.02,2.86,19.96-2.47,1.63-5.22,2.81-7.57,4.61-1.82,1.39-3.36,3.12-5.12,4.6-2.23,1.87-4.79,3.31-7.07,5.13-8.17,6.54-10.38,16.21-11.2,26.11-1.62,19.4-3.24,38.79-4.85,58.19-.15,1.78-.35,3.7-1.55,5.03-.7.78-1.65,1.26-2.58,1.75-6.84,3.6-13.11,8.26-18.54,13.76-2.29,2.32-4.17,5.09-6.76,7.06-.75.57-9.07,5.63-9.3,5.38,4.31,4.53,6.36,11.1,5.4,17.28,7.5-.53,14.52-3.69,21.7-5.9,5.72-1.77,11.61-2.95,17.48-4.13l12.63-2.54c3.68-.74,7.39-1.48,11.15-1.51,3.23-.02,6.43.48,9.62.99,4.04.64,8.09,1.28,12.13,1.92,4.89.78,9.81,1.56,14.45,3.28-4.03,1.69-8.39,2.56-12.76,2.57-1.89,0-4.16.02-5.19,1.61-.51.79-.56,1.79-.59,2.73-.16,5.5-.08,11.01.24,16.5l21.55-2.67c12.35-1.53,24.15-2.08,36.5-3.61,6.45-.79,12.99-1.61,18.98-4.14,5.99-2.53,11.45-7.03,13.61-13.16,1.31-3.7,1.35-7.71,1.37-11.64.11-19.68.23-39.35.34-59.03.09-15.74-3.32-33.36-13.46-45.74-4.8-5.87-11.2-9.05-16.88-13.71-6.41-5.27-13.48-9.74-21-13.25-5.39-2.52-9.57-5.61-14.19-9.31-.52-.42-1.05-.85-1.38-1.43-.51-.9-.44-2-.36-3.03.72-9.03.7-18.11,2.72-26.99.33-1.44.74-2.95,1.81-3.97s3-1.27,3.94-.12c.54.66,3.07-1.86,3.34-2.22.94-1.27,1.32-3.16,1.31-4.75,0-2.19-1.09-4.35-2.84-5.67-.4-.3-.86-.57-1.36-.63-.47-.05-.95.09-1.4.24-1.13.37-2.25.81-3.19,1.53-1.11.85-1.4,2.33-2.32,3.13-.74-2.98-.62-6.42-.99-9.49-.38-3.21-.82-6.41-1.31-9.61-7.7,1.88-15.06-3.65-21.07-8.81-.44,3.71.69,7.57,3.06,10.46-11.53-1.29-22.57-6.57-30.81-14.75-.51-.5-1.05-1.04-1.76-1.17-.74-.13-1.47.23-2.13.6-4.21,2.38-7.87,5.73-10.62,9.72-1.09-.13-2.03-1.05-2.18-2.13" style="fill: #fff;"/>
        <path d="M554.57,279.28c-4.22-1.27-8.5-2.58-12.19-4.99-1.71-1.12-3.28-2.46-5.05-3.48-3.65-2.1-8.03-2.72-12.22-2.27-4.19.45-8.21,1.91-12.01,3.73-3.3,1.58-6.55,3.54-8.68,6.51-.71,1-1.12,2.69,0,3.21.53.25,1.16.06,1.71-.13,1.97-.69,3.95-1.37,5.92-2.06.72.95-.35,2.2-1.32,2.89-.97.69-2.07,1.9-1.39,2.88.55.64,1.57.55,2.36.24.79-.31,1.55-.79,2.4-.74.47.02.91.21,1.34.38,3.34,1.27,7.03,1.58,10.53.87.74-.15,1.5-.35,2.24-.22.63.1,1.19.42,1.75.72,3.46,1.9,7.07,3.53,10.79,4.86,8.56,3.06,17.6,4.52,26.58,5.96,2.17.35,4.35.7,6.55.67.45,0,.94-.04,1.31-.3.57-.39.71-1.17.79-1.86.33-2.84.61-5.7.78-8.56,0-1.92-.1-3.66-.37-5.58-.07-.48-.14-.97-.36-1.4-.39-.73-1.19-1.18-2.01-1.28s-1.65.09-2.42.39c-.71.27-1.39.64-2.12.88-5.21,1.78-9.84.23-14.91-1.3Z" style="fill: #fff;"/>
        <path d="M477.1,261.92l1.95,4.33c.56,1.25,1.13,2.65.67,3.94-.72,2.01-3.45,2.5-4.65,4.27-.85,1.25-.72,3.07.28,4.2,1,1.13,2.78,1.47,4.14.81.58-.28,1.17-.73,1.78-.56.38.1.66.43.89.75.67.93,1.16,1.98,1.43,3.09,3.24-.45,6.44-1.21,9.53-2.28.38-.13.77-.28,1.03-.57.5-.57.36-1.44.19-2.18-.9-3.84-1.93-7.93-4.78-10.83-2.85-2.91-8.62-4.03-12.47-4.96Z" style="fill: #fff;"/>
        <path d="M463.04,263.66c-.79.75-.91,1.97-.78,3.06s.46,2.16.35,3.25c-1.71-.08-3.17,1.51-3.38,3.2-.21,1.69.58,3.38,1.68,4.68.39.46.85.98.76,1.58-.05.33-.27.6-.38.91-.4,1.12.58,2.24,1.58,2.88,1.65,1.05,3.61,1.62,5.57,1.62,1.29,0,2.72-.33,3.43-1.41.56-.85.52-1.95.46-2.97-.11-1.9-.21-3.79-.32-5.69-.06-.99-.11-1.99-.43-2.92-.75-2.21-2.73-3.59-4.24-5.24-1-1.1-2.27-4.87-4.29-2.96Z" style="fill: #fff;"/>
        <path d="M461.28,234.61c1.94,11.71,5.23,23.2,9.79,34.16.61,1.47,1.24,2.93,1.67,4.46.53,1.88.73,3.83,1.01,5.76.26,1.83.59,3.64.98,5.45.38,1.74.91,3.61,2.34,4.68,1.1.82,2.55,1.01,3.91,1.17.26.03.55.05.76-.11.21-.17.25-.46.27-.73.2-2.24.41-4.47.61-6.71.04-.48.09-.97-.03-1.44-.29-1.19-1.5-1.92-2.68-2.22s-2.44-.31-3.59-.71c-1.15-.41-2.25-1.39-2.21-2.62.04-1.39,1.51-2.33,2.89-2.5.3-.04.63-.06.86-.26.22-.2.29-.51.34-.81,1.31-8.01-2.03-15.98-5.32-23.4-1.21-2.74-2.43-5.48-3.65-8.23-1.42-3.2-2.55-7-4.47-9.94-.67-1.02-1.36-1.64-2.52-.86-1.54,1.03-1.22,3.32-.97,4.87Z" style="fill: #ff6d04;"/>
        <path d="M426.62,281.07c-2.06.15-4.4.44-5.62,2.11-1.12,1.53-.83,3.74.17,5.34,1.01,1.6,2.6,2.73,4.14,3.82,7.89,5.55,15.78,11.1,23.67,16.66,4.83,3.4,10.17,6.95,16.07,6.6,2.41-.15,4.73-.95,7.08-1.52,2.97-.71,6.01-1.05,9.05-1.39,7.14-.79,14.27-1.58,21.41-2.37,20.57-2.28,41.4-4.61,60.72-12.03-2.51-2.27-6.19-2.45-9.55-2.92-15.08-2.1-29.09-12.35-44.14-10.07-1.39.21-2.8.53-4.2.36-1.4-.17-2.83-.97-3.28-2.31-1.17.74-2.38,1.49-3.75,1.64-1.37.15-2.93-.48-3.38-1.78-.2-.58-.18-1.27-.57-1.74-1.04-1.26-2.85.41-4.34,1.09-1.57.71-3.55.19-4.99,1.13-1.85,1.2-1.88,4.19-3.77,5.33-1.42.85-3.26.28-4.66-.6-1.4-.88-2.65-2.06-4.24-2.52-1.23-.35-2.54-.22-3.82-.3-3.04-.18-5.96-1.61-8.05-3.81-.87-.92-1.45-2.44-2.59-2.91-1.4-.58-4.53.29-6.06.39-8.43.58-16.86,1.18-25.29,1.78Z" style="fill: #fff;"/>
        <path d="M528.52,354.03c3.28-.68,7.34.15,10.69.29.92.04,1.95.04,2.63-.58.49-.45.69-1.14.85-1.79.96-3.84,1.57-7.77,1.81-11.72.24-4.01,2.22-8.31,3.71-12.02,4.54-11.24,12.29-19.7,20.91-27.87.09-.08.18-.17.21-.29.09-.34-.36-.55-.7-.6-3.7-.53-7.62.78-11.13,1.8-7.21,2.09-14.75,2.38-22.11,3.68-7.34,1.3-14.81,2.17-22.15,3.7-.56.12-1.22.33-1.34.89-.06.25.02.51.1.76.83,2.67,2.72,3.88,4.31,6.07,5.01,6.89,8.62,14.8,10.56,23.09,1.12,4.77,1.69,9.68,1.65,14.58Z" style="fill: #1f89bd;"/>
        <path d="M545.17,275.38c8.86,3.56,19.72,5.59,29.22,4.6,6.91-.72,13.66-2.65,20.59-3.13-8.65-3.51-18.29-3.8-27.4-5.38-3.87-.67-6.19-1.16-9.94-.21-2.23.56-10.62,4.86-12.47,4.12Z" style="fill: #1f89bd;"/>
        <path d="M705.43,244.31c-5.87,23.13-11.73,46.26-17.6,69.39-1.73,6.81-3.46,13.63-5.86,20.23-2.78,7.65-6.44,14.94-10.09,22.22-1.4,2.78-2.87,5.66-5.34,7.56-3.51,2.7-8.27,2.89-12.7,2.97-20.11.36-40.22.71-60.32,1.07-9.72.17-19.44.34-29.16.27-6.31-.05-12.69-.21-18.76-1.91-.93-.26-1.91-.6-2.52-1.35-.61-.75-.73-1.77-.81-2.74-1.33-16.96,5.04-33.59,12.84-48.71,1.36-2.63,2.81-5.3,5.07-7.21,2.27-1.91,5.16-2.9,8-3.73,17.77-5.17,36.4-5.64,54.72-7.18,9.12-.77,18.05-2.06,27.04-3.75,3.71-.7,6.82-.5,10.35-2.28,3.41-1.72,6.43-4.18,9-6.98,4.14-4.52,7.2-9.92,10.08-15.33,9.31-17.44,17.3-35.59,23.9-54.23.52-1.47,1.37-3.21,2.93-3.27,1.44-.05,2.44,1.4,2.99,2.73,1.92,4.63,1.17,8.39.48,13.11-.95,6.46-2.64,12.82-4.24,19.14Z" style="fill: #ff6d04;"/>
        <path d="M517.78,353.05c-.68-.26-1.4-.55-2.11-.43s-1.38.87-1.11,1.55c.2.49.77.71,1.27.87,6.95,2.25,13.75,4.99,20.31,8.2,1.05.51,4.36,2.49,5.51,1.48.59-.52.14-1.83.11-2.52-.04-1.05,0-2.1.13-3.14.1-.8.25-1.6.26-2.4,0-.69-.16-1.49-.78-1.8-.24-.12-.51-.15-.78-.17-3.87-.36-7.66-.73-11.55-.58-3.8.14-7.63.3-11.26-1.06Z" style="fill: #ff9f59;"/>
        <path d="M669.27,281.34c6.89-5.63,14.04-11.59,17.5-19.79,3.43-8.13,2.73-17.36,6.18-25.48,2.38-5.58,5.27-10.91,8.24-16.19,2.24-3.97,8.19-10.34,1.81-13.39-1.45-.69-3.08-.91-4.68-1.09-9.44-1.11-18.94-1.72-28.44-1.82-.31,0-.64,0-.9.17-.36.24-.47.72-.53,1.15-.83,5.62-1.34,11.22-1.21,16.92.22,9.85.57,19.69,1.04,29.53.24,5.03.51,10.07.82,15.1.15,2.41,2.24,11.93.92,13.71,5.08-6.78,10.2-13.62,13.77-21.29,2.04-4.37,3.55-8.97,5.29-13.47,1.58-4.07,3.35-8.06,5.24-12" style="fill: #ff9f59;"/>
        <g>
          <polyline points="658.07 364.21 675.09 517.19 681.25 517.19 666.8 362.28" style="fill: #ff6d04; stroke: #2e3138; stroke-linecap: round; stroke-linejoin: round; stroke-width: 3px;"/>
          <polyline points="595.53 367.61 608.97 465.53 612.89 465.53 606.45 367.41" style="fill: #ff6d04; stroke: #2e3138; stroke-linecap: round; stroke-linejoin: round; stroke-width: 3px;"/>
          <polyline points="542.04 366.27 528.71 520.15 535.37 520.15 552.94 367.41" style="fill: #ff6d04; stroke: #2e3138; stroke-linecap: round; stroke-linejoin: round; stroke-width: 3px;"/>
          <polyline points="466.53 409.67 461.05 460.2 465.65 460.2 471.39 429.04" style="fill: #ff6d04; stroke: #2e3138; stroke-linecap: round; stroke-linejoin: round; stroke-width: 3px;"/>
          <path d="M536.05,52.94c-.32,3.21-11.99,48.95,13.26,59.69,6.02,2.56,12.21,4.68,18.91,4.17,2.97-.22,5.8-.54,8.51-.98" style="fill: none; stroke: #2e3138; stroke-linecap: round; stroke-miterlimit: 10; stroke-width: 3px;"/>
          <path d="M565.99,118.47c6,7.17,8.07,18.26,9.82,27.45" style="fill: none; stroke: #2e3138; stroke-linecap: round; stroke-miterlimit: 10; stroke-width: 3px;"/>
          <path d="M571.28,131.43c-3.3,1.95-2.66,2.37-9.71,7.24,4.54,6.49,4.51,16.1,4.85,24.02,3.46-4.56,6.39-12.72,8.64-17.99,8.09,12.38,5.72,31.66,4.65,46.41-1.85,25.52,1.05,58.17,3.95,83.59" style="fill: none; stroke: #2e3138; stroke-linecap: round; stroke-linejoin: round; stroke-width: 3px;"/>
          <path d="M603.37,122.84c1.48,2.39,1.53,4.39.51,8.52-1.02,4.13-3.48,7.81-6.24,11.13s-5.86,6.39-8.45,9.83c-5.07,6.75-8.31,18.19-8.37,21.83" style="fill: none; stroke: #2e3138; stroke-linecap: round; stroke-miterlimit: 10; stroke-width: 3px;"/>
          <path d="M604.85,125.23c11.1,7.68,29.52,18.84,40.77,26.3,9.59,6.35,16.4,17.43,19.44,27.82,2.87,9.83,2.71,20.17,2.72,30.35,0,13.11.54,26.73.52,39.79-.02,7.39,1.47,14.49,1.56,21.82.02,1.92-.04,3.85-.53,5.71-.92,3.53-3.32,6.55-6.19,8.8-2.88,2.25-6.23,3.8-9.6,5.21" style="fill: none; stroke: #2e3138; stroke-linecap: round; stroke-miterlimit: 10; stroke-width: 3px;"/>
          <path d="M561.57,138.67c-11.25,8.78-19.11,11.68-24.06,20.63-4.94,8.95-5.59,71.47-8.08,81.03" style="fill: none; stroke: #2e3138; stroke-linecap: round; stroke-miterlimit: 10; stroke-width: 3px;"/>
          <path d="M589.82,152.68c1.1.63.87.93,1.72,1.85,3.15,3.4,6.36,6.89,8.09,11.12.45,1.1.8,2.25,1.49,3.23,1.46-3.22,2.92-6.43,4.38-9.65,1.56-3.43,3.12-6.86,4.33-10.42,1.91-5.61,3.12-6.76,4.02-12.59.23-1.48.08-3.23-.18-4.7" style="fill: none; stroke: #2e3138; stroke-linecap: round; stroke-linejoin: round; stroke-width: 3px;"/>
          <path d="M645.64,155.91c-9.83,5.67-15.23,17.07-16.5,28.35-1.27,11.27.99,22.61,3.23,33.74,2.91,14.4,5.82,28.8,8.73,43.2" style="fill: none; stroke: #2e3138; stroke-linecap: round; stroke-miterlimit: 10; stroke-width: 3px;"/>
          <path d="M644.96,259.16c-5.64,1.35-9.28,6.7-14.16,9.84-2.61,1.68-5.57,2.73-8.53,3.67-14.75,4.67-30.23,7.03-45.7,6.95-.08,7.81-.16,11.16-.24,18.97" style="fill: none; stroke: #2e3138; stroke-linecap: round; stroke-miterlimit: 10; stroke-width: 3px;"/>
          <path d="M531.1,239.92v.42c-8.62.64-13.98,6.4-20.68,11.86-6.7,5.46-13.49,11.39-21.86,13.55,5.58,4.09,8.58,11.43,7.47,18.26" style="fill: none; stroke: #2e3138; stroke-linecap: round; stroke-miterlimit: 10; stroke-width: 3px;"/>
          <path d="M576.57,279.62c-15.85,4.39-26.32-.85-32.84-4.7-6.51-3.85-13.79-7.41-21.31-6.54-6.74.77-12.53,4.97-17.81,9.24-.7.57-1.42,1.16-1.81,1.98-.39.81-.36,1.9.32,2.5.83.73,2.11.4,3.14.02,3.9-1.43,7.73-3.05,11.47-4.85" style="fill: none; stroke: #2e3138; stroke-linecap: round; stroke-miterlimit: 10; stroke-width: 3px;"/>
          <path d="M516.42,278.01c-2.17,1.68-5.85,3.37-8.02,5.05-.66.51-1.37,1.13-1.4,1.96-.02.88.81,1.6,1.68,1.75s1.75-.15,2.57-.48c2.43-.99,4.68-2.39,7.04-3.53,2.36-1.15,4.92-2.07,7.55-2.01" style="fill: none; stroke: #2e3138; stroke-linecap: round; stroke-miterlimit: 10; stroke-width: 3px;"/>
          <path d="M516.87,283.79c-1.12.27-2.23,2.11-1.23,2.68,1,.56,2.24.29,3.37.09,3.72-.66,7.61-.31,11.14,1.01.97.36,1.91.79,2.8,1.33,3.82,2.3,6.59,4.78,11.39,4.61,2.32-.08,4.65-.73,6.94-.36,1.17.19,2.29.64,3.39,1.08,3.69,1.48,7.91,3.82,11.84,4.45,1.31.21,2.69-.16,4.02-.14,1.94.03,3.86.12,5.8.06" style="fill: none; stroke: #2e3138; stroke-linecap: round; stroke-miterlimit: 10; stroke-width: 3px;"/>
          <path d="M481.47,269.58c-1.22,1.2.38,2.11-1.26,2.63-1.27.4-2.61.57-3.82,1.1s-2.34,1.57-2.47,2.89c-.17,1.75,1.51,3.23,3.24,3.55,1.73.32,3.49-.19,5.21-.57.82-.18,1.65-.34,2.38-.76.51-.3.95-.71,1.38-1.12l2.91-2.77" style="fill: none; stroke: #2e3138; stroke-linecap: round; stroke-miterlimit: 10; stroke-width: 3px;"/>
          <path d="M470.7,271.17c1.03,1.49,2.24,3.26,1.61,4.96-1.4.7-3.02-.32-4.26-1.3l-2.14-1.69c-.82-.65-1.65-1.31-2.25-2.17-1.2-1.74-3.03-8.26.74-8.14,2.9.09,4.93,6.38,6.3,8.34Z" style="fill: none; stroke: #2e3138; stroke-linecap: round; stroke-miterlimit: 10; stroke-width: 3px;"/>
          <path d="M463.66,270.97c-.77-.53-3.67-.84-4.46-.33s-1.26,1.44-1.29,2.38c-.06,1.65,1.09,3.08,2.28,4.24,1.35,1.32,2.85,2.52,4.59,3.24s3.75.93,5.51.27c.66-.25,1.32-.66,1.56-1.32.38-1.02-.38-2.11-1.19-2.84" style="fill: none; stroke: #2e3138; stroke-linecap: round; stroke-miterlimit: 10; stroke-width: 3px;"/>
          <path d="M460.71,279.12c-.47.55-.46,1.39-.15,2.04s.88,1.14,1.47,1.55c1.72,1.2,3.77,1.92,5.86,2.06.73.05,1.48.03,2.17-.2,1.77-.57,2.93-2.38,3.21-4.22" style="fill: none; stroke: #2e3138; stroke-linecap: round; stroke-miterlimit: 10; stroke-width: 3px;"/>
          <path d="M471.95,273.2c-3.52-14.16-10.83-31.17-10.68-43.12,1.33-.2,2.66-.4,3.98-.6,6.24,13.77,11.05,28.2,14.32,42.96" style="fill: none; stroke: #2e3138; stroke-linecap: round; stroke-miterlimit: 10; stroke-width: 3px;"/>
          <path d="M473.88,283.39c-.3.87.01,1.86.58,2.59.57.73,1.36,1.24,2.15,1.72,1.6.98,3.25,1.87,4.93,2.69.32-1.57.63-3.15,1.2-4.65.17-.44.36-.89.38-1.36.01-.3-.04-.6-.1-.89-.2-1.09-.41-2.18-.61-3.27" style="fill: none; stroke: #2e3138; stroke-linecap: round; stroke-linejoin: round; stroke-width: 3px;"/>
          <path d="M478.45,262.5c1.49.74,3.02,1.39,4.59,1.96,1.76.63,3.58,1.15,5.45,1.19" style="fill: none; stroke: #2e3138; stroke-linecap: round; stroke-linejoin: round; stroke-width: 3px;"/>
          <path d="M495.26,279.75c-.62-.21-1.31-.05-1.89.24-.58.29-1.09.72-1.63,1.08-2.31,1.55-5.17,1.97-7.93,2.35" style="fill: none; stroke: #2e3138; stroke-linecap: round; stroke-linejoin: round; stroke-width: 3px;"/>
          <path d="M553.76,168.34c-5.54,32.85,8.5,66.06,6.87,99.34-.05,1.04-.09,2.18.55,3.01.63.82,1.74,1.08,2.75,1.29,10.21,2.02,20.55,3.43,30.93,4.22" style="fill: none; stroke: #2e3138; stroke-linecap: round; stroke-linejoin: round; stroke-width: 3px;"/>
          <path d="M668.5,203.07c14.29.7,15.14-.43,29.28,1.72,3.1.47,6.37,1.06,8.73,3.12,3.29,2.87,3.88,7.74,3.57,12.1-.35,5.02-1.57,9.93-2.79,14.81-7.28,29.16-14.63,58.31-22.04,87.44-2.37,9.32-4.76,18.68-8.54,27.52-2.14,5.01-5.02,10.14-9.92,12.51-2.7,1.3-5.75,1.63-8.73,1.93-38.54,3.77-77.38,4.46-116.03,2.06.12-19.04,5.31-38.02,14.91-54.47,1.79-3.07,3.81-6.13,6.76-8.1,3.49-2.34,7.85-2.86,12.03-3.33,21.52-2.39,43.05-4.77,64.57-7.16,6.95-.77,14.07-1.59,20.3-4.76,6.31-3.21,11.22-8.58,15.8-13.99,3.6-4.25,7.13-8.65,9.5-13.69,2.71-5.76,3.79-12.12,5.35-18.29,2.85-11.33,7.37-22.24,13.35-32.27" style="fill: none; stroke: #2e3138; stroke-linecap: round; stroke-miterlimit: 10; stroke-width: 3px;"/>
          <path d="M458.59,280.7c-12.54.06-25.07.12-37.61.18,12.99,6.89,25.58,14.54,37.7,22.87,1.16.8,2.36,1.63,3.74,1.95,1.04.25,2.12.2,3.19.14,28.85-1.45,65.16-5.73,93.79-9.56" style="fill: none; stroke: #2e3138; stroke-linecap: round; stroke-linejoin: round; stroke-width: 3px;"/>
          <path d="M420.98,281.95c-.35,3.11,0,6.51,0,6.51,1.37,1.99,31.32,24.34,38.04,26.27,4.8,1.37,9.92.61,14.86-.16,29.62-4.63,63.52-9.99,93.14-14.62" style="fill: none; stroke: #2e3138; stroke-linecap: round; stroke-linejoin: round; stroke-width: 3px;"/>
          <path d="M448.86,310.27c-1.46,1.44-2.63,3.22-3.37,5.12-1.79,4.55-1.58,9.64-.84,14.47,2.2,14.43,30.08,100.53,29.85,118.14" style="fill: none; stroke: #2e3138; stroke-linecap: round; stroke-linejoin: round; stroke-width: 3px;"/>
          <path d="M466.87,316.22c-4.14,1.12-5.35,6.36-5.43,10.64-.46,24.4,11.13,47.15,18.11,70.53,6.25,20.93,8.87,42.95,7.7,64.77-.77,14.45-16.9,23.98-29.56,30.98-2.31,1.28-4.74,2.45-6.63,4.3-1.89,1.85-3.17,4.58-2.52,7.14.93,3.68,5.15,5.35,8.85,6.2,7.92,1.82,16.5,2.38,23.93-.91,4-1.78,7.64-4.65,11.98-5.22,4.27-.56,9.19,1.06,12.56-1.62,1.94-1.55,2.71-4.12,3.2-6.55,2.18-10.8-1.15-20.93-.34-30.94" style="fill: none; stroke: #2e3138; stroke-linecap: round; stroke-linejoin: round; stroke-width: 3px;"/>
          <path d="M511.28,310.89c10.98,11.1,17.38,26.59,17.43,42.2" style="fill: none; stroke: #2e3138; stroke-linecap: round; stroke-linejoin: round; stroke-width: 3px;"/>
          <path d="M541.18,354.7c-12.11.22-24.26-1.48-35.85-5.02,4.34,38.06,6.24,77.64,3.39,115.84" style="fill: none; stroke: #2e3138; stroke-linecap: round; stroke-linejoin: round; stroke-width: 3px;"/>
          <path d="M559.84,270.31c-5.57,2.43-9.82,3.66-15.83,4.59" style="fill: none; stroke: #2e3138; stroke-linecap: round; stroke-linejoin: round; stroke-width: 3px;"/>
          <path d="M543.39,365.87c-12.08-4.06-23.9-8.88-35.39-14.41" style="fill: none; stroke: #2e3138; stroke-linecap: round; stroke-linejoin: round; stroke-width: 3px;"/>
          <path d="M474.49,448.01c0,10.09-1.85,14.93-6.91,19.57-4.95,4.55-11.64,6.97-19.22,11.02-4.97,2.65-15.18,9.11-12.47,15.99.81,2.07,3.11,3.11,5.26,3.64,3.3.81,5.16,1.58,8.49.92" style="fill: none; stroke: #2e3138; stroke-linecap: round; stroke-linejoin: round; stroke-width: 3px;"/>
          <path d="M465.65,489.37c4.96,2.48,11,2.69,16.11.55,5.03-2.11,9.01-6.27,14.09-8.25,4.21-1.64,8.86-1.66,13.38-1.57" style="fill: none; stroke: #2e3138; stroke-linecap: round; stroke-linejoin: round; stroke-width: 3px;"/>
          <path d="M446.62,480.06c3.31,3,11.16,3.24,15.36,1.72s4.59-2.45,8.22-5.06c3.78-2.72,10.13-5.79,14.81-6.32" style="fill: none; stroke: #2e3138; stroke-linecap: round; stroke-linejoin: round; stroke-width: 3px;"/>
          <path d="M555.87,69.51c.45,1.9.46,3.91.01,5.82-.42,1.78-1.21,3.46-1.7,5.23-.48,1.77-.62,3.74.25,5.36.97,1.8,3.08,2.81,5.13,2.82,2.05,0,4.02-.87,5.68-2.07" style="fill: none; stroke: #2e3138; stroke-linecap: round; stroke-miterlimit: 10; stroke-width: 3px;"/>
          <path d="M557.13,99.8c2.43,2.21,6.64,2.04,8.89-.35" style="fill: none; stroke: #2e3138; stroke-linecap: round; stroke-miterlimit: 10; stroke-width: 3px;"/>
          <path d="M575.31,73.02c.04.56.54.98,1.1.94.56-.04.98-.54.94-1.1-.04-.56-.54-.98-1.1-.94s-.98.54-.94,1.1Z" style="fill: none; stroke: #2e3117; stroke-linecap: round; stroke-linejoin: round; stroke-width: 3px;"/>
          <path d="M541.02,69.59c.04.56.54.98,1.1.94s.98-.54.94-1.1c-.04-.56-.54-.98-1.1-.94-.56.04-.98.54-.94,1.1Z" style="fill: none; stroke: #2e3117; stroke-linecap: round; stroke-linejoin: round; stroke-width: 3px;"/>
          <path d="M533.65,26.1c-8.13,5.24-13.1,15.05-12.51,24.71,4.21-6.08,10-11.06,16.64-14.33-1.24,3.67-2.5,7.43-2.46,11.31.04,3.88,1.62,7.96,4.92,10,1.91-5.5,6.17-10.13,11.49-12.49-.85.38,8.52,8.27,9.45,8.8,4.04,2.26,8.54,4.25,12.81,6.05,3.35,1.42,7.08,1.95,10.7,1.5-2.68-2.72-4.2-6.56-4.11-10.38,5.06,7.01,14.48,10.55,22.91,8.62.04,7.07.44,13.72.48,20.79.1-2.19,1.52-4.26,3.52-5.14,2-.88,4.49-.53,6.17.88,1.48,1.24,2.27,3.16,2.43,5.08.21,2.53-.71,5.22-2.72,6.77-2.01,1.55-5.13,1.66-7-.04-2.75,11.12-4.22,22.56-4.36,34.01" style="fill: none; stroke: #2e3117; stroke-linecap: round; stroke-linejoin: round; stroke-width: 3px;"/>
          <path d="M623.71,116.93c5.23,21.08,21.9,34.6,21.9,34.6" style="fill: none; stroke: #2e3138; stroke-linecap: round; stroke-miterlimit: 10; stroke-width: 3px;"/>
          <path d="M534.93,27.8c3.23-9.73,14.83-17.99,23.93-21.66,10.8-4.36,22.8-5.2,34.32-4.35,12.81.94,25.41,7.54,33.33,17.87,8.51,11.1,9.72,25.98,10.56,39.94,1.24,20.5,2.47,41.32,9.26,60.7,6,17.12,19.02,37.05,17.39,55.12" style="fill: none; stroke: #2e3138; stroke-linecap: round; stroke-miterlimit: 10; stroke-width: 3px;"/>
          <path d="M629.73,72.76c-1.49,11.61.89,23.44,4.97,34.41,4.08,10.97,9.81,21.23,15.32,31.56,4.86,9.13,9.65,18.68,10.34,29" style="fill: none; stroke: #2e3117; stroke-linecap: round; stroke-linejoin: round; stroke-width: 3px;"/>
          <path d="M612.22,101.87c-1.6,11.22.96,22.99,7.07,32.54" style="fill: none; stroke: #2e3117; stroke-linecap: round; stroke-linejoin: round; stroke-width: 3px;"/>
          <path d="M611.23,55.94c-.16,4.02-.07,8.04.26,12.05" style="fill: none; stroke: #2e3117; stroke-linecap: round; stroke-linejoin: round; stroke-width: 3px;"/>
          <path d="M623.11,35.14c1.94,4.1,2.2,8.95.71,13.23" style="fill: none; stroke: #2e3117; stroke-linecap: round; stroke-linejoin: round; stroke-width: 3px;"/>
          <path d="M607.62,45.57c-.45,4.89-1.94,9.67-4.33,13.96" style="fill: none; stroke: #2e3138; stroke-linecap: round; stroke-miterlimit: 10; stroke-width: 3px;"/>
          <path d="M603.45,44.36c-.45,4.89-1.94,9.67-4.33,13.96" style="fill: none; stroke: #2e3138; stroke-linecap: round; stroke-miterlimit: 10; stroke-width: 3px;"/>
          <path d="M495.78,284.75c2.65-.25,5.28-.76,7.84-1.52" style="fill: none; stroke: #2e3138; stroke-linecap: round; stroke-miterlimit: 10; stroke-width: 3px;"/>
          <path d="M545.47,111.93c1.14,3.79,1.56,7.76,2.42,11.62,1.49,6.74,4.33,13.18,8.3,18.83" style="fill: none; stroke: #2e3138; stroke-linecap: round; stroke-miterlimit: 10; stroke-width: 3px;"/>
          <path d="M553.79,122.89c.25,2.02,1.04,3.96,2.26,5.59" style="fill: none; stroke: #2e3138; stroke-linecap: round; stroke-miterlimit: 10; stroke-width: 3px;"/>
          <path d="M560.92,124.93c1.63,3.06,3.25,6.12,4.88,9.18" style="fill: none; stroke: #2e3138; stroke-linecap: round; stroke-miterlimit: 10; stroke-width: 3px;"/>
          <path d="M557.05,29.35c-2.04,4.69-1.01,10.56,2.51,14.28" style="fill: none; stroke: #2e3117; stroke-linecap: round; stroke-linejoin: round; stroke-width: 3px;"/>
          <path d="M567.4,34.11c-.41,6.06,1.83,12.26,6.03,16.66" style="fill: none; stroke: #2e3117; stroke-linecap: round; stroke-linejoin: round; stroke-width: 3px;"/>
          <path d="M544.62,31.83c-2.22,4.71-3.22,9.99-2.88,15.18" style="fill: none; stroke: #2e3117; stroke-linecap: round; stroke-linejoin: round; stroke-width: 3px;"/>
          <path d="M566.57,10.35c-5.5,1.39-10.71,3.96-15.15,7.5" style="fill: none; stroke: #2e3117; stroke-linecap: round; stroke-linejoin: round; stroke-width: 3px;"/>
        </g>
      </g>
    </g>
  </g>
</svg>