<?xml version="1.0" encoding="UTF-8"?>
<svg id="_圖層_2" data-name="圖層 2" xmlns="http://www.w3.org/2000/svg" viewBox="0 0 241.83 377.72">
  <g id="_圖層_1-2" data-name="圖層 1">
    <g>
      <rect x="185.41" y="167.64" width="8.13" height="41.46" style="fill: #fff;"/>
      <rect x="185.41" y=".84" width="8.13" height="115.51" style="fill: #fff;"/>
      <path d="M14.89,130.49c-1.45.26-2.84.8-4.17,1.43-3.91,1.87-9.38,5.43-10.14,10.12-.02.1-.05.19-.05.29v187.2h82.65c-.1-.52-.21-1.36-.31-1.88v-95.48h.31c-.49-3.35-1.07-6.95-2.48-10.06-1.89-4.19-5.85-8.06-10.63-7.47-12.52,1.54-25.22,1.61-37.76.21.52-9.55,1.04-19.09,1.56-28.64.24-4.34.47-8.69.28-13.03-.21-4.77-.57-9.39-1.11-14.18-.27-2.36-.27-4.74-.41-7.11-.31-5.22-1.32-10.58-4.28-14.9-2.96-4.32-8.2-7.37-13.36-6.52-.04,0-.08.01-.11.02Z" style="fill: #ff6d04;"/>
      <path d="M175.79,215.16c1.6.02,3.22.04,4.73.56,3.24,1.11,5.35,4.34,6.25,7.65.9,3.31.82,6.79,1.12,10.2.46,5.29,1.81,10.52,1.63,15.83-.06,1.89-.32,3.77-.4,5.66-.18,4.18.47,8.37.13,12.54-.03.33-.08.7-.33.91-.22.19-.54.2-.83.21-3.97.07-7.94.14-11.91.2-.07-3.23.05-6.47.37-9.69.32-3.21.83-6.42.65-9.64-.38-6.67-3.95-13.09-9.42-16.93-7.17-5.05-16.49-5.42-25.16-6.72-4.21-.63-8.38-1.51-12.49-2.65-.29-.08-.59-.17-.83-.35-1.36-1.03-3.93-5.55-2.18-7.04,1.11-.94,3.62-.48,4.98-.51,2.01-.04,4.01-.08,6.02-.11,8.03-.13,16.05-.19,24.08-.19,4.53,0,9.06.02,13.6.07Z" style="fill: #ff6d04;"/>
      <g>
        <path d="M174.08,169.04c.08,1.14.15,2.29.23,3.43,0,.09.02.18.08.24.05.04.11.04.17.05,1.52.14,3.06.17,4.59.08.09,0,.18-.01.25-.06.09-.07.11-.2.13-.32.14-1.23.21-2.46.21-3.69" style="fill: #fff; stroke: #2e3138; stroke-linecap: round; stroke-miterlimit: 10; stroke-width: 1.68px;"/>
        <path d="M147.94,352.9c.53-3.66,2.93-7.07,6.68-7.93,1.17-.27,2.39-.29,3.59-.31,6.41,0,12.83-.2,19.23-.3l4.86-.08c.94-.01,3.26.45,3.57-.66.15-.54-.23-1.45-.32-1.99-.14-.82-.26-1.63-.36-2.46-.2-1.58-.33-3.17-.39-4.76-.06-1.53-.06-3.05,0-4.58,2.69-.19,5.38-.23,8.07-.12.21,4.71.43,9.42.64,14.13,10.06-.36,20.14-.3,30.19.2,3.27.16,6.93.55,9.03,3.06,1.3,1.56,1.74,3.64,2.02,5.65.35,2.45.54,4.93.57,7.41,0,.4-.03.87-.37,1.07-.22.14-.5.11-.75.09-1.4-.15-2.81-.29-4.21-.44-.08-1.82-.16-3.65-.24-5.47-.08-1.79-.21-3.72-1.35-5.11-1.57-1.91-4.39-2.06-6.86-2.06-21.13.03-42.25.06-63.38.09-1.14,0-2.33.02-3.32.59-1.07.62-1.7,1.81-2.05,3-1.17,3.99,1.76,9.5-4.37,8.97-.71-2.44-.84-5.49-.48-8.01Z" style="fill: #fff;"/>
        <path d="M.84,329.58v32.15h10.99c1.33-10.62,2.69-21.48,5.27-31.86" style="fill: #4b4c4e; stroke: #2e3138; stroke-linecap: round; stroke-miterlimit: 10; stroke-width: 1.68px;"/>
        <path d="M88.23,329.31c1.96,10.48,3.62,21.01,4.98,31.58,3.56-.01,7.12.02,10.68.08l-.02-31.4" style="fill: #4b4c4e; stroke: #2e3138; stroke-linecap: round; stroke-miterlimit: 10; stroke-width: 1.68px;"/>
        <path d="M198.15,329.08c3.72,10.41,2.64,22.19,6.22,32.65l9.4-.06v-31.21" style="fill: #4b4c4e; stroke: #2e3138; stroke-linecap: round; stroke-miterlimit: 10; stroke-width: 1.68px;"/>
        <polyline points="185.47 329.22 185.47 344.05 174.54 344.05" style="fill: none; stroke: #2e3138; stroke-linecap: round; stroke-miterlimit: 10; stroke-width: 1.68px;"/>
        <polyline points="193.35 328.67 193.35 343.87 200.68 343.87" style="fill: none; stroke: #2e3117; stroke-linecap: round; stroke-miterlimit: 10; stroke-width: 1.68px;"/>
        <path d="M214.69,344.24h13.17c3.42,0,5.16,3.31,6.21,6.57,1.06,3.25.79,6.77.51,10.18-.21.06-.35.19-.57.19h-3.86c-.17-2.2-.09-3.95-.26-6.15-.14-1.79-.33-3.69-1.45-5.09-.68-.85-1.68-1.44-2.75-1.62l-11.37.04" style="fill: none; stroke: #2e3117; stroke-linecap: round; stroke-miterlimit: 10; stroke-width: 1.68px;"/>
        <path d="M167.92,344.24h-13.17c-3.42,0-5.16,3.31-6.21,6.57-1.06,3.25-.79,6.77-.51,10.18.21.06.35.19.57.19h3.86c.17-2.2.09-3.95.26-6.15.14-1.79.33-3.69,1.45-5.09.68-.85,1.68-1.44,2.75-1.62l11.37.04" style="fill: none; stroke: #2e3117; stroke-linecap: round; stroke-miterlimit: 10; stroke-width: 1.68px;"/>
        <path d="M200.95,348.08h-22.71" style="fill: none; stroke: #2e3117; stroke-linecap: round; stroke-miterlimit: 10; stroke-width: 1.68px;"/>
        <g>
          <path d="M149.96,292.37c2.07,6.52,2.83,13.39,4.73,19.96.48,1.65,1.03,3.28,1.46,4.94.46,1.76.8,3.56,1.13,5.35.34,1.82.68,3.63,1.02,5.45.03.14.04.32-.08.41-.06.04-.14.04-.22.04-7.08.03-14.15.07-21.23.1,1.63-5.14,2.56-10.5,2.78-15.88.08-2.08.06-4.17.33-6.24.48-3.67,1.87-7.15,2.29-10.82.2-1.75.26-2.21,2.06-2.67,1.87-.48,3.8-.69,5.73-.65Z" style="fill: #ffb681;"/>
          <path d="M183.56,216.49s.03-.06.06-.09c.34-.4,3.15-.07,3.72-.08,2.47-.03,4.95-.07,7.42-.1,2.39-.03,4.78-.07,7.17-.08,3.24-.01,7.93.41,10.08,3.18.89,1.14,1.37,2.54,1.81,3.91,1.39,4.3,2.59,8.95,1.28,13.28-.35,1.15.35,2.77.48,3.97v26.77c.2,19.63-.07,39.25-.02,58.88,0,.78-.04,1.68-.65,2.18-.46.38.32,1.16-.27,1.18-14.23.43-29.88.11-44.11.54-.78-14.28-1.56-28.56-2.34-42.84-.02-.31-.03-.64.12-.91.17-.32.53-.49.86-.65,1.59-.73,3.18-1.47,4.77-2.2.54-.25,1.12-.53,1.45-1.02.33-.49.36-1.12.38-1.71.15-4.03.31-8.06.46-12.09l13.17-.11c-.33-7.59-.65-15.18-.98-22.76-.12-2.87-.35-5.73-.55-8.59-.16-2.22.5-4.53.4-6.82-.18-4.13-1.42-8.22-3.62-11.73-.3-.48-1.38-1.53-1.11-2.09Z" style="fill: #ffb681;"/>
          <path d="M75.36,214.72c.29.32,2.88-.03,3.38-.03,1.3-.01,2.6-.02,3.9-.04,2.6-.02,5.2-.05,7.8-.07,4.88-.04,9.97-.6,14.81.1.9.13,1.81.31,2.57.79.65.41,1.15,1.02,1.6,1.64,4.37,6.12,3.9,14.3,3.47,21.42-.63,10.37-.54,20.79.25,31.15.56,7.31-2.33,14.46-1.98,21.79.03.66.1,1.4.6,1.84.45.4,1.11.44,1.72.46,4.01.1,8.02.2,12.03.31-2.21,5.17-2.6,10.93-2.49,16.55s.7,11.24.32,16.85c-.04.67-.21,1.48-.85,1.68-.31.1-.64.01-.95-.06-2.04-.47-4.16-.38-6.24-.29-8.34.36-16.68.73-25.02,1.09-2.49.11-5.01.21-7.45-.29.5-3.16.78-6.59.68-9.78v-76.23c-.26-5.13-.68-10.24-1.79-15.25-1.1-5.01-2.98-9.75-6.34-13.63Z" style="fill: #ffb681;"/>
          <path d="M108.89,130.61c.69.14,1.39.29,2.06.55.83.32,1.58.8,2.32,1.28,1.89,1.21,3.79,2.43,5.36,4.03,1.57,1.59,2.81,3.61,3.07,5.84-.93-.9-2.21-1.3-3.44-1.68-5.97-1.83-11.93-3.66-17.9-5.5-.16-.05-.33-.1-.45-.22-.15-.15-.19-.36-.22-.57-.29-1.79-.83-4.35,1.54-4.62,2.52-.29,5.22.4,7.67.91Z" style="fill: #ffb681;"/>
          <path d="M128.26,215.55c-1.59.69-3.56.44-4.92-.63-.64-.51-1.15-1.17-1.73-1.75-.71-.7-1.56-1.3-2.06-2.17-.78-1.36-.55-3.04-.48-4.6.17-3.8-.77-7.53-.86-11.31-.04-1.43-.34-3.28.31-4.62.14-.28.35-.51.46-.8.15-.39.11-.86.41-1.15,1.39,2.1,1.11,4.33,1.63,6.62.27,1.18.71,2.35,1.07,3.51,1.04,3.33,2.12,6.65,3.26,9.95.16.47,2.4,7.18,2.91,6.96Z" style="fill: #ffb681;"/>
          <path d="M48.42,134.61c-.46-1.9-.41-3.91.13-5.79-4.29,0-8.59.05-12.86.47-1.32.13-2.63.29-3.96.36-2.1.1-4.21-.06-6.31.03-.93.04-2.23-.01-3.09.36-.96.42-.43.78.24,1.37,2.77,2.46,5.52,5.06,7.24,8.39,1.69,3.27,2.24,7,2.7,10.65,2.18,17.17,1.68,34.29.98,51.58-.19,4.64-.6,9.14-.85,13.96,6.92-.23,13.85-.02,20.74.62-3.13.49-5.81-2.23-7.47-4.93-1.07-1.73-1.99-3.61-2.27-5.62-.37-2.59.32-5.19.91-7.74.68-2.97,1.24-5.96,1.65-8.98.39-2.84.55-5.7.99-8.51.09-.59.23-1.2.05-1.76-.01-.04-.03-.08-.06-.11-.07-.08-.19-.06-.3-.05-.58.04-.87-.43-1.27-.76-.5-.4-1.14-.65-1.51-1.17-.52-.72-.36-1.71-.17-2.58.83-3.89,1.65-7.77,2.48-11.66.66-3.11,1.33-6.23,2.49-9.19.39-.98.84-1.96,1.51-2.77.82-1,1.93-1.71,3.03-2.4,2.49-1.58,4.98-3.17,7.47-4.75,3.21-2.04,6.47-4.11,10.12-5.16.4-.12.84-.24,1.1-.56.31-.39.28-.94.23-1.43-.25-2.42-.2-6.5-2.71-7.73-1.76-.87-6.87-1.07-8.59-.39-.57.23-1,.7-1.41,1.16-1.94,2.2-3.93,4.47-4.97,7.21-.26.7-.48,1.45-1.02,1.96s-1.55.62-1.96,0c-.17-.26-.21-.58-.24-.89-.21-2.02-.42-4.04-.63-6.06-1.08.91-1.98,2.03-2.66,3.26-.56-1.88-.85-3.84-.85-5.8-2.78.75-5.7.81-8.58.87-5.77.11-11.54.22-17.32.33" style="fill: #ffb681;"/>
          <path d="M59.77,193.01c-.24,3.1-.48,6.2-.72,9.3,1.59.27,3.19.46,4.8.55.82-3.49-.03-7.13-.25-10.71-.14-2.27-.01-4.55-.03-6.82,0-.93.1-1.87,0-2.8-.11-1,.04-2-.44-2.93-.03-.05-.06-.1-.11-.12-.06-.02-.13.02-.18.07-1.99,1.59-2.01,4.25-2.36,6.55-.35,2.29-.53,4.6-.71,6.91Z" style="fill: #ffb681;"/>
        </g>
        <path d="M157.88,228.55c2.42.47,4.86.95,7.15,1.86,5.51,2.19,9.95,6.93,11.76,12.58,2.11,6.55.75,13.63.15,20.49-.49,5.6-.45,11.22-.47,16.84,0,.61-.01,1.26-.32,1.79-.63,1.07-2.08,1.17-3.3,1.35-4.29.64-7.81,3.63-11.78,5.35-2.83,1.22-5.88,1.8-8.92,2.35-12.07,2.17-24.36,3.93-36.58,2.86-1.41-.12-3.09-.67-4.37-1.29-.23-.11-.47-.24-.6-.46-.18-.29-.14-.65-.09-.98.68-4.84,1.37-9.69,2.05-14.53.3-2.14.22-4.19.63-6.33.42-2.2.96-4.4.93-6.66-.04-2.64-.85-5.21-1.1-7.84-.29-3.08.19-6.17.4-9.25.24-3.59.1-7.18-.04-10.78-.17-4.51-.35-9.02-.52-13.54,1.29-.35,2.48.85,3.06,2.05.58,1.2.94,2.61,2.01,3.41,1.07.8,3.12.2,2.93-1.12.69.05,1.36.44,1.73,1.03,1.01-1.11,2.87-1.31,4.1-.44.23.16.85-2.05.87-2.26-.09.73,2.75-.59,2.9-.67,1.2-.59,2.36-.04,3.57.34,1.1.35,2.25.51,3.4.67,6.84.97,13.67,1.86,20.45,3.17Z" style="fill: #1f89bd;"/>
        <path d="M137.39,34.5c1.05-7.97,8.24-14.69,16.26-15.2,8.02-.51,16.01,5.24,18.06,13.01l.03,34.34c.17,1.79-.84,3.75-2.42,4.6-3.43,1.88-8.2,1.19-11.95,1.17-4.54-.03-9.09-.13-13.63-.3-1.63-.06-3.47-.23-4.52-1.49-1.07-1.3-1.35-3.17-1.72-4.75l-.12-31.37Z" style="fill: #fff;"/>
        <path d="M167.06,48.37c.36,0,.75,0,1.04.22.34.25.43.71.49,1.12.35,2.76-.19,5.56-.04,8.34.09,1.62.41,3.23.39,4.86s-.42,3.33-1.56,4.49c-1.45,1.47-3.7,1.72-5.76,1.89-4.86.39-9.75.78-14.61.4-2.24-.17-4.85-.8-5.7-2.88-.25-.61-.31-1.28-.36-1.93-.23-2.96-.38-5.93-.45-8.91-.04-1.71-.83-5.71.5-7.07,1.35-1.38,5.61-.54,7.39-.54,2.94,0,5.89,0,8.83,0,3.28,0,6.57,0,9.85,0Z" style="fill: #1f89bd;"/>
        <path d="M206.62,34.5c1.05-7.97,8.24-14.69,16.26-15.2,8.02-.51,16.01,5.24,18.06,13.01l.03,34.34c.17,1.79-.84,3.75-2.42,4.6-3.43,1.88-8.2,1.19-11.95,1.17-4.54-.03-9.09-.13-13.63-.3-1.63-.06-3.47-.23-4.52-1.49-1.07-1.3-1.35-3.17-1.72-4.75l-.12-31.37Z" style="fill: #fff;"/>
        <path d="M236.36,48.37c.36,0,.75,0,1.04.22.34.25.43.71.49,1.12.35,2.76-.19,5.56-.04,8.34.09,1.62.41,3.23.39,4.86s-.42,3.33-1.56,4.49c-1.45,1.47-3.7,1.72-5.76,1.89-4.86.39-9.75.78-14.61.4-2.24-.17-4.85-.8-5.7-2.88-.25-.61-.31-1.28-.36-1.93-.23-2.96-.38-5.93-.45-8.91-.04-1.71-.83-5.71.5-7.07,1.35-1.38,5.61-.54,7.39-.54,2.94,0,5.89,0,8.83,0,3.28,0,6.57,0,9.85,0Z" style="fill: #ff6d04;"/>
        <path d="M150.42,292c-.12.03-.26.08-.32.18-.06.1-.05.23-.03.35,1.92,11.72,4.79,23.28,8.57,34.54,1,2.97,2.06,5.94,2.61,9.03.52,2.93.56,5.92.72,8.9.03.57.07,1.16.32,1.68.24.49.65.88,1.05,1.24,3.42,3.1,7.21,5.79,11.26,8,.37.2.76.4,1.18.36.34-.03.65-.22.93-.41l4.73-3.04c-.56-.85-1.58-1.24-2.49-1.71-2.8-1.48-4.79-4.19-5.97-7.13-1.18-2.93-1.63-6.1-2-9.25-1.52-12.84-1.87-25.78-2.22-38.7-.06-2.27-.09-4.55-.18-6.82-.13-3.01-1.92-1.68-4.25-1.04-4.64,1.27-9.28,2.54-13.92,3.81Z" style="fill: #fff;"/>
        <g>
          <path d="M122.25,329.63c.02,4.68.16,9.35.46,14.02.12,1.83.26,3.66.14,5.48-.3,4.85,2.1,7.02,5.41,10.25.66.64,1.35,1.27,1.9,2.01.35.48.65,1.01,1.1,1.4.44.38,1,.6,1.54.81.59.23,1.19.46,1.78.69.12.05.25.1.39.1.19,0,.36-.08.52-.17,1.51-.75,3.11-1.33,4.75-1.71-1.13-1.76-2.26-3.52-3.39-5.29-1.27-1.97-2.41-4.27-2.99-6.56-.27-1.06-.43-2.15-.34-3.24.06-.76.24-1.51.42-2.26.85-3.53.92-7.22,1.76-10.69.91-3.77,1.69-7.6,2.47-11.41.34-1.65.68-3.31.93-4.98.68-4.47.76-9.01,1.27-13.5.25-2.22.61-4.43,1.19-6.59.4-1.47,2.25-4.32-.12-4.92-.63-.16-1.3-.05-1.94.05-4.43.7-8.92,1-13.4.91-.23,0-.47,0-.65.13-.14.1-.22.27-.29.43-1.28,2.94-1.81,6.15-2.02,9.34-.57,8.55-.93,17.12-.89,25.68Z" style="fill: #fff;"/>
          <path d="M122.79,362.59c1.25,2.43,2.94,4.63,4.96,6.46.35.32.72.63,1.04.98.59.64,1.04,1.39,1.62,2.04,1.38,1.53,3.4,2.33,5.4,2.84.81.21,1.63.37,2.46.39,1.77.05,3.49-.57,5.14-1.24.18-.07.36-.15.55-.12s.36.21.32.39c-.02.1-.1.17-.17.23-1.47,1.33-3.6,1.58-5.58,1.76-2.04.19-4.19.37-6.07-.43-.54-.23-1.05-.54-1.56-.84-.79-.48-1.59-.96-2.38-1.44-.73-.44-3.93-4.27-4.77-5.73-.69-1.19-1.52-2.29-2.11-3.53-.41-.87-1.07-2.51-.65-3.47.52-1.19,1.53,1.19,1.8,1.71Z" style="fill: #fff;"/>
          <path d="M127.86,359.52c1.23,1.16,2.47,2.31,3.75,3.41.81.69,1.69,1.39,2.74,1.55,1.3.2,2.55-.47,3.77-.97,1.22-.5,2.71-.81,3.77-.02.37.28.64.66.9,1.04,1.2,1.72,2.39,3.44,3.59,5.16.13.19.26.39.28.61.01.22-.09.43-.21.62-.82,1.35-2.24,2.25-3.74,2.73-1.5.48-3.1.57-4.68.58-1.7.02-3.45-.05-5.02-.72-1.99-.85-3.46-2.57-4.85-4.23-.61-.73-1.23-1.47-1.84-2.2-1.71-2.04-3.43-4.09-4.84-6.35-.95-1.53-1.79-3.27-1.6-5.06.11-1.07.62-2.09,1.38-2.86.17-.17.37-.39.59-.51.44-.22.31-.25.57.11.31.43.45,1.12.71,1.59,1.17,2.14,2.98,3.84,4.74,5.49Z" style="fill: #fff9cb;"/>
          <path d="M125.09,294.42c-3.71,9.27-2.07,58.57-2.07,58.57" style="fill: none; stroke: #2e3117; stroke-linecap: round; stroke-miterlimit: 10; stroke-width: 1.68px;"/>
          <line x1="142.81" y1="293.76" x2="133.38" y2="349.39" style="fill: none; stroke: #2e3117; stroke-linecap: round; stroke-miterlimit: 10; stroke-width: 1.68px;"/>
          <path d="M133.38,349.39c.7,6.65,7.59,13.17,11.47,17.47,1.01,1.12,2.02,2.52,1.71,4-.26,1.25-1.39,2.12-2.53,2.7-3.94,1.98-8.94,1.65-12.59-.84-2-1.37-3.55-3.28-5-5.22-1.25-1.68-2.45-3.41-3.65-5.13-1.14-1.64-2.3-3.34-2.74-5.29-.43-1.95.04-4.24,1.66-5.41" style="fill: none; stroke: #2e3117; stroke-linecap: round; stroke-miterlimit: 10; stroke-width: 1.68px;"/>
          <path d="M140.49,362.94c-1.77.03-3.52.67-4.89,1.79-.21.17-.45.37-.73.35-.16-.01-.31-.1-.45-.19-5.13-3.2-9.36-7.81-12.1-13.2" style="fill: none; stroke: #2e3117; stroke-linecap: round; stroke-miterlimit: 10; stroke-width: 1.68px;"/>
          <path d="M146.31,372.09c-1.06,2.93-4.3,4.66-7.42,4.77s-7.3.07-12.12-5.34c-.8-.9-1.38-1.97-2.08-2.95-2.43-3.45-4.97-7.27-4.68-11.48" style="fill: none; stroke: #2e3117; stroke-linecap: round; stroke-miterlimit: 10; stroke-width: 1.68px;"/>
        </g>
        <path d="M163.95,355.72c1.7,2.13,3.79,3.96,6.13,5.37.41.25.83.48,1.21.76.7.51,1.29,1.16,1.99,1.68,1.66,1.23,3.79,1.62,5.86,1.73.83.04,1.67.05,2.49-.09,1.75-.3,3.31-1.24,4.79-2.22.16-.1.33-.21.52-.22s.4.13.39.32c0,.1-.06.18-.12.26-1.19,1.59-3.22,2.25-5.12,2.82-1.97.59-4.03,1.18-6.04.76-.58-.12-1.14-.32-1.69-.52l-2.62-.95c-.8-.29-4.69-3.42-5.8-4.69-.9-1.03-1.94-1.95-2.76-3.05-.58-.77-1.54-2.25-1.31-3.28.27-1.27,1.73.86,2.1,1.32Z" style="fill: #fff;"/>
        <path d="M157.31,324.48c.03.11.07.23.1.34.48,1.57,1.34,2.98,1.87,4.5.49,1.41.36,3.16.45,4.66.22,3.54.5,7.09,1.14,10.58.11.6-.02,1.12.3,1.65.56.94,1.27,1.76,2.07,2.51,1.64,1.53,3.58,2.69,5.45,3.9.77.5,1.58.98,2.26,1.6.44.4.84.86,1.36,1.16.51.29,1.1.4,1.67.5.63.11,1.25.22,1.88.33.13.02.27.05.4.02.18-.03.34-.15.48-.27,1.33-1.03,2.79-1.91,4.32-2.6-1.45-1.51-2.91-3.01-4.36-4.52-1.79-1.85-3.72-3.56-4.42-6.14-.48-1.77-.53-3.63-.62-5.47-.24-4.62-1.16-9.11-1.65-13.66-.22-2.08.32-4.22.14-6.35-.19-2.23-.62-4.43-.88-6.65-.86-7.28.16-14.74-1.36-21.91-.06-.27-.14-.58-.38-.72-.22-.13-.49-.08-.73-.02-1.83.39-17.1,4.9-17.13,4.74.54,2.98,1.46,5.87,2.5,8.7.8,2.17,1.03,4.22,1.61,6.41,1.45,5.51,1.93,11.26,3.54,16.72Z" style="fill: #fff;"/>
        <path d="M168.33,351.72c1.44.89,2.87,1.78,4.34,2.62.93.52,1.92,1.03,2.99.98,1.31-.06,2.41-.96,3.51-1.68,1.1-.73,2.5-1.32,3.69-.76.41.2.75.52,1.09.84,1.51,1.45,3.02,2.9,4.53,4.35.16.16.34.33.39.55.06.21,0,.44-.08.65-.54,1.48-1.75,2.65-3.13,3.41s-2.93,1.16-4.47,1.49c-1.67.35-3.4.63-5.06.28-2.12-.44-3.89-1.84-5.58-3.2-.75-.6-1.49-1.2-2.24-1.8-2.08-1.67-4.17-3.34-5.99-5.28-1.24-1.31-2.39-2.85-2.56-4.65-.1-1.07.2-2.17.79-3.07.13-.2.29-.46.48-.61.39-.31.25-.31.59,0,.39.36.66,1.01,1.01,1.42,1.57,1.87,3.67,3.19,5.72,4.46Z" style="fill: #fff9cb;"/>
        <path d="M171.51,340.73c2.25,5.34,10.26,11.41,14.9,14.86,1.21.9,2.47,2.08,2.46,3.59,0,1.28-.95,2.35-1.96,3.14-3.48,2.71-8.45,3.37-12.51,1.64-2.23-.95-4.12-2.52-5.92-4.14-1.56-1.41-3.07-2.86-4.58-4.32-1.44-1.39-2.91-2.82-3.72-4.65-.81-1.83-.79-4.17.57-5.63" style="fill: none; stroke: #2e3117; stroke-linecap: round; stroke-miterlimit: 10; stroke-width: 1.68px;"/>
        <path d="M181.38,352.6c-1.73.38-3.32,1.35-4.44,2.71-.18.21-.37.45-.64.49-.16.02-.32-.04-.47-.09-5.65-2.13-10.71-5.83-14.45-10.58" style="fill: none; stroke: #2e3117; stroke-linecap: round; stroke-miterlimit: 10; stroke-width: 1.68px;"/>
        <path d="M188.88,360.44c-.47,3.09-3.31,5.41-6.34,6.13-3.04.72-7.15,1.49-12.93-2.87-.96-.72-1.74-1.66-2.61-2.49-3.06-2.91-6.29-6.16-6.83-10.34" style="fill: none; stroke: #2e3117; stroke-linecap: round; stroke-miterlimit: 10; stroke-width: 1.68px;"/>
        <g>
          <path d="M44.17,202.35c-.34,2.65-.48,5.33.23,7.89.54,1.92,1.65,3.79,3.43,4.69,1.5.76,3.26.75,4.94.72,14.81-.28,29.61-.81,44.4-1.57,2.7-.14,5.49-.27,8,.72,1.98.78,3.63,2.2,5.14,3.69,2.36,2.33,4.49,4.89,6.33,7.65.7,1.05,1.49,2.21,2.72,2.49.12-1.01.4-2.01.82-2.94.69.57,1.37,1.15,2.06,1.72.25-.78.51-1.56.76-2.33.68,1.04,1.52,1.97,2.46,2.77.65-.94.9-1.93,1.19-3.01.45.14.91.28,1.36.41.16.04.32.08.49.08s.34-.07.44-.2c.12-.14.14-.35.15-.53.02-1.48-.94-3.12-1.68-4.37-1.74-2.93-4.27-5.36-7.16-7.14-4.63-2.84-10.06-4.09-15.46-4.65-3.58-.37-7.18-.45-10.76-.78-3.4-.31-6.77-.84-10.13-1.36-8.41-1.32-16.83-2.63-25.24-3.95-.27-.04.23.15,0,0-.8-.52-.04-1.23.4-2.08,1.71-3.32.72-6.73,1.39-10.4.27-1.49,2.72-10.61.85-10.74-2.5-.18-5.01-.31-7.51-.39-1.37-.04-5.57-.81-6.34.46-.38.62-.06,1.38-.07,2.04,0,.66-.18,1.21-.31,1.86-.38,1.86-.57,3.78-.86,5.65-.57,3.76-1.14,7.53-1.72,11.29-.12.76-.23,1.53-.33,2.3Z" style="fill: #fff;"/>
          <path d="M129.84,171.16c.26.5.37,1.21.43,2.11.42,5.74.62,11.5.93,17.24.07,1.38.15,2.76.09,4.13-.06,1.52-.28,3.03-.49,4.53-.24,1.68-.48,3.37-.72,5.05-.04.3-.1.63-.33.83-.17.15-.4.2-.63.24-3.53.61-2.32-.52-5.57,1.01-1.43-7.49-2.33-12.79-3.38-20.28-.25-1.8-.1-5.39.03-7.21.17-2.26-.29-4.56-1.31-6.58,2.76-.6,5.52-1.23,8.29-1.8,3.42-.7,3.2,3.02,3.8,5.46.47,1.93,1.19,3.79,1.73,5.71,1.74,6.18,1.6,12.79,3.62,18.88.13.39.28.79.59,1.06.26.22.59.32.92.4,4.3,1.17,8.72,1.92,13.17,2.22,2.57.18,5.17.21,7.7.72,1.88.38,3.7,1.02,5.52,1.65,5.27,1.85,11.01,2.15,16.6,2.34,2.29.08,4.58-.02,6.87.08,6.42.27,12.76,2.09,18.35,5.27.54.31,1.08,1.14.52,1.41-.12.06-.25.06-.38.06-1.64,0-3.29,0-4.93,0-22.33-.01-44.67-.03-67-.26-2.02-.02-4.15-.07-5.9-1.08-2.33-1.34-3.46-4.05-4.32-6.61-2.8-8.41-4.32-17.24-4.49-26.11" style="fill: #fff;"/>
          <path d="M123.77,167.8c-1.6.3-3.24.53-4.75,1.14-.15.06-.31.14-.36.29-.04.12,0,.25.04.37.25.76.51,1.52.76,2.28,4.19.07,8.31-1.04,12.29-2.34.93-.3,1.88-.63,2.62-1.27.16-.14.31-.29.35-.49.04-.15.01-.31-.01-.46-.11-.69-.03-2.15-.88-2.34-.79-.17-2.12.66-2.83.91-2.35.82-4.77,1.47-7.22,1.93Z" style="fill: #8fc4de;"/>
          <path d="M43.86,175c.06,1.04.09,2.07.09,3.11,2.09.2,4.18.4,6.27.44.98.02,1.95,0,2.93.06.88.05,1.76.17,2.64.27,2.35.27,4.65.21,6.99,0,.2-.02.42-.05.54-.22.07-.1.09-.22.1-.33.04-.37.04-.75-.08-1.1-.12-.35-.37-.67-.71-.81-.34-.14-.7-.08-1.05-.09-.29-.01-.57-.12-.86-.12-1.36-.02-2.71-.02-4.07-.07-2.75-.09-5.49-.29-8.22-.57-.4-.04-4.55-.4-4.56-.57Z" style="fill: #8fc4de;"/>
          <path d="M106.76,137.89c-.7,2.39-2.37,4.49-4.56,5.69-1.64.91-3.5,1.31-5.33,1.7-2.07.44-4.15.89-6.22,1.33-4.48.96-9.06,1.92-13.6,1.31-2.48-.34-4.92-1.22-6.97-2.67-1-.71-1.91-1.56-2.65-2.54-.25-.34-.63-1.34-.97-1.53-.73-.4-1.96-.01-2.68.23-.87.3-1.77.62-2.63.97-1.9.76-3.58,2-5.01,3.46-1.94,1.97-3.45,4.31-4.89,6.67-1.11,1.81-2.19,3.65-2.99,5.63-.67,1.67-1.13,3.42-1.65,5.14-.5,1.64-1.42,3.27-1.67,4.94-.07.44-1.12,7.23-1.05,7.24,5.88,1.06,13.72,1.03,19.68.49,1.61,4.88-.13,10.73.14,15.83.11,2.15.18,4.31.2,6.46.01,1.19-.56,4.31.21,5.25.34.42.93.52,1.47.59,12.4,1.58,24.8,3.15,37.2,4.73,2.37.3,4.75.6,7.13.82,2.98.27,6.08.42,8.72,1.83.65-3.12-.13-6.22-.28-9.33-.16-3.4-1.05-6.77-.64-10.19.28-2.31,1.17-4.52,1.56-6.82.78-4.6.5-10.05-.19-14.62-.03-.22-.06-.47.06-.66.16-.24.48-.27.77-.3,2.24-.18,4.4-.9,6.53-1.62,2.66-.89,5.31-1.79,7.97-2.68.01,0-2.36-7.77-2.54-8.43-1.03-3.73-2.42-7.47-4.99-10.36-2.33-2.63-5.47-4.39-8.68-5.81-3.6-1.59-7.36-2.8-11.21-3.62" style="fill: #1f89bd;"/>
          <path d="M112.33,91.49c.91-.44,2.06.05,2.68.85.61.81.82,1.85.96,2.85.23,1.57.36,3.2-.13,4.7-.5,1.5-1.78,2.85-3.35,2.97" style="fill: #fff; stroke: #2e3138; stroke-linecap: round; stroke-linejoin: round; stroke-width: 1.68px;"/>
          <g>
            <path d="M63.16,95.56c-.34,1.23-.45,2.56-1.1,3.65-.62,1.04-3.79.08-5,1.08-.76.63-1.1,1.66-1.18,2.65-.11,1.27.15,2.56.7,3.7.27.55.59,1.04,1,1.48.49.52.89,1.11,1.4,1.62.45.45.95.88,1.53,1.13.4.18.84.27,1.27.33.98.14,1.99.1,2.93-.2.24-.08.48-.17.73-.18.79-.02.82,1.03.98,1.61.23.8.47,1.6.7,2.41.47,1.6.93,3.21,1.4,4.81.83,2.86,1.66,5.71,2.49,8.57.33,1.13.66,2.25.9,3.4.44,2.09.57,4.23.71,6.36.01.21-3.61,1.73-4,1.93-1.51.77-2.61,1.46-.99,2.99,6.14,5.82,15.28,5.26,23.05,4.3,2.35-.29,4.7-.7,6.89-1.6,3.35-1.38,6.14-3.87,8.39-6.7,1.48-1.86-1.04-2.17-2.4-2.54-.87-.24-1.76-.41-2.61-.74-.74-.28-1.85-.81-2.08-1.62-.26-.94.05-2.44.07-3.43,0-.72-.32-6.82.1-6.99,3.76-1.55,7.61-4.22,9.73-7.68,1.73-2.82,2.36-6.17,2.95-9.42.37-2.03.74-4.05,1.11-6.08.44-2.4.23-4.85-.22-7.23-.45-2.36-.84-5.28-1.78-7.48-.65-1.51-2.99-2.97-4.53-4.01-1.88-1.28-3.91-2.34-6.03-3.15-5.13-1.96-10.82-2.46-16.19-1.31-5.37,1.15-10.38,3.95-14.1,8-1.81,1.97-3.3,4.21-4.79,6.43-.75,1.12-1.51,2.26-1.92,3.55-.04.12-.07.23-.11.35Z" style="fill: #fff;"/>
            <path d="M70.35,140.16c.64.4.98,1.11,1.46,1.69.46.56,1.06.99,1.7,1.33,2.7,1.46,5.95,1.37,9.01,1.16,5.75-.4,11.59-1.15,16.78-3.65.58-.28,1.16-.59,1.57-1.08.52-.63.69-1.46,1.03-2.21s1-1.47,1.81-1.41c.68.05,1.23.63,1.91.7.3.03.64-.03.85.18.22.21.16.57.07.86-.83,2.75-2.83,5.12-5.4,6.4-1.69.84-3.58,1.22-5.43,1.58-2.4.47-4.81.94-7.21,1.42-1.4.27-2.8.55-4.22.73-3.16.39-6.39.29-9.52-.3-1.49-.28-3-.69-4.26-1.53-1.36-.9-3.13-2.74-3.63-4.34-.53-1.7,2.37-2.22,3.48-1.52Z" style="fill: #8fc4de;"/>
            <path d="M56.95,99.71c-.12,0-.26.01-.37-.04-.12-.06-.2-.19-.26-.31-2.52-4.68-3.02-10.32-1.83-15.51,1.19-5.19,3.99-9.92,7.6-13.83,1.15-1.24,2.38-2.41,3.77-3.38,1.89-1.31,4.02-2.23,6.15-3.07,3.63-1.42,7.38-2.67,11.27-2.92,6.16-.4,12.28,1.75,17.55,4.96,2.04,1.24,4.01,2.68,5.48,4.56,1.65,2.12,2.58,4.7,3.49,7.23.88,2.46,1.77,5.07,1.3,7.64-4.07-3.44-8.71-6.31-13.83-7.81-5.12-1.5-10.75-1.54-15.69.47-2.01.82-3.87,1.96-5.65,3.19-2.28,1.58-4.46,3.31-6.5,5.19-1.94,1.78-3.77,3.71-5.11,5.98-.57.96-1.04,1.98-1.38,3.04-.35,1.09-.28,2.29-.61,3.34-.53,1.7-3.98,1.18-5.38,1.26Z" style="fill: #ff6d04;"/>
            <path d="M63.02,111.76c-.65,0-1.61-.31-1.89.41-.24.6.67,1.9,1.01,2.33.64.82,1.48,1.29,2.25,1.97.71.62,1.25,1.28,2.12,1.74.46.24,1.04.48,1.47.18.07-.05.13-.1.15-.18.02-.06.02-.14.02-.2-.03-.66-.24-1.29-.45-1.91-.33-.98-.67-1.96-1.02-2.94-.15-.42-.29-.84-.48-1.24-.11-.24-.4-.99-.71-1.02-.25-.03-.88.52-1.13.64-.4.19-.87.23-1.35.23Z" style="fill: #ff6d04;"/>
            <g>
              <path d="M56.91,104.62c.14-.48-.68-3.14-.55-3.62-3.27-6.74-3.6-14.85-.88-21.83,2.72-6.98,8.45-12.73,15.43-15.48,8.53-3.36,17.2-3.75,25.77-.47,2.32.89,5.72,3.51,7.57,5.17,1.62,1.45,2.83,3.31,3.82,5.25,2.26,4.45,3.43,9.44,3.39,14.43" style="fill: none; stroke: #2e3138; stroke-linecap: round; stroke-linejoin: round; stroke-width: 1.68px;"/>
              <path d="M68.53,72.93l-3.76,7.28c-3.84,7.44-7.76,15.16-8.26,23.52" style="fill: none; stroke: #2e3138; stroke-linecap: round; stroke-linejoin: round; stroke-width: 1.68px;"/>
              <path d="M61.85,114.73c.8.61,3.18,3.86,5.04,3.71" style="fill: none; stroke: #2e3138; stroke-linecap: round; stroke-linejoin: round; stroke-width: 1.68px;"/>
              <path d="M57.4,98.96c3.8-8.41,9.43-15.98,16.4-22.02,2.67-2.31,5.78-4.5,9.31-4.55" style="fill: none; stroke: #2e3138; stroke-linecap: round; stroke-linejoin: round; stroke-width: 1.68px;"/>
            </g>
            <g>
              <path d="M65.76,110.44c-.84.82-2.06,1.19-3.22,1.11s-2.28-.58-3.22-1.28c-2.4-1.81-3.61-5.07-2.97-8.01.13-.58.33-1.16.72-1.59.65-.72,1.7-.92,2.66-.89.86.02,1.71.2,2.51.52,0,0,1.57,4.3,0,0-1.95-5.35,10.58-23.04,26.26-23.78,15.68-.74,22.23,8.95,22.23,8.95,0,0,9.33,38.76-17.63,38.44" style="fill: none; stroke: #2e3138; stroke-linecap: round; stroke-miterlimit: 10; stroke-width: 1.68px;"/>
              <path d="M65.01,106.19s7.95,27.58,7.42,32.23" style="fill: none; stroke: #2e3138; stroke-linecap: round; stroke-miterlimit: 10; stroke-width: 1.68px;"/>
              <path d="M103.49,93.46c.08,1.05-.7,1.97-1.75,2.05s-1.97-.7-2.05-1.75.7-1.97,1.75-2.05c1.05-.08,1.97.7,2.05,1.75Z" style="fill: #2e3138;"/>
              <path d="M82.42,95.11c.08,1.05-.7,1.97-1.75,2.05s-1.97-.7-2.05-1.75c-.08-1.05.7-1.97,1.75-2.05,1.05-.08,1.97.7,2.05,1.75Z" style="fill: #2e3138;"/>
              <path d="M86.27,79.91c1.15.09,2.31,0,3.42-.28" style="fill: none; stroke: #2e3138; stroke-linecap: round; stroke-miterlimit: 10; stroke-width: 1.68px;"/>
              <path d="M85.64,83.46c1.74.16,3.51.04,5.22-.36" style="fill: none; stroke: #2e3138; stroke-linecap: round; stroke-miterlimit: 10; stroke-width: 1.68px;"/>
              <path d="M91.12,95.17c.63,1.57,1.48,3.06,2.52,4.4.5.65,1.07,1.33,1.1,2.16.02.75-.44,1.45-1.03,1.91-.86.68-2.15.93-3.05.3" style="fill: none; stroke: #2e3138; stroke-linecap: round; stroke-miterlimit: 10; stroke-width: 1.68px;"/>
              <path d="M90.19,111.27c1.52.65,3.77.54,5.28-.26" style="fill: none; stroke: #2e3138; stroke-linecap: round; stroke-miterlimit: 10; stroke-width: 1.68px;"/>
              <path d="M92.04,116.18c.93-.07,1.86-.15,2.8-.22" style="fill: none; stroke: #2e3138; stroke-linecap: round; stroke-miterlimit: 10; stroke-width: 1.68px;"/>
              <path d="M83.51,106.41c-.61.59-.99,1.4-1.06,2.24" style="fill: none; stroke: #2e3138; stroke-linecap: round; stroke-miterlimit: 10; stroke-width: 1.68px;"/>
              <path d="M99,105.3c1.41-.06,2.81.84,3.35,2.15" style="fill: none; stroke: #2e3138; stroke-linecap: round; stroke-miterlimit: 10; stroke-width: 1.68px;"/>
              <line x1="99.34" y1="124.27" x2="99.26" y2="136.32" style="fill: none; stroke: #2e3138; stroke-linecap: round; stroke-miterlimit: 10; stroke-width: 1.68px;"/>
              <path d="M61.01,104.06c-.13-.5-.85-.68-1.28-.39-.43.29-.58.89-.47,1.39.11.51.43.95.77,1.34" style="fill: none; stroke: #2e3138; stroke-linecap: round; stroke-miterlimit: 10; stroke-width: 1.68px;"/>
              <path d="M71.97,138.36c-3.12,1.3-3.38.86-6.28,2.6" style="fill: none; stroke: #2e3138; stroke-linecap: round; stroke-miterlimit: 10; stroke-width: 1.68px;"/>
              <path d="M99.67,135.07s11.13,2.51,12.49,3.37" style="fill: none; stroke: #2e3138; stroke-linecap: round; stroke-miterlimit: 10; stroke-width: 1.68px;"/>
              <path d="M69.63,139.29c.81,1.22,1.64,2.47,2.8,3.35,1.11.84,2.47,1.3,3.83,1.6,5.98,1.35,12.2,0,18.18-1.36,2.36-.53,4.9-1.17,6.46-3.03.87-1.04,1.34-2.36,1.78-3.64" style="fill: none; stroke: #2e3138; stroke-linecap: round; stroke-miterlimit: 10; stroke-width: 1.68px;"/>
              <path d="M66.11,141.22c.98,1.49,2,3.01,3.42,4.09,1.36,1.02,3.01,1.58,4.67,1.96,7.3,1.64,14.89,0,22.18-1.66,2.88-.65,5.98-1.43,7.88-3.69,1.07-1.27,1.63-2.87,2.17-4.44" style="fill: none; stroke: #2e3138; stroke-linecap: round; stroke-miterlimit: 10; stroke-width: 1.68px;"/>
              <path d="M112.2,138.38c3.1,1.15,6.14,2.49,9.07,4.01,1.3.67,2.6,1.39,3.69,2.38,1.11,1.01,1.96,2.26,2.74,3.54,3.37,5.45,5.93,13.07,7.28,19.33" style="fill: none; stroke: #2e3138; stroke-linecap: round; stroke-miterlimit: 10; stroke-width: 1.68px;"/>
              <path d="M63.38,179.12c-4.35.58-10.25-.02-14.6-.42-1.06-.1-2.12-.2-3.18-.32-1.4-.16-1.55-.15-1.41-1.59.31-3.16.78-6.25,1.48-9.35.47-2.1,1.01-4.19,1.54-6.27.52-2.04,1.05-4.09,1.83-6.04,2.86-7.09,9.33-12.61,16.79-14.31" style="fill: none; stroke: #2e3138; stroke-linecap: round; stroke-miterlimit: 10; stroke-width: 1.68px;"/>
              <path d="M134.98,167.64c-4.88,2.89-10.04,3.88-15.66,4.63" style="fill: none; stroke: #2e3138; stroke-linecap: round; stroke-miterlimit: 10; stroke-width: 1.68px;"/>
              <path d="M116.58,163.18c1.6,4.14,2.62,8.5,3.01,12.91.19,2.12.23,4.26,0,6.38-.28,2.63-.98,5.19-1.39,7.8-.88,5.72.57,15.14,1.11,20.9" style="fill: none; stroke: #2e3138; stroke-linecap: round; stroke-miterlimit: 10; stroke-width: 1.68px;"/>
              <path d="M63.56,171.24c.52,12.99.97,19.83.43,32.44" style="fill: none; stroke: #2e3138; stroke-linecap: round; stroke-miterlimit: 10; stroke-width: 1.68px;"/>
            </g>
            <path d="M44.96,175c5.88.79,12.06.94,17.99,1" style="fill: none; stroke: #2e3138; stroke-linecap: round; stroke-miterlimit: 10; stroke-width: 1.68px;"/>
            <path d="M119,169.2c5.19-.51,10.28-2.02,14.91-4.41" style="fill: none; stroke: #2e3138; stroke-linecap: round; stroke-miterlimit: 10; stroke-width: 1.68px;"/>
          </g>
          <path d="M112.32,94.99c.3.08.61.16.91.25.13.04.27.07.36.17.21.22.12.6.3.84" style="fill: none; stroke: #2e3138; stroke-linecap: round; stroke-linejoin: round; stroke-width: 1.68px;"/>
        </g>
        <path d="M129.69,170.81c2.23,6.78,3.9,13.74,4.98,20.79.26,1.73.49,3.46.69,5.2.1.87.19,1.74.26,2.61.05.56-.11,2.02.28,2.46.58.66,23.74,3.01,30.38,4.53,2.64.6,5.26,1.29,7.87,2,1.29.35,2.6.67,3.87,1.08,1.22.4,2.18.27,3.47.04,1.61-.3,3.24-.51,4.87-.64,1.48-.12,2.46.2,3.88.46,3.32.61,6.62,1.26,9.84,2.28,1.97.62,3.79,1.57,5.64,2.48.36.18.74.37.98.7.24.33.28.84-.02,1.11-.19.18-.47.22-.72.25-2.2.24-4.45.15-6.62-.29-.62-.12-1.25-.28-1.87-.18" style="fill: none; stroke: #2e3138; stroke-linecap: round; stroke-miterlimit: 10; stroke-width: 1.68px;"/>
        <path d="M185.41,211.18c1.5.92,3.25,1.44,5.01,1.5,1.27.04,2.56-.15,3.79.16,1.23.3,2.43,1.31,2.39,2.57,0,.06,0,.13-.03.19-.07.14-.24.2-.4.23-2.45.57-5.02.63-7.49.17" style="fill: none; stroke: #2e3138; stroke-linecap: round; stroke-miterlimit: 10; stroke-width: 1.68px;"/>
        <path d="M119.41,185.35c1.16,6.02,2.11,11,3.57,16.95.94,3.85,1.97,7.74,3.89,11.2.35.64.76,1.29,1.39,1.66.66.39,1.46.42,2.23.43,19.15.44,38.3.53,57.45.27" style="fill: none; stroke: #2e3138; stroke-linecap: round; stroke-miterlimit: 10; stroke-width: 1.68px;"/>
        <path d="M47.71,178.6c-.64,4.51-.81,5.74-1.17,8.42-.73,5.44-1.47,10.87-2.21,16.31-.45,3.31-.8,7.03,1.25,9.67,2.46,3.19,7.15,3.3,11.17,3.13,13.93-.6,27.85-1.19,41.78-1.79,2.19-.09,4.41-.18,6.54.34s4.31,1.01,5.38,3.19" style="fill: none; stroke: #2e3138; stroke-linecap: round; stroke-miterlimit: 10; stroke-width: 1.68px;"/>
        <path d="M61.9,179.98c-1.6,8.69-1.57,13.38-3.25,22.38" style="fill: none; stroke: #2e3138; stroke-linecap: round; stroke-miterlimit: 10; stroke-width: 1.68px;"/>
        <path d="M55.71,202.33c4.28.69,8.56,1.39,12.85,2.08,9.29,1.51,18.59,3.01,27.98,3.57,8.23.49,17.07.43,23.85,5.12,1.47,1.02,2.84,2.11,4.01,3.47,1.66,1.93,3.34,3.89,4.41,6.21.21.46.4.96.33,1.46-.07.5-.5.98-1,.95-.43-.03-1.67-1.33-1.8-1.74" style="fill: none; stroke: #2e3138; stroke-linecap: round; stroke-miterlimit: 10; stroke-width: 1.68px;"/>
        <path d="M114.13,219.24c3.07.95,5.53,3.65,6.2,6.79.08.37.14.76.04,1.13-.14.55-.65.98-1.21,1.04-.79.09-1.51-.5-1.89-1.2-.39-.69-.53-1.48-.82-2.22-.58-1.53-1.78-2.81-3.26-3.51" style="fill: none; stroke: #2e3138; stroke-linecap: round; stroke-miterlimit: 10; stroke-width: 1.68px;"/>
        <path d="M116.79,217.26c1.75.38,3.33,1.4,4.48,2.77,1.15,1.37,1.88,3.06,2.21,4.82.16.88.12,1.98-.66,2.41-.16.09-.35.14-.52.09-.15-.04-.27-.14-.38-.25-.73-.7-2.18-2.11-2.31-3.12" style="fill: none; stroke: #2e3138; stroke-linecap: round; stroke-miterlimit: 10; stroke-width: 1.68px;"/>
        <path d="M121.18,216.58c1.19.49,2.04,1.54,2.79,2.59,1.52,2.11,2.92,4.53,2.78,7.13-.02.42-.11.89-.44,1.14-.43.33-1.08.15-1.45-.25-.37-.39-1.24-1.81-1.38-2.33" style="fill: none; stroke: #2e3138; stroke-linecap: round; stroke-miterlimit: 10; stroke-width: 1.68px;"/>
        <path d="M108.83,216.02c4.23,3.87,4.54,10.32,4.56,16.05.02,7.46.03,14.92.05,22.38,0,.55.05,1.5.05,2.05v13.24" style="fill: none; stroke: #2e3138; stroke-linecap: round; stroke-miterlimit: 10; stroke-width: 1.68px;"/>
        <path d="M49.74,215.91c-5.74-.19-11.43-.13-17.16-.07.22-6.05,1.3-11.9,1.32-17.96.03-7.92.05-15.83.08-23.75.03-9.91.05-19.97-2.64-29.51-1.58-5.63-4.56-11.46-9.97-13.67-5.89-2.41-13.55,1.06-17.8,5.79-1.13,1.26-2.11,2.73-2.37,4.4-.25,1.62-.36,3.71-.35,5.68,0,.09,0-.6,0-.51v182.73c.27-.18.82.43,1.1.25h80.24" style="fill: none; stroke: #2e3138; stroke-linecap: round; stroke-miterlimit: 10; stroke-width: 1.68px;"/>
        <path d="M74.07,215.38c2.87.96,5.09,3.37,6.4,6.1s1.82,5.77,2.15,8.78c.69,6.22.64,99.04.64,99.04,10.32,0,19.91-.2,30.22-.09" style="fill: none; stroke: #2e3138; stroke-linecap: round; stroke-miterlimit: 10; stroke-width: 1.68px;"/>
        <path d="M17.46,130.18c10.07-.44,20.97-1.3,31.05-1.19" style="fill: none; stroke: #2e3138; stroke-linecap: round; stroke-miterlimit: 10; stroke-width: 1.68px;"/>
        <path d="M60.54,128.36c3.28-.35,6.61-.34,9.89.03" style="fill: none; stroke: #2e3138; stroke-linecap: round; stroke-miterlimit: 10; stroke-width: 1.68px;"/>
        <path d="M99.64,129.4c4.7.42,9.5.88,13.78,2.86,4.28,1.98,8,5.83,8.5,10.52" style="fill: none; stroke: #2e3138; stroke-linecap: round; stroke-miterlimit: 10; stroke-width: 1.68px;"/>
        <path d="M124.48,215.88c2.47-.07,4.94-.13,7.42-.2" style="fill: none; stroke: #2e3138; stroke-linecap: round; stroke-miterlimit: 10; stroke-width: 1.68px;"/>
        <path d="M207.08,216.18c3.91.74,6.51,4.62,7.46,8.48.75,3.02.77,6.17.79,9.28.2,31.88.52,64.56-.31,96.43-.02-1.48-43.53-1.73-43.51-.25" style="fill: none; stroke: #2e3138; stroke-linecap: round; stroke-miterlimit: 10; stroke-width: 1.68px;"/>
        <path d="M178.58,215.96c3.95-.09,5.74,1.28,7.17,3.94,1.43,2.66,1.67,5.78,1.86,8.8.86,13.35,1.42,26.72,1.67,40.09h-13.03" style="fill: none; stroke: #2e3138; stroke-linecap: round; stroke-miterlimit: 10; stroke-width: 1.68px;"/>
        <path d="M113.49,269.75c-.99,7.39-2.35,14.78-3.22,22.18-.03.26-.06.53.07.75.13.23.39.35.63.44,1.05.41,1.85.55,2.97.63,21.7,1.64,43.45-.77,62.17-11.86-.18-6.99.05-13.99.68-20.95.66-7.17,1.65-14.86-1.77-21.2-3.97-7.37-12.78-10.69-21.06-11.97-8.28-1.28-16.91-1.16-24.67-4.32" style="fill: none; stroke: #2e3138; stroke-linecap: round; stroke-miterlimit: 10; stroke-width: 1.68px;"/>
        <path d="M149.88,292.28l10.3,42.94s.94,5.97,1.19,9.91" style="fill: none; stroke: #2e3117; stroke-linecap: round; stroke-miterlimit: 10; stroke-width: 1.68px;"/>
        <line x1="168.15" y1="287.34" x2="171.51" y2="340.73" style="fill: none; stroke: #2e3117; stroke-linecap: round; stroke-miterlimit: 10; stroke-width: 1.68px;"/>
        <path d="M113.49,329.03h8.52" style="fill: none; stroke: #2e3138; stroke-linecap: round; stroke-miterlimit: 10; stroke-width: 1.68px;"/>
        <line x1="137.39" y1="329.03" x2="158.27" y2="329.03" style="fill: none; stroke: #2e3138; stroke-linecap: round; stroke-miterlimit: 10; stroke-width: 1.68px;"/>
        <path d="M206.62,34.5c1.05-7.97,8.24-14.69,16.26-15.2,8.02-.51,16.01,5.24,18.06,13.01l.03,34.34c.17,1.79-.84,3.75-2.42,4.6-3.43,1.88-8.2,1.19-11.95,1.17-4.54-.03-9.09-.13-13.63-.3-1.63-.06-3.47-.23-4.52-1.49-1.07-1.3-1.35-3.17-1.72-4.75l-.12-31.37Z" style="fill: none; stroke: #2e3138; stroke-linecap: round; stroke-miterlimit: 10; stroke-width: 1.68px;"/>
        <path d="M209.79,36.56v29.29c.18,1.27.94,2.25,2.13,2.76,1.18.51,2.5.59,3.78.67,2.53.14,5.07.26,7.6.29,4.28.06,9.17.31,13.19-1.4.27-.12.55-.24.77-.45.23-.23.36-.54.46-.84.35-1.13.18-2.29.23-3.45.06-1.28.1-2.56.13-3.84.05-2.52.05-5.04,0-7.57-.09-5.33-.26-10.66-.12-15.99" style="fill: none; stroke: #2e3138; stroke-linecap: round; stroke-miterlimit: 10; stroke-width: 1.68px;"/>
        <line x1="210.2" y1="48.33" x2="237.58" y2="48.33" style="fill: none; stroke: #2e3138; stroke-linecap: round; stroke-miterlimit: 10; stroke-width: 1.68px;"/>
        <path d="M137.39,34.5c1.05-7.97,8.24-14.69,16.26-15.2,8.02-.51,16.01,5.24,18.06,13.01l.03,34.34c.17,1.79-.84,3.75-2.42,4.6-3.43,1.88-8.2,1.19-11.95,1.17-4.54-.03-9.09-.13-13.63-.3-1.63-.06-3.47-.23-4.52-1.49-1.07-1.3-1.35-3.17-1.72-4.75l-.12-31.37Z" style="fill: none; stroke: #2e3138; stroke-linecap: round; stroke-miterlimit: 10; stroke-width: 1.68px;"/>
        <path d="M140.56,36.56v29.29c.18,1.27.94,2.25,2.13,2.76,1.18.51,2.5.59,3.78.67,1.61.09,3.22.17,4.83.22,3.33.11,6.67.15,9.99-.11,1.43-.11,2.87-.26,4.26-.61,1.45-.36,2.56-.92,2.97-2.51.29-1.11.17-2.23.22-3.36.05-1.22.09-2.44.11-3.66.05-2.41.04-4.83,0-7.24-.09-5.33-.26-10.66-.12-15.99" style="fill: none; stroke: #2e3138; stroke-linecap: round; stroke-miterlimit: 10; stroke-width: 1.68px;"/>
        <line x1="140.97" y1="48.33" x2="168.36" y2="48.33" style="fill: none; stroke: #2e3138; stroke-linecap: round; stroke-miterlimit: 10; stroke-width: 1.68px;"/>
        <path d="M145.34,13.21c1.21,1.97,2.47,3.98,4.29,5.41,1.82,1.43,4.35,2.18,6.49,1.29,1.97-.82,3.21-2.8,5.03-3.92,2.14-1.31,4.81-1.28,7.31-1.2,13.4.43,26.82,1.02,40.21.38,2.66-.13,5.45-.28,7.88.82,2.11.96,3.71,2.77,5.59,4.13.74.53,1.62,1.01,2.51.83.69-.14,1.23-.65,1.73-1.14,2.01-2,3.87-4.15,5.56-6.42" style="fill: none; stroke: #2e3138; stroke-linecap: round; stroke-miterlimit: 10; stroke-width: 1.68px;"/>
        <path d="M176.5,124.98c-.06-2.5-.12-5.01-.18-7.51,9.45-.21,19.77-.26,29.22-.13.05,3.18-.3,5.29-.16,7.07,5.45-.39,10.91-.5,16.37-.32,0,.06,0,.1,0,.16v44.53c-1.89-.06-4.15-.39-6.04-.39h-56.97c0-.18,0,0,0-.18l.63-42.97c2.99,0,17.14-.27,17.14-.27Z" style="fill: #fff; stroke: #2e3138; stroke-linecap: round; stroke-miterlimit: 10; stroke-width: 1.68px;"/>
        <path d="M179.23,165.19l23.18-.18v-43.05h-22.42c-.22-.03-.43-.07-.65-.1,0,.15.19.04.19.19l-.29,43.14Z" style="fill: none; stroke: #2e3138; stroke-linecap: round; stroke-miterlimit: 10; stroke-width: 1.68px;"/>
        <path d="M181.62,124.44v4.23h18.42s0-4.5,0-4.5l-18.41.28Z" style="fill: #fff; stroke: #2e3138; stroke-linecap: round; stroke-miterlimit: 10; stroke-width: 1.68px;"/>
        <path d="M181.61,131.12c.03.37.07.73.1,1.1v14.65h18.5s0-15.85,0-15.85l-18.6.09Z" style="fill: #2e3138; stroke: #2e3138; stroke-linecap: round; stroke-miterlimit: 10; stroke-width: 1.68px;"/>
        <rect x="181.75" y="149.7" width="3.14" height="3.14" style="fill: #2e3138; stroke: #2e3138; stroke-linecap: round; stroke-miterlimit: 10; stroke-width: 1.68px;"/>
        <rect x="186.86" y="149.7" width="3.14" height="3.14" style="fill: #2e3138; stroke: #2e3138; stroke-linecap: round; stroke-miterlimit: 10; stroke-width: 1.68px;"/>
        <rect x="191.97" y="149.7" width="3.14" height="3.14" style="fill: #2e3138; stroke: #2e3138; stroke-linecap: round; stroke-miterlimit: 10; stroke-width: 1.68px;"/>
        <rect x="197.08" y="149.7" width="3.14" height="3.14" style="fill: #2e3138; stroke: #2e3138; stroke-linecap: round; stroke-miterlimit: 10; stroke-width: 1.68px;"/>
        <rect x="181.75" y="155.66" width="3.14" height="3.14" style="fill: #2e3138; stroke: #2e3138; stroke-linecap: round; stroke-miterlimit: 10; stroke-width: 1.68px;"/>
        <rect x="186.86" y="155.66" width="3.14" height="3.14" style="fill: #2e3138; stroke: #2e3138; stroke-linecap: round; stroke-miterlimit: 10; stroke-width: 1.68px;"/>
        <rect x="191.97" y="155.66" width="3.14" height="3.14" style="fill: #2e3138; stroke: #2e3138; stroke-linecap: round; stroke-miterlimit: 10; stroke-width: 1.68px;"/>
        <rect x="197.08" y="155.66" width="3.14" height="3.14" style="fill: #2e3138; stroke: #2e3138; stroke-linecap: round; stroke-miterlimit: 10; stroke-width: 1.68px;"/>
        <rect x="162.58" y="128.19" width="11.81" height="10.19" style="fill: #fff9cb; stroke: #2e3138; stroke-linecap: round; stroke-miterlimit: 10; stroke-width: 1.68px;"/>
        <rect x="162.58" y="141.78" width="11.81" height="10.19" style="fill: #fffce1; stroke: #2e3138; stroke-linecap: round; stroke-miterlimit: 10; stroke-width: 1.68px;"/>
        <rect x="162.58" y="155.37" width="11.81" height="10.19" style="fill: none; stroke: #2e3138; stroke-linecap: round; stroke-miterlimit: 10; stroke-width: 1.68px;"/>
        <rect x="206.54" y="128.19" width="11.81" height="10.19" style="fill: #fff9cb; stroke: #2e3138; stroke-linecap: round; stroke-miterlimit: 10; stroke-width: 1.68px;"/>
        <rect x="206.54" y="141.78" width="11.81" height="10.19" style="fill: #fffce1; stroke: #2e3138; stroke-linecap: round; stroke-miterlimit: 10; stroke-width: 1.68px;"/>
        <rect x="206.54" y="155.37" width="11.81" height="10.19" style="fill: none; stroke: #2e3138; stroke-linecap: round; stroke-miterlimit: 10; stroke-width: 1.68px;"/>
        <rect x="184.89" y=".84" width="8.65" height="116.08" style="fill: none; stroke: #2e3138; stroke-linecap: round; stroke-miterlimit: 10; stroke-width: 1.68px;"/>
        <polygon points="193.68 209.93 185.03 208.59 185.03 168.41 193.68 168.41 193.68 209.93" style="fill: none; stroke: #2e3138; stroke-linecap: round; stroke-miterlimit: 10; stroke-width: 1.68px;"/>
        <path d="M177.12,173.71c.2,5.42.4,10.84.6,16.26.24,6.38.47,12.79-.26,19.13" style="fill: none; stroke: #2e3138; stroke-linecap: round; stroke-miterlimit: 10; stroke-width: 1.68px;"/>
        <path d="M162.28,205.41c-3.1-1.98-6.31-4-9.94-4.55-.99-.15-1.99-.19-2.99-.19-3.74.01-7.62.66-10.66,2.82" style="fill: none; stroke: #2e3138; stroke-linecap: round; stroke-miterlimit: 10; stroke-width: 1.68px;"/>
        <path d="M136.56,202.37c-1.03,1.09-2.05,2.18-3.08,3.27,2.05.4,4.07.95,6.04,1.65,1.39-1.64,3.24-2.87,5.29-3.51" style="fill: none; stroke: #2e3138; stroke-linecap: round; stroke-miterlimit: 10; stroke-width: 1.68px;"/>
        <path d="M223.99,72.67c1.25,5.19.65,10.67-.63,15.85-1.27,5.19-3.2,10.19-4.61,15.34-1.81,6.58-2.78,13.39-2.89,20.21" style="fill: none; stroke: #2e3138; stroke-linecap: round; stroke-miterlimit: 10; stroke-width: 1.68px;"/>
        <path d="M152.53,72.63c-.84,5.69-.32,11.58,1.49,17.04,2.73,8.24,8.34,15.46,9.99,23.99.73,3.78.66,7.66.58,11.5" style="fill: none; stroke: #2e3138; stroke-linecap: round; stroke-miterlimit: 10; stroke-width: 1.68px;"/>
        <path d="M54.81,100.98c-1.02.29-2.08.62-2.81,1.38-.47.49-.76,1.12-.97,1.75-.48,1.42-.64,2.93-.74,4.42-.42,5.8-.14,11.67-1.16,17.39-.21,1.19-.48,2.38-.57,3.59-.08,1.01-.03,2.03.02,3.04.04.87.09,1.74.13,2.6.9-1.56,1.51-2.89,2.4-4.45" style="fill: #ff6d04; stroke: #2e3138; stroke-linecap: round; stroke-linejoin: round; stroke-width: 1.68px;"/>
        <path d="M52.58,118.09c-.09,3.76-.9,7.47-1.28,11.21-.38,3.74-.3,7.66,1.28,11.07-.3-1.95,1.26-3.63,2.55-5.12,1.38-1.59,2.58-3.33,3.78-5.06.99-1.43,1.99-2.87,2.6-4.5,1.15-3.03.52-5.89.24-8.98-.29-3.14-1.14-6.23-2.49-9.08-.49-1.02-1.05-2.02-1.85-2.82-.5-.5-1.11-.93-1.38-1.58-.32-.76-.12-1.67-.47-2.42.06.13-1.87,2.33-2.05,2.55-.33.42-.65.85-.91,1.32-.96,1.77-.73,4.22-.56,6.16.21,2.41.58,4.82.53,7.25Z" style="fill: #ff6d04; stroke: #2e3138; stroke-linecap: round; stroke-linejoin: round; stroke-width: 1.68px;"/>
        <path d="M56.13,104.01c-1.07,2.5-1,5.34-.64,8.04.21,1.62.52,3.29.12,4.87" style="fill: none; stroke: #2e3138; stroke-linecap: round; stroke-linejoin: round; stroke-width: 1.68px;"/>
      </g>
    </g>
  </g>
</svg>