<?xml version="1.0" encoding="UTF-8"?>
<svg xmlns="http://www.w3.org/2000/svg" viewBox="0 0 395.47 257.99">
  <g style="isolation: isolate;">
    <g id="_圖層_2" data-name="圖層 2">
      <g id="_圖層_1-2" data-name="圖層 1">
        <g>
          <path d="M225.06,8.42c17.27.16,23.24.12,39.8.58" style="fill: none; stroke: #2e3138; stroke-linecap: round; stroke-linejoin: round; stroke-width: 2.52px;"/>
          <g>
            <ellipse cx="105.55" cy="191.59" rx="64.73" ry="13.39" style="fill: #babbbd;"/>
            <ellipse cx="172.42" cy="208.79" rx="23.8" ry="11.25" style="fill: #babbbd;"/>
            <path d="M212.92,29.71c-.68.97-1.37,1.94-1.99,2.95-6.09,9.98-3.99,22.63-4.46,34.31-.18,4.37-.74,8.73-.6,13.1.16,4.72,1.13,9.37,1.58,14.08,1.15,12.15-1.27,24.55,1.05,36.53,11.96.92,23.92,1.83,35.88,2.75,2.53.19,5.09.38,7.58-.12,2.84-.58,5.41-2.02,7.92-3.45,3.92-2.22,7.84-4.45,11.76-6.67,2.97-1.69,6.14-3.58,7.47-6.73.77-1.8.83-3.82.88-5.78.65-24.97,1.3-49.95.69-74.91-.03-1.08.06-2.28-.15-3.35-.19-.95-.07-1.92-.02-2.9.03-.65.06-1.31-.1-1.94-.23-.89-.83-1.64-1.39-2.36-1.21-1.54-2.38-3.14-3.27-4.89-.3-.59-.48-1.24-.79-1.81-.37-.68-.92-1.31-1.37-1.94-.92-1.29-1.85-2.58-2.79-3.85-1.86-2.53-3.77-5.02-5.72-7.48-.66-.83-1.36-1.69-2.32-2.14-.94-.44-2.01-.44-3.04-.44-5.73.03-11.46.06-17.18.09-3.63.02-12.15-1.53-15.1.58-2.72,1.95-4.67,9.94-6.31,13.02-2.46,4.61-5.2,9.07-8.2,13.35Z" style="fill: #fff;"/>
            <path d="M208.16,33.92c14.15-1.48,28.41.51,42.5,2.49,6.62-7.92,11.63-17.16,14.66-27.02-6.42-.44-12.85-.74-19.28-.9-5.39-.13-13.56-1.66-18.69.08-3.7,1.25-6.1,6.9-8.23,9.9-1.87,2.63-3.73,5.26-5.6,7.88-.76,1.07-4.22,7.45-5.37,7.57Z" style="fill: #7fbcd9;"/>
            <path d="M255.63,27.23c-1.25,2.48-2.78,4.82-4.54,6.96-.31.37-.6,1-.2,1.27.16.11.37.09.56.08,9.56-.87,19.02-2.77,28.17-5.66-.18-1.61-1.26-2.94-2.25-4.22-1.98-2.56-3.22-5.64-4.82-8.41-1.15-2-3.95-6.28-5.78-7.34-.29-.17-10.37,15.79-11.15,17.33Z" style="fill: #1f89bd;"/>
            <path d="M223.14,11.41c-2.85,5.27-5.7,10.56-9.24,15.4-1.63,2.24-4.69,5.33-5.75,7.89,0,0-.08,4.91-.28,7.91-.99,15.52-1.57,74.92.26,88.86,15.91,1.02,28.66,1.84,44.56,2.86.42-17.27-.29-77-1.04-93.74-.08-1.7-.16-3.43.29-5.07.46-1.67,1.45-3.14,2.4-4.6,3.21-4.9,6.21-9.94,8.99-15.1,2.24-4.16,4.35-9.16,2.32-13.41-.27-.56-35.82-2.05-38.42-.38-2.41,1.54-2.77,6.93-4.09,9.38Z" style="fill: none; stroke: #2e3138; stroke-linecap: round; stroke-linejoin: round; stroke-width: 2.52px;"/>
            <path d="M208.15,34.69c14.41-1.56,29.02-1.28,43.36.85l28.86-5.72" style="fill: none; stroke: #2e3138; stroke-linecap: round; stroke-linejoin: round; stroke-width: 2.52px;"/>
            <path d="M253.6,134.82c8.96-4.91,17.99-11.5,25.65-18.26,1.77-18.4,1.71-69.71,1.34-81.62-.08-2.47-.16-5-1.02-7.32-.59-1.58-9.29-14.89-12.72-20.14" style="fill: none; stroke: #2e3138; stroke-linecap: round; stroke-linejoin: round; stroke-width: 2.52px;"/>
            <path d="M211.62,75.22c2.8-3.41,2.96-8.21,4.58-12.31,1.18,3.67,2.43,7.32,3.74,10.95.53-3.69,1.49-7.32,2.87-10.78.12,3.82.4,7.64.85,11.44" style="fill: none; stroke: #2e3138; stroke-linecap: round; stroke-linejoin: round; stroke-width: 2.52px;"/>
            <path d="M227.35,62.62c-.43,4.09-1.65,8.2-.94,12.25" style="fill: none; stroke: #2e3138; stroke-linecap: round; stroke-linejoin: round; stroke-width: 2.52px;"/>
            <path d="M231.47,62.44c-.07,4-.43,7.99-1.06,11.93,1.85.44,3.74.69,5.63.75" style="fill: none; stroke: #2e3138; stroke-linecap: round; stroke-linejoin: round; stroke-width: 2.52px;"/>
            <path d="M239.45,62.45c.14,4.2-.06,8.41-.6,12.57.03-.26.05-.52.08-.77" style="fill: none; stroke: #2e3138; stroke-linecap: round; stroke-linejoin: round; stroke-width: 2.52px;"/>
            <path d="M244.99,65.18c-1.52,1.56-3.27,2.89-5.17,3.95,2.51,1.66,4.77,3.68,6.7,5.99" style="fill: none; stroke: #2e3138; stroke-linecap: round; stroke-linejoin: round; stroke-width: 2.52px;"/>
            <path d="M369.09,14.34c-13.76,0-24.92,11.16-24.92,24.92s11.16,24.92,24.92,24.92,24.92-11.16,24.92-24.92-11.16-24.92-24.92-24.92ZM369.09,54.46c-8.4,0-15.21-6.81-15.21-15.21s6.81-15.21,15.21-15.21,15.21,6.81,15.21,15.21-6.81,15.21-15.21,15.21Z" style="fill: #ff6d04; stroke: #2e3138; stroke-linecap: round; stroke-linejoin: round; stroke-width: 2.92px;"/>
            <path d="M130.7,169.32c-1.69-1.76-3.55-3.35-5.56-4.73-3.18-2.19-6.68-3.86-10.17-5.52-4.59-2.18-9.21-4.38-14.09-5.79-4.88-1.41-10.09-2.01-15.07-.97-2.93.62-5.74,1.8-8.71,2.16-.04-.68.24-6.84-.76-6.83,5.2-.07,9.86-.15,15.04-1.29,1.15-.25,2.55-.79,2.61-1.97.03-.6-.33-1.14-.69-1.61-2.86-3.73-6.92-6.27-11.05-8.38-.97-.49-2.12-.87-3.01-1.47-1.29-.87-1.14-.52-.66-1.98.42-1.29,1.23-3.43,2.45-4.18,1.55-.95,4.65.53,6.06,1.18,1.96.9,3.98,1.92,6.13,1.78s4.35-2.01,3.95-4.12c-.19-.98-.86-1.78-1.53-2.52-2.84-3.19-5.82-6.26-8.93-9.2-.32-.3-.66-.64-.73-1.08-.05-.34.08-.68.23-1,.77-1.65,2.04-3.07,3.58-4.03,1.91,2.43,4.18,4.91,6.75,6.72,1.87,1.32,6.11,3.67,8.42,2.33,2.73-1.58,1.49-5.76.65-7.97-1.22-3.22-2.43-6.45-3.65-9.67.98-1.08,1.96-2.16,2.93-3.24.03-.03,5.78.52,6.24.59-1.1,3.32,1.84,8.51,3.25,11.59,6.65,14.55,22.59,25.6,38.53,27.29.93.1,2,.25,2.46,1.06.27.46.25,1.02.22,1.56-.69,11.03-7.12,20.75-13.34,29.88-1.19,1.75-2.33,3.96-4.59,4.45-2.28.49-4.24.04-5.74-1.69-.4-.46-.81-.92-1.24-1.36Z" style="fill: #ffad0f;"/>
            <path d="M76.78,152.82c-.06,4.13-2.87,8.09-6.76,9.49,2.39,2.57.26,6.85-2.53,8.97-5.37,4.08-13.12,4.72-19.09,1.57-5.96-3.14-9.82-9.9-9.49-16.64-4.38,2.47-10.3-.83-12.04-5.54-1.74-4.72-.29-10.03,2.01-14.5-5.99-5.09-11.23-11.61-12.68-19.33s1.84-16.69,9-19.94c1.58-.72,3.34-1.18,4.57-2.41,2.12-2.12,1.81-5.56,2.03-8.55.7-9.55,9.21-17.9,18.77-18.41,1.35-.07,2.78-.02,3.98-.64,2.41-1.22,2.91-4.42,4.65-6.49,1.9-2.26,5.2-2.93,8.09-2.34s5.44,2.25,7.77,4.05c1,.77,2.02,1.6,3.25,1.91,1.08.27,2.22.12,3.32-.09,3.2-.6,6.38-1.61,9.64-1.54,3.26.07,6.77,1.53,8.09,4.51.61,1.37.81,3.08,2.07,3.89.81.52,1.83.49,2.79.52,6.33.19,12.48,3.52,16.1,8.72,1.3,1.87,2.31,4.14,1.86,6.37-.36,1.76-1.58,3.22-2.93,4.4-4.06,3.52-9.73,5.1-15.02,4.16-.2,5.65-8.07,9.25-12.48,5.71.61.49-1.59,4.94-1.91,5.54-.98,1.82-2.25,3.48-3.74,4.9-1.49,1.43-3.2,2.63-5.06,3.53-1.37.67-4.48.95-5.35,2.01,2.55,2.53,4.44,5.36,4.29,9.13-.06,1.4-.39,2.77-.79,4.11-.69,2.32-1.63,4.58-2.88,6.65-.65,1.07-1.38,2.1-2.21,3.04-.66.75-2.65,1.89-3,2.72-.58,1.38,2.67,2.99,3.59,4.24,1.33,1.79,2.12,4.01,2.09,6.25Z" style="fill: #fff; stroke: #2e3138; stroke-linecap: round; stroke-linejoin: round; stroke-width: 2.52px;"/>
            <path d="M77.71,154.93c9.46-4.81,21.03-3.7,30.89.25,9.86,3.94,18.44,10.44,27.17,16.47.47.33.99.66,1.56.62.49-.03.92-.35,1.31-.65,10.51-8.26,16.98-21.45,17.08-34.82-14.33-5.11-29.6-10.9-38.29-23.39-3.52-5.05-5.71-10.89-7.86-16.66" style="fill: none; stroke: #2e3138; stroke-linecap: round; stroke-linejoin: round; stroke-width: 2.52px;"/>
            <path d="M102.19,100.65c2.16,3.45,3.77,7.21,5.37,10.96.43,1.02.88,2.13.6,3.2-.34,1.32-1.73,2.16-3.09,2.26s-2.69-.4-3.93-.97c-4.5-2.07-8.48-5.26-11.48-9.2" style="fill: none; stroke: #2e3138; stroke-linecap: round; stroke-linejoin: round; stroke-width: 2.52px;"/>
            <path d="M84.69,112.76c4.09,4.01,8.02,8.17,11.78,12.49.57.65,1.16,1.36,1.25,2.22.13,1.21-.82,2.33-1.96,2.77-1.13.44-2.4.36-3.6.2-3.23-.41-9.17-3.38-12.17-4.64" style="fill: none; stroke: #2e3138; stroke-linecap: round; stroke-linejoin: round; stroke-width: 2.52px;"/>
            <path d="M78.36,132.37c4.39,2.61,11.87,7.18,15.77,10.48.21.18.43.38.46.66.03.28-.16.53-.35.73-1.6,1.66-4.09,1.99-6.39,2.23-4.09.42-8.18.84-12.27,1.27" style="fill: none; stroke: #2e3138; stroke-linecap: round; stroke-linejoin: round; stroke-width: 2.52px;"/>
            <path d="M117.9,125.89c7.63,4.48,15.54,8.48,23.67,11.97" style="fill: none; stroke: #2e3138; stroke-linecap: round; stroke-linejoin: round; stroke-width: 2.52px;"/>
            <path d="M120.14,154.77c5.77,3.32,10.95,7.66,15.24,12.76" style="fill: none; stroke: #2e3138; stroke-linecap: round; stroke-linejoin: round; stroke-width: 2.52px;"/>
            <ellipse cx="178.6" cy="162.07" rx="32.1" ry="8.42" style="fill: #babbbd;"/>
            <path d="M134.35,97.58c-6.42,2.1-12.56,5.64-16.62,11.04-.97,1.29-.55,2.98-.09,4.42.11.36.3.77.67.82.27.03.52-.15.66-.38.14-.23.21-.49.3-.74.14-.37.34-.71.55-1.04,2.91-4.77,10-4.08,13.61-8.2.37-.43.7-.9,1.16-1.23.71-.51,1.64-.61,2.51-.71,2.35-.27,18.48-3.75,16.85-6.53-1.84-3.14-16.83,1.65-19.6,2.55Z" style="fill: #1f89bd;"/>
            <path d="M124.89,119.24c18.11,8.11,38.29,10.42,58.13,10.76,4.83.08,9.69.06,14.47-.65,5.94-.88,11.68-2.78,17.37-4.71,6.61-2.24,13.41-4.62,18.6-9.29,1.65.53,1.4,2.92.81,4.55-3.05,8.44-6.3,17.18-12.69,23.48-2.48,2.44-5.36,4.43-8.3,6.29-4.51,2.84-9.38,5.44-14.68,5.99.14,1.11.29,2.22.43,3.33.05.38.09.81-.15,1.11-.2.26-.54.35-.85.43-12.27,3.03-25.04,4.07-37.64,3.05-2.15-.17-4.66-.66-5.58-2.61-.33-.71-.39-1.52-.61-2.27-.81-2.71-3.6-4.25-6.13-5.5-3.31-1.64-6.62-3.28-9.93-4.92-2.15-1.06-4.32-2.14-6.14-3.7-2.14-1.83-3.69-4.25-5.08-6.69-3.63-6.38-8.36-15.28-8.6-22.73,2.23,1.21,4.14,2.99,6.58,4.08Z" style="fill: #1f89bd;"/>
            <path d="M214.84,96.8c3.93.89,7.86,1.94,11.49,3.71,3.62,1.77,6.95,4.31,9.15,7.7.63.97,1.17,2.09,1.01,3.23s-1.35,2.17-2.44,1.79c-.63-.22-1.03-.82-1.44-1.34-2.47-3.11-6.55-4.39-10.41-5.33s-7.95-1.79-10.95-4.38c-1.01-.87-1.87-1.92-3-2.63-.75-.47-1.62-.79-2.24-1.43-3.7-3.83,7.66-1.59,8.84-1.33Z" style="fill: #1f89bd;"/>
            <path d="M147.19,98.97c-1.99.35-4.05.49-5.95,1.16-1.66.59-3.14,1.57-4.64,2.49-3.03,1.88-6.24,3.45-9.48,4.92-1.63.74-3.28,1.46-4.92,2.19-1.44.64-2.74,1.24-2.94,2.99-.28,2.53,1.5,3.87,3.38,5.16,1.73,1.18,3.61,2.13,5.47,3.08,1.33.68,2.72,1.3,4.19,1.58,7,1.33,13.98,2.7,20.96,4.15,4.47.93,8.95,1.85,13.47,2.47,20.08,2.73,40.69-.8,59.65-7.97,2.27-.86,4.65-1.87,6.06-3.84,3.79-5.3-5.69-8.9-9.51-10.69-3.77-1.76-7.76-2.93-11.65-4.39-4.06-1.52-7.37-3.76-11.1-5.81-7.91-4.35-17.75-3.99-26.48-4.74-9.34-.8-17.5,5.65-26.51,7.24Z" style="fill: #fff;"/>
            <path d="M236.72,112.8c-5.89,29.44-21.44,37.92-36.98,43.58-15.55,5.65-34.39,2.59-34.39,2.59-43.58-4.95-48.29-47.58-48.29-47.58,0,0,3.31,16.58,53.94,17.9,54.18,1.41,65.72-16.49,65.72-16.49Z" style="fill: none; stroke: #2e3138; stroke-linecap: round; stroke-linejoin: round; stroke-width: 2.52px;"/>
            <path d="M120.17,112.08c1.67-2.8,4.88-4.62,8.14-4.63.16-.47.33-.95.49-1.42,1.99-.16,3.88-1.29,4.96-2.97,2.51.12,5.05-.75,6.95-2.4.34-.3.67-.62,1.07-.84.4-.22.85-.32,1.29-.41,4.05-.88,8.11-1.77,12.16-2.65,1.82-1.8,4.55-2.65,7.07-2.2.52-2.47,3.74-3.05,6.26-3.09,4.03-.07,8.06-.14,12.08-.21,1.35-.02,3.13.29,3.32,1.63,1.72-1.42,4.27-.85,6.41-.22.44.13.88.26,1.32.39,1.36.41,2.75.82,3.94,1.6.62.4,1.2.91,1.93,1.04,1.45.26,3.2-1.02,4.27,0,.51.48.6,1.31,1.17,1.7.65.44,1.56.1,2.28.4.92.38,1.17,1.62,2.01,2.16.69.44,1.6.29,2.4.46.76.17,1.42.63,2.08,1.04,1.96,1.21,4.14,2.02,6.3,2.81.58.21,1.16.43,1.74.64,3.5,1.29,7.01,2.59,10.32,4.31.66.34,1.32.71,1.88,1.2.79.71,1.34,1.67,1.54,2.71" style="fill: none; stroke: #2e3138; stroke-linecap: round; stroke-linejoin: round; stroke-width: 2.52px;"/>
            <path d="M157.81,101.47c-.97-.04-1.94.42-2.53,1.2-.26.35-.46.81-.32,1.22.15.46.67.72,1.15.73.49,0,.95-.19,1.4-.38.28-.78.56-1.56.84-2.34" style="fill: none; stroke: #2e3138; stroke-linecap: round; stroke-linejoin: round; stroke-width: 2.52px;"/>
            <path d="M188.44,101.25c1.39.7,2.96,1.67,3.09,3.22.03.43-.13.96-.55,1.07-.62.17-1.03-.63-1.18-1.26-.24-1.03-.48-2.06-.71-3.09" style="fill: none; stroke: #2e3138; stroke-linecap: round; stroke-linejoin: round; stroke-width: 2.52px;"/>
            <path d="M170.91,110.4c-.43,1.11-.78,2.25-1.05,3.4-.19.81-.28,1.82.38,2.33.68.53,1.78.08,2.15-.7.38-.78.22-1.71-.06-2.53-.29-.82-.7-1.6-.82-2.46" style="fill: none; stroke: #2e3138; stroke-linecap: round; stroke-linejoin: round; stroke-width: 2.52px;"/>
            <path d="M117.06,111.39s3.9-14.6,41.28-17.43" style="fill: none; stroke: #2e3138; stroke-linecap: round; stroke-linejoin: round; stroke-width: 2.52px;"/>
            <path d="M201.84,95.7s33.47,1.32,34.88,17.1" style="fill: none; stroke: #2e3138; stroke-linecap: round; stroke-linejoin: round; stroke-width: 2.52px;"/>
            <path d="M153.81,156.56v4.29s7.3,4.24,21.67,3.53c14.37-.71,20.49-1.86,24.26-3.87v-4.14" style="fill: none; stroke: #2e3138; stroke-linecap: round; stroke-linejoin: round; stroke-width: 2.52px;"/>
            <path d="M211.16,186.37c2.85,1.3,4.33,4.41,6.53,6.63,3.16,3.19,7.83,4.48,12.32,4.6,4.49.12,8.93-.8,13.38-1.42,19.24-2.67,39.11.31,58.03-4.09,5.38-1.25,10.7-3.14,15.16-6.39,4.46-3.26,7.99-8.03,8.92-13.47.92-5.44-1.11-11.5-5.67-14.62-3.59-2.45-8.13-2.86-12.42-3.55-4.71-.75-9.39-1.92-14.16-2.03-9.53-.23-18.59,3.73-27.42,7.31-13.33,5.41-26.92,10.15-40.73,14.2-5.9,1.73-14.27,2.37-19.37,5.86-7.74,5.3,1.95,5.37,5.44,6.96Z" style="fill: #babbbd;"/>
            <path d="M327.76,137.14c-1.66-7.69-3.88-15.64-9.21-21.42-6.53-7.08-16.63-9.67-26.24-10.21-6.69-.37-13.43.09-20,1.37-1.6.31-3.2.68-4.68,1.37-1.05.5-2.01,1.15-3.03,1.71-3.98,2.15-8.64,2.62-12.83,4.34-3.28,1.35-6.2,3.44-9.09,5.51-8.31,5.97-16.84,12.16-22.25,20.85-1.55,2.48-2.84,5.17-4.86,7.29-2.67,2.81-6.35,4.38-9.85,6.05-1.89.9-4.01,1.93-5.38,3.57-1.35,1.62-1.35,4.47-1.53,6.54-.44,5.2.09,10.48,1.58,15.48.15.5.31,1.01.62,1.44.55.76,1.47,1.15,2.36,1.45,1.37.46,2.82.78,4.25.58,1.43-.2,2.84-.99,3.47-2.29.67-1.38.37-3.06.95-4.48.72-1.74,1.46-.58,2.27.13,1.43,1.24,3.96,2.05,5.78,2.55,2.27.62,4.71.62,6.97-.02.96-.27,1.88-.65,2.83-.96,3.35-1.09,7.06-1.21,10.54-1.62,3.87-.45,7.74-.91,11.61-1.36,7.84-.92,15.68-1.84,23.52-2.76,3.1-.37,6.23-.74,9.23-1.6,3.46-1,6.69-2.63,9.8-4.41,2.88-1.64,5.37-3.36,8.53-4.43,3.45-1.17,6.82-2.6,10.06-4.28.9-.47,1.79-.95,2.57-1.61.8-.67,1.45-1.5,2.16-2.27,2.23-2.42,5.17-4.35,6.7-7.34,1.66-3.23,3.62-5.93,3.81-9.74.23-4.31-1.59-8.46-3.62-12.26-1.42-2.66-3.01-5.29-5.2-7.37-2.23-2.11-4.99-3.56-7.8-4.78-17.05-7.46-37.24-7.38-54.23.21" style="fill: #ff6d04;"/>
            <path d="M213.94,162.37c-1.36,1.7-2.68,3.19-5.27,3.73-2.13.44-4.38.13-6.41-.65-.57-.22-1.16-.48-1.76-.38-1.34.23-1.71,1.96-1.77,3.32-.09,1.96-.17,3.91-.26,5.87-.04.95-.08,1.91.12,2.84.53,2.38,2.72,4.22,5.13,4.61,2.85.47,4.82-1.26,7.42-1.85.13-.03.27-.06.38-.15.21-.17.24-.48.23-.75-.02-3.4-.77-6.21.71-9.47,2.56-5.67,9.59-5.58,14.87-5.78,7.86-.29,15.66-2.16,22.81-5.47,3.96-1.83,8.87-6.68,4.02-10.69-2.81-2.32-8.09-.83-11.39-.49-6.77.69-13.38,2.97-19.12,6.63-2.87,1.83-5.52,4-7.85,6.48-.69.73-1.28,1.49-1.85,2.21Z" style="fill: #2e3138; mix-blend-mode: multiply; opacity: .36;"/>
            <path d="M273.85,142.98c4.84-1.04,9.52-2.79,13.86-5.17,1.71-.94,3.41-2.01,4.63-3.53s1.92-3.59,1.39-5.47c-.22-.77-.66-1.52-1.37-1.9-.48-.26-1.04-.34-1.59-.41-6.6-.84-14.48.29-19.45,5.32-1.74,1.76-2.36,4.3-3.31,6.52-.83,1.94-1.91,2.55-.16,4.17,1.48,1.37,4.26.85,5.99.47Z" style="fill: #fff;"/>
            <path d="M213.93,178.09c-.25.37-.28.84-.29,1.29-.09,2.59-.18,5.19-.27,7.78-.08,2.38-.07,5.03,1.53,6.79,1.38,1.51,3.57,1.93,5.61,2.07,8.87.65,17.6-2.15,26.45-3.02,4.52-.45,9.07-.39,13.6-.47,11.23-.2,22.44-1.22,33.52-3.06,4.68-.78,9.42-1.72,13.63-3.9,4.82-2.49,8.71-6.47,12.25-10.58,2.73-3.17,5.34-6.53,6.82-10.44,2.48-6.57,1.46-13.88.41-20.83-2.77,1.99-4.99,4.63-7.38,7.06-4.98,4.98-10.64,9.15-16.88,12.41-15.42,8.06-32.81,9.11-49.81,10.82-2.4.24-4.81.47-7.23.59-2.34.11-4.92-.38-7.22-.11-1.9.22-3.95,1.33-5.78,1.96-2.16.75-4.34,1.45-6.58,1.94-1.88.41-4.58,1.33-6.51,1.1-1.39-.16-4.8-2.99-5.89-1.39Z" style="fill: #d9dadb;"/>
            <path d="M244.61,119.58c-7.7,4.79-14.96,10.29-21.27,16.81-4.07,4.2-6.57,9.55-10.59,13.54-2.22,2.2-4.97,3.93-7.64,5.53-1.25.75-6.32,2.52-6.84,3.74-1.88,4.38,3.83,8.82,8.51,7.98,4.69-.84,8.18-4.62,11.79-7.73,8.11-6.99,18.44-11.37,29.1-12.33,2.29-.21,4.89-.15,6.52,1.47,1.96,1.95,1.54,5.43-.22,7.57s-4.46,3.23-7.09,4.1c-6.33,2.08-12.92,3.35-19.57,3.75-3.05.18-6.18.2-9.04,1.27-2.86,1.07-5.46,3.49-5.71,6.54-.38,4.56,4.66,7.96,9.23,7.99s8.82-2.16,13.17-3.56c12.15-3.89,25.38-1.63,38.01-3.43,13.39-1.91,25.67-8.29,37.65-14.58,5.23-2.74,10.67-5.67,14.01-10.54,5.33-7.75,3.75-18.82-1.84-26.38-15.29-20.66-49.02-17.86-69.29-6.88-3,1.63-5.97,3.34-8.88,5.15Z" style="fill: none; stroke: #2e3138; stroke-linecap: round; stroke-linejoin: round; stroke-width: 2.52px;"/>
            <path d="M211.9,171.34c.24,5.39.85,10.75,1.81,16.06.44,2.45,1.06,5.07,2.93,6.71.92.81,2.08,1.32,3.27,1.66,6.64,1.91,13.56-1.05,20.24-2.79,10.56-2.75,21.64-2.48,32.55-2.47,10.91,0,22.08-.34,32.29-4.2,10.21-3.86,19.45-11.91,21.95-22.54.65-2.77.84-5.63,1.02-8.47.45-6.99-.5-11.51-.05-18.5" style="fill: none; stroke: #2e3138; stroke-linecap: round; stroke-linejoin: round; stroke-width: 2.52px;"/>
            <path d="M266.22,139.9c-.24.54-.49,1.11-.41,1.7.19,1.38,1.94,1.85,3.33,1.9,7.91.29,23.12-4.36,25.67-13.3,2.03-7.12-13.08-4.03-16.36-3.03-6.48,1.98-9.55,6.84-12.22,12.73Z" style="fill: none; stroke: #2e3138; stroke-linecap: round; stroke-linejoin: round; stroke-width: 2.52px;"/>
            <path d="M198.25,162.83c-.21,4.96-.82,9.95.37,14.77.17.69.36,1.38.73,1.98.66,1.08,1.83,1.75,3.02,2.19,2.11.79,7.13,0,8.97-1.31" style="fill: none; stroke: #2e3138; stroke-linecap: round; stroke-linejoin: round; stroke-width: 2.52px;"/>
            <path d="M271.55,219.78c2.25-.69,4.3-1.44,5.7-1.8,12.03-3.1,24.61.61,36.98,1.69,3.73.33,7.47.41,11.21.5,13.88.32,28.09.6,41.27-3.78,5.1-1.69,10.27-4.34,12.9-9.02,1.46-2.6,1.81-6.33-.51-8.21-1.2-.97-2.82-1.21-4.36-1.38-12.05-1.36-24.28-1.1-36.26.75-11.56,1.79-23.71-.25-35.5.82-11.99,1.09-23.94,3.72-34.97,8.62-3.77,1.68-10.51,3.98-9.32,9.34,1.19,5.31,7.55,4.09,12.86,2.47Z" style="fill: #babbbd;"/>
            <path d="M386.11,182.04c.13-3.94,0-8.06-1.83-11.55-1.4-2.66-3.68-4.74-6.12-6.49-9.69-6.97-23.17-10.2-34.82-7.13-.91.24-1.87.56-2.43,1.31-.21.28-.35.63-.3.97.17,1,3.74,2.15,4.6,2.64,1.9,1.06,3.75,2.2,5.73,3.1,5.57,2.54,11.97,3.22,17.06,6.62,2.29,1.53,4.21,3.54,6.02,5.61,3.07,3.49,5.87,7.17,8.48,11.01,1.37,2.02,2.12,2.95,2.9.1.55-2,.65-4.12.72-6.18Z" style="fill: #ffb27a;"/>
            <path d="M362.76,168.79c-1.26-.66-2.54-1.26-3.9-1.68-2.31-.71-4.76-.84-7.08-1.5-5.22-1.5-9.69-5.66-15.12-5.74-4.44-.07-8.4,2.62-12,5.23-8.24,5.99-16.35,12.16-24.31,18.51-1.09.87-2.19,1.75-3.4,2.45-.99.57-2.04,1.02-3.01,1.64-1.21.77-2.25,1.77-3.36,2.67-4.6,3.72-10.39,5.58-16.03,7.36-1.44.45-2.92.91-4.43.82-1.15-.08-2.41-.45-3.38.17-1.55.99-.8,3.58.76,4.56,1.56.98,3.51,1.02,5.23,1.67s3.35,2.47,2.64,4.16c-.65,1.53-2.92,2.17-3.01,3.83,3.24-1.93,6.65-3.72,10.37-4.33,7.46-1.23,14.75,2.38,21.84,4.99,14.05,5.18,29.63,6.67,44.14,3,10-2.53,19.41-7.59,26.86-14.74,2.63-2.52,8-7.15,8.36-11.04.34-3.73-4.67-8.57-6.96-11.07-4.06-4.44-8.89-8.18-14.22-10.96Z" style="fill: #ff6d04;"/>
            <path d="M263.42,202.67c-2.15-.32-4.32-.65-6.49-.46-2.17.19-4.36.96-5.86,2.52-.39.41-.74.88-.88,1.42-.23.89.14,1.83.62,2.61,1.77,2.88,5.15,4.69,6.25,7.88.46,1.34.57,2.96,1.72,3.78.75.54,1.76.55,2.67.38,2.46-.48,4.51-2.18,6.13-4.1s2.92-4.08,4.59-5.95c1.54-1.73,3.56-4.55.94-6.34-2.28-1.56-7-1.34-9.68-1.75Z" style="fill: #fff;"/>
            <path d="M272.62,212.29c1.89.85,3.94-.57,5.75-1.56,5.19-2.84,11.59-2.41,17.27-.75,5.68,1.66,10.96,4.46,16.6,6.24,13.08,4.13,27.35,2.59,40.55-1.14,5.21-1.47,9.18-3.02,13.64-6.11,4.61-3.2,9.02-6.69,13.19-10.44,1.41-1.26,2.81-2.59,3.65-4.29,2.16-4.35-1.82-9.86-4.4-13.19-3.21-4.15-7.39-7.56-12.14-9.79-3.86-1.81-8.05-2.87-11.94-4.61-3.51-1.57-6.76-3.69-10.28-5.22s-7.5-2.47-11.22-1.52c-2.28.58-4.33,1.84-6.3,3.14-15.97,10.53-29.39,24.92-46.51,33.47-3.25,1.62-6.89,3.05-10.42,2.25-.84-.19-2.1-.44-2.92-.17-.81.27-1.51,1-1.57,1.85-.07,1.19,1.07,2.14,2.23,2.44,1.16.3,2.39.19,3.56.43,2.87.59,5.02,3.61,4.64,6.52" style="fill: none; stroke: #2e3138; stroke-linecap: round; stroke-linejoin: round; stroke-width: 2.52px;"/>
            <path d="M337.34,159.26c11.28-3.58,21.98-3.43,30.25-.63,7.45,2.52,11.66,5.48,16.12,11.96,4.47,6.48,3.46,14.32.76,21.72" style="fill: none; stroke: #2e3138; stroke-linecap: round; stroke-linejoin: round; stroke-width: 2.52px;"/>
            <path d="M269.84,203.14c-3.25.65-4.81.2-6.99-.15-3.44-.56-7.23-.95-10.17.92-.82.52-1.56,1.24-1.84,2.17-.33,1.07,0,2.22.47,3.24,1.02,2.24,2.72,4.16,4.81,5.44" style="fill: none; stroke: #2e3138; stroke-linecap: round; stroke-linejoin: round; stroke-width: 2.52px;"/>
            <path d="M254.75,210.33c1.48,1.02,1.81,3.05,1.91,4.85s.16,3.78,1.38,5.11c1.49,1.63,4.2,1.55,6.1.42,1.9-1.13,3.17-3.04,4.37-4.89,1.71-2.62,3.53-5.36,6.3-6.8" style="fill: none; stroke: #2e3138; stroke-linecap: round; stroke-linejoin: round; stroke-width: 2.52px;"/>
            <path d="M258.97,202.94c-1.21-.3-2.43-.71-3.67-.66-1.32.06-2.57.63-3.65,1.4-1.01.71-1.95,1.71-2.05,2.94-.07.89.31,1.76.78,2.52,2.2,3.52,6.52,5.81,7.31,9.88.09.47.14.99.46,1.35.24.28.61.43.97.52,2.25.58,4.62-.62,6.25-2.28,1.63-1.66,2.73-3.75,4.14-5.59,1.12-1.47,2.44-2.79,3.91-3.91.72-.55,1.56-1.22,1.48-2.12-.4-5.01-12.99-3.31-15.93-4.05Z" style="fill: none; stroke: #2e3138; stroke-linecap: round; stroke-linejoin: round; stroke-width: 2.52px;"/>
            <circle cx="334.78" cy="184.92" r="1.51" style="fill: #2e3138;"/>
            <path d="M356.07,184.92c0,.83-.68,1.51-1.51,1.51s-1.51-.68-1.51-1.51.68-1.51,1.51-1.51,1.51.68,1.51,1.51Z" style="fill: #2e3138;"/>
            <circle cx="348.33" cy="173.8" r=".93" style="fill: #2e3138;"/>
            <circle cx="358.45" cy="175.42" r=".69" style="fill: #2e3138;"/>
            <circle cx="334.02" cy="170.66" r=".75" style="fill: #2e3138;"/>
            <path d="M343.24,180.75c0,.33-.27.59-.59.59s-.59-.27-.59-.59.27-.59.59-.59.59.27.59.59Z" style="fill: #2e3138;"/>
            <circle cx="369.69" cy="189.09" r=".93" style="fill: #2e3138;"/>
            <path d="M371.81,180.75c0,.33-.27.59-.59.59s-.59-.27-.59-.59.27-.59.59-.59.59.27.59.59Z" style="fill: #2e3138;"/>
            <path d="M379.78,191.34c0,.44-.36.8-.8.8s-.8-.36-.8-.8.36-.8.8-.8.8.36.8.8Z" style="fill: #2e3138;"/>
            <path d="M361.5,193.5c0,.15.12.28.28.28s.28-.12.28-.28-.12-.28-.28-.28-.28.12-.28.28Z" style="fill: #2e3138;"/>
            <circle cx="327.9" cy="176.11" r=".28" style="fill: #2e3138;"/>
            <path d="M48,190.86c4.45,3.68,11.9,5.84,17.49,7.27,30.13,7.7,60.96,2.72,71.62.91,5.23-.89,13.21-3.74,18.83-7.55" style="fill: #1f89bd; stroke: #2e3138; stroke-linecap: round; stroke-linejoin: round; stroke-width: 2.52px;"/>
            <ellipse cx="102.92" cy="176.11" rx="73.35" ry="22.26" style="fill: #1f89bd; stroke: #2e3138; stroke-linecap: round; stroke-linejoin: round; stroke-width: 2.52px;"/>
            <path d="M160.23,175.99c0,9.61-25.66,14.88-57.31,14.88s-57.31-5.27-57.31-14.88,25.66-17.39,57.31-17.39,57.31,7.79,57.31,17.39Z" style="fill: #1f89bd; stroke: #2e3138; stroke-linecap: round; stroke-linejoin: round; stroke-width: 2.52px;"/>
            <path d="M60.8,171.89c-2.07,1.04-4.14,2.07-6.2,3.11-1.16.58-2.43,1.28-2.84,2.52-.75,2.3,1.91,4.17,4.14,5.08,23.23,9.53,48.98,12.83,73.86,9.48,7.37-.99,15.47-3.09,19.41-9.4,1.49-2.39,2.16-5.67.49-7.94-1.4-1.9-3.95-2.47-6.27-2.86-22.15-3.7-44.79-2.58-67.22-1.46" style="fill: #babbbd; mix-blend-mode: multiply;"/>
            <path d="M120.09,188.24c6.54-.4,13.1-1.05,18.29-2.7,9.66-3.09,12.94-9.64,8.52-15.56-4.42-5.91-15.89-10.92-28.46-12.88-12.57-1.96-25.84-.96-35.32,2.24-6.38,2.15-11.07,5.19-15.67,8.19-3.63,2.36-7.25,4.72-10.88,7.08-1.03.67-2.09,1.38-2.14,2.27-.06,1.04,1.3,2.1,2.8,3,7.12,4.27,17.21,5.77,27.2,7.29,11.95,1.81,24.21,1.78,35.67,1.08Z" style="fill: #fff; stroke: #2e3138; stroke-linecap: round; stroke-linejoin: round; stroke-width: 2.52px;"/>
            <path d="M124.6,180.41c1.9-.4,3.75-.88,5.11-1.6,1.83-.98,2.65-2.32,3.18-3.66.65-1.63.94-3.37-.16-5.09-2.14-3.37-9.44-6.01-16.63-6.71-7.19-.71-14.15.23-19.89,1.79-4.07,1.11-7.79,2.61-9.48,4.72-2.21,2.76-.41,6.41,4.42,8.94,9.18,4.82,24.1,3.58,33.45,1.62Z" style="fill: #ffad0f; stroke: #2e3138; stroke-linecap: round; stroke-linejoin: round; stroke-width: 2.52px;"/>
            <path d="M4.93,194.99c.63.67,1.54.98,2.34,1.44,3.66,2.08,4.6,7.73,1.8,10.88-2.01,2.26-5.56,3.46-6.11,6.44-.92,5.02,6.78,8.31,10.65,8.63,3.29.27,6.54-1.01,9.4-2.54,2.51-1.35,4.66-2.37,6.05-5.06.76-1.49,1.21-3.11,1.55-4.73.3-1.39.7-2.54.64-3.97-.13-2.98,1.6-3.04,3.53-4.51,2.39-1.82,3.14-5,6.13-6.44.49-.24,1.03-.43,1.42-.82,1.1-1.07,1.64-3.96.65-5.28-1.17-1.55-4.65-1.55-6.37-1.77-5.42-.68-10.97-.39-16.29.87-3.47.82-6.84,2.08-10.35,2.79-1.62.33-8.37.59-5.06,4.08Z" style="fill: #babbbd;"/>
            <path d="M7.08,180.94c3.57-4.49,8.65-7.2,14.43-7.04,4.27.12,8.39,1.51,12.35,3.1,3.01,1.21,5.98,2.54,8.88,3.99.73.36,1.47.75,1.99,1.36,2.74,3.19-1.59,6.85-3.97,8.54-5.18,3.66-11.06,6.39-17.29,7.54-1.69.31-3.41.51-5.13.38-2.69-.2-5.12-1.36-7.27-2.97-1.34-1-2.35-2.37-3.34-3.71-1.4-1.9-3.05-3.99-2.76-6.49.2-1.73,1.02-3.34,2.11-4.7Z" style="fill: #ff6d04; stroke: #2e3138; stroke-linecap: round; stroke-linejoin: round; stroke-width: 2.52px;"/>
            <path d="M9.46,181.56c6.87-4.23,15.83-4.84,23.21-1.58" style="fill: none; stroke: #2e3138; stroke-linecap: round; stroke-linejoin: round; stroke-width: 1.68px;"/>
            <path d="M13.5,192.33c1.34.42,4.21-.18,5.6-.37,6.97-.93,9.19-1.73,17.01-5.42" style="fill: none; stroke: #2e3138; stroke-linecap: round; stroke-linejoin: round; stroke-width: 1.68px;"/>
            <path d="M42.62,185.63c-6.97,6.75-18.64,9.42-19.77,9.81" style="fill: none; stroke: #2e3138; stroke-linecap: round; stroke-linejoin: round; stroke-width: 1.68px;"/>
            <path d="M30.58,182.07c-5.06-.21-10.15.33-15.05,1.58" style="fill: none; stroke: #2e3138; stroke-linecap: round; stroke-linejoin: round; stroke-width: 1.68px;"/>
            <path d="M34.22,182.51c2.11-.24,5.75.3,6.86.67" style="fill: none; stroke: #2e3138; stroke-linecap: round; stroke-linejoin: round; stroke-width: 1.68px;"/>
            <path d="M11.58,184.58c-1.05.05-2.08.43-2.91,1.05" style="fill: none; stroke: #2e3138; stroke-linecap: round; stroke-linejoin: round; stroke-width: 1.68px;"/>
            <path d="M27.54,186.22c-.35,0-16.58,3.66-19.25,2.9" style="fill: none; stroke: #2e3138; stroke-linecap: round; stroke-linejoin: round; stroke-width: 1.68px;"/>
            <path d="M17.35,195.51c-.89,0-1.77-.01-2.66-.02-1.04,0-2.1-.02-3.1-.32" style="fill: none; stroke: #2e3138; stroke-linecap: round; stroke-linejoin: round; stroke-width: 1.68px;"/>
            <path d="M1.44,207.57c1-5.65,4.16-10.45,9.32-13.07,3.8-1.93,8.09-2.68,12.33-3.17,3.23-.38,6.47-.62,9.71-.73.81-.03,1.64-.04,2.4.25,3.93,1.5,1.88,6.78.59,9.4-2.8,5.68-6.67,10.89-11.6,14.88-1.34,1.08-2.76,2.08-4.32,2.78-2.46,1.11-5.15,1.25-7.8.86-1.65-.24-3.2-.96-4.71-1.67-2.14-1-4.59-2.06-5.52-4.39-.65-1.61-.7-3.42-.39-5.14Z" style="fill: #ff6d04; stroke: #2e3138; stroke-linecap: round; stroke-linejoin: round; stroke-width: 2.52px;"/>
            <path d="M3.82,206.97c4.01-7,11.6-11.81,19.64-12.47" style="fill: none; stroke: #2e3138; stroke-linecap: round; stroke-linejoin: round; stroke-width: 1.68px;"/>
            <path d="M12.52,214.52c1.38-.27,3.62-2.17,4.75-2.99,5.69-4.14,7.25-5.91,12.36-12.88" style="fill: none; stroke: #2e3138; stroke-linecap: round; stroke-linejoin: round; stroke-width: 1.68px;"/>
            <path d="M34.91,194.73c-2.9,9.26-11.88,17.17-12.69,18.05" style="fill: none; stroke: #2e3138; stroke-linecap: round; stroke-linejoin: round; stroke-width: 1.68px;"/>
            <path d="M22.63,197.35c-4.55,2.23-8.76,5.13-12.47,8.57" style="fill: none; stroke: #2e3138; stroke-linecap: round; stroke-linejoin: round; stroke-width: 1.68px;"/>
            <path d="M26.04,196c1.74-1.22,5.19-2.48,6.35-2.69" style="fill: none; stroke: #2e3138; stroke-linecap: round; stroke-linejoin: round; stroke-width: 1.68px;"/>
            <path d="M7.13,208.62c-.89.55-1.62,1.36-2.06,2.32" style="fill: none; stroke: #2e3138; stroke-linecap: round; stroke-linejoin: round; stroke-width: 1.68px;"/>
            <path d="M21.94,202.44c-.31.17-12.83,11.13-15.54,11.74" style="fill: none; stroke: #2e3138; stroke-linecap: round; stroke-linejoin: round; stroke-width: 1.68px;"/>
            <path d="M17.42,215.47c-.78.42-1.56.83-2.35,1.25-.92.49-1.86.99-2.88,1.2" style="fill: none; stroke: #2e3138; stroke-linecap: round; stroke-linejoin: round; stroke-width: 1.68px;"/>
            <path d="M196.45,181.96c-2.95-1.87-6.57-2.23-10.04-2.55-2.88-.26-5.76-.52-8.64-.79-5.63-.51-11.44-1.01-16.84.69-1.28.4-2.7,1.15-2.9,2.47-.15,1.01.44,2.22-.26,2.96-.32.33-.8.43-1.24.55-4.84,1.3-7.71,6.13-10.07,10.55-1.06,1.99-2.14,4.36-1.19,6.4.27.58.73,1.1,1.34,1.28.45.13.92.06,1.38,0,7.17-.92,14.49,1.22,21.64.16,2.54-.38,5-1.15,7.44-1.94,6.83-2.19,13.71-4.48,19.82-8.23,4.83-2.96,4.26-8.57-.45-11.56Z" style="fill: #ffad0f;"/>
            <path d="M168.9,204.7c2.53-.42,4.95-1.28,7.36-2.14,8.01-2.85,16.13-5.76,23.05-10.71-.36,2.04-.71,4.08-1.07,6.12-.25,1.44-.51,2.89-1.09,4.23-.83,1.89-2.26,3.44-3.67,4.94-3.2,3.42-6.53,6.94-10.85,8.77-2.28.97-4.76,1.41-7.22,1.68-4.07.43-8.18.38-12.24-.09-3.17-.37-6.42-1.03-9.01-2.9-2.12-1.53-3.59-3.74-4.78-6.03-.36-.7-1.73-2.7-1.51-3.51.32-1.14,2.11-.82,3.16-.83,5.96-.07,11.93,1.46,17.88.48Z" style="fill: #ff6d04;"/>
            <path d="M181.42,182.38c-1.04.12-2.05-.41-2.85-1.08s-1.48-1.49-2.33-2.09c-2.52-1.8-5.95-1.43-9.01-.93-2.08.34-4.16.7-6.16,1.36-1.49.49-3.2,1.56-3.01,3.12.12,1.03,1.08,1.77,2.07,2.08.99.3,2.05.28,3.07.45" style="fill: none; stroke: #2e3138; stroke-linecap: round; stroke-linejoin: round; stroke-width: 1.68px;"/>
            <path d="M168.73,181.35l-2.17.33c-.98.15-2.11.39-2.57,1.27-.21.4-.24.87-.18,1.31.26,1.77,2.23,3.07,3.96,2.62" style="fill: none; stroke: #2e3138; stroke-linecap: round; stroke-linejoin: round; stroke-width: 1.68px;"/>
            <path d="M179.9,184.25c-1.28.34-2.64.03-3.93-.28-.75-.18-1.49-.36-2.24-.54-.8-.19-1.61-.38-2.43-.34s-1.66.36-2.15,1.02c-.89,1.2-.19,3.07,1.12,3.79s2.95.5,4.33-.06" style="fill: none; stroke: #2e3138; stroke-linecap: round; stroke-linejoin: round; stroke-width: 1.68px;"/>
            <path d="M185.59,183.98c2.39-.7,4.97-.76,7.38-.15.41.1.84.23,1.14.53.24.23.38.55.45.88.35,1.63-.95,3.1-2.15,4.26-.29.28-.58.57-.7.95-.15.47.01.99-.06,1.48-.1.64-.59,1.17-1.18,1.45s-1.24.36-1.89.39c-.75.03-1.52,0-2.2-.3-1.35-.61-1.99-2.14-2.5-3.54" style="fill: none; stroke: #2e3138; stroke-linecap: round; stroke-linejoin: round; stroke-width: 1.68px;"/>
            <path d="M178.43,191.73c.59.23,1.19.46,1.64.9.45.43.73,1.12.5,1.71-.18.46-.64.81-.71,1.3-.17,1.25,2.22,1.82,3.07,1.52.41-.14.79-.37,1.21-.51.43-.14.91-.18,1.26-.47" style="fill: none; stroke: #2e3138; stroke-linecap: round; stroke-linejoin: round; stroke-width: 1.68px;"/>
            <path d="M171.59,195.52c1.35.65,1.74,2.59.95,3.86-.79,1.27-2.45,1.82-3.92,1.57-.55-.1-1.07-.29-1.61-.41-1.06-.25-2.17-.24-3.22.02-2.47.61-4.8,2.59-7.26,1.9-.51-.14-1-.41-1.32-.83-.27-.35-.4-.79-.49-1.22-.28-1.31-.22-2.74.41-3.93s1.91-2.07,3.25-2" style="fill: none; stroke: #2e3138; stroke-linecap: round; stroke-linejoin: round; stroke-width: 1.68px;"/>
            <path d="M163.49,192.14c.63.49.85,1.37.8,2.16-.15,2.25-2.41,4.13-4.65,3.87" style="fill: none; stroke: #2e3138; stroke-linecap: round; stroke-linejoin: round; stroke-width: 1.68px;"/>
            <path d="M158.9,191.85c-.29-1.57.67-3.18,2.03-4,1.37-.82,3.05-.95,4.63-.73,1.07,1.67,1.28,4.64-.22,5.94" style="fill: none; stroke: #2e3138; stroke-linecap: round; stroke-linejoin: round; stroke-width: 1.68px;"/>
            <path d="M157.81,186.43c-.36,1.35-1.94,1.86-3.24,2.38-1.37.55-2.64,1.33-3.75,2.3" style="fill: none; stroke: #2e3138; stroke-linecap: round; stroke-linejoin: round; stroke-width: 1.68px;"/>
            <path d="M154.7,193.26c-1.65.76-3.49-1.16-5.26-.77-.86.19-1.53.91-1.86,1.73-.33.82-.35,1.72-.31,2.6.07,1.45.46,3.07,1.71,3.79" style="fill: none; stroke: #2e3138; stroke-linecap: round; stroke-linejoin: round; stroke-width: 1.68px;"/>
            <path d="M149.55,196.9c.58,1.32,1.54,2.48,2.74,3.29" style="fill: none; stroke: #2e3138; stroke-linecap: round; stroke-linejoin: round; stroke-width: 1.68px;"/>
            <path d="M168.25,196.93c-.31-.38-.26-.96-.02-1.39.25-.43.65-.73,1.04-1.03.52-.39,1.06-.79,1.67-1.03,2.31-.88,4.96.78,7.33.07" style="fill: none; stroke: #2e3138; stroke-linecap: round; stroke-linejoin: round; stroke-width: 1.68px;"/>
            <path d="M176.2,188.05c.8-.19,1.65.11,2.3.61s1.14,1.18,1.61,1.84" style="fill: none; stroke: #2e3138; stroke-linecap: round; stroke-linejoin: round; stroke-width: 1.68px;"/>
            <path d="M181.72,185.2c-.62.67-.4,1.85.31,2.42.72.57,1.75.6,2.61.28" style="fill: none; stroke: #2e3138; stroke-linecap: round; stroke-linejoin: round; stroke-width: 1.68px;"/>
            <path d="M176.77,179.01c2.74-.26,4.79-.91,6.81-.56,2.92.51,6.24.84,9.06,1.76s5.5,2.6,7.03,5.15c.61,1.01,1.03,2.18.92,3.35-.22,2.38-2.43,4.01-4.49,5.2-5.58,3.22-11.62,5.55-17.63,7.87-2.4.93-4.81,1.86-7.32,2.43-5.45,1.24-11.14.72-16.7.2-2.14-.2-4.5-.72-6.65-.53-1.62.14-2.79-.65-3.1-2.41-.32-1.86.77-3.12,1.39-4.71.68-1.73,1.51-3.4,2.66-4.85" style="fill: none; stroke: #2e3138; stroke-linecap: round; stroke-linejoin: round; stroke-width: 2.52px;"/>
            <path d="M148.75,191.9c2.44-3.15,5.6-5.73,9.17-7.5" style="fill: none; stroke: #2e3138; stroke-linecap: round; stroke-linejoin: round; stroke-width: 1.68px;"/>
            <path d="M177.78,180.31c5.05-.49,10.22.27,14.9,2.21,1.15.48,2.3,1.04,3.18,1.93s1.45,2.15,1.24,3.38c-.26,1.48-1.54,2.54-2.76,3.41-2.19,1.56-4.5,2.96-6.9,4.19-2.2,1.13-4.54,1.97-6.7,3.13-2.33,1.25-5.17,2.01-7.71,2.72-2.62.73-5.3,1.27-8.01,1.54-5.6.56-11.39-.04-16.57-2.24-.84-.36-2.3-1.24-1.94-2.35" style="fill: none; stroke: #2e3138; stroke-linecap: round; stroke-linejoin: round; stroke-width: 1.68px;"/>
            <path d="M173.43,195.46c.72-.17,1.54.29,1.77.99.11.32.1.67.17,1s.23.68.55.81c.16.07.34.07.51.07.59-.01,1.19-.07,1.72-.33s1.75-1.2,1.75-1.79" style="fill: none; stroke: #2e3138; stroke-linecap: round; stroke-linejoin: round; stroke-width: 1.68px;"/>
            <path d="M187.5,187.03c-.48-.02-.81.58-.65,1.04.16.45.66.71,1.14.75s.95-.09,1.42-.21c.27-.07.59-.11.81.07-.7.41-1.46.73-2.24.94-.24.07-.48.12-.69.24-.7.38-.93,1.43-.44,2.07" style="fill: none; stroke: #2e3138; stroke-linecap: round; stroke-linejoin: round; stroke-width: 1.68px;"/>
            <path d="M145.61,203.28c1.53.89,2.22,3.59,2.9,5.22,1.08,2.6,3.3,4.61,5.8,5.9,2.51,1.29,5.3,1.91,8.08,2.35,4.27.68,8.64.94,12.92.34,4.28-.6,8.49-2.08,11.96-4.67,1.46-1.09,2.78-2.36,4.08-3.64,1.38-1.35,2.74-2.7,4.1-4.07.73-.73,1.46-1.47,1.99-2.35.8-1.33,1.1-2.9,1.38-4.43l1.36-7.39" style="fill: none; stroke: #2e3138; stroke-linecap: round; stroke-linejoin: round; stroke-width: 2.52px;"/>
            <path d="M150.59,206.84c.5.1.94.45,1.16.9.08.16.13.33.24.46.24.29.68.31,1.04.2.36-.11.67-.33,1.02-.47.35-.14.77-.19,1.07.04.37.27.44.86.86,1.06" style="fill: none; stroke: #2e3138; stroke-linecap: round; stroke-linejoin: round; stroke-width: 1.68px;"/>
            <path d="M158.6,209.24c.66.24,1.37.33,2.07.26.72-.07,1.47-.31,2.14-.05.32.12.59.34.91.48.93.41,1.99,0,2.96-.31.97-.31,2.17-.47,2.87.25" style="fill: none; stroke: #2e3138; stroke-linecap: round; stroke-linejoin: round; stroke-width: 1.68px;"/>
            <path d="M183.03,205.86c.21.32-.09.72-.37.99-.39.36-.79.73-1.3.89-.35.11-.73.12-1.1.13-.87.04-1.81.18-2.4.81" style="fill: none; stroke: #2e3138; stroke-linecap: round; stroke-linejoin: round; stroke-width: 1.68px;"/>
            <path d="M173.83,212.87c.89-.15,1.76.46,2.66.39.62-.04,1.18-.4,1.7-.75" style="fill: none; stroke: #2e3138; stroke-linecap: round; stroke-linejoin: round; stroke-width: 1.68px;"/>
            <path d="M195.46,198.51c-.72,2.97-2.41,5.69-4.75,7.65-1.84,1.54-4.05,2.61-5.75,4.3" style="fill: none; stroke: #2e3138; stroke-linecap: round; stroke-linejoin: round; stroke-width: 1.68px;"/>
            <path d="M193.12,198.39c-.44.53-.91,1.03-1.41,1.49-.55.5-1.14.95-1.77,1.34-1.28.78-2.7,1.28-4.12,1.77" style="fill: none; stroke: #2e3138; stroke-linecap: round; stroke-linejoin: round; stroke-width: 1.68px;"/>
            <path d="M159.89,213.74c2.29.9,4.84,1.12,7.24.61" style="fill: none; stroke: #2e3138; stroke-linecap: round; stroke-linejoin: round; stroke-width: 1.68px;"/>
            <path d="M172.94,206.52c.34.09.69.18,1.03.27.12.03.24.06.36.06.36,0,.65-.27.93-.5.97-.76,2.27-1.09,3.48-.89" style="fill: none; stroke: #2e3138; stroke-linecap: round; stroke-linejoin: round; stroke-width: 1.68px;"/>
            <path d="M352.12,251.16c1.93-.88,3.88-1.93,5.15-3.63,1.27-1.7,1.7-4.2.47-5.94-1.47-2.08-4.46-2.23-7.01-2.1-6.72.34-13.42,1.1-20.05,2.3-3.07.55-6.14,1.2-9,2.45-2.72,1.19-5.17,2.9-7.71,4.45-1.81,1.11-12.37,5.01-11.03,8.1.96,2.2,13.69.73,15.88.66,11.32-.33,22.87-1.54,33.28-6.28Z" style="fill: #babbbd;"/>
            <path d="M320.27,212.14c.16-1.44.1-2.94.63-4.29.44-1.11,1.27-2.03,2.22-2.75,3.76-2.86,8.92-2.56,13.62-2.96,5.49-.47,11.43-1.98,16.23.74,1.58.9,2.89,2.2,4.32,3.33,1.57,1.25,3.28,2.31,4.99,3.36,2.25,1.39,4.51,2.77,6.85,3.99,1.73.9,3.53,1.72,5.03,2.97,2.64,2.2,4.13,5.67,4,9.1-.13,3.43-1.83,6.75-4.48,8.93-1.57,1.29-3.42,2.18-5.23,3.11-2.34,1.2-4.65,2.49-7.06,3.56-10.43,4.62-22.18,4.91-33.58,5.13-2.6.05-5.23.1-7.78-.44-2.78-.59-5.48-1.93-7.25-4.16-3.31-4.19-1.46-10.82.73-15.15,2.39-4.72,6.13-9.05,6.75-14.48Z" style="fill: #fff;"/>
            <path d="M312.99,220.6c-1.19,2.02-1.68,4.4-2.86,6.42-1.23,2.1-3.14,3.71-4.56,5.69-2.52,3.51-3.36,7.92-4.13,12.17-.31,1.71-.62,3.43-.93,5.14-.22,1.23-.42,2.59.25,3.64.58.91,1.69,1.37,2.77,1.44,1.08.07,2.15-.18,3.21-.38,2.47-.47,4.99-.67,7.51-.57,4.41.18,8.74,1.28,13.15,1.38,6.58.14,13.19-2.07,18.36-6.15.53-.42,1.11-1.06.85-1.69-.21-.51-.84-.67-1.38-.77-3.93-.69-7.86-1.37-11.79-2.06-.99-.17-1.99-.35-2.99-.26-.94.09-1.83.4-2.76.59-4.42.9-8.85-1.16-12.89-3.15-.83-.41-1.7-.85-2.25-1.59-.56-.74-.74-1.69-.89-2.6-.39-2.42-.63-4.95.13-7.29.54-1.66,1.56-3.12,2.45-4.63.82-1.39,4.11-6.2,3.61-7.8-.7-2.23-4.26,1.46-4.85,2.47Z" style="fill: #86888c;"/>
            <path d="M327.28,222.09c1.48-1.69,2.41-3.84,4.07-5.35,2.94-2.67,7.37-2.69,11.33-2.38,2.71.21,5.4.51,8.09.93,2.31.36,4.66.84,6.71,1.97,3.73,2.06,6.09,6.37,5.84,10.62-.08,1.28-.39,2.59-1.19,3.6-1.71,2.15-4.88,2.94-7.3,3.97-2.79,1.18-5.46,2.59-8.15,3.97-3.51,1.8-7.06,3.6-10.85,4.77-4.34,1.34-7.72.81-12.12.67-1.3-.04-2.61.14-3.91.05-2.81-.18-5.51-1.66-7.18-3.93-.29-.4-.56-.83-.63-1.31-.11-.75.26-1.48.65-2.13.94-1.57,2.08-3.02,3.38-4.31,1.29-1.28,3.05-2.19,4.18-3.59.96-1.19,1.53-2.5,2.67-3.6,1.43-1.36,3.11-2.45,4.41-3.94Z" style="fill: #ff6d04;"/>
            <path d="M324.21,228.84c-3.71,1.54-7.12,4.04-9.2,7.47-1.18,1.94-1.86,4.57-.52,6.4.74,1.01,1.95,1.57,3.16,1.92,4.59,1.32,9.49.15,14.13-1.02,4.3-1.09,8.61-2.17,12.91-3.26,1.76-.44,3.54-.9,5.14-1.76s3.01-2.2,3.6-3.92c.87-2.58-.54-5.72-3.05-6.78-1.05-.44-2.2-.55-3.34-.65-7.96-.7-15.21-1.57-22.82,1.59Z" style="fill: #ffad0f;"/>
            <path d="M319.26,215.46c-1.21,4.47-4.16,8.23-6.22,12.38-2.06,4.15-3.14,9.37-.62,13.25,1.98,3.04,5.71,4.48,9.31,4.9,3.6.42,7.25,0,10.86.23,2.92.19,5.82.82,8.73.63,5.25-.34,9.95-3.25,15.02-4.65,2.66-.73,5.48-1.06,7.94-2.32,1.18-.6,2.24-1.4,3.3-2.19,2.49-1.87,4.98-3.73,7.46-5.6.88-.66,1.79-1.36,2.29-2.34.39-.77.48-1.66.53-2.53.22-3.68-.37-7.65-2.86-10.38-2.42-2.65-6.12-3.61-9.27-5.34-3.36-1.84-6.12-4.59-9.19-6.89s-6.72-4.2-10.54-3.91c-2.14.16-4.16,1-6.26,1.42-3.66.74-7.46.19-11.16.68-2.81.37-6.74,1.74-8.02,4.56-1.06,2.33-.62,5.57-1.31,8.09Z" style="fill: none; stroke: #2e3138; stroke-linecap: round; stroke-linejoin: round; stroke-width: 2.52px;"/>
            <path d="M319.5,214.3c-1.33,3.17-5.26,4.41-6.23,5.91-.97,1.5-1.57,3.2-2.35,4.81-2.24,4.58-6.05,8.41-7.4,13.32-.9,3.28-.64,6.82-1.74,10.04-.55,1.6-1.43,3.37-.67,4.88.58,1.14,1.95,1.69,3.23,1.71,1.28.01,2.52-.4,3.76-.7,9.58-2.34,20,1.68,29.41-1.26,7.83-2.45,15.18-9.82,22.99-11.8" style="fill: none; stroke: #2e3138; stroke-linecap: round; stroke-linejoin: round; stroke-width: 2.52px;"/>
            <path d="M312.78,239.93c1.61-3.88,4.29-7.21,6.94-10.48,2.3-2.84,4.6-5.68,6.9-8.53,1.65-2.05,3.4-4.16,5.8-5.25,4.58-2.08,9.83.2,14.84.64,2.56.22,5.16-.04,7.68.45,2.65.52,5.17,1.93,6.76,4.11,1.59,2.18,2.15,5.16,1.18,7.68-1,2.6-3.37,4.39-5.72,5.89-8.4,5.39-20.95,10.1-30.8,11.72" style="fill: none; stroke: #2e3138; stroke-linecap: round; stroke-linejoin: round; stroke-width: 2.52px;"/>
            <path d="M318.21,231.34c5.08-3.37,12.62-6.38,18.68-5.63,1.97.25,3.86.94,5.83,1.17,2.68.3,5.56-.25,7.95,1,1.8.94,3.03,2.9,3.09,4.94.06,2.04-1.04,4.07-2.78,5.12" style="fill: none; stroke: #2e3138; stroke-linecap: round; stroke-linejoin: round; stroke-width: 2.52px;"/>
            <path d="M336.88,225.72c1.5,0,4.4.53,5.31,1.72.75.99.72,2.33.85,3.57.13,1.23.61,2.64,1.8,3.01" style="fill: none; stroke: #2e3138; stroke-linecap: round; stroke-linejoin: round; stroke-width: 2.52px;"/>
            <path d="M329.41,217.44c1.72-3.49,3.47-7.09,3.75-10.97" style="fill: none; stroke: #2e3138; stroke-linecap: round; stroke-linejoin: round; stroke-width: 2.52px;"/>
            <path d="M345.77,206.29c-1.69,2.51-3.11,5.2-4.24,8.01" style="fill: none; stroke: #2e3138; stroke-linecap: round; stroke-linejoin: round; stroke-width: 2.52px;"/>
            <path d="M350.37,215.82c1.02-1.56,2.16-3.03,3.4-4.42" style="fill: none; stroke: #2e3138; stroke-linecap: round; stroke-linejoin: round; stroke-width: 2.52px;"/>
            <path d="M359.73,218.25c1.27-1.11,2.54-2.21,3.81-3.32" style="fill: none; stroke: #2e3138; stroke-linecap: round; stroke-linejoin: round; stroke-width: 2.52px;"/>
            <path d="M362.9,222.64c1.67.2,3.31-.4,4.88-.99l4.79-1.8" style="fill: none; stroke: #2e3138; stroke-linecap: round; stroke-linejoin: round; stroke-width: 2.52px;"/>
            <path d="M364,227.63c3.44.1,6.9-.55,10.07-1.9" style="fill: none; stroke: #2e3138; stroke-linecap: round; stroke-linejoin: round; stroke-width: 2.52px;"/>
          </g>
        </g>
      </g>
    </g>
  </g>
</svg>