<?xml version="1.0" encoding="UTF-8"?>
<svg id="_圖層_2" data-name="圖層 2" xmlns="http://www.w3.org/2000/svg" viewBox="0 0 228 228">
  <g id="_圖層_1-2" data-name="圖層 1">
    <g>
      <g>
        <path d="M125.44,107.59c-.87.25-1.8.24-2.71.3-.8.05-1.59.17-2.36.34-.45.1-.91.23-1.3.49-.24.16-.45.37-.68.54-1.38,1.07-3.4,1.07-4.72,2.23-.07.06-.14.13-.18.22-.08.2.05.42.21.56.32.28.77.35,1.19.4.81.11,1.64.22,2.43.03.56-.13,1.11-.41,1.67-.29.07.27-.16.51-.37.69-.51.44-1.02.87-1.54,1.31-.88.75-1.78,1.51-2.82,2.03-1.03.51-2.23.8-3.04,1.61-.18.18-.35.47-.2.68.13.19.4.17.63.18.23,0,.52.12.5.35,0,.12-.11.22-.22.29-.29.2-.64.31-.92.52-.28.21-.48.6-.33.92.14.29.5.38.82.41.4.04.81.02,1.21-.05.57-.1,1.21-.29,1.67.05.1.07.18.17.3.21.09.03.18.03.27.02.76-.05,1.52-.18,2.23-.46.78-.3,1.49-.77,2.19-1.23,1.71-1.13,3.45-2.27,4.8-3.82.38-.43.72-.89,1.14-1.28.51-.47,1.1-.83,1.66-1.24.87-.65,1.57-1.46,2.34-2.22.72-.71,1.53-1.33,2.26-2.03,1.51-1.45,2.97-2.98,4.64-4.25.18-.14.37-.28.56-.41.46-.32.93-.63,1.38-.97,1.11-.87,2-1.98,2.88-3.09.67-.84,1.34-1.69,2.01-2.53.95-1.2,1.65-2.35,1.86-3.86.14-.98-.07-1.98-.27-2.95-.49-2.35-.97-4.7-1.46-7.05-.14-.67-.3-1.37-.78-1.85-.13-.13-.29-.24-.47-.24-.14,0-.27.06-.4.13-2.74,1.37-5.75,2.19-8.8,2.4.78,2.32,1.56,4.63,2.34,6.95.21.61.42,1.25.37,1.89-.06.75-.46,1.42-.85,2.06-1.49,2.4-3.08,4.74-4.7,7.06-.46.66-.68,1.36-1.27,1.91-.28.26-.59.48-.84.76-.49.56-.68,1.34-1.23,1.83-.35.32-.65.34-1.11.47Z" style="fill: #fff;"/>
        <path d="M111.7,119c-.07.01-.15.03-.22.06-.11.05-.22.14-.25.26-.04.12.02.27.14.31.06.02.12.01.18,0,.18-.04.35-.11.5-.22.02-.02.05-.03.06-.06.03-.05.01-.13-.03-.18-.04-.05-.1-.08-.16-.1-.11-.05-.21-.1-.32-.15" style="fill: #1f89bd;"/>
        <path d="M85.89,78.47c1,1.42,2.69,2.19,4.37,2.65,1.68.45,3.42.66,5.05,1.26.06.02.11.04.15.1.02.04.03.08.03.13.02.46.02.94-.16,1.36-.11.28-.29.53-.46.78-1.01,1.48-1.78,3.1-2.5,4.73-.26.59-.52,1.21-.52,1.86,0,.49.14.97.28,1.43.19.64.38,1.28.57,1.92.35,1.17.71,2.36,1.42,3.35,1.8,2.51,1.68,5.93,2.74,8.82.05.15.12.3.23.41.11.11.27.17.42.22,1.58.5,3.3.51,4.86,1.07.65.23,1.26.56,1.9.81,1.02.4,2.11.62,3.2.77.46.06,1.03.23,1.06.69.03.51-.64.72-1.16.76-.94.06-1.87.13-2.81.19-.44.03-.99.15-1.09.58-.06.28.12.57.35.73s.53.23.8.31c1.97.62,3.37,2.36,5.23,3.25.47.22,1.07.6.91,1.09-.15.45-.78.46-1.25.38.5.24.94.59,1.28,1.02-1.06.46-2.3.29-3.41-.05s-2.19-.83-3.34-.98c1.15.45,2.3.89,3.45,1.34.29.11.64.34.55.64-.04.12-.13.2-.24.27-.73.47-1.69.16-2.49-.19-5.52-2.44-10.3-6.52-13.57-11.58-.7-1.09-1.34-2.22-1.97-3.35-1-1.78-2-3.57-3-5.35-1.14-2.03-2.31-3.96-3.37-6.04-.22-.43-.44-.89-.43-1.37,0-.39.16-.76.26-1.14.36-1.35.05-2.79.16-4.18.06-.79.26-1.56.46-2.33.48-1.84.99-3.66,1.51-5.49.09-.33.29-.59.51-.86Z" style="fill: #fff;"/>
        <path d="M142.61,81.51c.09-.04.18-.08.23-.17.05-.09.03-.2,0-.3-.11-.49-.3-.97-.55-1.4-1.19.48-2.38.96-3.56,1.43-2.14.86-4.3,1.73-6.58,2.07.07-.01.46,1.05.6,1.18.25.22.52.19.84.17,1.04-.09,2.08-.35,3.08-.64,2.05-.6,4-1.46,5.94-2.33Z" style="fill: #8fc4de;"/>
        <path d="M87.07,76.7c1.62.98,3.55,1.31,5.24,2.17.42.21.82.46,1.25.63.36.14.75.23,1.13.32.33.08.66.15.99.23.11.03.24.06.29.16.04.07.03.16.01.24-.08.52-.19,1.04-.33,1.54-.02.07-.04.14-.1.18-.07.06-.17.05-.26.04-1.76-.22-3.56-.46-5.15-1.24-.47-.23-.92-.51-1.37-.79-1.75-1.09-3.54-2.22-4.84-3.82-.05-.06-.1-.13-.11-.2-.02-.13.08-.25.17-.35.56-.6.76-.93,1.45-.34.52.44,1.04.87,1.63,1.23Z" style="fill: #8fc4de;"/>
        <path d="M126.26,60.94c-.02.6-.51,1.06-.97,1.45-.6.5-1.2,1.01-1.9,1.36-.73.36-1.53.52-2.32.69-.93.19-1.86.39-2.8.58-1.35.28-2.72.56-4.1.56-1.88,0-3.56-1.17-5.36-1.69-.57-.16-1.15-.27-1.67-.56-.38-.21-.7-.5-1.02-.79-.89-.8-1.78-1.61-2.67-2.41-.35-.31-.72-.69-.72-1.16.7-.15,1.4-.24,2.11-.27.19,0,.4-.01.56.09.14.08.23.23.32.37.72,1.08,1.86,1.81,3.04,2.37,4.93,2.34,11.05,1.94,15.63-1.03.1-.06.2-.13.32-.12.06,0,.12.03.18.06.39.18.98.34,1.37.52Z" style="fill: #8fc4de;"/>
        <path d="M90.78,107.56c1.92.74,3.23,2.53,4.29,4.3,1.06,1.77,2.03,3.67,3.65,4.95.94.74,2.05,1.22,3.14,1.7,1.69.73,3.4,1.48,5.22,1.77.58.09,1.41-.06,1.41-.65.51.08,1.02.16,1.53.24.15.02.32.06.39.2.07.13.01.29,0,.43-.04.61.76.91,1.36.82s1.22-.37,1.8-.16c.24.09.44.25.66.37.98.54,2.21.21,3.25-.21,3.18-1.28,6.05-3.35,8.26-5.98,1.06-1.25,2.13-2.73,3.74-3,.04,8.13.41,16.26,1.09,24.37.7,8.31.58,16.61.08,24.93-9.65,1.47-19.5.66-29.2-.4-3.28-.36-6.62-.77-9.58-2.21.26-4.95.06-9.91-.14-14.87-.24-5.95-.48-11.92-1.37-17.81-.23-1.54-.61-2.86-.88-4.4-.19-1.08-.38-2.16-.41-3.25-.03-1,.08-2,.19-3,.31-2.88.75-5.33,1.53-8.13Z" style="fill: #1f89bd;"/>
        <path d="M102.24,59.38c-2.51.34-5,.81-7.46,1.4-1.03.25-2.08.52-2.95,1.13-.9.62-1.54,1.53-2.16,2.43-.57.82-1.15,1.65-1.58,2.56-.64,1.35-.96,2.84-1.62,4.18-.6,1.21-1.49,2.3-1.79,3.62,1.85,1.06,3.71,2.12,5.57,3.19.91.52,1.83,1.05,2.8,1.43.77.3,1.57.52,2.36.76.89.27.3,1.76.21,2.46-.15,1.13-.3,2.25-.46,3.38-.3,2.21-.6,4.41-.91,6.62-.36,2.61-.44,5.3.53,7.76.97,2.45,2.3,4.82,2.64,7.44.58-.43,1.38-.46,2.07-.28.7.18,1.33.56,1.98.88,1.53.76,3.19,1.25,4.89,1.45.54.06,1.11.1,1.55.41.44.31.67,1,.3,1.4-.14.15-.33.23-.52.3-1.37.5-2.9.56-4.31.19-.3.3.12.77.49.97,1.93,1.07,3.89,2.09,5.88,3.07.26.13.53.28.81.37.24.08.44.18.6.39.07.09.14.2.25.24.11.05.24.02.36-.01.12-.03.24-.06.35-.11.23-.11.41-.23.66-.27.29-.05.58-.15.85-.25.57-.22,1.11-.51,1.65-.8,1.58-.86,3.28-1.86,3.91-3.55-1.85-.03-3.92.92-5.42-.17-.11-.08-.23-.19-.25-.33-.04-.23.18-.41.37-.53,2.86-1.82,6.23-2.67,9.6-3.03.89-.09,1.85-.19,2.51-.78.39-.35.63-.84.92-1.27.47-.69,1.11-1.26,1.47-2.01.23-.47.35-.98.46-1.49,1-4.53,1.94-9.08,2.81-13.63.36-1.86.16-3.76.28-5.65,0-.12.02-.26.11-.34.1-.09.25-.09.39-.08.88.05,1.77-.04,2.62-.28.92-.25,1.79-.67,2.66-1.09.91-.43,1.81-.87,2.72-1.3.57-.27,2.07-.6,1.86-1.37-.27-1.01-.55-2.02-.82-3.02-.21-.78-.47-1.47-.85-2.18-.33-.63-.32-1.44-.45-2.15-.63-3.34-2.67-6.55-5.8-7.88-2.17-.92-4.7-.9-6.7-2.14-.34-.21-.73-.47-1.12-.36-.25.07-.43.28-.6.47-2.54,2.82-6.52,4.23-10.27,3.95-.78-.06-1.54-.26-2.32-.35-.72-.08-1.46-.07-2.18-.13-3.66-.33-6.66-2.86-8.96-5.56Z" style="fill: #1f89bd;"/>
        <g>
          <g>
            <path d="M113.31,162.75c-.07,0-.15,0-.21.05-.05.05-.06.12-.07.19-.79,6.77-1.04,13.61-.74,20.42.08,1.8.2,3.61.01,5.4-.18,1.7-.63,3.36-1.01,5.03-.07.32-.14.65-.09.98.05.31.22.59.38.85,1.4,2.25,3.06,4.34,4.95,6.2.17.17.36.34.59.39.19.04.39-.02.58-.08,1.03-.31,2.06-.62,3.09-.93-.17-.56-.68-.93-1.1-1.34-1.31-1.26-1.98-3.07-2.16-4.88-.19-1.81.07-3.63.36-5.42,1.19-7.33,3.05-14.52,4.91-21.71.33-1.26.67-2.52.98-3.79.41-1.68-.8-1.23-2.18-1.25-2.76-.03-5.52-.07-8.29-.1Z" style="fill: #fff;"/>
            <g>
              <path d="M91.8,179.06c-.73,2.58-1.39,5.19-1.97,7.81-.23,1.03-.44,2.06-.79,3.05-.93,2.63.05,4.21,1.36,6.51.26.46.55.91.73,1.41.12.32.2.66.39.95.18.28.46.49.72.69.29.22.58.44.87.66.06.05.12.09.2.12.1.03.21.01.32,0,.95-.18,1.92-.24,2.89-.19l-1.03-3.46c-.39-1.29-.65-2.74-.61-4.09.02-.63.1-1.26.32-1.84.15-.41.37-.8.59-1.18,1.03-1.81,1.65-3.84,2.67-5.62,1.1-1.94,2.13-3.93,3.17-5.91.45-.86.9-1.72,1.3-2.6,1.92-4.18,2.89-8.91,5.79-12.48-3.12-.84-6.37-1.25-9.56-1.8-.18-.03-.37-.06-.55-.01-.25.07-.43.27-.58.47-.78,1.03-1.24,2.27-1.68,3.49-1.67,4.63-3.22,9.3-4.56,14.03Z" style="fill: #fff;"/>
              <path d="M86.88,197.34c.31,1.54.89,3.02,1.72,4.35.14.23.3.46.42.71.23.45.35.93.57,1.38.52,1.07,1.51,1.83,2.53,2.42.41.24.84.46,1.3.61.97.31,2.02.24,3.03.13.11-.01.22-.02.32.02s.17.17.12.27c-.03.05-.08.08-.13.1-1.02.5-2.24.3-3.36.09-1.16-.22-2.37-.46-3.28-1.2-.26-.21-.49-.46-.73-.71-.36-.39-.72-.78-1.09-1.17-.33-.36-1.49-2.98-1.73-3.92-.19-.77-.48-1.51-.61-2.28-.09-.54-.19-1.55.19-2.02.47-.57.66.9.72,1.23Z" style="fill: #fff;"/>
              <path d="M90.16,196.45c.5.83,1,1.67,1.53,2.48.33.51.71,1.03,1.26,1.29.69.31,1.48.15,2.23.06.75-.08,1.63-.02,2.08.59.16.21.25.47.33.72.39,1.14.78,2.28,1.17,3.41.04.12.08.25.06.38-.03.12-.12.22-.21.31-.67.61-1.59.89-2.5.91-.9.03-1.8-.18-2.67-.42-.94-.26-1.9-.57-2.66-1.19-.96-.78-1.5-1.96-2.01-3.1-.22-.5-.45-1-.67-1.51-.62-1.4-1.25-2.8-1.67-4.27-.28-.99-.47-2.09-.08-3.04.23-.57.67-1.06,1.21-1.36.12-.07.27-.16.41-.19.28-.05.21-.09.3.15.1.29.07.69.14.99.31,1.36,1.03,2.59,1.74,3.78Z" style="fill: #fff9cb;"/>
              <path d="M98.62,161.06c-3.52,4.53-10.09,31.01-10.09,31.01" style="fill: none; stroke: #2e3117; stroke-linecap: round; stroke-miterlimit: 10; stroke-width: 1.04px;"/>
              <line x1="108.83" y1="162.51" x2="94.81" y2="191.73" style="fill: none; stroke: #2e3117; stroke-linecap: round; stroke-miterlimit: 10; stroke-width: 1.04px;"/>
              <path d="M94.81,191.73c-.67,3.78,2.1,8.47,3.56,11.46.38.78.71,1.71.31,2.48-.34.65-1.1.95-1.83,1.09-2.49.47-5.2-.51-6.81-2.46-.89-1.07-1.44-2.37-1.93-3.67-.43-1.13-.81-2.27-1.2-3.41-.37-1.09-.74-2.21-.67-3.35s.69-2.33,1.77-2.72" style="fill: none; stroke: #2e3117; stroke-linecap: round; stroke-miterlimit: 10; stroke-width: 1.04px;"/>
              <path d="M96.59,200.33c-.98-.26-2.05-.19-2.98.21-.15.06-.31.13-.46.08-.09-.03-.15-.1-.22-.17-2.33-2.58-3.93-5.79-4.59-9.2" style="fill: none; stroke: #2e3117; stroke-linecap: round; stroke-miterlimit: 10; stroke-width: 1.04px;"/>
              <path d="M98.36,206.31c-1.05,1.45-3.11,1.89-4.85,1.46-1.74-.43-4.04-1.12-5.84-4.87-.3-.62-.45-1.3-.68-1.96-.79-2.29-1.59-4.8-.76-7.07" style="fill: none; stroke: #2e3117; stroke-linecap: round; stroke-miterlimit: 10; stroke-width: 1.04px;"/>
            </g>
            <path d="M110.51,200.68c.6,1.45,1.46,2.79,2.53,3.93.19.2.38.39.55.61.31.39.53.85.83,1.24.72.94,1.84,1.49,2.96,1.88.45.16.91.29,1.39.34,1.01.11,2.03-.16,3-.46.1-.03.21-.07.32-.04s.2.14.16.24c-.02.05-.06.09-.11.13-.91.69-2.13.73-3.27.75-1.18.01-2.41.01-3.46-.54-.3-.16-.58-.36-.85-.56-.43-.31-.86-.63-1.3-.94-.4-.29-2.05-2.63-2.46-3.51-.34-.71-.76-1.38-1.04-2.12-.2-.52-.49-1.48-.21-2.02.35-.66.82.75.95,1.06Z" style="fill: #fff;"/>
            <path d="M111.97,181.77c0,.07,0,.14,0,.2.01.94.27,1.86.32,2.78.05.86-.3,1.8-.49,2.64-.44,1.99-.85,3.99-1.04,6.02-.03.35-.19.61-.1.96.16.61.42,1.18.75,1.71.66,1.1,1.55,2.05,2.39,3.02.35.4.71.79.99,1.24.18.29.33.61.56.86.23.24.54.39.84.54.33.16.66.32.99.48.07.03.14.07.22.08.11.01.21-.03.31-.07.9-.36,1.84-.61,2.8-.75-.56-1.06-1.13-2.12-1.69-3.19-.69-1.31-1.49-2.55-1.47-4.09.02-1.06.29-2.09.52-3.12.6-2.59.8-5.21,1.25-7.8.21-1.18.85-2.28,1.08-3.48.25-1.26.36-2.54.57-3.81.68-4.15,2.42-8.11,2.72-12.31.01-.16.01-.34-.1-.46-.1-.1-.26-.12-.4-.13-1.07-.07-10.22,0-10.21-.1-.18,1.73-.12,3.47,0,5.2.1,1.32-.1,2.49-.13,3.79-.07,3.27-.72,6.52-.69,9.79Z" style="fill: #fff;"/>
            <path d="M113.56,199.16c.65.72,1.3,1.44,1.98,2.13.43.43.9.88,1.49,1.02.73.17,1.48-.15,2.2-.37.72-.23,1.59-.33,2.16.17.2.18.33.41.47.64.6,1.04,1.21,2.08,1.81,3.12.07.11.13.23.13.36,0,.13-.07.24-.15.34-.53.73-1.39,1.18-2.27,1.38-.88.2-1.8.18-2.7.11-.98-.07-1.97-.19-2.84-.65-1.1-.58-1.86-1.63-2.57-2.65-.32-.45-.63-.9-.95-1.35-.88-1.25-1.77-2.5-2.47-3.87-.47-.92-.87-1.95-.67-2.97.12-.61.45-1.17.92-1.57.11-.09.23-.21.36-.26.26-.11.19-.13.32.09.16.26.2.66.33.95.57,1.28,1.52,2.34,2.45,3.37Z" style="fill: #fff9cb;"/>
            <path d="M112.97,162.82l-1.11,25.33s-.1,3.64-1.07,6.7" style="fill: none; stroke: #2e3117; stroke-linecap: round; stroke-miterlimit: 10; stroke-width: 1.04px;"/>
            <line x1="123.65" y1="163.6" x2="117.06" y2="193.6" style="fill: none; stroke: #2e3117; stroke-linecap: round; stroke-miterlimit: 10; stroke-width: 1.04px;"/>
            <path d="M117.06,193.6c.4,3.3,3.86,7.92,5.87,10.56.53.69,1.04,1.54.79,2.37-.21.7-.9,1.15-1.58,1.42-2.35.95-5.2.52-7.16-1.08-1.08-.88-1.88-2.04-2.61-3.22-.64-1.02-1.24-2.07-1.84-3.11-.57-.99-1.16-2.02-1.32-3.16-.16-1.14.22-2.43,1.21-3.02" style="fill: none; stroke: #2e3117; stroke-linecap: round; stroke-miterlimit: 10; stroke-width: 1.04px;"/>
            <path d="M120.62,201.72c-1.01-.07-2.04.22-2.88.79-.13.09-.28.19-.43.17-.09-.01-.17-.07-.25-.13-2.78-2.07-4.99-4.91-6.3-8.13" style="fill: none; stroke: #2e3117; stroke-linecap: round; stroke-miterlimit: 10; stroke-width: 1.04px;"/>
            <path d="M123.52,207.23c-.75,1.63-2.68,2.46-4.47,2.38-1.79-.08-4.18-.31-6.68-3.63-.41-.55-.7-1.19-1.05-1.79-1.23-2.09-2.5-4.39-2.13-6.79" style="fill: none; stroke: #2e3117; stroke-linecap: round; stroke-miterlimit: 10; stroke-width: 1.04px;"/>
            <g>
              <path d="M109.82,36.06c-.19.09-.39.17-.61.24-.6.2-1.16.56-1.81.61-1.04.08-2.14-.64-3.08-.18-.47.23-.76.71-.93,1.21-.37,1.12-.17,2.41.52,3.37s1.87,1.54,3.05,1.52c.18,0,.38,0,.5.13.09.1.1.24.11.37.15,3.12.3,6.24.45,9.36.03.61.06,1.23.04,1.85-.03,1.12-.22,2.23-.42,3.33-.6.12-1.57.15-2.1.45-.57.33-.07,1,.3,1.38.78.8,1.78,1.37,2.8,1.83,2.31,1.05,4.83,1.63,7.37,1.71.56.02,1.13,0,1.69-.06.77-.1,1.51-.32,2.26-.54,1.41-.42,3.03-.87,4.07-1.98.76-.81-.09-.69-.73-.87-.54-.16-1.53-.42-1.68-1.08-.08-.36,1.12-4.94,1.26-4.96,2.11-.33,4.4-1.22,5.9-2.73,1.23-1.23,1.96-2.86,2.66-4.45.44-.99.87-1.98,1.31-2.96,1.12-2.55.7-5.41.78-8.19-4.29-1.66-7.09-5.55-10.16-8.98-.11-.12-.22-.24-.38-.27-.16-.03-.32.06-.46.15-.71.47-1.24,1.17-1.8,1.82-1.18,1.37-2.4,2.75-3.89,3.81-.66.47-1.37.88-2.08,1.29-1.33.77-2.66,1.54-3.99,2.3-.34.2-.64.37-.97.52Z" style="fill: #fff;"/>
              <path d="M107.3,43.15c.28,1.93.36,3.88.43,5.83.04,1.22.09,2.45-.1,3.66-1.44-.06-2.86-.45-4.13-1.13-.32-.17-.64-.37-.88-.65-.25-.3-.38-.67-.6-.98-.76-1.09-2.31-1.28-3.36-2.11-.86-.68-1.32-1.74-1.62-2.78s-.49-2.14-.94-3.13c-1.09-2.39-2.52-4.56-1.27-7.24.23-.5.55-.97.98-1.31.67-.52,1.54-.67,2.35-.92.99-.31,2.2-.83,2.92-1.62.73-.8,1-1.79,1.43-2.75.25-.57.61-1.09.96-1.61.75-1.09,1.5-2.19,2.44-3.12,1.03-1.01,2.25-1.79,3.47-2.56,1.42-.9,2.88-1.82,4.53-2.16,1.72-.36,3.5-.07,5.23.23,1.6.27,3.05.82,4.67.86.71.02,1.42-.06,2.13-.06,3.64,0,7.19,2.27,8.69,5.59.43.94.7,1.94,1.15,2.87.68,1.4,1.76,2.6,2.35,4.04.19.48.33.98.56,1.44.19.4.45.76.73,1.1.71.87,1.58,1.62,2.55,2.19,2.03,1.19,2.06,4.68.9,6.72-.85,1.52-2.45,2.44-3.99,3.24-.22.11-.45.23-.69.24.08-.11.14-.24.17-.37-.13,1.82-.6,3.61-1.37,5.26-.22.46-.46.92-.8,1.3-.58.65-1.41,1.03-2.22,1.34-1.22.47-2.61.83-3.81.3-.57.84-1.57,1.31-2.57,1.44-1,.13-2.02-.03-3.02-.21-.73-.14-1.61-.43-1.73-1.16-.1-.59.38-1.14.93-1.37.55-.24,1.16-.26,1.74-.4,1.08-.26,2.03-.91,2.8-1.71.77-.8,1.37-1.74,1.95-2.68.71-1.16,1.41-2.33,1.87-3.61.31-.85.51-1.74.61-2.64.21-2.04.59-3.84.63-5.89,0-.26,0-.53-.1-.77-.14-.3-.43-.51-.7-.69-1.04-.7-2.11-1.36-3.13-2.09-2.6-1.85-4.93-4.14-6.47-6.93-.68,1.13-1.71,2-2.74,2.83-3.2,2.59-6.51,5.05-9.91,7.38-.87.59-1.88,1.21-2.9.97-.69-.16-1.28-.69-1.99-.72-.67-.03-1.29.43-1.61,1.02-.32.59-.39,1.28-.37,1.95.04,1.06.32,2.16,1.05,2.92s1.91,1.23,2.81.67Z" style="fill: #4b4c4e;"/>
              <path d="M107.63,52.53c-1.35.8-4.64-.6-5.25-2.12-.61-1.52-2.13-1.68-2.79-1.86-3.42-.93-3.39-6.99-3.39-6.99-2.2-2.53-2.29-3.73-1.78-6.51.51-2.78,4.22-2.71,4.22-2.71,3.89-1.05,2.84-3.49,4.9-6.16,9.19-11.91,19.16-6.5,19.16-6.5,0,0,8.65-2.35,12.37,6.39,3.72,8.75,4.73,9.49,5.81,10.11s5.25,4.42.24,9.56c0,0-1.41.93-2.99,1.41,0,0-.45,9.12-7.67,7.71,0,0-1.77,2.36-5.93,1.23" style="fill: none; stroke: #2e3117; stroke-linecap: round; stroke-miterlimit: 10; stroke-width: 1.04px;"/>
              <path d="M134.24,35.79c-6.88-2.75-11.18-9.76-11.18-9.76,0,0-7.66,8.43-16.36,11.53" style="fill: none; stroke: #2e3117; stroke-linecap: round; stroke-miterlimit: 10; stroke-width: 1.04px;"/>
              <path d="M106.97,37.36c-.37-.26-.78-.45-1.22-.57-.49-.13-1.05-.16-1.47.13-.26.17-.43.45-.56.72-.69,1.42-.47,3.23.53,4.45.39.47.9.86,1.48,1.05s1.25.14,1.78-.17" style="fill: none; stroke: #2e3117; stroke-linecap: round; stroke-miterlimit: 10; stroke-width: 1.04px;"/>
              <path d="M133.51,35.72s.02,20.91-13.69,17.45" style="fill: none; stroke: #2e3117; stroke-linecap: round; stroke-miterlimit: 10; stroke-width: 1.04px;"/>
              <path d="M107.65,40.71s.68,15.03-.16,17.34c0,0-13.68,2.54-15.31,3.4-1.64.86-4.66,7.5-8.54,14.92,0,0,6.76,6.64,12.14,5.86" style="fill: none; stroke: #2e3117; stroke-linecap: round; stroke-miterlimit: 10; stroke-width: 1.04px;"/>
              <path d="M116.02,22.67c-1.37.54-2.55,1.55-3.28,2.82-.56.97-.91,2.13-1.83,2.77" style="fill: none; stroke: #2e3117; stroke-linecap: round; stroke-miterlimit: 10; stroke-width: 1.04px;"/>
              <path d="M110.37,30.94c-.39.41-.79.82-1.18,1.24-.56.59-1.23,1.22-2.04,1.17" style="fill: none; stroke: #2e3117; stroke-linecap: round; stroke-miterlimit: 10; stroke-width: 1.04px;"/>
              <path d="M106.81,27.42c-.81.45-1.41,1.26-1.6,2.16-.15.73-.06,1.53-.45,2.16-.35.56-.99.85-1.6,1.11" style="fill: none; stroke: #2e3117; stroke-linecap: round; stroke-miterlimit: 10; stroke-width: 1.04px;"/>
              <path d="M99.95,34.79c-.39.51-.79,1.02-1.04,1.61s-.35,1.27-.13,1.87" style="fill: none; stroke: #2e3117; stroke-linecap: round; stroke-miterlimit: 10; stroke-width: 1.04px;"/>
              <path d="M100.02,43.33c.09.51.18,1.02.27,1.53.08.46.16.92.38,1.33.22.41.61.75,1.07.8" style="fill: none; stroke: #2e3117; stroke-linecap: round; stroke-miterlimit: 10; stroke-width: 1.04px;"/>
              <path d="M134.58,48.84c.62,1.22.27,2.86-.8,3.72" style="fill: none; stroke: #2e3117; stroke-linecap: round; stroke-miterlimit: 10; stroke-width: 1.04px;"/>
              <path d="M138,38.18c1,1.78.91,4.11-.22,5.8" style="fill: none; stroke: #2e3117; stroke-linecap: round; stroke-miterlimit: 10; stroke-width: 1.04px;"/>
              <path d="M125.84,23.6c1.11.27,2.33.62,2.97,1.57.36.54.48,1.21.7,1.82.51,1.44,1.59,2.61,2.83,3.5,1.24.89,2.64,1.51,4.04,2.13" style="fill: none; stroke: #2e3117; stroke-linecap: round; stroke-miterlimit: 10; stroke-width: 1.04px;"/>
              <path d="M121.71,29.91c.57.19,1.18.28,1.78.27" style="fill: none; stroke: #2e3117; stroke-linecap: round; stroke-miterlimit: 10; stroke-width: 1.04px;"/>
              <path d="M120.95,31.64c.87.3,1.79.45,2.7.45" style="fill: none; stroke: #2e3117; stroke-linecap: round; stroke-miterlimit: 10; stroke-width: 1.04px;"/>
              <path d="M122.32,38.28c.13.88.38,1.74.75,2.55.18.39.38.81.3,1.23-.08.39-.4.69-.76.85-.52.24-1.21.21-1.59-.22" style="fill: none; stroke: #2e3117; stroke-linecap: round; stroke-miterlimit: 10; stroke-width: 1.04px;"/>
              <path d="M122.64,47.58c-.96-.84-2.47-.96-3.54-.28" style="fill: none; stroke: #2e3117; stroke-linecap: round; stroke-miterlimit: 10; stroke-width: 1.04px;"/>
              <path d="M120.22,49.11c.48.08.97.15,1.45.23" style="fill: none; stroke: #2e3117; stroke-linecap: round; stroke-miterlimit: 10; stroke-width: 1.04px;"/>
              <path d="M116.96,43.02c-.34.29-.56.7-.62,1.14" style="fill: none; stroke: #2e3117; stroke-linecap: round; stroke-miterlimit: 10; stroke-width: 1.04px;"/>
              <path d="M125.09,44.41c.73.14,1.33.77,1.45,1.5" style="fill: none; stroke: #2e3117; stroke-linecap: round; stroke-miterlimit: 10; stroke-width: 1.04px;"/>
              <line x1="122.95" y1="54.13" x2="121.44" y2="60.26" style="fill: none; stroke: #2e3117; stroke-linecap: round; stroke-miterlimit: 10; stroke-width: 1.04px;"/>
              <path d="M105.88,39.14c0-.27-.35-.45-.6-.36s-.4.38-.41.65c0,.27.1.53.23.78" style="fill: none; stroke: #2e3117; stroke-linecap: round; stroke-miterlimit: 10; stroke-width: 1.04px;"/>
              <path d="M114.02,37.76c1.09.17,2.16.47,3.18.9-.79.57-1.58,1.14-2.37,1.71" style="fill: none; stroke: #2e3117; stroke-linecap: round; stroke-linejoin: round; stroke-width: 1.04px;"/>
              <path d="M128.05,38.79c-.62.17-1.24.34-1.86.51.8.39,1.6.79,2.4,1.18" style="fill: none; stroke: #2e3117; stroke-linecap: round; stroke-linejoin: round; stroke-width: 1.04px;"/>
              <g>
                <path d="M142.21,82.07c1.22,3.07,1.61,5.99,2.27,9.22.2.97.37,1.96.29,2.94-.18,2.19-1.6,4.07-3.09,5.68-3.49,3.74-15.8,14.8-15.62,14.64" style="fill: none; stroke: #2e3117; stroke-linecap: round; stroke-miterlimit: 10; stroke-width: 1.04px;"/>
                <path d="M132.64,85.02c.98,2.57,1.96,5.14,2.94,7.71.09.23.17.46.15.7-.03.24-.17.45-.3.65-3.05,4.49-6.11,8.98-9.16,13.46" style="fill: none; stroke: #2e3117; stroke-linecap: round; stroke-miterlimit: 10; stroke-width: 1.04px;"/>
                <path d="M125.17,107.81c-1.21.13-2.43,0-3.64.13-1.1.12-2.08.66-3.04,1.16-1.26.66-2.59,1.19-3.96,1.58-.25.07-.5.14-.72.28-.22.14-.4.36-.42.62-.02.25.12.5.32.66.2.16.44.25.69.31,1.25.32,2.59.08,3.79-.39.19-.08.39-.16.6-.19,1.14-.14-.11,1.15-.41,1.44-2.12,2.04-4.8,3.5-7.67,4.17-.28.07-.61.16-.7.43-.09.24.07.52.3.65.22.13.5.14.75.14,2.23,0,4.45-.75,6.2-2.12" style="fill: none; stroke: #2e3117; stroke-linecap: round; stroke-linejoin: round; stroke-width: 1.04px;"/>
                <path d="M117.25,116.69c-1.32,1.13-3.43,2.53-6.51,3.4-.13.04-.23.15-.3.26-.2.3,0,.74.3.92.31.19.69.19,1.05.17,2.53-.15,5-1.2,6.86-2.93" style="fill: none; stroke: #2e3117; stroke-linecap: round; stroke-linejoin: round; stroke-width: 1.04px;"/>
                <path d="M114.36,121.09c-.19.15-.09.49.12.61.22.12.48.07.72.02,1.17-.27,2.28-.77,3.36-1.31,2.71-1.36,5.35-3.06,7.09-5.54" style="fill: none; stroke: #2e3117; stroke-linecap: round; stroke-linejoin: round; stroke-width: 1.04px;"/>
              </g>
              <g>
                <path d="M85.89,78.3c-.93,3.77-3.09,10.05-2.57,13.9.21,1.54.76,3.01,1.39,4.42,2.42,5.42,6.1,10.17,9.74,14.87-.12-.13-.25-.26-.37-.39" style="fill: none; stroke: #2e3117; stroke-linecap: round; stroke-linejoin: round; stroke-width: 1.04px;"/>
                <path d="M91.64,91.32c1.86,5.47,3.73,10.94,5.59,16.41" style="fill: none; stroke: #2e3117; stroke-linecap: round; stroke-linejoin: round; stroke-width: 1.04px;"/>
                <path d="M94.45,111.56c1.31,2.07,3.02,3.87,5,5.31.99.72,2.04,1.35,3.15,1.88.93.44,1.86.88,2.81,1.25.42.16.83.24,1.25.37.46.14.95.16,1.42.01.1-.03.21-.08.26-.17.04-.07.04-.15.02-.23-.05-.23-.22-.41-.42-.53s-.43-.17-.65-.23" style="fill: none; stroke: #2e3117; stroke-linecap: round; stroke-linejoin: round; stroke-width: 1.04px;"/>
                <path d="M108.82,117.64c.36.12,1.84.36,2.2.73.25.26.16.72-.1.96s-.65.31-1.01.32c-.88.03-1.74-.22-2.58-.47-1.75-.51-3.56-1.06-4.95-2.23" style="fill: none; stroke: #2e3117; stroke-linecap: round; stroke-linejoin: round; stroke-width: 1.04px;"/>
                <path d="M97.22,107.82c.65-.03,1.25-.38,1.9-.38.74.01,1.38.48,2.03.84,2.01,1.11,4.39,1.21,6.62,1.77.25.06.5.13.7.29.2.16.33.43.25.67-.04.13-.13.23-.23.32-.35.32-.83.47-1.3.57-1.31.29-2.68.31-4,.05,0,.43.39.75.74,1.01,1.08.79,2.17,1.57,3.31,2.26.58.35,1.17.67,1.77.95.3.14.61.27.93.39.15.06.3.12.45.16.15.04.29.02.43.08.08.04.15.1.2.16.08.09.16.19.18.3.04.17-.04.35-.17.46-.13.12-.29.18-.46.21-.41.08-.83.01-1.24-.05-.95-.16-3.72-1.21-4.21-1.39-.53-.2-1.06-.46-1.56-.73" style="fill: #fff; stroke: #2e3117; stroke-linecap: round; stroke-linejoin: round; stroke-width: 1.04px;"/>
                <path d="M94.99,83.52c-.48,1.56-1.2,3.04-2.12,4.38-.36.52-.76,1.07-.74,1.69" style="fill: none; stroke: #2e3117; stroke-linecap: round; stroke-linejoin: round; stroke-width: 1.04px;"/>
                <path d="M94.99,83.52c.1,1.62-.94,11.18-1.34,12.75" style="fill: none; stroke: #2e3117; stroke-linecap: round; stroke-linejoin: round; stroke-width: 1.04px;"/>
                <path d="M131.55,82.79c.22.58.23,1.21.23,1.82,0,3.23-.25,6.35-1,9.49-.72,3.03-1.81,6.05-1.63,9.2" style="fill: none; stroke: #2e3117; stroke-linecap: round; stroke-linejoin: round; stroke-width: 1.04px;"/>
                <path d="M91.01,107.23c-2.35,5.86-1.89,12.46-.87,18.69,1.01,6.23,1.81,26.7,1.51,33.01" style="fill: none; stroke: #2e3117; stroke-linecap: round; stroke-linejoin: round; stroke-width: 1.04px;"/>
                <path d="M129.15,111.74c.79,14.3,2.36,35.45,1.84,49.76" style="fill: none; stroke: #2e3117; stroke-linecap: round; stroke-linejoin: round; stroke-width: 1.04px;"/>
              </g>
              <path d="M122.19,59.57s12.95,3.52,14.46,4.82c1.52,1.29,5.72,12.96,6.06,16.99,0,0-4.38,2.93-9.74,3.1" style="fill: none; stroke: #2e3117; stroke-linecap: round; stroke-miterlimit: 10; stroke-width: 1.04px;"/>
            </g>
            <path d="M105.35,59c1.77,2.04,4.32,3.32,6.98,3.82,2.66.5,5.41.28,8.04-.35,1.48-.35,3.02-.88,4.01-2.04" style="fill: none; stroke: #2e3117; stroke-linecap: round; stroke-linejoin: round; stroke-width: 1.04px;"/>
            <path d="M102.62,59.31c2.63,4.16,7.84,6.07,12.75,6.12,4.12.04,8.51-1.21,11.08-4.42" style="fill: none; stroke: #2e3117; stroke-linecap: round; stroke-linejoin: round; stroke-width: 1.04px;"/>
            <path d="M95.92,80.04c.11.6.07,1.23-.1,1.82" style="fill: none; stroke: #2e3117; stroke-linecap: round; stroke-linejoin: round; stroke-width: 1.04px;"/>
            <path d="M85.08,75.24c3.22,2.08,6.55,4.2,10.32,4.86" style="fill: none; stroke: #2e3117; stroke-linecap: round; stroke-linejoin: round; stroke-width: 1.04px;"/>
            <path d="M132.64,84.79c-.31-.58-.62-1.17-.92-1.75,3.51-.49,6.94-1.56,10.11-3.17" style="fill: none; stroke: #2e3117; stroke-linecap: round; stroke-linejoin: round; stroke-width: 1.04px;"/>
            <path d="M92.13,159.51c12.75,2.36,25.88,4.73,38.59,2.12" style="fill: none; stroke: #2e3117; stroke-linecap: round; stroke-linejoin: round; stroke-width: 1.04px;"/>
          </g>
          <path d="M108.49,105.82c1.84-.3,3.76-.04,5.46.72" style="fill: none; stroke: #2e3117; stroke-linecap: round; stroke-linejoin: round; stroke-width: 1.04px;"/>
          <path d="M105.88,103.6c3.59-.58,7.35-.08,10.68,1.41" style="fill: none; stroke: #2e3117; stroke-linecap: round; stroke-linejoin: round; stroke-width: 1.04px;"/>
          <path d="M103.54,100.42c5.17-.83,10.59-.12,15.37,2.02" style="fill: none; stroke: #2e3117; stroke-linecap: round; stroke-linejoin: round; stroke-width: 1.04px;"/>
          <path d="M93.55,56.43c-.07.55-.58.95-1.12,1.07-.54.12-1.1.01-1.64-.09.02.87-.18,2-1.04,2.13-.42.06-.92-.15-1.21.16-.35.36.04,1.03-.24,1.44-.42.62-1.7-.09-2.05.58-.07.14-.07.31-.09.47-.06.89-.53,1.75-1.25,2.29" style="fill: none; stroke: #2e3117; stroke-linecap: round; stroke-linejoin: round; stroke-width: 1.04px;"/>
          <path d="M142.45,63.36c-.3.44.13,1,.54,1.33.42.33.91.77.76,1.27-.09.32-.43.55-.42.88,0,.35.39.55.61.83.6.78-.17,2.08.46,2.84.2.24.53.41.59.71.07.35-.25.64-.4.96-.2.44-.02,1.02.4,1.27" style="fill: none; stroke: #2e3117; stroke-linecap: round; stroke-linejoin: round; stroke-width: 1.04px;"/>
        </g>
      </g>
      <rect width="228" height="228" style="fill: none;"/>
    </g>
  </g>
</svg>