<?xml version="1.0" encoding="UTF-8"?>
<svg id="_圖層_2" data-name="圖層 2" xmlns="http://www.w3.org/2000/svg" viewBox="0 0 315.35 547.08">
  <g id="_圖層_1-2" data-name="圖層 1">
    <g>
      <g>
        <rect x="28.99" y="10.85" width="174.64" height="232" rx="26.81" ry="26.81" style="fill: #b9b9ba; stroke: #2e3138; stroke-linecap: round; stroke-miterlimit: 10; stroke-width: 2.02px;"/>
        <rect x="40.9" y="17.36" width="153.82" height="204.34" style="fill: #fff; stroke: #2e3138; stroke-linecap: round; stroke-miterlimit: 10; stroke-width: 2.02px;"/>
        <rect x="36.6" y="20.51" width="153.82" height="210.83" style="fill: #fff; stroke: #2e3138; stroke-linecap: round; stroke-miterlimit: 10; stroke-width: 2.02px;"/>
        <path d="M133.75,3.63h0c0-1.44-1.17-2.62-2.62-2.62h-28.71c-1.44,0-2.62,1.17-2.62,2.62h0c0,1.44-1.17,2.62-2.62,2.62h-3.6c-1.44,0-2.62,1.17-2.62,2.62v14.75c0,1.44,1.17,2.62,2.62,2.62h46.37c1.44,0,2.62-1.17,2.62-2.62v-14.75c0-1.44-1.17-2.62-2.62-2.62h-3.6c-1.44,0-2.62-1.17-2.62-2.62Z" style="fill: #ff6d04; stroke: #2e3138; stroke-linecap: round; stroke-miterlimit: 10; stroke-width: 2.02px;"/>
        <g>
          <g>
            <line x1="78.59" y1="49.05" x2="165.45" y2="49.05" style="fill: #fff; stroke: #2e3138; stroke-linecap: round; stroke-miterlimit: 10; stroke-width: 2.02px;"/>
            <line x1="78.59" y1="54.85" x2="165.45" y2="54.85" style="fill: #fff; stroke: #2e3138; stroke-linecap: round; stroke-miterlimit: 10; stroke-width: 2.02px;"/>
          </g>
          <g>
            <line x1="78.59" y1="69.75" x2="165.45" y2="69.75" style="fill: #fff; stroke: #2e3138; stroke-linecap: round; stroke-miterlimit: 10; stroke-width: 2.02px;"/>
            <line x1="78.59" y1="75.55" x2="126.32" y2="75.55" style="fill: #fff; stroke: #2e3138; stroke-linecap: round; stroke-miterlimit: 10; stroke-width: 2.02px;"/>
          </g>
          <g>
            <line x1="78.59" y1="90.45" x2="165.45" y2="90.45" style="fill: #fff; stroke: #2e3138; stroke-linecap: round; stroke-miterlimit: 10; stroke-width: 2.02px;"/>
            <line x1="78.59" y1="96.25" x2="165.45" y2="96.25" style="fill: #fff; stroke: #2e3138; stroke-linecap: round; stroke-miterlimit: 10; stroke-width: 2.02px;"/>
          </g>
          <g>
            <line x1="78.59" y1="111.14" x2="165.45" y2="111.14" style="fill: #fff; stroke: #2e3138; stroke-linecap: round; stroke-miterlimit: 10; stroke-width: 2.02px;"/>
            <line x1="78.59" y1="116.94" x2="165.45" y2="116.94" style="fill: #fff; stroke: #2e3138; stroke-linecap: round; stroke-miterlimit: 10; stroke-width: 2.02px;"/>
          </g>
          <g>
            <line x1="78.59" y1="131.84" x2="165.45" y2="131.84" style="fill: #fff; stroke: #2e3138; stroke-linecap: round; stroke-miterlimit: 10; stroke-width: 2.02px;"/>
            <line x1="78.59" y1="137.64" x2="165.45" y2="137.64" style="fill: #fff; stroke: #2e3138; stroke-linecap: round; stroke-miterlimit: 10; stroke-width: 2.02px;"/>
          </g>
          <g>
            <line x1="78.59" y1="152.54" x2="165.45" y2="152.54" style="fill: #fff; stroke: #2e3138; stroke-linecap: round; stroke-miterlimit: 10; stroke-width: 2.02px;"/>
            <line x1="78.59" y1="158.34" x2="154.09" y2="158.34" style="fill: #fff; stroke: #2e3138; stroke-linecap: round; stroke-miterlimit: 10; stroke-width: 2.02px;"/>
          </g>
          <g>
            <line x1="78.59" y1="173.24" x2="165.45" y2="173.24" style="fill: #fff; stroke: #2e3138; stroke-linecap: round; stroke-miterlimit: 10; stroke-width: 2.02px;"/>
            <line x1="78.59" y1="179.04" x2="151.1" y2="179.04" style="fill: #fff; stroke: #2e3138; stroke-linecap: round; stroke-miterlimit: 10; stroke-width: 2.02px;"/>
          </g>
          <g>
            <line x1="78.59" y1="193.93" x2="165.45" y2="193.93" style="fill: #fff; stroke: #2e3138; stroke-linecap: round; stroke-miterlimit: 10; stroke-width: 2.02px;"/>
            <line x1="78.59" y1="199.73" x2="114.84" y2="199.73" style="fill: #fff; stroke: #2e3138; stroke-linecap: round; stroke-miterlimit: 10; stroke-width: 2.02px;"/>
          </g>
          <rect x="58.41" y="45.23" width="12.19" height="12.19" style="fill: #fff; stroke: #2e3138; stroke-linecap: round; stroke-miterlimit: 10; stroke-width: 2.02px;"/>
          <rect x="58.41" y="65.97" width="12.19" height="12.19" style="fill: #fff; stroke: #2e3138; stroke-linecap: round; stroke-miterlimit: 10; stroke-width: 2.02px;"/>
          <rect x="58.41" y="86.7" width="12.19" height="12.19" style="fill: #fff; stroke: #2e3138; stroke-linecap: round; stroke-miterlimit: 10; stroke-width: 2.02px;"/>
          <rect x="58.41" y="107.44" width="12.19" height="12.19" style="fill: #fff; stroke: #2e3138; stroke-linecap: round; stroke-miterlimit: 10; stroke-width: 2.02px;"/>
          <rect x="58.41" y="128.18" width="12.19" height="12.19" style="fill: #fff; stroke: #2e3138; stroke-linecap: round; stroke-miterlimit: 10; stroke-width: 2.02px;"/>
          <rect x="58.41" y="148.91" width="12.19" height="12.19" style="fill: #fff; stroke: #2e3138; stroke-linecap: round; stroke-miterlimit: 10; stroke-width: 2.02px;"/>
          <rect x="58.41" y="169.65" width="12.19" height="12.19" style="fill: #fff; stroke: #2e3138; stroke-linecap: round; stroke-miterlimit: 10; stroke-width: 2.02px;"/>
          <rect x="58.41" y="190.38" width="12.19" height="12.19" style="fill: #fff; stroke: #2e3138; stroke-linecap: round; stroke-miterlimit: 10; stroke-width: 2.02px;"/>
        </g>
        <path d="M60.89,49.81c1.63,1.52,2.52,2.68,3.62,3.84,2.67-3.75,5.35-7.33,7.41-11.28" style="fill: none; stroke: #2e3138; stroke-linecap: round; stroke-miterlimit: 10; stroke-width: 2.02px;"/>
        <path d="M60.89,70.47c1.63,1.52,2.52,2.68,3.62,3.84,2.67-3.75,5.35-7.33,7.41-11.28" style="fill: none; stroke: #2e3138; stroke-linecap: round; stroke-miterlimit: 10; stroke-width: 2.02px;"/>
        <path d="M60.89,91.13c1.63,1.52,2.52,2.68,3.62,3.84,2.67-3.75,5.35-7.33,7.41-11.28" style="fill: none; stroke: #2e3138; stroke-linecap: round; stroke-miterlimit: 10; stroke-width: 2.02px;"/>
        <path d="M60.89,111.79c1.63,1.52,2.52,2.68,3.62,3.84,2.67-3.75,5.35-7.33,7.41-11.28" style="fill: none; stroke: #2e3138; stroke-linecap: round; stroke-miterlimit: 10; stroke-width: 2.02px;"/>
        <path d="M60.89,132.46c1.63,1.52,2.52,2.68,3.62,3.84,2.67-3.75,5.35-7.33,7.41-11.28" style="fill: none; stroke: #2e3138; stroke-linecap: round; stroke-miterlimit: 10; stroke-width: 2.02px;"/>
        <path d="M60.89,153.12c1.63,1.52,2.52,2.68,3.62,3.84,2.67-3.75,5.35-7.33,7.41-11.28" style="fill: none; stroke: #2e3138; stroke-linecap: round; stroke-miterlimit: 10; stroke-width: 2.02px;"/>
        <path d="M60.89,173.78c1.63,1.52,2.52,2.68,3.62,3.84,2.67-3.75,5.35-7.33,7.41-11.28" style="fill: none; stroke: #2e3138; stroke-linecap: round; stroke-miterlimit: 10; stroke-width: 2.02px;"/>
        <path d="M60.89,194.44c1.63,1.52,2.52,2.68,3.62,3.84,2.67-3.75,5.35-7.33,7.41-11.28" style="fill: none; stroke: #2e3138; stroke-linecap: round; stroke-miterlimit: 10; stroke-width: 2.02px;"/>
        <g>
          <path d="M8.67,106.7c7.18,2.26,22.44,4.52,38.04-9.2,1.18-1.04,2.93-1.1,4.15-.1,5.54,4.56,21.57,15.66,40.03,9.32,2.1-.72,4.29.85,4.23,3.07-.37,13.72-4.95,53.83-43.85,80.8-.95.66-2.18.74-3.21.23-7.99-3.96-41.21-23.82-43.53-80.94-.09-2.21,2.04-3.84,4.15-3.17Z" style="fill: #ff6d04; stroke: #2e3138; stroke-linecap: round; stroke-miterlimit: 10; stroke-width: 2.02px;"/>
          <path d="M5.16,110.25c7.18,2.26,22.44,4.52,38.04-9.2,1.18-1.04,2.93-1.1,4.15-.1,5.54,4.56,21.57,15.66,40.03,9.32,2.1-.72,4.29.85,4.23,3.07-.37,13.72-4.95,53.83-43.85,80.8-.95.66-2.18.74-3.21.23-7.99-3.96-41.21-23.82-43.53-80.94-.09-2.21,2.04-3.84,4.15-3.17Z" style="fill: #fff; stroke: #2e3138; stroke-linecap: round; stroke-miterlimit: 10; stroke-width: 2.02px;"/>
          <path d="M52.85,126.81v-9.12c0-1.43-1.16-2.58-2.58-2.58h-11.07c-1.43,0-2.58,1.16-2.58,2.58v9.12c0,1.43-1.16,2.58-2.58,2.58h-9.12c-1.43,0-2.58,1.16-2.58,2.58v11.07c0,1.43,1.16,2.58,2.58,2.58h9.12c1.43,0,2.58,1.16,2.58,2.58v9.12c0,1.43,1.16,2.58,2.58,2.58h11.07c1.43,0,2.58-1.16,2.58-2.58v-9.12c0-1.43,1.16-2.58,2.58-2.58h9.12c1.43,0,2.58-1.16,2.58-2.58v-11.07c0-1.43-1.16-2.58-2.58-2.58h-9.12c-1.43,0-2.58-1.16-2.58-2.58Z" style="fill: #ff6d04; stroke: #2e3138; stroke-linecap: round; stroke-miterlimit: 10; stroke-width: 2.02px;"/>
        </g>
      </g>
      <g>
        <path d="M128.04,466.53c.72,3.72,1.29,7.44,1.01,11.2-.34,4.55-1.8,9.66.93,13.32.23-.97.3-1.98.36-2.97.6-9.41.91-18.84.94-28.27.05-16.15-.73-32.29-.39-48.43.09-4.06,1.37-7.99,1.52-11.94.2-5.27-4.37-1.08-6.55.47-1.01.72-2.07,1.5-2.53,2.65-.41,1.04-.26,2.2-.12,3.31,1.06,7.99,1.71,16.04,1.94,24.1.29,9.99-.07,20.05,1.6,29.9.4,2.39,1.13,4.8,1.29,7.22.17,2.68.07,5.4.17,8.08.2,5.38.56,10.75,1.1,16.11,1.49-.5,2.46-1.99,2.81-3.52.35-1.53.18-3.12.05-4.69-.7-9,.26-18.05-.19-27.06-.11-2.08-.29-4.17-.3-6.25-.05-6.68,1.62-13.42.38-19.98-1.02-5.41.18-10.35-.2-15.84-.24-3.5-.59-7.09.45-10.44.49-1.59.82-3.24.56-4.88-.12-.75-.47-1.58-1.19-1.83-.79-.27-1.61.26-2.28.77" style="fill: #ff6d04;"/>
        <g>
          <polyline points="115.68 402.21 115.68 491.75 125.8 494.48 125.55 403.8" style="fill: none; stroke: #000; stroke-linecap: round; stroke-linejoin: round; stroke-width: 2.02px;"/>
          <polyline points="125.8 494.48 132.14 488.45 132.14 399.77" style="fill: none; stroke: #000; stroke-linecap: round; stroke-linejoin: round; stroke-width: 2.02px;"/>
        </g>
        <path d="M300.63,304.86l-17.54,17.25c-2.31,2.28-4.65,4.58-6.41,7.3-4.06,6.27-5.47,13.55-8.88,20.19-2.75,5.36-6.42,10.27-10.93,14.26-12.41,10.98-26.72,19.64-41.65,26.73-4.04,1.92-8.14,3.73-12.28,5.44-4.33,1.79-8.62,3.01-13.09,4.37-.33.1-.68.21-.92.46-.42.42-.4,1.1-.35,1.69.52,6.33,1.84,12.4,1.53,18.81-.02.47-.04.99.24,1.37.22.3.59.46.95.6,2.21.86,4.5,1.53,6.82,2.01.65.14,1.33.26,1.98.13.96-.19,1.74-.88,2.46-1.54,2.53-2.31,5.25-5.06,5.21-8.48-.01-1.12-.33-2.21-.64-3.29,2.5.58,5.09,1.5,7.59,1.92,2.43.4,4.98.21,7.44.61,2.66.43,5.28,1.1,7.84,1.96.75.25,6.79,2.13,6.79,2.81v90.08c-.37-.06-.75-.12-1.12-.18,3.62.49,7.19,1.32,10.65,2.47,1.97-2.18,3.74-4.53,5.71-6.7v-89.06c4.16-7.37,11.12-12.66,15.86-19.67,1.62-2.4,2.94-5.01,4.58-7.4,1.68-2.46,3.69-4.68,5.69-6.88,3.84-4.24,7.62-8.53,11.46-12.77v72.47c2.91,0,5.52,1.54,8.27,2.48.44.15.9.3,1.35.2.41-.09.75-.38,1.06-.67,2.1-1.92,3.97-4.08,5.58-6.42v-86.69c.64-.47,1.23-1.27,1.02-2.03-1.98-7.15-.48-16.21-.22-23.66.44-12.34,1.53-23.29,2.24-34.57,1.41-22.24,1.18-44.62,4.26-66.69,2.19-15.71.19-30.05.6-45.91,0,.3-20-.36-21.61-.45-5.93-.34-11.85-.89-17.73-1.66-.19.28-.03.66.15.94,1.64,2.56,4.33,4.22,6.64,6.19,1.89,1.6,3.55,3.45,5.21,5.28,1.3,1.44,2.6,2.88,3.9,4.33,2.93,3.25,4.21,6.22,5.2,10.43,2.11,8.99,2.04,18.33,3.17,27.5.61,4.93,1.56,9.81,2.16,14.75.68,5.64.9,11.32,1.12,17,.2,5.3.41,10.59.61,15.89.36,9.31.47,17.85-2.01,26.83Z" style="fill: #ff6d04;"/>
        <path d="M132.9,393.34c-1.71,2-3.6,3.85-5.65,5.51,1.93.56,3.86,1.12,5.79,1.68.67.19,1.52.34,1.96-.2.36-.43.24-1.07.11-1.61-.45-1.81-.9-3.62-1.35-5.43" style="fill: #ff6d04;"/>
        <path d="M245.6,373.14c-4.19,3.19-8.81,5.94-13.53,8.26-3.07,1.51-6.45,2.35-9.49,3.93-2.63,1.36-5.04,3.13-7.71,4.41-3.01,1.44-6.04,2.84-9.2,3.92-1.47.5-2.97.93-4.41,1.52-3.89,1.57-7.38,4.22-11.51,4.96-.23.04-.48.09-.64.26-.13.14-.17.34-.2.53-.58,3.83.8,7.57,1.28,11.33.25,1.98-.07,3.82-.05,5.77.02,2.29.1,4.57.25,6.85.29,4.56,2,9.43,2.67,13.95,1.33,8.99,2.07,17.55,4,26.42.61,2.79,1.83,5.51,2.32,8.24.59,3.27.62,6.75.88,10.06.13,1.68,1.59,19.67.99,19.75-12.22,1.74-24.61,2.31-36.93,1.7-.01-.04-.03-.09-.04-.13-.49-1.72-.81-3.56-1.56-5.17-.41-.89-.83-1.78-1.24-2.67-.3-.64-1.18-1.85-1.18-2.54-.68-1.45-1.36-2.91-1.82-4.45-.25-.83-.43-1.7-.31-2.55.04-.31.13-.62.11-.93-.02-.41-.21-.79-.38-1.17-1.59-3.43-2.06-7.23-2.79-10.9-.37-1.85-.8-3.69-1.49-5.45-.63-1.62-1.46-3.15-2.1-4.77-2.16-5.54-2.68-11.57-4.48-17.24-.63-2-1.42-3.95-1.97-5.97-.91-3.42-1.1-6.97-1.73-10.44-.26-1.4-.47-3.09-1.06-4.39-.68-1.51-1.31-2.94-1.76-4.55-1.41-5.01-2.45-10.12-3.11-15.28-.29-2.24-.5-4.49-.96-6.7-.23-1.1-.52-2.18-.89-3.24-.38-1.06-.86-1.55-1.69-2.34-1.87-1.76-2.33,2.12-3.23,2.73-.45.31-.97.47-1.47.69-.86.38-1.63.93-2.4,1.48-.6.43-1.2.86-1.8,1.29.18,3.46-.75,6.82-.57,10.31,1.53,29.56,3.19,59.1,4.99,88.64-2.95.81-5.96,1.42-8.99,1.82-3.03.4-6.1.25-9.12.61-2.82.34-5.67.16-8.52-.04-.87-.06-8.97-.41-9.07-.97-.9-4.89-1.8-9.77-2.71-14.66-.37-1.98-.73-3.96-.96-5.96-.21-1.87-.31-3.76-.46-5.63-.19-2.32-.47-4.64-.75-6.95-.75-6.15-1.49-12.3-2.24-18.45-.68-5.58-1.64-11.17-2.24-16.79-1.92-17.99-1.27-36.26,1.96-54.06,2.23-12.25,6.12-24.69,16.13-32.79.13-.1.27-.21.43-.24.19-.03.38.04.56.11,3.81,1.59,7.42,3.66,10.73,6.12,1.52,1.13,2.71,2.04,4.43,2.77,2.04.86,4.01,1.95,5.99,2.94,7.96,3.98,15.81,8.17,23.54,12.58,4.48,2.55,8.93,5.18,13.33,7.87,2.2,1.35,4.39,2.71,6.57,4.09,1.05.67,2.1,1.34,3.15,2.01.39.25,2.79,2.18,3.13,2.04,2.34-.97,3.36-3.65,4.91-5.66,1.19-1.55,2.37-3.1,3.58-4.64.11-.15.24-.3.42-.35.19-.06.4.02.59.09,3.72,1.4,7.87.22,11.64-1.04,17.53-5.88,34.41-13.47,50.24-23.03,4.09-2.47,8.12-5.03,12.12-7.64,2.98-1.94,5.83-4.16,8.75-6.19,2.07-1.43,4.05-5.49,7.03-4.81.12.03.24.07.32.16.06.07.08.17.1.26.45,2.18-.47,4.4-1.63,6.3-2.68,4.39-4.83,9.05-7.67,13.36-4.33,6.56-9.63,12.45-15.5,17.66-1.16,1.03-2.36,2.01-3.61,2.96Z" style="fill: #fff;"/>
        <path d="M223.06,324.72c-5.2,5.16-10.41,10.31-15.61,15.47-.71.7-1.46,1.47-1.67,2.45-.24,1.08.23,2.19.73,3.18,3.27,6.49,8.44,12.01,14.72,15.68.8.47,1.66.92,2.59.96,1.06.05,2.06-.43,3-.91,1.34-.67,2.67-1.37,3.99-2.07,11.04-5.85,21.62-12.57,31.62-20.06,9.99-7.49,19.02-16.04,28.43-24.23,1.48-1.29,2.96-2.58,4.25-4.06,3.33-3.83,5.2-8.75,6.11-13.74.91-4.99.92-10.1.93-15.18.02-11.44-1.09-22.57-1.74-33.96-.68-11.83-1.8-23.63-3.37-35.37-.65-4.9-1.41-9.86-3.51-14.33-1.25-2.65-2.94-5.07-4.85-7.29-1.69-1.97-3.17-4.07-4.98-5.95-1.28-1.34-2.57-2.68-3.85-4.01-.79-.82-1.58-1.64-2.5-2.3-1.15-.83-2.48-1.37-3.75-2-5.43-2.66-10.02-6.76-15.35-9.61-2-1.07-4.17-1.98-6.44-2.01-.25.89-.04,1.7-.15,2.57-.12.94-.08.84-1.01,1.46-.85.56-1.68,1.18-2.56,1.69-2.94,1.7-5.94,3.29-8.91,4.94-5.59,3.09-12.55,4.53-18.62,6.67-2.99,1.05-5.96,2.13-8.93,3.23-2.4.89-5.26,2.81-7.72,1.74-2.11-.93-4-2.74-4.84-4.9-.41-1.07-.55-1.85-1.18-2.87-.57-.92-1.73-2.1-1.1-3.28.39-.72,1.31-.91,2.08-1.22.76-.3,1.56-1.08,1.21-1.83-2.28.16-4.59.73-6.8,1.26-2.6.63-5.14,1.51-7.58,2.62-9.56,4.35-17.59,12.19-21.74,21.88-3.18,7.41-4.18,15.54-5.14,23.55-2.87,23.87-5.74,47.75-8.62,71.62,5.49.06,8.48,6.39,13.15,9.27,1.8,1.1,3.86,1.69,5.91,2.21,9.35,2.39,18.9,3.89,28.21,6.41,4.61,1.25,9.18,2.74,13.53,4.73,3.49,1.6,9.93,4.24,11.91,7.66-2.26,1.68-4,3.66-5.94,5.69-1.91,1.99-4.12,3.69-6.54,5.03-1.7.94-3.64,1.83-4.46,3.59-.59,1.27-.45,2.79.1,4.07.55,1.29,1.48,2.37,2.47,3.36" style="fill: #1f89bd;"/>
        <g>
          <path d="M190.14,81.07c-1.11,3.58-2.23,7.15-3.34,10.73-1.66,5.34-3.33,10.69-4.35,16.18-.61,3.26-.99,6.55-1.37,9.84-.68,5.98-1.32,12.11.07,17.96.35,1.48.84,2.94,1.52,4.3,2.01,3.98,5.65,6.94,9.64,8.92,1.46.73,3.63,1.18,4.75,2.43,1.34,1.49,1.41,3.97,1.79,5.9.93,4.81,1.53,9.67,2.14,14.53.23,1.87.09,4.36-1.73,4.88-1,.28-2.55.09-2.65,1.13-.03.3.11.59.26.86,1.44,2.66,3.32,5.09,5.55,7.14,3.12,2.88,6.7,2,10.32.69,4.11-1.48,8.02-3.51,12.17-4.88,1.37-.46,2.77-.84,4.13-1.34,3.52-1.29,6.77-3.33,10.42-4.17,1.25-.28,1.6-1.16,2.83-1.5,2.17-.61,5.03-1.11,6.93-2.33.58-.37,1.18-.76,1.53-1.35.7-1.17-.43-2.71-.46-3.97-.24-8.54-.32-17.08-.24-25.62.01-1.21.04-2.49.65-3.54,1.5-2.58,3.56-.86,5.61-1.16,2.03-.29,5.65-2.2,7.41-3.31,1.3-.82,2.6-1.78,3.31-3.15,1.15-2.23.37-5.12-1.41-6.88-1.79-1.76-4.38-2.5-6.89-2.55-2.51-.04-4.98.55-7.42,1.13-.52.12-1.06.25-1.59.16-.49-.09-.93-.36-1.35-.63-6.99-4.58-12.21-11.81-14.36-19.89-.92-3.46-1.3-7.06-2.49-10.43-1.31-3.69-3.63-7.33-3.02-11.2-3.41,1.13-6.82,2.26-10.22,3.39-2.24.74-4.49,1.49-6.83,1.82-2.4.34-4.85.23-7.26-.06-4.92-.6-9.53-2-14.05-4.03Z" style="fill: #fff;"/>
          <path d="M203.84,52.69c-1.44-2.2-2.11-5.29-4.58-6.21-1.59-.59-3.38,0-4.81.91-1.94,1.24-3.5,3.06-4.42,5.18-2.71-1.81-6.36-2.12-9.34-.8-2.98,1.32-5.2,4.23-5.69,7.45-.79,5.2,2.65,10.04,6.13,13.99,4.49,5.09,9.85,8.12,16.38,9.97,5.16,1.47,10.61,1.9,15.93,1.23,5.09-.64,10.33-1.41,14.95-3.78,1.6,15.38,8.79,30.12,19.93,40.84.6.57,1.24,1.16,2.05,1.34.69.15,1.41,0,2.09-.17,2.47-.58,4.95-1.17,7.42-1.75,1.02-.24,2.09-.51,2.83-1.24.64-.63.95-1.51,1.24-2.37,2.62-7.88,4.61-16.08,4.83-24.41.07-2.52-.03-5.06-.33-7.57-.27-2.23-.1-4.46-.5-6.69-.81-4.49-2.73-8.77-5.48-12.4-.84-1.11-1.76-2.16-2.82-3.05-.71-.59-1.47-1.11-2.23-1.62-4.22-2.85-8.24-5.67-13.31-6.77-3.3-.72-6.72-.78-10.09-.66-6.08.2-12.13.95-18.13,1.92-4.67.75-9.04,1.27-12.04-3.34Z" style="fill: #4b4c4e;"/>
          <path d="M194.42,106.14c-.01,1.71-1.41,3.08-3.12,3.06-1.71-.01-3.08-1.41-3.06-3.12.01-1.71,1.41-3.08,3.12-3.06,1.71.01,3.08,1.41,3.06,3.12Z" style="fill: #2e3138;"/>
          <path d="M222.19,111.33c-.01,1.71-1.41,3.08-3.12,3.06s-3.08-1.41-3.06-3.12c.01-1.71,1.41-3.08,3.12-3.06,1.71.01,3.08,1.41,3.06,3.12Z" style="fill: #2e3138;"/>
          <path d="M251.13,123.46c-7.51-3.97-12.8-11.3-15.97-19.19-3.17-7.88-4.44-16.38-5.69-24.78-11.82,6.65-26.89,7.18-39.15,1.37-7.85-3.72-14.98-10.94-14.96-19.63.01-3.78,1.62-7.76,4.86-9.71,3.25-1.95,8.15-1.1,9.86,2.28.31-2.66,1.54-5.38,3.84-6.74,2.31-1.37,5.77-.85,7.04,1.51.5.92.62,1.99.97,2.98,1.21,3.42,5,5.37,8.63,5.54,3.62.16,7.14-1.1,10.55-2.34,0,0,32.29-6.68,43.68,14.96,11.39,21.64-2.41,49.82-2.41,49.82" style="fill: none; stroke: #2e3138; stroke-linecap: round; stroke-miterlimit: 10; stroke-width: 2.02px;"/>
          <path d="M251.31,124.4c3.12-3.19,8.16-4.34,12.35-2.83,2.7.97,5.2,3.41,4.98,6.27-.15,1.97-1.53,3.63-3.04,4.9-3.7,3.1-8.92,4.68-13.51,3.17" style="fill: none; stroke: #2e3138; stroke-linecap: round; stroke-miterlimit: 10; stroke-width: 2.02px;"/>
          <path d="M190.33,80.86s-31.94,71.78,15.96,72.05" style="fill: none; stroke: #2e3138; stroke-linecap: round; stroke-miterlimit: 10; stroke-width: 2.02px;"/>
          <line x1="251.31" y1="135.91" x2="250.66" y2="169.4" style="fill: none; stroke: #2e3138; stroke-linecap: round; stroke-miterlimit: 10; stroke-width: 2.02px;"/>
          <path d="M198.97,152.91c.66,8.06,1.49,18.06,2.15,26.11" style="fill: none; stroke: #2e3138; stroke-linecap: round; stroke-miterlimit: 10; stroke-width: 2.02px;"/>
          <path d="M205.3,104.29c-.4,3.41-1.7,6.71-3.73,9.47-.63.86-1.36,1.73-1.53,2.79-.1.65.03,1.31.27,1.92,1.02,2.56,4.32,3.92,6.85,2.83" style="fill: none; stroke: #2e3138; stroke-linecap: round; stroke-miterlimit: 10; stroke-width: 2.02px;"/>
          <path d="M212.06,134.01c.79.99.83,2.62.09,3.8" style="fill: none; stroke: #2e3138; stroke-linecap: round; stroke-miterlimit: 10; stroke-width: 2.02px;"/>
          <path d="M200.26,175.88c-1.47.29-5.52,1.85-3.59,2.44,4.45,6.31,7.59,10.79,8.79,10.54,1.17-.24,37.45-13.72,46.85-18.72.76-.41,2.86-1.12,3.02-1.93.17-.82-3.69-1.71-4.32-1.13" style="fill: none; stroke: #2e3138; stroke-linecap: round; stroke-miterlimit: 10; stroke-width: 2.02px;"/>
          <path d="M257.12,126.98c.43-.62,1.28-.75,2.04-.82.17-.02.35-.03.52,0,.34.08.59.37.74.67.47.93.17,2.18-.67,2.8" style="fill: none; stroke: #2e3138; stroke-linecap: round; stroke-miterlimit: 10; stroke-width: 2.02px;"/>
          <path d="M197.3,61.29c3.73,3.07,8.4,4.97,13.2,5.39" style="fill: none; stroke: #2e3138; stroke-linecap: round; stroke-miterlimit: 10; stroke-width: 2.02px;"/>
          <path d="M183.72,61.99c.22,3.93,2.18,7.74,5.25,10.2" style="fill: none; stroke: #2e3138; stroke-linecap: round; stroke-miterlimit: 10; stroke-width: 2.02px;"/>
          <path d="M244.34,86.73c.48,3.73,2.24,7.29,4.9,9.95" style="fill: none; stroke: #2e3138; stroke-linecap: round; stroke-miterlimit: 10; stroke-width: 2.02px;"/>
          <path d="M261.3,92.97c.76.5.81,1.57.79,2.48-.06,2-.15,4.02-.66,5.96-.63,2.41-1.89,4.69-1.93,7.18" style="fill: none; stroke: #2e3138; stroke-linecap: round; stroke-miterlimit: 10; stroke-width: 2.02px;"/>
          <path d="M192.91,129.36c-1.14.67-1.71,2.17-1.32,3.43" style="fill: none; stroke: #2e3138; stroke-linecap: round; stroke-miterlimit: 10; stroke-width: 2.02px;"/>
          <path d="M188.86,98.94c2.47-1.87,6.32-1.6,8.51.6" style="fill: none; stroke: #2e3138; stroke-linecap: round; stroke-miterlimit: 10; stroke-width: 2.02px;"/>
          <path d="M215.83,104.05c2.47-1.87,6.32-1.6,8.51.6" style="fill: none; stroke: #2e3138; stroke-linecap: round; stroke-miterlimit: 10; stroke-width: 2.02px;"/>
          <path d="M199.1,136.24c-1.04-.52-1.48-1.91-1.04-2.98.43-1.07,1.61-1.75,2.77-1.73,1.16.02,2.25.68,2.94,1.6.49.66.79,1.55.45,2.29-.58,1.26-2.37,1.17-3.72.88-.56-.12-1.12-.24-1.67-.36" style="fill: none; stroke: #2e3138; stroke-linecap: round; stroke-miterlimit: 10; stroke-width: 2.02px;"/>
        </g>
        <path d="M155.64,544.7c4.91,1.97,10.38,1.84,15.66,1.66,3.08-.1,6.35-.27,8.88-2.03,1.36-.94,2.39-2.27,3.4-3.58,2.54-3.28,5.07-6.56,7.61-9.84,1.1-1.42,2.19-2.86,3.01-4.46.71-1.4,1.35-2.95,2.25-4.24.34-.49.76-1.01.72-1.61-.01-.17-.08-.35-.22-.44-.25-.15-.56.04-.78.22-1.05.87-1.96,1.97-3.03,2.79-.93.71-1.82,1.27-2.64,2.17-2.57,2.84-4.99,5.8-7.27,8.87-1.31,1.76-2.65,3.64-4.64,4.55-1.67.77-3.58.75-5.41.73-3.67-.05-7.34-.11-11-.16-2.73-.04-5.51-.08-8.14-.84-1.44-.41-3.38-1.43-4.42-2.5-.72-.73-1.53-1.37-2.41-1.9-.05-.03-.11-.06-.17-.05-.06,0-.11.06-.15.12-.64.87-.35,2.12.21,3.05,2.01,3.31,4.93,6.03,8.55,7.49Z" style="fill: #4b4c4e;"/>
        <path d="M161.59,511.74c-.62.89-1.28,1.78-2.17,2.4-1,.71-2.21,1.03-3.32,1.55-3.12,1.46-5.34,4.43-6.55,7.66s-1.53,6.71-1.73,10.14c-.03.59-.05,1.23.27,1.73.31.48.88.73,1.41.95,4.67,1.91,9.51,3.53,14.52,4.13,3.21.38,6.46.32,9.57-.51,2.96-.79,5.86-.88,8.45-2.75,1.63-1.18,2.84-2.81,3.92-4.49,1.05-1.65,2.28-3.24,3.45-4.84,2.11-2.89,4.8-5.23,6.9-8.1,1.97-2.69,3.37-5.8,4.03-9.07.27-1.32.42-2.67.65-4,.26-1.49,1.41-3.78-1.09-3.02-6.15,1.88-12.81.57-19.18,1.45-1.24.17-2.46.42-3.7.52-1.54.12-3.08,0-4.62,0-1.26,0-2.52.08-3.78.05-.83-.02-3.06-.71-3.63-.33-.74.48-1.32,2.58-1.7,3.38-.51,1.07-1.02,2.15-1.7,3.13Z" style="fill: #9e9e9f;"/>
        <path d="M201.23,503.13c1.96,11.84-4.88,16.13-7.27,19.49-1.75,2.48-3.51,4.95-5.26,7.43-1.49,2.1-3.1,4.57-5.03,6.3-1.6,1.43-3.64,2.7-5.72,3.3-.93.27-6.28,1-7.54,1.11-4.61.41-8.52.08-13.02-1.11-2.04-.54-4.03-1.31-5.89-2.31-1.57-.85-3.13-1.96-3.86-3.59-.66-1.45-.58-3.12-.35-4.69.57-3.81,2.03-7.53,4.52-10.47,2.49-2.93,6.06-5.02,9.89-5.38" style="fill: none; stroke: #2e3138; stroke-linecap: round; stroke-miterlimit: 10; stroke-width: 2.02px;"/>
        <path d="M159.51,513.09c3.51-3.92,1.74-4.16,5.48-7.86" style="fill: none; stroke: #2e3138; stroke-linecap: round; stroke-miterlimit: 10; stroke-width: 2.02px;"/>
        <path d="M147.44,528.17c-1.02,3.52-2.53,10.14,3.93,14.68,3,2.11,6.79,2.7,10.44,3,2.98.24,5.97.29,8.96.14,2.68-.13,5.38-.26,7.9-1.27,4.6-1.84,7.02-5.79,9.76-9.68,2.97-4.22,5.8-8.54,8.48-12.96,2.32-3.81,5.31-9.03,4.6-13.43" style="fill: none; stroke: #2e3138; stroke-linecap: round; stroke-miterlimit: 10; stroke-width: 2.02px;"/>
        <path d="M178.18,505.83c-3.06,2.99-4.24,5.18-6.02,9.08" style="fill: none; stroke: #2e3138; stroke-linecap: round; stroke-miterlimit: 10; stroke-width: 2.02px;"/>
        <path d="M170.95,508.83c2.76-.56,5.77.22,7.91,2.04" style="fill: none; stroke: #2e3138; stroke-linecap: round; stroke-miterlimit: 10; stroke-width: 2.02px;"/>
        <path d="M168.89,512.87c2.15-.16,4.33-.02,6.44.42,1.04.22,2.18.6,2.64,1.56" style="fill: none; stroke: #2e3138; stroke-linecap: round; stroke-miterlimit: 10; stroke-width: 2.02px;"/>
        <path d="M84.22,540.76c4.91,1.97,10.38,1.84,15.66,1.66,3.08-.1,6.35-.27,8.88-2.03,1.36-.94,2.39-2.27,3.4-3.58,2.54-3.28,5.07-6.56,7.61-9.84,1.1-1.42,2.19-2.86,3.01-4.46.71-1.4,1.35-2.95,2.25-4.24.34-.49.76-1.01.72-1.61-.01-.17-.08-.35-.22-.44-.25-.15-.56.04-.78.22-1.05.87-1.96,1.97-3.03,2.79-.93.71-1.82,1.27-2.64,2.17-2.57,2.84-4.99,5.8-7.27,8.87-1.31,1.76-2.65,3.64-4.64,4.55-1.67.77-3.58.75-5.41.73-3.67-.05-7.34-.11-11-.16-2.73-.04-5.51-.09-8.14-.84-1.44-.41-3.38-1.43-4.42-2.5-.72-.73-1.53-1.37-2.41-1.9-.05-.03-.11-.06-.17-.05-.06,0-.11.06-.15.12-.64.87-.35,2.12.21,3.05,2.01,3.31,4.93,6.03,8.55,7.49Z" style="fill: #4b4c4e;"/>
        <path d="M90.17,507.8c-.62.89-1.28,1.78-2.17,2.4-1,.71-2.21,1.03-3.32,1.55-3.12,1.46-5.34,4.43-6.55,7.66-1.21,3.22-1.53,6.71-1.73,10.15-.03.59-.05,1.23.27,1.73.31.48.88.73,1.41.95,4.67,1.91,9.51,3.53,14.52,4.13,3.21.39,6.46.32,9.57-.51,2.96-.79,5.86-.89,8.45-2.75,1.63-1.18,2.84-2.81,3.92-4.49,1.05-1.65,2.28-3.24,3.45-4.84,2.11-2.89,4.8-5.23,6.9-8.1,1.97-2.69,3.37-5.8,4.03-9.07.27-1.32.42-2.67.65-4,.26-1.49,1.41-3.78-1.09-3.02-6.15,1.88-12.81.57-19.18,1.45-1.24.17-2.46.42-3.7.52-1.54.12-3.08,0-4.62,0-1.26,0-2.52.08-3.78.05-.83-.02-3.06-.71-3.63-.33-.74.48-1.32,2.58-1.7,3.38-.51,1.07-1.02,2.15-1.7,3.13Z" style="fill: #9e9e9f;"/>
        <path d="M129.81,499.19c1.96,11.84-4.88,16.13-7.27,19.49-1.75,2.48-3.51,4.95-5.26,7.43-1.49,2.1-3.1,4.57-5.03,6.3-1.6,1.43-3.64,2.7-5.72,3.3-.93.27-6.28,1-7.54,1.11-4.61.41-8.52.08-13.02-1.11-2.04-.54-4.03-1.31-5.89-2.31-1.57-.85-3.13-1.96-3.86-3.59-.66-1.45-.58-3.12-.35-4.69.57-3.81,2.03-7.53,4.52-10.47,2.49-2.93,6.06-5.02,9.89-5.38" style="fill: none; stroke: #2e3138; stroke-linecap: round; stroke-miterlimit: 10; stroke-width: 2.02px;"/>
        <path d="M88.09,509.15c3.51-3.92,1.74-4.16,5.48-7.86" style="fill: none; stroke: #2e3138; stroke-linecap: round; stroke-miterlimit: 10; stroke-width: 2.02px;"/>
        <path d="M76.03,524.23c-1.02,3.52-2.53,10.14,3.93,14.68,3,2.11,6.79,2.7,10.44,3,2.98.24,5.97.29,8.96.14,2.68-.13,5.38-.26,7.9-1.27,4.6-1.84,7.02-5.79,9.76-9.68,2.97-4.22,5.8-8.54,8.48-12.96,2.32-3.81,5.31-9.03,4.6-13.43" style="fill: none; stroke: #2e3138; stroke-linecap: round; stroke-miterlimit: 10; stroke-width: 2.02px;"/>
        <path d="M106.77,501.89c-3.06,2.99-4.24,5.18-6.02,9.08" style="fill: none; stroke: #2e3138; stroke-linecap: round; stroke-miterlimit: 10; stroke-width: 2.02px;"/>
        <path d="M99.53,504.89c2.76-.56,5.77.22,7.91,2.04" style="fill: none; stroke: #2e3138; stroke-linecap: round; stroke-miterlimit: 10; stroke-width: 2.02px;"/>
        <path d="M97.47,508.94c2.15-.16,4.33-.02,6.44.42,1.04.22,2.18.6,2.64,1.56" style="fill: none; stroke: #2e3138; stroke-linecap: round; stroke-miterlimit: 10; stroke-width: 2.02px;"/>
        <path d="M251.49,164.69s44.59,15.99,46.18,47.94c1.39,27.9,5.97,54.56,4.19,82.96-.18,2.86-.41,5.79-1.58,8.4-.97,2.16-2.54,3.98-4.11,5.75-20.59,23.1-46.25,41.65-74.64,53.97" style="fill: none; stroke: #2e3138; stroke-linecap: round; stroke-miterlimit: 10; stroke-width: 2.02px;"/>
        <path d="M198.97,173.73s-17,3.45-22.42,8.2" style="fill: none; stroke: #2e3138; stroke-linecap: round; stroke-miterlimit: 10; stroke-width: 2.02px;"/>
        <path d="M173.88,200.88s-9.87,39.62-5.97,97.02" style="fill: none; stroke: #2e3138; stroke-linecap: round; stroke-miterlimit: 10; stroke-width: 2.02px;"/>
        <path d="M253.19,232.88c-.56,19.3-.39,38.63.51,57.92" style="fill: none; stroke: #2e3138; stroke-linecap: round; stroke-miterlimit: 10; stroke-width: 2.02px;"/>
        <path d="M176.87,181.62c-12.92,11.59-16.12,30.27-18.55,47.46-2.76,19.55-4.18,38.01-6.94,57.56" style="fill: none; stroke: #2e3138; stroke-linecap: round; stroke-miterlimit: 10; stroke-width: 2.02px;"/>
        <path d="M205.72,341.09c.55,3.32,2.79,6.07,4.94,8.66,3.81,4.56,7.62,9.11,11.43,13.67" style="fill: none; stroke: #2e3138; stroke-linecap: round; stroke-miterlimit: 10; stroke-width: 2.02px;"/>
        <path d="M170.91,295.52c-6.33,5.39-17.11,13.85-22.87,19.84,15.14,15.03,35.57,24.61,56.8,26.64" style="fill: none; stroke: #2e3138; stroke-linecap: round; stroke-miterlimit: 10; stroke-width: 2.02px;"/>
        <path d="M147.74,316.45c-21.47,12.26-47.14,29.25-51.03,34.19-23.78,30.21-7.76,115.53-4.18,143.05.32,2.48.65,4.95.97,7.43" style="fill: none; stroke: #2e3138; stroke-linecap: round; stroke-miterlimit: 10; stroke-width: 2.02px;"/>
        <path d="M158.14,354.82c-6.61,4.94-12.83,10.4-18.58,16.32-2,2.06-3.98,4.22-5.17,6.83-2.45,5.38-1.17,11.65.2,17.41,6.78,28.34,19.41,80.97,28.86,108.53" style="fill: none; stroke: #2e3138; stroke-linecap: round; stroke-miterlimit: 10; stroke-width: 2.02px;"/>
        <path d="M274.41,333.47c-3.05,12.86-15.12,31.06-27.49,39.51-14.73,10.06-43.45,22.78-58.18,27.5" style="fill: none; stroke: #2e3138; stroke-linecap: round; stroke-miterlimit: 10; stroke-width: 2.02px;"/>
        <path d="M188.74,400.47c-1.14,10.88,12.22,83.57,13.24,102.66" style="fill: none; stroke: #2e3138; stroke-linecap: round; stroke-miterlimit: 10; stroke-width: 2.02px;"/>
        <path d="M163.78,505.14c12.73,1.37,25.68.69,38.2-2.01" style="fill: none; stroke: #2e3138; stroke-linecap: round; stroke-miterlimit: 10; stroke-width: 2.02px;"/>
        <path d="M133.87,392.18c-2.98,4.56-6.62,5.25-9.95,9.56" style="fill: none; stroke: #2e3138; stroke-linecap: round; stroke-miterlimit: 10; stroke-width: 2.02px;"/>
        <path d="M124.46,401.53c1.41,19.28,5.61,88.14,4.76,97.52-3.01.31-13.01,1.78-15.1,2.06-6.35.86-12.85.89-19.22.17" style="fill: none; stroke: #2e3138; stroke-linecap: round; stroke-miterlimit: 10; stroke-width: 2.02px;"/>
        <path d="M279.15,179.03c10.78,0,20.45,2.32,30.49,2.6-.42,55.79-7.57,112.94-10.17,167.47-11.2-2.88-26.98-4.55-29.24-4.53" style="fill: none; stroke: #000; stroke-linecap: round; stroke-linejoin: round; stroke-width: 2.02px;"/>
        <polyline points="299.47 349.09 247.14 408.79 197.87 397.89" style="fill: none; stroke: #000; stroke-linecap: round; stroke-linejoin: round; stroke-width: 2.02px;"/>
        <path d="M272.38,175.85c14.01.36,28.01,1.24,41.96,2.65-1.88,1.59-4.06,2.83-6.39,3.63" style="fill: none; stroke: #000; stroke-linecap: round; stroke-linejoin: round; stroke-width: 2.02px;"/>
        <polyline points="314.34 178.5 306.41 349.09 247.14 420.81 247.14 408.79" style="fill: none; stroke: #000; stroke-linecap: round; stroke-linejoin: round; stroke-width: 2.02px;"/>
        <line x1="247.14" y1="420.81" x2="188.92" y2="406.95" style="fill: none; stroke: #000; stroke-linecap: round; stroke-linejoin: round; stroke-width: 2.02px;"/>
        <path d="M128.11,399.06c2.38.47,4.76.94,7.13,1.42" style="fill: none; stroke: #000; stroke-linecap: round; stroke-linejoin: round; stroke-width: 2.02px;"/>
        <polyline points="235.74 418.85 235.74 508.39 245.85 511.12 245.6 420.45" style="fill: none; stroke: #000; stroke-linecap: round; stroke-linejoin: round; stroke-width: 2.02px;"/>
        <polyline points="245.85 511.12 252.2 505.09 252.2 416.41" style="fill: none; stroke: #000; stroke-linecap: round; stroke-linejoin: round; stroke-width: 2.02px;"/>
        <polyline points="289.44 369.63 289.44 441.58 299.56 444.31 299.3 357.68" style="fill: none; stroke: #000; stroke-linecap: round; stroke-linejoin: round; stroke-width: 2.02px;"/>
        <polyline points="299.56 444.31 305.9 438.28 305.9 349.6" style="fill: none; stroke: #000; stroke-linecap: round; stroke-linejoin: round; stroke-width: 2.02px;"/>
        <polyline points="190.46 407.46 190.96 422.62 201.07 425.36 200.82 409.98" style="fill: none; stroke: #000; stroke-linecap: round; stroke-linejoin: round; stroke-width: 2.02px;"/>
        <polyline points="201.07 425.36 207.41 419.32 207.41 412.25" style="fill: none; stroke: #000; stroke-linecap: round; stroke-linejoin: round; stroke-width: 2.02px;"/>
        <path d="M183.37,374.93c-2.45,4.43-5.63,8.45-9.36,11.87-13.7-11.33-29.56-19.67-45.3-27.94-5.28-2.77-10.56-5.54-15.83-8.31-6.12-3.21-12.44-6.59-16.6-12.11,22.31.28,44.65-6.34,63.21-18.72,5.46-3.64,8.09-8,12.27-13.06,17.57,1.78,34.73,7.49,49.86,16.59.31.19.74.38.95.68-3.34,3.85-7.07,7.36-11.13,10.44-2.37,1.8-5.01,3.67-5.88,6.51" style="fill: #fff; stroke: #2e3138; stroke-linecap: round; stroke-miterlimit: 10; stroke-width: 2.02px;"/>
        <path d="M261.12,286.64c-15.17,16.96-39.7,38.07-55.66,54.29" style="fill: none; stroke: #2e3138; stroke-linecap: round; stroke-miterlimit: 10; stroke-width: 2.02px;"/>
        <g>
          <path d="M196.73,339.98c-2.56-.76-5.05-2.04-7.72-2.01-1,.01-2.05.23-2.8.89-.88.78-1.21,2.06-1.03,3.22.18,1.16.8,2.22,1.56,3.11,1.57,1.85,3.76,3.17,6.14,3.66,1.56.33,3.56.61,3.97,2.15-5.93.3-11.88.09-17.77-.62-1.38-.17-3.07-.22-3.83.94-.68,1.05-.14,2.43.37,3.58.11.24.22.5.18.76-.08.51-.68.77-1.19.75s-1.01-.21-1.53-.2c-1.06.04-1.91,1-2.11,2.04-.2,1.04.12,2.11.56,3.07.44.96,1,1.86,1.67,2.68.32.39.68.79.79,1.29.09.41,0,.84-.02,1.26-.07,1.52.93,3.04,2.36,3.57.67.25,1.61.62,1.4,1.3-.05.18-.19.32-.26.49-.32.75.6,1.41,1.37,1.68,4.75,1.67,9.91,1.96,14.92,1.44,5.33-.56,11.34-1.65,16.05-4.21,2.6-1.41,5.19-2.81,7.66-4.44.75-.5,1.51-1.04,2.03-1.77,2.69-3.8-4.38-10.15-6.66-12.68-1.58-1.76-3.18-3.51-4.62-5.39-1.15-1.5-2-3.91-3.42-5.12-.89-.76-2.05-.57-3.15-.62-1.67-.07-3.32-.34-4.92-.81Z" style="fill: #fff;"/>
          <path d="M204.99,341.09c-3.94.08-7.89-.62-11.55-2.06-1.27-.5-2.53-1.1-3.88-1.32-1.35-.22-2.85-.02-3.86.91-1.26,1.16-1.41,3.19-.7,4.75.71,1.56,2.11,2.7,3.59,3.54,2.8,1.6,6.07,2.36,9.28,2.15" style="fill: none; stroke: #2e3138; stroke-linecap: round; stroke-miterlimit: 10; stroke-width: 2.02px;"/>
          <path d="M197.87,351.06c-5.18.24-11.86,0-17.9-.39-1.64-.11-3.34.17-4.79.96-.47.25-.93.63-1.02,1.15-.06.37.07.74.24,1.07,1.59,3.23,5.68,4.23,9.26,4.51,3.84.3,7.7.18,11.52-.35" style="fill: none; stroke: #2e3138; stroke-linecap: round; stroke-miterlimit: 10; stroke-width: 2.02px;"/>
          <path d="M187.05,358.51c-3.78-.47-8.06-.05-11.65-1.33-1.3-.47-2.72-1.14-4.01-.62-.6.24-1.09.74-1.32,1.34-.33.85-.13,1.84.34,2.63,1.12,1.89,3.11,2.75,5.14,3.31,6.85,1.89,14.15,2.1,21.09.61" style="fill: none; stroke: #2e3138; stroke-linecap: round; stroke-miterlimit: 10; stroke-width: 2.02px;"/>
          <path d="M188.96,365.43c-2.69-.13-5.38-.22-8.05-.49-2.27-.23-4.66-1.41-6.69.07-.23.17-.44.36-.58.6-.21.36-.23.8-.16,1.2.18,1.09.94,2.01,1.86,2.61s2,.91,3.07,1.15c5.6,1.27,11.57.9,16.97-1.04" style="fill: none; stroke: #2e3138; stroke-linecap: round; stroke-miterlimit: 10; stroke-width: 2.02px;"/>
          <path d="M191.9,370.55c-2.2.76-4.39.6-6.07.64-2.05.06-4.14-.15-6.15-.55-.95-.19-2.2-.29-2.63.58-.33.68-.1,1.8.62,2.04,18.29,6.12,34.13-4.37,36.32-5.45,2.37-1.18,4.69-2.45,6.98-3.78" style="fill: none; stroke: #2e3138; stroke-linecap: round; stroke-miterlimit: 10; stroke-width: 2.02px;"/>
          <path d="M205.33,341.08c1.52,4.52,5.16,7.89,8.07,11.66,2.8,3.62,5.47,7.18,8.7,10.68" style="fill: none; stroke: #2e3138; stroke-linecap: round; stroke-miterlimit: 10; stroke-width: 2.02px;"/>
        </g>
        <path d="M139.29,318.45c-.16.42-.32.88-.18,1.3.14.41.52.68.9.9,2.41,1.41,5.21,1.96,7.95,2.48,1.43.27,2.91.55,4.34.27,1.25-.25,2.38-.9,3.44-1.59,5.7-3.72,10.26-8.91,14.49-14.24,1.08-1.36,2.19-2.84,2.36-4.57.36-3.54-3.15-6.15-6.31-7.79-3.68-1.92-7.48-3.61-11.36-5.07-5.15-1.94-4.89-.08-6.3,4.57-2.47,8.16-6.3,15.81-9.34,23.76Z" style="fill: #1f89bd;"/>
        <path d="M132.43,331.74c-.43,2.7-2.53,4.83-4.78,6.37-1.62,1.1-3.51,2.03-5.46,1.86-.82-.07-1.74-.46-1.94-1.25-.12-.49.06-1,.28-1.45.87-1.73,2.47-3.1,2.95-4.98.43-1.65,2.54-3.57,3.75-4.77,1.35-1.34,2.82-2.62,4.59-3.31,2.72-1.06,5.77-.57,8.65-.06" style="fill: #fff; stroke: #2e3138; stroke-linecap: round; stroke-miterlimit: 10; stroke-width: 2.02px;"/>
        <path d="M150.46,289.08c-4.16,10.3-8.05,20.71-11.68,31.21,4.25.9,8.41,2.22,12.4,3.95" style="fill: none; stroke: #2e3138; stroke-linecap: round; stroke-miterlimit: 10; stroke-width: 2.02px;"/>
        <path d="M151.49,290.31c2.83-.13,5.7.46,8.24,1.71" style="fill: none; stroke: #2e3138; stroke-linecap: round; stroke-miterlimit: 10; stroke-width: 2.02px;"/>
        <path d="M155.22,287.73c2.38.23,4.73.71,7.02,1.42" style="fill: none; stroke: #2e3138; stroke-linecap: round; stroke-miterlimit: 10; stroke-width: 2.02px;"/>
        <path d="M140.56,321.71c-.12.71-.55,1.36-1.15,1.74" style="fill: none; stroke: #2e3138; stroke-linecap: round; stroke-miterlimit: 10; stroke-width: 2.02px;"/>
        <path d="M167.97,297.98c-.69,3.76-1.38,7.51-2.06,11.27-.35,1.9-.7,3.8-.91,5.72" style="fill: none; stroke: #2e3138; stroke-linecap: round; stroke-miterlimit: 10; stroke-width: 2.02px;"/>
        <path d="M264.78,291.94c5.68-.75,11.6.53,16.46,3.55" style="fill: none; stroke: #2e3138; stroke-linecap: round; stroke-miterlimit: 10; stroke-width: 2.02px;"/>
        <path d="M272.89,286.4c6.63-.05,13.26,1.74,18.95,5.13" style="fill: none; stroke: #2e3138; stroke-linecap: round; stroke-miterlimit: 10; stroke-width: 2.02px;"/>
        <path d="M219.28,251.25c.08.62.19,1.27.58,1.76.52.64,1.41.83,2.23.95,3.33.49,6.71.51,10.07.53,2.32.01,4.65.03,6.97.04.79,0,1.67-.02,2.24-.56.58-.54.66-1.42.69-2.21.35-7.42.35-14.85,0-22.27-6.5-1-13.1-1.33-19.66-.99-2.06.11-2.72.38-2.94,2.32-.26,2.25-.55,4.5-.69,6.76-.27,4.56-.1,9.15.5,13.67Z" style="fill: #ffad0f;"/>
        <path d="M242.44,229.53c.14,7.94.17,15.88.07,23.82,0,.36-.02.74-.25,1.02-.3.36-.83.39-1.3.39l-19.52-.02c-1.57,0-2.84-1.29-2.81-2.86l.36-22.93c7.82-.12,15.62.4,23.43.58Z" style="fill: none; stroke: #2e3138; stroke-linecap: round; stroke-miterlimit: 10; stroke-width: 2.02px;"/>
        <path d="M219.3,233.95c7.66.79,15.37,1.05,23.06.78" style="fill: none; stroke: #2e3138; stroke-linecap: round; stroke-miterlimit: 10; stroke-width: 2.02px;"/>
        <g>
          <path d="M142.82,349.54c3.64,4.58,8.49,8.19,13.93,10.36,1,.4,2.31.69,3.04-.11.96-1.04-.04-2.65-1.01-3.65-1.94-2.02-3.92-4.06-5.25-6.52-1.34-2.46-1.98-5.45-1.09-8.12.16-.49.4-1,.85-1.27.83-.5,1.87.05,2.64.62,3.65,2.7,6.75,6.15,9.05,10.07" style="fill: none; stroke: #2e3138; stroke-linecap: round; stroke-linejoin: round; stroke-width: 2.02px;"/>
          <path d="M146.97,360.43c7.9-5.49,15.24-11.78,21.89-18.74-.5,1.28-1.75,2.09-2.92,2.81" style="fill: none; stroke: #2e3138; stroke-linecap: round; stroke-linejoin: round; stroke-width: 2.02px;"/>
          <path d="M141.51,356.83c7.88-6.02,15.76-12.04,23.64-18.06" style="fill: none; stroke: #2e3138; stroke-linecap: round; stroke-linejoin: round; stroke-width: 2.02px;"/>
        </g>
        <path d="M181.99,337.1c-6.67-2.51-13.21-5.37-19.58-8.56" style="fill: none; stroke: #2e3138; stroke-linecap: round; stroke-linejoin: round; stroke-width: 2.02px;"/>
        <path d="M198.93,332.82c-7.08-2.23-26.51-9.68-28.31-11.13" style="fill: none; stroke: #2e3138; stroke-linecap: round; stroke-linejoin: round; stroke-width: 2.02px;"/>
        <path d="M207.47,326.97c-11.1-3.43-21.8-8.18-32.91-11.93" style="fill: none; stroke: #2e3138; stroke-linecap: round; stroke-linejoin: round; stroke-width: 2.02px;"/>
      </g>
    </g>
  </g>
</svg>