<?xml version="1.0" encoding="UTF-8"?>
<svg id="_圖層_2" data-name="圖層 2" xmlns="http://www.w3.org/2000/svg" viewBox="0 0 413.76 252.24">
  <g id="_圖層_1-2" data-name="圖層 1">
    <g>
      <path d="M400.56,183.97c0,2.71-14.06,4.91-31.41,4.91s-31.41-2.2-31.41-4.91,14.06-4.91,31.41-4.91,31.41,2.2,31.41,4.91Z" style="fill: #babbbd;"/>
      <path d="M345.36,106.99s1.57-28.98,30.04-27.55c28.47,1.44,29.69,27.66,29.69,27.66" style="fill: #fff; stroke: #2e3138; stroke-linecap: round; stroke-linejoin: round; stroke-width: 2.52px;"/>
      <polyline points="344.82 111.86 352.75 181.99 394.64 183.96 405.12 112.91" style="fill: #fff; stroke: #2e3138; stroke-linecap: round; stroke-linejoin: round; stroke-width: 2.52px;"/>
      <path d="M338.04,105.84c-.47.98-.24,4.84-.24,4.84.88.65,68.49,2.1,73.43,1.85,0-1.47,0-2.93,0-4.4-18.84.08-62.99-1.55-73.19-2.29Z" style="fill: #ff6d04; stroke: #2e3138; stroke-linecap: round; stroke-linejoin: round; stroke-width: 2.52px;"/>
      <path d="M372.87,79.4l3.11-14.28s.9-3.72,7.47-4.15c8.24-.54,29.05-2.3,29.05-2.3l-.09,4.13-29.31,2.57s-2.79.11-3.92,5.73c-1.4,6.93-1.44,8.52-1.44,8.52" style="fill: #fff; stroke: #2e3138; stroke-linecap: round; stroke-linejoin: round; stroke-width: 2.52px;"/>
      <path d="M358.77,186.75c0,2.71-14.06,4.91-31.41,4.91s-31.41-2.2-31.41-4.91,14.06-4.91,31.41-4.91,31.41,2.2,31.41,4.91Z" style="fill: #babbbd;"/>
      <path d="M302.51,138.58c1.23-2.18,2.93-4.05,4.61-5.9,2.06-2.28,4.2-4.61,6.99-5.9,4.13-1.91,9-1.23,13.31.22,1.7.57,3.37,1.26,4.98,2.05,1.01.5,2.01,1.04,2.82,1.81.78.74,1.37,1.66,1.95,2.57,2.54,3.99,5.16,8.26,5.22,12.99-3.87.29-7.75.2-11.63.11-5.17-.12-10.34-.24-15.52-.37-2.59-.06-5.17-.12-7.76-.18-1.43-.03-5.34.6-6.4-.5-1.37-1.43.65-5.55,1.42-6.9Z" style="fill: #ffad0f;"/>
      <path d="M311.2,118.19c.79-1.62,1.61-3.24,2.79-4.6,1.18-1.36,2.67-2.42,4.26-3.27,4.07-2.2,8.83-3.11,13.41-2.5,1.2.16,2.4.43,3.48.98.65.33,1.24.76,1.84,1.18l3.07,2.2c-5.62,1.11-11.63,2.43-15.57,6.59-1.46,1.54-2.55,3.4-3.57,5.26-.15.27-.3.55-.56.71-.26.16-.57.18-.88.2-1.67.1-3.32.37-4.94.8-.93.25-3.97,1.97-4.75,1.72-1.06-.35-.59-3.47-.43-4.28.34-1.74,1.08-3.38,1.85-4.96Z" style="fill: #ff6d04;"/>
      <path d="M333.74,114.2c-1.71.68-3.26,1.72-4.78,2.75-3.17,2.13-6.56,4.56-7.56,8.25,3.82,0,7.45,1.58,10.94,3.13,1.02.45,2.06.92,2.87,1.69.77.73,1.28,1.7,1.78,2.64.76,1.44,1.52,2.88,2.27,4.32.61,1.16,1.22,2.33,1.52,3.61.43,1.86.16,3.91,1,5.62,2.87.06,5.74.13,8.61.19.99.02,2.01.04,2.92-.34,1.58-.66,2.45-2.33,3.19-3.87,1.56-3.23,3.14-6.56,3.4-10.13.21-2.9-.48-5.85-1.97-8.35-4.57-7.7-15.48-12.99-24.19-9.51Z" style="fill: #fff;"/>
      <path d="M332.74,146.34c3.6.08,7.2.2,10.79.02,5.19-.25,10.43-1.1,15.53-.1-.75,6.75-1.51,13.5-2.26,20.25-.24,2.12-.47,4.25-.83,6.36-.77,4.55-2.11,8.99-3.43,13.42-.04.13-.08.27-.19.37-.14.13-.36.14-.55.14-13.83-.14-27.67-.27-41.5-.41-.62,0-1.27-.02-1.79-.36-.54-.35-.83-.98-1.06-1.59-.95-2.44-1.55-5-2.14-7.54-1.36-5.84-2.72-11.67-4.08-17.51-.58-2.51-1.17-5.03-1.35-7.59-.11-1.57-.98-4.81.83-5.4,2.13-.7,5.53-.13,7.77-.16,5.19-.07,10.38-.08,15.58-.03,2.9.03,5.8.08,8.7.15Z" style="fill: #1f89bd;"/>
      <path d="M308.63,186.8l42.41.14c.64,0,1.32,0,1.89-.3.64-.33,5.98-35.84,7.32-40.76-14.18.32-61.05.17-61.05.17-1.32,1.76,8.54,40.74,9.42,40.74Z" style="fill: none; stroke: #2e3138; stroke-linecap: round; stroke-linejoin: round; stroke-width: 2.52px;"/>
      <path d="M301.41,144.46s2.45-19.79,19.68-18.95c19.64.95,20.05,20.38,20.05,20.38" style="fill: none; stroke: #2e3138; stroke-linecap: round; stroke-linejoin: round; stroke-width: 2.52px;"/>
      <path d="M320.14,125.05s6.41-13.65,20.18-11.93c13.77,1.72,17.18,7.31,19.28,14.69,2.4,8.42-4.69,18.07-4.69,18.07" style="fill: none; stroke: #2e3138; stroke-linecap: round; stroke-linejoin: round; stroke-width: 2.52px;"/>
      <path d="M309.18,128.71s-2.09-16.61,14.02-20.54c8.06-1.97,13.8.95,17.53,4.37" style="fill: none; stroke: #2e3138; stroke-linecap: round; stroke-linejoin: round; stroke-width: 2.52px;"/>
      <line x1="308.29" y1="146.08" x2="317.15" y2="186.83" style="fill: none; stroke: #2e3138; stroke-linecap: round; stroke-linejoin: round; stroke-width: 2.52px;"/>
      <line x1="320.59" y1="146.09" x2="325.51" y2="186.83" style="fill: none; stroke: #2e3138; stroke-linecap: round; stroke-linejoin: round; stroke-width: 2.52px;"/>
      <line x1="333.57" y1="146.12" x2="334.18" y2="186.91" style="fill: none; stroke: #2e3138; stroke-linecap: round; stroke-linejoin: round; stroke-width: 2.52px;"/>
      <line x1="347.01" y1="146.09" x2="344.06" y2="186.94" style="fill: none; stroke: #2e3138; stroke-linecap: round; stroke-linejoin: round; stroke-width: 2.52px;"/>
      <path d="M37.44,160.16c6.86.87,13.73,1.75,20.59,2.62,4.46.57,9.73,1.75,11.33,5.95,1.52,4.01-1.31,8.34-1.33,12.64-.03,5.59,4.82,10.17,10.07,12.09s10.98,1.88,16.52,2.65c9.86,1.37,19.15,5.28,28.71,8.05,9.56,2.77,19.96,4.37,29.35,1.09,1.56-.54,3.11-1.24,4.34-2.34,4.66-4.17,2.66-12.38-2.14-16.38-4.8-4.01-11.28-5.14-17.31-6.77-9.19-2.49-17.97-6.47-25.9-11.73-5.83-3.87-11.23-8.45-17.43-11.7-9.97-5.24-21.43-6.76-32.63-7.94-9.98-1.05-24.13-3.77-33.69.46-12.28,5.43,3.67,10.58,9.52,11.32Z" style="fill: #babbbd;"/>
      <path d="M350.14,38.48c-2.41,2.47-4.91,4.94-6.8,7.79-8.87-8.87-17.73-17.73-26.6-26.6-2.32-2.32-4.64-4.64-6.97-6.97-.7-.7-3.06-2.18-2.31-2.88,2.77-2.57,7.83-7.12,9.63-8.57,12.23,11.72,22.43,23.82,34.66,35.54-.53.56-1.07,1.12-1.61,1.68Z" style="fill: #ff6d04; stroke: #2e3138; stroke-linecap: round; stroke-linejoin: round; stroke-width: 2.52px;"/>
      <path d="M313.67,45.08c-2.47-2.41-4.94-4.91-7.79-6.8,8.87-8.87,17.73-17.73,26.6-26.6,2.32-2.32,4.64-4.64,6.97-6.97.7-.7,2.18-3.06,2.88-2.31,2.57,2.77,7.12,7.83,8.57,9.63-11.72,12.23-23.82,22.43-35.54,34.66-.56-.53-1.12-1.07-1.68-1.61Z" style="fill: #ff6d04; stroke: #2e3138; stroke-linecap: round; stroke-linejoin: round; stroke-width: 2.52px;"/>
      <path d="M82.27,92.33c3.45.49,6.95,1.02,10.14,2.41,8.3,3.62,13.22,12.45,15.22,21.27,2.1,9.25,1.56,19.29-2.69,27.77-4.25,8.48-12.48,15.15-21.88,16.4-5.54.73-11.14-.37-16.61-1.48-11.34-2.3-22.66-4.66-33.98-7.09-3.82-.82-7.72-1.67-11.08-3.68-4.29-2.56-7.21-6.74-9.23-11.23-2.05-4.57-3.83-9.82-4.19-14.82-2.05,1.09-4.38,1.65-6.71,1.62-.08-2.01,2.2-3.68,1.77-5.64-.21-.95-1.02-1.96-.47-2.76.14-.21.36-.35.56-.52,1.06-.91,1.25-2.67.41-3.79-.37-.49-.94-1.08-.63-1.62.13-.21.37-.33.57-.47.89-.61,1.13-1.99.51-2.87.18.26,1.26.51,1.59.77.4.31.68.77,1.1,1.1,1.11.88,2.5,1.53,3.81,2.04-1.98-.78,8.5-13.2,9.63-14.11,3.81-3.07,9.65-6.4,14.51-7.38,6.94-1.4,15.76.58,22.76,1.2,8.32.74,16.62,1.7,24.89,2.86Z" style="fill: #ff6d04; stroke: #2e3138; stroke-linecap: round; stroke-linejoin: round; stroke-width: 2.52px;"/>
      <path d="M64.93,123.57c-.85,20.03,13.17,31.82,21.41,30.85,4.6-.54,9.56-5.13,12.31-8.98,5.6-7.83,7.21-17.99,5.61-27.43-1.03-6.05-3.46-12.11-8.14-16.18-3.98-3.46-8.74-5.71-13.77-4.42-15.68,4.02-17.38,25.15-17.42,26.15Z" style="fill: #ffa25e; stroke: #2e3138; stroke-linecap: round; stroke-linejoin: round; stroke-width: 2.52px;"/>
      <path d="M85.75,109.32c1.41-.03,2.73,1.21,2.78,2.62.06,1.41-1.15,2.75-2.56,2.84-1.41.09-2.77-1.09-2.89-2.5-.12-1.41,1.03-2.8,2.43-2.95" style="fill: #fff;"/>
      <path d="M97.04,112.05c.76-.01,1.48.66,1.51,1.42s-.62,1.49-1.39,1.54c-.76.05-1.5-.59-1.57-1.35-.06-.76.56-1.52,1.32-1.6" style="fill: #fff;"/>
      <path d="M73.55,122.41c-1.62.59-2.58,2.56-2.04,4.19.53,1.63,2.47,2.66,4.12,2.18,1.65-.48,2.74-2.38,2.32-4.05-.42-1.67-2.29-2.82-3.97-2.45" style="fill: #fff;"/>
      <path d="M93.06,121.81c-.65.46-1.05,1.27-.96,2.06s.7,1.51,1.47,1.67c1.27.26,2.49-1.15,2.21-2.41-.28-1.27-1.77-2.05-3.03-1.74" style="fill: #fff;"/>
      <circle cx="85.62" cy="131.48" r="1.83" style="fill: #fff;"/>
      <path d="M93.6,105.83c0,.76-.61,1.37-1.37,1.37s-1.37-.61-1.37-1.37.61-1.37,1.37-1.37,1.37.61,1.37,1.37Z" style="fill: #fff;"/>
      <circle cx="80.62" cy="105.51" r="1.06" style="fill: #fff;"/>
      <path d="M93.95,141.65c0,1.29-1.04,2.33-2.33,2.33s-2.33-1.04-2.33-2.33,1.04-2.33,2.33-2.33,2.33,1.04,2.33,2.33Z" style="fill: #fff;"/>
      <circle cx="97.19" cy="131.89" r="1.37" style="fill: #fff;"/>
      <circle cx="78.26" cy="144.44" r="2.79" style="fill: #fff;"/>
      <path d="M79.1,116.6c0,1-.81,1.82-1.82,1.82s-1.82-.81-1.82-1.82.81-1.82,1.82-1.82,1.82.81,1.82,1.82Z" style="fill: #fff;"/>
      <path d="M75.78,136.57c0,.91-.74,1.65-1.65,1.65s-1.65-.74-1.65-1.65.74-1.65,1.65-1.65,1.65.74,1.65,1.65Z" style="fill: #fff;"/>
      <path d="M86.84,122.83c0,.34-.27.61-.61.61s-.61-.27-.61-.61.27-.61.61-.61.61.27.61.61Z" style="fill: #fff;"/>
      <path d="M7.15,113.1c.58.59,1.29,1.07,2.05,1.39" style="fill: none; stroke: #2e3138; stroke-linecap: round; stroke-linejoin: round; stroke-width: 2.52px;"/>
      <path d="M5.91,117.86c.62-.12,1.25-.25,1.87-.37" style="fill: none; stroke: #2e3138; stroke-linecap: round; stroke-linejoin: round; stroke-width: 2.52px;"/>
      <path d="M98.55,178.43c.37,3.7-1,7.63.48,11.03.6,1.37,1.62,2.52,2.67,3.58,1.61,1.63,3.36,3.15,5.31,4.35,3.49,2.14,7.52,3.19,11.55,3.89,10.54,1.81,21.8,1.21,31.31-3.68,2.89-1.48,6.33-4.09,7.95-6.98.25-.44.45-.91.53-1.4.1-.58.03-1.17-.02-1.76-.2-2.52-.23-5.49.15-7.98" style="fill: #ff6d04; stroke: #2e3138; stroke-linecap: round; stroke-linejoin: round; stroke-width: 2.52px;"/>
      <ellipse cx="128.62" cy="178.93" rx="29.84" ry="17.71" style="fill: #ffa25e; stroke: #2e3138; stroke-linecap: round; stroke-linejoin: round; stroke-width: 2.52px;"/>
      <ellipse cx="126.23" cy="168.9" rx="2.91" ry="1.88" style="fill: #fff;"/>
      <path d="M116.38,174.85c0,1.04-1.3,1.88-2.91,1.88s-2.91-.84-2.91-1.88,1.3-1.88,2.91-1.88,2.91.84,2.91,1.88Z" style="fill: #fff;"/>
      <ellipse cx="122.02" cy="186.75" rx="2.91" ry="1.88" style="fill: #fff;"/>
      <ellipse cx="128.62" cy="178.93" rx="2.91" ry="1.88" style="fill: #fff;"/>
      <path d="M139.55,172.79c0,.52-.65.94-1.46.94s-1.46-.42-1.46-.94.65-.94,1.46-.94,1.46.42,1.46.94Z" style="fill: #fff;"/>
      <path d="M123.48,178.93c0,.52-.65.94-1.46.94s-1.46-.42-1.46-.94.65-.94,1.46-.94,1.46.42,1.46.94Z" style="fill: #fff;"/>
      <path d="M107.53,179.87c0,.52-.65.94-1.46.94s-1.46-.42-1.46-.94.65-.94,1.46-.94,1.46.42,1.46.94Z" style="fill: #fff;"/>
      <ellipse cx="119.34" cy="166.55" rx=".73" ry=".47" style="fill: #fff;"/>
      <path d="M137.37,167.49c0,.26-.33.47-.73.47s-.73-.21-.73-.47.33-.47.73-.47.73.21.73.47Z" style="fill: #fff;"/>
      <path d="M141.9,179.87c0,.26-.33.47-.73.47s-.73-.21-.73-.47.33-.47.73-.47.73.21.73.47Z" style="fill: #fff;"/>
      <path d="M116.38,181.76c0,.26-.33.47-.73.47s-.73-.21-.73-.47.33-.47.73-.47.73.21.73.47Z" style="fill: #fff;"/>
      <ellipse cx="148.72" cy="179.56" rx="2.91" ry="1.88" style="fill: #fff;"/>
      <path d="M142.61,186.88c0,1.61-2.02,2.91-4.52,2.91s-4.52-1.3-4.52-2.91,2.02-2.91,4.52-2.91,4.52,1.3,4.52,2.91Z" style="fill: #fff;"/>
      <path d="M66.4,175.77c1.51,3.39,1.45,7.56,3.93,10.32,1,1.11,2.33,1.88,3.66,2.56,2.04,1.04,4.18,1.93,6.41,2.46,3.98.93,8.15.66,12.19.06,10.57-1.59,21.07-5.71,28.56-13.34,2.27-2.31,4.72-5.88,5.35-9.13.1-.49.14-1,.07-1.5-.09-.58-.34-1.12-.57-1.66-.98-2.32-1.95-5.14-2.37-7.62" style="fill: #ff6d04; stroke: #2e3138; stroke-linecap: round; stroke-linejoin: round; stroke-width: 2.52px;"/>
      <ellipse cx="95.1" cy="166.79" rx="29.84" ry="17.71" transform="translate(-47.63 38.38) rotate(-18.33)" style="fill: #ffa25e; stroke: #2e3138; stroke-linecap: round; stroke-linejoin: round; stroke-width: 2.52px;"/>
      <path d="M92.45,157.1c.33.99-.65,2.19-2.17,2.7s-3.03.12-3.36-.87.65-2.19,2.17-2.7c1.53-.51,3.03-.12,3.36.87Z" style="fill: #fff;"/>
      <path d="M82.2,166.77c.33.99-.65,2.19-2.17,2.7-1.53.51-3.03.12-3.36-.87s.65-2.19,2.17-2.7c1.53-.51,3.03-.12,3.36.87Z" style="fill: #fff;"/>
      <path d="M94.06,175.38c.33.99-.65,2.19-2.17,2.7s-3.03.12-3.36-.87.65-2.19,2.17-2.7c1.53-.51,3.03-.12,3.36.87Z" style="fill: #fff;"/>
      <path d="M97.87,165.88c.33.99-.65,2.19-2.17,2.7-1.53.51-3.03.12-3.36-.87-.33-.99.65-2.19,2.17-2.7,1.53-.51,3.03-.12,3.36.87Z" style="fill: #fff;"/>
      <path d="M103.55,157.53c.16.49-.32,1.1-1.09,1.35-.76.25-1.51.06-1.68-.43-.16-.49.32-1.1,1.09-1.35.76-.25,1.51-.06,1.68.43Z" style="fill: #fff;"/>
      <path d="M90.22,168.41c.16.49-.32,1.1-1.09,1.35-.76.25-1.51.06-1.68-.43-.16-.49.32-1.1,1.09-1.35.76-.25,1.51-.06,1.68.43Z" style="fill: #fff;"/>
      <path d="M75.38,174.32c.16.49-.32,1.1-1.09,1.35s-1.51.06-1.68-.43c-.16-.49.32-1.1,1.09-1.35.76-.25,1.51-.06,1.68.43Z" style="fill: #fff;"/>
      <path d="M83.09,157.73c.08.25-.16.55-.54.68s-.76.03-.84-.22.16-.55.54-.67.76-.03.84.22Z" style="fill: #fff;"/>
      <path d="M99.81,153.18c.08.25-.16.55-.54.67-.38.13-.76.03-.84-.22s.16-.55.54-.67c.38-.13.76-.03.84.22Z" style="fill: #fff;"/>
      <path d="M108,163.51c.08.25-.16.55-.54.68-.38.13-.76.03-.84-.22-.08-.25.16-.55.54-.67.38-.13.76-.03.84.22Z" style="fill: #fff;"/>
      <path d="M84.38,173.33c.08.25-.16.55-.54.67-.38.13-.76.03-.84-.22-.08-.25.16-.55.54-.67.38-.13.76-.03.84.22Z" style="fill: #fff;"/>
      <path d="M117.15,160.15c.33.99-.65,2.19-2.17,2.7-1.53.51-3.03.12-3.36-.87-.33-.99.65-2.19,2.17-2.7,1.53-.51,3.03-.12,3.36.87Z" style="fill: #fff;"/>
      <path d="M110.88,169.94c.51,1.53-1,3.4-3.37,4.19-2.37.78-4.7.18-5.2-1.34-.51-1.53,1-3.4,3.37-4.19s4.7-.18,5.2,1.34Z" style="fill: #fff;"/>
      <ellipse cx="222.87" cy="189.35" rx="54.9" ry="8.54" style="fill: #babbbd;"/>
      <path d="M233.02,55.89c.59.04,1.24.11,1.64.55.31.33.4.81.45,1.26.12,1.11.08,2.24-.12,3.34-.04.23-.1.48-.29.63-.17.13-.4.14-.62.15-6.21.13-12.43.25-18.64.38-.26,0,.51-5,.66-5.43.68-1.89,2.55-1.26,4.39-1.27,4.18-.02,8.36.11,12.53.4Z" style="fill: #fff;"/>
      <path d="M235.41,62.11c-.59,1.46-.61,3.08-.64,4.65-.15,6.86-.75,13.71-1.79,20.49-5.51-.05-11.01-.11-16.52-.16-.46,0-.97-.03-1.3-.36-.24-.25-.32-.61-.38-.95-.98-5.81.04-11.68.57-17.48.15-1.6-.45-5.66,1.11-6.45.97-.49,3.37-.04,4.48-.04,1.48,0,2.95.01,4.43.03.97.01,9.87.71,10.05.27Z" style="fill: #fff;"/>
      <path d="M216.11,99.46c3.13-1.34,6.7-.87,10.1-1.11,1.87-.13,3.82-.48,5.57.18,3.04,1.15,4.26,4.75,6.66,6.94,3.75,3.43,9.66,2.82,14.44,1.1-.75.22-4.96-5.97-5.59-6.72-2.04-2.43-4.88-4.47-7.23-6.6-2.01-1.82-4.1-3.68-6.65-4.58-1.89-.67-3.93-.77-5.94-.87-3.78-.18-7.56-.36-11.34-.55-.61-.03-1.23-.06-1.82.12-.55.17-1.03.51-1.49.86-8.74,6.49-15.64,15.09-22.44,23.59,2.22-.24,3.72.46,5.58,1.44,9.84,5.19,13.06-10.78,20.15-13.8Z" style="fill: #fff;"/>
      <path d="M181.66,127.77c-6.79,14.19-13.08,29.15-13.24,44.88-.03,2.64,1.5,4.43,2.77,6.62,2.43,4.21,3.29,9.2,8.95,10.04,7.09,1.04,14.81.44,21.98.6,11.37.26,22.74.46,34.11.61,10.92.15,21.59,1.4,32.58.94,1.08-5.46,6.31-9.1,8.51-14.21,1.9-4.4,1.37-9.44.44-14.14-1.62-8.2-4.34-16.13-7.05-24.03-1.77-5.17-3.57-10.39-6.29-15.13-2.89-4.98-6.27-9.66-9.25-14.61-.28-.46-.56-.93-.97-1.3-1.27-1.15-3.38-.83-4.93-.99-2.21-.23-4.03-.2-6.23.33-11.65,2.82-22.98,8.7-34.91,7.57-4.67-.44-13.41-4.57-17.58-1.5-4.06,2.99-6.78,9.91-8.88,14.3Z" style="fill: #ffad0f;"/>
      <path d="M189.42,113.05c6.56-1.79,12.84.86,19.36,2.78,6.09,1.8,12.79,1.65,18.7-.69,3.48-1.37,6.63-3.45,10.07-4.94,5.24-2.26,11.1-3.07,16.75-2.31" style="fill: none; stroke: #2e3138; stroke-linecap: round; stroke-linejoin: round; stroke-width: 2.52px;"/>
      <path d="M215.69,55.6c5.32.12,10.65.07,15.97.37.79.05,2.86.58,3.5.09.7-.53.91-2.81,1.12-3.63.72-2.86,1.25-5.78,1.57-8.71.11-.97.19-1.96-.03-2.91-.06-.26-.14-.51-.32-.71-.19-.21-.46-.33-.73-.44-3.78-1.49-18.18-2.31-21-1.56-3.49.92-2.76,3.16-2.39,6.19.25,2.08,1.26,11.28,2.31,11.31Z" style="fill: #ff6d04; stroke: #2e3138; stroke-linecap: round; stroke-linejoin: round; stroke-width: 2.52px;"/>
      <path d="M215.69,55.6c-.55,2.04-.69,4.2-.41,6.3,6.27,0,12.54.01,18.81.02.27,0,.58-.01.77-.2.17-.17.2-.44.22-.69.08-1.17.09-2.35.04-3.53" style="fill: none; stroke: #2e3138; stroke-linecap: round; stroke-linejoin: round; stroke-width: 2.52px;"/>
      <path d="M215.09,63.03c-.23,8.46.23,14.97,0,23.43,0,0-47.39,34.01-47.11,89.18,0,0,9.38,12.69,9.1,13.79-.28,1.1,90.76,2.07,90.76,2.07.3.04,9.93-13.91,9.93-14.21.22-16.18-3.03-36.25-13.24-53.79-9.19-15.79-17.65-25.1-30.66-35.66-.36-8.28-.06-16.58.87-24.82" style="fill: none; stroke: #2e3138; stroke-linecap: round; stroke-linejoin: round; stroke-width: 2.52px;"/>
      <path d="M217.63,97.57h14.07s30.27,21.67,31.45,73.38l-80.55-1.38s11.31-59.59,35.03-72Z" style="fill: #1f89bd; stroke: #2e3138; stroke-linecap: round; stroke-linejoin: round; stroke-width: 2.52px;"/>
      <path d="M215.42,86.91c5.89.18,11.77.36,17.66.54" style="fill: none; stroke: #2e3138; stroke-linecap: round; stroke-linejoin: round; stroke-width: 2.52px;"/>
      <circle cx="222.87" cy="143.01" r="15.74" style="fill: #797b80; stroke: #2e3138; stroke-linecap: round; stroke-linejoin: round; stroke-width: 2.52px;"/>
      <circle cx="222.87" cy="142.47" r="9.15" style="fill: #797b80; stroke: #2e3138; stroke-linecap: round; stroke-linejoin: round; stroke-width: 2.52px;"/>
      <path d="M221.4,227.25c2.48,7.76,12.21,10.49,20.34,9.91,1.45-.1,2.95-.29,4.22-1.01,1.18-.67,2.06-1.76,3.02-2.71,4.3-4.24,10.55-5.95,16.59-6.27,6.04-.31,12.06.59,18.11.79,9.63.31,19.31-1.23,28.38-4.49,3.15-1.14,6.34-2.56,8.52-5.11,2.18-2.55,3.05-6.48,1.22-9.29-1.86-2.84-5.65-3.58-9.03-3.89-15.35-1.41-31.03.85-45.36,6.56-4.53,1.8-8.95,3.95-13.68,5.1-3.69.9-7.58,1.2-10.96,2.93-2.68,1.37-4.85,3.55-6.97,5.69-3.02,3.05-6.04,6.1-9.06,9.15" style="fill: #babbbd;"/>
      <path d="M321.07,172.94c2.56,1.62,3.57,4.98,6.09,6.67.55.37,1.18.67,1.53,1.23.3.48.33,1.08.36,1.65.11,2.3.21,4.59.32,6.89.06,1.3.03,2.81-.99,3.62-.51.4-1.19.55-1.7.96-.98.78-1.05,2.25-.87,3.49s.48,2.57-.04,3.72c-.44.97-1.4,1.61-1.89,2.55-.45.86-.47,1.88-.63,2.84-.34,1.94-1.36,3.73-2.77,5.1-.44.43-.92.82-1.34,1.27-.95,1.03-1.56,2.37-1.78,3.75-.18,1.18-.02,2.29-1.44,2.76-.88.3-1.85.12-2.77-.01-1.78-.27-3.75-.35-5.22.69-1.82,1.29-2.52,4.07-4.68,4.61-1.05.27-2.16-.11-3.25-.07-2.29.08-4.5,1.95-6.65,1.15-1.91-.72-2.97-3.39-5.01-3.27-1.08.06-1.93.93-2.96,1.26-2.54.81-5.02-1.84-7.68-1.68-1.79.11-3.56,1.48-5.21.79-.68-.29-1.21-.9-1.91-1.13-.95-.31-1.99.15-2.98.03-1.07-.13-1.93-.88-2.84-1.44-2.14-1.34-4.85-1.75-7.3-1.09-2.66.71-3.64,3.71-6.2,4.71-1.05.41-2.24.42-3.27.89-2.16.98-2.96,3.56-4.32,5.49-2.29,3.24-6.47,4.76-10.43,4.68s-7.77-1.56-11.33-3.32c-2.21-1.1-4.56-2.55-5.21-4.94-.38-1.4-.09-2.9.31-4.29.82-2.86,2.12-5.62,4.08-7.85,1.96-2.24,4.63-3.92,7.56-4.39,2.54-.41,5.13.09,7.65.59-.35-1.63,1.35-3.02,2.98-3.36,1.64-.33,3.37-.06,4.96-.58,2.1-.69,3.51-2.61,5.27-3.96,1.27-.97,2.74-1.65,3.93-2.71,1.43-1.28,2.36-3.01,3.45-4.59,1.09-1.58,2.49-3.1,4.35-3.58.99-.25-.11-1.48-.48-2.43-.98-2.48-.18-5.56,1.9-7.24,1.2-.97,2.78-1.53,3.66-2.81.72-1.04.82-2.38,1.22-3.58,1.01-3.03,3.8-5.04,6.43-6.84.55-.38,1.12-.76,1.78-.86.53-.08,1.07.03,1.6-.01,1.88-.17,3.15-2.32,3.93-3.82.22-.42.43-.88.83-1.13.69-.44,1.59-.11,2.3.29,1.18.67,2.27.9,3.63.73,1.38-.16,2.59-.92,3.96-1.15.65-.11,1.23.16,1.88.28.71.13,1.45.19,2.16.03.81-.18,1.59-.64,2.42-.53.63.09,1.16.49,1.75.74.94.4,2.04.38,2.97-.04.43-.2.85-.49,1.33-.51.79-.03,1.44.69,2.23.78.42.05.84-.09,1.26-.14.58-.06,1.12.22,1.68.15.65-.08,1.23-.35,1.91-.34,1.11.01,2.16.51,3.07,1.13,1.96,1.33,3.49,3.27,4.32,5.48.46,1.21,1.01,2.02,2.11,2.71Z" style="fill: #ff6d04;"/>
      <path d="M319.8,172.61c1.69-.19,3.1,1.28,3.93,2.76.83,1.48,1.46,3.19,2.85,4.16.87.61,2.04.93,2.53,1.87.25.48.28,1.05.3,1.59l.25,6.68c.02.65.05,1.33-.21,1.93-.47,1.11-1.73,1.66-2.39,2.66-1.31,1.96.03,4.89-1.31,6.82-.51.73-1.33,1.19-1.93,1.85-2.15,2.37-.98,6.65-3.34,8.81-.88.8-2.14,1.18-2.77,2.19-.89,1.44-.11,3.58-1.26,4.82-1.76,1.92-5.04-.82-7.49.06-2.32.84-2.63,4.42-4.94,5.29-1.7.64-3.59-.54-5.39-.29-1.88.26-3.58,2.06-5.38,1.45-1.56-.53-2.15-2.64-3.72-3.17-1.87-.64-3.62,1.33-5.58,1.54-2.78.3-5.28-2.94-7.92-2.03-1.25.43-2.3,1.76-3.58,1.44-.67-.16-1.15-.75-1.75-1.1-1.35-.77-3.08-.21-4.57-.64-.93-.26-1.7-.89-2.54-1.35-2.9-1.57-6.8-.99-9.12,1.36-.97.98-1.76,2.29-3.09,2.67-.73.21-1.5.09-2.25.2-3.35.5-4.33,4.75-6.4,7.42-3.14,4.06-9.19,4.47-14.18,3.25-1.26-.31-2.5-.7-3.7-1.19-4.4-1.79-8.62-5.85-7.96-10.55.28-2,1.4-3.77,2.5-5.47,1.78-2.76,3.9-5.75,7.12-6.39,3.42-.68,7.65,1.39,10.08-1.11" style="fill: none; stroke: #2e3138; stroke-linecap: round; stroke-linejoin: round; stroke-width: 2.52px;"/>
      <path d="M233.4,211.08c1.35-.14,2.19-1.47,3.28-2.27,3.07-2.27,8.06-.32,10.84-2.93.89-.84,1.4-2.03,2.34-2.82,1.96-1.63,5.4-1.19,6.65-3.4" style="fill: none; stroke: #2e3138; stroke-linecap: round; stroke-linejoin: round; stroke-width: 2.52px;"/>
      <path d="M252.32,201.89c3.03-1.33,3.02-5.9,5.96-7.74,1.05-.65,2.4-1.18,2.71-2.38.19-.72-.08-1.47-.22-2.2-.66-3.38,1.68-7.07,5.02-7.9,2.27-3.08,1.48-7.83,4.65-9.97.9-.6,2.01-.92,2.72-1.73.33-.38.57-.86,1.01-1.11.64-.36,1.43-.1,2.16-.1,1.85,0,3.22-1.68,4.11-3.31.31-.57.62-1.19,1.17-1.55,1.63-1.09,3.7.79,5.66.7,1.9-.09,3.39-2.02,5.29-1.93.87.04,1.58.53,2.33.89.79.38,1.52.28,2.32-.05.76-.31,1.57-.71,2.37-.53.98.23,1.74,1.3,2.73,1.14.75-.11,1.25-.9,1.99-1.03.98-.18,1.79.83,2.78.97.75.11,1.53-.3,2.25-.08" style="fill: none; stroke: #2e3138; stroke-linecap: round; stroke-linejoin: round; stroke-width: 2.52px;"/>
      <path d="M308.08,165.08c.43-.94,1.65-1.19,2.69-1.12,1.34.09,2.66.53,3.78,1.26,1.04.67,1.9,1.57,2.76,2.46.36.38.73.76.95,1.23.31.66.3,1.43.47,2.14.3,1.21,1.2,2.26,2.35,2.75" style="fill: none; stroke: #2e3138; stroke-linecap: round; stroke-linejoin: round; stroke-width: 2.52px;"/>
      <path d="M319.68,188.18c.29-1.31.48-2.8-.31-3.87-.28-.39-.67-.69-.96-1.07-.9-1.18-.68-2.89-.06-4.24" style="fill: none; stroke: #2e3138; stroke-linecap: round; stroke-linejoin: round; stroke-width: 2.52px;"/>
      <path d="M320.81,194.04c.73.6,1.03,1.62.9,2.56-.13.93-.65,1.78-1.32,2.45-.24.25-.53.54-.46.87" style="fill: none; stroke: #2e3138; stroke-linecap: round; stroke-linejoin: round; stroke-width: 2.52px;"/>
      <path d="M315.28,202.88c.64,1.43.31,3.24-.8,4.34-.71.7-1.65,1.1-2.46,1.69s-1.53,1.48-1.41,2.47" style="fill: none; stroke: #2e3138; stroke-linecap: round; stroke-linejoin: round; stroke-width: 2.52px;"/>
      <path d="M305.84,206.22c.43.3.38.94.25,1.45-.2.78-.45,1.55-.72,2.31-.37,1.04-.8,2.09-1.54,2.9-.74.82-1.86,1.37-2.94,1.16" style="fill: none; stroke: #2e3138; stroke-linecap: round; stroke-linejoin: round; stroke-width: 2.52px;"/>
      <path d="M308.51,213.84c-.57.68-1.15,1.37-1.88,1.88-.73.51-1.64.82-2.51.64" style="fill: none; stroke: #2e3138; stroke-linecap: round; stroke-linejoin: round; stroke-width: 2.52px;"/>
      <path d="M297.29,218.16c-1.24,1.18-3.12,1.63-4.77,1.16" style="fill: none; stroke: #2e3138; stroke-linecap: round; stroke-linejoin: round; stroke-width: 2.52px;"/>
      <path d="M288.42,217.78c-.87-.05-1.62.65-2.49.77-1.06.15-2.02-.58-2.93-1.13-.72-.44-1.5-.8-2.31-1.06-.64-.21-1.4-.34-1.94.07" style="fill: none; stroke: #2e3138; stroke-linecap: round; stroke-linejoin: round; stroke-width: 2.52px;"/>
      <path d="M280.25,218.56c-1.43.61-3.16.44-4.44-.44" style="fill: none; stroke: #2e3138; stroke-linecap: round; stroke-linejoin: round; stroke-width: 2.52px;"/>
      <path d="M271.91,215.59c-.91.85-2.34.92-3.51.5s-2.14-1.26-3.08-2.08" style="fill: none; stroke: #2e3138; stroke-linecap: round; stroke-linejoin: round; stroke-width: 2.52px;"/>
      <path d="M255.03,215.09c.1,1.05-.05,2.13-.44,3.12" style="fill: none; stroke: #2e3138; stroke-linecap: round; stroke-linejoin: round; stroke-width: 2.52px;"/>
      <path d="M252.06,217.19c-.18.95-.36,1.91-.53,2.86-.06.31-.17.69-.48.77" style="fill: none; stroke: #2e3138; stroke-linecap: round; stroke-linejoin: round; stroke-width: 2.52px;"/>
      <path d="M242.69,221.75c-1.07.75-1.44,2.34-.82,3.49" style="fill: none; stroke: #2e3138; stroke-linecap: round; stroke-linejoin: round; stroke-width: 2.52px;"/>
      <path d="M238.78,222.03c.07,1,.13,2.01-.08,2.98-.21.98-.74,1.93-1.61,2.42" style="fill: none; stroke: #2e3138; stroke-linecap: round; stroke-linejoin: round; stroke-width: 2.52px;"/>
      <path d="M235.22,225.78c-1.23,1.23-1.59,3.25-.87,4.83" style="fill: none; stroke: #2e3138; stroke-linecap: round; stroke-linejoin: round; stroke-width: 2.52px;"/>
      <path d="M223.93,222.42c.35.51.97.77,1.58.82.61.05,1.22-.07,1.82-.2.62.65.77,1.7.35,2.5-.12.23-.29.45-.33.71-.1.62.54,1.08,1.08,1.41.53.33,1.06.7,1.42,1.21.36.51.55,1.18.34,1.77-.24.67-.94,1.1-1.65,1.16-.71.06-1.41-.2-2.03-.56" style="fill: none; stroke: #2e3138; stroke-linecap: round; stroke-linejoin: round; stroke-width: 2.52px;"/>
      <path d="M222.59,227.21c-1.19-.28-2.01-1.63-1.72-2.82" style="fill: none; stroke: #2e3138; stroke-linecap: round; stroke-linejoin: round; stroke-width: 2.52px;"/>
      <path d="M268.41,190.34c-.23.96-1.26,1.43-2.01,2.07-.98.84-1.55,2.13-1.51,3.42" style="fill: none; stroke: #2e3138; stroke-linecap: round; stroke-linejoin: round; stroke-width: 2.52px;"/>
      <path d="M271.94,183.07c-1.34-.25-2.79.23-3.73,1.22-.93.99-1.32,2.47-.99,3.79" style="fill: none; stroke: #2e3138; stroke-linecap: round; stroke-linejoin: round; stroke-width: 2.52px;"/>
      <path d="M274.42,177.44c-1.16.03-2.29.65-2.93,1.62" style="fill: none; stroke: #2e3138; stroke-linecap: round; stroke-linejoin: round; stroke-width: 2.52px;"/>
      <path d="M295.51,172.36c-1.27-.94-2.62-1.76-4.05-2.44-.15.27-.39.48-.68.59" style="fill: none; stroke: #2e3138; stroke-linecap: round; stroke-linejoin: round; stroke-width: 2.52px;"/>
      <path d="M308.05,172.58c-.48.09-.95-.18-1.31-.5-.36-.33-.65-.72-1.04-1.01-.48-.35-1.09-.5-1.68-.42-.46.06-.9.26-1.35.39-1.19.33-2.53.13-3.56-.55" style="fill: none; stroke: #2e3138; stroke-linecap: round; stroke-linejoin: round; stroke-width: 2.52px;"/>
      <path d="M297.62,168.73c-.33-.31-.77-.49-1.22-.49-.73,0-1.41.44-2.14.44" style="fill: none; stroke: #2e3138; stroke-linecap: round; stroke-linejoin: round; stroke-width: 2.52px;"/>
      <path d="M316.74,190.82c.42.71.01,1.76-.78,1.99" style="fill: none; stroke: #2e3138; stroke-linecap: round; stroke-linejoin: round; stroke-width: 2.52px;"/>
      <path d="M299.73,175.81c-1.33.73-3,.81-4.4.22" style="fill: none; stroke: #2e3138; stroke-linecap: round; stroke-linejoin: round; stroke-width: 2.52px;"/>
      <path d="M273.03,189.72c-.67.35-.56,1.31-.72,2.04-.19.84-.92,1.54-1.77,1.7" style="fill: none; stroke: #2e3138; stroke-linecap: round; stroke-linejoin: round; stroke-width: 2.52px;"/>
      <path d="M293.26,206.93c-1.71.32-3.56-.26-4.78-1.5" style="fill: none; stroke: #2e3138; stroke-linecap: round; stroke-linejoin: round; stroke-width: 2.52px;"/>
      <path d="M151.19,235.99c3.49.53,7.01-.55,10.38-1.6,7.89-2.44,15.83-4.74,23.8-6.87,1.27-.34,3.11-.35,3.37.94.13.65-.28,1.27-.67,1.8-4.42,5.98-9.69,11.33-15.59,15.84-1.8,1.38-3.72,2.73-4.92,4.66,0,5.06,54.29-30.71,54.29-33.66,0-4-6.07,1.63-7.9,2.01-2.68.56-5-1.91-7.65-2.6-1.43-.37-2.94-.21-4.4-.02-12.84,1.68-25.25,5.69-37.57,9.68-3.62,1.17-7.77,2.88-8.73,6.56" style="fill: #babbbd;"/>
      <path d="M205.62,209.52c.95-.26,1.93-.52,2.92-.44.99.08,2,.57,2.43,1.46.44.9.21,1.96-.05,2.92-.21.77-.44,1.56-.95,2.18-.55.65-1.35,1.02-2.13,1.37-5.96,2.68-12.03,5.39-18.51,6.2-.17.02-.35.04-.5-.03-.35-.15-.4-.61-.41-.99-.07-1.71-.54-3.34-1.3-4.86-.84-1.68-.83-2.1,1.06-2.69,3.7-1.16,7.41-2.28,11.13-3.35,2.1-.61,4.21-1.2,6.32-1.77Z" style="fill: #ff6d04;"/>
      <path d="M184.47,216c.38-.13.83-.25,1.17-.03.23.15.34.41.44.67.73,1.83,1.3,3.73,1.71,5.66.08.4.16.82.05,1.21-.24.83-1.18,1.21-2.01,1.47-4.24,1.33-8.49,2.66-12.73,3.99-6.73,2.11-13.45,4.21-20.18,6.32-1.07.34-2.23.67-3.3.35-1.43-.44-2.31-2.03-2.23-3.53.3-5.35,6.93-6.07,10.88-7.39,5.57-1.87,11.15-3.73,16.73-5.58,3.16-1.05,6.32-2.09,9.47-3.14Z" style="fill: #fff;"/>
      <path d="M153.16,230.94c.75,2.28.02,4.57-1.64,5.12s-3.62-.85-4.37-3.13c-.75-2.28-.02-4.57,1.64-5.12s3.62.85,4.37,3.13Z" style="fill: none; stroke: #2e3138; stroke-linecap: round; stroke-linejoin: round; stroke-width: 2.52px;"/>
      <path d="M151.52,236.06l58.42-19.36c1.66-.55,2.39-2.84,1.64-5.12-.75-2.28-2.71-3.68-4.37-3.13l-58.42,19.36" style="fill: none; stroke: #2e3138; stroke-linecap: round; stroke-linejoin: round; stroke-width: 2.52px;"/>
      <path d="M185.3,215.72s4.34,3.07,2.73,8.24" style="fill: none; stroke: #2e3138; stroke-linecap: round; stroke-linejoin: round; stroke-width: 2.52px;"/>
      <path d="M213.26,211.44c.86-.49,1.74-.99,2.72-1.15.98-.17,2.08.06,2.72.81.65.76.69,1.85.68,2.84,0,.8,1.12,1.55.77,2.27-.37.77-2.21,1.41-2.88,1.94-5.11,4.08-10.31,8.21-16.39,10.61-.16.06-.32.12-.49.1-.38-.06-.54-.5-.65-.86-.49-1.64-1.35-3.1-2.47-4.38-1.23-1.42-1.32-1.83.36-2.87,3.29-2.04,6.61-4.05,9.95-6.01,1.89-1.11,3.78-2.2,5.68-3.29Z" style="fill: #ff6d04;"/>
      <path d="M194.38,222.98c.34-.22.74-.45,1.13-.31.26.09.43.32.59.54,1.16,1.6,2.19,3.29,3.06,5.06.18.37.36.75.35,1.16-.02.87-.85,1.47-1.58,1.92-3.78,2.34-7.56,4.68-11.34,7.02-5.99,3.71-11.98,7.42-17.98,11.13-.96.59-1.99,1.21-3.11,1.15-1.5-.07-2.74-1.39-3.03-2.86-1.04-5.26,5.21-7.6,8.7-9.86,4.94-3.2,9.88-6.38,14.82-9.56,2.8-1.8,5.6-3.6,8.4-5.39Z" style="fill: #fff;"/>
      <path d="M167.77,245.23c1.3,2.02,1.15,4.42-.32,5.37-1.47.95-3.71.08-5.01-1.94s-1.15-4.42.32-5.37,3.71-.08,5.01,1.94Z" style="fill: none; stroke: #2e3138; stroke-linecap: round; stroke-linejoin: round; stroke-width: 2.52px;"/>
      <path d="M167.45,250.59l51.78-33.26c1.47-.95,1.61-3.35.32-5.37s-3.54-2.89-5.01-1.94l-51.78,33.26" style="fill: none; stroke: #2e3138; stroke-linecap: round; stroke-linejoin: round; stroke-width: 2.52px;"/>
      <path d="M195.12,222.5s4.96,1.9,4.69,7.31" style="fill: none; stroke: #2e3138; stroke-linecap: round; stroke-linejoin: round; stroke-width: 2.52px;"/>
    </g>
  </g>
</svg>