<?xml version="1.0" encoding="UTF-8"?>
<svg id="_圖層_2" data-name="圖層 2" xmlns="http://www.w3.org/2000/svg" viewBox="0 0 484.48 344.31">
  <g id="_圖層_1-2" data-name="圖層 1">
    <g>
      <g>
        <path d="M269.53,94.19c-.24.18-.49.38-.55.67-.04.19.02.38.08.56.37,1.19.73,2.38,1.1,3.57.09.29.24.63.54.68.15.02.3-.05.44-.11,3.21-1.55,6.03-3.89,8.15-6.76.36-.49.71-1.01.95-1.57.28-.65.42-1.35.57-2.04.4-1.83.89-3.64,1.42-5.44.1-.33.59-1.54.11-1.82-.4-.23-1.2.89-1.47,1.17-2.38,2.45-4.64,5.03-7.1,7.41-1.35,1.31-2.75,2.56-4.25,3.69Z" style="fill: #fff;"/>
        <path d="M189.6,71.62v73.07h56.46c-.16-1.21-.3-1.52-.46-2.73v-69.89c-.15,0-.53,0-.68,0l-55.31-.46Z" style="fill: #fff; stroke: #2e3117; stroke-linecap: round; stroke-linejoin: round; stroke-width: 1.83px;"/>
        <path d="M193.92,77.54c.09,1.29.13,2.58.22,3.87v18.89l46.89.68c0-.08,0,.08,0,0v-23.68c-.3,0-1.29,0-1.59,0l-45.52.23Z" style="fill: #d7d8d8; stroke: #2e3117; stroke-linecap: round; stroke-linejoin: round; stroke-width: 1.83px;"/>
        <rect x="195.97" y="125.11" width="6.15" height="6.15" style="fill: none; stroke: #2e3117; stroke-linecap: round; stroke-linejoin: round; stroke-width: 1.83px;"/>
        <rect x="205.39" y="125.11" width="6.15" height="6.15" style="fill: none; stroke: #2e3117; stroke-linecap: round; stroke-linejoin: round; stroke-width: 1.83px;"/>
        <rect x="214.8" y="125.11" width="6.15" height="6.15" style="fill: none; stroke: #2e3117; stroke-linecap: round; stroke-linejoin: round; stroke-width: 1.83px;"/>
        <rect x="224.22" y="125.11" width="6.15" height="6.15" style="fill: none; stroke: #2e3117; stroke-linecap: round; stroke-linejoin: round; stroke-width: 1.83px;"/>
        <rect x="233.64" y="125.11" width="6.15" height="6.15" style="fill: none; stroke: #2e3117; stroke-linecap: round; stroke-linejoin: round; stroke-width: 1.83px;"/>
        <rect x="195.97" y="134.1" width="6.15" height="6.15" style="fill: none; stroke: #2e3117; stroke-linecap: round; stroke-linejoin: round; stroke-width: 1.83px;"/>
        <rect x="205.39" y="134.1" width="6.15" height="6.15" style="fill: none; stroke: #2e3117; stroke-linecap: round; stroke-linejoin: round; stroke-width: 1.83px;"/>
        <rect x="214.8" y="134.1" width="6.15" height="6.15" style="fill: none; stroke: #2e3117; stroke-linecap: round; stroke-linejoin: round; stroke-width: 1.83px;"/>
        <rect x="224.22" y="134.1" width="6.15" height="6.15" style="fill: none; stroke: #2e3117; stroke-linecap: round; stroke-linejoin: round; stroke-width: 1.83px;"/>
        <rect x="233.64" y="134.1" width="6.15" height="6.15" style="fill: none; stroke: #2e3117; stroke-linecap: round; stroke-linejoin: round; stroke-width: 1.83px;"/>
        <rect x="245.59" y="82.66" width="4.44" height="54.55" style="fill: #fff; stroke: #2e3117; stroke-linecap: round; stroke-linejoin: round; stroke-width: 1.83px;"/>
        <rect x="250.03" y="96.43" width="11.49" height="7.06" style="fill: #fff; stroke: #2e3117; stroke-linecap: round; stroke-linejoin: round; stroke-width: 1.83px;"/>
        <circle cx="264.69" cy="99.75" r="6.09" style="fill: #fff; stroke: #2e3117; stroke-linecap: round; stroke-linejoin: round; stroke-width: 1.83px;"/>
        <path d="M268.97,94.66c5.56-4.71,10.59-10.05,14.96-15.89" style="fill: none; stroke: #2e3117; stroke-linecap: round; stroke-linejoin: round; stroke-width: 1.83px;"/>
        <path d="M270.52,101.67c3.16-2.95,6.33-5.89,9.51-8.81" style="fill: none; stroke: #2e3117; stroke-linecap: round; stroke-linejoin: round; stroke-width: 1.83px;"/>
        <g>
          <path d="M152.29,123.35c5.03-1.32,10.06-2.64,15.08-3.96.96-.25,1.94-.51,2.79-1.04.81-.5,1.45-1.22,2.08-1.94,1.48-1.67,2.96-3.34,4.45-5.02,2.82-3.19,5.8-6.48,9.76-8.04.06,2.06-1.48,3.78-2.92,5.25,2.52-1.21,5.29-1.91,8.09-2.03.91-.04,1.89,0,2.63.52.75.52,1.1,1.69.48,2.37.73-.43,1.81.24,1.76,1.08-.05.73-.76,1.25-1.47,1.46-.71.21-1.47.22-2.14.51.78.62,1.57,1.25,2.35,1.87.23.19.49.42.48.71-.01.42-.51.62-.93.69-2.03.38-4.13.34-6.12.89-1.99.55-3.96,1.88-4.42,3.9.8.67,2.02.41,2.95-.07.93-.47,1.82-1.14,2.86-1.2,1.04-.07,2.22.88,1.87,1.87-.1.29-.32.53-.55.74-2.33,2.24-5.69,3-8.91,3.34-3.21.33-6.52.34-9.56,1.42-2.5.89-4.69,2.46-6.96,3.82-2.64,1.57-5.42,2.88-8.2,4.18-3.04,1.42-6.09,2.85-9.13,4.27-2.16,1.01-4.34,2.03-6.62,2.72-.48.14-1.06.25-1.41-.11-.16-.16-.22-.39-.29-.6-.32-1.1-.64-2.21-.96-3.31-.73-2.51-3.55-10.35-.07-11.82,1.67-.71,4.03-.48,5.81-.81,2.43-.44,4.81-1.07,7.2-1.69Z" style="fill: #fff;"/>
          <g>
            <path d="M169.53,119.3c3.24-2.29,5.55-5.63,7.99-8.76,2.44-3.13,5.22-6.23,8.91-7.67.56-.22,1.47-.15,1.42.44-.02.22-.18.39-.34.55-1.61,1.58-3.79,4.81-5.4,6.39" style="fill: none; stroke: #2e3117; stroke-linecap: round; stroke-linejoin: round; stroke-width: 1.83px;"/>
            <path d="M181.36,110.85c3.22-2.73,7.56-4.1,11.76-3.73.57.05,1.16.15,1.59.52s.59,1.11.18,1.5c-.27.27-.69.3-1.08.33-3.25.22-6.45,1.13-9.33,2.65" style="fill: none; stroke: #2e3117; stroke-linecap: round; stroke-linejoin: round; stroke-width: 1.83px;"/>
            <path d="M183.11,113.11c3.22-2.73,7.56-4.1,11.76-3.73.57.05,1.16.15,1.59.52.43.37.59,1.11.18,1.5-.27.27-.69.3-1.08.33-3.25.22-6.45,1.13-9.33,2.65" style="fill: none; stroke: #2e3117; stroke-linecap: round; stroke-linejoin: round; stroke-width: 1.83px;"/>
            <path d="M181.22,120.98c2.13.41,4.4.06,6.31-.98.77-.41,1.49-.94,2.33-1.16.84-.22,1.87-.05,2.34.69.43.68.23,1.61-.28,2.24-.5.63-1.24,1.01-1.97,1.35-4.61,2.15-9.66,3.36-14.75,3.52-.71.02-1.43.03-2.12.2-.65.17-1.26.48-1.85.79-6.78,3.52-13.56,7.04-20.35,10.56-3.44,1.78-6.98,3.6-10.83,4.02" style="fill: none; stroke: #2e3117; stroke-linecap: round; stroke-linejoin: round; stroke-width: 1.83px;"/>
            <path d="M168.93,119.88c-10.03,2.38-20.18,4.29-30.39,5.73" style="fill: none; stroke: #2e3117; stroke-linecap: round; stroke-linejoin: round; stroke-width: 1.83px;"/>
            <path d="M185.39,114.81c1.49-.35,2.99-.7,4.48-1.05,1.71-.4,3.63-.77,5.13.14.24.15.47.34.59.6.23.54-.14,1.18-.65,1.46s-1.12.3-1.7.33c-2.39.13-4.81.63-6.88,1.84-1.22.71-2.31,1.68-3.11,2.83" style="fill: none; stroke: #2e3117; stroke-linecap: round; stroke-linejoin: round; stroke-width: 1.83px;"/>
          </g>
        </g>
      </g>
      <g>
        <path d="M87.3,315.96c.08.09.15.19.22.28.48.65.78,1.23,1.38,1.77.71.63,1.5,1.12,2.24,1.7,1.76,1.37,2.87,3.42,3.68,5.5.57,1.46,1.01,2.99,1.06,4.55.05,1.56-.34,3.18-1.29,4.42-.95,1.23-2.39,2.01-3.89,2.43-1.5.42-3.06.51-4.62.6-1.24.07-2.47.14-3.71.22-1.93.11-3.96.2-5.67-.7-2.42-1.29-3.45-4.15-5.02-6.39-.57-.82-1.24-1.58-1.79-2.42-.6-.91-1.05-1.91-1.51-2.91-.55-1.2-1.09-2.39-1.64-3.59-.6-1.31-1.19-2.62-1.63-3.99-.49-1.53-.78-3.13-.86-4.74,3.42.04,6.85.03,10.27-.05,1.73-.04,3.45-.1,5.18-.17,1.27-.05,3.48-.77,4.57.08.57.45,1.06,1.38,1.6,1.93.49.49.99.96,1.43,1.49Z" style="fill: #fff;"/>
        <path d="M49.59,316.24c-.09,2.66-1.5,5.07-2.46,7.56-.43,1.11-.77,2.27-1.44,3.25-.5.74-1.17,1.35-1.73,2.04-1.46,1.79-2.22,4.07-3.71,5.83-1.97,2.31-5.04,3.46-8.07,3.68-3.03.23-6.05-.38-9.01-1.05-.85-.19-1.71-.4-2.47-.83-1.72-.97-2.66-2.98-2.83-4.95s.32-3.94.84-5.85c.21-.75.42-1.5.82-2.17.96-1.6,2.78-2.42,4.34-3.44,2.41-1.58,4.37-3.84,5.59-6.45.14-.29.27-.59.51-.8.39-.34.96-.35,1.48-.34,3.87.06,7.75.12,11.62.18,1.58.02,3.86-.36,5.36.15,1.25.43,1.18,2.09,1.15,3.19Z" style="fill: #fff;"/>
        <path d="M49.35,255.75c-10.64.69-21.31.93-31.97.73.84-10.79,1.69-21.59,2.53-32.38.54-6.93,1.09-13.86,1.63-20.8.44-5.64,1.43-12.33-.03-17.6-.87-3.15-.36-6.89-.12-10.13.22-3,.12-7.08,1.25-9.9-4.83,12-5.18,25.26-5.47,38.19-5.05-.27-10.1-.54-15.15-.8-.36-.02-.75-.05-1.01-.29-.32-.3-.34-.79-.33-1.22.06-4.82.14-9.65.19-14.47.03-3.33-.58-6.01-.03-9.35.71-4.33.89-8.42,1.6-12.75.52-3.19,1.94-6.49,2-9.71.22-12.39,1.36-24.95,1.04-37.23-.36-13.87-.35-31.98,13.77-39.37,2.37-1.24,4.77-2.49,7.36-3.16,1.56-.4,3.17-.59,4.71-1.03,1.36-.39,2.68-1.48,4-1.75,1.52-.31,2.92.6,4.32-.58,5.02-4.22,3.79,1.91,3.88,5.53.06,2.58.45,5.15.68,7.72.52,5.68.33,11.4.13,17.11-.15,4.43,1.63,8.88,1.8,13.32.04,1.05.05,2.1-.11,3.14-.11.69-.28,1.36-.36,2.05-.22,1.94.33,3.89.29,5.84-.1,4.38,1.33,8.7,1.39,13.08.02,1.15.03,2.31.33,3.42.21.77.56,1.5.75,2.28.2.8.24,1.63.27,2.45l.3,7.12c.24,5.67.54,11.73.14,17.39-.51,7.39.05,14.66.08,22.07,0,.61,0,1.25-.3,1.78.61,5.52.82,11.06.55,16.6-.1,2.01-.25,4.01-.3,6.02-.06,2.84.1,5.7-.19,8.52-.4,3.78,1.06,7.74,1.14,11.54.05,2.54-.22,5.07-.39,7.6-.2,3.02-.52,6.01-.4,9.04Z" style="fill: #fff;"/>
        <path d="M79.91,38.31c.29,1.07.62,2.25,1.16,3.11.54.88,1.42,1.21,1.49,2.39.06.88-.2,1.76-.37,2.63-.36,1.8-.39,3.66-.77,5.46-.5,2.39-1.6,4.71-1.6,7.19-.16,2.52-.17,5.11-.51,7.6-.07.47-.14.95-.39,1.35-.19.32-.48.58-.77.83-4.08,3.55-8.44,6.79-13.03,9.66-1.4.87-2.95,1.75-4.59,1.58-1.25-.13-2.36-.85-3.38-1.59-3.87-2.79-7.36-6.13-10.31-9.87-.38-.48-.75-.96-1-1.52-.47-1.04-.49-2.22-.5-3.37-.02-2.01-.04-4.02-.05-6.03-.02-1.86-.43-3.95-1.52-5.52-.83-1.2-2.35-1.83-3.04-3.12-.78-1.47-.16-3.41,1.1-4.49,1.26-1.09,3-1.46,4.67-1.48-.12-3.46.33-6.94,1.33-10.25.49-1.62,1.11-3.23,2.11-4.6,1.44-1.98,3.29-2.83,5.64-3.13,3.51-.44,6.79-1.95,10.14-3.08,2.59-.88,5.36-1.56,8.11-1.3.91.08,2.22.14,2.96.7.84.63,1.26,2.01,1.44,2.99.24,1.33.16,2.7.16,4.05,0,3.03.44,6.07,1.29,8.98.08.26.15.54.23.83Z" style="fill: #fff;"/>
        <path d="M87.39,26.62c.33,1.12.56,2.28.58,3.45.01,1.01-.14,2.02-.29,3.03-.18,1.2-.25,2.5-.49,3.68-.25,1.21-1.17,2.3-1.63,3.44-.14.34-.25.7-.44,1.01-.15.25-.35.48-.55.7-.62.7-1.23,1.41-1.87,2.1-.27-.66-.85-1.27-1.23-1.89-.42-.68-.8-1.39-1.15-2.11-.69-1.45-1.22-2.97-1.6-4.53-.75-3.12-.86-6.39-.26-9.54.15-.79.34-1.59.2-2.38-.29-1.59-2.14-2.64-3.63-2.82-3.79-.47-7.53.68-11.08,1.88-1.84.62-3.67,1.28-5.54,1.79-.92.25-1.84.47-2.78.62-.91.15-1.87.09-2.77.26-.93.18-1.85.86-2.43,1.58-.37.46-.65.99-.91,1.52-2.34,4.79-3.19,10.3-2.4,15.57-1.03-.58-2.25-.8-3.41-.61-.33.05-.66.13-.99.07-.78-.15-1.15-1.02-1.37-1.79-.4-1.37-.69-2.78-.89-4.19-.19-1.38-.08-2.86-.34-4.21-.51-2.7-.59-5.43.18-8.11,1.39-4.85,5.32-8.68,9.83-10.93,4.51-2.26,9.58-3.13,14.6-3.67,1.2-.13,2.42-.24,3.63-.11,2.31.25,4.36,1.38,6.13,2.83,1.75,1.44,2.95,3.8,4.72,5.1,1.53,1.13,3.46,1.18,4.97,2.67,1.54,1.52,2.6,3.55,3.21,5.62Z" style="fill: #ff6d04;"/>
        <path d="M70.54,164.15c-1.97.69-4.01,1.14-6.09,1.35-1.99.2-4,.18-6.01.15-3.01-.04-6.04-.07-9.02-.55-.19,2.93-.37,5.86-.56,8.79-.08,1.24-.16,2.49-.12,3.73.07,2.11.49,4.18.6,6.28.12,2.15-.28,4.26-.31,6.42-.08,4.65.09,9.3.5,13.93.15,1.72.34,3.43.44,5.15.37,6.11-.34,12.22-.21,18.33.07,3,.22,5.95.19,8.96-.03,3.14-.07,6.29-.1,9.43-.04,3.46-.07,6.92-.11,10.38-7.33.02-14.67.03-22,.05-.11,5.03.09,9.92,0,14.96-.1,5.6.23,11.19.5,16.78.2,4.16.37,8.33.31,12.5-.06,4.05-.3,7.54.6,11.53,8.2.37,16.41.41,24.61.09-.46-3.26.19-6.73.44-9.97.29-3.74.48-7.47.52-11.22.08-7.37-.2-14.74.16-22.11.36-7.51.77-15.02,1.22-22.52.73-12.14.04-24.63,2.16-36.64.5,6.56.55,13.25.73,19.84.15,5.75.31,11.5.46,17.25.15,5.45.29,10.9.1,16.34-.12,3.48-.38,6.96-.51,10.44-.25,6.34-.09,12.7.39,19.02.22,2.92.81,5.91.89,8.8.09,3.32-.37,6.67-.27,10.01.01.37.05.79.34,1.01.23.18.55.17.84.15,7.58-.39,15.15-.73,22.73-1.13,1.93-5.65,1.33-11.56,1.8-17.38.51-6.26.79-12.55.97-18.83.09-3.14.8-6.32.73-9.43-.07-3.42-.08-6.85-.11-10.27-2.39-.02-4.74.48-7.11.79-4.5.59-9.08.49-13.55-.28-.28-.05-.59-.11-.76-.34-.13-.16-.17-.37-.19-.57-.2-1.74.41-3.45.4-5.18-.01-1.9.03-3.81.26-5.69.13-1.01.31-2.02.44-3.03.15-1.22.21-2.45.26-3.67.23-5.03.39-10.06.48-15.09.04-2.29-.07-4.61.22-6.88.04-.32.3-.48.32-.79.42-5.38.64-10.78.67-16.19.01-2.45-.29-4.91-.16-7.33.13-2.54.56-5.05.67-7.59.29-6.6.25-13.25,1.21-19.8Z" style="fill: #4b4c4e;"/>
        <path d="M79.77,67.63c-2.77,4.12-7.18,6.8-11.44,9.34-1.62.97-3.26,1.94-5.07,2.47-1.81.53-3.84.56-5.51-.31-1.9-1-3.05-2.98-4.7-4.35-.83-.69-1.78-1.22-2.65-1.85-2.33-1.67-4.46-3.78-6.19-6.06.28,7.69-.04,15.17-.16,22.86-.36,24.4,5.03,49.32,4.62,73.9,0,.53.02,1.14.45,1.46.29.21.68.22,1.04.21,6.29-.12,12.79.18,18.81-1.33.37-.09.77-.1,1.07-.34.46-.37.52-1.04.55-1.63.59-14.83,3.78-29.74,4.72-45.29,1.02-16.71,2.61-32.45,4.46-49.09Z" style="fill: #1f89bd;"/>
        <g>
          <path d="M80.5,66.87c5.39,6.14,15.26,7.53,19.38,14.58,2.31,3.95,2.24,8.81,2,13.38-.51,9.82-1.49,19.62-2.91,29.35-1.08,7.37.21,15.29-.33,22.72-.21,2.82-.51,5.63-.56,8.45-.11,6.02.5,12.09.63,18.11.09,4.37.18,8.74.27,13.11.03,1.65.63,4.37-.19,5.84-.6,1.08-2.2,2.48-3.05,3.44-2.47,2.79-6.84,2.27-10.54,2.78-3.31.45-6.36,1.86-9.56,2.72-1.54.42-3.34.9-4.95.72-2.25-.25-1.7-1.32-1.73-3.45-.1-7.84.11-15.69.66-23.51.59-8.51,2.41-17.03,2.26-25.57-.06-3.36-.38-6.78.37-10.06.47-2.09,1.55-3.85,1.73-5.99.18-2.14-.12-4.29-.22-6.42-.13-2.63.01-5.28.41-7.88.36-2.34,1.46-4.71,1.66-7.02.2-2.33-.31-4.94-.23-7.33.09-2.54.3-5.07.6-7.6.6-5.2,1.55-10.36,2.41-15.52.42-2.53.83-5.06,1.16-7.6.15-1.14,1.46-6.45.74-7.26Z" style="fill: #fff; fill-rule: evenodd;"/>
          <path d="M79.41,18.75s-7.53-16.17-31.76-3.71c0,0-13.75,7.34-5.11,28.41" style="fill: none; fill-rule: evenodd; stroke: #2e3138; stroke-linecap: round; stroke-miterlimit: 10; stroke-width: 1.83px;"/>
          <path d="M79.42,18.11c2.87.75,5.19,3.01,6.52,5.67,1.33,2.66,1.76,5.68,1.81,8.65.05,3.25-2.54,8.25-4.24,11.02" style="fill: none; fill-rule: evenodd; stroke: #2e3138; stroke-linecap: round; stroke-miterlimit: 10; stroke-width: 1.83px;"/>
          <path d="M78.78,23.68c-2.88-5.57-11.19-3.17-15.22-1.47-1.81.76-3.49,1.8-5.31,2.52-4.28,1.69-9.52,1.4-13.06-1.54" style="fill: none; fill-rule: evenodd; stroke: #2e3138; stroke-linecap: round; stroke-miterlimit: 10; stroke-width: 1.83px;"/>
          <path d="M59.25,19.56c-.59.38-1.24.65-1.92.83-2.14.57-4.51.16-6.34-1.08" style="fill: none; fill-rule: evenodd; stroke: #2e3138; stroke-linecap: round; stroke-miterlimit: 10; stroke-width: 1.83px;"/>
          <path d="M71.16,16.27c-1.66-.44-3.46-.28-5.01.45" style="fill: none; fill-rule: evenodd; stroke: #2e3138; stroke-linecap: round; stroke-miterlimit: 10; stroke-width: 1.83px;"/>
          <path d="M81.86,24.6c1.08,1.49,1.67,3.34,1.65,5.18" style="fill: none; fill-rule: evenodd; stroke: #2e3138; stroke-linecap: round; stroke-miterlimit: 10; stroke-width: 1.83px;"/>
          <path d="M80.95,31.71c-.31,2.39.51,4.77,1.32,7.04" style="fill: none; fill-rule: evenodd; stroke: #2e3138; stroke-linecap: round; stroke-miterlimit: 10; stroke-width: 1.83px;"/>
          <path d="M78.78,23.68c-.49,4.61-.97,9.41.62,13.77.77,2.12,2,4.04,3.29,5.88" style="fill: none; fill-rule: evenodd; stroke: #2e3138; stroke-linecap: round; stroke-miterlimit: 10; stroke-width: 1.83px;"/>
          <path d="M50.99,26.09c-3.42,5.36-4.77,12-3.72,18.28" style="fill: none; fill-rule: evenodd; stroke: #2e3138; stroke-linecap: round; stroke-miterlimit: 10; stroke-width: 1.83px;"/>
          <path d="M46.97,43.67c-.93-.24-1.88-.46-2.84-.44-.96.02-1.95.32-2.63,1-.64.64-.95,1.57-.94,2.48.01.91.32,1.79.77,2.58.31.55.7,1.06,1.16,1.49,1.34,1.26,3.21,1.74,4.99,2.19" style="fill: none; fill-rule: evenodd; stroke: #2e3138; stroke-linecap: round; stroke-miterlimit: 10; stroke-width: 1.83px;"/>
          <path d="M46.59,47.47c-.16-.34-.45-.62-.82-.72-.36-.1-.78,0-1.02.3-.24.29-.25.76.01,1.03" style="fill: none; fill-rule: evenodd; stroke: #2e3138; stroke-linecap: round; stroke-miterlimit: 10; stroke-width: 1.83px;"/>
          <path d="M79.77,57.99c-.34,2.62-.14,7.05-.31,9.67" style="fill: none; fill-rule: evenodd; stroke: #2e3138; stroke-linecap: round; stroke-miterlimit: 10; stroke-width: 1.83px;"/>
          <path d="M44.74,52.15c.13,5.33.26,9.39.39,14.72" style="fill: none; fill-rule: evenodd; stroke: #2e3138; stroke-linecap: round; stroke-miterlimit: 10; stroke-width: 1.83px;"/>
          <path d="M75.9,34.44c-.33-.42-.84-.68-1.36-.78s-1.07-.07-1.6,0c-.42.06-.85.15-1.17.42" style="fill: none; fill-rule: evenodd; stroke: #2e3138; stroke-linecap: round; stroke-miterlimit: 10; stroke-width: 1.83px;"/>
          <path d="M56.62,33.51c-1.15-.82-2.8-.9-4.02-.18" style="fill: none; fill-rule: evenodd; stroke: #2e3138; stroke-linecap: round; stroke-miterlimit: 10; stroke-width: 1.83px;"/>
          <path d="M66.27,40.78c.11,1.89.23,3.83,1.02,5.54.21.46.48.92.53,1.43.08.73-.32,1.46-.9,1.92-.58.46-1.32.66-2.05.74-1.07.1-2.35-.22-2.72-1.22" style="fill: none; fill-rule: evenodd; stroke: #2e3138; stroke-linecap: round; stroke-miterlimit: 10; stroke-width: 1.83px;"/>
          <path d="M62.49,55.41c1.27.99,3.2,1,4.49.03" style="fill: none; fill-rule: evenodd; stroke: #2e3138; stroke-linecap: round; stroke-miterlimit: 10; stroke-width: 1.83px;"/>
          <path d="M63.78,58.72c.52.16,1.1.12,1.59-.1" style="fill: none; fill-rule: evenodd; stroke: #2e3138; stroke-linecap: round; stroke-miterlimit: 10; stroke-width: 1.83px;"/>
          <path d="M72.18,40.98c0,.91.74,1.65,1.65,1.65s1.65-.74,1.65-1.65-.74-1.65-1.65-1.65-1.65.74-1.65,1.65Z" style="fill: #2e3138;"/>
          <path d="M52.96,40.98c0,.91.74,1.65,1.65,1.65s1.65-.74,1.65-1.65-.74-1.65-1.65-1.65-1.65.74-1.65,1.65Z" style="fill: #2e3138;"/>
          <path d="M67.59,65.2c1.44,0,5.96-1.61,7.69-2.75,1.22-.8,3.46-2.39,4.23-3.84,0,0,2.93-6.63,2.76-14.68" style="fill: none; fill-rule: evenodd; stroke: #2e3138; stroke-linecap: round; stroke-miterlimit: 10; stroke-width: 1.83px;"/>
          <path d="M79.45,67.66c-3.53,4.01-10.17,8.27-14.58,11.29-.98.67-2.03,1.33-3.22,1.39-1.08.05-2.12-.41-3.09-.9-6.04-2.99-8.96-7.7-13.67-12.51" style="fill: none; fill-rule: evenodd; stroke: #2e3138; stroke-linecap: round; stroke-miterlimit: 10; stroke-width: 1.83px;"/>
          <path d="M48.93,146.42c.18.49-14.24-28.92-16.08-45.52-.11-.98-.2-1.99.08-2.93.28-.95.91-1.75,1.53-2.53,2.09-2.63,4.18-5.27,6.27-7.9-2.02-1.99-4.04-3.97-6.06-5.96,3.06-5.04,6.12-10.08,9.18-15.11,0,0,.39,67.5,5.09,79.95Z" style="fill: none; fill-rule: evenodd; stroke: #2e3138; stroke-linecap: round; stroke-miterlimit: 10; stroke-width: 1.83px;"/>
          <path d="M40.72,70.68c-6.05,1.79-11.9,4-17.78,6.25-4.49,1.72-9.02,2.54-11.95,6.88-1.77,2.62-2.58,5.77-3.22,8.88-4.21,20.59-2.11,41.92-4.19,62.82-1.58,15.86-3.25,31.13-2.46,47.12,5.33.51,10.66,1.02,15.98,1.53.82-16.55,3.01-33.04,6.52-49.23" style="fill: none; fill-rule: evenodd; stroke: #2e3138; stroke-linecap: round; stroke-miterlimit: 10; stroke-width: 1.83px;"/>
          <polyline points="21.28 105.96 24.29 147.57 17.5 256.4 49.88 256.4 48.93 146.42" style="fill: none; fill-rule: evenodd; stroke: #2e3138; stroke-linecap: round; stroke-miterlimit: 10; stroke-width: 1.83px;"/>
          <path d="M70.03,164.15c-6.66,1.78-13.7,2.12-20.51.98" style="fill: none; fill-rule: evenodd; stroke: #2e3138; stroke-linecap: round; stroke-miterlimit: 10; stroke-width: 1.83px;"/>
          <polyline points="88.05 255.79 84.28 312.41 60.35 312.41 58.53 195.42 53.71 312.41 28.94 312.79 27.45 256.78" style="fill: none; fill-rule: evenodd; stroke: #2e3138; stroke-linecap: round; stroke-miterlimit: 10; stroke-width: 1.83px;"/>
          <path d="M64.51,312.79c-.21,6.46,2.68,9.13,4.07,11.09,1.02,1.44,2.04,2.88,3.06,4.32.87,1.22,1.8,2.66,2.93,3.67.93.84,2.12,1.57,3.33,1.92.54.16,3.66.58,4.39.65,2.69.24,4.96.05,7.58-.64,1.19-.31,2.35-.76,3.43-1.35.92-.5,1.82-1.14,2.25-2.09.38-.84.34-1.82.2-2.73-.33-2.22-1.18-4.38-2.63-6.09-1.45-1.71-3.53-2.92-5.76-3.13" style="fill: none; stroke: #2e3138; stroke-linecap: round; stroke-miterlimit: 10; stroke-width: 1.83px;"/>
          <path d="M88.64,318.32c-2.04-2.28-2.18-3.76-4.36-5.91" style="fill: none; stroke: #2e3138; stroke-linecap: round; stroke-miterlimit: 10; stroke-width: 1.83px;"/>
          <path d="M95.66,327.1c.59,2.05,1.48,5.9-2.29,8.55-1.74,1.23-3.95,1.57-6.08,1.74-1.73.14-3.48.17-5.22.08-1.56-.07-3.13-.15-4.6-.74-2.68-1.07-4.09-3.37-5.68-5.64-1.73-2.46-3.38-4.97-4.94-7.54-1.35-2.22-2.85-5.9-2.44-8.47" style="fill: none; stroke: #2e3138; stroke-linecap: round; stroke-miterlimit: 10; stroke-width: 1.83px;"/>
          <path d="M49.18,312.79c1.14,6.89-2.56,10.05-3.94,12.01-1.02,1.44-2.04,2.88-3.06,4.32-.87,1.22-1.8,2.66-2.92,3.67-.93.84-2.12,1.57-3.33,1.92-.54.16-3.66.58-4.39.65-2.69.24-4.96.05-7.58-.64-1.19-.31-2.35-.76-3.43-1.35-.92-.5-1.82-1.14-2.25-2.09-.38-.84-.34-1.82-.2-2.73.33-2.22,1.18-4.38,2.63-6.09,1.45-1.71,3.53-2.92,5.76-3.13" style="fill: none; stroke: #2e3138; stroke-linecap: round; stroke-miterlimit: 10; stroke-width: 1.83px;"/>
          <path d="M25.18,319.25c2.04-2.28,2.72-4.31,4.89-6.46" style="fill: none; stroke: #2e3138; stroke-linecap: round; stroke-miterlimit: 10; stroke-width: 1.83px;"/>
          <path d="M18.16,328.02c-.59,2.05-1.48,5.9,2.29,8.55,1.74,1.23,3.95,1.57,6.08,1.74,1.73.14,3.48.17,5.22.08,1.56-.07,3.13-.15,4.6-.74,2.68-1.07,4.09-3.37,5.68-5.64,1.73-2.46,3.38-4.97,4.94-7.54,1.35-2.22,2.85-5.9,2.44-8.47" style="fill: none; stroke: #2e3138; stroke-linecap: round; stroke-miterlimit: 10; stroke-width: 1.83px;"/>
          <path d="M82.28,313.67c-1.86.95-3.54,2.27-4.91,3.85" style="fill: none; stroke: #2e3138; stroke-linecap: round; stroke-miterlimit: 10; stroke-width: 1.83px;"/>
          <path d="M84.67,317.1c-2.54-1.53-5.66-1.58-8.57-2.13" style="fill: none; stroke: #2e3138; stroke-linecap: round; stroke-miterlimit: 10; stroke-width: 1.83px;"/>
          <path d="M39.72,315.33c-3.18.49-6.28,1.56-9.08,3.14" style="fill: none; stroke: #2e3138; stroke-linecap: round; stroke-miterlimit: 10; stroke-width: 1.83px;"/>
          <path d="M38.65,319.54c-1.86-2.18-4.18-3.97-6.76-5.2" style="fill: none; stroke: #2e3138; stroke-linecap: round; stroke-miterlimit: 10; stroke-width: 1.83px;"/>
          <path d="M81.37,320.98c-2.28.05-4.44,1.71-5.06,3.91" style="fill: none; stroke: #2e3138; stroke-linecap: round; stroke-miterlimit: 10; stroke-width: 1.83px;"/>
          <path d="M36.86,320.9c1.57.7,2.74,2.25,2.97,3.96" style="fill: none; stroke: #2e3138; stroke-linecap: round; stroke-miterlimit: 10; stroke-width: 1.83px;"/>
          <path d="M47.49,56.16c1.3,3.65,4.12,6.63,7.51,7.92,1.14.43,2.32.69,3.51.89,2.14.37,4.31.57,6.48.62" style="fill: none; fill-rule: evenodd; stroke: #2e3138; stroke-linecap: round; stroke-miterlimit: 10; stroke-width: 1.83px;"/>
          <path d="M84.34,70.88c4.93,1.93,9.56,4.54,13.98,7.44,3.84,2.52,8.46,5.13,11.08,9.01,1.78,2.64,2.64,5.78,3.72,8.78,2.73,7.57,6.87,16.06,12.2,22.11.91,1.03,1.85,2.05,3.02,2.76,1.47.89,3.2,1.24,4.9,1.52,10.52,1.7,21.41,1.09,31.67-1.78.86,3.59,1.73,7.19,2.59,10.78-12.19,7.17-25.43,12.54-39.17,15.89-1.46.36-2.96.69-4.44.5-2.89-.38-5.13-2.62-7.09-4.78-6.3-6.95-12.14-14.3-17.5-22" style="fill: #fff; fill-rule: evenodd; stroke: #2e3138; stroke-linecap: round; stroke-linejoin: round; stroke-width: 1.83px;"/>
          <path d="M100.47,104.81l-2.52,39.63,3.06,110.51s-30.49,2.28-35.27,1.14l5.47-108.52" style="fill: none; fill-rule: evenodd; stroke: #2e3138; stroke-linecap: round; stroke-miterlimit: 10; stroke-width: 1.83px;"/>
          <path d="M71.21,147.57c-.07.22,11.25-32.02,18.65-44.37.38-.63.77-1.28.85-2,.07-.64-.12-1.28-.32-1.89-1.34-4.07-3.48-7.89-6.24-11.17,1.65-2.37,3.29-4.73,4.94-7.1.3-.44.62-.92.58-1.44-.03-.39-.24-.73-.45-1.06-2.9-4.58-6-9.03-9.28-13.33,0,0-5.91,73.73-8.72,82.36Z" style="fill: none; fill-rule: evenodd; stroke: #2e3138; stroke-linecap: round; stroke-linejoin: round; stroke-width: 1.83px;"/>
          <path d="M98.79,226.18c.25,0,.53.02.73.17.25.19.32.53.37.84,1.43,9.12,1.59,18.45.48,27.62-11.31,1.11-22.69,1.53-34.05,1.26.39-8.1.78-16.21,1.17-24.31.06-1.26-.41-4.61.33-5.62.8-1.09,3.59-.47,4.85-.45,4.03.08,8.06.15,12.1.23l14.01.26Z" style="fill: #fff; fill-rule: evenodd;"/>
        </g>
      </g>
      <path d="M410.63,1.44c8.44-.01,17.02,0,25.12,2.36,8.1,2.37,15.81,7.47,19.31,15.15,4.07,8.92,1.87,19.43,4.22,28.95,2.34,9.46,9.05,17.42,11.2,26.92,3.01,13.28-3.33,26.89-3.08,40.5.26,13.95,7.43,27.62,4.88,41.34-1.63,8.76-7.09,16.46-8.7,25.22-3.69,20.18,13.69,40.19,8.8,60.11-3.92,15.98-21.14,26.51-23.65,42.77-2.12,13.71,6.99,27.68,3.53,41.11-2.95,11.42-15.46,15.98-27.25,15.98l-73.57,1.54c3.95-8.87,5.15-93.43,5.23-103.14.57-66.81,1.14-133.66-1.91-200.4-.55-12.1-2.3-26.12,1.06-37.91,17.6-2.54,37-.52,54.81-.52Z" style="fill: #fff;"/>
      <path d="M277.36,240.67c-4.61-20.98-7.16-44.15-7.16-68.51C270.2,77.58,308.73.91,356.25.91s86.06,76.67,86.06,171.24-38.53,171.24-86.06,171.24c-27.92,0-52.74-26.47-68.46-67.48" style="fill: #e2e2e3;"/>
      <path d="M273.29,167.56c1.27-79,31.26-142.19,68.07-142.19s68.12,66,68.12,147.41-30.5,147.41-68.12,147.41c-19.32,0-36.76-17.4-49.15-45.36" style="fill: #fff;"/>
      <path d="M334.83,261.47c.83,3.37,2.31,6.58,4.32,9.41.55.77,1.19,1.56,2.09,1.86,2.2.74,4.11-1.67,5.11-3.76,9.13-19.06,10.21-40.84,11.14-61.96,1.54-35.21,3.07-70.75-3-105.46-2.3-13.13-5.78-26.31-12.88-37.59-3.97-6.3-9.71-12.2-16.53-14.63,0,0-29.47-1.05-21.56,109.16" style="fill: #e0e0e1;"/>
      <path d="M356.36,227.17c-2.13.17-4.32.3-6.43.66-1.93.33-1.98.63-2.71,2.31-1.47,3.4-4.14,5.9-7.55,7.32-3.98,1.66-8.4,1.87-12.71,2.06-32.29,1.43-64.69,2.86-96.87-.15-7.44-.7-15.67-1.93-16.24-10.97-.06-.93-.11-2.05-.91-2.51-.26-.15-.56-.21-.86-.26-8.62-1.48-16.93-1.96-25.65-1.95-37.9.02-75.8.04-113.7.06-11.27,0-25.23-2.17-36.09.36,5.62,5.74,14.27,9.96,20.99,14.47,6.06,4.07,12.3,8.32,16.18,14.51,8.79,13.98,2.62,32.61-6.65,46.28-6.2,9.14-13.69,17.39-19.46,26.83-1.62,2.64-7.68,11.12-6.31,14.35,1.38,3.26,14.82,2.04,18.23,2.2,3.48,0,7,.32,10.48.47,4.72.21,9.44.42,14.17.61,4.27.18,8.84.8,13.06.22,4.39-.59,9.22.03,13.66.07,4.72.04,9.43.06,14.15.06,4.63,0,9.26-.03,13.89-.08,2.2-.02,4.89.37,7.03-.09,1.6-.34,2.8-1.06,4.57-1.08,8.14-.09,16.28-.18,24.42-.27,3.71-.04,7.42-.08,11.12.07,4.69.19,9.37.7,14.07.88,9.44.35,18.91-.64,28.34-.01,2.25.15,4.71.33,6.55-.97-2.13-4.44-5.65-9.23-6.17-14.22-.65-6.25,3.56-12.88,5.58-18.55.93-2.61,1.64-5.3,2.25-8,.48-2.13.88-4.28,1.22-6.43.28-1.78.62-3.75,2.05-4.85.7-.54,1.57-.79,2.42-1.03,9.49-2.68,18.7-5.92,28.17-8.69,9.99-2.92,20.08-5.47,30.15-8.12,6.23-1.64,12.45-3.31,18.51-5.47,8.88-3.17,17.36-7.36,25.82-11.54,3.25-1.61,6.83-3.59,7.8-7.08,1.74-6.19.83-13.06,3.01-19.1.27-.76.61-1.55.43-2.33ZM321.4,247.58c-48.66,24.57-103.17,37.45-157.68,37.27-6.62-.02-13.34-.25-19.67-2.19-6.55-2.01-13.15-6.83-13.69-13.66-.47-5.83,2.58-12.31,7.77-14.99,5.2-2.68,12.68-3.29,18.5-3.78,4.63-.39,9,.41,13.63.02-3.5.11-7,.23-10.51.34l18.68-1.03c-2.72.23-5.45.46-8.17.68,49.6-1.61,99.19-3.17,148.81-4.09,1.04-.02,2.49.39,2.33,1.42Z" style="fill: #e2e2e3; fill-rule: evenodd;"/>
      <path d="M273.29,167.56c1.27-79,31.26-142.19,68.07-142.19s68.12,66,68.12,147.41-30.5,147.41-68.12,147.41c-19.32,0-36.76-17.4-49.15-45.36" style="fill: none; stroke: #2e3117; stroke-linecap: round; stroke-linejoin: round; stroke-width: 1.83px;"/>
      <path d="M286.96,261.5c-1.66-4.76-3.19-9.75-4.58-14.94" style="fill: none; stroke: #2e3117; stroke-linecap: round; stroke-linejoin: round; stroke-width: 1.83px;"/>
      <path d="M277.36,240.67c-4.61-20.98-7.16-44.15-7.16-68.51C270.2,77.58,308.73.91,356.25.91s86.06,76.67,86.06,171.24-38.53,171.24-86.06,171.24c-27.92,0-52.74-26.47-68.46-67.48" style="fill: none; stroke: #2e3117; stroke-linecap: round; stroke-linejoin: round; stroke-width: 1.83px;"/>
      <path d="M283.53,263.75c-1.76-5.53-3.37-11.28-4.81-17.22" style="fill: none; stroke: #2e3117; stroke-linecap: round; stroke-linejoin: round; stroke-width: 1.83px;"/>
      <path d="M334.83,261.47c.83,3.37,2.31,6.58,4.32,9.41.55.77,1.19,1.56,2.09,1.86,2.2.74,4.11-1.67,5.11-3.76,9.13-19.06,10.21-40.84,11.14-61.96,1.54-35.21,3.07-70.75-3-105.46-2.3-13.13-5.78-26.31-12.88-37.59-3.97-6.3-9.71-12.2-16.53-14.63,0,0-28.5-5.82-21.45,110.21" style="fill: none; stroke: #2e3117; stroke-linecap: round; stroke-linejoin: round; stroke-width: 1.83px;"/>
      <g>
        <g>
          <path d="M54.17,180.36c-2.31,2.53-3.35,5.87-4.33,9.1-.45,1.49-.91,3.04-.76,4.62.17,1.75.56,3.14,1.51,4.65,1.5,2.35,3.83,4.73,5.6,6.92.66.81,1.35,1.6,2.05,2.39.56.64,1.15,1.3,1.9,1.72.29-.68.58-1.13.42-1.92-.14-.73-.52-1.41-.91-2.06-1.33-2.19-2.77-4.32-4.32-6.39-.89-1.19-1.84-2.42-2.02-3.83-.16-1.18.25-2.33.64-3.44l2.38-6.62c.59-1.65,1.2-3.31,2.23-4.73.64-.87,4.93-3.69,1.75-3.58-2.35.08-4.7,1.58-6.15,3.16Z" style="fill: #4b4c4e;"/>
          <path d="M74.67,191.46c-.12-.27-.22-.54-.33-.8-.34-.83-.61-1.69-.93-2.53-.96-2.58-2.6-4.35-4.44-6.3-.63-.66-.98-1.42-1.84-1.89-.39-.21-.82-.34-1.24-.47-1.07-.32-2.14-.64-3.2-.96-1.03-.31-1.4-.38-2.12.4-2.22,2.4-4.29,4.96-5.72,7.86-2.21,4.48-2.73,10.09.11,14.49.84,1.3,1.94,2.45,2.89,3.7.76,1.01,1.42,2.08,2.15,3.11,1.66,2.34,3.69,4.47,5.99,6.28,1.17.93,2.41,1.78,3.71,2.53.94.54,2.7,1.64,3.8,1.26.85-.3,1.14-1.26,1.32-2.11.72-3.4,1.45-6.79,2.17-10.19.35-1.67.71-3.33,1.06-5,.24-1.12,1.21-3.11.64-4.23-.59-1.14-1.57-1.78-2.45-2.62-.69-.66-1.17-1.61-1.57-2.54Z" style="fill: #9e9e9f;"/>
          <path d="M72.49,217.45c-8.17-1.47-10.42-6.54-12.13-8.73-1.26-1.62-2.52-3.23-3.78-4.85-1.07-1.37-2.36-2.9-3.09-4.45-.61-1.29-1.02-2.81-.98-4.2.02-.62.64-4.03.83-4.81.68-2.88,1.71-5.18,3.42-7.63.78-1.12,1.69-2.15,2.74-3.04.89-.76,1.93-1.45,3.15-1.53,1.09-.07,2.17.35,3.15.84,3.56,1.79,5.46,4.38,7.31,7.76,1.79,3.26,3.06,6.95,5.82,9.55" style="fill: none; stroke: #2e3138; stroke-linecap: round; stroke-miterlimit: 10; stroke-width: 1.83px;"/>
          <path d="M66.35,179.33c-2.1-1.41-6.12-3.81-10.45-.92-2,1.34-3.18,3.5-4.13,5.64-.77,1.75-1.42,3.55-1.95,5.39-.47,1.65-.94,3.32-.81,5.06.26,3.2,2.35,5.55,4.33,8.08,2.15,2.75,4.4,5.43,6.74,8.04,2.02,2.26,5.64,5.24,8.67,5.8" style="fill: none; stroke: #2e3138; stroke-linecap: round; stroke-miterlimit: 10; stroke-width: 1.83px;"/>
          <path d="M75.27,204.05c-1.33-2.53-3.15-4.84-5.33-6.79" style="fill: none; stroke: #2e3138; stroke-linecap: round; stroke-miterlimit: 10; stroke-width: 1.83px;"/>
          <path d="M75.46,200.12c-.38,1.73-.86,3.63-2.4,4.62" style="fill: none; stroke: #2e3138; stroke-linecap: round; stroke-miterlimit: 10; stroke-width: 1.83px;"/>
          <path d="M74.17,197.89c-.21,1.8-1.34,3.44-2.98,4.33" style="fill: none; stroke: #2e3138; stroke-linecap: round; stroke-miterlimit: 10; stroke-width: 1.83px;"/>
          <path d="M71.95,195.74c-.34,1.34-.88,2.62-1.61,3.8-.36.58-.85,1.18-1.57,1.25" style="fill: none; stroke: #2e3138; stroke-linecap: round; stroke-miterlimit: 10; stroke-width: 1.83px;"/>
        </g>
        <g>
          <path d="M46.11,185.7c-1.52,3.35-1.6,7.14-1.64,10.82-.02,1.69-.03,3.44.56,5.05.65,1.77,1.41,3.1,2.75,4.37,2.1,1.99,5.01,3.74,7.32,5.47.86.64,1.75,1.25,2.63,1.86.72.49,1.46.99,2.31,1.21.09-.8.24-1.36-.13-2.13-.34-.71-.9-1.31-1.45-1.86-1.89-1.87-3.87-3.64-5.93-5.32-1.18-.96-2.44-1.95-3.01-3.36-.48-1.18-.41-2.5-.34-3.78.15-2.54.3-5.09.45-7.63.11-1.9.23-3.82.83-5.62.37-1.11,3.72-5.36.68-4.26-2.24.81-4.09,3.09-5.04,5.19Z" style="fill: #4b4c4e;"/>
          <path d="M68.45,191.36c-.6-.46-1.19-.94-1.6-1.58-.46-.71-.65-1.57-.97-2.35-.62-1.5-1.74-2.73-3.06-3.65-.64-.45-1.38-.71-2.03-1.12-.79-.5-1.34-1.17-2.3-1.4-.43-.1-.88-.1-1.33-.1-1.12,0-2.23,0-3.35,0-1.07,0-1.46.03-1.93,1.07-1.47,3.18-2.75,6.49-3.32,9.95-.89,5.35.18,11.35,4.14,15.05,1.17,1.1,2.55,1.95,3.81,2.96,1.01.81,1.95,1.72,2.93,2.57,2.25,1.93,4.79,3.51,7.51,4.69,1.38.6,2.82,1.11,4.28,1.49,1.06.28,3.06.87,4,.14.74-.57.74-1.67.68-2.6-.25-3.76-.5-7.52-.75-11.27-.12-1.84-.24-3.69-.37-5.53-.08-1.24.3-3.62-.56-4.6-1.31-1.49-4.16-2.45-5.79-3.69Z" style="fill: #9e9e9f;"/>
          <path d="M74.06,218.65c-8.28.99-11.85-3.59-14.1-5.34-1.66-1.29-3.33-2.59-4.99-3.88-1.41-1.1-3.08-2.29-4.21-3.68-.95-1.16-1.76-2.61-2.11-4.07-.16-.66-.5-4.39-.54-5.27-.14-3.21.21-5.92,1.17-9,.44-1.4,1.03-2.76,1.79-4.01.64-1.07,1.46-2.11,2.61-2.57,1.03-.41,2.18-.31,3.27-.09,2.62.51,5.16,1.64,7.12,3.46,1.96,1.82,3.3,4.36,3.42,7.03" style="fill: none; stroke: #2e3138; stroke-linecap: round; stroke-miterlimit: 10; stroke-width: 1.83px;"/>
          <path d="M67.64,189.7c2.61,2.55,4.99,3.47,7.44,6.18" style="fill: none; stroke: #2e3138; stroke-linecap: round; stroke-miterlimit: 10; stroke-width: 1.83px;"/>
          <path d="M57.55,180.86c-2.41-.82-6.95-2.07-10.31,2.27-1.55,2.01-2.09,4.63-2.4,7.15-.26,2.06-.38,4.14-.38,6.21,0,1.86.01,3.74.63,5.52,1.13,3.25,3.8,5.05,6.42,7.07,2.84,2.19,5.75,4.29,8.73,6.29,2.57,1.73,6.88,3.72,9.96,3.36" style="fill: none; stroke: #2e3138; stroke-linecap: round; stroke-miterlimit: 10; stroke-width: 1.83px;"/>
          <path d="M73.01,203.85c-1.98-2.22-4.37-4.07-7.02-5.42" style="fill: none; stroke: #2e3138; stroke-linecap: round; stroke-miterlimit: 10; stroke-width: 1.83px;"/>
          <path d="M72.1,199.69c.12,1.92.18,4.04-1.03,5.55" style="fill: none; stroke: #2e3138; stroke-linecap: round; stroke-miterlimit: 10; stroke-width: 1.83px;"/>
          <path d="M70.24,197.77c.3,1.93-.33,3.99-1.66,5.43" style="fill: none; stroke: #2e3138; stroke-linecap: round; stroke-miterlimit: 10; stroke-width: 1.83px;"/>
          <path d="M67.5,196.22c.05,1.5-.12,3-.49,4.46-.18.71-.49,1.49-1.16,1.78" style="fill: none; stroke: #2e3138; stroke-linecap: round; stroke-miterlimit: 10; stroke-width: 1.83px;"/>
        </g>
        <path d="M75.08,195.88l1.68-2.08s106.46-10.07,112.79-8.11" style="fill: #fff; stroke: #2e3138; stroke-linecap: round; stroke-miterlimit: 10; stroke-width: 1.83px;"/>
        <path d="M228.54,178.35c-10.34,1.79-20.68,3.58-31.02,5.37-1.75.3-3.52.61-5.12,1.39-.73.35-1.43.83-1.83,1.53-.35.62-.43,1.35-.5,2.06-.67,6.73-1.19,13.48-1.54,20.24-.02.34,0,.73.26.93.19.14.44.13.68.11,18.18-1.19,36.47-2.39,54.18-6.64.45-.11.95-.21,1.34.05.36.24.48.7.56,1.13.25,1.34.22,2.67.33,4.01.64.09,1.15-.17,1.76-.24.79-.09,1.66.04,2.46.07,1.7.05,3.39.1,5.09.14,3.39.08,6.79.13,10.18.14,6.86.03,13.72-.06,20.58-.28,1.07-.03,2.17-.08,3.14-.54,1.78-.85,2.06-3.33,1.8-5.09-.37-2.42-1.8-4.52-3.2-6.53-1.99-2.87-4.51-5.33-6.35-8.31-.62-1-1.98-3.05-1.68-4.31.36-1.53,3.6-2.9,4.97-3.14.82-.14,1.82-.01,2.21.72.23-.52.45-1.04.68-1.56.07-.16.14-.33.1-.5-.05-.2-.25-.33-.43-.43-5.39-3.07-11.72-3.71-17.8-3.94-6.77-.25-13.57-.13-20.33.57-1.11.12-2.22.24-3.33.38-5.75.71-11.47,1.69-17.18,2.67Z" style="fill: #1f89bd;"/>
        <path d="M189.2,207.73c.02.6,0,1.29-.45,1.69-.43.38-1.07.33-1.63.26-4.67-.6-9.28-1.89-13.99-1.75s-9.74,2.08-11.91,6.26c-.64,1.23-.79,3.1.48,3.66-1.49,1.1-3.49,1.15-5.34,1.16-25.5.09-51,.17-76.51.26-1.1,0-2.37-.08-3.01-.98-.33-.47-.4-1.07-.47-1.65-.62-5.75-1.23-11.49-1.85-17.24-.12-1.08-.17-2.33.62-3.08.54-.51,1.33-.63,2.07-.72,2.3-.29,4.59-.66,6.89-.95,0,0,4.1-.34,4.1-.34,20.8-1.73,41.36-3.58,62.12-6.11,12.35-1.51,24.57-1.88,36.94-2.4.74-.03,1.58-.02,2.08.52-.08-.08-.63,4.37-.61,4.84.09,1.64.18,3.29.24,4.94.13,3.88.1,7.75.22,11.63Z" style="fill: #fff;"/>
        <path d="M189.55,185.7l-114.44,9.73s-.23,20.42,1.37,22.91" style="fill: none; stroke: #2e3138; stroke-linecap: round; stroke-miterlimit: 10; stroke-width: 1.83px;"/>
        <path d="M212.81,219.12H24.68c-1.13,2.44-.91,3.77.27,6.18l188.57-.04" style="fill: #fff; stroke: #2e3117; stroke-linecap: round; stroke-linejoin: round; stroke-width: 1.83px;"/>
        <path d="M291.92,208.17c.74,1.75,3.26,1.89,5.11,2.31,8.18,1.86,16.57,2.54,24.92,3.22h10.88c3.94-.05,7.88-.48,11.75-1.28,1.59-.33,3.19-.73,4.59-1.55,2.77-1.63,4.44-4.97,4.07-8.17-.36-3.2-2.73-6.08-5.8-7.05,0,0-18.87-8.02-49.43-.75,0,0-11.33.84-6.09,13.27Z" style="fill: #ff6d04; stroke: #2e3117; stroke-linecap: round; stroke-linejoin: round; stroke-width: 1.83px;"/>
        <path d="M292.17,274.7c20.93-5.83,41.62-12.02,60.15-23.49" style="fill: none; stroke: #2e3117; stroke-linecap: round; stroke-linejoin: round; stroke-width: 1.83px;"/>
        <path d="M35.83,225.19c10.3,4.46,19.98,10.33,28.69,17.4,4.72,3.83,9.26,8.16,11.78,13.69,2.86,6.29,2.82,13.61,1.08,20.3-1.74,6.69-5.05,12.85-8.58,18.79-3.27,5.5-6.76,10.89-10.6,16.02-7.16,9.58-15.84,19.01-17.38,30.87,10.79-.06,21.59.25,32.34,1.15h162.52c-2.05-4.17-3.8-7.82-5.85-12-.55-1.13-1.12-2.29-1.21-3.54-.12-1.69.62-3.3,1.3-4.85,4.36-9.79,7.31-20.21,8.72-30.83,17.18-7.67,35.44-12.44,53.52-17.48" style="fill: none; stroke: #2e3117; stroke-linecap: round; stroke-linejoin: round; stroke-width: 1.83px;"/>
        <path d="M328.81,159.15c-2.05-.13-4.1-.25-6.15-.38-3.06-.19-6.13-.38-9.19-.21-1.81.1-3.62.33-5.42.56-3.27.42-6.62.87-9.56,2.38-.74.38-1.46.83-2.09,1.37-1.86,1.59-2.96,3.91-3.49,6.3-.44,1.97-.53,3.99-.55,6-.02,1.84-.36,2.74-2.09,3.6-1.38.68-2.75,1.37-4.13,2.05-.14.07-.29.14-.44.11-.24-.04-.38-.31-.61-.4-.17-.07-.37-.02-.54.03-1.62.47-3.05,1.53-3.97,2.95-.36.55-.64,1.22-.44,1.84.11.33.34.61.57.87,3.2,3.68,6.51,7.31,9.2,11.4.68,1.04,1.33,2.11,1.91,3.21.72,1.35,1.21,1.07,2.72,1.02,2.82-.11,5.64-.36,8.47-.44,1.25-.03,3.8-.45,4.79.32.49.38.88,1.33,1.28,1.83.45.57.94,1.11,1.46,1.61.61.59,1.29,1.15,2.11,1.35,1.34.32,2.78-.47,3.48-1.65.7-1.18.76-2.66.46-4s-.94-2.58-1.57-3.8c-.13-.26-.27-.53-.29-.83-.02-.27.07-.54.16-.8,1.53-4.32,4.7-8.04,8.72-10.24,1.72-.94,3.59-1.61,5.23-2.69,1.8-1.18,3.43-2.89,5.57-3.07-1.05-1.67-2.09-3.34-3.14-5-.69-1.1-1.38-2.2-1.86-3.4-.49-1.24-.75-2.55-.91-3.87-.32-2.7-.18-5.34.31-8.01Z" style="fill: #fff;"/>
        <path d="M345.72,162.74c.99-1.05,2.54-1.82,2.71-3.25.11-.92-.44-1.8-1.11-2.44-.91-.87-2.09-1.47-3.33-1.68.61-1.68.3-3.66-.79-5.08s-2.93-2.22-4.71-2.06c-2.87.26-5,2.72-6.65,5.09-2.12,3.05-3.04,6.3-3.18,10.02-.11,2.94.37,5.9,1.42,8.65,1.01,2.63,2.1,5.32,3.96,7.47-7.98,2.86-14.9,8.61-19.15,15.95-.23.39-.45.81-.45,1.27,0,.39.19.75.36,1.09.63,1.24,1.27,2.48,1.9,3.72.26.51.54,1.04,1.03,1.35.42.26.93.31,1.42.35,4.54.37,9.16.36,13.63-.61,1.35-.29,2.69-.67,3.99-1.16,1.15-.43,2.36-.63,3.5-1.14,2.29-1.02,4.31-2.6,5.89-4.54.48-.59.92-1.22,1.26-1.9.22-.45.4-.93.57-1.4.97-2.62,1.95-5.13,1.87-7.97-.05-1.85-.46-3.68-.96-5.46-.9-3.21-2.09-6.34-3.39-9.41-1.01-2.39-1.85-4.65.21-6.85Z" style="fill: #4b4c4e;"/>
        <path d="M315.08,166c-.91.21-1.82-.35-2.04-1.26-.21-.91.35-1.82,1.26-2.04.91-.21,1.82.35,2.04,1.26.21.91-.35,1.82-1.26,2.04Z" style="fill: #2e3138;"/>
        <path d="M316.8,181.18c-.91.21-1.82-.35-2.04-1.26-.21-.91.35-1.82,1.26-2.04.91-.21,1.82.35,2.04,1.26.21.91-.35,1.82-1.26,2.04Z" style="fill: #2e3138;"/>
        <path d="M314.19,197.17c1.13-4.52,4.35-8.29,8.14-11.01s8.14-4.5,12.46-6.26c-5.09-5.43-7.33-13.38-5.84-20.67.96-4.67,3.87-9.41,8.51-10.53,2.02-.49,4.35-.15,5.81,1.32,1.46,1.47,1.65,4.2.07,5.55,1.46-.18,3.06.12,4.09,1.17,1.03,1.05,1.21,2.96.12,3.95-.43.38-.98.59-1.46.91-1.66,1.09-2.21,3.37-1.82,5.32.39,1.95,1.52,3.66,2.62,5.31,0,0,7.77,16.33-2.27,25.22-10.04,8.89-26.85,5.22-26.85,5.22" style="fill: none; stroke: #2e3138; stroke-linecap: round; stroke-miterlimit: 10; stroke-width: 1.83px;"/>
        <path d="M313.71,197.39c2.11,1.25,3.38,3.78,3.12,6.21-.17,1.56-1.14,3.21-2.69,3.47-1.07.18-2.13-.34-3.01-.98-2.13-1.57-3.66-4.14-3.45-6.78" style="fill: none; stroke: #2e3138; stroke-linecap: round; stroke-miterlimit: 10; stroke-width: 1.83px;"/>
        <path d="M328.95,159.22s-42.4-7.65-36.29,17.9" style="fill: none; stroke: #2e3138; stroke-linecap: round; stroke-miterlimit: 10; stroke-width: 1.83px;"/>
        <line x1="307.07" y1="201.27" x2="290.94" y2="201.18" style="fill: none; stroke: #2e3138; stroke-linecap: round; stroke-miterlimit: 10; stroke-width: 1.83px;"/>
        <path d="M318.42,170.26c-1.87.23-3.79-.03-5.53-.75-.54-.23-1.1-.5-1.69-.45-.36.03-.69.18-.99.39-1.23.88-1.53,2.81-.61,4.02" style="fill: none; stroke: #2e3138; stroke-linecap: round; stroke-miterlimit: 10; stroke-width: 1.83px;"/>
        <path d="M320.45,175.56c.46,2.02.33,4.18-.37,6.13" style="fill: none; stroke: #2e3138; stroke-linecap: round; stroke-miterlimit: 10; stroke-width: 1.83px;"/>
        <path d="M319.27,166.97c.05-2.11-.49-4.23-1.55-6.05" style="fill: none; stroke: #2e3138; stroke-linecap: round; stroke-miterlimit: 10; stroke-width: 1.83px;"/>
        <path d="M302.41,169.3c-.57,2.03-.36,4.27.59,6.15" style="fill: none; stroke: #2e3138; stroke-linecap: round; stroke-miterlimit: 10; stroke-width: 1.83px;"/>
        <path d="M299.62,171.7c.05.62.1,1.23.16,1.85" style="fill: none; stroke: #2e3138; stroke-linecap: round; stroke-miterlimit: 10; stroke-width: 1.83px;"/>
        <path d="M305.18,177.31c-.17.74-.88,1.33-1.64,1.36" style="fill: none; stroke: #2e3138; stroke-linecap: round; stroke-miterlimit: 10; stroke-width: 1.83px;"/>
        <path d="M303.64,165.87c-.17-.19-.34-.37-.51-.56-.27.05-.54.11-.81.16" style="fill: none; stroke: #2e3138; stroke-linecap: round; stroke-miterlimit: 10; stroke-width: 1.83px;"/>
        <path d="M313.1,200.82c.39.15.57.59.7.98.03.09.06.18.06.28,0,.19-.12.36-.26.48-.43.37-1.14.38-1.58.01" style="fill: none; stroke: #2e3138; stroke-linecap: round; stroke-miterlimit: 10; stroke-width: 1.83px;"/>
        <path d="M340.28,160.38c-1.15,2.38-1.55,5.12-1.15,7.74" style="fill: none; stroke: #2e3138; stroke-linecap: round; stroke-miterlimit: 10; stroke-width: 1.83px;"/>
        <path d="M338.13,153.24c-2.07.63-3.84,2.17-4.75,4.13" style="fill: none; stroke: #2e3138; stroke-linecap: round; stroke-miterlimit: 10; stroke-width: 1.83px;"/>
        <path d="M332.87,188.76c-1.92.74-3.59,2.14-4.66,3.91" style="fill: none; stroke: #2e3138; stroke-linecap: round; stroke-miterlimit: 10; stroke-width: 1.83px;"/>
        <path d="M331.75,198.61c-.17.47-.73.64-1.22.74-1.07.23-2.16.44-3.26.43-1.36-.02-2.75-.39-4.08-.09" style="fill: none; stroke: #2e3138; stroke-linecap: round; stroke-miterlimit: 10; stroke-width: 1.83px;"/>
        <path d="M195.79,209.3c-2.94.27-5.91.54-8.85.2-2.88-.33-5.66-1.24-8.54-1.59-4.87-.6-9.92.45-14.15,2.95-1.05.62-2.09,1.37-2.67,2.44-.58,1.07-.59,2.54.28,3.41-1.17.63-2,2.06-1.53,3.3.47,1.24,2.53,1.59,3.11.4.17,1.26,1.84,1.73,3.07,1.4,1.23-.34,2.3-1.16,3.56-1.37.22.87.44,1.74.66,2.61,1.66-3.05,5.44-4.27,8.91-4.49,4.26-.26,8.49.56,12.73,1.02,9.25,1,18.59.28,27.87-.45.99-.08,2.04-.18,2.84-.76.88-.65,1.28-1.74,1.76-2.72,1.28-2.56,4.23-5.86,7.15-6.4,4.03-.75,8.33-.83,12.42-.88.3,0,.64-.02.85-.23.13-.13.19-.31.25-.48.47-1.52.46-3.18-.02-4.69-1.84-.72-4.75.64-6.62.99-9.1,1.73-18.29,2.89-27.49,3.85-5.19.54-10.38,1.02-15.58,1.49Z" style="fill: #fff;"/>
        <path d="M245.57,202.77c-21.33,4.65-33.21,5.76-54.97,7.55-1.52.13-3.06.24-4.57.01-1.42-.22-2.77-.74-4.15-1.12-3.01-.84-6.19-1.05-9.28-.62-2.85.39-6.04,1.22-8.41,2.87-.56.39-1.1.81-1.61,1.25-.8.68-1.58,1.49-1.79,2.52-.03.17-.05.34,0,.5.11.41.58.63,1,.6.42-.03,1.46-.25,1.82-.47" style="fill: none; stroke: #2e3117; stroke-linecap: round; stroke-linejoin: round; stroke-width: 1.83px;"/>
        <path d="M171.5,211.77c-1.52.75-3.04,1.5-4.56,2.25-2.45,1.21-5.05,2.56-6.35,4.95-.13.24-.24.49-.26.75-.05.72.66,1.33,1.39,1.37.72.04,1.4-.35,1.94-.84.53-.49.96-1.08,1.49-1.58.59-.56,1.29-.98,1.99-1.4,1.9-1.15,3.84-2.31,6-2.82" style="fill: none; stroke: #2e3117; stroke-linecap: round; stroke-linejoin: round; stroke-width: 1.83px;"/>
        <path d="M171.18,215.24c-2.24,1.15-4.27,2.85-5.92,4.94-.32.41-.65.91-.57,1.45.09.62.7.97,1.24.97,1.04-.01,1.88-.93,2.68-1.68,1.97-1.85,4.71-3.86,7.22-4.25" style="fill: none; stroke: #2e3117; stroke-linecap: round; stroke-linejoin: round; stroke-width: 1.83px;"/>
        <path d="M175.82,216.67c-2.46,1.39-4.51,3.5-5.82,6-.13.24-.25.52-.17.78.21.65,1.21.35,1.67-.15.88-.94,1.44-2.17,2.45-2.97,1.2-.97,2.85-1.17,4.39-1.12,1.54.05,3.09.31,4.62.11.69-.09,1.37-.27,2.06-.32.85-.07,1.7.05,2.54.16,12.33,1.6,23.27,2.03,35.67,1.09" style="fill: none; stroke: #2e3117; stroke-linecap: round; stroke-linejoin: round; stroke-width: 1.83px;"/>
        <path d="M292.63,177.49c-2.39,1.39-4.78,2.78-7.17,4.18" style="fill: none; stroke: #2e3138; stroke-linecap: round; stroke-miterlimit: 10; stroke-width: 1.83px;"/>
        <path d="M285.27,180.67c-.57-.56-1.53-.54-2.24-.17-.71.37-1.23,1.02-1.72,1.64-.54.68-1.08,1.36-1.62,2.04-.09.12-.19.25-.19.4,0,.15.08.28.17.4,3.78,5.4,8.06,10.46,11.28,16.21" style="fill: none; stroke: #2e3138; stroke-linecap: round; stroke-miterlimit: 10; stroke-width: 1.83px;"/>
        <path d="M287.47,180.09c-.99-3.05-6.3-3.54-9.01-4.13-3.99-.85-8.07-1.25-12.14-1.34-7.94-.18-15.86.79-23.7,1.93-9.12,1.33-18.21,2.86-27.29,4.45-8.63,1.52-17.29,2.31-25.78,4.68-.11,8.22-.21,16.44-.32,24.67" style="fill: none; stroke: #2e3138; stroke-linecap: round; stroke-miterlimit: 10; stroke-width: 1.83px;"/>
        <path d="M261.63,189.87c.1-2.12.03-4.25-.24-6.36-.03-.24-.07-.51-.26-.67-.19-.17-.47-.17-.73-.16-4.43.15-8.87.31-13.3.46-.15,0-.33.02-.41.15-.06.09-.05.21-.04.31.29,2.6.58,5.19.88,7.79" style="fill: #ffad0f; stroke: #2e3117; stroke-linecap: round; stroke-linejoin: round; stroke-width: 1.83px;"/>
        <path d="M257.19,183.22c.05,2.63.2,4.3.63,6.9" style="fill: none; stroke: #2e3117; stroke-linecap: round; stroke-linejoin: round; stroke-width: 1.83px;"/>
        <path d="M268.2,188.97c-7.38,1.45-14.86,2.42-22.37,2.88.08,7.08.16,14.17.25,21.25,0,.46.03.98.38,1.29.29.26.71.29,1.11.31,12.84.53,26.16.98,38.04-3.93,1.96-.81,3.29-2.22,4.74-3.76" style="fill: none; stroke: #2e3117; stroke-linecap: round; stroke-linejoin: round; stroke-width: 1.83px;"/>
      </g>
      <path d="M226.53,239.63c3.53.84,7.31.97,10.88.99,4.27.02,8.55.01,12.82.02,19.72.02,39.45.05,59.17.07,7.53,0,15.07.02,22.6.03,3.31,0,6,.07,9.13-1.26,6.15-2.61,10.81-8.5,10.66-15.4-.15-7.05-5.42-13.24-12.08-15.15-3.19-.91-6.77-.51-10.06-.51h-84.89c-11.09,0-31.54-2.37-31.62,14.23-.01,2.27.54,4.5,1.15,6.68,1.53,5.47,6.11,8.63,11.37,10.07.29.08.58.15.87.22Z" style="fill: #fff; stroke: #2e3117; stroke-linecap: round; stroke-linejoin: round; stroke-width: 1.83px;"/>
      <path d="M231.17,234.73c2.58.26,5.28.18,7.8.18,4.68,0,9.35,0,14.03.01,18.03.02,36.06.03,54.09.05,6.89,0,13.78.01,20.66.02,3.03,0,5.37-.05,8.87,0,5.76.08,9.23-3.75,9.22-11.37,0-7.32-5.75-9.72-11.88-10.43-2.96-.34-5.35-.26-8.36-.26h-77.61c-10.14,0-28.84-1.62-28.91,9.72,0,1.55.5,3.07,1.05,4.56.59,1.58,4.47,6.85,11.03,7.52Z" style="fill: #fff; stroke: #2e3117; stroke-linecap: round; stroke-linejoin: round; stroke-width: 1.83px;"/>
      <path d="M351.66,219.81c1.46.27,2.95.39,4.44.34" style="fill: none; stroke: #2e3117; stroke-linecap: round; stroke-linejoin: round; stroke-width: 1.83px;"/>
      <path d="M351.89,227.65h4.1" style="fill: none; stroke: #2e3117; stroke-linecap: round; stroke-linejoin: round; stroke-width: 1.83px;"/>
      <path d="M163.03,250.53l151.05-5.12s18.64-2.05,0,6.49c-18.64,8.54-60.63,23.22-93.07,28-32.44,4.78-89.8,11.61-91.16-10.93-1.37-22.53,33.19-18.44,33.19-18.44Z" style="fill: none; stroke: #2e3117; stroke-linecap: round; stroke-linejoin: round; stroke-width: 1.83px;"/>
      <line x1="356.25" y1=".91" x2="432.01" y2=".91" style="fill: none; stroke: #2e3117; stroke-linecap: round; stroke-linejoin: round; stroke-width: 1.83px;"/>
      <line x1="356.25" y1="343.4" x2="445.67" y2="343.4" style="fill: none; stroke: #2e3117; stroke-linecap: round; stroke-linejoin: round; stroke-width: 1.83px;"/>
      <path d="M356.62,113.38c2.08-8.45,7.22-16.12,14.26-21.24,7.03-5.13,15.91-7.67,24.59-7.06,6.04-9.99,16.77-17.01,28.34-18.53l49.18.64" style="fill: none; stroke: #2e3117; stroke-linecap: round; stroke-linejoin: round; stroke-width: 1.83px;"/>
      <path d="M324.13,48.29c1.15-3.1,2.31-5.02,4.01-7.85,3-4.99,7.74-8.85,13.14-11,2.7-1.07,5.57-1.73,8.47-1.87,1.63-.08,2.45.27,3.41-1.2.66-1.01.82-2.44.96-3.61.5-4.29.85-8.7,2.63-12.64,1.79-3.94,5.4-7.38,9.72-7.57" style="fill: none; stroke: #2e3117; stroke-linecap: round; stroke-linejoin: round; stroke-width: 1.83px;"/>
      <path d="M358.7,183.18c14.94,5.14,31.29,6.09,46.72,2.73.81-.18,1.63-.36,2.45-.29.98.09,1.88.54,2.78.94,9.87,4.48,21.7,3.84,31.27-1.25h41.66" style="fill: none; stroke: #2e3117; stroke-linecap: round; stroke-linejoin: round; stroke-width: 1.83px;"/>
      <path d="M348.42,264.85c4.88,14.36,19.96,24.55,35.1,23.73,6.62,9.77,19.83,14,31.08,10.43h47.12" style="fill: none; stroke: #2e3117; stroke-linecap: round; stroke-linejoin: round; stroke-width: 1.83px;"/>
      <path d="M341,274.49c-7.48,14.05-7.03,32.01,1.15,45.67-2.15,8.65,1.77,18.46,9.3,23.25" style="fill: none; stroke: #2e3117; stroke-linecap: round; stroke-linejoin: round; stroke-width: 1.83px;"/>
      <g>
        <path d="M5.02,203.13c-1.23,2.9-2.46,5.79-3.69,8.69-.25.6-.51,1.24-.37,1.87.12.55.53,1.01.94,1.44,1.72,1.79,3.63,3.42,5.71,4.86.77.54,1.64,1.07,2.62,1.06.73,0,1.41-.32,2.05-.64,1.23-.61,2.42-1.28,3.58-1.99.82-.5,1.63-1.04,2.21-1.76.96-1.18,1.17-2.81,1.43-4.26.33-1.83.46-3.7.39-5.57-.02-.47-.05-.97-.3-1.37-.25-.41-.76-.68-1.2-.51-.54.22-.64.92-.69,1.5-.06.74-.16,1.47-.3,2.19-.15.78-.36,1.59-.86,2.21-.5.63-1.34,1.04-2.11.8-.25-.89-.25-1.78-.29-2.7-.08-1.91-.16-3.82-.23-5.73-2.85.19-6.04.13-8.89-.1Z" style="fill: #fff; fill-rule: evenodd; stroke: #2e3117; stroke-linecap: round; stroke-miterlimit: 10; stroke-width: 1.83px;"/>
        <path d="M17.49,157.26h.02c1.31,0,2.38,1.07,2.38,2.38v50.89c0,1.31-1.07,2.38-2.38,2.38h-.02c-1.31,0-2.38-1.07-2.38-2.38v-50.89c0-1.31,1.07-2.38,2.38-2.38Z" transform="translate(13.75 370.95) rotate(-173.44)" style="fill: #ff6d04; stroke: #2e3117; stroke-linecap: round; stroke-miterlimit: 10; stroke-width: 1.83px;"/>
        <path d="M8.22,217.14c1.03,1.1,2.38,1.9,3.85,2.26.78.19,1.23.14,2.03.04" style="fill: none; fill-rule: evenodd; stroke: #2e3117; stroke-linecap: round; stroke-miterlimit: 10; stroke-width: 1.83px;"/>
        <path d="M12.09,216c.57.33,1.15.67,1.78.87,1.38.44,2.97.18,4.13-.69" style="fill: none; fill-rule: evenodd; stroke: #2e3117; stroke-linecap: round; stroke-miterlimit: 10; stroke-width: 1.83px;"/>
      </g>
    </g>
  </g>
</svg>