<?xml version="1.0" encoding="UTF-8"?>
<svg id="_圖層_2" data-name="圖層 2" xmlns="http://www.w3.org/2000/svg" viewBox="0 0 286.41 321.99">
  <g id="_圖層_1-2" data-name="圖層 1">
    <g>
      <g>
        <g>
          <circle cx="121.49" cy="121.49" r="120.5" transform="translate(-50.32 121.49) rotate(-45)" style="fill: #ffad0f; stroke: #2e3138; stroke-linecap: round; stroke-miterlimit: 10; stroke-width: 1.97px;"/>
          <circle cx="121.49" cy="121.49" r="79.43" transform="translate(-50.32 121.49) rotate(-45)" style="fill: #ffd88e; stroke: #2e3138; stroke-linecap: round; stroke-miterlimit: 10; stroke-width: 1.97px;"/>
          <circle cx="121.49" cy="121.49" r="37.12" transform="translate(-24.66 31.16) rotate(-13.28)" style="fill: #ffefd1; stroke: #2e3138; stroke-linecap: round; stroke-miterlimit: 10; stroke-width: 1.97px;"/>
        </g>
        <g>
          <line x1="132.41" y1="121.49" x2="110.56" y2="121.49" style="fill: none; stroke: #2e3138; stroke-linecap: round; stroke-miterlimit: 10; stroke-width: 1.97px;"/>
          <line x1="121.49" y1="110.56" x2="121.49" y2="132.41" style="fill: none; stroke: #2e3138; stroke-linecap: round; stroke-miterlimit: 10; stroke-width: 1.97px;"/>
        </g>
      </g>
      <g>
        <path d="M83.04,71.81c2.14-3.11,4.93-5.7,7.7-8.26,2.36-2.18,4.76-4.39,7.65-5.8,2.03-.99,4.24-1.55,6.43-2.1,3.44-.87,6.88-1.74,10.32-2.6,1-.25,2.05-.5,3.04-.23.84.23,1.52.82,2.25,1.29,4.21,2.78,10.01,2.2,14.16,5.08,3.75,2.6,5.27,7.56,4.97,12.12-.03.4-.07.81-.25,1.17-.44.87-1.62,1.16-2.55.84s-1.61-1.11-2.11-1.94c-.99-1.64-1.44-3.59-2.6-5.12-1.16-1.53-3.5-2.49-4.99-1.28-.75.61-1.07,1.59-1.31,2.52-.38,1.49-.66,3-.82,4.53-.04.38-.07.77.01,1.15.15.65.64,1.16,1.1,1.64,2.33,2.44,4.57,5.15,5.43,8.41.34,1.3.22,3.06-1.05,3.48-.48.16-1.01.07-1.5-.03-1.71-.34-3.39-.79-5.04-1.34-1.49-.5-2.97-1.09-4.5-1.44-1.84-.43-3.74-.51-5.63-.6-4.6-.21-9.2-.42-13.8-.62-1.07,2.99-1.83,6.08-2.27,9.23-6.13-2.39-13.07-2.22-19.06-4.93-1.41-.64-1.56-1.41-1.1-2.73.51-1.45.97-2.91,1.51-4.34,1.06-2.82,2.31-5.59,4.02-8.08Z" style="fill: #fff;"/>
        <path d="M255.91,173.29c6.5,5.51,13.14,11.19,17.31,18.62,4.32,7.72,5.63,16.72,6.71,25.5,3.96,32.29,5.83,64.84,5.57,97.37-9.48,6.64-21.92,8.87-33.12,5.95-6.14-1.6-11.81-4.63-17.88-6.46-8.94-2.7-18.43-2.71-27.76-3.16-29.37-1.42-58.52-7.42-86.07-17.72,3.24-30.38,5.14-62.15,8.38-92.53.05-.5.2-.99.38-1.46.09-.23.22-.46.3-.69.09-.25.12-.52.18-.78.06-.24.11-.48.12-.73.01-.28-.04-.55-.06-.83-.03-.39,0-.78,0-1.17,0-.44-.04-.87-.08-1.31-.02-.26-.05-.53-.16-.78-.11-.23-.24-.24-.46-.32-.43-.17-.86-.32-1.3-.48-1.45-.51-2.93-.97-4.4-1.41-1.53-.46-3.06-.9-4.59-1.36-1.38-.41-2.76-.83-4.12-1.31-6.12-2.15-12.25-4.3-18.59-5.67-2.82-.61-5.7-1.06-8.4-2.09-1.63-.62-3.17-1.45-4.76-2.17-1.87-.83-3.8-1.51-5.73-2.18-3.96-1.38-8.07-2.58-11.89-4.29-3.15-1.41-6.34-2.09-8.34-5.23-2.21-3.47-1.76-7.94-1.23-12.03.16-1.24.32-2.48.48-3.72.19-1.47.38-2.94.63-4.4.62-3.64,1.61-7.2,2.59-10.76,1.71-6.18,3.42-12.38,5.6-18.41.54-1.48,1.34-2.66,2.05-4.03.66-1.29.89-2.97,1.28-4.37.91-3.23,1.84-6.45,2.8-9.67.71-2.38,1.44-4.75,2.18-7.12.45-1.42.76-4.32,2.36-4.91.93-.34,1.97-.14,2.94.06,1.07.23,2.14.45,3.22.69,5.63,1.23,11.22,2.63,16.76,4.21.84.24,1.71.5,2.38,1.05,1.56,1.3.38,2.59.08,4.13-.45,2.28-.74,4.61-1.11,6.91-.74,4.61-1.47,9.22-2.21,13.82-1.15,7.16-1.85,14.57-3.83,21.52-.4,1.41-.44,3.12.61,4.14,1.55,1.52,4.12,1.36,6.1,1.63,2.55.35,5.09.81,7.63,1.25,2.74.47,5.5.91,8.27,1.12,2.76.21,5.42-.2,8.13-.17,5.89.07,11.77.53,17.66.4,7.53-.17,15.06-.6,22.59-.54.45,0,.92.01,1.33.19.41.18.77.58.75,1.03-.02.81-.69,1.35-.67,2.22.01.56.16,1.15.25,1.71.24,1.54.49,3.08.75,4.61.41,2.41.85,4.82,1.24,7.23.57,3.49,1.59,6.14,5.66,6.58,2.32.25,4.66-.11,6.96-.47,6.49-1.01,12.33-3.08,18.28-5.89,7.96-3.77,14.89-9.74,22.49-14.25.58-.35,1.2-.7,1.88-.69.92,0,1.69.68,2.37,1.31,4.52,4.21,9.15,8.5,14.66,11.39,5.61,2.95,9.92,6.73,14.82,10.88Z" style="fill: #1f89bd;"/>
        <path d="M152.07,236.61c-.12.76-.27,1.56-.58,1.98-.42.55-1.03.32-1.58.03-2.26-1.17-4.5-2.97-6.74-4.77-1.54-1.24-3.09-2.48-4.63-3.73-.53-.42-1.1-.93-1.42-1.95-.32-1.02-.27-2.21-.21-3.26.6-9.87,1.44-19.56,2.51-29.05,4.42,2.22,8.83,5.37,13.15,9.37,1.35,1.25,1.76,1.97,1.69,4.62-.08,3.08-.14,6.17-.31,9.2-.34,6.1-.96,11.99-1.87,17.57Z" style="fill: #ffad0f;"/>
        <g>
          <path d="M163,51.31c-1.69,3.71-3.38,7.42-5.07,11.13-2.52,5.53-5.05,11.09-6.91,16.88-1.1,3.43-1.97,6.94-2.82,10.44-1.55,6.36-3.08,12.89-2.37,19.4.18,1.65.5,3.29,1.06,4.85,1.62,4.57,5.15,8.26,9.19,10.94,2.23,1.48,4.62,2.68,7.06,3.76,1.25.55,2.58,1.25,3.89,1.61.83.22,2.1-.02,2.84.29,2.86,1.22.69,11.85.3,14.65-.07.53-.21,1.14-.7,1.36-.32.15-.74.08-1,.32-.22.21-.22.55-.2.84.38,7.54,1.21,15.06,2.48,22.5,4.9.4,9.79-.61,14.61-1.63,2.31-.49,4.61-.97,6.92-1.46,2.45-.52,4.92-1.04,7.23-2,2.46-1.03,4.68-2.53,6.88-4.04,5.34-3.66,10.62-7.4,15.85-11.21.36-.26.72-.53.93-.92.24-.46.21-1.01.21-1.53-.03-4.91.76-10.28,1.75-15.1.8-3.92.45-8.01,1.62-11.85,3.13-.63,5.67-1.33,8.55-2.69,1.52-.71,3.05-1.57,4-2.95,1.54-2.25,1.1-5.48-.59-7.62-1.69-2.14-4.39-3.3-7.09-3.69s-5.45-.09-8.16.21c-.58.06-1.18.13-1.74-.05-.52-.16-.95-.51-1.37-.86-6.93-5.9-11.57-14.41-12.78-23.43-.52-3.86-.43-7.8-1.27-11.6-.91-4.17-2.92-8.41-1.73-12.51-3.83.76-7.67,1.51-11.5,2.27-2.52.5-5.05,1-7.62,1.03-2.64.04-5.27-.42-7.83-1.06-5.23-1.31-10.02-3.46-14.62-6.27Z" style="fill: #fff;"/>
          <path d="M181.66,22.53c-1.25-2.58-1.56-6-4.1-7.32-1.63-.85-3.65-.46-5.32.33-2.27,1.07-4.2,2.83-5.48,4.99-2.68-2.32-6.58-3.15-9.97-2.13-3.4,1.02-6.19,3.86-7.16,7.27-1.56,5.51,1.49,11.2,4.71,15.93,4.15,6.1,9.52,10.11,16.32,13,5.37,2.29,11.2,3.5,17.03,3.5,5.58,0,11.34-.11,16.66-2.04-.38,16.82,5.38,33.72,15.94,46.81.57.7,1.19,1.42,2.03,1.73.72.26,1.52.18,2.28.1,2.75-.29,5.5-.58,8.25-.88,1.13-.12,2.32-.26,3.23-.95.78-.59,1.24-1.5,1.66-2.39,3.9-8.15,7.17-16.73,8.55-25.69.42-2.72.66-5.46.68-8.21.02-2.44.5-4.82.37-7.29-.26-4.96-1.75-9.84-4.22-14.14-.75-1.31-1.6-2.57-2.63-3.68-.68-.74-1.44-1.4-2.19-2.06-4.17-3.65-8.12-7.25-13.45-9.13-3.47-1.22-7.14-1.75-10.81-2.09-6.59-.61-13.23-.63-19.84-.41-5.15.17-9.93.13-12.55-5.25Z" style="fill: #4b4c4e;"/>
          <path d="M223.06,105.39c-7.57-5.31-12.28-13.95-14.62-22.89-2.34-8.94-2.56-18.29-2.76-27.53-13.67,5.57-30.01,4.08-42.45-3.86-7.97-5.09-14.68-13.86-13.47-23.24.53-4.08,2.81-8.16,6.57-9.82,3.77-1.66,8.95-.07,10.33,3.81.7-2.83,2.39-5.59,5.07-6.75,2.68-1.16,6.34-.14,7.39,2.59.41,1.06.4,2.23.64,3.35.84,3.86,4.67,6.48,8.56,7.15,3.89.67,7.86-.21,11.71-1.09,0,0,35.77-2.8,45.12,22.11,9.35,24.91-9.4,53.46-9.4,53.46" style="fill: none; stroke: #2e3138; stroke-linecap: round; stroke-miterlimit: 10; stroke-width: 1.97px;"/>
          <path d="M223.13,106.43c3.81-3.02,9.4-3.57,13.72-1.36,2.78,1.42,5.15,4.39,4.53,7.45-.43,2.11-2.14,3.71-3.95,4.87-4.42,2.84-10.27,3.83-15.02,1.58" style="fill: none; stroke: #2e3138; stroke-linecap: round; stroke-miterlimit: 10; stroke-width: 1.97px;"/>
          <path d="M163.23,51.11s-44.28,73.14,7.4,79.96" style="fill: none; stroke: #2e3138; stroke-linecap: round; stroke-miterlimit: 10; stroke-width: 1.97px;"/>
          <line x1="225.6" y1="121.49" x2="222.82" y2="150.52" style="fill: none; stroke: #2e3138; stroke-linecap: round; stroke-miterlimit: 10; stroke-width: 1.97px;"/>
          <path d="M176.2,78.44c-.9,3.62-2.75,7.01-5.32,9.72-.8.85-1.71,1.69-2.03,2.81-.19.68-.15,1.42.03,2.11.75,2.9,4.13,4.82,7.01,3.99" style="fill: none; stroke: #2e3138; stroke-linecap: round; stroke-miterlimit: 10; stroke-width: 1.97px;"/>
          <path d="M187.46,78.44c4.08.58,7.98,2.35,11.1,5.05" style="fill: none; stroke: #2e3138; stroke-linecap: round; stroke-miterlimit: 10; stroke-width: 1.97px;"/>
          <path d="M170.71,74.53c-3.87-1.6-8.18-2.09-12.31-1.42" style="fill: none; stroke: #2e3138; stroke-linecap: round; stroke-miterlimit: 10; stroke-width: 1.97px;"/>
          <path d="M183.4,109.99c1.26.85,1.84,2.57,1.35,4.01" style="fill: none; stroke: #2e3138; stroke-linecap: round; stroke-miterlimit: 10; stroke-width: 1.97px;"/>
          <path d="M229.05,110.01c.55-.61,1.49-.63,2.31-.6.19,0,.39.01.56.08.35.13.58.48.71.83.38,1.07-.11,2.38-1.1,2.93" style="fill: none; stroke: #2e3138; stroke-linecap: round; stroke-miterlimit: 10; stroke-width: 1.97px;"/>
          <path d="M173.43,30.93c3.6,3.82,8.39,6.52,13.52,7.62" style="fill: none; stroke: #2e3138; stroke-linecap: round; stroke-miterlimit: 10; stroke-width: 1.97px;"/>
          <path d="M158.67,29.83c-.3,4.28,1.29,8.65,4.28,11.73" style="fill: none; stroke: #2e3138; stroke-linecap: round; stroke-miterlimit: 10; stroke-width: 1.97px;"/>
          <path d="M220.75,64.81c.01,4.1,1.42,8.17,3.94,11.41" style="fill: none; stroke: #2e3138; stroke-linecap: round; stroke-miterlimit: 10; stroke-width: 1.97px;"/>
          <path d="M238.2,73.87c.75.65.66,1.81.51,2.79-.34,2.15-.71,4.32-1.52,6.35-1,2.51-2.68,4.81-3.06,7.49" style="fill: none; stroke: #2e3138; stroke-linecap: round; stroke-miterlimit: 10; stroke-width: 1.97px;"/>
          <path d="M192.79,88.5c-.96.56-2.17.66-3.21.27-1.04-.39-1.88-1.27-2.23-2.32" style="fill: none; stroke: #2e3138; stroke-linecap: round; stroke-miterlimit: 10; stroke-width: 1.97px;"/>
          <path d="M165.6,79.95c-.65.84-1.83,1.23-2.85.93s-1.81-1.26-1.91-2.31" style="fill: none; stroke: #2e3138; stroke-linecap: round; stroke-miterlimit: 10; stroke-width: 1.97px;"/>
          <path d="M176.96,108.34c1.59,1.93,2.08,4.6.64,6.61-.4.57-.96,1.07-1.67,1.37-.73.31-1.57.38-2.39.41-5.34.22-10.76-.94-15.27-3.29-.83-.43-1.69-.96-1.94-1.74-.26-.83,3.53-8.71,5.37-9.44,2.4-.95,13.67,4.14,15.26,6.07Z" style="fill: none; stroke: #2e3138; stroke-linecap: round; stroke-miterlimit: 10; stroke-width: 1.97px;"/>
          <path d="M159.57,99.59c-.42-.04-.85-.05-1.27-.02-.45.03-.91.1-1.31.33-.39.22-.71.62-.74,1.08" style="fill: none; stroke: #2e3138; stroke-linecap: round; stroke-miterlimit: 10; stroke-width: 1.97px;"/>
        </g>
        <path d="M139.16,195.7c-.99,10.28-1.9,20.62-2.73,31.03-.04.47-.07.98.05,1.46.16.63.51.96.82,1.21l12.94,10.57c1.04.85,2.03-.14,2.19-2.21l2.34-30.11c-5.17-4.4-10.4-7.95-15.6-11.96Z" style="fill: none; stroke: #2e3138; stroke-linecap: round; stroke-linejoin: round; stroke-width: 1.97px;"/>
        <path d="M154,214.03c-5.17-3.13-10.31-6.97-15.38-11.49" style="fill: none; stroke: #2e3138; stroke-linecap: round; stroke-linejoin: round; stroke-width: 1.97px;"/>
        <path d="M130.43,78.18c-.36,2.62,1.48,5.04,4.1,5.39,2.62.36,5.04-1.48,5.39-4.1.36-2.62-1.48-5.04-4.1-5.39-2.62-.36-5.04,1.48-5.39,4.1Z" style="fill: #ff6d04; stroke: #2e3138; stroke-linecap: round; stroke-miterlimit: 10; stroke-width: 1.97px;"/>
        <path d="M132.37,74.9c1.73,2.45,3.25,5.04,4.55,7.73" style="fill: none; stroke: #2e3138; stroke-linecap: round; stroke-miterlimit: 10; stroke-width: 1.97px;"/>
        <path d="M123.47,55.68c2.76.75,5.53,1.5,8.29,2.25,1.51.41,3.1.86,4.18,1.99.92.96,1.34,2.28,1.69,3.55.62,2.25,1.12,4.53,1.49,6.84.2,1.26.26,2.8-.78,3.54-.85.61-2.11.34-2.91-.35-.8-.68-1.25-1.68-1.68-2.64-.62-1.38-1.24-2.77-1.86-4.16-.24-.55-.5-1.11-.95-1.5-.97-.86-2.46-.66-3.73-.4" style="fill: none; stroke: #2e3138; stroke-linecap: round; stroke-miterlimit: 10; stroke-width: 1.97px;"/>
        <path d="M110.82,54.09c1.65-.44,3.3-.88,4.95-1.32.48-.13.98-.26,1.48-.2.59.07,1.11.4,1.6.73,1.6,1.04,3.19,2.07,4.79,3.11.78.51,1.58,1.03,2.14,1.77,1.15,1.51,1.11,3.58.97,5.47-.33,4.67-1.13,9.71-4.53,12.93-.81.77-2.22,1.37-2.94.51-.29-.35-.35-.83-.39-1.29-.41-4.81-.11-9.69.89-14.41" style="fill: none; stroke: #2e3138; stroke-linecap: round; stroke-miterlimit: 10; stroke-width: 1.97px;"/>
        <path d="M102.06,56.51c2.21-1.2,4.87-1.37,7.35-.94s4.82,1.43,7.11,2.46c1.13.51,2.38,1.17,2.73,2.36.17.58.1,1.21,0,1.81-.46,3.05-1.25,6.05-2.37,8.92-.57,1.47-1.33,3.03-2.75,3.73-1.97.98-4.31-.07-6.25-1.11" style="fill: none; stroke: #2e3138; stroke-linecap: round; stroke-miterlimit: 10; stroke-width: 1.97px;"/>
        <path d="M104.48,67.34c-.68,1.48-.88,3.18-.57,4.78.1.51.3,1.08.77,1.3.31.15.68.11,1.02.06,1.46-.23,2.96-.77,3.88-1.94.86-1.09,1.07-2.55,1.11-3.93.04-1.58-.11-3.19-.68-4.67-.78-2.02-2.34-3.73-4.28-4.69-1.91-.94-4.09-1.15-6.21-1.34-2.56-.23-4.21,2.2-6.11,3.94-3.2,2.92-6.41,5.86-9.01,9.32s-6.81,12.21-7.18,16.52" style="fill: none; stroke: #2e3138; stroke-linecap: round; stroke-miterlimit: 10; stroke-width: 1.97px;"/>
        <path d="M106.3,68.85c-.31-1.64-1.37-3.12-2.82-3.96-1.01-.59-2.18-.85-3.33-1.07" style="fill: none; stroke: #2e3138; stroke-linecap: round; stroke-miterlimit: 10; stroke-width: 1.97px;"/>
        <path d="M124.6,74.84c2.92,1.62,5.34,4.13,6.87,7.1.42.82.78,1.7.76,2.62-.01.92-.48,1.88-1.32,2.25-.8.35-1.72.11-2.55-.16-2.97-.98-5.84-2.35-8.94-2.82-3.8-.57-7.68.26-11.52-.03-2.72-.21-5.37-.98-7.98-1.77-2.83-.86-5.73-1.81-7.94-3.78" style="fill: none; stroke: #2e3138; stroke-linecap: round; stroke-miterlimit: 10; stroke-width: 1.97px;"/>
        <path d="M99.6,83.06c-1.11,4.39-.93,5.74-1.72,8.78" style="fill: none; stroke: #2e3138; stroke-linecap: round; stroke-miterlimit: 10; stroke-width: 1.97px;"/>
        <path d="M100.71,93.14c-7.69-2.68-15.64-4.42-23.51-6.45-.49-.13-1.01-.26-1.48-.07-.68.28-.99,1.12-1.23,1.87-3.78,12.1-7.55,24.2-11.33,36.3-3.41,10.93-6.85,22.01-7.64,33.46-.22,3.22-.11,6.8,1.93,9.1,1.06,1.2,2.52,1.88,3.94,2.52,21.05,9.42,46.22,17.63,68.49,23.18" style="fill: none; stroke: #2e3138; stroke-linecap: round; stroke-miterlimit: 10; stroke-width: 1.97px;"/>
        <path d="M101.17,93.35c-3.13,17.04-4.19,32.41-8.38,50.78" style="fill: none; stroke: #2e3138; stroke-linecap: round; stroke-miterlimit: 10; stroke-width: 1.97px;"/>
        <path d="M74.83,146.53c2.82-.64,5.63-1.28,8.45-1.92.93-.21,1.86-.42,2.81-.45,12.66-.38,26.04,2.95,38.8,3.47,14.42.59,28.87.32,43.26-.79" style="fill: none; stroke: #2e3138; stroke-linecap: round; stroke-miterlimit: 10; stroke-width: 1.97px;"/>
        <path d="M171.37,130.1c-.85,6.2-1.42,12.43-1.71,18.68" style="fill: none; stroke: #2e3138; stroke-linecap: round; stroke-miterlimit: 10; stroke-width: 1.97px;"/>
        <path d="M130.58,186.6c-3.81,35.12-7.39,70.26-10.74,105.42" style="fill: none; stroke: #2e3138; stroke-linecap: round; stroke-miterlimit: 10; stroke-width: 1.97px;"/>
        <path d="M285.42,314.1c.1-25.48-1.1-50.97-3.57-76.33-2.12-21.75-.46-46.08-19.49-60.06-12.65-9.3-25.3-18.59-37.95-27.89-8.56,3.51-19.7,12.77-28.26,16.28-2.85,1.17-5.7,2.34-8.68,3.1-5.65,1.45-11.57,1.39-17.4,1.33-1.53-7.32-2.48-14.76-2.83-22.23" style="fill: none; stroke: #2e3138; stroke-linecap: round; stroke-miterlimit: 10; stroke-width: 1.97px;"/>
        <path d="M242.17,242.79c1.13,21.37.56,42.82-1.71,64.09" style="fill: none; stroke: #2e3138; stroke-linecap: round; stroke-miterlimit: 10; stroke-width: 1.97px;"/>
      </g>
    </g>
  </g>
</svg>