<?xml version="1.0" encoding="UTF-8"?>
<svg id="_圖層_2" data-name="圖層 2" xmlns="http://www.w3.org/2000/svg" viewBox="0 0 324.14 408.54">
  <g id="_圖層_1-2" data-name="圖層 1">
    <g>
      <path d="M260.23,381.19c-1.84,1.52-4.13,2.45-5.84,4.11-2.18,2.11-3.19,5.15-3.84,8.12-.84,3.87-.97,8.5,1.97,11.14,1.77,1.59,4.27,2.07,6.63,2.35,4.39.52,8.83.61,13.23.25,1.46-.12,2.96-.3,4.23-1.02,1.45-.82,2.44-2.25,3.38-3.63,2.05-3.01,4.1-6.01,6.14-9.02,2.01-2.95,4.03-5.92,5.33-9.24,1.3-3.32,1.83-7.06.78-10.46.03.09-18.47-.02-20.25-.22-2.45-.28-5.05-1.45-6.8.55-1.93,2.21-2.56,5.07-4.98,7.06Z" style="fill: #fff;"/>
      <path d="M222.01,374.34c-.24,4.68.67,9.33,1.56,13.93.2,1.04.43,2.14,1.12,2.94,1.2,1.39,3.29,1.43,5.12,1.37,4.24-.15,10.18-1.32,12.45-5.35.91-1.61,1.25-3.49,2.12-5.12,3.11-5.84,7.54-11.07,7.63-18.06.01-.8-.1-1.72-.76-2.18-.46-.32-1.06-.31-1.61-.31-4.21.06-8.43-.28-12.58-1.01-3.81-.67-8.11-1.7-10.72,1.68-2.73,3.53-4.11,7.66-4.34,12.11Z" style="fill: #fff;"/>
      <path d="M145.45,166.65c.21.26.47.52.81.58.43.08.86-.22,1.08-.6.22-.38.27-.83.31-1.27.24-2.31.43-4.63.58-6.95.14-2.17-.42-2.06-2.08-.94-2.77,1.87-2.69,6.68-.7,9.17Z" style="fill: #fff;"/>
      <path d="M226.59,37.72c.16-.06.33-.11.51-.15.62-.14,1.24-.28,1.85-.42.41-.09.83-.19,1.26-.18,1.08.01,2.08.68,2.71,1.56s.94,1.94,1.15,3c.53,2.67-1.22,4.85-1.21,7.44,0,1.07.38,2.11.79,3.1.75,1.81,1.64,3.56,2.65,5.24.88,1.45,2.54,3.01,3.02,4.64.22-.4.79-.5,1.22-.33.43.16.75.52,1.06.86.57.64,1.14,1.27,1.71,1.91,1.19,1.33,3.1.08,4.47-.16,1.84-.31,3.79.41,5.58.87,4.11,1.04,8.2,2.4,11.76,4.75,1.36.9,2.63,1.93,3.84,3.01,7.08,6.31,12.44,14.55,15.35,23.58.86,2.66,1.21,5.39,2.02,8.09.92,3.06,2.14,6.02,3.23,9.02,4.55,12.58,5.19,25.54,7.8,38.47,1.37,6.79,2.73,13.59,4.1,20.38.78,3.89,1.39,7.97,1.9,11.9.42,3.23.84,6.46,1.61,9.62.62,2.56,1.47,5.07,2.01,7.66.48,2.31.71,4.66.94,7,.2,2.1.41,4.2.61,6.3.37,3.79,2.28,7.15,2.99,10.9.64,3.39.55,6.88,1.09,10.28.53,3.28,1.63,6.44,2.73,9.57,2.31,6.57,4.63,13.17,7.98,19.27-6.26,1.5-12.51,3-18.77,4.5-7.25,1.74-14.21,4.66-21.71,5.37-2.77.26-5.56.24-8.32.53-1.75.19-3.49.51-5.24.76-5.1.73-10.28.87-15.41.44-2.07-.18-3.77.02-4.84-1.92-.81-1.46-1.03-3.15-1.63-4.69-.51-1.32-1.03-2.65-1.34-4.03-.39-1.71-.46-3.48-.76-5.21-.56-3.24-2.06-5.98-3.2-9.01-.92-2.47-1.71-5.42-2.18-8.05-.32-1.78-.34-3.6-.6-5.39-.72-5.01-3.26-9.61-4.06-14.61-.3-1.89-.35-3.81-.52-5.72-.26-2.92-.81-5.81-1.36-8.7-.56-2.92-2.76-4.6-3.18-7.47-.52-3.6.04-7.23.12-10.83.02-.93.07-1.9.5-2.73.43-.83,1.35-1.48,2.26-1.31.22-4.01.34-8.02.36-12.04,0-.58-.04-1.25-.49-1.6-.23-.18-.53-.24-.81-.3-1.04-.21-2.08-.42-3.11-.63-.12-1.83-.37-3.65-.73-5.44-.06-.32-.15-.66-.42-.84-.19-.13-.44-.14-.67-.15-1.25-.04-2.49-.07-3.74-.11.73.02.4,6.23.22,6.84-4.68.11-9.4.21-14.09.33-.79.02-1.64.02-2.26-.47-.11-1.4.2-3.65-.61-4.81-.82-1.16-2.82-1.33-4.1-1.34-6.32-.06-12.9.59-18.73-1.87.22-5.2.43-10.4.65-15.59-2.43,1.01-7.76-3.22-9.8-4.41-1.24-.72-2.74-1.08-1.6-2.48.6-.73,2.08-1.23,2.92-1.62,2.18-1.02,4.5-1.36,6.83-1.96,2.12-.54,4.26-1.4,5.68-3.06,1.62-1.89,2.05-4.48,2.43-6.94.46-3.02.54-6.33,1.33-9.23.47-1.71.94-3.42,1.41-5.13.4-1.45,1.35-3.4,1.35-4.9.94-3.43,1.9-6.87,3.41-10.09,1.44-3.05,2.58-6,4.97-8.38,1.08-1.07,2.28-2.06,3.03-3.39,1.71-3.04-1.55-3.42-3.87-3.03-1.95.33-3.93.65-5.9.45-3.55-.36-6.75-2.41-9.25-4.96-2.5-2.55-4.42-5.6-6.45-8.53-1.66-2.39-3.58-4.66-5.95-6.35,1.69-3.93,1.55-8.14,1.02-12.38-.14-1.14-.29-2.3-.73-3.36-.45-1.08-1.17-2.02-1.88-2.96-2.23-2.99-4.28-6.11-6.32-9.23-.38-.59-.78-1.27-.6-1.95.48-1.73,3.27-4.01,4.6-5.18,1.95-1.72,4.21-3.11,6.73-3.82,2.54-.72,5.22-.72,7.85-.94,5.69-.48,11.3-1.99,16.46-4.45.5-.24,1.01-.49,1.56-.55.95-.1,1.85.39,2.69.86,2.13,1.2,4.28,2.43,6.02,4.14,2.18,2.14,4.64,4.83,5.87,7.66.5,1.14.81,2.38,1.53,3.4.48.68,1.12,1.23,1.59,1.92.78,1.15.68,1.9,2.01,1.37,1.09-.44,1.9-1.21,3.08-1.62Z" style="fill: #fff;"/>
      <path d="M231.88,204.83c-1.13-.02-2.26-.14-3.36-.38-.99-.21-2.06-.58-2.56-1.46-.27-.48-.34-1.04-.39-1.59-.48-4.8-.44-9.65.1-14.44.05-.44,3.44.09,3.86.77.75,1.22.41,3.57.52,4.95.35,4.08.96,8.14,1.83,12.15Z" style="fill: #1f89bd; fill-rule: evenodd;"/>
      <path d="M224,166.63c.14,2.28.16,4.56.07,6.84,1.08-.45,2.68-.83,3.85-.82.33-1.92.29-3.89-.11-5.79-1.13-.16-2.7.06-3.81-.22Z" style="fill: #1f89bd; fill-rule: evenodd;"/>
      <path d="M218.12,98.81c1,.95,1.49,0,2.01-.75.77-1.09,1.72-2.04,2.39-3.2.8-1.37,1.41-3.03,2.85-3.69.23.35.46.7.69,1.04.16.25-.2,1.21-.22,1.6-.06.89-.08,1.78-.12,2.67-.08,1.86-.17,3.72-.25,5.58-.16,3.64-.33,7.28-.49,10.91-.36,7.89.29,15.8.14,23.72,0,.33-.02.68-.22.94-.16.2-.41.32-.65.4-.68.25-1.67.62-2.37.71-1.41.19-1.36-.67-1.57-1.86-.42-2.43-.87-4.87-1.33-7.29-.93-4.85-1.96-9.69-3.12-14.5-.85-3.5-1.01-7.17-1.88-10.72-.89-3.62-1.91-7.23-2.2-10.96.02.23,2.12,1.3,2.41,1.5.86.61,1.82,1.27,2.53,2.06.41.46.87,1.31,1.4,1.81Z" style="fill: #1f89bd; fill-rule: evenodd;"/>
      <path d="M299.22,271c-3.79,31.05-4.67,65.29-5.96,96.55-.11,2.75-.47,4.3-1.06,6.99-7.83.44-15.7.11-23.46-.96-.64-.09-1.33-.22-1.74-.71-.31-.38-.38-.9-.43-1.39-.97-8.57-1.94-17.15-2.91-25.72-.49-4.3-.97-8.62-.92-12.94,0-2.5.48-5.01.45-7.49-.03-2.58-.63-5.24-.94-7.81-.64-5.27-1.2-10.55-1.67-15.84-.36-4.01-.68-8.02-.94-12.04-.24-3.57.06-7.62-.74-11.07-1.86,2.26-.43,6.98-.62,9.73-.24,3.61-.65,7.2-1.12,10.79-.91,7.02-2.08,14.01-2.82,21.05-1.41,13.44-1.93,26.95-3.19,40.43-.02.25-.06.52-.24.7-.2.2-.51.21-.78.21-4.35.04-8.7-.04-13.05-.24-2.4-.11-8.87.61-10.58-1.18-1.25-1.31-1.28-4.26-1.43-5.94-.56-6.29-.92-12.63-.97-18.95v-82.41c.53-3.31.52-6.57.63-9.93.11-3.28,2.11-38.71-.16-38.79,1.81.06,6.95-.37,8.11,1.03.69.83.5,3.78.64,4.87.22,1.68.45,3.35.69,5.03.98,6.69,2.2,13.35,3.65,19.96,2.94,13.36,6.83,26.51,11.64,39.32.18.47.38.98.79,1.27.39.29.91.33,1.4.36,6.72.4,13.45-.26,20.15-.92,3.4-.34,6.8-.67,10.2-1.01,2.16-.21,4.34-.43,6.45-.95,3.79-.93,6.86-1.04,10.96-1.99Z" style="fill: #4b4c4e; fill-rule: evenodd;"/>
      <path d="M159,47.05c.4,1.67.95,3.32,1.79,4.83.73,1.31,1.66,2.48,2.59,3.66,1.11,1.41,2.14,3.01,3.32,4.34,1.21,1.36,3.18,2.07,4.6,3.2.42.34.83.71,1.3.97.38.21.8.35,1.21.49,1.31.44,2.61.9,3.92,1.31-.14-1.04.15-2.25.19-3.32.04-1.18,0-2.36-.08-3.54-.18-2.35-.61-4.69-1.27-6.95-1.33-4.53-3.59-8.79-6.66-12.38-.77-.9-1.6-1.78-2-2.9-.8-2.25.81-4.94,2.57-6.27,4.5-3.38,10.12-4.65,15.54-5.72,1.99-.39,3.74-.51,5.8-.51,1.73,0,3.51,0,5.12-.65,1.48-.59,2.71-1.69,4.2-2.25,1.78-.67,3.8-.51,5.59.12s3.39,1.72,4.89,2.9c2.52,1.98,4.9,4.26,6.88,6.79,1.01,1.29,1.85,2.75,2.63,4.18.31.57,2.34,3.82,2.03,4.35.89-1.49,2.29-2.66,3.91-3.28.79-.3,1.26-.41,1.17-1.37-.25-2.58-.75-5.14-1.47-7.63-.66-2.28-1.76-4.34-2.53-6.57-1.32-3.82-3.23-7.37-6.17-10.23-5.33-5.18-13.15-7.18-20.57-6.76-7.42.42-14.53,3.03-21.34,6.01-1.63.72-3.27,1.47-4.71,2.51-2.76,2.01-4.57,4.95-5.76,8.11-1.18,3.13-.99,7.01-2.28,9.97-1.13,2.56-3.56,4.05-4.4,7.06-.86,3.08-.73,6.44.01,9.53Z" style="fill: #ff6d04;"/>
      <polyline points="7.78 173.06 232.99 173.06 232.99 187.12 7.78 187.12" style="fill: none; stroke: #2e3138; stroke-miterlimit: 10; stroke-width: 1.57px;"/>
      <line x1="225.07" y1="187.12" x2="225.07" y2="401.95" style="fill: none; stroke: #2e3138; stroke-miterlimit: 10; stroke-width: 1.57px;"/>
      <g>
        <path d="M163.09,31.8s-2.22-26.18,37.87-27.99c0,0,22.95-.69,27.33,32.56" style="fill: none; fill-rule: evenodd; stroke: #2e3138; stroke-linecap: round; stroke-miterlimit: 10; stroke-width: 1.57px;"/>
        <path d="M162.61,30.99c-3.12,3.06-4.43,7.65-4.19,12.02.25,4.37,1.91,8.55,4.02,12.38,2.31,4.19,9.29,8.68,13.49,10.97" style="fill: none; fill-rule: evenodd; stroke: #2e3138; stroke-linecap: round; stroke-miterlimit: 10; stroke-width: 1.57px;"/>
        <path d="M167.51,37.64c-.4-9.23,11.97-12.24,18.37-13.02,2.86-.35,5.77-.26,8.63-.67,6.71-.97,13.19-5.19,15.56-11.53" style="fill: none; fill-rule: evenodd; stroke: #2e3138; stroke-linecap: round; stroke-miterlimit: 10; stroke-width: 1.57px;"/>
        <path d="M189.44,18.08c1.03.05,2.06-.08,3.05-.34,3.15-.84,5.89-3.1,7.31-6.02" style="fill: none; fill-rule: evenodd; stroke: #2e3138; stroke-linecap: round; stroke-miterlimit: 10; stroke-width: 1.57px;"/>
        <path d="M171.83,22.59c1.8-1.77,4.22-2.89,6.73-3.1" style="fill: none; fill-rule: evenodd; stroke: #2e3138; stroke-linecap: round; stroke-miterlimit: 10; stroke-width: 1.57px;"/>
        <path d="M164.24,41.07c-.29,2.7.31,5.48,1.69,7.82" style="fill: none; fill-rule: evenodd; stroke: #2e3138; stroke-linecap: round; stroke-miterlimit: 10; stroke-width: 1.57px;"/>
        <path d="M170.61,49.48c2.14,2.83,2.84,6.47,3.47,9.96" style="fill: none; fill-rule: evenodd; stroke: #2e3138; stroke-linecap: round; stroke-miterlimit: 10; stroke-width: 1.57px;"/>
        <path d="M167.51,37.64c4.01,5.53,8.13,11.32,9.29,18.05.57,3.27.4,6.62.1,9.93" style="fill: none; fill-rule: evenodd; stroke: #2e3138; stroke-linecap: round; stroke-miterlimit: 10; stroke-width: 1.57px;"/>
        <path d="M204.78,20.37c8.29,4.35,14.89,11.85,18.14,20.63" style="fill: none; fill-rule: evenodd; stroke: #2e3138; stroke-linecap: round; stroke-miterlimit: 10; stroke-width: 1.57px;"/>
        <path d="M222.79,39.89c1.01-.99,2.06-1.97,3.3-2.64,1.24-.67,2.73-1.01,4.09-.64,1.29.35,2.36,1.31,3.01,2.48.65,1.17.9,2.52.9,3.86,0,.93-.12,1.86-.39,2.75-.79,2.59-2.82,4.58-4.77,6.45" style="fill: none; fill-rule: evenodd; stroke: #2e3138; stroke-linecap: round; stroke-miterlimit: 10; stroke-width: 1.57px;"/>
        <path d="M226.07,44.46c-.05-.55.12-1.13.51-1.52s1.01-.56,1.52-.37c.52.2.87.79.74,1.32" style="fill: none; fill-rule: evenodd; stroke: #2e3138; stroke-linecap: round; stroke-miterlimit: 10; stroke-width: 1.57px;"/>
        <path d="M231.86,49.09c3.74,6.91,3.94,7.37,7.68,14.28" style="fill: none; fill-rule: evenodd; stroke: #2e3138; stroke-linecap: round; stroke-miterlimit: 10; stroke-width: 1.57px;"/>
        <path d="M179.07,49.28c.11-.78.57-1.48,1.17-2,.6-.52,1.32-.87,2.05-1.16.58-.23,1.2-.43,1.81-.32" style="fill: none; fill-rule: evenodd; stroke: #2e3138; stroke-linecap: round; stroke-miterlimit: 10; stroke-width: 1.57px;"/>
        <path d="M203.03,33.97c.87-1.9,2.91-3.2,5-3.17" style="fill: none; fill-rule: evenodd; stroke: #2e3138; stroke-linecap: round; stroke-miterlimit: 10; stroke-width: 1.57px;"/>
        <path d="M196.01,50.33c1.24,2.49,2.51,5.06,2.76,7.83.07.75.07,1.52.37,2.21.44.99,1.48,1.64,2.55,1.79,1.07.16,2.17-.12,3.16-.57,1.44-.65,2.84-2,2.58-3.55" style="fill: none; fill-rule: evenodd; stroke: #2e3138; stroke-linecap: round; stroke-miterlimit: 10; stroke-width: 1.57px;"/>
        <path d="M211.56,66.25c-.9,2.19-3.36,3.62-5.71,3.32" style="fill: none; fill-rule: evenodd; stroke: #2e3138; stroke-linecap: round; stroke-miterlimit: 10; stroke-width: 1.57px;"/>
        <path d="M213.17,40.84c.67,1.16.26,2.64-.9,3.31s-2.64.26-3.31-.9c-.67-1.16-.26-2.64.9-3.31s2.64-.26,3.31.9Z" style="fill: #2e3138;"/>
        <path d="M177.89,66.08c5.67,10.41,14.27,16.73,14.27,16.73,2.05,1.28,6.08,1.68,8.22,1.81,3.03.18,9.99-1.08,11.83-2.12" style="fill: none; fill-rule: evenodd; stroke: #2e3138; stroke-linecap: round; stroke-miterlimit: 10; stroke-width: 1.57px;"/>
        <path d="M231.27,56.23c1.01,5.62-.41,11.49-3.79,15.62-1.13,1.39-2.46,2.58-3.83,3.71-2.47,2.04-5.09,3.89-7.82,5.54" style="fill: none; fill-rule: evenodd; stroke: #2e3138; stroke-linecap: round; stroke-miterlimit: 10; stroke-width: 1.57px;"/>
        <path d="M184.19,56.36c1.48,0,2.93-.25,4.32-.75-1.05,1.27-2.47,2.22-4.05,2.7" style="fill: none; stroke: #2e3138; stroke-linecap: round; stroke-linejoin: round; stroke-width: 1.57px;"/>
      </g>
      <g>
        <path d="M157.96,109.12c11.17,8.17,10.92,33.91-5.96,39.32-18.06,5.78-22.57-4.19-22.57-4.19l-.49-3.17-5.44-.45-1.95,1.98s14.17,25.83,41.78,6.52c9.53-6.66,9.79-19.53,6.94-27.86-3.32-9.69-10.74-14.4-10.74-14.4h-1.63s.08,2.26.08,2.26Z" style="fill: #f4f2f2; stroke: #2e3138; stroke-miterlimit: 10; stroke-width: 1.57px;"/>
        <rect x="125.79" y="90.87" width="40.25" height="16.73" transform="translate(-30.03 85.76) rotate(-29.84)" style="fill: #98999a; stroke: #2e3138; stroke-miterlimit: 10; stroke-width: 1.57px;"/>
        <rect x="162.85" y="81.4" width="6.65" height="12.07" transform="translate(-21.48 94.28) rotate(-29.84)" style="fill: #fff; stroke: #2e3138; stroke-miterlimit: 10; stroke-width: 1.57px;"/>
        <rect x="125.57" y="103.98" width="3.09" height="12.07" transform="translate(-37.89 77.83) rotate(-29.84)" style="fill: #fff; stroke: #2e3138; stroke-miterlimit: 10; stroke-width: 1.57px;"/>
        <path d="M159.52,104.94c0,3.55-2.89,6.42-6.44,6.41-3.55,0-6.42-2.89-6.41-6.44,0-3.55,2.89-6.42,6.44-6.41s6.42,2.89,6.41,6.44Z" style="fill: #fff; stroke: #2e3138; stroke-miterlimit: 10; stroke-width: 1.57px;"/>
        <path d="M157.28,104.93c0,2.31-1.88,4.18-4.19,4.17-2.31,0-4.18-1.88-4.17-4.19,0-2.31,1.88-4.18,4.19-4.17,2.31,0,4.18,1.88,4.17,4.19Z" style="fill: #4b4c4e; stroke: #2e3138; stroke-miterlimit: 10; stroke-width: 1.57px;"/>
        <polygon points="104.33 138.94 104.35 129.79 141.12 143.4 141.11 146.77 104.33 138.94" style="fill: #4b4c4e; stroke: #2e3138; stroke-miterlimit: 10; stroke-width: 1.57px;"/>
        <path d="M148.02,167.37l.77-18.04s3.77-8.96,13.01-3.05c0,0,3.8,5.67,7.24,21.14l11.87.03-.02,5.55-58.25-.16v-5.34s25.39-.15,25.39-.15Z" style="fill: #f4f2f2; stroke: #2e3138; stroke-miterlimit: 10; stroke-width: 1.57px;"/>
        <path d="M158.99,150.74c0,1.55-1.26,2.8-2.81,2.79-1.55,0-2.8-1.26-2.79-2.81,0-1.55,1.26-2.8,2.81-2.79,1.55,0,2.8,1.26,2.79,2.81Z" style="fill: #737375; stroke: #2e3138; stroke-miterlimit: 10; stroke-width: 1.57px;"/>
      </g>
      <path d="M206.83,84.24c.33,1.63.37,3.32.12,4.97" style="fill: none; fill-rule: evenodd; stroke: #2e3138; stroke-linecap: round; stroke-miterlimit: 10; stroke-width: 1.57px;"/>
      <path d="M244.38,64.3s19.5-2.79,32.24,16.8c15.59,23.98,24.61,91.58,32.81,136.69,8.2,45.11,13.93,46.07,13.93,46.07,0,0-41.47,15.45-73.69,11.94,0,0-16.99-48.22-19.63-87.68" style="fill: none; fill-rule: evenodd; stroke: #2e3138; stroke-linecap: round; stroke-linejoin: round; stroke-width: 1.57px;"/>
      <path d="M245.56,100.62c-.78,11.33-1.57,22.65-2.35,33.98" style="fill: none; fill-rule: evenodd; stroke: #2e3138; stroke-linecap: round; stroke-miterlimit: 10; stroke-width: 1.57px;"/>
      <path d="M275.11,106.5c-.96,17.46-2.73,34.87-5.32,52.15-.14.94-.31,1.93-.94,2.65-.77.88-2.03,1.1-3.18,1.27-20.84,2.93-63.44,5.93-84.08,1.82" style="fill: none; fill-rule: evenodd; stroke: #2e3138; stroke-linecap: round; stroke-miterlimit: 10; stroke-width: 1.57px;"/>
      <path d="M251.49,136.6c-14.32-2.48-48.48,6.65-62.97,7.67" style="fill: none; fill-rule: evenodd; stroke: #2e3138; stroke-linecap: round; stroke-miterlimit: 10; stroke-width: 1.57px;"/>
      <path d="M206.83,86.72c-5.09,3.94-11.08,16.27-13.25,24.9-.87,3.46-1.29,7.09-1.76,10.62-.29,2.24-.45,4.48-1,6.67-.47,1.86-.23,4.06-1.34,5.69-.76,1.12-2,1.81-3.22,2.38-2.35,1.11-4.98,1.54-7.3,2.65-2.21,1.05-4.26,2.01-6.65,2.73" style="fill: none; fill-rule: evenodd; stroke: #2e3138; stroke-linecap: round; stroke-miterlimit: 10; stroke-width: 1.57px;"/>
      <path d="M225.94,81.83c-.78,17.08-1.21,39.37-.87,56.46" style="fill: none; fill-rule: evenodd; stroke: #2e3138; stroke-linecap: round; stroke-miterlimit: 10; stroke-width: 1.57px;"/>
      <path d="M245.96,70.35c-3.32,9.28-11.71,30.65-12.36,38.91-.06.79-.13,1.6-.5,2.3-.37.7-1.01,1.22-1.63,1.72-1.7,1.37-3.41,2.75-5.11,4.12,2.67.54,5.24,1.55,7.56,2.97-.65,4.62-3.69,12.87-5.06,17.32" style="fill: none; fill-rule: evenodd; stroke: #2e3138; stroke-linecap: round; stroke-miterlimit: 10; stroke-width: 1.57px;"/>
      <path d="M209.91,91.22c4.75,12.74,8.35,33.09,10.72,46.47" style="fill: none; fill-rule: evenodd; stroke: #2e3138; stroke-linecap: round; stroke-miterlimit: 10; stroke-width: 1.57px;"/>
      <path d="M204.01,92.14c1.85,5.41,3.28,10.96,4.25,16.6.33,1.89.62,3.84,1.58,5.5.96,1.66,2.78,2.99,4.68,2.76-.52,1.12-1.27,2.14-2.19,2.97,1.43,3.53,7.38,14.04,8.31,17.73" style="fill: none; fill-rule: evenodd; stroke: #2e3138; stroke-linecap: round; stroke-miterlimit: 10; stroke-width: 1.57px;"/>
      <path d="M211.6,93.57c2.71,1.34,5.25,3.05,7.51,5.05,2.31-2.77,4.41-5.72,6.29-8.81" style="fill: none; fill-rule: evenodd; stroke: #2e3138; stroke-linecap: round; stroke-miterlimit: 10; stroke-width: 1.57px;"/>
      <path d="M225.94,81.83c4.36-.49,7.69-3.98,10.5-7.35,1.36-1.64,3.08-3.49,3.51-5.6.47-2.31.29-5.02.01-7.34,1.01-.21,1.9.67,2.55,1.48.74.9,2.29,3.24,3.45,7.34" style="fill: none; fill-rule: evenodd; stroke: #2e3138; stroke-linecap: round; stroke-linejoin: round; stroke-width: 1.57px;"/>
      <path d="M209.54,91.24c-1.47-.23-2.72-1.45-3-2.91" style="fill: none; fill-rule: evenodd; stroke: #2e3138; stroke-linecap: round; stroke-miterlimit: 10; stroke-width: 1.57px;"/>
      <path d="M186.61,144.18c-2.18,6.47-3.17,13.29-2.91,20.07" style="fill: none; fill-rule: evenodd; stroke: #2e3138; stroke-linecap: round; stroke-miterlimit: 10; stroke-width: 1.57px;"/>
      <g>
        <path d="M182.69,161.91c.71-2.16,1.06-4.43,1.03-6.71-.03-1.78-.25-3.71.72-5.2-1.06,0-2.11-.34-3.01-.9-.9-.56-1.33-1.46-2.11-2.09-.83-.66-2.08-1.12-3.03-1.61-1.17-.6-2.37-1.16-3.58-1.68-.64-.27-7.76-2.98-7.85-2.7-.48,1.46-.05,3.18,1.07,4.24-.29.51-1.04.45-1.61.31-1.49-.35-2.97-.7-4.46-1.06-1.89-.45-3.3-.22-5.17.18-.17.04-.36.08-.49.2-.27.25-.16.7-.02,1.03.3.67.73,1.33,1.21,1.88.45.52,1.2.89,1.48,1.56-.71.36-1.57.14-2.37.14s-1.77.5-1.68,1.3c.03.26.17.5.32.72.55.87,1.11,1.75,1.66,2.62-.24-.11-.53.07-.62.32-.09.25-.02.52.07.77.23.64.61,1.23,1.11,1.69.45.43,1,.77,1.32,1.3.21.35.3.75.43,1.13.47,1.28,1.49,2.3,2.68,2.96,1.19.66,2.53.99,3.88,1.2,5.32.82,10.77-.24,16.13.32.86.09,1.71.22,2.56.35.19.03.39.05.55-.04.17-.1.25-.29.3-.48.74-2.36-.03-4.82-.27-7.19-.13-1.27-.07-2.5.2-3.76.18-.87.58-1.84.23-2.72-.56-1.42-2.93-2.3-4.14-3.01" style="fill: #fff; fill-rule: evenodd;"/>
        <path d="M184.68,148.9c-1.02.27-2.12.82-3.09.06-2.52-1.97-5.38-4.34-8.4-5.12-2.29-.59-4.6-1.77-6.76-2.76-.42-.19-.89-.4-1.34-.3-.62.14-1,.83-.98,1.47.02.64.33,1.23.67,1.77,1.9,3.03,4.68,5.46,8.5,4.84" style="fill: none; fill-rule: evenodd; stroke: #2e3138; stroke-linecap: round; stroke-miterlimit: 10; stroke-width: 1.57px;"/>
        <path d="M170.73,148.94c-4.6-2.07-9.32-4.18-14.36-4.45-.78-.04-1.66,0-2.17.59-.71.8-.26,2.1.45,2.9,1.29,1.45,3.23,2.13,5.1,2.66,3.09.87,6.25,1.49,9.45,1.84" style="fill: none; fill-rule: evenodd; stroke: #2e3138; stroke-linecap: round; stroke-miterlimit: 10; stroke-width: 1.57px;"/>
        <path d="M157.33,149.81c-.64-.28-2.63-.73-3.32-.67s-1.39.61-1.37,1.3c0,.24.1.48.2.7.48,1.06,1.19,2.04,2.13,2.74,1.19.88,2.67,1.27,4.12,1.55,3.15.62,6.38.85,9.58.69" style="fill: none; fill-rule: evenodd; stroke: #2e3138; stroke-linecap: round; stroke-miterlimit: 10; stroke-width: 1.57px;"/>
        <path d="M155.31,154.35c-.34-.02-.69-.05-1.01.07-.32.11-.61.4-.6.74,0,.23.12.43.26.62.99,1.37,2.63,2.1,4.24,2.62,3.31,1.08,6.82,1.55,10.3,1.4" style="fill: none; fill-rule: evenodd; stroke: #2e3138; stroke-linecap: round; stroke-miterlimit: 10; stroke-width: 1.57px;"/>
        <path d="M158.86,158.48c-.35-.12-1.55-.39-1.85-.05-.29.33.02.93.2,1.3.47,1,1.32,1.8,2.26,2.35,1.37.8,2.95,1.13,4.5,1.45,3.29.68,6.83.86,10.15.18.72-.15,1.44-.34,2.18-.32.62.01,2.16.33,2.78.36,2.35.11,2.62-.05,4.25.37" style="fill: none; fill-rule: evenodd; stroke: #2e3138; stroke-linecap: round; stroke-miterlimit: 10; stroke-width: 1.57px;"/>
        <path d="M185.03,148.82c-1.09,5.22-1.57,10.56-1.42,15.89" style="fill: none; fill-rule: evenodd; stroke: #2e3138; stroke-linecap: round; stroke-miterlimit: 10; stroke-width: 1.57px;"/>
      </g>
      <path d="M205.29,128.45v12.3" style="fill: none; fill-rule: evenodd; stroke: #2e3138; stroke-linecap: round; stroke-miterlimit: 10; stroke-width: 1.57px;"/>
      <path d="M145.92,157.07c-1.67,1.04-2.72,3.01-2.65,4.98s1.26,3.86,3,4.78" style="fill: none; fill-rule: evenodd; stroke: #2e3138; stroke-linecap: round; stroke-miterlimit: 10; stroke-width: 1.57px;"/>
      <path d="M207.57,167.12c-.23,1.95-.18,3.92.15,5.86" style="fill: none; fill-rule: evenodd; stroke: #2e3138; stroke-linecap: round; stroke-miterlimit: 10; stroke-width: 1.57px;"/>
      <path d="M227.92,166.54c.13,2.15.25,4.29.38,6.44" style="fill: none; fill-rule: evenodd; stroke: #2e3138; stroke-linecap: round; stroke-miterlimit: 10; stroke-width: 1.57px;"/>
      <path d="M223.9,166.54c.13,2.15.25,4.29.38,6.44" style="fill: none; fill-rule: evenodd; stroke: #2e3138; stroke-linecap: round; stroke-miterlimit: 10; stroke-width: 1.57px;"/>
      <path d="M225.34,203.22c2.02.56,4.08.95,6.16,1.16" style="fill: none; fill-rule: evenodd; stroke: #2e3138; stroke-linecap: round; stroke-miterlimit: 10; stroke-width: 1.57px;"/>
      <path d="M299.22,271l-7.37,102.73s-16.05,2.34-25.72-1.43l-7.78-94.73" style="fill: none; fill-rule: evenodd; stroke: #2e3138; stroke-linecap: round; stroke-miterlimit: 10; stroke-width: 1.57px;"/>
      <path d="M258.35,277.56l-6.86,83.48s-25.25,2.53-25.25-1.46c0-8.24-1.17-128.89-1.17-128.89" style="fill: none; fill-rule: evenodd; stroke: #2e3138; stroke-linecap: round; stroke-miterlimit: 10; stroke-width: 1.57px;"/>
      <path d="M293.04,373.91c.29,8.84-3.67,12.49-5.57,15.17-1.4,1.97-2.79,3.94-4.19,5.92-1.18,1.67-2.47,3.64-4,5.02-1.28,1.14-2.9,2.15-4.56,2.63-.74.21-5,.8-6.01.89-3.68.33-6.79.07-10.37-.88-1.63-.43-3.21-1.04-4.69-1.84-1.25-.68-2.49-1.56-3.08-2.86-.52-1.15-.46-2.49-.28-3.74.45-3.03,1.61-6,3.6-8.34,1.98-2.34,4.83-4,7.88-4.28" style="fill: none; stroke: #2e3138; stroke-linecap: round; stroke-miterlimit: 10; stroke-width: 1.57px;"/>
      <path d="M260.03,381.49c2.79-3.12,2.99-5.15,5.96-8.09" style="fill: none; stroke: #2e3138; stroke-linecap: round; stroke-miterlimit: 10; stroke-width: 1.57px;"/>
      <path d="M250.42,393.5c-.81,2.8-2.02,8.07,3.13,11.7,2.39,1.68,5.41,2.15,8.31,2.39,2.37.19,4.76.23,7.14.11,2.13-.1,4.29-.21,6.29-1.01,3.66-1.47,5.59-4.62,7.78-7.71,2.37-3.36,4.62-6.81,6.76-10.32,1.85-3.04,3.91-8.08,3.34-11.59" style="fill: none; stroke: #2e3138; stroke-linecap: round; stroke-miterlimit: 10; stroke-width: 1.57px;"/>
      <path d="M268.73,375.12c2.55,1.3,4.85,3.1,6.73,5.27" style="fill: none; stroke: #2e3138; stroke-linecap: round; stroke-miterlimit: 10; stroke-width: 1.57px;"/>
      <path d="M265.45,379.81c3.47-2.09,7.74-2.17,11.72-2.91" style="fill: none; stroke: #2e3138; stroke-linecap: round; stroke-miterlimit: 10; stroke-width: 1.57px;"/>
      <path d="M269.97,385.11c3.12.07,6.07,2.35,6.93,5.35" style="fill: none; stroke: #2e3138; stroke-linecap: round; stroke-miterlimit: 10; stroke-width: 1.57px;"/>
      <path d="M252.38,361.65c.26,8.06-3.34,11.39-5.07,13.83-1.27,1.8-2.55,3.59-3.82,5.39-1.08,1.52-2.25,3.32-3.65,4.57-1.16,1.04-2.64,1.96-4.15,2.4-.68.2-4.56.73-5.48.81-3.35.3-6.19.06-9.45-.8-1.48-.39-2.93-.95-4.28-1.68-1.14-.62-2.27-1.42-2.8-2.61-.48-1.05-.42-2.26-.25-3.41.41-2.76,1.47-5.47,3.28-7.6,1.81-2.13,4.4-3.65,7.18-3.9" style="fill: none; stroke: #2e3138; stroke-linecap: round; stroke-miterlimit: 10; stroke-width: 1.57px;"/>
      <path d="M222.3,368.55c2.54-2.84,2.72-4.69,5.44-7.37" style="fill: none; stroke: #2e3138; stroke-linecap: round; stroke-miterlimit: 10; stroke-width: 1.57px;"/>
      <path d="M213.54,379.5c-.74,2.55-1.84,7.36,2.86,10.66,2.18,1.53,4.93,1.96,7.58,2.18,2.16.17,4.34.21,6.5.1,1.94-.09,3.91-.19,5.73-.92,3.34-1.34,5.1-4.21,7.09-7.03,2.16-3.06,4.21-6.2,6.16-9.4,1.68-2.77,3.56-7.36,3.04-10.56" style="fill: none; stroke: #2e3138; stroke-linecap: round; stroke-miterlimit: 10; stroke-width: 1.57px;"/>
      <path d="M230.23,362.75c2.32,1.19,4.42,2.83,6.13,4.8" style="fill: none; stroke: #2e3138; stroke-linecap: round; stroke-miterlimit: 10; stroke-width: 1.57px;"/>
      <path d="M227.25,367.03c3.16-1.91,7.05-1.97,10.68-2.65" style="fill: none; stroke: #2e3138; stroke-linecap: round; stroke-miterlimit: 10; stroke-width: 1.57px;"/>
      <path d="M231.36,371.86c2.85.06,5.53,2.14,6.31,4.88" style="fill: none; stroke: #2e3138; stroke-linecap: round; stroke-miterlimit: 10; stroke-width: 1.57px;"/>
      <path d="M62.2,188.12h162.28v212.09c-9.07-.66-18.66-6.49-22.74-14.62-4.07-8.13-4.89-17.51-4.6-26.59.2-6.14.87-12.34-.19-18.4-2.49-14.26-14.23-25.35-27.22-31.74-7.22-3.56-15.21-6.17-20.77-11.99-10.44-10.94-8.46-28.7-15.3-42.19-4.89-9.64-14.54-16.73-25.21-18.5-5.39-.9-11.6-.8-15.27-4.85-4.48-4.95-2.44-13.16-5.9-18.87-3.39-5.59-10.73-6.98-17.18-8-1.66-.26-3.4-.57-4.72-1.62-3.25-2.58-4.64-10.83-3.2-14.73Z" style="fill: #ece9e8;"/>
      <g>
        <path d="M11.95,19.55c.26.6.82,1.82,1.45,1.89.64.08,2.11-.91,2.72-1.18,1.89-.84,3.77-1.72,5.63-2.62.87-.43,1.78-.76,2.65-1.18,1.12-.55,2.08-1.3,3.17-1.89.1-.06.21-.12.26-.22.06-.11.03-.24,0-.36-.13-.63-.35-1.24-.63-1.82-5.23,2.15-10.33,4.6-15.28,7.34,0,.02.02.04.02.05Z" style="fill: #fff; stroke: #000; stroke-linecap: round; stroke-linejoin: round; stroke-width: 1.57px;"/>
        <path d="M21.71,46.55c-.1-.67-.21-1.34-.31-2.02-.03-.16,12.23-5.66,13.35-6.08,2.2,3.52-.89,3.89-3.78,4.92-3.07,1.1-6.16,2.15-9.26,3.17Z" style="fill: #fff; stroke: #000; stroke-linecap: round; stroke-linejoin: round; stroke-width: 1.57px;"/>
        <path d="M19.89,58.24c.31.76.61,1.51.92,2.27,9.1-2.06,15.63-4.05,24.95-7.28-.39-.77-.88-2.56-1.8-2.82-.78-.22-2.47,1-3.19,1.3-2.27.95-4.63,1.67-6.99,2.33-1.13.31-14.03,3.85-13.89,4.2Z" style="fill: #fff; stroke: #000; stroke-linecap: round; stroke-linejoin: round; stroke-width: 1.57px;"/>
        <path d="M29.74,73.05c-.61-.73-1.22-1.47-1.83-2.2,5.77-3.09,11.71-5.87,17.78-8.34.54-.22.44,3.19-.11,3.76-1.12,1.15-3.48,1.79-4.94,2.45-3.56,1.61-7.19,3.06-10.89,4.33Z" style="fill: #fff; stroke: #000; stroke-linecap: round; stroke-linejoin: round; stroke-width: 1.57px;"/>
        <path d="M37.32,95.29c.28.5.55,1,.83,1.5.08.15.18.32.34.39.2.09.43,0,.63-.09,5.52-2.37,11.57-4.34,16.82-7.25-.07-3.08-6.92,1.28-8.4,1.9-3.33,1.39-6.74,2.57-10.22,3.55Z" style="fill: #fff; stroke: #000; stroke-linecap: round; stroke-linejoin: round; stroke-width: 1.57px;"/>
        <path d="M65.44,98.16c-1.19-5.15-4.25-9.88-8.55-12.94-2.9-2.07-6.26-3.36-9.56-4.69-9.15-3.71-20.67-8.72-24.58-18.6-3.81-9.64.74-21.32,4.19-30.38,1.96-5.14,4.28-10.24,4.83-15.71.32-3.18.01-6.41-.87-9.48-.44-1.52-.99-3.06-1.75-4.45-.97-1.77-1.46-1.14-3.01-.21-2.92,1.74-.93,4.11-.06,6.33,1.16,2.95,1.28,6.26.8,9.37-.58,3.82-2.03,7.46-3.46,11.05-2.96,7.44-4.94,14.84-6.21,22.77-.77,6.09-.46,12.65,2.87,17.81,3.04,4.72,8.19,7.64,13.38,9.8,5.19,2.16,10.65,3.75,15.43,6.7,3.4,2.09,6.37,4.85,8.74,8.06,1.21,1.63,1.93,3.74,3.16,5.29.97,1.22.24,1.25,1.87.99.95-.15,2.08-1.09,2.77-1.71Z" style="fill: #fff; stroke: #000; stroke-linecap: round; stroke-linejoin: round; stroke-width: 1.57px;"/>
        <path d="M14.94,28.94c5.35,3.48,11.55,5.5,16.83,9.09,8.41,5.72,14.13,14.8,13,25.15-.97,8.9-4.9,16.92-7.98,25.22-1.24,3.35-2.39,6.78-2.76,10.34s.11,7.29,1.92,10.37c1.02-.81,2.2-1.44,3.44-1.84-2.18-8.4.47-17.23,3.42-25.38s6.28-16.57,5.45-25.21c-.93-9.65-7.31-18.41-15.85-23.02-2.36-1.27-4.86-2.25-7.26-3.44-6.89-3.41-12.88-8.58-17.32-14.84-1.37-1.94-2.17-4.06-4.04-5.59.05.04-2.87,1.72-2.96,1.94-.32.8.79,2.42,1.16,3.09,1.02,1.86,2.31,3.56,3.57,5.26,2.57,3.47,5.75,6.48,9.37,8.84Z" style="fill: #fff; stroke: #000; stroke-linecap: round; stroke-linejoin: round; stroke-width: 1.57px;"/>
      </g>
      <g>
        <path d="M101.8,49.24c-3,1.04-6.28-.56-7.31-3.56-1.04-3,.56-6.28,3.56-7.31,3-1.04,6.28.56,7.31,3.56,1.04,3-.56,6.28-3.56,7.31Z" style="fill: #ffad0f; stroke: #000; stroke-linecap: round; stroke-linejoin: round; stroke-width: 1.57px;"/>
        <path d="M98.31,79.09c-3,1.04-6.28-.56-7.31-3.56-1.04-3,.56-6.28,3.56-7.31,3-1.04,6.28.56,7.31,3.56,1.04,3-.56,6.28-3.56,7.31Z" style="fill: #1f89bd; stroke: #000; stroke-linecap: round; stroke-linejoin: round; stroke-width: 1.57px;"/>
        <path d="M93.71,44.97c-5.37,2.95-10.64,6.09-15.78,9.42" style="fill: none; stroke: #000; stroke-linecap: round; stroke-linejoin: round; stroke-width: 1.57px;"/>
        <path d="M95.77,49.15c-5.46,2.64-10.74,5.67-15.77,9.07" style="fill: none; stroke: #000; stroke-linecap: round; stroke-linejoin: round; stroke-width: 1.57px;"/>
        <path d="M92.42,68.95c-4.51-2.46-8.89-5.14-13.12-8.04" style="fill: none; stroke: #000; stroke-linecap: round; stroke-linejoin: round; stroke-width: 1.57px;"/>
        <path d="M90.78,72.32c-1.37-1.12-2.8-2.17-4.28-3.14-2.18-1.43-4.46-2.69-6.58-4.22-.98-.71-1.94-1.48-3.02-2.03" style="fill: none; stroke: #000; stroke-linecap: round; stroke-linejoin: round; stroke-width: 1.57px;"/>
        <path d="M76.06,64.21c-3,1.04-6.28-.56-7.31-3.56s.56-6.28,3.56-7.31c3-1.04,6.28.56,7.31,3.56,1.04,3-.56,6.28-3.56,7.31Z" style="fill: #ff6d04; stroke: #000; stroke-linecap: round; stroke-linejoin: round; stroke-width: 1.57px;"/>
      </g>
      <g>
        <path d="M30.13,120.93v36.49s.33,4.51,4.47,4.51,4.8-2.26,4.93-3.32c.13-1.06,0-37.68,0-37.68" style="fill: #fff;"/>
        <path d="M30.19,142.36c3.1.03,6.19.1,9.29.21v16.97c.09.55-.25,1.16-.7,1.48-.45.31-.99.44-1.52.55-1.38.29-2.81.54-4.19.24s-2.7-1.28-3.03-2.69c.02-.04.07-.09.09-.13l.06-16.64Z" style="fill: #ff6d04;"/>
        <rect x="29.28" y="117.12" width="11.14" height="3.81" style="fill: #ffad0f; stroke: #2e3138; stroke-miterlimit: 10; stroke-width: 1.57px;"/>
        <path d="M30.13,120.93v36.49s.33,4.51,4.47,4.51,4.8-2.26,4.93-3.32c.13-1.06,0-37.68,0-37.68" style="fill: none; stroke: #2e3138; stroke-miterlimit: 10; stroke-width: 1.57px;"/>
        <path d="M30.31,128.84h2.92" style="fill: none; stroke: #2e3138; stroke-linecap: round; stroke-linejoin: round; stroke-width: 1.57px;"/>
        <line x1="30.25" y1="133.5" x2="33.11" y2="133.5" style="fill: none; stroke: #2e3138; stroke-linecap: round; stroke-linejoin: round; stroke-width: 1.57px;"/>
        <path d="M30.31,137.69h2.92" style="fill: none; stroke: #2e3138; stroke-linecap: round; stroke-linejoin: round; stroke-width: 1.57px;"/>
        <line x1="30.25" y1="142.36" x2="33.11" y2="142.36" style="fill: none; stroke: #2e3138; stroke-linecap: round; stroke-linejoin: round; stroke-width: 1.57px;"/>
        <path d="M30.31,146.55h2.92" style="fill: none; stroke: #2e3138; stroke-linecap: round; stroke-linejoin: round; stroke-width: 1.57px;"/>
        <line x1="30.25" y1="151.21" x2="33.11" y2="151.21" style="fill: none; stroke: #2e3138; stroke-linecap: round; stroke-linejoin: round; stroke-width: 1.57px;"/>
      </g>
      <g>
        <path d="M48.94,120.93v36.49s.33,4.51,4.47,4.51,4.8-2.26,4.93-3.32c.13-1.06,0-37.68,0-37.68" style="fill: #fff;"/>
        <path d="M48.99,131.52c3.1.04,6.19.15,9.29.32v26.36c.09.85-.25,1.81-.7,2.3-.45.49-.99.68-1.52.86-1.38.46-2.81.85-4.19.38-1.38-.47-2.7-1.99-3.03-4.17.02-.06.07-.14.09-.2l.06-25.84Z" style="fill: #ff6d04;"/>
        <rect x="48.08" y="117.12" width="11.14" height="3.81" style="fill: #ffad0f; stroke: #2e3138; stroke-miterlimit: 10; stroke-width: 1.57px;"/>
        <path d="M48.94,120.93v36.49s.33,4.51,4.47,4.51,4.8-2.26,4.93-3.32c.13-1.06,0-37.68,0-37.68" style="fill: none; stroke: #2e3138; stroke-miterlimit: 10; stroke-width: 1.57px;"/>
        <path d="M49.11,128.84h2.92" style="fill: none; stroke: #2e3138; stroke-linecap: round; stroke-linejoin: round; stroke-width: 1.57px;"/>
        <line x1="49.05" y1="133.5" x2="51.92" y2="133.5" style="fill: none; stroke: #2e3138; stroke-linecap: round; stroke-linejoin: round; stroke-width: 1.57px;"/>
        <path d="M49.11,137.69h2.92" style="fill: none; stroke: #2e3138; stroke-linecap: round; stroke-linejoin: round; stroke-width: 1.57px;"/>
        <line x1="49.05" y1="142.36" x2="51.92" y2="142.36" style="fill: none; stroke: #2e3138; stroke-linecap: round; stroke-linejoin: round; stroke-width: 1.57px;"/>
        <path d="M49.11,146.55h2.92" style="fill: none; stroke: #2e3138; stroke-linecap: round; stroke-linejoin: round; stroke-width: 1.57px;"/>
        <line x1="49.05" y1="151.21" x2="51.92" y2="151.21" style="fill: none; stroke: #2e3138; stroke-linecap: round; stroke-linejoin: round; stroke-width: 1.57px;"/>
      </g>
      <g>
        <path d="M67.74,120.93v36.49s.33,4.51,4.47,4.51,4.8-2.26,4.93-3.32c.13-1.06,0-37.68,0-37.68" style="fill: #fff;"/>
        <path d="M67.8,137.69c3.1.03,6.19.12,9.29.26v21.01c.09.68-.25,1.44-.7,1.83-.45.39-.99.54-1.52.68-1.38.36-2.81.67-4.19.3s-2.7-1.59-3.03-3.33c.02-.05.07-.11.09-.16l.06-20.6Z" style="fill: #ff6d04;"/>
        <rect x="66.89" y="117.12" width="11.14" height="3.81" style="fill: #ffad0f; stroke: #2e3138; stroke-miterlimit: 10; stroke-width: 1.57px;"/>
        <path d="M67.74,120.93v36.49s.33,4.51,4.47,4.51,4.8-2.26,4.93-3.32c.13-1.06,0-37.68,0-37.68" style="fill: none; stroke: #2e3138; stroke-miterlimit: 10; stroke-width: 1.57px;"/>
        <path d="M67.92,128.84h2.92" style="fill: none; stroke: #2e3138; stroke-linecap: round; stroke-linejoin: round; stroke-width: 1.57px;"/>
        <line x1="67.86" y1="133.5" x2="70.72" y2="133.5" style="fill: none; stroke: #2e3138; stroke-linecap: round; stroke-linejoin: round; stroke-width: 1.57px;"/>
        <path d="M67.92,137.69h2.92" style="fill: none; stroke: #2e3138; stroke-linecap: round; stroke-linejoin: round; stroke-width: 1.57px;"/>
        <line x1="67.86" y1="142.36" x2="70.72" y2="142.36" style="fill: none; stroke: #2e3138; stroke-linecap: round; stroke-linejoin: round; stroke-width: 1.57px;"/>
        <path d="M67.92,146.55h2.92" style="fill: none; stroke: #2e3138; stroke-linecap: round; stroke-linejoin: round; stroke-width: 1.57px;"/>
        <line x1="67.86" y1="151.21" x2="70.72" y2="151.21" style="fill: none; stroke: #2e3138; stroke-linecap: round; stroke-linejoin: round; stroke-width: 1.57px;"/>
      </g>
      <g>
        <rect x="18.89" y="117.83" width="5.51" height="55.19" style="fill: #ffad0f; stroke: #000; stroke-linecap: round; stroke-linejoin: round; stroke-width: 1.57px;"/>
        <rect x="85.3" y="117.83" width="5.51" height="55.19" style="fill: #ffad0f; stroke: #000; stroke-linecap: round; stroke-linejoin: round; stroke-width: 1.57px;"/>
        <rect x="24.4" y="137.7" width="60.9" height="4.67" style="fill: #ffad0f; stroke: #000; stroke-linecap: round; stroke-linejoin: round; stroke-width: 1.57px;"/>
        <rect x="18.89" y="167.39" width="71.92" height="4.67" style="fill: #ffad0f; stroke: #000; stroke-linecap: round; stroke-linejoin: round; stroke-width: 1.57px;"/>
      </g>
    </g>
  </g>
</svg>