<?xml version="1.0" encoding="UTF-8"?>
<svg id="_圖層_2" data-name="圖層 2" xmlns="http://www.w3.org/2000/svg" viewBox="0 0 228 228">
  <g id="_圖層_1-2" data-name="圖層 1">
    <g>
      <g>
        <g>
          <path d="M165.25,159.99c.06.18.12.36.09.54-.05.45-.53.71-.87,1.01-.35.31-.6.72-.9,1.08-1.1,1.32-2.85,1.88-4.5,2.35-.23.07-.5.13-.7-.01-.1-.07-.16-.19-.22-.3-.3-.59-.59-1.18-.89-1.77-.15-.3-.3-.61-.3-.94.02-1.1,1.26-1.82,2.08-2.29,1.16-.68,2.04-1.73,3.03-2.64.38-.35.9-.82,1.45-.86.52-.04.58.35.73.8.33,1.02.66,2.03.99,3.05Z" style="fill: #8fc4de;"/>
          <path d="M167.49,171.83c-3.17.83-5.86,2.85-8.65,4.56-1.04.64-2.17,1.26-3.4,1.24-.34,0-.7-.07-.96-.29-.64-.52-.4-1.53-.11-2.3.43-1.15.87-2.3,1.3-3.45.67-1.77,1.37-3.6,2.68-4.96.56-.59,1.22-1.07,1.87-1.55,1.4-1.03,2.81-2.07,4.21-3.1,1.32,1.92,2.19,4.15,2.54,6.45" style="fill: #fff;"/>
          <path d="M61.03,175.53c-.07.5-.13,1.07.21,1.44.2.21.48.31.76.39,4.16,1.32,8.32,2.63,12.48,3.95.1.03.22.06.31.02.08-.03.13-.1.18-.17.69-.98.86-2.25.72-3.44s-.57-2.32-.99-3.44c-.13-.35-.27-.71-.51-1.01-.35-.44-.88-.68-1.39-.92-3.27-1.5-6.52-3.1-9.83-4.51-2.06-.87-1.55.77-1.56,2.37-.01,1.78-.15,3.55-.4,5.31Z" style="fill: #fff;"/>
          <path d="M69.7,143.13c-1.91,3.16-4.25,6.69-5.4,10.19-1.45,4.43-1.7,8.88-3.15,13.32,4.21,1.88,8.42,3.76,12.63,5.65,1.93.86,4.06,1.93,4.73,3.94.38,1.13.22,2.39.63,3.52.88,2.43,3.92,3.22,6.5,3.33,7.47.32,14.9-2.02,22.34-1.33,2.92.27,5.78,1,8.67,1.47,6.75,1.09,13.83.7,20.17-1.87,1.97-.8,3.86-1.81,5.93-2.32,3.39-.85,7.68-.67,9.45-3.69,1.89-3.24-.88-7.32-.32-11.03.04-.27.1-.55.25-.79.31-.49.91-.7,1.46-.9,3.18-1.13,6.11-2.96,8.51-5.34.55-.55,1.1-1.15,1.31-1.9.25-.84.05-1.74-.19-2.59-1.51-5.38-4.62-10.28-8.78-14-.94-.84-1.94-1.62-2.98-2.33-1.06-.72-1.97-1.84-3.14-2.38-1-.46-2.13-.75-3.17-1.19-2.62-1.12-5.39-1.89-8.22-2.29-.41-.06-.86-.11-1.24.06-.49.22-.77.74-1.03,1.21-1.69,2.98-4.5,5.22-7.61,6.65-3.11,1.43-6.52,2.09-9.93,2.44-6.61.66-13.33.13-19.76-1.56-2.73-.72-5.53-1.72-7.42-3.82-.85-.94-1.57-2.13-2.78-2.54-1.16-.4-2.41.05-3.55.5-3,1.17-6.56,2.01-9.14,3.93-1.97,1.47-3.52,3.58-4.78,5.67Z" style="fill: #1f89bd;"/>
          <path d="M61.75,162.67c-.42.83-.82,1.67-1.2,2.51-.14.3-.27.65-.14.95.08.2.26.33.44.46,5.06,3.58,11.63,4.09,17.32,6.54.19.08.42.17.61.08.11-.06.19-.16.25-.27.71-1.07,2.65-3.38,1.25-4.39-1.56-1.13-4.09-1.65-5.9-2.29-4.13-1.45-8.35-2.66-12.63-3.6Z" style="fill: #8fc4de;"/>
          <path d="M95.99,83.18c-.36.24-.74.47-1.16.69-1.16.6-2.17,1.5-3.46,1.81-2.08.5-4.53-.61-6.28.62-.87.61-1.31,1.68-1.49,2.73-.4,2.38.43,4.93,2.14,6.64,1.71,1.7,4.27,2.51,6.65,2.1.36-.06.77-.14,1.06.09.21.17.28.46.33.72,1.3,6.26,2.6,12.52,3.91,18.78.26,1.23.51,2.47.67,3.72.29,2.27.26,4.57.23,6.86-3.78,1.38-7.49,2.98-11.09,4.78,1.7,1.74,3.42,3.5,5.48,4.78,1.87,1.16,3.97,1.89,6.09,2.48,7.52,2.07,15.54,2.34,23.18.76,2.97-.61,5.95-1.52,8.41-3.29,2.47-1.77,4.38-4.5,4.56-7.53-2.36-.48-4.72-.95-7.08-1.43-.42-.08-.89-.2-1.1-.57-.16-.27-.13-.6-.1-.91.38-4.09.75-8.17,1.13-12.26,4.15-1.34,8.5-3.87,11.06-7.41,2.09-2.88,3.04-6.4,3.95-9.84.56-2.14,1.13-4.28,1.69-6.41,1.46-5.52-.33-11.16-1.04-16.82-9.21-1.97-16.12-8.94-23.41-14.9-.25-.2-.53-.42-.85-.42-.34,0-.63.22-.88.45-1.29,1.19-2.13,2.77-3.06,4.26-1.95,3.16-3.97,6.33-6.64,8.95-1.19,1.17-2.49,2.22-3.79,3.28-2.44,1.98-4.88,3.96-7.32,5.94-.63.51-1.18.96-1.79,1.37Z" style="fill: #fff;"/>
          <path d="M86.81,133.01c1.05,1.35,2.3,2.54,3.7,3.53,1.66,1.17,3.5,2.04,5.38,2.78,2.19.87,4.35,1.74,6.7,1.79,2.68.06,5.36.1,8.05.12,4.04.04,8.12.02,12.11-.71,2-.37,3.97-.91,5.83-1.72,1.72-.75,3.18-2.24,4.51-3.57.25-.25,3.82-4.54,3.37-4.7-1.71-.63-2.8-1.25-4.33.02-7.37,6.12-17.48,8.79-26.91,7.11-2.55-.46-5.04-1.21-7.51-2-.98-.32-1.97-.64-2.87-1.15-1.28-.72-2.34-1.81-3.7-2.39-1.54-.67-2.92.21-4.34.92Z" style="fill: #8bc2dd;"/>
          <path d="M93.17,98.32c1.19,3.81,1.96,7.73,2.73,11.64.48,2.46.97,4.93.96,7.43-2.93.34-5.94,0-8.72-.97-.71-.25-1.42-.54-1.98-1.04-.59-.52-.99-1.23-1.54-1.8-1.9-1.97-5.08-1.85-7.46-3.19-1.95-1.09-3.23-3.09-4.18-5.11-.95-2.02-1.67-4.17-2.91-6.04-2.98-4.49-6.55-8.41-4.88-14.23.31-1.08.8-2.14,1.57-2.96,1.19-1.27,2.91-1.85,4.46-2.62,1.91-.95,4.19-2.39,5.38-4.2,1.21-1.85,1.45-3.94,2.01-6.02.33-1.24.88-2.4,1.43-3.56,1.16-2.45,2.33-4.92,3.94-7.1,1.75-2.37,3.98-4.34,6.2-6.29,2.58-2.28,5.24-4.6,8.46-5.82,3.36-1.28,7.05-1.25,10.65-1.21,3.32.04,6.43.68,9.72.24,1.44-.19,2.84-.58,4.28-.81,7.36-1.18,15.26,2.29,19.37,8.51,1.16,1.76,2.04,3.7,3.24,5.43,1.83,2.62,4.39,4.69,6.04,7.43.55.9.99,1.87,1.59,2.73.52.74,1.15,1.39,1.82,1.99,1.72,1.54,3.71,2.77,5.86,3.61,4.48,1.75,5.65,8.8,3.98,13.31-1.24,3.34-4.17,5.71-7.03,7.83-.41.3-.83.61-1.32.71.12-.26.2-.53.23-.81.31,3.72-.06,7.49-1.09,11.08-.29,1.01-.63,2.01-1.2,2.89-.97,1.5-2.52,2.53-4.06,3.42-2.32,1.34-5.01,2.52-7.6,1.84-.87,1.88-2.75,3.14-4.74,3.74-1.99.59-4.09.59-6.17.54-1.52-.04-3.39-.36-3.88-1.8-.4-1.16.41-2.42,1.44-3.07,1.03-.65,2.26-.9,3.39-1.36,2.1-.86,3.81-2.49,5.11-4.35,1.3-1.86,2.22-3.95,3.09-6.04,1.07-2.56,2.09-5.17,2.62-7.9.35-1.82.48-3.68.38-5.54-.22-4.2-.04-7.95-.61-12.11-.07-.53-.16-1.08-.45-1.53-.37-.57-1.02-.89-1.65-1.17-2.34-1.07-4.7-2.08-7-3.22-5.84-2.91-11.3-6.78-15.3-11.94-1.01,2.51-2.83,4.59-4.64,6.6-5.65,6.26-11.54,12.29-17.67,18.09-1.56,1.48-3.41,3.05-5.56,2.9-1.45-.1-2.81-.99-4.26-.82-1.36.16-2.47,1.28-2.93,2.57-.46,1.29-.38,2.71-.12,4.05.42,2.13,1.33,4.26,3.05,5.58,1.72,1.32,4.26,1.87,5.9.46Z" style="fill: #4b4c4e;"/>
          <path d="M96.83,117.18c-2.46,2.05-9.58.27-11.29-2.6-1.71-2.88-4.84-2.72-6.23-2.87-7.21-.79-9.09-13.04-9.09-13.04-5.26-4.42-5.83-6.81-5.69-12.6.14-5.79,7.67-6.83,7.67-6.83,7.53-3.37,4.63-7.97,7.94-14.03,14.76-27.02,36.66-19.28,36.66-19.28,0,0,16.74-7.53,27.07,8.96,10.32,16.49,12.61,17.68,14.98,18.58,2.36.9,12.03,7.26,3.55,19.26,0,0-2.56,2.33-5.59,3.81,0,0,2.01,18.58-13.03,18.04,0,0-2.82,5.33-11.6,4.38" style="fill: none; stroke: #2e3138; stroke-linecap: round; stroke-miterlimit: 10; stroke-width: 1.89px;"/>
          <path d="M145.29,74.81c-14.79-3.36-25.73-16.16-25.73-16.16,0,0-12.78,19.5-29.39,28.55" style="fill: none; stroke: #2e3138; stroke-linecap: round; stroke-miterlimit: 10; stroke-width: 1.89px;"/>
          <path d="M90.64,86.72c-.83-.4-1.72-.66-2.64-.76-1.03-.11-2.17.02-2.93.73-.46.44-.72,1.04-.91,1.65-.94,3.09.08,6.69,2.5,8.83.94.83,2.09,1.46,3.34,1.64,1.24.18,2.58-.11,3.54-.92" style="fill: none; stroke: #2e3138; stroke-linecap: round; stroke-miterlimit: 10; stroke-width: 1.89px;"/>
          <path d="M143.78,74.91s6.74,42.27-22.09,39.67" style="fill: none; stroke: #2e3138; stroke-linecap: round; stroke-miterlimit: 10; stroke-width: 1.89px;"/>
          <path d="M93.1,93.27s6.2,30.18,5.24,35.12" style="fill: none; stroke: #2e3138; stroke-linecap: round; stroke-miterlimit: 10; stroke-width: 1.89px;"/>
          <path d="M104.25,54.11c-2.6,1.52-4.65,3.95-5.73,6.75-.82,2.14-1.17,4.59-2.81,6.19" style="fill: none; stroke: #2e3138; stroke-linecap: round; stroke-miterlimit: 10; stroke-width: 1.89px;"/>
          <path d="M95.47,72.64c-.67.96-1.33,1.92-2,2.88-.95,1.37-2.1,2.86-3.76,3.02" style="fill: none; stroke: #2e3138; stroke-linecap: round; stroke-miterlimit: 10; stroke-width: 1.89px;"/>
          <path d="M87.13,66.67c-1.5,1.16-2.45,3-2.55,4.89-.07,1.52.36,3.11-.22,4.51-.52,1.25-1.73,2.04-2.88,2.76" style="fill: none; stroke: #2e3138; stroke-linecap: round; stroke-miterlimit: 10; stroke-width: 1.89px;"/>
          <path d="M75.62,83.78c-.63,1.15-1.26,2.32-1.59,3.59-.32,1.27-.3,2.68.34,3.82" style="fill: none; stroke: #2e3138; stroke-linecap: round; stroke-miterlimit: 10; stroke-width: 1.89px;"/>
          <path d="M78.5,101.02c.34,1,.69,2.01,1.03,3.01.31.9.62,1.81,1.2,2.56s1.47,1.33,2.41,1.28" style="fill: none; stroke: #2e3138; stroke-linecap: round; stroke-miterlimit: 10; stroke-width: 1.89px;"/>
          <path d="M150.14,101.09c1.65,2.27,1.46,5.7-.44,7.78" style="fill: none; stroke: #2e3138; stroke-linecap: round; stroke-miterlimit: 10; stroke-width: 1.89px;"/>
          <path d="M153.65,78.43c2.59,3.27,3.16,8.02,1.41,11.81" style="fill: none; stroke: #2e3138; stroke-linecap: round; stroke-miterlimit: 10; stroke-width: 1.89px;"/>
          <path d="M124.39,52.85c2.34.2,4.91.5,6.5,2.22.91.98,1.36,2.29,2,3.46,1.49,2.74,4.06,4.77,6.85,6.17,2.79,1.39,5.83,2.21,8.84,3.01" style="fill: none; stroke: #2e3138; stroke-linecap: round; stroke-miterlimit: 10; stroke-width: 1.89px;"/>
          <circle cx="129.4" cy="82.88" r="2.05" style="fill: #2e3138;"/>
          <path d="M108.76,82.88c0,1.13-.92,2.05-2.05,2.05s-2.05-.92-2.05-2.05.92-2.05,2.05-2.05,2.05.92,2.05,2.05Z" style="fill: #2e3138;"/>
          <path d="M118.06,66.93c1.22.19,2.47.19,3.69-.02" style="fill: none; stroke: #2e3138; stroke-linecap: round; stroke-miterlimit: 10; stroke-width: 1.89px;"/>
          <path d="M117.09,70.68c1.85.32,3.76.34,5.61.05" style="fill: none; stroke: #2e3138; stroke-linecap: round; stroke-miterlimit: 10; stroke-width: 1.89px;"/>
          <path d="M121.97,83.67c.54,1.73,1.33,3.39,2.32,4.92.48.74,1.04,1.52,1,2.4-.04.81-.59,1.51-1.27,1.96-.98.65-2.38.81-3.29.06" style="fill: none; stroke: #2e3138; stroke-linecap: round; stroke-miterlimit: 10; stroke-width: 1.89px;"/>
          <path d="M121.51,107.87h3.01" style="fill: none; stroke: #2e3138; stroke-linecap: round; stroke-miterlimit: 10; stroke-width: 1.89px;"/>
          <path d="M112.67,94.97c-.59.69-.91,1.6-.9,2.5" style="fill: none; stroke: #2e3138; stroke-linecap: round; stroke-miterlimit: 10; stroke-width: 1.89px;"/>
          <path d="M129.55,95.17c1.51.06,2.94,1.14,3.41,2.58" style="fill: none; stroke: #2e3138; stroke-linecap: round; stroke-miterlimit: 10; stroke-width: 1.89px;"/>
          <line x1="128.33" y1="115.5" x2="127.24" y2="128.4" style="fill: none; stroke: #2e3138; stroke-linecap: round; stroke-miterlimit: 10; stroke-width: 1.89px;"/>
          <path d="M89,90.66c-.1-.55-.85-.8-1.34-.53-.49.27-.69.9-.62,1.45.08.55.38,1.05.71,1.5" style="fill: none; stroke: #2e3138; stroke-linecap: round; stroke-miterlimit: 10; stroke-width: 1.89px;"/>
          <path d="M97.85,128.29c-3.45,1.13-6.82,2.51-10.07,4.13" style="fill: none; stroke: #2e3138; stroke-linecap: round; stroke-miterlimit: 10; stroke-width: 1.89px;"/>
          <path d="M87.57,132.64c1.88,2.96,4.85,5.11,8.09,6.43s6.75,1.87,10.24,2.11c4.55.32,9.13.13,13.64-.55,3.27-.5,6.54-1.27,9.48-2.78,2.94-1.52,5.59-4.31,6.99-7.31-2.98-.73-5.96-1.47-8.94-2.2" style="fill: none; stroke: #2e3138; stroke-linecap: round; stroke-miterlimit: 10; stroke-width: 1.89px;"/>
          <path d="M118.49,104.6c1.39,0,3.04-.62,4.34-.6,1.58.02,3.19.41,4.44,1.38.84.65,1.75,1.62,2.76,1.28,1.01-.34,1.15-1.69,1.11-2.76-.04-1.06-.09-2.13-.3-3.17-.21-1-.6-2.02-1.4-2.65-.93-.74-2.2-.82-3.39-.84-1.77-.03-3.53,0-5.3.09-1.01.05-2.06.14-2.94.64-1.67.96-2.55,3.32-1.77,5.12.51,1.19,1.41,1.52,2.46,1.52Z" style="fill: none; stroke: #2e3138; stroke-linecap: round; stroke-miterlimit: 10; stroke-width: 1.89px;"/>
          <path d="M134.69,130.33c9.47.34,25.71,7.6,31.12,30.5-.46.49-.97,1.21-1.5,1.61-.37.28-.76.51-1.16.74-1.63.95-3.28,1.9-5.12,2.33" style="fill: none; stroke: #2e3138; stroke-linecap: round; stroke-miterlimit: 10; stroke-width: 1.89px;"/>
          <path d="M88.57,131.77c-1.76.59-3.52,1.19-5.28,1.78-.93.31-1.86.63-2.78,1-5.92,2.38-10.89,7.06-13.62,12.84" style="fill: none; stroke: #2e3138; stroke-linecap: round; stroke-miterlimit: 10; stroke-width: 1.89px;"/>
          <path d="M67.22,146.72c-2.62,6.4-5.24,13.11-6.33,19.94,5.61,2.55,11.41,4.67,17.33,6.35" style="fill: none; stroke: #2e3138; stroke-linecap: round; stroke-miterlimit: 10; stroke-width: 1.89px;"/>
          <path d="M62.11,162.47c6.23,2.42,12.57,4.52,19.01,6.31" style="fill: none; stroke: #2e3138; stroke-linecap: round; stroke-miterlimit: 10; stroke-width: 1.89px;"/>
          <path d="M90.53,131.37c3.71,3.54,8.63,5.68,13.69,6.63,10.13,1.9,21.06-1.01,28.86-7.67" style="fill: none; stroke: #2e3138; stroke-linecap: round; stroke-miterlimit: 10; stroke-width: 1.89px;"/>
        </g>
        <g>
          <path d="M133.83,102.48c-.55.06-1.11.12-1.61.35-.77.35-1.31,1.03-1.83,1.7-.46.59-.93,1.2-1.06,1.93-.13.73.19,1.6.9,1.83.26.09.56.08.81.19.64.3.67,1.17.66,1.88-.02,4.55,2.63,8.74,2.95,13.28.24,3.36.94,6.94,1.31,10.37.66,6.05.65,12.22.93,18.3.13,2.8.26,5.61.65,8.39.38,2.65.99,5.26,1.48,7.89.49,2.67.84,5.36,1.06,8.06.09,1.15.2,2.4.98,3.25.95,1.03,2.53,1.09,3.92,1.04,5.28-.19,10.99-1.17,14.56-5.06.33-.36.64-.75.78-1.21.2-.69-.02-1.43-.23-2.12-.97-3.07-2.04-4.82-2.41-7.95-.41-3.41-2.34-8.12-3.62-11.3-2.79-6.92-5.49-13.89-8.38-20.76-1.08-2.68-2.03-5.38-1.06-8.22,1.01-2.98,1.88-5.78,1.92-8.97.01-.84-.03-1.71-.34-2.49-.22-.55-.57-1.05-.83-1.58-.54-1.12-.7-2.38-1.18-3.52-.85-1.99-2.58-3.37-4.32-4.54-.72-.48-1.27-1.05-2.14-1.1-1.24-.08-2.64.25-3.88.37Z" style="fill: #fff;"/>
          <path d="M142.81,105.6c-1.01-1.03-2.09-2.01-3.22-2.92-.42-.34-.88-.68-1.41-.79-.35-.07-.72-.03-1.08.02-1.01.14-2.02.37-3,.66-.58.18-1.16.38-1.67.7-.97.61-1.63,1.61-2.15,2.63-.2.39-.38.79-.43,1.22-.05.43.05.9.36,1.21.41.41,1.09.44,1.62.2s.93-.68,1.29-1.13c.36-.45.69-.94,1.14-1.3" style="fill: none; stroke: #2e3138; stroke-linecap: round; stroke-miterlimit: 10; stroke-width: 1.89px;"/>
          <path d="M143.62,106.72c-2.52-.37-5.04-.75-7.57-1.12-.25-.04-.5-.07-.74,0-.58.15-.85.8-1.03,1.37-.29.94-.52,1.9-.69,2.87-.12.68-.22,1.38-.06,2.04.16.67.63,1.3,1.29,1.48" style="fill: none; stroke: #2e3138; stroke-linecap: round; stroke-miterlimit: 10; stroke-width: 1.89px;"/>
          <path d="M142.91,109.38c-1.56-.24-3.13-.4-4.7-.49-.26-.01-.54-.03-.78.08-.21.1-.37.28-.52.46-.9,1.12-1.51,2.48-1.75,3.9-.09.55-.13,1.14.08,1.66.2.52.7.96,1.26.95" style="fill: none; stroke: #2e3138; stroke-linecap: round; stroke-miterlimit: 10; stroke-width: 1.89px;"/>
          <path d="M142.6,111.57c-1.11.02-2.22.16-3.3.43-.19.04-.37.09-.54.19-.54.3-.73.96-.87,1.56-.11.47-.21.94-.3,1.41-.12.6-.22,1.24.02,1.8.35.8,1.32,1.16,2.19,1.18.37,0,.78-.05.99-.35.11-.14.15-.32.16-.5.05-.63-.27-1.27-.79-1.61" style="fill: none; stroke: #2e3138; stroke-linecap: round; stroke-miterlimit: 10; stroke-width: 1.89px;"/>
          <path d="M142.83,105.61c.06.94,1.4,1.25,1.78,2.12.21.49.07,1.07.27,1.57.21.53.76.9.84,1.46.05.36-.11.71-.09,1.07.03.5.38.9.64,1.33.73,1.22.67,2.73.48,4.14-.27,2.02-.78,4-1.52,5.9-.48,1.25-1.07,2.48-1.19,3.81" style="fill: none; stroke: #2e3138; stroke-linecap: round; stroke-miterlimit: 10; stroke-width: 1.89px;"/>
          <path d="M132.21,108.37c-.27,1.12-.55,2.25-.55,3.4,0,2.76,1.51,5.26,2.39,7.88.57,1.71.87,3.5,1.16,5.28" style="fill: none; stroke: #2e3138; stroke-linecap: round; stroke-miterlimit: 10; stroke-width: 1.89px;"/>
          <path d="M144.12,127.27c5.09,11.78,12.26,33.89,16.56,45.98" style="fill: none; stroke: #2e3138; stroke-linecap: round; stroke-miterlimit: 10; stroke-width: 1.89px;"/>
          <path d="M135.29,124.58c.66,13.7,2.92,41.56,5.7,54.99" style="fill: none; stroke: #2e3138; stroke-linecap: round; stroke-miterlimit: 10; stroke-width: 1.89px;"/>
          <path d="M165.24,161.6c.8,3.31,1.6,6.62,2.4,9.92" style="fill: none; stroke: #2e3138; stroke-linecap: round; stroke-miterlimit: 10; stroke-width: 1.89px;"/>
        </g>
        <g>
          <path d="M94.85,140.8c.5-.11,1.02-.32,1.52-.19.94.25,1.2,1.48,1.06,2.45s-.45,2.01.01,2.87c.19.36.51.68.52,1.08,0,.4-.3.72-.4,1.11-.28,1.08,1.08,2.28.45,3.2-.15.22-.4.39-.43.65-.03.31.28.54.48.78.79.99-.28,2.48-1.5,2.83-1.22.35-2.55.09-3.75.49-4.28,1.41-3.84,7.5-4.15,10.95-.25,2.78-.76,5.54-1.51,8.23-.4,1.44-.87,2.86-1.41,4.26-.38.98-.65,2.67-1.53,3.32-.4.3-.91.41-1.4.51-2.34.45-4.77.61-7.08.03-2.31-.58-4.48-1.95-5.66-4.02-.19-.33-.35-.71-.28-1.09.06-.3.28-.55.47-.79,2.78-3.43,3.08-8.28,5.43-12.01,1.06-1.68,2.5-3.08,3.75-4.63,4.96-6.13,5.88-13.53,8.71-20.6.06-.16.14-.33.27-.44.14-.11.32-.15.5-.18,1.5-.27,2.38-.83,3.59.1.82.64,1.1,1.37,2.34,1.09Z" style="fill: #fff;"/>
          <g>
            <path d="M93.11,137.37c.47,5.62.34,11.28-.36,16.87-.13,1.02-.27,2.07.04,3.05.31.98,1.23,1.84,2.25,1.72.73-.09,1.33-.66,1.64-1.32.31-.67.45-1.42.37-2.15-.62-6-.92-12.13-1.15-18.34" style="fill: #ff6d04; stroke: #2e3138; stroke-miterlimit: 10; stroke-width: 1.89px;"/>
            <ellipse cx="94.23" cy="117.55" rx="17.76" ry="19.71" transform="translate(-5.13 4.31) rotate(-2.55)" style="fill: #ff6d04; stroke: #2e3138; stroke-miterlimit: 10; stroke-width: 1.89px;"/>
            <ellipse cx="94.22" cy="117.31" rx="13.9" ry="15.43" transform="translate(-5.12 4.3) rotate(-2.55)" style="fill: #ff8d3b; stroke: #2e3138; stroke-miterlimit: 10; stroke-width: 1.89px;"/>
          </g>
          <path d="M92.9,138.59c-1.33.1-2.65.32-3.94.67-.25.07-.51.14-.69.32-.18.17-.28.41-.37.65-.62,1.67-1.08,3.39-1.36,5.14-.15.93-.33,1.13-.56,2.05-.25.99-.5,1.98-.88,2.93-.29.71-.66,1.39-1.02,2.07-4.41,8.35-11.01,17.22-14.34,26.06" style="fill: #fff; stroke: #2e3138; stroke-linecap: round; stroke-miterlimit: 10; stroke-width: 1.89px;"/>
          <path d="M91.9,153.22c1.8-.14,3.6-.27,5.4-.41.48-.04,1.04-.04,1.36.32.28.32.25.83.03,1.19-.22.36-.59.61-.97.81-1.82,1-4.02,1.3-6.04.82-.71-.17-1.2-.34-1.91-.49" style="fill: #fff; stroke: #2e3138; stroke-linecap: round; stroke-miterlimit: 10; stroke-width: 1.89px;"/>
          <path d="M92.52,144.76c1.11.08,2.27.14,3.29-.3.62-.27,1.15-.72,1.53-1.28.2-.3.35-.64.35-1,0-.64-.47-1.16-.92-1.62-.08-.08-.17-.17-.28-.2-.1-.03-.21,0-.32.03-1.33.34-2.65.69-3.98,1.03-.71.18-1.28-.05-1.95-.33" style="fill: #fff; stroke: #2e3138; stroke-linecap: round; stroke-miterlimit: 10; stroke-width: 1.89px;"/>
          <path d="M91.9,152.98c1.39.13,2.8.01,4.15-.35.68-.19,1.38-.45,1.85-.97.48-.52.67-1.36.28-1.95-.45-.68-1.41-.75-2.23-.75-1.42,0-2.84.08-4.24-.14" style="fill: #fff; stroke: #2e3138; stroke-linecap: round; stroke-miterlimit: 10; stroke-width: 1.89px;"/>
          <path d="M92,144.77c1.27-.03,2.54-.06,3.81-.09.27,0,.55-.01.82.04.65.13,1.23.63,1.42,1.27.19.64-.03,1.39-.56,1.8-.38.3-.87.41-1.34.49-1.34.23-2.72.29-4.07.17" style="fill: #fff; stroke: #2e3138; stroke-linecap: round; stroke-miterlimit: 10; stroke-width: 1.89px;"/>
          <path d="M91.82,156.33c-.22.95-1.33,1.41-1.8,2.26-.22.4-.29.87-.36,1.32-1.08,7.57-1.88,15.37-5.36,22.18" style="fill: none; stroke: #2e3138; stroke-linecap: round; stroke-miterlimit: 10; stroke-width: 1.89px;"/>
          <path d="M61.64,167.64c-.25,2.99-.48,5.98-.68,8.97" style="fill: #fff; stroke: #2e3138; stroke-linecap: round; stroke-miterlimit: 10; stroke-width: 1.89px;"/>
        </g>
        <path d="M164,155.37c-1.9,2.33-4.28,4.27-6.95,5.65" style="fill: none; stroke: #2e3138; stroke-linecap: round; stroke-miterlimit: 10; stroke-width: 1.89px;"/>
      </g>
      <rect width="228" height="228" style="fill: none;"/>
    </g>
  </g>
</svg>