<?xml version="1.0" encoding="UTF-8"?>
<svg id="_圖層_2" data-name="圖層 2" xmlns="http://www.w3.org/2000/svg" viewBox="0 0 318 249">
  <g id="_圖層_1-2" data-name="圖層 1">
    <g>
      <g>
        <g>
          <path d="M85.03,135.78c-5.1-1.59-10.05-3.61-14.8-6.04-1.74-.89-3.54-1.92-4.51-3.63.35-.57,1.07-.78,1.74-.84.67-.06,1.36-.03,1.97-.31s1.09-1.01.79-1.62c-4.39.17-8.71,1.09-13,2-8.08,1.71-17.59,2.38-24.19,7.86-2.75,2.28-4.75,5.36-6.3,8.59-3.64,7.56-5.02,15.97-6.36,24.25-1.84,11.4-3.68,22.8-5.53,34.2-.26,1.6-.39,3.55.9,4.53.67.51,1.57.6,2.41.66,8.69.56,17.42-.86,26.12-.39,13.68.74,26.75,6.13,40.39,7.36,14.3,1.29,28.66-2.02,43-1.32,5.28.26,11.01.96,15.45-1.9,3.14-2.02,5.04-5.49,6.42-8.96,1.59-4.01,2.43-8.07,4.45-11.9,1.94-3.67,1.4-8.28.23-12.13-1.59-5.23-1.58-10.93-2.6-16.35-1.06-5.67-2.48-11.27-4.06-16.82-1.09-3.8-2.28-7.7-4.76-10.78-3.42-4.27-8.8-6.41-14.01-8.1-4.33-1.4-8.72-2.61-13.15-3.63-2.13-.49-4.51-.9-6.38.23-2.96,1.78-2.84,6.13-4.83,8.95-1.03,1.46-2.6,2.45-4.22,3.21-9.52,4.47-22.18,1.95-31.08-3.02-2.86-1.6-2.14-2.51-3.1-5.05-1.01-2.68-2.38-1.8-5.21-1.27-5.99,1.11-11.9,2.64-17.67,4.58-.49.17-.98.33-1.47.51" style="fill: #1f89bd;"/>
          <path d="M60.43,60.77c-.63-.43-1.48-1.02-2.11-.64-.27.16-.35.51-.4.82-.7,4.18-1.24,8.37-1.79,12.57-.76,5.8-.42,11.58-.3,17.43.03,1.45.06,2.9.32,4.32.37,2.01,1.19,3.91,2.13,5.72,2.03,3.91,4.72,7.58,8.22,10.28.9.69,1.84,1.33,2.84,1.86,1.59.84,2.45.07,2.29,2.24-.13,1.74-.4,3.48-.78,5.19-.22.97-.18,2.56-.62,3.42-.56,1.1-2.1,1.93-3.05,2.7-.19.15-.38.32-.46.54-.19.55.41,1.04.92,1.32,6.07,3.34,12.52,5.98,19.19,7.86.62.17,1.25.34,1.88.31.87-.05,1.66-.47,2.44-.86,5.63-2.92,11.5-5.37,17.54-7.32.89-.29,1.83-.59,2.46-1.28.64-.69.82-1.89.13-2.52-.29-.26-.68-.39-.98-.64-.89-.73-.84-4.23-.91-5.34-.2-3.03-.28-6.08-.07-9.11.16-2.3-.17-4.62-.13-6.92.03-2.09.97-2.92,2.36-4.46.52-.58,1.05-1.17,1.46-1.84.82-1.33,1.15-2.96.91-4.51-.2-1.28-.86-2.57-2.03-3.13-.75-.36-1.62-.37-2.45-.35-1.59.04-1.83,1.53-3.08,2.03-1.4.55-2.36-.77-2.84-1.9-.65-1.56-1.31-3.13-1.79-4.76-.59-1.98-.93-4.02-1.21-6.06-.88-6.33-1.25-12.72-1.11-19.11-.01.69-6.27,2.34-7.04,2.56-2.49.71-5.04,1.25-7.61,1.6-2.58.35-5.17.26-7.75.51-2.24.21-3.96.78-6.32.52-2.27-.25-4.51-.76-6.69-1.46-1.09-.36-2.15-.74-3.15-1.29-.12-.07-.27-.16-.42-.27Z" style="fill: #fff;"/>
          <path d="M102.76,109.43c-.83.85-.99,2.15-1.63,3.16-.94,1.48-2.79,2.14-3.87,3.53-1.55,2.01-1.13,5.01-2.57,7.1-1.11,1.62-3.11,2.35-5.01,2.81-1.91.46-3.92.77-5.55,1.86-1.63,1.09-2.74,3.29-1.87,5.05.68,1.38,2.28,2.01,3.74,2.51.81.28,1.65.56,2.5.51.66-.04,1.3-.28,1.92-.52,4.74-1.82,9.47-3.64,14.21-5.47,2.28-.88,4.62-1.79,6.46-3.4.49-.43.96-1.14.58-1.66-.25-.34-.73-.39-1.12-.53-1.44-.55-1.71-2.44-1.74-3.98-.06-2.87.77-7.67-.36-10.3-.79-1.83-4.42-2.36-5.68-.67Z" style="fill: #ffb57f;"/>
          <g>
            <path d="M70.23,39.94c-1.07-1.61-1.59-3.88-3.41-4.54-1.17-.42-2.49.02-3.54.7-1.42.92-2.56,2.28-3.22,3.84-2.01-1.31-4.69-1.52-6.88-.53-2.19.99-3.8,3.15-4.14,5.52-.54,3.84,2.01,7.37,4.6,10.25,3.34,3.71,7.3,5.91,12.12,7.24,3.5.96,7.48,1.46,11.09.88,3.67-.59,7.44-.55,11.13-1.24,2.85-.54,5.66-1.28,8.47-2.02,1.38-.36,2.76-.73,4.13-1.09-.48.7-.55,1.59-.58,2.44-.23,5.57.4,11.13,1.03,16.67.25,2.18.5,4.37,1.16,6.45.62,1.94,1.58,3.75,2.54,5.54.17.31.34.64.62.86.76.6,2.26-.09,3.06-.28,1.17-.29,2.33-.57,3.5-.86.75-.18,1.53-.39,2.08-.93.47-.47.69-1.12.9-1.75,1.88-5.82,3.29-11.86,3.4-18,.03-1.86-.05-3.72-.29-5.57-.21-1.64-.1-3.28-.41-4.92-.62-3.3-2.06-6.44-4.11-9.09-.62-.81-1.31-1.58-2.09-2.23-.52-.43-1.09-.81-1.65-1.18-3.13-2.07-6.1-4.12-9.84-4.9-2.44-.51-4.95-.53-7.43-.42-4.47.19-8.92.78-13.33,1.53-3.43.58-6.64.99-8.89-2.38Z" style="fill: #4b4c4e;"/>
            <circle cx="67.96" cy="80.96" r="2.27" style="fill: #2e3138;"/>
            <path d="M92.39,80.8c0,1.26-1.02,2.27-2.27,2.27s-2.27-1.02-2.27-2.27,1.02-2.27,2.27-2.27,2.27,1.02,2.27,2.27Z" style="fill: #2e3138;"/>
            <path d="M105.63,90.43c1.57-2.9,4.13-3.97,6.27-2.64,1.38.86,2.66,3.03,2.56,5.61-.07,1.77-.76,3.28-1.53,4.43-1.87,2.82-4.52,4.28-6.86,2.96" style="fill: #fff; stroke: #2e3138; stroke-linecap: round; stroke-miterlimit: 10; stroke-width: 1.33px;"/>
            <path d="M58.26,59.85s-10.42,40.03,8.31,51.27c5.25,3.15,24.38,6.26,34.18-5.21" style="fill: none; stroke: #2e3138; stroke-linecap: round; stroke-miterlimit: 10; stroke-width: 1.33px;"/>
            <line x1="108.65" y1="102.28" x2="109.53" y2="124.77" style="fill: none; stroke: #2e3138; stroke-linecap: round; stroke-miterlimit: 10; stroke-width: 1.33px;"/>
            <path d="M71.57,113.98c-.61,4.09-.67,5.96-1.22,10.79" style="fill: none; stroke: #2e3138; stroke-linecap: round; stroke-miterlimit: 10; stroke-width: 1.33px;"/>
            <path d="M78.76,78c-.28,2.51-1.21,4.95-2.69,7-.46.64-.99,1.28-1.11,2.07-.07.48.03.96.21,1.41.77,1.88,3.21,2.86,5.06,2.04" style="fill: none; stroke: #2e3138; stroke-linecap: round; stroke-miterlimit: 10; stroke-width: 1.33px;"/>
            <path d="M86.16,74.29c2.79.02,5.56.85,7.9,2.38" style="fill: none; stroke: #2e3138; stroke-linecap: round; stroke-miterlimit: 10; stroke-width: 1.33px;"/>
            <path d="M69.61,74.4c-2.82.23-5.57,1.26-7.85,2.94" style="fill: none; stroke: #2e3138; stroke-linecap: round; stroke-miterlimit: 10; stroke-width: 1.33px;"/>
            <path d="M83.04,98.88c-2.69-.89-5.71-.73-8.29.44" style="fill: none; stroke: #2e3138; stroke-linecap: round; stroke-miterlimit: 10; stroke-width: 1.33px;"/>
            <path d="M85.51,96.22c.92.45,1.47,1.56,1.27,2.56" style="fill: none; stroke: #2e3138; stroke-linecap: round; stroke-miterlimit: 10; stroke-width: 1.33px;"/>
            <path d="M109.92,94.28c.31-.46.94-.56,1.49-.61.13-.01.26-.03.39,0,.25.06.43.27.55.49.35.68.14,1.6-.47,2.06" style="fill: none; stroke: #2e3138; stroke-linecap: round; stroke-miterlimit: 10; stroke-width: 1.33px;"/>
            <path d="M65.47,46.31c2.76,2.23,6.21,3.61,9.75,3.88" style="fill: none; stroke: #2e3138; stroke-linecap: round; stroke-miterlimit: 10; stroke-width: 1.33px;"/>
            <path d="M55.48,46.92c.18,2.89,1.65,5.68,3.93,7.47" style="fill: none; stroke: #2e3138; stroke-linecap: round; stroke-miterlimit: 10; stroke-width: 1.33px;"/>
            <path d="M112.78,69.22c.56.37.61,1.15.59,1.82-.03,1.47-.09,2.96-.44,4.39-.45,1.78-1.36,3.47-1.38,5.3" style="fill: none; stroke: #2e3138; stroke-linecap: round; stroke-miterlimit: 10; stroke-width: 1.33px;"/>
            <path d="M105.61,90.62c-5.56-2.87-6.18-23.58-5.35-32.14-8.66,4.97-30.73,6.48-39.79,2.29-5.8-2.69-11.1-7.96-11.13-14.35-.02-2.79,1.14-5.72,3.52-7.18,2.38-1.45,5.99-.86,7.27,1.62.21-1.96,1.1-3.97,2.79-4.99s4.24-.67,5.19,1.06c.37.67.47,1.46.73,2.18.91,2.51,3.72,3.92,6.38,4.02,2.67.1,5.25-.85,7.75-1.79,0,0,23.72-5.12,32.25,10.73,8.52,15.85-1.45,36.69-1.45,36.69" style="fill: none; stroke: #2e3138; stroke-linecap: round; stroke-linejoin: round; stroke-width: 1.33px;"/>
            <path d="M104.83,62.55c.08,2.27.11,4.54.08,6.81" style="fill: none; stroke: #2e3138; stroke-linecap: round; stroke-miterlimit: 10; stroke-width: 1.33px;"/>
            <path d="M82.25,56.4c.13.24.45.27.71.27,3.86,0,7.71-.44,11.46-1.33" style="fill: none; stroke: #2e3138; stroke-linecap: round; stroke-miterlimit: 10; stroke-width: 1.33px;"/>
            <path d="M78.01,104.23c.88.07,1.77-.01,2.61-.25" style="fill: none; stroke: #2e3138; stroke-linecap: round; stroke-miterlimit: 10; stroke-width: 1.33px;"/>
          </g>
          <g>
            <circle cx="63.21" cy="91.18" r="2.25" style="fill: none; stroke: #ffe0ca; stroke-linecap: round; stroke-miterlimit: 10; stroke-width: 1.33px;"/>
            <circle cx="63.21" cy="91.18" r="1.65" style="fill: none; stroke: #ff6d04; stroke-linecap: round; stroke-miterlimit: 10; stroke-width: 1.33px;"/>
          </g>
          <g>
            <path d="M98.04,102.28c0,1.24-1.01,2.25-2.25,2.25s-2.25-1.01-2.25-2.25,1.01-2.25,2.25-2.25,2.25,1.01,2.25,2.25Z" style="fill: none; stroke: #ffe0ca; stroke-linecap: round; stroke-miterlimit: 10; stroke-width: 1.33px;"/>
            <path d="M97.44,102.28c0,.91-.74,1.65-1.65,1.65s-1.65-.74-1.65-1.65.74-1.65,1.65-1.65,1.65.74,1.65,1.65Z" style="fill: none; stroke: #ff6d04; stroke-linecap: round; stroke-miterlimit: 10; stroke-width: 1.33px;"/>
          </g>
          <path d="M69.38,125.21c-1.08.34-2.16.69-3.25,1.03,1.52,3.14,20.56,10.06,23.21,9.91,2-.11,20.86-7.34,22.91-10.62-.35-.39-1.34-.51-2.59-1.31" style="fill: none; stroke: #2e3138; stroke-linecap: round; stroke-linejoin: round; stroke-width: 1.33px;"/>
          <path d="M70.42,123.02c-8.66.93-17.14,3-25.6,5.07-3.65.89-7.39,1.82-10.52,3.9-5.23,3.47-7.99,9.56-10.31,15.39-1.7,4.27-8.6,49.74-8.6,57.36" style="fill: none; stroke: #2e3138; stroke-linecap: round; stroke-linejoin: round; stroke-width: 1.33px;"/>
          <path d="M69.97,97.56c-.91.46-1.27,1.75-.73,2.62" style="fill: none; stroke: #2e3138; stroke-linecap: round; stroke-miterlimit: 10; stroke-width: 1.33px;"/>
          <g>
            <path d="M106.87,183.2c.09.44.2.89.5,1.22.4.43,1.04.52,1.62.56,2.38.18,4.77.02,7.15-.14,1.64-.11,3.29-.22,4.93-.33.56-.04,1.18-.1,1.56-.52.38-.42.39-1.04.38-1.61-.14-5.29-.52-10.58-1.15-15.83-4.64-.38-9.33-.28-13.95.3-1.45.18-1.9.41-1.96,1.8-.07,1.62-.16,3.23-.14,4.84.04,3.26.4,6.51,1.06,9.7Z" style="fill: #ffad0f;"/>
            <path d="M122.12,166.57c.51,5.64.94,11.28,1.28,16.93.02.25.02.53-.12.74-.19.27-.57.32-.9.34l-13.8.99c-1.11.08-2.07-.77-2.14-1.89l-.92-16.32c5.52-.48,11.06-.51,16.6-.79Z" style="fill: none; stroke: #2e3138; stroke-linecap: round; stroke-miterlimit: 10; stroke-width: 1.33px;"/>
            <path d="M105.99,170.9c5.45.17,10.92-.04,16.34-.63" style="fill: none; stroke: #2e3138; stroke-linecap: round; stroke-miterlimit: 10; stroke-width: 1.33px;"/>
          </g>
          <g>
            <path d="M109.11,169.42c-.78.3-1.69.78-1.73,1.61-.02.43.2.82.41,1.2,1.64,3.01,2.29,6.45,3.34,9.71,3.38,10.57,10.83,19.26,18.11,27.64.93,1.08,1.9,2.18,3.17,2.82,1.09.55,2.33.73,3.55.84,3.64.33,7.52.12,10.62-1.83,4.48-2.82,6.16-8.44,7.5-13.57.86-3.3,1.71-6.89.39-10.04-.83-1.99-2.43-3.54-3.98-5.03-5-4.8-10-9.6-14.99-14.39-1.68-1.61-4.73-5.94-7.07-6.29-2.21-.33-6.09,2.17-8.13,2.97-3.73,1.45-7.45,2.9-11.18,4.36Z" style="fill: #1f89bd;"/>
            <path d="M123.6,136.47c-.61-3.29-1.68-6.5-3.17-9.5-.43-.86-1.09-1.83-2.06-1.79-1.04.05-1.6,1.23-1.82,2.24-.22,1.01-.44,2.2-1.36,2.68-3.13-2.79-2.9-8.03-5.91-10.95-1.11-1.08-3.06-1.67-4.13-.55-.48.5-.64,1.21-.76,1.89-.52,3.06-.33,6.23.53,9.2-.89-1.18-.89-2.79-1.3-4.21-.49-1.73-1.65-3.26-3.17-4.22-1.33-.83-3.39-1.04-4.18.31-.37.64-.33,1.42-.26,2.16.17,1.8.45,3.58.82,5.35-1.13-1.39-3.24-1.87-4.86-1.11-1.62.76-2.6,2.69-2.26,4.45.23,1.21,1.01,2.27,1.18,3.48-1.95.09-2.88,2.71-2.12,4.51.76,1.8,2.51,2.93,4.1,4.06,4.15,2.95,7.78,6.63,10.69,10.81.96,1.39,1.78,3.14,2.98,4.33,1.34,1.33,2.54,1.81,3.11,3.83.49,1.73.6,3.62,1.58,5.13,4.76-1.14,9.38-2.81,13.77-4.98,1-.5,2.13-1.25,2.1-2.36-.02-.56-.33-1.06-.63-1.54-1.14-1.86-2-3.88-2.57-5.98" style="fill: #fff;"/>
            <path d="M126.93,161.31c-1.14-2.33-3.4-8.33-3.4-8.33.73-4.04,1.56-10.49.87-14.8-.65-4.08-2.56-8-4.21-11.79-.2-.46-.44-.97-.9-1.18-.44-.21-.97-.08-1.39.17-1.35.79-1.74,2.56-1.78,4.13-.08,3.37.84,6.67,1.76,9.92" style="fill: none; stroke: #2e3138; stroke-linecap: round; stroke-linejoin: round; stroke-width: 1.33px;"/>
            <path d="M115.77,131.8c-.92-1.28-1.77-2.63-2.52-4.02-.59-1.08-1.12-2.2-1.48-3.38-.31-1.03-.49-2.1-.83-3.12-.34-1.02-.89-2.02-1.76-2.64-.88-.62-2.14-.79-3.03-.18-.94.64-1.2,1.89-1.28,3.03-.11,1.59,0,3.2.25,4.77.27,1.67.71,3.31,1.3,4.9" style="fill: none; stroke: #2e3138; stroke-linecap: round; stroke-linejoin: round; stroke-width: 1.33px;"/>
            <path d="M105.87,130.96c-1.43-1.79-2.86-3.6-3.98-5.6-.5-.9-.94-1.85-1.6-2.65s-1.58-1.45-2.62-1.49c-.41-.02-.86.08-1.11.4-.12.15-.19.35-.24.54-.6,2.22.45,4.51,1.48,6.57,1.07,2.14,2.14,4.27,3.21,6.41" style="fill: none; stroke: #2e3138; stroke-linecap: round; stroke-linejoin: round; stroke-width: 1.33px;"/>
            <path d="M100.68,135.01c-1.81-1.78-3.74-3.45-5.76-4.99-1.09-.83-2.51-1.66-3.74-1.06-.87.42-1.3,1.47-1.24,2.44.07.96.54,1.85,1.09,2.65,1.89,2.74,4.7,4.71,6.83,7.27" style="fill: none; stroke: #2e3138; stroke-linecap: round; stroke-linejoin: round; stroke-width: 1.33px;"/>
            <path d="M97.02,141.06c-2.27-1.86-4.86-3.33-7.63-4.32-.27-.1-.58-.19-.84-.05-.19.1-.3.3-.38.5-.56,1.38-.01,3,.93,4.15.94,1.15,2.22,1.96,3.42,2.86,6.2,4.63,10.21,11.7,16.31,16.46,1.08.84.59,1.65.96,2.97l1.38,4.9" style="fill: none; stroke: #2e3138; stroke-linecap: round; stroke-linejoin: round; stroke-width: 1.33px;"/>
            <path d="M96.56,121.62c.75-.7,2.03-1.35,3.01-1.02.98.33,1.78,1.06,2.39,1.88.99,1.34,1.54,2.99,1.57,4.65" style="fill: none; stroke: #2e3138; stroke-linecap: round; stroke-linejoin: round; stroke-width: 1.33px;"/>
            <path d="M91.18,128.95c1.31-.91,3-1.3,4.2-.67.83.43,1.5,1.1,2.11,1.8.71.8,1.39,1.78,1.28,2.84" style="fill: none; stroke: #2e3138; stroke-linecap: round; stroke-linejoin: round; stroke-width: 1.33px;"/>
            <path d="M88.56,136.68c0-.2.63-.68.95-.72.43-.06.87-.07,1.31-.07,1.08,0,1.91.31,2.66,1.07.34.35.92.62,1.1,1.07" style="fill: none; stroke: #2e3138; stroke-linecap: round; stroke-linejoin: round; stroke-width: 1.33px;"/>
            <path d="M144.34,182.03c-3.97-8.01-10.18-14.65-16.3-21.17-5.6,4.51-12.74,6.51-19.54,8.82-.36.12-.74.27-.94.59-.21.35-.13.8-.04,1.2,2.12,9.16,5.95,17.92,11.21,25.72,2.39,3.53,5.3,6.4,7.87,9.76,2.36,3.08,5.42,5.98,9.4,6.57,25.47,3.8,18.33-37.88,16.59-49.37-1.11-7.34-2.74-14.51-4.57-21.7-.44-1.74-.89-3.5-1.65-5.12-5.58-11.91-23.26-14.59-34.84-17.02" style="fill: none; stroke: #2e3138; stroke-linecap: round; stroke-linejoin: round; stroke-width: 1.33px;"/>
          </g>
          <path d="M44.28,163.99c.07,13.21.15,26.42.22,39.63" style="fill: none; stroke: #2e3138; stroke-linecap: round; stroke-linejoin: round; stroke-width: 1.33px;"/>
        </g>
        <g>
          <path d="M265.96,51.47c-11.61,0-21.03,9.41-21.03,21.03s9.41,21.03,21.03,21.03,21.03-9.41,21.03-21.03-9.41-21.03-21.03-21.03ZM265.96,85.33c-7.09,0-12.83-5.75-12.83-12.83s5.75-12.83,12.83-12.83,12.83,5.75,12.83,12.83-5.75,12.83-12.83,12.83Z" style="fill: #ff6d04; stroke: #2e3138; stroke-linecap: round; stroke-linejoin: round; stroke-width: 2.47px;"/>
          <g>
            <path d="M256.13,179.76c-.76-.31-1.54-.63-2.16-1.18-.62-.55-1.05-1.37-.92-2.18.22-1.32,1.71-1.97,3.02-2.27,1.2-.27,2.43-.43,3.67-.48.22,0,.44-.02.64-.12.41-.21.52-.77.45-1.22-.28-1.77-2.27-2.61-3.91-3.32-2.21-.94-4.28-2.19-6.16-3.69-.46,3.63-3.06,6.9-6.48,8.18-.95.35-2.01.6-2.68,1.35-.68.76-.81,1.89-.58,2.88.09.37.22.73.18,1.11-.03.39-.24.73-.42,1.08-.62,1.17-1.03,2.46-1.19,3.78-.04.36-.07.73.06,1.06.23.62.88.95,1.48,1.21,3.89,1.67,8.15,2.59,12.37,2.26,3.42-.27,6.8-1.38,9.61-3.37.41-.29,1.66-.97,1.52-1.56-.1-.41-2.24-.99-2.65-1.16-1.94-.79-3.88-1.59-5.82-2.38Z" style="fill: #fff9cb;"/>
            <path d="M280.84,177.13c-6.22-1.73-12.69-2.61-19.15-2.59-3.07,0-6.25.24-8.96,1.68,2.14,3.7,7.07,4.35,11.09,5.8.92.33,1.96.94,1.95,1.92-.02.88-.89,1.46-1.68,1.84-5.8,2.81-12.6,3.51-18.85,1.94-5.43-1.36-10.74-4.38-16.26-3.46-1.63.27-3.54,1.52-3.06,3.09.25.8,1.04,1.29,1.77,1.7,2.87,1.61,5.76,3.17,8.68,4.69,8.2,4.27,17,8.28,26.24,7.9,5.16-.21,10.17-1.79,14.94-3.77,2.73-1.13,5.45-2.41,8.36-2.88,4.05-.66,8.18.27,12.09,1.49.64.2,1.31.41,1.97.27.81-.17,1.42-.83,1.87-1.52,2.09-3.23,2.45-13.15-2.04-14.8-2.54-.93-6.32-.03-9.11-.59-3.34-.67-6.56-1.8-9.84-2.71Z" style="fill: #fff;"/>
            <path d="M301.48,179.99c-3.77,1.26-7.9.93-11.76,0-3.86-.93-7.55-2.45-11.36-3.58-6.99-2.08-14.36-2.87-21.63-2.31-.94.07-1.92.18-2.74.64s-1.48,1.37-1.34,2.31c.15,1.04,1.13,1.73,2.05,2.23,3.63,2,7.64,3.29,11.75,3.79" style="fill: none; stroke: #2e3138; stroke-linecap: round; stroke-linejoin: round; stroke-width: 1.67px;"/>
            <path d="M269.16,181.64c-2.38,1.67-4.88,3.19-7.47,4.53-2.31,1.2-4.74,2.28-7.32,2.63-8.9,1.2-17.35-6.38-26.2-4.83-1,.17-2.17.68-2.25,1.69-.05.62.35,1.19.78,1.65,1.38,1.52,3.11,2.65,4.85,3.74,7.93,4.97,16.58,9.39,25.92,10.01,7.52.5,15.01-1.5,21.96-4.41,1.91-.8,3.83-1.68,5.89-1.88,1.45-.14,2.9.06,4.35.25,3.96.54,7.92,1.09,11.88,1.63" style="fill: none; stroke: #2e3138; stroke-linecap: round; stroke-linejoin: round; stroke-width: 1.67px;"/>
            <path d="M239.45,184.92c0,.12-.19,0-.22-.12-.38-1.97.66-4.03,2.23-5.29,1.57-1.26,3.59-1.82,5.58-2.08" style="fill: none; stroke: #2e3138; stroke-linecap: round; stroke-linejoin: round; stroke-width: 1.67px;"/>
            <path d="M241.63,179.12c-.86-.74-.95-2.12-.44-3.14.51-1.02,1.49-1.72,2.5-2.24,1.01-.52,2.1-.89,3.08-1.47,2.16-1.28,3.3-3.37,3.71-5.78.28-1.62.68-1.34,1.74-.35,1.03.97,2.28,1.57,3.56,2.12,1.28.55,2.59,1.08,3.65,1.98,1.07.89,1.87,2.22,1.75,3.61" style="fill: none; stroke: #2e3138; stroke-linecap: round; stroke-linejoin: round; stroke-width: 1.67px;"/>
          </g>
          <g>
            <path d="M229.35,128.42c-2.29-1.22-4.59-2.45-6.88-3.67-.05-.03-.1-.06-.11-.12,0-.04.02-.08.04-.12,1.05-1.58,2.11-3.15,3.16-4.73.34-.51.69-1.03,1.03-1.54.06-.09.13-.19.23-.22.1-.03.21.01.31.06,1.13.49,2.48.87,3.52,1.52,1.16.73,1,.76.68,2.21-.13.56-1.9,6.64-1.98,6.61Z" style="fill: #fff;"/>
            <g>
              <path d="M226.94,110.85c.8.18,1.54.56,2.27.91l21.83,10.58c-.4,1.71-2.2,2.83-3.95,3-1.75.17-3.48-.4-5.13-1.01-6.16-2.28-12.05-5.21-17.93-8.13.71-1.84,2.2-3.5,2.91-5.35Z" style="fill: #fff; stroke: #2e3138; stroke-linecap: round; stroke-linejoin: round; stroke-width: 1.67px;"/>
              <path d="M228.89,135.18c1.2-1.66,2.08-3.55,2.58-5.53-4.06-2.13-8.16-4.17-12.31-6.13-1.13,1.86-2,3.88-2.56,5.99" style="fill: #fff; stroke: #2e3138; stroke-linecap: round; stroke-linejoin: round; stroke-width: 1.67px;"/>
              <path d="M231.8,146.18c.79-1.3,1.39-2.7,1.8-4.17.12-.41.22-.84.18-1.27-.08-1.07-.96-1.89-1.8-2.56-6.63-5.29-14.78-8.66-23.22-9.6-.81,1.96-1.53,3.95-2.17,5.97" style="fill: #fff; stroke: #2e3138; stroke-linecap: round; stroke-linejoin: round; stroke-width: 1.67px;"/>
              <path d="M231.52,120.27c-.77,2.83-1.33,5.1-2.1,7.93" style="fill: #ff6d04; stroke: #2e3138; stroke-linecap: round; stroke-linejoin: round; stroke-width: 1.67px;"/>
              <path d="M227.06,117.79c-1.84,2.43-3.31,4.49-5.22,7.01" style="fill: #ff6d04; stroke: #2e3138; stroke-linecap: round; stroke-linejoin: round; stroke-width: 1.67px;"/>
              <path d="M234.64,148.48c-2.45-1.25-4.92-2.47-7.41-3.63l-24.51-11.88-21.82,44.71c-1.15,2.02-2.35,4.07-2.08,6.37.24,2.05,1.64,3.82,3.33,5.02,2.45,1.81,19.63,10.05,22,10.57,3.04.66,5.36-.23,7.03-2.79,1.07-1.64,8.4-16.69,11.2-22.5,2.85-5.9,5.66-11.81,8.44-17.74,1.27-2.71,2.54-5.42,3.8-8.14Z" style="fill: #fff; stroke: #2e3138; stroke-linecap: round; stroke-linejoin: round; stroke-width: 1.67px;"/>
              <path d="M227.67,151.17c-.1.2-.19.39-.29.59l-20.45,42.18-22.52-10.92c.31-.53.23-.52.53-1.05l20.04-41.35,22.67,10.55Z" style="fill: #ff6d04; stroke: #2e3138; stroke-linecap: round; stroke-linejoin: round; stroke-width: 1.67px;"/>
            </g>
          </g>
          <path d="M248.66,133.37c-.42,2.78-1.54,5.4-2.07,8.16-.53,2.76-.35,5.88,1.49,8,.33.38.74.73,1.23.83.73.15,1.48-.32,1.88-.95.4-.63.51-1.4.57-2.15.3-3.47-.29-6.95-.87-10.39-.28-1.67-.47-7.8-2.11-8.1.01,1.54.07,3.04-.12,4.59Z" style="fill: #fff9cb; stroke: #2e3138; stroke-linecap: round; stroke-linejoin: round; stroke-width: 1.67px;"/>
          <g>
            <path d="M206.12,68.45c2.98,1.22,5.65,3.14,7.86,5.48,2.04,2.16,4.09,4.39,2.38,7.34-2.9,5-27.91,47.85-30.59,55.41-8.55-6.69-17.56-12.79-26.95-18.23.24.14,32.74-43.26,38.37-49.65.6-.68,1.25-1.38,2.12-1.63.59-.17,1.21-.12,1.82-.04,1.74.22,3.41.68,4.99,1.32Z" style="fill: #fff; stroke: #2e3138; stroke-linecap: round; stroke-linejoin: round; stroke-width: 1.67px;"/>
            <path d="M189.16,78.73c2.22.01,4.49.03,6.58.78,1.33.48,2.55,1.24,3.72,2.03,2.41,1.62,4.71,3.41,6.88,5.33,1.59,1.42,3.18,3,3.79,5.04" style="fill: none; stroke: #2e3138; stroke-linecap: round; stroke-linejoin: round; stroke-width: 1.67px;"/>
            <path d="M176,96.06c3,3.65,6.2,7.19,10.02,9.97,3.82,2.78,8.33,4.78,13.05,5.01" style="fill: none; stroke: #2e3138; stroke-linecap: round; stroke-linejoin: round; stroke-width: 1.67px;"/>
            <path d="M162.67,114.7c8.96,5.66,16.71,10.87,25.33,17.03" style="fill: none; stroke: #2e3138; stroke-linecap: round; stroke-linejoin: round; stroke-width: 1.67px;"/>
            <path d="M203.6,66.4c1.46,1.38,3.79,1.74,5.43,2.89,1.41.98,4.16,3.61,5.91,4.75,0,0,2.5-4.55,3.08-5.64.93-1.78,1.85-3.57,2.75-5.37.07-.14.14-.29.11-.44-.04-.18-.2-.29-.35-.39-1.61-1.03-3.25-2-4.88-3-.85-.52-3.25-2.24-3.25-2.24-1.03.24-8.69,9.51-8.79,9.45Z" style="fill: #c7c8c8; stroke: #2e3138; stroke-linecap: round; stroke-linejoin: round; stroke-width: 1.67px;"/>
            <path d="M214.09,58.48c-2.24,2.42-5.43,6.09-7.23,8.86" style="fill: none; stroke: #2e3138; stroke-linecap: round; stroke-linejoin: round; stroke-width: 1.67px;"/>
            <path d="M216.03,59.91c-1.81,2.56-4.67,6.24-6.48,8.8" style="fill: none; stroke: #2e3138; stroke-linecap: round; stroke-linejoin: round; stroke-width: 1.67px;"/>
            <path d="M217.96,60.96c-1.7,2.84-4.38,6.77-6.17,9.56" style="fill: none; stroke: #2e3138; stroke-linecap: round; stroke-linejoin: round; stroke-width: 1.67px;"/>
            <path d="M219.16,61.94c-1.33,2.98-3.87,7.42-5.62,10.17" style="fill: none; stroke: #2e3138; stroke-linecap: round; stroke-linejoin: round; stroke-width: 1.67px;"/>
            <path d="M194.03,91.35c-1-.7-2.05-1.34-3.12-1.93-.69.92-1.3,1.91-1.81,2.95.72.61,1.45,1.22,2.17,1.83.07.06.15.13.16.22,0,.08-.04.16-.08.23-.46.71-.92,1.42-1.38,2.13,1.01.6,2.02,1.2,3.04,1.8.41-.61.74-1.27,1-1.96,1.03.36,2.01.88,2.89,1.52.5-1.3,1.1-2.57,1.8-3.78-.77-.63-1.58-1.21-2.44-1.72.49-.79.98-1.57,1.47-2.36-.57-.4-1.39-1.33-2.12-1.06-.6.22-1.22,1.63-1.58,2.11Z" style="fill: #ff6d04; stroke: #2e3138; stroke-linecap: round; stroke-linejoin: round; stroke-width: 1.67px;"/>
          </g>
        </g>
      </g>
      <rect width="318" height="249" style="fill: none;"/>
    </g>
  </g>
</svg>