<?xml version="1.0" encoding="UTF-8"?>
<svg id="_圖層_2" data-name="圖層 2" xmlns="http://www.w3.org/2000/svg" viewBox="0 0 536.77 664.2">
  <g id="_圖層_1-2" data-name="圖層 1">
    <g>
      <path d="M471.39,238.33c-3.68,3.92-7.4,7.87-11.84,10.9-4.44,3.03-9.72,5.11-15.09,4.83,14.9,34.52,32.59,67.84,52.83,99.53,5.6,8.76,11.52,17.72,13.25,27.97.48,2.83.63,5.73,1.38,8.51.88,3.22,2.57,6.22,4.88,8.63.77-.69,2.19-1.07,2.96-1.76,1.38,3.05,2.77,6.11,4.15,9.16.43.95.95,1.99,1.92,2.37.59.23,1.28.19,1.84.49,1.28.69,1.88,3.03,3.24,2.5,1.03-.4.69-1.57.95-2.36.39-1.17,1.21-2.22,1.65-3.39,1.81-4.79.63-10.14,1-15.24.34-4.55,1.93-9.03,1.55-13.58-.26-3.16-1.57-6.2-3.57-8.65-1.98-2.42-4.83-3.33-6.93-5.4-5.1-5.02-9.18-11.93-12.22-18.35-1.31-2.77-2.45-5.63-3.59-8.48-1.31-3.27-2.61-6.54-3.92-9.81-2.04-5.11-4.09-10.24-5.66-15.52-3.13-10.51-8.04-19.51-12.95-29.31-2.05-4.09-4.64-7.9-6.57-12.04-1.66-3.56-2.81-7.34-3.95-11.1-1.88-6.19-3.41-13.71-5.3-19.9Z" style="fill: #fff;"/>
      <path d="M469.25,226.21c-1.28,2.34-2.63,4.65-4.2,6.81-5.85,8.09-14.76,13.91-24.52,16.03-.31,1.16-.47,2.7.58,3.3.38.21.83.24,1.26.26,1.55.07,3.1.14,4.65.21,1.28.06,2.56.11,3.83-.04,2.55-.31,4.91-1.47,7.1-2.81,7.66-4.68,13.78-11.84,17.19-20.14,1.13-2.74,1.97-5.79,1.11-8.62-.53-1.75-2.24-5.32-3.55-2.53-1.17,2.52-2.12,5.08-3.47,7.54Z" style="fill: #8fc4de;"/>
      <path d="M282.46,209.94c-.23.13-.46.31-.51.56-.04.26.13.51.3.71,4.76,5.87,10.25,11.09,15.73,16.3,1.42,1.35,2.85,2.71,4.44,3.86,3.65,2.64,8.01,4.1,12.33,5.39,1.33.4,2.74.79,4.1.49.83-.18,1.59-.61,2.33-1.04,1.68-.97,3.37-1.94,4.82-3.24.31-.28.63-.61.65-1.03.03-.54-.46-.96-.9-1.28-2.93-2.08-6.22-3.63-9.69-4.56-3.95-1.07-8.28-1.41-11.53-3.89-1.65-1.26-2.88-2.98-4.15-4.63-2.45-3.19-5.19-6.26-8.52-8.56-1.35-.93-3.25-2.49-4.66-1.76-.71.37-1.3,1.13-2.09,1.52-.87.42-1.81.69-2.65,1.17Z" style="fill: #8dc3dd;"/>
      <path d="M356.72,159.46c-1.31-1.79-5.58.18-7.45.78-3.5,1.11-6.87,2.63-10.09,4.4-6.47,3.56-12.34,8.08-18.03,12.76-11.03,9.07-21.63,18.67-31.75,28.75,5.27,3.32,7.65,9.72,12.07,14.11,2.55,2.53,6.17,4.97,9.68,5.84,2.68.66,5.39,1.17,8.06,1.84,3.01.76,4.69,1.8,7.1,3.7.13.1.27.21.43.19.11,0,.21-.07.31-.14,2.35-1.6,4.65-3.27,6.89-5.01,1.07-.83,4.07-4.43,5.24-2.67.64.94.51,3.25.68,4.38.85,5.88,1.74,11.76,2.66,17.63,1.84,11.74,3.83,23.47,5.95,35.16,1.04,5.73,2.12,11.46,3.23,17.18,2.61,13.44,2.71,29.03.82,42.6-.48,3.44-1.16,6.85-1.47,10.31-.55,6.22.11,12.45.4,18.67.28,6.04-.35,11.47-1.36,17.38-2.05,12.01-.06,30.56-.12,42.72-.06,10.76-.13,21.77.21,32.52.65,20.62-.55,35.35.09,55.98,46.57,6.27,95.92,5.84,139.61-11.45,1.41-.56,2.9-1.2,3.73-2.47.83-1.28.82-2.91.77-4.44-1.02-30.27-5.81-60.4-14.23-89.5-1.37-4.75-2.85-9.48-4.38-14.18-6.99-21.42-15.31-42.37-22.14-63.84-3.33-10.46-5.92-19.62-7.43-30.53-1.57-11.34-2.5-25.3-1.87-36.71.15-2.74.51-5.31,1.24-7.96.46-1.67,1.1-3.25-1.08-3.81-.89-.23-1.83-.17-2.74-.22-.25-.01-.51-.04-.72-.18-.36-.25-.42-.74-.44-1.18-.05-1.29,0-2.59.15-3.88,5.69-.76,11.37-2.54,15.89-6.07,5.04-3.94,8.25-9.72,11.32-15.34,1.94-3.54,5.47-7.92,4.65-12.21-.91-4.75-3.7-9.31-5.88-13.57-2.35-4.59-4.79-9.13-7.31-13.63-3.79-6.77-8.97-12.72-14.04-18.59-1.49-1.73-3.07-3.43-5.08-4.52-1.46-.79-3.08-1.23-4.69-1.65-3.73-.99-11.63-6.62-15.04-4.37-2.65,1.74-3.71,10.89-5.88,13.61-5.56,6.97-13.14,12.25-21.24,15.87-8.53,3.82-17.69,5.97-26.86,7.59-4.2.74-9.29,2.31-13.56,2.06-3.63-.21-3.56-6.11-3.28-8.72.9-8.39,3.08-16.65,6.44-24.39.45-1.03.92-2.09.95-3.21.02-.7-.13-1.21-.39-1.57Z" style="fill: #1f89bd;"/>
      <path d="M406.62,166.49c-2.2,2.7-4.05,5.34-6.51,7.79-5.13,5.13-12.98,7.52-19.76,9.52-7.82,2.31-15.9,3.7-24.04,4.12.98-8.41,3.17-16.62,5.05-24.88.29-1.29.57-2.66.13-3.9-.45-1.24-1.92-2.21-3.11-1.62-.85.42-1.22,1.42-1.46,2.34-1.07,4-1.74,7.99-2.91,12,0,1.76-1.2,4.11-1.69,5.81-.63,2.17-1.3,4.33-1.89,6.51-1.08,3.92-1.19,7.74-1.04,11.79.02.46.06.97.41,1.28.23.2.55.26.85.3,2.2.32,4.45.31,6.64-.03,5.3-.83,10.12-3.53,15.33-4.78,1.89-.45,3.82-.71,5.72-1.1,7.58-1.57,14.53-5.25,21.31-8.99,6.77-3.73,13.89-7.98,17.13-14.99,1.4-3.03,1.96-6.37,2.51-9.66-1.17-.26-3.15-1.19-4.32-.97-1.1.2-1.66,1.25-2.33,2.07-2.01,2.47-4.02,4.93-6.03,7.4Z" style="fill: #8dc3dd;"/>
      <rect x="9.11" y="29.68" width="205.23" height="262.16" rx="16.28" ry="16.28" style="fill: #ff6d04; stroke: #2e3138; stroke-linecap: round; stroke-miterlimit: 10; stroke-width: 2.31px;"/>
      <rect x="29.64" y="57.27" width="162.52" height="201.8" style="fill: #fff; stroke: #2e3138; stroke-linecap: round; stroke-miterlimit: 10; stroke-width: 2.31px;"/>
      <path d="M271.52,224.52c-1.22,1.27-2.39,2.47-3.53,3.44-1.08.91-2.26,1.87-3.66,2.03-.94.11-1.87-.15-2.78-.41-9.66-2.74-19.32-5.48-28.97-8.22-4.83-1.37-9.66-2.74-14.49-4.11-2.2-.63-4.3-1.64-6.48-2.34-2.82-.9-5.83-1.41-8.71-2.08-.27-.06-.55-.12-.81-.04-.47.15-.66.7-.77,1.18-1.53,6.27-.89,12.85-.12,19.26.06.53.13,1.07.38,1.53-.09-.17,2.21-.57,2.41-.57.86-.02,1.79.14,2.57.53.72.36,1.24,1.01,1.92,1.46.85.56,1.77,1.01,2.69,1.46,14.73,7.2,29.93,13.46,45.46,18.71,3.91,1.32,7.99,2.6,12.1,2.14,4.24-.48,8.03-2.75,11.67-4.97,3.84-2.35,7.69-4.69,11.53-7.04,5.66-3.45,11.55-7.14,14.83-12.9-4.72-.68-8.56-4.13-11.57-7.83-2.65-3.26-6.01-10.58-10.93-10.07-4.9.45-9.01,4.97-12.72,8.84Z" style="fill: #fff;"/>
      <path d="M407.19,167.01c-3.61,4.36-8.05,8.03-13.13,10.51-2.06,1.01-4.22,1.81-6.37,2.62-4.97,1.87-9.95,3.73-14.92,5.6-2.7,1.01-5.41,2.03-8.25,2.53s-5.83.46-8.51-.61c.13-11.56,7.71-22.57,5.24-34.25-.3-1.44-2.1-13.96-2.98-14.13-7.14-1.42-14.83-4.78-19.76-10.13-4.02-4.36-6.27-10.02-8.44-15.54-1.35-3.43-2.7-6.87-4.05-10.3-3.48-8.86-1.62-18.55-1.53-28.07,14.88-5.05,24.97-17.93,35.91-29.21.38-.39.8-.8,1.33-.87.56-.07,1.09.24,1.54.57,2.37,1.72,4.07,4.17,5.89,6.46,3.85,4.85,7.8,9.72,12.73,13.54,2.2,1.71,4.56,3.2,6.91,4.7,4.43,2.81,8.85,5.61,13.28,8.42,1.14.72,2.14,1.36,3.22,1.92.64.33,1.31.64,2.06.92,2.03.77,3.89,2.06,6.09,2.33,3.54.43,7.39-1.9,10.52-.19,1.56.85,2.5,2.53,2.99,4.24,1.12,3.87.25,8.26-2.26,11.41-2.51,3.15-6.59,4.99-10.61,4.77-.61-.03-1.31-.08-1.73.36-.31.32-.37.81-.41,1.26-.95,10.62-1.89,21.25-2.84,31.87-.19,2.09-.37,4.19-.4,6.29-.04,3.82.46,7.62.95,11.41.04.33,2.78.4,3.16,1.14.59,1.15-1,3.64-1.55,4.58-1.21,2.05-2.58,4.01-4.1,5.85Z" style="fill: #fff;"/>
      <path d="M412.89,105.3c-1.24,6.54-1.76,13.19-2.27,19.82-.32,4.16-.65,8.36-.16,12.5,4.92,0,9.84-1.14,14.26-3.29,1.12-.55,2.24-1.17,3.08-2.1.88-.98,1.4-2.23,2.2-3.27,2.76-3.63,8.05-4.05,11.74-6.73,3.02-2.19,4.75-5.74,5.93-9.27,1.19-3.54,1.96-7.24,3.65-10.56,4.07-8.01,9.23-15.19,5.34-24.52-.72-1.73-1.73-3.39-3.17-4.6-2.21-1.87-5.17-2.5-7.9-3.48-3.34-1.2-7.4-3.14-9.73-5.92-2.37-2.83-3.17-6.24-4.49-9.59-.78-1.99-1.92-3.81-3.05-5.62-2.4-3.84-4.81-7.7-7.9-11-3.36-3.59-7.44-6.42-11.48-9.21-4.72-3.27-9.58-6.6-15.15-8.01-5.81-1.47-11.93-.71-17.88.05-5.49.7-10.53,2.38-16.06,2.29-2.42-.04-4.82-.41-7.24-.52-12.42-.53-24.84,6.75-30.45,17.85-1.59,3.14-2.66,6.53-4.32,9.63-2.52,4.69-6.36,8.62-8.57,13.47-.73,1.6-1.27,3.28-2.11,4.83-.71,1.32-1.63,2.52-2.63,3.65-2.55,2.88-5.62,5.31-9.01,7.11-7.09,3.77-7.67,15.67-4.02,22.82,2.69,5.29,8.02,8.65,13.17,11.61.73.42,1.49.85,2.33.93-.25-.4-.44-.84-.54-1.3.21,6.22,1.55,12.4,3.95,18.15.67,1.61,1.44,3.21,2.55,4.55,1.9,2.3,4.66,3.7,7.39,4.88,4.1,1.77,8.79,3.21,12.94,1.57,1.81,2.94,5.16,4.68,8.57,5.27,3.4.6,6.9.19,10.32-.31,2.51-.37,5.54-1.25,6.08-3.73.43-1.99-1.14-3.93-2.98-4.81-1.83-.88-3.92-1.05-5.88-1.6-3.64-1.02-6.79-3.39-9.3-6.21-2.51-2.83-4.44-6.11-6.29-9.41-2.27-4.04-4.47-8.16-5.87-12.58-.94-2.95-1.51-6.01-1.71-9.1-.44-6.99-1.47-13.17-1.33-20.18.02-.89.05-1.82.45-2.62.51-1.02,1.53-1.67,2.5-2.26,3.66-2.23,7.39-4.35,10.98-6.69,9.11-5.94,17.41-13.42,23.03-22.74,2.16,3.96,5.57,7.06,8.96,10.03,10.57,9.28,21.5,18.14,32.77,26.56,2.88,2.15,6.23,4.39,9.76,3.72,2.38-.45,4.47-2.19,6.89-2.19,2.28,0,4.33,1.65,5.35,3.69,1.02,2.04,1.15,4.42.98,6.69-.28,3.6-1.38,7.31-3.98,9.83s-6.69,3.92-9.69,1.9Z" style="fill: #4b4c4e;"/>
      <path d="M410.47,137.26c4.48,2.93,15.93-1.4,18.21-6.5,2.28-5.1,7.49-5.44,9.76-5.96,11.79-2.7,12.54-23.36,12.54-23.36,7.86-8.33,8.34-12.41,7-21.97-1.35-9.56-14.02-9.83-14.02-9.83-13.13-4.13-9.21-12.31-15.87-21.7-29.69-41.9-64.47-24.85-64.47-24.85,0,0-29.2-9.24-43.11,20.09-13.91,29.32-17.48,31.73-21.22,33.67-3.74,1.94-18.53,14.36-2.16,32.59,0,0,4.69,3.37,9.99,5.23,0,0,.26,31.18,25.08,27.36,0,0,5.71,8.28,20.07,5.01" style="fill: none; stroke: #2e3138; stroke-linecap: round; stroke-miterlimit: 10; stroke-width: 2.31px;"/>
      <path d="M322,76.43c23.85-8.43,39.5-31.75,39.5-31.75,0,0,24.94,29.84,54.21,41.61" style="fill: none; stroke: #2e3138; stroke-linecap: round; stroke-miterlimit: 10; stroke-width: 2.31px;"/>
      <path d="M414.85,85.59c1.29-.83,2.73-1.43,4.22-1.77,1.69-.38,3.6-.39,4.99.65.85.63,1.4,1.58,1.82,2.55,2.15,4.94,1.16,11.09-2.44,15.11-1.4,1.56-3.19,2.82-5.21,3.37-2.03.54-4.3.32-6.05-.84" style="fill: none; stroke: #2e3138; stroke-linecap: round; stroke-miterlimit: 10; stroke-width: 2.31px;"/>
      <path d="M324.52,76.3s-2.99,71.33,44.26,61.45" style="fill: none; stroke: #2e3138; stroke-linecap: round; stroke-miterlimit: 10; stroke-width: 2.31px;"/>
      <path d="M412.03,96.93s-4.43,51.2-1.89,59.2" style="fill: none; stroke: #2e3138; stroke-linecap: round; stroke-miterlimit: 10; stroke-width: 2.31px;"/>
      <path d="M385.99,34.2c4.6,2.02,8.47,5.64,10.81,10.08,1.78,3.38,2.82,7.39,5.85,9.72" style="fill: none; stroke: #2e3138; stroke-linecap: round; stroke-miterlimit: 10; stroke-width: 2.31px;"/>
      <path d="M404.12,63.2c1.29,1.46,2.58,2.92,3.87,4.38,1.83,2.08,4.04,4.33,6.81,4.27" style="fill: none; stroke: #2e3138; stroke-linecap: round; stroke-miterlimit: 10; stroke-width: 2.31px;"/>
      <path d="M416.77,51.7c2.71,1.64,4.64,4.49,5.17,7.61.42,2.5,0,5.23,1.24,7.43,1.1,1.96,3.26,3.04,5.3,4.01" style="fill: none; stroke: #2e3138; stroke-linecap: round; stroke-miterlimit: 10; stroke-width: 2.31px;"/>
      <path d="M439.16,77.81c1.26,1.78,2.54,3.59,3.32,5.64.78,2.04,1.01,4.38.17,6.4" style="fill: none; stroke: #2e3138; stroke-linecap: round; stroke-miterlimit: 10; stroke-width: 2.31px;"/>
      <path d="M437.72,106.93l-1.12,5.19c-.33,1.54-.68,3.12-1.49,4.47-.81,1.36-2.17,2.48-3.75,2.58" style="fill: none; stroke: #2e3138; stroke-linecap: round; stroke-miterlimit: 10; stroke-width: 2.31px;"/>
      <path d="M319.04,120.9c-2.3,4.09-1.32,9.73,2.23,12.8" style="fill: none; stroke: #2e3138; stroke-linecap: round; stroke-miterlimit: 10; stroke-width: 2.31px;"/>
      <path d="M308.84,84.05c-3.66,5.92-3.68,13.89-.06,19.83" style="fill: none; stroke: #2e3138; stroke-linecap: round; stroke-miterlimit: 10; stroke-width: 2.31px;"/>
      <path d="M352.37,36.01c-3.84.78-8.04,1.78-10.35,4.94-1.32,1.8-1.81,4.05-2.65,6.12-1.95,4.83-5.8,8.69-10.15,11.54-4.35,2.85-9.23,4.79-14.07,6.7" style="fill: none; stroke: #2e3138; stroke-linecap: round; stroke-miterlimit: 10; stroke-width: 2.31px;"/>
      <path d="M340.02,87.87c.22,1.87,1.92,3.22,3.79,3,1.87-.22,3.22-1.92,3-3.79s-1.92-3.22-3.79-3c-1.88.22-3.22,1.92-3,3.79Z" style="fill: #2e3138;"/>
      <path d="M377.6,83.48c.22,1.87,1.92,3.22,3.79,3,1.87-.22,3.22-1.92,3-3.79-.22-1.87-1.92-3.22-3.79-3-1.88.22-3.22,1.92-3,3.79Z" style="fill: #2e3138;"/>
      <path d="M365.59,58.1c-1.98.56-4.06.79-6.11.69" style="fill: none; stroke: #2e3138; stroke-linecap: round; stroke-miterlimit: 10; stroke-width: 2.31px;"/>
      <path d="M367.92,64.14c-3.01.89-6.16,1.28-9.29,1.17" style="fill: none; stroke: #2e3138; stroke-linecap: round; stroke-miterlimit: 10; stroke-width: 2.31px;"/>
      <path d="M362.34,86.59c-.57,2.98-1.54,5.88-2.9,8.59-.66,1.32-1.43,2.72-1.19,4.17.22,1.33,1.28,2.39,2.48,3.01,1.75.89,4.1.88,5.46-.53" style="fill: none; stroke: #2e3138; stroke-linecap: round; stroke-miterlimit: 10; stroke-width: 2.31px;"/>
      <path d="M371.89,115.41c-3.02,3.12-8.13,3.95-11.98,1.95" style="fill: none; stroke: #2e3138; stroke-linecap: round; stroke-miterlimit: 10; stroke-width: 2.31px;"/>
      <path d="M367.99,123.83c-1.66.19-3.33.39-4.99.58" style="fill: none; stroke: #2e3138; stroke-linecap: round; stroke-miterlimit: 10; stroke-width: 2.31px;"/>
      <path d="M379.94,103.52c1.1,1.03,1.82,2.47,1.97,3.97" style="fill: none; stroke: #2e3138; stroke-linecap: round; stroke-miterlimit: 10; stroke-width: 2.31px;"/>
      <path d="M352.01,107.12c-2.5.39-4.65,2.45-5.14,4.93" style="fill: none; stroke: #2e3138; stroke-linecap: round; stroke-miterlimit: 10; stroke-width: 2.31px;"/>
      <line x1="357.97" y1="140.57" x2="362.27" y2="161.72" style="fill: none; stroke: #2e3138; stroke-linecap: round; stroke-miterlimit: 10; stroke-width: 2.31px;"/>
      <path d="M418.32,91.8c.06-.93,1.25-1.49,2.11-1.13.86.36,1.32,1.36,1.3,2.29-.02.93-.43,1.81-.88,2.62" style="fill: none; stroke: #2e3138; stroke-linecap: round; stroke-miterlimit: 10; stroke-width: 2.31px;"/>
      <path d="M410.94,155.86c5.94,1.2,11.78,2.83,17.48,4.9" style="fill: none; stroke: #2e3138; stroke-linecap: round; stroke-miterlimit: 10; stroke-width: 2.31px;"/>
      <g>
        <path d="M413.57,632.82c-2.41,4.78-5.68,9.12-9.61,12.76-.69.63-1.39,1.25-2.02,1.94-1.15,1.26-2.02,2.75-3.15,4.03-2.68,3.03-6.63,4.63-10.55,5.66-1.58.42-3.19.76-4.82.82-3.48.12-6.86-1.05-10.09-2.33-.35-.14-.71-.28-1.08-.22-.37.06-.71.41-.62.77.05.19.19.33.34.46,2.91,2.58,7.09,3.03,10.97,3.36,4.01.34,8.21.65,11.9-.96,1.06-.46,2.05-1.07,3.04-1.68l4.65-2.87c1.42-.88,7.63-8.44,9.26-11.32,1.32-2.34,2.94-4.52,4.08-6.96.8-1.71,2.05-4.93,1.21-6.82-1.03-2.32-2.98,2.36-3.5,3.38Z" style="fill: #ff6d04;"/>
        <path d="M418.6,521.33c-.64,15.64-1.27,31.27-1.91,46.91-.15,3.65-.03,7.36-.32,11-.27,3.45-.57,6.91-.91,10.38-.5,5.01-.15,10.07-.67,15.07-.12,1.11-.28,2.22-.25,3.33.03,1.2.48,2.14.09,3.28-.69,2.02-1.73,3.9-2.97,5.64-2.54,3.59-5.78,6.59-8.89,9.68-1.28,1.28-2.63,2.51-3.7,3.97-.69.95-1.26,2-2.14,2.77-.86.76-1.95,1.2-3.01,1.62-1.16.46-2.32.93-3.48,1.39-.24.1-.49.2-.76.2-.36,0-.7-.16-1.03-.32-2.97-1.45-6.11-2.55-9.34-3.27,2.18-3.48,4.37-6.95,6.56-10.43.98-1.56,1.97-3.13,2.57-4.87.57-1.64.78-3.38.92-5.12.64-7.63.12-15.31-.4-22.95-.57-8.28-1.13-16.56-1.7-24.83-.47-6.87-.31-13.79-.94-20.67-.12-1.32-.27-2.63-.35-3.95-.1-1.71-.09-3.43-.08-5.14.03-4.44.06-8.87.1-13.31,1.93-1.24,5.36-.6,7.55-.59,2.79.01,5.58.05,8.36.1,5.56.09,11.12.19,16.68.09Z" style="fill: #fff;"/>
        <path d="M403.57,626.9c-2.4,2.29-4.79,4.58-7.29,6.76-1.57,1.37-3.28,2.76-5.34,3.09-2.55.41-5.01-.87-7.41-1.83s-5.34-1.54-7.38.03c-.72.55-1.24,1.31-1.75,2.05-2.32,3.39-4.63,6.78-6.95,10.17-.25.37-.51.76-.53,1.21-.02.43.19.84.42,1.21,1.63,2.63,4.42,4.38,7.38,5.28s6.09,1.06,9.18,1.06c3.34,0,6.77-.16,9.83-1.5,3.89-1.7,6.73-5.09,9.43-8.37,1.19-1.45,2.39-2.9,3.58-4.35,3.32-4.04,6.66-8.09,9.38-12.54,1.84-3.01,3.45-6.43,3.04-9.94-.24-2.1-1.25-4.09-2.75-5.57-.34-.33-.74-.77-1.17-.98-.87-.43-.61-.49-1.13.23-.61.84-.86,2.2-1.36,3.14-2.26,4.21-5.77,7.59-9.19,10.85Z" style="fill: #fff9cb;"/>
        <line x1="419.1" y1="521.05" x2="414.65" y2="610.97" style="fill: none; stroke: #2e3138; stroke-linecap: round; stroke-miterlimit: 10; stroke-width: 2.31px;"/>
        <line x1="386" y1="521.73" x2="389.67" y2="612.83" style="fill: none; stroke: #2e3138; stroke-linecap: round; stroke-miterlimit: 10; stroke-width: 2.31px;"/>
        <path d="M389.95,614.28c-2.18,11.15-12.01,18.81-19.55,27.32-1.96,2.21-3.91,4.98-3.29,7.87.53,2.45,2.77,4.14,5.02,5.24,7.76,3.82,17.57,3.07,24.66-1.87,3.89-2.71,6.9-6.49,9.7-10.33,2.43-3.32,4.75-6.73,7.06-10.13,2.2-3.24,4.46-6.58,5.27-10.42s-.16-8.32-3.36-10.57" style="fill: none; stroke: #2e3138; stroke-linecap: round; stroke-miterlimit: 10; stroke-width: 2.31px;"/>
        <path d="M378.87,633.83c3.46.03,6.91,1.25,9.61,3.42.42.34.89.72,1.43.68.32-.03.6-.2.87-.37,10-6.36,18.22-15.49,23.49-26.1" style="fill: none; stroke: #2e3138; stroke-linecap: round; stroke-miterlimit: 10; stroke-width: 2.31px;"/>
        <path d="M367.62,651.87c2.14,5.73,8.51,9.06,14.63,9.22,6.12.16,14.32,0,23.66-10.69,1.55-1.78,2.68-3.88,4.02-5.82,4.7-6.8,9.61-14.34,8.96-22.58" style="fill: none; stroke: #2e3138; stroke-linecap: round; stroke-miterlimit: 10; stroke-width: 2.31px;"/>
        <path d="M472.51,626.23c-.91,5.27-2.78,10.38-5.49,15-.47.81-.97,1.6-1.37,2.45-.73,1.54-1.13,3.22-1.84,4.77-1.69,3.68-5,6.36-8.44,8.49-1.39.86-2.83,1.65-4.37,2.18-3.29,1.13-6.87.99-10.33.7-.37-.03-.76-.06-1.09.11-.33.17-.56.6-.37.92.1.17.28.26.46.34,3.54,1.62,7.66.84,11.47.03,3.94-.84,8.05-1.77,11.11-4.38.88-.75,1.65-1.62,2.42-2.49,1.2-1.37,2.41-2.73,3.61-4.1,1.1-1.25,4.85-10.29,5.57-13.52.58-2.63,1.5-5.18,1.88-7.85.27-1.87.53-5.31-.83-6.88-1.66-1.92-2.17,3.12-2.36,4.25Z" style="fill: #ff6d04;"/>
        <path d="M444.85,519.03c.07.23.14.45.26.65.55.93,1.11,1.54,1.45,2.65.62,1.96.84,4.01,1.33,6.01,1.01,4.15,1.84,8.34,2.92,12.48,1.97,7.57,3.94,15.14,5.91,22.72.92,3.53,2.11,7.06,2.89,10.62.74,3.38,1.47,6.78,2.15,10.2.98,4.93,2.79,9.68,3.74,14.62.21,1.09.38,2.2.73,3.26.37,1.14,1.08,1.9,1.04,3.12-.07,2.14-.52,4.23-1.2,6.26-1.39,4.17-3.62,7.99-5.69,11.84-.86,1.59-1.79,3.16-2.38,4.87-.38,1.11-.63,2.28-1.24,3.27-.6.98-1.51,1.71-2.41,2.43-.97.78-1.95,1.56-2.92,2.34-.21.16-.42.33-.67.41-.34.11-.72.05-1.08,0-3.26-.52-6.59-.66-9.88-.41,1.08-3.96,2.16-7.92,3.24-11.88.48-1.78.97-3.57,1.04-5.41.07-1.74-.24-3.46-.6-5.16-1.6-7.49-4.34-14.68-7.06-21.84-2.95-7.76-5.9-15.51-8.85-23.27-2.45-6.44-4.3-13.11-6.91-19.5-.5-1.22-1.02-2.44-1.48-3.68-.6-1.61-1.08-3.25-1.57-4.9-1.3-4.39-2.58-8.8-4.3-13.05-.59-1.45-1.07-2.96-1.49-4.46-.55-1.96-1.23-4.01,1.48-4.45.88-.14,1.78-.02,2.66.07,7.04.73,14.11-.52,21.11-1.55,1.95-.29,3.93-.56,5.9-.38.33.03.67.08.96.25.65.4.73,1.19.93,1.89Z" style="fill: #fff;"/>
        <path d="M461.22,623.47c-1.63,2.89-3.26,5.77-5,8.59-1.1,1.77-2.34,3.59-4.21,4.5-2.32,1.13-5.05.62-7.62.41-2.57-.22-5.55.08-7.06,2.18-.53.73-.8,1.61-1.07,2.47l-3.69,11.75c-.13.43-.27.88-.16,1.31.11.42.43.75.75,1.04,2.32,2.04,5.5,2.9,8.6,2.91,3.09.01,6.13-.76,9.09-1.65,3.2-.96,6.43-2.12,8.97-4.29,3.23-2.76,4.96-6.83,6.59-10.75.72-1.73,1.44-3.47,2.16-5.2,2-4.83,4.02-9.67,5.33-14.73.89-3.42,1.43-7.16.02-10.4-.84-1.94-2.39-3.55-4.25-4.53-.42-.22-.93-.52-1.4-.6-.96-.16-.73-.29-1.01.55-.33.98-.18,2.35-.39,3.4-.93,4.69-3.31,8.94-5.63,13.06Z" style="fill: #fff9cb;"/>
        <line x1="445.3" y1="517.68" x2="467.19" y2="605.01" style="fill: none; stroke: #2e3138; stroke-linecap: round; stroke-miterlimit: 10; stroke-width: 2.31px;"/>
        <line x1="411.85" y1="520.96" x2="443.83" y2="614.05" style="fill: none; stroke: #2e3138; stroke-linecap: round; stroke-miterlimit: 10; stroke-width: 2.31px;"/>
        <path d="M444.52,615.36c1.16,11.3-6.02,21.49-10.76,31.82-1.23,2.69-2.29,5.91-.86,8.49,1.22,2.19,3.85,3.15,6.33,3.56,8.53,1.39,17.7-2.17,23.05-8.96,2.94-3.73,4.72-8.22,6.28-12.7,1.36-3.89,2.58-7.81,3.81-11.74,1.17-3.74,2.35-7.6,2.01-11.5s-2.57-7.91-6.29-9.14" style="fill: none; stroke: #2e3138; stroke-linecap: round; stroke-miterlimit: 10; stroke-width: 2.31px;"/>
        <path d="M439.61,637.29c3.32-.98,6.97-.81,10.19.47.5.2,1.06.43,1.57.23.3-.12.52-.37.73-.61,7.72-8.99,12.93-20.11,14.89-31.8" style="fill: none; stroke: #2e3138; stroke-linecap: round; stroke-miterlimit: 10; stroke-width: 2.31px;"/>
        <path d="M434.09,657.82c3.71,4.86,10.78,6.19,16.68,4.56,5.9-1.63,13.7-4.16,19.53-17.11.97-2.15,1.43-4.49,2.15-6.74,2.52-7.88,5.02-16.52,2.01-24.21" style="fill: none; stroke: #2e3138; stroke-linecap: round; stroke-miterlimit: 10; stroke-width: 2.31px;"/>
      </g>
      <path d="M362.15,162.78c-3.05,8.69-5.65,16.86-6.3,26.17,45.74-5.34,54.48-26.88,57.65-32.53" style="fill: none; stroke: #2e3138; stroke-linecap: round; stroke-miterlimit: 10; stroke-width: 2.31px;"/>
      <path d="M358.02,158.56c-1.28,2.47-9.57,25.96-7.74,38.57,13.41.54,29.78-4.89,42.14-10.13,12.35-5.24,24.4-15.89,28.12-28.78" style="fill: none; stroke: #2e3138; stroke-linecap: round; stroke-miterlimit: 10; stroke-width: 2.31px;"/>
      <path d="M359.97,157.01c-26.23,8.04-30.39,14.17-42.68,24.27-12.06,9.91-21.66,20.55-35.01,28.63-.39.24-.48.78-.17,1.12,4.13,4.55,7.54,6.8,10.6,11.16,5.65,8.07,18.41,14.97,28.23,14.17" style="fill: none; stroke: #2e3138; stroke-linecap: round; stroke-miterlimit: 10; stroke-width: 2.31px;"/>
      <path d="M339.8,211.19c.4,23.46,4.96,46.62,9.38,69.66,6.29,32.83,1.96,66.04,1.24,99.37-.51,23.68-.6,47.38-.27,71.06.31,22.13-1.21,43.57.69,65.83.54,6.28,144.9,3.76,143.89-14.99-1.9-35.17-8.18-70.09-18.65-103.72-14.26-45.8-36.56-91.62-30.82-139.24" style="fill: none; stroke: #2e3138; stroke-linecap: round; stroke-miterlimit: 10; stroke-width: 2.31px;"/>
      <path d="M426.39,227.26c6.4,7.37,11.28,16.01,13.95,25.4,7.57,1.99,15.86-.56,22-5.42s10.35-11.79,13.33-19.03c.61-1.49,1.19-3.06,1.11-4.68-.09-1.7-.9-3.26-1.69-4.76-4.93-9.38-9.86-18.76-14.79-28.14-3.55-6.75-7.16-13.59-12.36-19.18-5.2-5.58-8.52-7.17-19.51-10.68" style="fill: none; stroke: #2e3138; stroke-linecap: round; stroke-miterlimit: 10; stroke-width: 2.31px;"/>
      <path d="M439.94,248.59c8.16.02,15.77-4.65,21.17-10.76,5.4-6.12,8.95-13.61,12.43-20.99" style="fill: none; stroke: #2e3138; stroke-linecap: round; stroke-miterlimit: 10; stroke-width: 2.31px;"/>
      <path d="M320.95,236.36c5.8-2.96,12.71-9.92,18.51-12.88" style="fill: none; stroke: #2e3138; stroke-linecap: round; stroke-miterlimit: 10; stroke-width: 2.31px;"/>
      <path d="M287.4,206.51c3.06.67,5.58,2.87,7.56,5.3s3.57,5.17,5.64,7.53c3.86,4.39,9.37,7.29,15.17,7.97,4.28.51,8.14,1.71,12.33,4.24" style="fill: none; stroke: #2e3138; stroke-linecap: round; stroke-miterlimit: 10; stroke-width: 2.31px;"/>
      <path d="M284.43,215.21c-5.98,4.5-11.95,9-17.93,13.5" style="fill: none; stroke: #2e3138; stroke-linecap: round; stroke-miterlimit: 10; stroke-width: 2.31px;"/>
      <path d="M307.03,234.51c-8.86,8-18.48,15.15-28.69,21.33-3.13,1.89-5.66,3.42-9.35,3.21-3.76-.22-7.49-.91-11.12-1.9-8.89-2.42-17.14-6.63-25.64-10.09-9.05-3.69-17.93-7.77-26.63-12.22" style="fill: none; stroke: #2e3138; stroke-linecap: round; stroke-miterlimit: 10; stroke-width: 2.31px;"/>
      <path d="M267.85,229.61c-20.33-4.25-40.46-9.49-60.28-15.68" style="fill: none; stroke: #2e3138; stroke-linecap: round; stroke-miterlimit: 10; stroke-width: 2.31px;"/>
      <g>
        <path d="M471.31,238.49c12.57,39.54,30.19,81.22,49.25,118.06" style="fill: none; stroke: #2e3138; stroke-linecap: round; stroke-miterlimit: 10; stroke-width: 2.31px;"/>
        <path d="M444.94,254.76c13.99,37.56,35.64,70.85,56.77,104.91" style="fill: none; stroke: #2e3138; stroke-linecap: round; stroke-miterlimit: 10; stroke-width: 2.31px;"/>
        <path d="M520.56,356.55c3.91,4.88,9.77,8.18,12.69,13.71,2.57,4.84,2.78,10.75,1.86,16-1.04,5.92-.16,12.2-1.1,18.24-.38,2.42-.98,5.01-2.83,6.62-.48.41-1.14.76-1.73.51-.29-.12-.5-.37-.68-.63-.95-1.36-1.23-3.05-1.49-4.68-.55-3.44-1.1-6.87-1.55-10.32-.43-3.3-.18-6.81-1.04-10" style="fill: none; stroke: #2e3138; stroke-linecap: round; stroke-miterlimit: 10; stroke-width: 2.31px;"/>
        <path d="M509.37,373.21c1.76,3.98.85,8.57,1.22,12.9.28,3.27,1.33,6.47,3.03,9.27.89,1.47,2.6,3,4.12,2.19,1.14-.61,1.32-2.15,1.34-3.45.11-6.99-.29-13.98-1.19-20.92" style="fill: none; stroke: #2e3138; stroke-linecap: round; stroke-miterlimit: 10; stroke-width: 2.31px;"/>
        <path d="M502.03,360.1c.6,4.71,3.71,8.78,7.34,13.11" style="fill: none; stroke: #2e3138; stroke-linecap: round; stroke-linejoin: round; stroke-width: 2.31px;"/>
        <path d="M527.65,408.67c-.43.55-1.22.72-1.9.55s-1.24-.63-1.71-1.14c-1.54-1.68-2.18-3.99-2.76-6.19-.57-2.13-1.13-4.27-1.7-6.4" style="fill: none; stroke: #2e3138; stroke-linecap: round; stroke-miterlimit: 10; stroke-width: 2.31px;"/>
        <path d="M524.81,387.15c-.08-.73-.46-1.39-.85-2.02-.83-1.33-1.76-2.59-2.77-3.79" style="fill: none; stroke: #2e3138; stroke-linecap: round; stroke-miterlimit: 10; stroke-width: 2.31px;"/>
      </g>
      <g>
        <path d="M171.38,201.72c-.97-.7-1.98-1.47-3.18-1.58-3.8-.35-1.39,3.48-2.16,5.22-1.32,2.99-3.84.76-6.29,1.35-2.71.65-2.85,4.74-1.11,6.92,1.74,2.18,4.49,3.32,6.38,5.37-.69,1.72-3.35.51-5.12,1.06-1.44.45-2.15,2.2-1.89,3.68.26,1.49,1.24,2.74,2.25,3.85,7.27,7.94,18.49,12.07,29.18,10.75,3.38-.42,6.67-1.34,9.95-2.26,1.73-.49,3.46-.97,5.19-1.46.56-.16.77-9.65.85-10.69l.43-5.35c.09-1.16.75-3.13-.4-3.88-2.86-1.89-5.53-3.43-8.92-3.88-2.97-.4-5.93-.88-8.84-1.58-5.95-1.44-11.4-3.91-16.34-7.52Z" style="fill: #fff;"/>
        <path d="M192.29,210.94c-1.2.25-2.44-.08-3.61-.46-5.13-1.66-10-4.14-14.36-7.31-1.38-1.01-2.75-2.11-4.39-2.61s-3.64-.24-4.69,1.11c-1.06,1.37-.8,3.41.16,4.86s2.46,2.42,3.92,3.35c5.44,3.46,11.31,6.97,17.75,6.9" style="fill: none; stroke: #2e3138; stroke-linecap: round; stroke-miterlimit: 10; stroke-width: 2.31px;"/>
        <path d="M178.95,215.47c-6.02-1.73-10.53-6.98-16.53-8.8-1.85-.56-4.26-.58-5.27,1.07-.59.97-.48,2.22-.11,3.29.7,1.99,2.18,3.6,3.74,5.02,6.93,6.27,16.34,9.73,25.68,9.44" style="fill: none; stroke: #2e3138; stroke-linecap: round; stroke-miterlimit: 10; stroke-width: 2.31px;"/>
        <path d="M174.99,224.67c-5.91-.65-11.03-6.05-16.87-4.96-.29.05-.59.13-.8.35-.23.23-.28.58-.3.91-.12,1.96.81,3.88,2.15,5.32,1.34,1.44,3.08,2.44,4.85,3.3,6.76,3.26,14.44,4.56,21.9,3.71" style="fill: none; stroke: #2e3138; stroke-linecap: round; stroke-miterlimit: 10; stroke-width: 2.31px;"/>
        <path d="M161.94,229.78c2.7,3.95,7.46,5.95,12.08,7.17,9.74,2.57,20.7,2.44,29.23-2.91" style="fill: none; stroke: #2e3138; stroke-linecap: round; stroke-miterlimit: 10; stroke-width: 2.31px;"/>
      </g>
      <path d="M29.64,57.27s-1.94,185.4-28.49,192.32h178.71s16.19-145.51,12.3-192.32H29.64Z" style="fill: #fff; stroke: #2e3138; stroke-linecap: round; stroke-linejoin: round; stroke-width: 2.31px;"/>
      <path d="M193.16,219.82c-1.72-1.78-3.5-3.65-4.24-6.01-1.37-4.41-1.35-6.24-5.69-8.21-3.26-1.48-6.04-2.38-7.54-6.03-.25-.61-.43-1.34-.09-1.91.36-.6,1.15-.76,1.85-.83,2.65-.27,5.36-.12,7.89.7s4.87,2.34,6.44,4.48c1.82,2.48,3.45,4.96,5.55,7.24,1.97,2.14,5.12,3.8,7.66,5.23" style="fill: #fff; stroke: #2e3138; stroke-linecap: round; stroke-miterlimit: 10; stroke-width: 2.31px;"/>
      <path d="M52.67,43.48c0,1.79-1.45,3.24-3.24,3.24s-3.24-1.45-3.24-3.24,1.45-3.24,3.24-3.24,3.24,1.45,3.24,3.24Z" style="fill: #fff; stroke: #2e3138; stroke-linecap: round; stroke-miterlimit: 10; stroke-width: 2.31px;"/>
      <path d="M167.78,43.48c0,1.79-1.45,3.24-3.24,3.24s-3.24-1.45-3.24-3.24,1.45-3.24,3.24-3.24,3.24,1.45,3.24,3.24Z" style="fill: #fff; stroke: #2e3138; stroke-linecap: round; stroke-miterlimit: 10; stroke-width: 2.31px;"/>
      <polyline points="49.43 40.24 104.75 1.39 164.55 40.24" style="fill: none; stroke: #2e3138; stroke-linecap: round; stroke-miterlimit: 10; stroke-width: 2.31px;"/>
      <g>
        <path d="M49.37,124.77c2.79,0,5.06,2.27,5.06,5.06s-2.27,5.06-5.06,5.06-5.06-2.27-5.06-5.06,2.27-5.06,5.06-5.06M49.37,122.45c-4.07,0-7.37,3.3-7.37,7.37s3.3,7.37,7.37,7.37,7.37-3.3,7.37-7.37-3.3-7.37-7.37-7.37h0Z" style="fill: #dfdfdf;"/>
        <path d="M69.1,124.77c2.79,0,5.06,2.27,5.06,5.06s-2.27,5.06-5.06,5.06-5.06-2.27-5.06-5.06,2.27-5.06,5.06-5.06M69.1,122.45c-4.07,0-7.37,3.3-7.37,7.37s3.3,7.37,7.37,7.37,7.37-3.3,7.37-7.37-3.3-7.37-7.37-7.37h0Z" style="fill: #dfdfdf;"/>
        <path d="M88.84,124.77c2.79,0,5.06,2.27,5.06,5.06s-2.27,5.06-5.06,5.06-5.06-2.27-5.06-5.06,2.27-5.06,5.06-5.06M88.84,122.45c-4.07,0-7.37,3.3-7.37,7.37s3.3,7.37,7.37,7.37,7.37-3.3,7.37-7.37-3.3-7.37-7.37-7.37h0Z" style="fill: #dfdfdf;"/>
        <path d="M108.57,124.77c2.79,0,5.06,2.27,5.06,5.06s-2.27,5.06-5.06,5.06-5.06-2.27-5.06-5.06,2.27-5.06,5.06-5.06M108.57,122.45c-4.07,0-7.37,3.3-7.37,7.37s3.3,7.37,7.37,7.37,7.37-3.3,7.37-7.37-3.3-7.37-7.37-7.37h0Z" style="fill: #dfdfdf;"/>
        <path d="M128.3,124.77c2.79,0,5.06,2.27,5.06,5.06s-2.27,5.06-5.06,5.06-5.06-2.27-5.06-5.06,2.27-5.06,5.06-5.06M128.3,122.45c-4.07,0-7.37,3.3-7.37,7.37s3.3,7.37,7.37,7.37,7.37-3.3,7.37-7.37-3.3-7.37-7.37-7.37h0Z" style="fill: #dfdfdf;"/>
        <path d="M148.04,124.77c2.79,0,5.06,2.27,5.06,5.06s-2.27,5.06-5.06,5.06-5.06-2.27-5.06-5.06,2.27-5.06,5.06-5.06M148.04,122.45c-4.07,0-7.37,3.3-7.37,7.37s3.3,7.37,7.37,7.37,7.37-3.3,7.37-7.37-3.3-7.37-7.37-7.37h0Z" style="fill: #dfdfdf;"/>
        <path d="M167.77,124.77c2.79,0,5.06,2.27,5.06,5.06s-2.27,5.06-5.06,5.06-5.06-2.27-5.06-5.06,2.27-5.06,5.06-5.06M167.77,122.45c-4.07,0-7.37,3.3-7.37,7.37s3.3,7.37,7.37,7.37,7.37-3.3,7.37-7.37-3.3-7.37-7.37-7.37h0Z" style="fill: #dfdfdf;"/>
      </g>
      <g>
        <path d="M49.37,146.09c2.79,0,5.06,2.27,5.06,5.06s-2.27,5.06-5.06,5.06-5.06-2.27-5.06-5.06,2.27-5.06,5.06-5.06M49.37,143.77c-4.07,0-7.37,3.3-7.37,7.37s3.3,7.37,7.37,7.37,7.37-3.3,7.37-7.37-3.3-7.37-7.37-7.37h0Z" style="fill: #dfdfdf;"/>
        <path d="M69.1,146.09c2.79,0,5.06,2.27,5.06,5.06s-2.27,5.06-5.06,5.06-5.06-2.27-5.06-5.06,2.27-5.06,5.06-5.06M69.1,143.77c-4.07,0-7.37,3.3-7.37,7.37s3.3,7.37,7.37,7.37,7.37-3.3,7.37-7.37-3.3-7.37-7.37-7.37h0Z" style="fill: #dfdfdf;"/>
        <path d="M88.84,146.09c2.79,0,5.06,2.27,5.06,5.06s-2.27,5.06-5.06,5.06-5.06-2.27-5.06-5.06,2.27-5.06,5.06-5.06M88.84,143.77c-4.07,0-7.37,3.3-7.37,7.37s3.3,7.37,7.37,7.37,7.37-3.3,7.37-7.37-3.3-7.37-7.37-7.37h0Z" style="fill: #dfdfdf;"/>
        <path d="M108.57,146.09c2.79,0,5.06,2.27,5.06,5.06s-2.27,5.06-5.06,5.06-5.06-2.27-5.06-5.06,2.27-5.06,5.06-5.06M108.57,143.77c-4.07,0-7.37,3.3-7.37,7.37s3.3,7.37,7.37,7.37,7.37-3.3,7.37-7.37-3.3-7.37-7.37-7.37h0Z" style="fill: #dfdfdf;"/>
        <path d="M128.3,146.09c2.79,0,5.06,2.27,5.06,5.06s-2.27,5.06-5.06,5.06-5.06-2.27-5.06-5.06,2.27-5.06,5.06-5.06M128.3,143.77c-4.07,0-7.37,3.3-7.37,7.37s3.3,7.37,7.37,7.37,7.37-3.3,7.37-7.37-3.3-7.37-7.37-7.37h0Z" style="fill: #dfdfdf;"/>
        <path d="M148.04,146.09c2.79,0,5.06,2.27,5.06,5.06s-2.27,5.06-5.06,5.06-5.06-2.27-5.06-5.06,2.27-5.06,5.06-5.06M148.04,143.77c-4.07,0-7.37,3.3-7.37,7.37s3.3,7.37,7.37,7.37,7.37-3.3,7.37-7.37-3.3-7.37-7.37-7.37h0Z" style="fill: #dfdfdf;"/>
        <path d="M167.77,146.09c2.79,0,5.06,2.27,5.06,5.06s-2.27,5.06-5.06,5.06-5.06-2.27-5.06-5.06,2.27-5.06,5.06-5.06M167.77,143.77c-4.07,0-7.37,3.3-7.37,7.37s3.3,7.37,7.37,7.37,7.37-3.3,7.37-7.37-3.3-7.37-7.37-7.37h0Z" style="fill: #dfdfdf;"/>
      </g>
      <g>
        <path d="M45.61,167.4c2.79,0,5.06,2.27,5.06,5.06s-2.27,5.06-5.06,5.06-5.06-2.27-5.06-5.06,2.27-5.06,5.06-5.06M45.61,165.09c-4.07,0-7.37,3.3-7.37,7.37s3.3,7.37,7.37,7.37,7.37-3.3,7.37-7.37-3.3-7.37-7.37-7.37h0Z" style="fill: #dfdfdf;"/>
        <path d="M65.34,167.4c2.79,0,5.06,2.27,5.06,5.06s-2.27,5.06-5.06,5.06-5.06-2.27-5.06-5.06,2.27-5.06,5.06-5.06M65.34,165.09c-4.07,0-7.37,3.3-7.37,7.37s3.3,7.37,7.37,7.37,7.37-3.3,7.37-7.37-3.3-7.37-7.37-7.37h0Z" style="fill: #dfdfdf;"/>
        <path d="M85.07,167.4c2.79,0,5.06,2.27,5.06,5.06s-2.27,5.06-5.06,5.06-5.06-2.27-5.06-5.06,2.27-5.06,5.06-5.06M85.07,165.09c-4.07,0-7.37,3.3-7.37,7.37s3.3,7.37,7.37,7.37,7.37-3.3,7.37-7.37-3.3-7.37-7.37-7.37h0Z" style="fill: #dfdfdf;"/>
        <path d="M104.81,167.4c2.79,0,5.06,2.27,5.06,5.06s-2.27,5.06-5.06,5.06-5.06-2.27-5.06-5.06,2.27-5.06,5.06-5.06M104.81,165.09c-4.07,0-7.37,3.3-7.37,7.37s3.3,7.37,7.37,7.37,7.37-3.3,7.37-7.37-3.3-7.37-7.37-7.37h0Z" style="fill: #dfdfdf;"/>
        <path d="M124.54,167.4c2.79,0,5.06,2.27,5.06,5.06s-2.27,5.06-5.06,5.06-5.06-2.27-5.06-5.06,2.27-5.06,5.06-5.06M124.54,165.09c-4.07,0-7.37,3.3-7.37,7.37s3.3,7.37,7.37,7.37,7.37-3.3,7.37-7.37-3.3-7.37-7.37-7.37h0Z" style="fill: #dfdfdf;"/>
        <path d="M144.27,167.4c2.79,0,5.06,2.27,5.06,5.06s-2.27,5.06-5.06,5.06-5.06-2.27-5.06-5.06,2.27-5.06,5.06-5.06M144.27,165.09c-4.07,0-7.37,3.3-7.37,7.37s3.3,7.37,7.37,7.37,7.37-3.3,7.37-7.37-3.3-7.37-7.37-7.37h0Z" style="fill: #dfdfdf;"/>
        <path d="M164.01,167.4c2.79,0,5.06,2.27,5.06,5.06s-2.27,5.06-5.06,5.06-5.06-2.27-5.06-5.06,2.27-5.06,5.06-5.06M164.01,165.09c-4.07,0-7.37,3.3-7.37,7.37s3.3,7.37,7.37,7.37,7.37-3.3,7.37-7.37-3.3-7.37-7.37-7.37h0Z" style="fill: #dfdfdf;"/>
      </g>
      <g>
        <path d="M39.51,188.72c2.79,0,5.06,2.27,5.06,5.06s-2.27,5.06-5.06,5.06-5.06-2.27-5.06-5.06,2.27-5.06,5.06-5.06M39.51,186.41c-4.07,0-7.37,3.3-7.37,7.37s3.3,7.37,7.37,7.37,7.37-3.3,7.37-7.37-3.3-7.37-7.37-7.37h0Z" style="fill: #dfdfdf;"/>
        <path d="M59.24,188.72c2.79,0,5.06,2.27,5.06,5.06s-2.27,5.06-5.06,5.06-5.06-2.27-5.06-5.06,2.27-5.06,5.06-5.06M59.24,186.41c-4.07,0-7.37,3.3-7.37,7.37s3.3,7.37,7.37,7.37,7.37-3.3,7.37-7.37-3.3-7.37-7.37-7.37h0Z" style="fill: #dfdfdf;"/>
        <path d="M78.98,188.72c2.79,0,5.06,2.27,5.06,5.06s-2.27,5.06-5.06,5.06-5.06-2.27-5.06-5.06,2.27-5.06,5.06-5.06M78.98,186.41c-4.07,0-7.37,3.3-7.37,7.37s3.3,7.37,7.37,7.37,7.37-3.3,7.37-7.37-3.3-7.37-7.37-7.37h0Z" style="fill: #dfdfdf;"/>
        <path d="M98.71,188.72c2.79,0,5.06,2.27,5.06,5.06s-2.27,5.06-5.06,5.06-5.06-2.27-5.06-5.06,2.27-5.06,5.06-5.06M98.71,186.41c-4.07,0-7.37,3.3-7.37,7.37s3.3,7.37,7.37,7.37,7.37-3.3,7.37-7.37-3.3-7.37-7.37-7.37h0Z" style="fill: #dfdfdf;"/>
        <path d="M118.44,188.72c2.79,0,5.06,2.27,5.06,5.06s-2.27,5.06-5.06,5.06-5.06-2.27-5.06-5.06,2.27-5.06,5.06-5.06M118.44,186.41c-4.07,0-7.37,3.3-7.37,7.37s3.3,7.37,7.37,7.37,7.37-3.3,7.37-7.37-3.3-7.37-7.37-7.37h0Z" style="fill: #dfdfdf;"/>
        <path d="M138.18,188.72c2.79,0,5.06,2.27,5.06,5.06s-2.27,5.06-5.06,5.06-5.06-2.27-5.06-5.06,2.27-5.06,5.06-5.06M138.18,186.41c-4.07,0-7.37,3.3-7.37,7.37s3.3,7.37,7.37,7.37,7.37-3.3,7.37-7.37-3.3-7.37-7.37-7.37h0Z" style="fill: #dfdfdf;"/>
        <path d="M157.91,188.72c2.79,0,5.06,2.27,5.06,5.06s-2.27,5.06-5.06,5.06-5.06-2.27-5.06-5.06,2.27-5.06,5.06-5.06M157.91,186.41c-4.07,0-7.37,3.3-7.37,7.37s3.3,7.37,7.37,7.37,7.37-3.3,7.37-7.37-3.3-7.37-7.37-7.37h0Z" style="fill: #dfdfdf;"/>
      </g>
      <rect x="42" y="110.82" width="14.74" height="5.83" rx="1.55" ry="1.55" style="fill: #4b4c4e;"/>
      <rect x="61.74" y="110.82" width="14.74" height="5.83" rx="1.55" ry="1.55" style="fill: #4b4c4e;"/>
      <rect x="81.47" y="110.82" width="14.74" height="5.83" rx="1.55" ry="1.55" style="fill: #4b4c4e;"/>
      <rect x="101.2" y="110.82" width="14.74" height="5.83" rx="1.55" ry="1.55" style="fill: #4b4c4e;"/>
      <rect x="120.94" y="110.82" width="14.74" height="5.83" rx="1.55" ry="1.55" style="fill: #4b4c4e;"/>
      <rect x="140.67" y="110.82" width="14.74" height="5.83" rx="1.55" ry="1.55" style="fill: #4b4c4e;"/>
      <rect x="160.4" y="110.82" width="14.74" height="5.83" rx="1.55" ry="1.55" style="fill: #4b4c4e;"/>
      <path d="M140.67,165.39l3.27,8.49c3.47-4.64,6.01-7.72,9.16-12.78" style="fill: none; stroke: #2e3138; stroke-linecap: round; stroke-linejoin: round; stroke-width: 2.31px;"/>
      <path d="M53.21,89.6c-.74-1.36-2.09-1.85-3.62-2.05-1.79-.24-3.08.21-4.34,1.57-2.3,2.49-2.44,7.52-1.41,10.69.86,2.66,4.1,4.55,6.62,3.33,1.25-.61,2.11-1.82,2.63-3.1.48-1.2.71-2.57.22-3.77-.71-1.74-2.83-2.6-4.7-2.34-1.87.26-3.49,1.42-4.84,2.73" style="fill: none; stroke: #2e3138; stroke-linecap: round; stroke-linejoin: round; stroke-width: 2.31px;"/>
    </g>
  </g>
</svg>