<?xml version="1.0" encoding="UTF-8"?>
<svg id="_圖層_2" data-name="圖層 2" xmlns="http://www.w3.org/2000/svg" viewBox="0 0 318 249">
  <g id="_圖層_1-2" data-name="圖層 1">
    <g>
      <g>
        <g>
          <path d="M142.23,97.11l-2.61-42.15s.19-18.09-1.31-27.04c-1.49-8.95-5.96-10.44-14.73-10.44-11.69,0-11.84,13.43-11.84,13.43l-3.64,66.21c1.33,5.26,6.41,8.55,11.74,9.58,4.34.85,8.95.48,13.01-1.28,4.06-1.76,7.51-4.3,9.38-8.31Z" style="fill: #fff;"/>
          <path d="M102.23,102.68l-2.42-39.87s.17-17.11-1.21-25.58c-1.38-8.47-5.52-9.87-13.66-9.88-10.83,0-10.98,12.7-10.98,12.7l-3.37,62.63c2.1,2.74,5.04,4.76,8.34,5.79,3.3,1.03,6.8,1.29,10.25,1.29,1.79,0,3.6-.08,5.33-.53,3.36-.89,6.17-3.42,7.7-6.54Z" style="fill: #fff;"/>
          <path d="M131.1,22c.88.09,1.79.23,2.5.75,1.29.95,1.46,2.78,1.52,4.39.06,1.76.12,3.51.18,5.27.07,2.03.14,4.08-.22,6.08s-1.19,3.98-2.68,5.36c-2.02,1.88-4.95,2.44-7.71,2.44-1.69,0-3.44-.2-4.89-1.06-1.6-.95-2.67-2.61-3.26-4.37-.47-1.4-.26-11.89-.16-16.18.03-1.15.85-2.13,1.97-2.38,3.92-.87,9.34-.68,12.75-.31Z" style="fill: #fff;"/>
          <path d="M129.52,45.69c-1.2.4-2.43.73-3.67.99,1.74,1.82,3.75,3.39,6.04,4.44s4.84,1.57,7.33,1.28c.07,0,.15-.02.2-.07.08-.07.08-.18.08-.28.01-1.22.02-2.45.03-3.67,0-.48,0-.97-.17-1.42-.03-.08-.08-.17-.15-.21-.08-.05-.19-.05-.29-.04-1.28.07-2.56-.18-3.82-.44-1.53-.31-3.06-.62-4.59-.93" style="fill: #ffe3cf;"/>
          <path d="M132.38,43.95c-1.04.37-2.02.92-2.88,1.61,1.15,1.14,2.64,1.91,4.2,2.35,1.56.44,3.2.56,4.82.51.24,0,.51-.03.66-.22.09-.11.11-.26.13-.4.18-1.2.36-2.4.41-3.61.03-.71,0-1.46-.32-2.1-.03-.06-.07-.12-.13-.15-.13-.06-.26.07-.35.18-.49.57-1.22.88-1.95,1.06-.73.18-1.49.23-2.22.37-1.32.25-2.57.79-3.81,1.32" style="fill: #ffc59b;"/>
          <path d="M129.69,21.55c-.12-.04-.24-.08-.34-.1-.79-.18-1.6-.19-2.41-.18-.07-.31.28-.52.54-.69.51-.33.88-.83,1.29-1.28.68-.74,1.58-1.28,2.59-.84.38.17.72.42,1.06.67.13.09.26.19.34.32.12.18.16.41.16.63,0,.61-.32,1.64-.94,1.92-.63.28-1.58-.19-2.3-.43Z" style="fill: #ffc59b;"/>
          <path d="M132.05,19.46c.1-.14.21-.27.37-.32.17-.05.34.02.5.08,1.19.47,2.43.97,3.3,1.92.53.58.89,1.29,1.17,2.03.47,1.24.69,2.56.92,3.87.69,4.05,1.39,8.13,1.4,12.24,0,2.47-1.32,4.25-3.65,5.18-.43.17-.89.28-1.34.39l-1.57.38c-.72.17-1.48.35-2.19.14-.07-.18.09-.36.23-.49,2.15-1.97,4.38-6.08,4.32-9.09-.02-.86-.23-1.7-.29-2.56-.09-1.13.07-2.27.07-3.41,0-1.69-.32-3.38-.95-4.95-.29-.72-.66-1.43-1.21-1.98-.47-.47-1.59-.65-1.81-1.25-.23-.63.4-1.7.75-2.18Z" style="fill: #ff6d04;"/>
          <path d="M132.26,21.39c-.05.15-.1.3-.08.45.05.46.58.66.98.88.86.46,1.43,1.34,1.73,2.27.3.93.35,1.92.4,2.89.05.95.1,1.89.14,2.84.09,1.81.18,3.63.01,5.44-.16,1.69-.54,3.35-1.14,4.93.36.29.86-.1,1.13-.47.76-1.02,1.41-2.14,1.7-3.37.22-.9.23-1.84.25-2.76.02-1.75.01-3.49-.02-5.24-.01-.69-.03-1.38-.16-2.05-.25-1.29-.89-2.47-1.52-3.63-.52-.95-1.04-1.95-1.7-2.81-.78-1.02-1.34-.38-1.72.63Z" style="fill: #ff8127;"/>
          <path d="M108.1,97.11l3.64-66.21s.15-13.44,11.84-13.43c8.77,0,13.24,1.49,14.73,10.44,1.49,8.95,1.31,27.04,1.31,27.04l2.61,42.15" style="fill: none; stroke: #2e3138; stroke-linecap: round; stroke-miterlimit: 10; stroke-width: 1.49px;"/>
          <path d="M131.1,22c.88.09,1.79.23,2.5.75,1.29.95,1.46,2.78,1.52,4.39.06,1.76.12,3.51.18,5.27.07,2.03.14,4.08-.22,6.08s-1.19,3.98-2.68,5.36c-2.02,1.88-4.95,2.44-7.71,2.44-1.69,0-3.44-.2-4.89-1.06-1.6-.95-2.67-2.61-3.26-4.37-.47-1.4-.26-11.89-.16-16.18.03-1.15.85-2.13,1.97-2.38,3.92-.87,9.34-.68,12.75-.31Z" style="fill: none; stroke: #2e3138; stroke-linecap: round; stroke-miterlimit: 10; stroke-width: 1.49px;"/>
          <path d="M117.32,41.93c1.39-.97,3.14-1.25,4.82-1.42,1.88-.2,3.79-.3,5.67-.08,1.88.23,3.75.8,5.31,1.87" style="fill: none; stroke: #2e3138; stroke-linecap: round; stroke-miterlimit: 10; stroke-width: 1.49px;"/>
          <path d="M120.39,56.04c2.44.23,4.92-.01,7.27-.72" style="fill: none; stroke: #2e3138; stroke-linecap: round; stroke-miterlimit: 10; stroke-width: 1.49px;"/>
          <path d="M123.2,58.26c.91.23,1.87.26,2.79.09" style="fill: none; stroke: #2e3138; stroke-linecap: round; stroke-miterlimit: 10; stroke-width: 1.49px;"/>
          <path d="M122.85,96.33c1.23.23,2.48.29,3.73.18" style="fill: none; stroke: #2e3138; stroke-linecap: round; stroke-miterlimit: 10; stroke-width: 1.49px;"/>
          <path d="M119.29,90.84c2.6-.43,5.3-.23,7.81.59" style="fill: none; stroke: #2e3138; stroke-linecap: round; stroke-miterlimit: 10; stroke-width: 1.49px;"/>
          <path d="M113.92,88.5c6.63-3.2,14.71-3.22,21.35-.05" style="fill: none; stroke: #2e3138; stroke-linecap: round; stroke-miterlimit: 10; stroke-width: 1.49px;"/>
          <path d="M116.56,100.26c4.88,2.68,10.96,3.08,16.14,1.06" style="fill: none; stroke: #2e3138; stroke-linecap: round; stroke-miterlimit: 10; stroke-width: 1.49px;"/>
          <path d="M70.6,102.68l3.37-62.63s.14-12.71,10.98-12.7c8.13,0,12.27,1.41,13.66,9.88,1.38,8.47,1.21,25.58,1.21,25.58l2.42,39.87" style="fill: none; stroke: #2e3138; stroke-linecap: round; stroke-miterlimit: 10; stroke-width: 1.49px;"/>
          <path d="M91.92,31.63c.81.09,1.66.22,2.32.71,1.2.9,1.36,2.63,1.41,4.15.06,1.66.11,3.32.17,4.98.06,1.92.13,3.86-.21,5.76-.34,1.89-1.11,3.76-2.48,5.07-1.87,1.78-4.58,2.31-7.14,2.31-1.56,0-3.19-.19-4.53-1-1.48-.9-2.47-2.47-3.02-4.13-.44-1.32-.24-11.25-.15-15.3.03-1.09.78-2.01,1.83-2.25,3.63-.82,8.65-.64,11.81-.3Z" style="fill: none; stroke: #2e3138; stroke-linecap: round; stroke-miterlimit: 10; stroke-width: 1.49px;"/>
          <path d="M79.15,50.49c1.29-.92,2.91-1.18,4.47-1.35,1.75-.19,3.51-.29,5.26-.07,1.74.21,3.47.75,4.92,1.76" style="fill: none; stroke: #2e3138; stroke-linecap: round; stroke-miterlimit: 10; stroke-width: 1.49px;"/>
          <path d="M81.99,63.84c2.26.22,4.56-.01,6.74-.68" style="fill: none; stroke: #2e3138; stroke-linecap: round; stroke-miterlimit: 10; stroke-width: 1.49px;"/>
          <path d="M84.6,65.93c.84.22,1.73.25,2.59.09" style="fill: none; stroke: #2e3138; stroke-linecap: round; stroke-miterlimit: 10; stroke-width: 1.49px;"/>
          <path d="M84.27,101.95c1.14.22,2.3.27,3.45.17" style="fill: none; stroke: #2e3138; stroke-linecap: round; stroke-miterlimit: 10; stroke-width: 1.49px;"/>
          <path d="M82.85,98.07c2.41-.41,4.92-.22,7.24.55" style="fill: none; stroke: #2e3138; stroke-linecap: round; stroke-miterlimit: 10; stroke-width: 1.49px;"/>
          <path d="M77.16,94.54c5.42-2.67,12.03-2.68,17.46-.04" style="fill: none; stroke: #2e3138; stroke-linecap: round; stroke-miterlimit: 10; stroke-width: 1.49px;"/>
          <path d="M78.45,105.66c4.52,2.54,10.15,2.92,14.96,1" style="fill: none; stroke: #2e3138; stroke-linecap: round; stroke-miterlimit: 10; stroke-width: 1.49px;"/>
        </g>
        <g>
          <path d="M162.11,80.31c-.53-2.36-1.08-4.72-1.2-7.14-.1-2.03.11-4.07.23-6.1.34-5.89-.11-11.78-.31-17.67-.19-5.76.17-11.37.58-17.13.1-1.46.21-2.94.56-4.37.33-1.36.9-2.64,1.21-4,.13-.59.23-1.2.5-1.74.29-.6.77-1.08,1.23-1.55,1.41-1.42,2.87-2.87,4.7-3.66,1.83-.78,3.87-.84,5.86-.8,3.41.06,7.07.46,9.67,2.68,1.27,1.08,2.82,2.89,3.16,4.53.44,2.15.83,4.39.58,6.59-.16,1.37-.57,2.7-.97,4.02-.69,2.22-1.36,4.45-2.07,6.67-.64,2.02-.6,4.21-.74,6.33-.1,1.5-.2,3.01,0,4.49.16,1.2.57,3.09,1.57,3.91,1.9,1.56,4.17-1.55,4.56-3.19.29-1.19.14-2.44.01-3.66-.54-5.08-.77-10.2-.69-15.31.03-1.74.37-3.78-.08-5.45-.46-1.7.07-3.57,1.17-4.92,1.16-1.42,2.9-2.3,4.71-2.61,2.56-.43,5.28.26,7.32,1.86,2.04,1.6,3.36,4.08,3.55,6.67.08,1.12,0,2.35.68,3.25.06.08,1.95-1.55,2.17-1.67.87-.48,1.82-.79,2.79-.95,1.95-.32,4.01,0,5.71,1.03,3.2,1.93,4.79,6.17,3.66,9.73.12-.39,1.91-.75,2.28-.84.88-.2,1.79-.28,2.69-.24.75.03,1.4.29,2.12.37.91.11,1.74-.09,2.58.43.33.21.61.49.88.78,1.26,1.33,2.38,2.86,3.06,4.57.69,1.73.5,3.63,1.03,5.44,1.85-1.42,4.64-1.45,6.52-.07,1.85,1.36,2.64,3.71,3.15,5.94.97,4.34,1.23,8.9.24,13.23-.27,1.18-.63,2.34-.76,3.54-.15,1.43.04,2.87-.09,4.3-.07.72-.32,1.39-.47,2.09-.15.73.12,1.27.33,2,.43,1.51.77,3.04,1.03,4.59.72,4.32.79,8.89.33,13.25-.66,6.24-3.57,12.29-2.84,18.53.07.63.17,1.32-.14,1.87-.27.47-.78.73-1.28.94-5.62,2.34-12.02.53-17.84-1.24-13.28-4.03-27.1-7.8-40.87-6.01-4.27.55-8.48,1.71-12.78,2.04-5.2.39-4.04-3.49-4.56-7.81-1.12-9.25-2.69-18.44-4.72-27.53Z" style="fill: #fff;"/>
          <path d="M184.6,46.45c.05-.29.05-.59.06-.89.11-2.3.75-4.66,1.36-6.87.28-1,.58-2,.92-2.98.61-1.78,1.32-3.56,1.45-5.44.08-1.1-.04-2.2-.15-3.3-.21-2.01-.46-4.12-1.63-5.77-.6-.85-1.4-1.53-2.22-2.17-.68-.53-1.4-1.05-2.23-1.28-.83-.23-1.81-.11-2.41.51-.24.25-.41.59-.33.92.07.29.31.51.57.65,1.26.69,3.16.1,3.99,1.27.23.33.32.74.39,1.13.7,3.97.42,8.1-.81,11.94-.07.23-.16.47-.35.61-.52.4-1.3.02-1.88,0-.71-.02-1.42.1-2.13.17-1.27.12-2.55.08-3.82.04-.17.45-.45.87-.49,1.35-.04.51.21.98.44,1.43.31.59.62,1.17.93,1.76.24.45.48.9.66,1.37.47,1.22.57,2.55,1.01,3.79.38,1.09,1.18,2.29,2.14,2.95.39.27.84.45,1.3.51.85.11,2.18-.33,2.81-.91.24-.23.35-.5.41-.8Z" style="fill: #ffe3cf;"/>
          <path d="M182.62,19.6c-.28-.31-.19-.85.13-1.13.32-.28.79-.33,1.2-.23.41.1.77.34,1.12.58.63.44,1.25.92,1.69,1.54.29.4.51.86.7,1.32,1.06,2.54,1.47,5.32,1.44,8.07,0,.51-.02,1.01-.12,1.51-.11.59-.31,1.15-.52,1.72-.53,1.46-1.02,2.95-1.6,4.39-.19.47-.49.87-.67,1.33-.22.57-.22,1.2-.47,1.77-.3.69-.9,1.32-1.66,1.4-.62.07-1.22-.24-1.73-.61-1.28-.93-2.22-2.28-3.51-3.2-.43-.3-.9-.56-1.25-.95-.28-.31-.89-1.31-.61-1.75.23-.36,1.59-.24,2.01-.27,1.55-.14,3.09-.36,4.61-.65.07-.01.15-.03.21-.09.05-.05.06-.13.07-.21.49-3.93.99-7.89.86-11.85,0-.28-.02-.56-.13-.82-.26-.6-.96-.86-1.59-1.06" style="fill: #ffc59b;"/>
          <path d="M181.66,37.66c1.63-.14,2.93-1.45,3.72-2.88,1.11-2.02,1.94-4.22,2.13-6.53.22-2.68-.5-5.51-2.33-7.49-.2-.21-.53-.42-.74-.22-.1.1-.12.26-.12.4-.1,2.94-.21,5.89-.31,8.83-.05,1.56-.11,3.14-.57,4.63-.07.23-.16.48-.36.62-.17.12-.4.14-.61.16-1.41,0-2.79-.02-4.2.01-.16,0-.36.03-.43.17.06.31.13.63.31.88.19.27.49.43.77.59.52.29,1.05.58,1.63.72.39.09.76.12,1.11.09Z" style="fill: #ff6d04;"/>
          <path d="M185.56,32.28c-.33,1.12-.75,2.25-1.51,3.15-.78.93-2.61.75-3.74.68-.24-.02-.49-.04-.71-.13-.3-.13-.54-.38-.65-.68.79-.06,1.58-.13,2.37-.12.61,0,1.33-.06,1.79-.53.5-.45.66-1.17.77-1.83.34-1.95.56-3.92.66-5.9.03-.71-.07-1.43-.06-2.15.01-.84.37-1.94.11-2.74.25.13.5.27.75.4.12.06.24.13.33.22.14.15.22.35.28.54.1.28.21.52.25.82.19,1.59.03,3.25-.14,4.84-.12,1.13-.2,2.34-.52,3.43Z" style="fill: #ff8127;"/>
          <g>
            <path d="M167.38,114.59s-3.05-27.09-5.23-36.96c-2.18-9.87-1.09-32.09-1.09-32.09,0,0-3.49-27.88,12.2-29.19,1.9-.16,3.36-.41,5.23-.09,2.36.41,4.76,1.07,6.61,2.59,3.03,2.5,3.94,6.82,3.56,10.73-.38,3.91-1.82,7.62-2.7,11.44-.88,3.83-2.07,9.08-.29,12.73.31.64.69,1.31,1.34,1.63.82.4,1.85.08,2.55-.51.94-.8,1.44-2.02,1.6-3.25s.02-2.47-.12-3.69c-.72-6.29-.33-12.68-.74-19.01-.13-2.07-.25-4.31.92-6.01,1.65-2.39,5.08-2.64,7.95-2.19,2.16.34,4.38.99,5.94,2.53,2.61,2.59,2.55,6.75,2.32,10.42-.48,7.54-.96,15.07-1.43,22.61" style="fill: none; stroke: #2e3138; stroke-linecap: round; stroke-miterlimit: 10; stroke-width: 1.49px;"/>
            <path d="M167.07,32.23c.03.31.08.62.25.88.27.41.78.57,1.25.69,4.37,1.17,8.94,1.53,13.44,1.08.6-.06,1.25-.17,1.63-.63.3-.37.28-.88.38-1.34.56-2.43.91-8.28.37-11.6-.03-.16-.01-.33-.09-.47-.13-.24-.43-.33-.7-.41-.97-.26-1.83-.61-2.83-.8-1.16-.22-2.32-.43-3.49-.58-2.3-.31-4.62-.45-6.93-.22-.21.02-.42.05-.59.17-.2.14-.3.39-.39.62-1.51,4-2.78,8.3-2.3,12.62Z" style="fill: none; stroke: #2e3138; stroke-linecap: round; stroke-miterlimit: 10; stroke-width: 1.49px;"/>
            <path d="M194.03,30.27c.03.13.07.28.16.38.12.13.31.17.49.2,2.73.48,5.54.45,8.26-.06.26-1.43.43-2.87.52-4.32.05-.77.37-1.94-.24-2.56-.9-.92-2.7-.7-3.86-.79-.96-.07-1.92-.11-2.88-.02-.78.07-2.21.21-2.79.81-.52.53-.22,2.29-.17,3.02.08,1.13.25,2.24.52,3.34Z" style="fill: none; stroke: #2e3138; stroke-linecap: round; stroke-miterlimit: 10; stroke-width: 1.49px;"/>
            <path d="M207.24,36.75c.09-.91.22-1.81.4-2.71.12-.61.25-1.21.52-1.77,1.54-3.27,6.25-3.69,9.29-2.81,1.74.51,3.36,1.58,4.26,3.15.85,1.48,1,3.27.81,4.96-.19,1.69-.69,3.34-1.06,5-.35,1.57-.6,3.17-.84,4.77-.61,4.05-1.23,8.14-1.02,12.23.03.58.11,1.24.58,1.58" style="fill: none; stroke: #2e3138; stroke-linecap: round; stroke-miterlimit: 10; stroke-width: 1.49px;"/>
            <path d="M220.31,61.09c.3.06.46-.35.48-.66.28-3.42.55-6.87.23-10.29-.14-1.54-.41-3.08-.25-4.61.16-1.6.79-3.15,1.78-4.41.39-.5.85-.96,1.39-1.3,1.32-.82,2.97-.8,4.51-.76,1.21.03,2.47.08,3.53.66.54.3,1,.72,1.42,1.17,2.37,2.56,3.5,6.21,2.99,9.66-.2,1.36-.64,2.67-.98,4.01-.28,1.13-.49,2.27-.7,3.42-.85,4.64-1.7,9.27-2.55,13.91" style="fill: none; stroke: #2e3138; stroke-linecap: round; stroke-miterlimit: 10; stroke-width: 1.49px;"/>
            <path d="M235.22,55.34c.2-1.34.69-2.63,1.42-3.77.5-.78,1.16-1.52,2.03-1.84.43-.16.88-.21,1.34-.2,2.59.04,4.86,1.97,5.99,4.3,1.13,2.33,1.31,5,1.29,7.59-.04,6.14-1.06,12.22-1.78,18.31" style="fill: none; stroke: #2e3138; stroke-linecap: round; stroke-miterlimit: 10; stroke-width: 1.49px;"/>
            <path d="M210.22,37.43c.01.09.02.18.08.25.07.09.2.12.32.14,2.56.46,5.16.67,7.76.6.18,0,.37-.01.52-.11.23-.15.3-.45.35-.72.27-1.62.38-3.26.32-4.9,0-.21-.02-.42-.12-.6-.18-.33-.6-.44-.97-.51-1.17-.22-2.35-.34-3.54-.36-1-.01-2.75-.18-3.67.29-1.46.74-1.22,4.55-1.05,5.93Z" style="fill: none; stroke: #2e3138; stroke-linecap: round; stroke-miterlimit: 10; stroke-width: 1.49px;"/>
            <path d="M223.78,47.14c0,.16,0,.33.08.47.12.19.35.26.57.31,2.63.62,5.42.56,8.01-.18.15-.04.3-.09.41-.19.2-.19.21-.5.2-.77-.04-1.17-.17-2.33-.36-3.49-.03-.2-.07-.4-.21-.55-.17-.19-.46-.24-.72-.28-1.05-.15-2.1-.26-3.15-.33-.98-.07-2.42-.38-3.38-.14-1.43.36-1.42,3.87-1.46,5.16Z" style="fill: none; stroke: #2e3138; stroke-linecap: round; stroke-miterlimit: 10; stroke-width: 1.49px;"/>
            <path d="M237.44,57.08c0,.1-.01.21.05.28.06.06.15.08.23.09,2.25.27,4.51.34,6.77.23.07-.38.15-.76.16-1.14.03-1.41-.89-2.74-2.13-3.41-.87-.47-3.21-1.1-4.09-.36-.82.68-.9,3.3-1,4.31Z" style="fill: none; stroke: #2e3138; stroke-linecap: round; stroke-miterlimit: 10; stroke-width: 1.49px;"/>
            <path d="M245.33,80.4c1.8,5.03,2.38,10.43,2.33,15.77-.02,2.05-.14,4.12-.61,6.11-.47,2.04-1.31,3.98-1.76,6.02-.79,3.54-.42,7.22-.05,10.82" style="fill: none; stroke: #2e3138; stroke-linecap: round; stroke-miterlimit: 10; stroke-width: 1.49px;"/>
          </g>
        </g>
        <g>
          <path d="M270.05,157.45c-1.42,1.46-2.89,2.91-4.01,4.59-5.23-5.23-10.45-10.45-15.68-15.68-1.37-1.37-2.74-2.74-4.11-4.11-.41-.41-1.8-1.28-1.36-1.7,1.63-1.52,4.62-4.2,5.68-5.05,7.21,6.91,13.22,14.04,20.43,20.95-.31.33-.63.66-.95.99Z" style="fill: #ff6d04; stroke: #2e3138; stroke-linecap: round; stroke-linejoin: round; stroke-width: 1.49px;"/>
          <path d="M248.55,161.34c-1.46-1.42-2.91-2.89-4.59-4.01,5.23-5.23,10.45-10.45,15.68-15.68,1.37-1.37,2.74-2.74,4.11-4.11.41-.41,1.28-1.8,1.7-1.36,1.52,1.63,4.2,4.62,5.05,5.68-6.91,7.21-14.04,13.22-20.95,20.43-.33-.31-.66-.63-.99-.95Z" style="fill: #ff6d04; stroke: #2e3138; stroke-linecap: round; stroke-linejoin: round; stroke-width: 1.49px;"/>
        </g>
        <path d="M190.18,130.01c-7,0-12.67,5.67-12.67,12.67s5.67,12.67,12.67,12.67,12.67-5.67,12.67-12.67-5.67-12.67-12.67-12.67ZM190.18,150.41c-4.27,0-7.73-3.46-7.73-7.73s3.46-7.73,7.73-7.73,7.73,3.46,7.73,7.73-3.46,7.73-7.73,7.73Z" style="fill: #ff6d04; stroke: #2e3138; stroke-linecap: round; stroke-linejoin: round; stroke-width: 1.49px;"/>
        <g>
          <path d="M144.4,219.37c-.07.62.09,1.24.25,1.85.29,1.1.57,2.2.86,3.31.2.76.41,1.54.9,2.15.39.49.93.83,1.47,1.15,5.28,3.14,11.33,5.18,17.48,5.06,3.11-.06,6.18-.66,9.23-1.27,5.59-1.1,11.19-2.21,16.78-3.31,2.5-.49,5.18-.62,7.3-2.06,2.02-1.38,4.57-3.18,5.92-5.26.48-.74.21-1.77.33-2.64.15-1.07.03-2.08-.89-2.77-.21-.16-.45-.28-.71-.29-.8-.03-1.21.91-1.51,1.65-.31.76-.73,1.49-1.32,2.07-.84.82-1.95,1.28-3.02,1.74-.2.09-.41.18-.61.27-2.52,1.1-4.92,2.65-7.47,3.65-2.06.81-4.34,1.37-6.54,1.63-4.75.56-9.79.02-14.26,2.02-1.02.45-2.41.95-3.07.06-.32-.42-.34-1.06-.78-1.35-.5-.33-1.14.02-1.73.15-1.23.27-2.58-.68-2.74-1.92-1.42,1.05-3.79.2-4.23-1.51-.06-.25-.1-.51-.26-.71-.27-.32-.75-.3-1.16-.29-.85.02-1.73-.11-2.46-.55-.73-.44-1.28-1.23-1.27-2.08.01-.49.17-1.07-.2-1.39-.25-.22-.63-.19-.97-.21-.62-.03-1.21-.3-1.66-.72-.39-.36-.63-1.19-1.19-1.3-1.12-.22-2.35,1.99-2.45,2.88Z" style="fill: #ff6d04;"/>
          <path d="M151.73,211.79c-2.51.73-4.89,3.19-4.15,5.7.22.76.84,1.5,1.64,1.49.41,0,.87-.19,1.2.05.37.28.25.84.26,1.3.03,1.48,1.71,2.36,3.18,2.48.52.04,1.1.05,1.46.41.3.3.37.74.52,1.13.6,1.53,2.83,2.11,4.09,1.05.53,1.17,1.91,1.89,3.18,1.65.59-.11,1.29-.37,1.73.04.31.29.31.77.46,1.17.33.88,1.42,1.26,2.35,1.13s1.76-.62,2.6-1.03c5.38-2.58,11.83-1.56,17.47-3.49.8-.27,1.61-.62,2.19-1.24.57-.61.86-1.41,1.12-2.2,1.39-4.21,2.17-8.61,3.79-12.73.45-1.14.98-2.28,1.85-3.12.45-.43.98-.79,1.32-1.31.36-.55.46-1.22.55-1.86,1.19-8.32,2.37-16.64,3.56-24.96.17-1.22.26-2.67-.69-3.45-.58-.47-1.37-.53-2.12-.54-2.89-.01-5.75.61-8.62.92-3.17.35-6.38.33-9.54-.06-.79-.1-1.68-.2-2.32.28-.68.49-.83,1.42-.9,2.26-.32,4.21.35,8.44.32,12.67-.03,3.34-.5,6.68-1.4,9.9-.55,1.98-1.29,3.96-2.61,5.54-1.58,1.91-3.88,3.09-6.2,3.97-2.7,1.02-5.53,1.72-8.4,2.04-2.61.29-5.35.06-7.89.79Z" style="fill: #fff;"/>
          <path d="M182.46,194.79c5.35,1.09,11.03,1.68,16.19-.12.19-.07.39-.14.53-.3.12-.14.16-.33.2-.52.09-.53.1-1.08.03-1.61-1.14.66-2.47.86-3.78,1.01-2.92.34-5.85.5-8.79.47-.8,0-1.6-.03-2.39-.16-.98-.16-1.92-.49-2.85-.82-1.12-.39-3.76-1.94-4.02.14-.16,1.29.65,1.25,1.63,1.34,1.09.1,2.17.34,3.25.56Z" style="fill: #ffad0f;"/>
          <path d="M179.68,202.21c.3.12.61.24.92.34,1.6.52,3.24.93,4.89,1.21,3.26.56,6.59.67,9.89.62.98-.01,2.09-.1,2.69-.87.26-.33.39-.75.48-1.16.17-.8.23-1.62.16-2.43-.99.09-1.96.36-2.93.55-2.32.46-4.7.52-7.07.57-1.67.04-3.34.08-5-.13-1.42-.18-3.05-.57-4.3-1.29-.41-.24-.75-.58-1.17-.8-.42-.22-.98-.29-1.33.02-.25.22-.34.57-.42.9-.07.3-.14.6-.2.89-.01.06-.03.13,0,.19.04.09.15.13.24.16,1.1.3,2.12.81,3.16,1.22Z" style="fill: #ffad0f;"/>
          <path d="M178.31,174.34c-.06,4.22-.03,8.44-.19,12.66-.57,15.03-3.83,17.72-6.88,20.02-.96.73-2.09,1.2-3.22,1.63-5.4,2.01-11.09,2.67-16.69,3.49-1.5.22-3.04.87-3.84,2.15s-.54,3.27.81,3.96c2.31,1.17,4.83-2.08,7.35-1.53" style="fill: none; stroke: #2e3138; stroke-linecap: round; stroke-linejoin: round; stroke-width: 1.49px;"/>
          <path d="M151.55,217.78c-1.7.86-1.6,3.68,0,4.72,1.6,1.03,3.92.32,5.02-1.23-1.31.86-1.45,3.04-.25,4.05,1.2,1.02,3.32.53,3.96-.9-.57.98.2,2.33,1.28,2.69,1.08.36,2.27-.04,3.23-.64-.33,1.51,1.05,3.13,2.59,3.04.96-.06,1.79-.64,2.64-1.09,5.63-2.96,14.91-.74,20.17-4.31" style="fill: none; stroke: #2e3138; stroke-linecap: round; stroke-linejoin: round; stroke-width: 1.49px;"/>
          <path d="M192.12,222.75c1.52-.27,3.03-.25,4.42-.89,1.28-.59,2.54-1.46,3.66-2.32,1.01-.77,2.01-1.73,2.24-2.97.15-.78-.03-1.58-.28-2.32-.68-1.97-1.97-3.69-2.67-5.66-1.74-4.89-.14-11.2.23-16.24.22-2.98.4-5.65,1.1-8.63.78-3.29,1.63-6.59,1.87-9.98" style="fill: none; stroke: #2e3138; stroke-linecap: round; stroke-linejoin: round; stroke-width: 1.49px;"/>
          <path d="M178.31,191.02c6.61,3.36,14.6,3.68,21.44.87" style="fill: none; stroke: #2e3138; stroke-linecap: round; stroke-linejoin: round; stroke-width: 1.49px;"/>
          <path d="M178.07,193.87c6.76,2.6,14.4,2.83,21.3.63" style="fill: none; stroke: #2e3138; stroke-linecap: round; stroke-linejoin: round; stroke-width: 1.49px;"/>
          <path d="M177.59,198.56c6.35,3.11,13.98,3.51,20.62,1.09" style="fill: none; stroke: #2e3138; stroke-linecap: round; stroke-linejoin: round; stroke-width: 1.49px;"/>
          <path d="M177.23,201.21c6.6,3.46,13.65,3.99,20.88,2.18" style="fill: none; stroke: #2e3138; stroke-linecap: round; stroke-linejoin: round; stroke-width: 1.49px;"/>
          <path d="M158.83,210.25c3.85,2.3,3.13,1.92,5.21,3.8,4.13,3.72,7.36,8.43,9.35,13.62,2.27-.52,4.61-.7,6.93-.55.46-6.04-2.92-11.79-7.25-16.02-1.56-1.53-3.35-2.96-5.49-3.37-3.05-.59-6.05,1-8.75,2.53" style="fill: #ffad0f; stroke: #2e3138; stroke-linecap: round; stroke-linejoin: round; stroke-width: 1.49px;"/>
          <path d="M196.55,206.85c.37-.73.79-1.46,1.34-2.06.08-.09,1.58-1.3,1.62-1.12.56,2.75,1.96,5.35,2.38,8.11.24,1.56.41,3.16.07,4.7-.65,2.97-3.38,4.27-5.87,5.54-1.77.9-4.15,2.24-6.17,2.35-.14-1.31.75-3.23,1.15-4.5.48-1.51,1.01-3,1.59-4.48,1.14-2.91,2.47-5.75,3.9-8.54Z" style="fill: #ffad0f; stroke: #2e3138; stroke-linecap: round; stroke-linejoin: round; stroke-width: 1.49px;"/>
          <path d="M146.7,216c-2.32,1.79-2.76,5.32-1.57,8,1.18,2.68,3.65,4.59,6.28,5.89,6,2.97,12.99,3.21,19.65,2.59,4.08-.38,8.32-1.43,12.35-2.31,4.61-1.01,9.17-2.22,13.74-3.42,2.38-.63,4.67-2.38,6.64-4.67,3.08-3.59.6-7.18-1.11-7.08" style="fill: none; stroke: #2e3138; stroke-linecap: round; stroke-linejoin: round; stroke-width: 1.49px;"/>
          <path d="M144.75,219.01c.43,2.51,3.04,6.16,5.11,7.64,2.01,1.44,4.48,2.06,6.88,2.66,3.14.78,6.31,1.56,9.55,1.64,5.88.16,11.55-1.98,17.33-3.05,3.57-.66,6.81-1.81,10.31-2.79,3.5-.98,10.8-3.77,10.35-9.28" style="fill: none; stroke: #2e3138; stroke-linecap: round; stroke-linejoin: round; stroke-width: 1.49px;"/>
          <path d="M164.91,227.34c-.22-.81.09-1.73.76-2.24" style="fill: none; stroke: #2e3138; stroke-linecap: round; stroke-linejoin: round; stroke-width: 1.49px;"/>
          <path d="M159.95,224.86c.51-.78,1.34-1.35,2.26-1.54" style="fill: none; stroke: #2e3138; stroke-linecap: round; stroke-linejoin: round; stroke-width: 1.49px;"/>
          <path d="M155.9,222.07c.39-.72,1.09-1.27,1.88-1.47" style="fill: none; stroke: #2e3138; stroke-linecap: round; stroke-linejoin: round; stroke-width: 1.49px;"/>
        </g>
        <g>
          <path d="M265.53,190.95c-.14.66-.26,1.32-.35,1.98-.32,2.24-1.17,4.25-1.37,6.54-.02.27-.05.56-.24.75-.19.2-.5.23-.78.25-5.36.39-10.74.5-16.11.32-.29,0-.61-.03-.82-.24-.68-.67.36-2.69.5-3.46.25-1.41.35-2.85.4-4.29.2-5.65-.36-11.32-1.66-16.82-.15-.62-.31-1.26-.22-1.89.31-2.33,3.13-2.14,4.86-2.08,5.39.21,10.74,1.15,16.15,1.13,1.75,0,4.33-.46,4.2,2.01-.05.98-.34,1.92-.41,2.89-.05.68.08,1.32-.04,2-.34,1.9-1.49,3.66-2.28,5.39-.81,1.77-1.42,3.62-1.83,5.52Z" style="fill: #fff;"/>
          <path d="M236.58,207.87c-1.53.82-3.26,1.65-3.93,3.26-.2.47-.29.99-.15,1.48.09.33.28.61.46.9,2.59,4.18,3.31,9.47,1.93,14.18,4.9.03,9.81.26,14.69.68,2.63.23,5.28.52,7.91.33,2.64-.19,5.3-.89,7.43-2.45.47-.34.92-.74,1.2-1.25.24-.44.34-.94.41-1.43.18-1.16.26-2.33.24-3.5-.03-1.55-.24-3.1-.45-4.64-.46-3.39-.92-6.77-1.38-10.16-.02-.13-.04-.27-.14-.36-.15-.13-.37-.07-.55,0-4.93,1.66-10.35,1.83-15.37.47-1.68-.45-4.86-2.17-6.54-1.44-.88.38-1.75,1.41-2.55,1.96-1.04.72-2.12,1.38-3.23,1.97Z" style="fill: #1f89bd;"/>
          <path d="M254.25,228.72c2.18.15,4.38.29,6.52-.13,2.14-.42,4.24-1.47,5.47-3.28.62.87.2,2.16-.63,2.84-.83.68-1.93.88-2.99,1.03-9.27,1.28-18.79-.44-28.03,1.1-2.42.4-4.84,1.03-7.28.81-2.17-.19-4.22-1.04-6.23-1.87-1.49-.62-2.99-1.24-4.48-1.86-.84-.35-1.73-.74-2.23-1.51-.28-.43-.4-.95-.48-1.46-.32-2.18.22-4.47,1.47-6.29,1.67-2.43,4.09-3.23,6.57-4.51,2.71-1.4,6.08-1.64,9.08-2.02.24-.03.5-.06.72.04.18.08.32.24.44.39,1.53,1.92,2.26,4.38,2.52,6.83s.09,4.91.02,7.37c-.02.63.04,1.07.61,1.27.71.25,1.88.1,2.64.15,1.79.12,3.58.24,5.37.36,3.64.24,7.27.49,10.91.73Z" style="fill: #fff;"/>
          <g>
            <path d="M243.09,202.85c-1.71,3.62-6.84,3.99-9.57,6.91-.54.58-.99,1.26-1.68,1.64-.75.42-1.66.41-2.52.42-3.29,0-6.66.34-9.63,1.77s-5.46,4.16-5.89,7.42c-.07.55-.08,1.13.16,1.63.21.44.58.77.96,1.08,3.36,2.7,7.75,3.83,12.05,4.15,4.3.32,8.62-.11,12.93-.17,3-.04,5.99.1,8.98.36,4.96.43,10.22,1.16,14.71-.98,1.1-.52,2.16-1.25,2.76-2.31.4-.7.57-1.5.66-2.3.5-4.15-.94-8.26-1.49-12.4-.45-3.35-.32-6.78.39-10.09-4.67.33-9.35.47-14.03.42-2.05-.02-4.37-1.02-6.29-.92-2.08.1-1.69,1.68-2.49,3.37Z" style="fill: none; stroke: #2e3138; stroke-linecap: round; stroke-linejoin: round; stroke-width: 1.49px;"/>
            <path d="M231.79,211.49c3.53,4.41,4.77,10.56,3.2,15.99" style="fill: none; stroke: #2e3138; stroke-linecap: round; stroke-linejoin: round; stroke-width: 1.49px;"/>
            <path d="M213.81,222.38c-.22,1.29.28,2.62,1.1,3.64.82,1.02,1.93,1.76,3.07,2.4,4.84,2.7,10.58,3.74,16.06,2.91,2.04-.31,4.05-.87,6.09-1.15,7.03-.98,14.28,1.33,21.23-.11,1.52-.31,3.05-.83,4.23-1.84,1.68-1.44,2.07-4.72,1.52-6.88" style="fill: none; stroke: #2e3138; stroke-linecap: round; stroke-linejoin: round; stroke-width: 1.49px;"/>
            <path d="M243.41,203.74c3.46,1.37,7.09,2.39,10.81,2.66,3.71.26,7.53-.25,10.9-1.82" style="fill: none; stroke: #2e3138; stroke-linecap: round; stroke-linejoin: round; stroke-width: 1.49px;"/>
            <path d="M239.55,206.4c.52.85,1.09,1.69,1.85,2.34s1.6.56,2.33,1.31" style="fill: none; stroke: #2e3138; stroke-linecap: round; stroke-linejoin: round; stroke-width: 1.49px;"/>
            <path d="M248.82,206.17c-.54,1.63-2.15,2.63-3.68,3.41-3.77,1.93-7.22,3.3-11.33,4.36" style="fill: none; stroke: #2e3138; stroke-linecap: round; stroke-linejoin: round; stroke-width: 1.49px;"/>
            <path d="M237.23,207.99c.72.78,1.33,1.67,1.8,2.63" style="fill: none; stroke: #2e3138; stroke-linecap: round; stroke-linejoin: round; stroke-width: 1.49px;"/>
            <path d="M235.04,208.56c.6.62,1.57,1.81,1.89,2.61" style="fill: none; stroke: #2e3138; stroke-linecap: round; stroke-linejoin: round; stroke-width: 1.49px;"/>
            <path d="M233.73,210.3c.53.69.44.96.97,1.66" style="fill: none; stroke: #2e3138; stroke-linecap: round; stroke-linejoin: round; stroke-width: 1.49px;"/>
            <path d="M244.69,174.34c1.49,8.11,2.02,16.3,1.57,24.47" style="fill: none; stroke: #2e3138; stroke-linecap: round; stroke-linejoin: round; stroke-width: 1.49px;"/>
            <path d="M264.09,199.54c.63-4.36,1.27-8.73,2.62-13.02,1.25-3.98,3.11-7.95,2.77-12.01" style="fill: none; stroke: #2e3138; stroke-linecap: round; stroke-linejoin: round; stroke-width: 1.49px;"/>
          </g>
          <path d="M243.45,202.91c-.04.18-.08.38,0,.55.11.25.4.36.67.43,6.68,1.9,13.88,3.12,20.49,1.01.27-.09.55-.19.73-.4.23-.27.24-.66.24-1.02,0-.55,0-1.11,0-1.66,0-.66-.09-1.47-.7-1.71-.26-.1-.56-.06-.84-.03-3.95.54-7.96.71-11.94.49-2.04-.11-4.05-.35-6.07-.63-.82-.11-1.01-.24-1.55.4-.54.65-.84,1.76-1.03,2.56Z" style="fill: #fff;"/>
        </g>
        <g>
          <path d="M100.67,192.18c-2.59,2.35-5.18,4.69-7.77,7.04-6.05,5.48-12.1,10.96-18.15,16.44-2.32,2.1-4.47,5.08-7.72,4.99-5.81-.17-11.55-2.91-15.27-7.37-2.86-3.43-4.5-7.83-4.71-12.28-.12-2.49-.15-5.77,1.67-7.58.5-.5,1.23-.88,1.8-1.29,2.06-1.47,4.12-2.94,6.18-4.4,6.18-4.4,12.35-8.81,18.53-13.21,8.94-6.38,17.89-12.75,26.83-19.13,0,0,10.59-8.27,17.88.87,5.47,6.86,7.1,11.28,1.04,18.03s-20.31,17.9-20.31,17.9Z" style="fill: #fff;"/>
          <path d="M121.1,164.94c.47.74.94,1.54.98,2.42.07,1.6-1.26,2.88-2.48,3.92-1.33,1.14-2.67,2.29-4,3.43-1.54,1.32-3.1,2.66-4.89,3.62-1.79.97-3.85,1.55-5.86,1.25-2.73-.4-5-2.34-6.72-4.49-1.05-1.32-1.99-2.81-2.23-4.48-.26-1.84.38-3.71,1.38-5.28.8-1.24,9.12-7.63,12.54-10.22.92-.7,2.19-.67,3.09.06,3.13,2.52,6.36,6.87,8.2,9.76Z" style="fill: #fff;"/>
          <path d="M101.61,178.5c-1.06-.69-2.09-1.44-3.07-2.24-.33,2.49-.3,5.05.3,7.49.6,2.44,1.79,4.76,3.58,6.53.05.05.11.1.18.12.1.02.19-.05.27-.11.96-.76,1.93-1.51,2.89-2.27.38-.3.76-.6,1-1.02.04-.08.08-.16.07-.25-.01-.1-.08-.18-.15-.25-.86-.96-1.46-2.12-2.04-3.26-.71-1.39-1.43-2.78-2.14-4.17" style="fill: #ffe3cf;"/>
          <path d="M104.75,179.65c-.94-.58-1.98-1-3.05-1.25-.17,1.61.15,3.25.78,4.75.63,1.49,1.56,2.85,2.61,4.08.15.18.34.38.58.37.14,0,.27-.08.4-.15,1.05-.61,2.1-1.22,3.08-1.93.58-.42,1.15-.9,1.44-1.56.03-.06.05-.13.04-.2-.04-.14-.22-.16-.36-.16-.75-.03-1.45-.4-2.04-.86-.59-.46-1.11-1.02-1.68-1.51-1.02-.87-2.22-1.52-3.41-2.15" style="fill: #ffc59b;"/>
          <path d="M120.58,163.57c-.04-.12-.09-.24-.13-.33-.35-.73-.86-1.37-1.36-2,.2-.24.58-.11.88-.01.58.19,1.2.17,1.81.21,1.01.07,1.98.44,2.27,1.49.11.4.12.83.14,1.25,0,.16,0,.32-.04.47-.06.21-.22.38-.39.52-.47.38-1.48.78-2.09.47-.62-.32-.84-1.35-1.09-2.06Z" style="fill: #ffc59b;"/>
          <path d="M123.68,164.11c.17,0,.35,0,.48.09.14.1.2.28.25.44.38,1.23.76,2.5.56,3.77-.12.78-.45,1.5-.85,2.18-.68,1.14-1.57,2.14-2.45,3.13-2.73,3.07-5.48,6.16-8.69,8.73-1.92,1.54-4.15,1.63-6.33.38-.4-.23-.77-.52-1.14-.8-.43-.33-.85-.66-1.28-.99-.59-.46-1.19-.94-1.48-1.62.1-.16.34-.16.53-.13,2.88.45,7.49-.37,9.8-2.3.66-.55,1.19-1.24,1.81-1.83.83-.78,1.82-1.37,2.71-2.07,1.33-1.05,2.45-2.36,3.27-3.84.38-.68.7-1.41.79-2.18.08-.66-.48-1.65-.15-2.2.35-.58,1.58-.75,2.17-.78Z" style="fill: #ff6d04;"/>
          <path d="M122.3,165.47c-.15.05-.3.11-.41.22-.33.33-.16.87-.07,1.32.18.96-.15,1.96-.7,2.77-.54.81-1.28,1.47-2.01,2.11-.71.63-1.42,1.26-2.13,1.88-1.36,1.2-2.72,2.41-4.24,3.41-1.42.93-2.96,1.67-4.57,2.19,0,.46.61.61,1.07.59,1.27-.04,2.55-.23,3.7-.77.84-.39,1.58-.96,2.31-1.53,1.38-1.07,2.74-2.17,4.08-3.29.53-.44,1.06-.88,1.5-1.4.86-1,1.38-2.24,1.88-3.45.42-1,.87-2.03,1.14-3.08.31-1.25-.54-1.29-1.56-.95Z" style="fill: #ff8127;"/>
          <path d="M48.07,193.87l54-38.5s10.59-8.27,17.88.87c5.47,6.86,7.1,11.28,1.04,18.03s-20.31,17.9-20.31,17.9l-31.3,28.36" style="fill: none; stroke: #2e3138; stroke-linecap: round; stroke-miterlimit: 10; stroke-width: 1.49px;"/>
          <path d="M121.1,164.94c.47.74.94,1.54.98,2.42.07,1.6-1.26,2.88-2.48,3.92-1.33,1.14-2.67,2.29-4,3.43-1.54,1.32-3.1,2.66-4.89,3.62-1.79.97-3.85,1.55-5.86,1.25-2.73-.4-5-2.34-6.72-4.49-1.05-1.32-1.99-2.81-2.23-4.48-.26-1.84.38-3.71,1.38-5.28.8-1.24,9.12-7.63,12.54-10.22.92-.7,2.19-.67,3.09.06,3.13,2.52,6.36,6.87,8.2,9.76Z" style="fill: none; stroke: #2e3138; stroke-linecap: round; stroke-miterlimit: 10; stroke-width: 1.49px;"/>
          <path d="M96.93,166.63c1.63.48,2.93,1.67,4.12,2.88,1.33,1.35,2.6,2.77,3.6,4.38,1,1.61,1.72,3.42,1.86,5.31" style="fill: none; stroke: #2e3138; stroke-linecap: round; stroke-miterlimit: 10; stroke-width: 1.49px;"/>
          <path d="M87.82,177.84c1.34,2.05,3.08,3.84,5.1,5.23" style="fill: none; stroke: #2e3138; stroke-linecap: round; stroke-miterlimit: 10; stroke-width: 1.49px;"/>
          <path d="M87.85,181.41c.39.85.96,1.62,1.67,2.24" style="fill: none; stroke: #2e3138; stroke-linecap: round; stroke-miterlimit: 10; stroke-width: 1.49px;"/>
          <path d="M57.88,204.91c.59,1.1,1.33,2.12,2.19,3.02" style="fill: none; stroke: #2e3138; stroke-linecap: round; stroke-miterlimit: 10; stroke-width: 1.49px;"/>
          <path d="M59.95,198.7c1.96,1.76,3.49,4,4.42,6.47" style="fill: none; stroke: #2e3138; stroke-linecap: round; stroke-miterlimit: 10; stroke-width: 1.49px;"/>
          <path d="M58.43,193.05c6.64,3.18,11.7,9.48,13.37,16.65" style="fill: none; stroke: #2e3138; stroke-linecap: round; stroke-miterlimit: 10; stroke-width: 1.49px;"/>
          <path d="M50.89,202.45c.95,5.49,4.43,10.48,9.25,13.27" style="fill: none; stroke: #2e3138; stroke-linecap: round; stroke-miterlimit: 10; stroke-width: 1.49px;"/>
          <path d="M93.69,159.58c-3.43,1.6-6.4,4.15-8.52,7.28,2.5,1.92,5.57,3.09,8.71,3.31" style="fill: #fff; stroke: #2e3138; stroke-linecap: round; stroke-miterlimit: 10; stroke-width: 1.49px;"/>
          <path d="M94.14,178.05c-4.76-1.36-8.76-4.64-12.1-8.31.8-1.28,1.87-2.39,3.12-3.24,2.48,1.82,5.42,2.95,8.49,3.12-.34,2.7-.06,5.76.49,8.43Z" style="fill: #fff; stroke: #2e3138; stroke-linecap: round; stroke-miterlimit: 10; stroke-width: 1.49px;"/>
          <g>
            <path d="M106.15,151.35c4.9-1.8,10.82-2.34,14.99.81,3.24,2.45,4.69,6.6,5.43,10.59.24,1.27.42,2.57.34,3.86-.2,3.08-1.87,5.85-3.71,8.33-5.57,7.53-13.1,13.6-21.63,17.46-.52.23-1.1.47-1.64.29-.35-.11-.63-.38-.86-.66-1.38-1.64-1.94-4.62-2.66-6.63-.94-2.6-1.59-5.29-2.07-8.01-.93-5.3-1.17-10.7-1.39-16.07-.01-.36-.03-.73.09-1.07.3-.88,1.52-1.69,2.15-2.34.95-.96,1.93-1.82,3.05-2.6,2.44-1.68,5.15-2.95,7.92-3.97Z" style="fill: #fff; stroke: #2e3138; stroke-linecap: round; stroke-miterlimit: 10; stroke-width: 1.49px;"/>
            <path d="M117.51,151.4c-1.4,3.68-1.21,7.84.04,11.57,1.26,3.73,3.53,7.04,6.2,9.93" style="fill: none; stroke: #2e3138; stroke-linecap: round; stroke-miterlimit: 10; stroke-width: 1.49px;"/>
            <path d="M109.52,151.39c-2.91,10.05-.39,22.93,6.09,31.15" style="fill: none; stroke: #2e3138; stroke-linecap: round; stroke-miterlimit: 10; stroke-width: 1.49px;"/>
            <path d="M102.06,153.93c-2.83,11.68-1.56,24.31,3.52,35.2" style="fill: none; stroke: #2e3138; stroke-linecap: round; stroke-miterlimit: 10; stroke-width: 1.49px;"/>
          </g>
        </g>
      </g>
      <rect width="318" height="249" style="fill: none;"/>
    </g>
  </g>
</svg>