<?xml version="1.0" encoding="UTF-8"?>
<svg id="_圖層_2" data-name="圖層 2" xmlns="http://www.w3.org/2000/svg" viewBox="0 0 228 228">
  <g id="_圖層_1-2" data-name="圖層 1">
    <g>
      <g>
        <path d="M128.18,159.5c-10.28.63-20.59.78-30.88.47-1-.03-2.1-.03-2.88.61-.27.22-.48.51-.74.72-1.02.83-2.55.52-3.75,1.04-.23.1-.45.24-.58.45-.29.49.04,1.1.35,1.58,1.32,2.04,2.37,4.25,3.41,6.45,4.09,8.73,7.98,17.56,11.86,26.39.49,1.12.76,2.6.11,3.71-.42.72-1.06,1.27-1.63,1.87-1.22,1.29-1.34,3.37-2.97,4.29-.8.46-1.77.5-2.69.53-6.8.24-13.59.48-20.39.72-.67.02-1.38.04-1.98-.27-.6-.31-1.02-1.07-.72-1.67.31-.63,1.15-.74,1.85-.81,3.57-.36,6.89-1.94,10.12-3.5,1.39-.67,2.8-1.35,3.92-2.4-.41-1.2-.82-2.39-1.23-3.59-.14-.4-.28-.8-.57-1.11-.22-.23-.51-.39-.74-.6-.29-.27-.49-.62-.68-.97-4.98-9.04-10.05-18.36-11.39-28.59-.09-.69-.16-1.42.12-2.06.29-.67.91-1.12,1.5-1.54,1.95-1.4,4.11-2.87,6.51-2.76,1.23.05,2.41.53,3.63.73,4.71.77,9.06-2.54,13.74-3.48,1.75-.35,3.5-.33,5.28-.42,2-.11,3.99-.24,5.99-.28,2.55-.05,5.13.08,7.62.63,1.21.27,2.35.61,3.57.82,1.33.22,2.65.49,3.96.83.54.14,2.14.28,2.33.93.3,1-1.49,1.24-2.05,1.28Z" style="fill: #fff;"/>
        <path d="M93.01,138.88c-.31.11-.65.23-.97.17-.32-.06-.59-.29-.86-.48-.83-.6-1.81-.98-2.82-1.1-1.28-.15-2.82.32-3.2,1.55-.08.26-.1.54-.17.81-.08.29-.21.56-.34.83-.58,1.25-.91,2.62-.98,4-.02.42-.01.85.16,1.23.28.59.94.93,1.59,1.02.65.08,1.31-.04,1.96-.15,8.5-1.37,17.29,1.29,25.76-.26,1.37-.25,2.73-.61,4.12-.68,1.37-.07,2.79.13,4.07-.34.69-.26,1.3-.7,1.89-1.14.55-.4,1.12-.83,1.41-1.45.17-.38.23-.8.25-1.21.18-3.21-1.42-6.21-2.1-9.35-.58-2.66-.51-5.49-1.57-7.99-3.15.92-6.3,1.83-9.45,2.75-.25.07-.52.16-.65.38-.22.36.04.81.29,1.16,1.58,2.23,2.75,4.95,2.32,7.66-.03.17-.07.36-.19.48-.17.16-.43.16-.67.14-1.91-.11-3.84-.04-5.74.19-.68.08-2.49.75-3.08.54-.75-.27-.66-1.47-1.2-2.05-1.1-1.19-3.04.48-4.24,1.03-1.83.84-3.69,1.6-5.58,2.29Z" style="fill: #fff;"/>
        <path d="M69.63,84.66c1.3,2.16,2.59,4.32,3.89,6.48,1.48,2.47,3.14,5.1,5.81,6.18,1.68.68,3.54.65,5.35.53,1.09-.07,2.21-.19,3.2-.64,1.51-.68,2.7-2.11,4.34-2.32.99.74,1.97,1.49,2.93,2.27.3.24.62.53.67.91.04.34-.14.65-.3.96-.51,1.01-.72,2.18-.59,3.3,1.84.12,3.67-.58,5.2-1.61,1.53-1.03,2.81-2.39,4.08-3.73,1.6-1.69,3.3-3.62,3.35-5.95-.72,1.09-2.3,1.34-3.52.87-1.22-.47-2.13-1.51-2.88-2.58-.75-1.07-1.4-2.23-2.33-3.14-.95-.93-2.13-1.57-3.23-2.32-2.44-1.69-4.44-4.02-5.74-6.69,1.27-.94,2.13-1.96,2.73-3.42s.57-3.24-.35-4.53c-1.09-1.52-3.37-2.02-5-1.1-1.63.92-2.37,3.13-1.63,4.85.34.79.97,1.52.95,2.39-.01.56-.3,1.08-.64,1.52-1.12,1.43-2.86,2.21-4.53,2.94-1.35.59-2.72,1.18-4.18,1.35-1.06.13-2.15.03-3.18.29-1.86.47-3.15,1.77-4.4,3.21Z" style="fill: #fff;"/>
        <path d="M106.05,127.91c.11.17.23.35.41.42.17.06.35.03.53,0,1.03-.2,2.05-.39,3.08-.59.71-.13,1.41-.27,2.11-.46,1-.27,1.97-.64,2.99-.85.54-.11,1.11-.11,1.63-.25.65-.17,1.31-.58,1.93-.85.77-.34,1.54-.68,2.24-1.14.34-.23.71-.37.81-.77.03-.14-.14-1.36-.24-1.37-.75-.03-1.34.59-1.94,1.03-.53.39-1.15.67-1.77.9-1.47.55-3.01.89-4.55,1.22-1.49.32-2.98.65-4.46.97-1.07.23-2.44.18-3.43.65.18.37.45.73.67,1.08Z" style="fill: #8fc4de;"/>
        <path d="M94.08,104.88c.09.04.2.02.3,0,2.46-.55,4.83-1.45,7.04-2.67.73-.4,1.45-.85,2.07-1.4.63-.57,1.16-1.24,1.76-1.84.51-.51,1.07-.96,1.56-1.48.43-.46.8-.97,1.14-1.5.86-1.32,1.58-2.76,1.83-4.32.06-.39.08-.83-.17-1.13-.4-.46-1.21-.25-1.59.23s-.49,1.11-.69,1.69c-.36.99-1.03,1.84-1.7,2.66-1.54,1.89-3.14,3.76-5.01,5.33-1.18.99-2.49,1.86-3.9,2.5-.72.32-1.48.48-2.21.77-.32.13-1.06.94-.43,1.19Z" style="fill: #8fc4de;"/>
        <path d="M96.51,122.18c.87,1.81,2.01,3.47,3,5.22,1.43,2.54,2.55,5.25,3.38,8.05.19.65.43,1.39,1.05,1.68.4.19.87.14,1.31.08,2.69-.34,5.37-.68,8.06-1.02-.28-2.88-1.11-5.71-2.43-8.29-1.06.41-2.19.82-3.31.59-1.11-.23-2.1-1.41-1.7-2.47,5.52.18,11.08-1.46,15.62-4.6,1.04,6.58,2.08,13.15,3.12,19.73.15.97.3,2-.1,2.9-.71,1.59-2.74,2.02-4.48,2.2-7.93.86-15.91,1.12-23.88.8-4.1-.17-8.24-.49-12.29.19-4.05.68-8.09,2.52-10.49,5.84-1.83,2.53-2.55,5.67-3.24,8.72-.37,1.64-.55,3.74.88,4.61,1.47.89,3.21-.39,3.97-1.63,1.02-1.67,1.81-3.39,3.31-4.71,1.29-1.13,3.27-2.12,5.03-2.04,2,.09,3.95.85,6,.82,3.83-.06,7.24-2.3,10.9-3.43,7.79-2.4,16.09.33,24.18,1.35.93.12,1.82.05,2.73.26,1.01.23,2.04.36,3.08.33.27,0,.55-.03.8-.13.37-.15.64-.47.9-.78,1.21-1.44,2.03-2.76,2.42-4.6.38-1.82.21-3.72,0-5.54-.15-1.31-.36-2.62-.45-3.93-.07-1.02-.51-1.82-.81-2.8-.66-2.15-.83-4.42-.92-6.65-.13-3.03-.13-6.12-1.08-9.01-.26-.81-.6-1.59-.83-2.4-.22-.77-.34-1.56-.46-2.35-.28-1.83-.56-3.66-.84-5.49-.25-1.64-1.28-2.92-2.05-4.36-.68-1.27-1.32-2.55-1.89-3.87-.5-1.15-.94-2.33-1.57-3.42-.9-1.55-2.15-2.85-3.4-4.14-2.58-2.65-5.31-5.36-8.78-6.64-.16-.06-.33-.12-.5-.11-.54.03-.83.62-1.02,1.12-1.31,3.33-3.53,6.27-6.31,8.52-1.39,1.12-2.92,2.08-4.54,2.82-1.44.66-3.69.83-4.68,2.13-1.14,1.48-.23,5.56-.05,7.31.32,3.15.99,6.3,2.37,9.17Z" style="fill: #1f89bd;"/>
        <g>
          <path d="M137,185.27h-18.3c-23.74,0-24.83-22.19-24.83-22.19l72.85-.32s.72,10.09-9.97,18.16c0,0-4.53,2.33-4.53,8.23s.18,18.47.18,18.47c0,0-4.62,1.98-19.6,1.98s-21.18-1.98-21.18-1.98l8.7-22.36" style="fill: #fff;"/>
          <path d="M144.61,103.82h22.11v51.22c0,4.26-3.46,7.72-7.72,7.72h-7.83c-3.62,0-6.56-2.94-6.56-6.56v-52.38h0Z" transform="translate(311.34 266.58) rotate(180)" style="fill: #fff;"/>
          <path d="M70.54,85.85s9.53,24.14,23.96,6.06" style="fill: none; stroke: #2e3117; stroke-linecap: round; stroke-miterlimit: 10; stroke-width: 1.22px;"/>
          <path d="M103.33,91.33c-.95-.53-1.66-1.45-2.24-2.39-.62-1.02-1.12-2.3-2.04-3.08-1-.84-2.28-1.48-3.32-2.32-2.22-1.79-4.25-3.83-6.04-6.06,2.36-1.05,3.87-3.87,3.18-6.36-.89-3.22-5.7-5.01-7.26-1.27-.48,1.16-.31,2.57.44,3.58.34.46.81.86.95,1.42.23.9-.46,1.76-1.15,2.39-3.07,2.78-7.19,4.39-11.33,4.42-1.02,0-2.17-.02-2.88.71-.44.45-.59,1.1-.82,1.69-.55,1.39-1.86,2.65-3.35,2.51-1.44-.14-2.44-1.46-3.25-2.66-5.17-7.69-3.05-17.31,2.34-24.18,2.67-3.39,6.55-5.77,10.71-6.84,5.21-1.35,10.8-.76,15.86,1.05,1.75.63,3.47,1.41,4.95,2.54,2.53,1.93,4.68,4.71,5.57,7.8.43,1.5.55,3.07.97,4.57.29,1.06.76,2.1,1.57,2.84.81.74,2.03,1.1,3.04.67.5-.21.91-.59,1.39-.83,1.79-.88,4.11.62,4.46,2.58.35,1.96-.9,3.95-2.62,4.96-.52.3-1.16.68-1.11,1.28.03.35.31.61.53.88.78.91,1.17,2.14,1.04,3.33-.03.32-.11.66-.31.91-.91,1.15-2.89-.34-4.2.32-.77.39-1,1.38-1.01,2.25s.1,1.79-.32,2.55c-.61,1.1-2.16,1.4-3.33.92-.15-.06-.29-.13-.42-.2Z" style="fill: #4b4c4e; stroke: #2e3117; stroke-linecap: round; stroke-miterlimit: 10; stroke-width: 1.22px;"/>
          <path d="M72.37,89.58c7.32-2.15,13.91-6.68,18.54-12.73.87-1.13,1.69-2.37,1.93-3.78.21-1.27-.09-2.64-.9-3.64s-2.13-1.59-3.41-1.44c-2.18.26-3.72,2.89-2.86,4.91.39.93,1.2,1.8,1.02,2.8-.09.46-.38.85-.68,1.21-2.27,2.68-5.59,4.42-9.08,4.77-1.4.14-2.84.07-4.16.54-1.32.47-2.53,1.69-2.38,3.09" style="fill: #2e3138; opacity: .41;"/>
          <line x1="92.04" y1="94.64" x2="95.43" y2="98.22" style="fill: #4b4c4e; stroke: #2e3117; stroke-linecap: round; stroke-miterlimit: 10; stroke-width: 1.22px;"/>
          <g>
            <path d="M128.46,185.5c-.49,7.84-1.36,15.65-2.63,23.39-.02.11-.04.23-.12.31-.09.09-.22.1-.34.11-4.23.2-8.48-.15-12.62-1.03-.32-.07-.69-.19-.78-.51-.04-.14-.01-.3.01-.44.77-4.21,2.16-7.79,4.11-11.69.55-1.09,1.01-2.22,1.47-3.35.62-1.52,1.24-3.04,1.86-4.56.69-1.69.62-2.22,2.73-2.18.46,0,6.3.19,6.31-.05Z" style="fill: #2e3138; opacity: .05;"/>
            <path d="M144.61,103.82h22.11v51.22c0,4.26-3.46,7.72-7.72,7.72h-7.83c-3.62,0-6.56-2.94-6.56-6.56v-52.38h0Z" transform="translate(311.34 266.58) rotate(180)" style="fill: none; stroke: #2e3138; stroke-linecap: round; stroke-miterlimit: 10; stroke-width: 1.22px;"/>
            <path d="M146.27,105.36h18.8c.91,0,1.65-.74,1.65-1.65v-.4c0-2.16-1.75-3.92-3.92-3.92h-13.88c-2.38,0-4.32,1.93-4.32,4.32h0c0,.91.74,1.65,1.65,1.65Z" style="fill: #fff; stroke: #2e3138; stroke-linecap: round; stroke-miterlimit: 10; stroke-width: 1.22px;"/>
            <path d="M137,185.27h-18.3c-23.74,0-24.83-22.19-24.83-22.19l72.85-.32s.72,10.09-9.97,18.16c0,0-4.53,2.33-4.53,8.23s.18,18.47.18,18.47c0,0-4.62,1.98-19.6,1.98s-21.18-1.98-21.18-1.98l8.7-22.36" style="fill: none; stroke: #2e3138; stroke-linecap: round; stroke-miterlimit: 10; stroke-width: 1.22px;"/>
            <path d="M93.87,162.76h44.58c0-1.65-1.34-2.99-2.99-2.99h-38.72c-1.59,0-2.87,1.29-2.87,2.87v.11Z" style="fill: #717378; stroke: #2e3138; stroke-linecap: round; stroke-miterlimit: 10; stroke-width: 1.22px;"/>
            <path d="M158.44,112.54c0,1.53-1.24,2.77-2.77,2.77s-2.77-1.24-2.77-2.77,1.24-2.77,2.77-2.77,2.77,1.24,2.77,2.77Z" style="fill: none; stroke: #2e3138; stroke-linecap: round; stroke-miterlimit: 10; stroke-width: 1.22px;"/>
            <circle cx="157.44" cy="113.42" r="2.15" style="fill: #fff; stroke: #2e3138; stroke-linecap: round; stroke-miterlimit: 10; stroke-width: 1.22px;"/>
            <path d="M140.11,160.4h0c-1.2,0-2.17-.97-2.17-2.17v-50.68c0-1.2.97-2.17,2.17-2.17h0c1.2,0,2.17.97,2.17,2.17v50.68c0,1.2-.97,2.17-2.17,2.17Z" style="fill: #717378; stroke: #2e3138; stroke-linecap: round; stroke-miterlimit: 10; stroke-width: 1.22px;"/>
          </g>
          <path d="M95.43,98.63c.23,1.74-.7,3.27-1.16,4.97,2.94-1.31,5.87-2.74,8.34-4.81,2.47-2.07,4.47-4.85,5.02-8.02" style="fill: none; stroke: #2e3117; stroke-linecap: round; stroke-linejoin: round; stroke-width: 1.22px;"/>
          <path d="M101.72,116.3c1.58,4.14,3.16,8.27,4.74,12.41,4.95-1.21,9.83-2.73,14.6-4.53.27-.1.55-.21.71-.44.2-.27.19-.65.17-.99-.3-4.93-1.28-9.82-2.92-14.48" style="fill: none; stroke: #2e3117; stroke-linecap: round; stroke-linejoin: round; stroke-width: 1.22px;"/>
          <path d="M94.28,103.6s-2.23,11.09,2.89,19.1c3.52,5.5,7.07,14.79,7.07,14.79" style="fill: none; stroke: #2e3117; stroke-linecap: round; stroke-linejoin: round; stroke-width: 1.22px;"/>
          <path d="M121.76,124.61c1.05,3.64,3.18,13.39,3.1,17.14-.01.6-.04,1.23-.29,1.78-.32.7-.96,1.19-1.63,1.56-1.88,1.03-4.08,1.26-6.22,1.41-8.72.58-17.83.5-26.55-.07" style="fill: none; stroke: #2e3117; stroke-linecap: round; stroke-linejoin: round; stroke-width: 1.22px;"/>
          <path d="M108.87,90.29c4.3,1.1,7.56,3.25,10.6,6.47,3.04,3.23,5.31,7.12,7.02,11.22,3.13,7.49,4.45,15.6,5.43,23.66.55,4.54.23,5.01,1.51,9.98" style="fill: none; stroke: #2e3117; stroke-linecap: round; stroke-linejoin: round; stroke-width: 1.22px;"/>
          <path d="M111.42,128.05c.62,2.05,1.77,5.85,2.39,7.9" style="fill: none; stroke: #2e3117; stroke-linecap: round; stroke-linejoin: round; stroke-width: 1.22px;"/>
          <path d="M91.94,139.93c7.67-1.85,15.82-2.53,23.64-3.58" style="fill: none; stroke: #2e3117; stroke-linecap: round; stroke-linejoin: round; stroke-width: 1.22px;"/>
          <path d="M86.95,160.4c6.93,16.78,7.09,19.72,13.05,36.76" style="fill: none; stroke: #2e3117; stroke-linecap: round; stroke-linejoin: round; stroke-width: 1.22px;"/>
          <path d="M75.48,164.28c-.54,1.09,2.9,9.22,5.74,15.35,2.96,6.4,6.16,12.68,9.59,18.84.26.47.54.99.42,1.51-.09.38-.38.7-.68.96-3.05,2.63-8.53,1.92-11.16,4.92" style="fill: none; stroke: #2e3117; stroke-linecap: round; stroke-linejoin: round; stroke-width: 1.22px;"/>
          <path d="M77.57,205.59c-.56.49-1.36-.3-2.11-.32-.61,0-1.11.58-1.15,1.17s.3,1.17.75,1.58c.65.59,1.55.91,2.44.86.77-.05,1.49-.35,2.25-.46.93-.14,1.88.03,2.81.11,4.61.41,9.19-1.07,13.81-1.03,1.58.01,3.3.17,4.6-.72,1.34-.92,1.78-2.74,1.49-4.33s-1.18-2.99-2.04-4.36" style="fill: none; stroke: #2e3117; stroke-linecap: round; stroke-linejoin: round; stroke-width: 1.22px;"/>
          <path d="M91.94,139.93c-.71.18-1.45-.17-2.06-.59-.6-.42-1.17-.93-1.87-1.14-.49-.15-1.02-.15-1.53-.14-.57,0-1.27.1-1.49.62-.19.45.06,1.07-.3,1.39-.16.14-.39.17-.54.31-.23.21-.19.58-.23.89-.07.57-.43,1.06-.59,1.61-.29,1.02.16,2.09.6,3.06.08.19.18.38.34.5.15.1.34.13.52.15,1.74.18,3.5.15,5.23-.1" style="fill: none; stroke: #2e3117; stroke-linecap: round; stroke-linejoin: round; stroke-width: 1.22px;"/>
          <path d="M133.44,141.61c.89,2.07,1.23,5.1,1.45,7.33.24,2.4-1,4.67-2.2,6.76-.39.67-.81,1.38-1.49,1.73-1.38.72-2.94-.26-4.27-.65-1.48-.43-3.02-.67-4.53-.93-3.26-.56-6.55-.95-9.85-1.07-6.58-.24-13.38.58-19.31,3.63-1.2.62-3.07.31-4.41.37-3.1.12-4.57-1.55-7.7-.16-2.48,1.11-4.57,3.14-5.64,5.65-.26.62-.48,1.28-.91,1.8-.68.82-1.88,1.16-2.89.81s-1.75-1.35-1.78-2.41c-.02-.61.17-1.2.36-1.78,1.1-3.37,1.09-6.67,3.27-9.71,2.01-2.8,6.96-4.94,10.31-5.75" style="fill: none; stroke: #2e3117; stroke-linecap: round; stroke-linejoin: round; stroke-width: 1.22px;"/>
          <path d="M89.02,162.76c1.86,4.9,13.03,28.46,13.94,30.01.86,1.46,1.97,2.81,2.37,4.5.57,2.42-.63,5.2-2.69,6.23" style="fill: none; stroke: #2e3117; stroke-linecap: round; stroke-linejoin: round; stroke-width: 1.22px;"/>
          <path d="M102.85,134.62c-3.79,1.68-7.72,3.06-11.72,4.14-1.21-1.48-3.44-2.01-5.19-1.24" style="fill: none; stroke: #2e3117; stroke-linecap: round; stroke-linejoin: round; stroke-width: 1.22px;"/>
          <path d="M89.02,162.76c.8-.23,4.14-.66,4.86-1.08" style="fill: none; stroke: #2e3117; stroke-linecap: round; stroke-linejoin: round; stroke-width: 1.22px;"/>
          <path d="M130.16,157.54c-.34.74-.7,1.47-1.1,2.19" style="fill: none; stroke: #2e3117; stroke-linecap: round; stroke-linejoin: round; stroke-width: 1.22px;"/>
          <path d="M109.95,90.71c-1.88,7.36-8.39,13.31-15.88,14.52" style="fill: none; stroke: #2e3117; stroke-linecap: round; stroke-linejoin: round; stroke-width: 1.22px;"/>
          <path d="M106.25,126.55c.66-.67,1.12-.4,2.06-.51,1.4-.18,2.8-.4,4.2-.66,3.14-.6,6.39-1.49,8.74-3.66" style="fill: none; stroke: #2e3117; stroke-linecap: round; stroke-linejoin: round; stroke-width: 1.22px;"/>
          <path d="M79.01,96.95c.02-.44.4-.81.83-.93.43-.12.88-.04,1.31.1" style="fill: none; stroke: #2e3117; stroke-linecap: round; stroke-linejoin: round; stroke-width: 1.22px;"/>
          <path d="M82.11,94.45c.86-.13,1.71.76,1.54,1.61" style="fill: none; stroke: #2e3117; stroke-linecap: round; stroke-linejoin: round; stroke-width: 1.22px;"/>
          <path d="M93.58,130.96c-2.03-2.1-4.41-4.36-7.33-4.29-2.08.05-4.21,1.3-6.12.48-1.35-.58-2.08-2.01-2.98-3.18-3.16-4.14-9.6-5.31-14.01-2.54" style="fill: none; stroke: #2e3117; stroke-linecap: round; stroke-linejoin: round; stroke-width: 1.22px;"/>
          <path d="M89.72,133.28c-1.1-.63-2.29-1.29-3.55-1.16-1.4.14-2.51,1.18-3.58,2.1-1.07.92-2.38,1.81-3.77,1.55-1.05-.2-1.85-1.01-2.7-1.64s-2.02-1.13-2.95-.61c-1.04.57-1.17,2.02-1.93,2.93-1.18,1.43-3.41,1.15-5.22.75" style="fill: none; stroke: #2e3117; stroke-linecap: round; stroke-linejoin: round; stroke-width: 1.22px;"/>
          <path d="M103.67,74.37c.89.2,1.35,1.23,2.18,1.62.69.33,1.52.15,2.21-.16" style="fill: none; stroke: #2e3138; stroke-linecap: round; stroke-miterlimit: 10; stroke-width: 1.22px;"/>
          <path d="M101.71,83.71c.54-.01.95.49,1.18.99.27.57.42,1.2.46,1.84" style="fill: none; stroke: #2e3138; stroke-linecap: round; stroke-miterlimit: 10; stroke-width: 1.22px;"/>
          <path d="M95.7,76.42c1.09.28,1.96,1.25,2.14,2.36" style="fill: none; stroke: #2e3138; stroke-linecap: round; stroke-miterlimit: 10; stroke-width: 1.22px;"/>
          <path d="M88.87,57.79c.77-.1,1.56-.14,2.32.01.76.15,1.5.52,1.98,1.14.42.54.62,1.23,1.11,1.72.48.49,1.18.68,1.77,1.02.6.34,1.15.96,1.01,1.63" style="fill: none; stroke: #2e3138; stroke-linecap: round; stroke-miterlimit: 10; stroke-width: 1.22px;"/>
          <path d="M66.8,79.4c-1.06-.59-1.22-2.07-.94-3.25.28-1.18.85-2.32.77-3.53-.04-.69-.3-1.34-.42-2.02-.19-1.12,0-2.3.54-3.29" style="fill: none; stroke: #2e3138; stroke-linecap: round; stroke-miterlimit: 10; stroke-width: 1.22px;"/>
          <path d="M76.47,75.4c-.89-.69-1.35-1.88-1.18-2.99.09-.56.33-1.11.23-1.67" style="fill: none; stroke: #2e3138; stroke-linecap: round; stroke-miterlimit: 10; stroke-width: 1.22px;"/>
          <path d="M80.66,72.09s-.07-.04-.09,0,0,.08,0,.11c.38,1.01,1.39,1.62,2.33,2.15" style="fill: none; stroke: #2e3138; stroke-linecap: round; stroke-miterlimit: 10; stroke-width: 1.22px;"/>
          <path d="M110.25,41.24c.51-1.63,2.28-2.56,3.02-4.1,1.14-2.4-.56-5.12-2.23-7.18-1.67-2.06-3.5-4.63-2.6-7.13.34-.94,1.03-1.71,1.81-2.33,2.64-2.14,6.54-2.8,9.55-1.22,3.01,1.58,4.68,5.53,3.34,8.65-.75,1.74-2.24,3.03-3.47,4.47-1.23,1.44-2.28,3.31-1.85,5.15.3,1.3,1.28,2.32,2.02,3.43.74,1.11,1.26,2.6.59,3.76-.36.61-1.02,1.05-1.19,1.74-.37,1.48,1.39,2.25,1.64,3.55.3,1.55-.24,3.77-1.05,5.09-1.26,2.06-3.79,3.18-4.77,5.38.73-.82,1.4-1.72,1.74-2.76.88-2.72-.73-7.71-2.65-9.79-1.68-1.82-4.82-3.75-3.89-6.72Z" style="fill: #fff; stroke: #2e3117; stroke-linecap: round; stroke-linejoin: round; stroke-width: 1.22px;"/>
        </g>
      </g>
      <rect width="228" height="228" style="fill: none;"/>
    </g>
  </g>
</svg>