<?xml version="1.0" encoding="UTF-8"?>
<svg id="_圖層_2" data-name="圖層 2" xmlns="http://www.w3.org/2000/svg" viewBox="0 0 228 228">
  <g id="_圖層_1-2" data-name="圖層 1">
    <g>
      <path d="M67.35,183.81c0,.84.04,1.81.7,2.33.48.38,1.13.4,1.73.43,4.67.24,9.27,1.81,13.11,4.48.32-1.27.45-2.58.57-3.89.85-9.02,1.71-18.13.52-27.11-.04-.29-.09-.6-.29-.81-.21-.23-.55-.29-.86-.34-2.71-.41-5.43-.77-8.15-1.06-1.49-.16-6-1.36-6.94-.03-.51.71-.18,2.53-.18,3.35-.01,1.47-.03,2.93-.04,4.4-.03,2.83-.05,5.65-.08,8.48-.03,3.26-.06,6.52-.09,9.78Z" style="fill: #fff;"/>
      <path d="M146.16,156.28c.94,2.29,1.24,4.84.87,7.28-.3,1.97-1.02,3.84-1.64,5.73-2.6,7.92-3.48,16.39-2.56,24.68,3.66-1.39,7.76-.43,11.66-.8.25-.02.51-.06.71-.21.26-.2.35-.55.43-.87.41-1.81.81-3.62,1.22-5.44.36-1.62.73-3.24.92-4.89.18-1.5.21-3,.25-4.51.15-6.28.43-12.57.46-18.86.01-2.54-.4-3.7-3.12-3.36-3.07.38-6.13.83-9.19,1.25Z" style="fill: #fff;"/>
      <path d="M151.85,151.89c-1.77.19-3.57.3-5.28.83-.16.05-.35.12-.42.28-.05.12-.02.27.01.4l.63,2.54c4.56.43,9.14-.43,13.59-1.5,1.04-.25,2.11-.53,2.97-1.16.18-.13.36-.29.43-.51.05-.16.04-.33.02-.5-.06-.76.15-2.35-.76-2.63-.84-.26-2.36.54-3.16.75-2.64.7-5.32,1.19-8.03,1.49Z" style="fill: #8fc4de;"/>
      <path d="M64.18,152.92c-.02,1.13-.07,2.27-.17,3.4,2.26.4,4.51.79,6.79,1.02,1.06.1,2.13.17,3.18.32.96.13,1.9.34,2.85.52,1.98.39,4,.69,6.01.57.2-.01.43-.04.55-.2.08-.11.09-.25.1-.38.04-.59.14-1.46-.11-2.02-.18-.4-.57-.42-.96-.46-1.48-.13-2.95-.25-4.42-.42-2.98-.34-5.95-.78-8.91-1.33-.44-.08-4.93-.82-4.92-1.01Z" style="fill: #8fc4de;"/>
      <path d="M135.87,117.85c-.96,2.55-2.97,4.69-5.45,5.81-1.86.85-3.92,1.13-5.95,1.4-2.3.31-4.59.61-6.89.92-4.96.66-10.04,1.32-14.92.26-2.67-.58-5.26-1.75-7.37-3.5-1.03-.86-1.95-1.86-2.67-3-.25-.39-.57-1.51-.92-1.75-.82-.54-2.99.05-3.86.22-1.57.3-3.13.7-4.65,1.2-3.04,1.01-5.94,2.42-8.61,4.2-1.68,1.12-3.36,2.51-4.27,4.35-.94,1.89-1.37,4.36-1.8,6.42-.32,1.55-4.39,19.01-4.34,19.02,6.32,1.65,12.86,2.45,19.39,2.36,1.34,5.46.95,11.53.81,17.11-.16,6.04-.65,12.08-1.47,18.06,2.59,1.75,5.8,2.37,8.93,2.42,3.13.05,6.24-.42,9.35-.67,7.96-.63,15.99.21,23.8,1.88,4.81,1.03,9.77,2.37,14.57,1.32.58-.13,1.18-.3,1.65-.67.64-.5.97-1.29,1.2-2.07,1.48-4.98-.23-10.42.8-15.51.51-2.5,1.65-4.82,2.28-7.29,1.24-4.94,1.4-10.91,1.04-15.95-.02-.25-.03-.52.13-.71.19-.24.55-.26.86-.26,2.46,0,4.87-.61,7.25-1.21,2.97-.75,5.94-1.5,8.91-2.24.02,0-1.91-8.67-2.05-9.4-.8-4.15-2-8.34-4.55-11.71-2.31-3.06-5.59-5.25-8.96-7.06-3.78-2.03-7.78-3.68-11.9-4.89" style="fill: #1f89bd;"/>
      <path d="M145.9,67.79c1.03-.4,2.24.23,2.84,1.16.6.93.73,2.08.81,3.19.12,1.73.12,3.52-.55,5.11-.67,1.59-2.18,2.95-3.91,2.95" style="fill: #fff; stroke: #2e3138; stroke-linecap: round; stroke-linejoin: round; stroke-width: 1.81px;"/>
      <g>
        <path d="M91.99,68.03c-.48,1.32-.71,2.75-1.51,3.89-.76,1.08-4.13-.24-5.54.75-.89.62-1.34,1.71-1.51,2.78-.23,1.37-.06,2.8.45,4.1.24.62.55,1.19.97,1.7.49.6.87,1.29,1.38,1.88.45.53.96,1.03,1.57,1.37.42.23.89.37,1.36.47,1.05.23,2.16.28,3.21.04.27-.06.53-.14.81-.13.86.04.8,1.19.93,1.84.19.89.37,1.79.56,2.68.37,1.79.74,3.57,1.11,5.36.66,3.18,1.32,6.36,1.98,9.54.26,1.26.52,2.51.69,3.78.3,2.31.26,4.65.23,6.98,0,.24-4.08,1.58-4.52,1.77-1.71.71-2.97,1.37-1.34,3.17,6.19,6.86,16.19,7.03,24.74,6.66,2.58-.11,5.18-.36,7.64-1.16,3.76-1.22,7.02-3.69,9.72-6.59,1.77-1.9-.95-2.45-2.39-2.97-.93-.34-1.89-.6-2.78-1.02-.78-.37-1.95-1.04-2.13-1.94-.2-1.04.27-2.66.37-3.73.07-.78.23-7.45.7-7.61,4.23-1.37,8.65-3.94,11.26-7.54,2.13-2.93,3.09-6.52,4.02-10.02.58-2.18,1.15-4.35,1.73-6.53.68-2.58.66-5.26.37-7.89-.28-2.61-.46-5.82-1.31-8.3-.58-1.7-3.01-3.49-4.59-4.76-1.94-1.55-4.06-2.88-6.3-3.94-5.42-2.57-11.58-3.6-17.52-2.8-5.94.8-11.65,3.42-16.04,7.51-2.14,1.99-3.96,4.3-5.76,6.6-.91,1.16-1.83,2.34-2.4,3.7-.05.12-.1.25-.14.37Z" style="fill: #fff;"/>
        <path d="M96.02,117.22c.66.49.98,1.3,1.45,1.97.46.65,1.08,1.17,1.74,1.6,2.82,1.82,6.36,2,9.72,2.03,6.29.05,12.72-.27,18.59-2.54.65-.25,1.31-.54,1.8-1.04.62-.64.88-1.54,1.31-2.32s1.21-1.52,2.09-1.39c.74.11,1.29.79,2.02.92.32.06.7.02.91.27.22.25.12.63,0,.94-1.14,2.92-3.52,5.33-6.43,6.51-1.92.77-4,1.02-6.05,1.26-2.66.31-5.32.62-7.98.93-1.55.18-3.1.36-4.66.43-3.48.16-6.98-.23-10.35-1.14-1.6-.44-3.2-1.01-4.51-2.03-1.4-1.1-3.18-3.25-3.58-5.03-.43-1.9,2.77-2.22,3.93-1.36Z" style="fill: #8fc4de;"/>
        <path d="M84.87,72.01c-.14,0-.28,0-.4-.08-.13-.08-.2-.22-.26-.36-2.35-5.32-2.41-11.5-.67-17.05,1.74-5.55,5.19-10.47,9.45-14.42,1.36-1.26,2.8-2.42,4.4-3.36,2.17-1.27,4.56-2.08,6.96-2.82,4.07-1.24,8.27-2.28,12.53-2.22,6.75.09,13.23,2.95,18.7,6.9,2.12,1.53,4.14,3.26,5.58,5.44,1.62,2.45,2.41,5.34,3.18,8.17.75,2.76,1.5,5.67.76,8.43-4.15-4.09-8.95-7.62-14.4-9.68-5.45-2.07-11.58-2.6-17.13-.83-2.26.72-4.38,1.8-6.43,2.99-2.62,1.52-5.14,3.23-7.52,5.1-2.26,1.78-4.43,3.72-6.08,6.08-.7,1-1.3,2.07-1.76,3.19-.47,1.16-.5,2.47-.95,3.59-.72,1.81-4.43.94-5.97.92Z" style="fill: #ff6d04;"/>
        <path d="M90.45,85.67c-.7-.06-1.72-.47-2.1.28-.31.63.57,2.13.9,2.63.63.95,1.51,1.54,2.28,2.33.72.73,1.26,1.5,2.16,2.07.48.3,1.1.61,1.59.33.08-.04.15-.1.18-.18.03-.07.04-.15.04-.22.02-.72-.15-1.42-.33-2.12-.28-1.1-.57-2.19-.86-3.29-.12-.47-.25-.94-.42-1.4-.1-.27-.35-1.11-.68-1.17-.27-.05-1,.49-1.28.6-.45.17-.97.18-1.49.14Z" style="fill: #ff6d04;"/>
        <g>
          <path d="M84.41,77.37c.19-.51-.48-3.48-.29-4-2.99-7.62-2.66-16.49.91-23.86,3.56-7.37,10.29-13.15,18.12-15.54,9.58-2.93,19.06-2.62,28.11,1.68,2.45,1.17,5.93,4.31,7.81,6.27,1.64,1.72,2.8,3.85,3.71,6.05,2.08,5.04,2.94,10.58,2.46,16.01" style="fill: none; stroke: #2e3138; stroke-linecap: round; stroke-linejoin: round; stroke-width: 1.81px;"/>
          <path d="M99.77,43.83c-1.57,2.54-3.15,5.08-4.72,7.61-4.82,7.78-9.75,15.85-11.01,24.91" style="fill: none; stroke: #2e3138; stroke-linecap: round; stroke-linejoin: round; stroke-width: 1.81px;"/>
          <path d="M88.92,88.8c.81.73,3.13,4.47,5.17,4.47" style="fill: none; stroke: #2e3138; stroke-linecap: round; stroke-linejoin: round; stroke-width: 1.81px;"/>
          <path d="M82.43,73.21c-1.13.23-2.32.5-3.18,1.27-.55.49-.92,1.15-1.21,1.83-.65,1.51-.94,3.14-1.19,4.76-.95,6.28-1.15,12.7-2.75,18.84-.33,1.28-.73,2.55-.93,3.86-.17,1.1-.2,2.21-.23,3.32-.03.95-.06,1.9-.08,2.85,1.12-1.62,1.89-3.01,3-4.64" style="fill: #ff6d04; stroke: #2e3138; stroke-linecap: round; stroke-linejoin: round; stroke-width: 1.81px;"/>
          <path d="M78.54,91.67c-.41,4.09-1.61,8.06-2.35,12.1s-.98,8.32.45,12.17c-.16-2.15,1.68-3.85,3.22-5.36,1.64-1.62,3.1-3.4,4.55-5.19,1.2-1.47,2.41-2.96,3.22-4.68,1.51-3.2,1.07-6.37,1.02-9.77-.05-3.45-.71-6.88-1.94-10.1-.44-1.15-.97-2.29-1.77-3.23-.5-.58-1.13-1.11-1.37-1.84-.29-.86.01-1.83-.3-2.68.05.14-2.24,2.38-2.45,2.61-.39.43-.78.87-1.1,1.36-1.2,1.84-1.15,4.54-1.13,6.66.02,2.65.22,5.3-.05,7.94Z" style="fill: #ff6d04; stroke: #2e3138; stroke-linecap: round; stroke-linejoin: round; stroke-width: 1.81px;"/>
          <path d="M83.6,76.63c-1.38,2.63-1.54,5.73-1.39,8.71.09,1.78.28,3.62-.29,5.32" style="fill: none; stroke: #2e3138; stroke-linecap: round; stroke-linejoin: round; stroke-width: 1.81px;"/>
          <path d="M85.43,71.24c4.85-8.83,11.64-16.6,19.74-22.59,3.1-2.29,6.68-4.41,10.53-4.16" style="fill: none; stroke: #2e3138; stroke-linecap: round; stroke-linejoin: round; stroke-width: 1.81px;"/>
        </g>
        <g>
          <path d="M93.55,84.46c-.98.82-2.34,1.12-3.61.94-1.27-.19-2.44-.83-3.4-1.67-2.46-2.18-3.5-5.84-2.55-8.98.19-.62.46-1.23.92-1.68.77-.73,1.93-.86,2.98-.75.93.1,1.84.36,2.69.78,0,0,1.34,4.82,0,0-1.67-6,13.49-24.2,30.64-23.67,17.15.53,23.45,11.65,23.45,11.65,0,0,6.86,43.02-22.48,40.37" style="fill: none; stroke: #2e3138; stroke-linecap: round; stroke-miterlimit: 10; stroke-width: 1.81px;"/>
          <path d="M93.1,79.76s6.31,30.72,5.33,35.74" style="fill: none; stroke: #2e3138; stroke-linecap: round; stroke-miterlimit: 10; stroke-width: 1.81px;"/>
          <circle cx="134.01" cy="69.18" r="2.09" style="fill: #2e3138;"/>
          <path d="M113.01,69.18c0,1.15-.93,2.09-2.09,2.09s-2.09-.93-2.09-2.09.93-2.09,2.09-2.09,2.09.93,2.09,2.09Z" style="fill: #2e3138;"/>
          <path d="M118.49,52.94c1.24.2,2.51.19,3.75-.02" style="fill: none; stroke: #2e3138; stroke-linecap: round; stroke-miterlimit: 10; stroke-width: 1.81px;"/>
          <path d="M117.51,56.77c1.88.32,3.82.34,5.71.05" style="fill: none; stroke: #2e3138; stroke-linecap: round; stroke-miterlimit: 10; stroke-width: 1.81px;"/>
          <path d="M122.48,69.98c.55,1.77,1.35,3.45,2.37,5,.49.75,1.06,1.55,1.01,2.44-.04.82-.6,1.54-1.29,2-1,.66-2.42.82-3.35.06" style="fill: none; stroke: #2e3138; stroke-linecap: round; stroke-miterlimit: 10; stroke-width: 1.81px;"/>
          <path d="M120.09,87.44c1.6.84,4.06.91,5.77.17" style="fill: none; stroke: #2e3138; stroke-linecap: round; stroke-miterlimit: 10; stroke-width: 1.81px;"/>
          <path d="M121.69,92.95h3.06" style="fill: none; stroke: #2e3138; stroke-linecap: round; stroke-miterlimit: 10; stroke-width: 1.81px;"/>
          <path d="M113.23,81.58c-.71.59-1.2,1.44-1.35,2.35" style="fill: none; stroke: #2e3138; stroke-linecap: round; stroke-miterlimit: 10; stroke-width: 1.81px;"/>
          <path d="M130.19,81.69c1.54.06,2.99,1.16,3.47,2.62" style="fill: none; stroke: #2e3138; stroke-linecap: round; stroke-miterlimit: 10; stroke-width: 1.81px;"/>
          <line x1="128.95" y1="102.38" x2="127.84" y2="115.5" style="fill: none; stroke: #2e3138; stroke-linecap: round; stroke-miterlimit: 10; stroke-width: 1.81px;"/>
          <path d="M88.92,77.1c-.1-.56-.86-.81-1.36-.54-.5.28-.7.92-.63,1.48.08.56.39,1.07.72,1.53" style="fill: none; stroke: #2e3138; stroke-linecap: round; stroke-miterlimit: 10; stroke-width: 1.81px;"/>
          <path d="M97.93,115.4c-3.51,1.15-3.75.65-7.06,2.3" style="fill: none; stroke: #2e3138; stroke-linecap: round; stroke-miterlimit: 10; stroke-width: 1.81px;"/>
          <path d="M128.39,114.18s11.91,3.69,13.31,4.74" style="fill: none; stroke: #2e3138; stroke-linecap: round; stroke-miterlimit: 10; stroke-width: 1.81px;"/>
          <path d="M95.3,116.21c.77,1.4,1.57,2.83,2.77,3.89,1.14,1.01,2.58,1.62,4.03,2.07,6.4,1.98,13.29,1.03,19.92.07,2.62-.38,5.44-.86,7.3-2.75,1.04-1.06,1.66-2.45,2.25-3.81" style="fill: none; stroke: #2e3138; stroke-linecap: round; stroke-miterlimit: 10; stroke-width: 1.81px;"/>
          <path d="M91.31,118.02c.94,1.71,1.92,3.45,3.38,4.75,1.39,1.23,3.14,1.98,4.92,2.53,7.81,2.41,16.22,1.26,24.3.09,3.2-.46,6.64-1.05,8.9-3.35,1.27-1.29,2.02-2.99,2.74-4.65" style="fill: none; stroke: #2e3138; stroke-linecap: round; stroke-miterlimit: 10; stroke-width: 1.81px;"/>
          <path d="M141.76,118.85c3.28,1.52,6.47,3.24,9.54,5.14,1.36.85,2.72,1.74,3.81,2.91,1.12,1.19,1.94,2.63,2.69,4.09,3.21,6.22,5.34,14.74,6.28,21.68" style="fill: none; stroke: #2e3138; stroke-linecap: round; stroke-miterlimit: 10; stroke-width: 1.81px;"/>
          <path d="M83.68,158.84c-4.87.26-14.98-1.47-19.76-2.47.4-4.27,1.09-8.54,1.88-12.76.51-2.73,1.08-5.45,1.81-8.13.61-2.23,1.22-4.96,2.63-6.8,1.59-2.08,3.34-4.07,5.44-5.64,4.37-3.25,9.9-4.39,15.25-5.45" style="fill: none; stroke: #2e3138; stroke-linecap: round; stroke-miterlimit: 10; stroke-width: 1.81px;"/>
          <path d="M164.08,152.67c-5.56,2.73-11.27,3.37-17.46,3.71" style="fill: none; stroke: #2e3138; stroke-linecap: round; stroke-miterlimit: 10; stroke-width: 1.81px;"/>
          <path d="M144.42,146.24c1.39,4.64,2.13,9.48,2.17,14.32.02,2.33-.11,4.67-.54,6.95-.53,2.84-1.51,5.57-2.17,8.38-1.45,6.15-1.36,12.55-1.27,18.86" style="fill: none; stroke: #2e3138; stroke-linecap: round; stroke-miterlimit: 10; stroke-width: 1.81px;"/>
          <path d="M83.01,149.51c1.75,13.68,1.79,27.58.12,41.27" style="fill: none; stroke: #2e3138; stroke-linecap: round; stroke-miterlimit: 10; stroke-width: 1.81px;"/>
          <path d="M158.76,155.57c-.15,12.51-1.07,25-2.75,37.4" style="fill: none; stroke: #2e3138; stroke-linecap: round; stroke-miterlimit: 10; stroke-width: 1.81px;"/>
          <path d="M68.05,157.93v27.13" style="fill: none; stroke: #2e3138; stroke-linecap: round; stroke-miterlimit: 10; stroke-width: 1.81px;"/>
        </g>
        <path d="M64.61,152.85c6.34,1.36,12.25,2.22,18.7,2.8" style="fill: none; stroke: #2e3138; stroke-linecap: round; stroke-miterlimit: 10; stroke-width: 1.81px;"/>
        <path d="M146.53,153.01c5.7-.12,11.37-1.32,16.62-3.53" style="fill: none; stroke: #2e3138; stroke-linecap: round; stroke-miterlimit: 10; stroke-width: 1.81px;"/>
      </g>
      <path d="M145.58,71.6c.32.12.65.23.97.35.14.05.28.1.38.22.21.25.07.67.26.94" style="fill: none; stroke: #2e3138; stroke-linecap: round; stroke-linejoin: round; stroke-width: 1.81px;"/>
    </g>
    <rect width="228" height="228" style="fill: none;"/>
  </g>
</svg>