<?xml version="1.0" encoding="UTF-8"?>
<svg id="_圖層_2" data-name="圖層 2" xmlns="http://www.w3.org/2000/svg" viewBox="0 0 228 228">
  <g id="_圖層_1-2" data-name="圖層 1">
    <g>
      <g>
        <path d="M48.76,101.42c-.59-.01-1.27,0-1.65.46-.21.25-.28.57-.35.89-.24,1.21-.34,2.53.26,3.61.6,1.08,2.32,1.3,3.29.55.81,4.36.44,9.23.23,13.66-.47,10.4-.48,20.65.21,31.04.13,2.05-.29,4.37-.16,6.42.06.89.16,1.78.18,2.68.03.98-.03,1.97-.09,2.95-.11,1.88-.23,3.77-.34,5.65-.19,3.15.14,6.69.14,9.85,0,4.57-.3,9.42.04,13.98.11,1.41.27,2.82.5,4.22,1.03.07,2.06.13,3.09.2,1.03-3.41.7-6.95,2.26-10.16.1-.21-.04-.72.16-.85.23-.16.53-.17.8-.18,6.61-.17,13.23-.11,19.83.2,5.06.23,10.15.61,15.17-.03,7.1-.9,15.84.12,22.99.43,4.4.19,7.19-.04,11.6-.06,2.16-.01,4.31-.13,6.47-.24-.07,0,1.54,5.04,1.66,5.47.25.91.2,1.95.4,2.89.2.99.49,1.97.86,2.92,1.33.05,2.66.04,3.99-.05-.25-1.82-.51-3.67-.33-5.5.1-1.03.34-2.04.42-3.07.07-.94.01-1.88-.03-2.83-.09-2.07-.09-4.15-.1-6.23,0-1.31-.35-2.49-.37-3.79-.02-1.22.31-2.41.45-3.62.38-3.15-.44-6.32-.42-9.49,0-1.43.19-2.86.07-4.28-1.04-.1-2.08-.2-3.13-.31-.94-.09-1.96.03-2.82-.43-.83-.45-1.47-1.24-1.67-2.17-.11-.51-.09-1.03-.08-1.54.05-1.92.08-3.84.08-5.75.01-4.79-.42-9.63-.36-14.43.05-4,.18-7.93.22-11.94.04-3.79-.29-7.57-.37-11.35-.08-3.58-.1-7.12-.92-10.63-.96.44-2.05.4-3.1.37-1.54-.05-3.07-.06-4.61-.04-.22,0-.45,0-.64.11-.61.32-.4,1.39-1.17,1.85-.51.31-1.12.41-1.72.48-8.28,1.08-16.64-.55-24.96-1.21-.51-.04-1.04-.08-1.54.03-.64.14-1.2.5-1.78.8-1.73.91-3.72,1.32-5.67,1.18-.35-.02-.72-.08-.98-.3-.26-.23-.34-.69-.07-.91.15-.13.37-.14.57-.15.92-.08,1.82-.41,2.57-.95.4-.29.79-.84.48-1.23-.11-.13-.28-.2-.44-.25-1.49-.43-3.03.5-4.19,1.54-1.16,1.04-2.27,2.28-3.79,2.63-.18.04-.4.06-.51-.09-.1-.13-.06-.31-.02-.47.53-2.8-3.67-1.9-5.36-1.94-2.78-.06-5.56-.13-8.34-.19-5.64-.13-11.27-.26-16.91-.38Z" style="fill: #ff6d04;"/>
        <path d="M131.76,154.9c-10.29.34-62.32-.06-77.78-.06l.09-20.41h77.2l.5,20.46Z" style="fill: #ffb681;"/>
        <path d="M131.26,158.39H54.06l-.09,20.41c15.47,0,71.63.4,81.92.06l.12-20.46h-4.75Z" style="fill: #ffb681;"/>
        <path d="M61.26,110.34c-2.45,0-4.92-.02-7.34.41.11,8.15-.49,13.21.05,20.13,17.92,0,35.14.61,53.05.61,8.15,0,16.3,0,24.43-.57.13-4.48.27-8.95.4-13.43.04-1.34.73-5.65-.33-6.65-1.03-.96-5.08-.25-6.43-.26-5.16-.02-10.31-.04-15.47-.06-10.31-.04-20.62-.08-30.94-.12-5.81-.02-11.61-.04-17.42-.07Z" style="fill: #ffb681;"/>
        <path d="M158.14,57.82c-.34.46-.66.94-1.05,1.35-1.5,1.59-3.79,2.13-5.53,3.45-.16.12-.32.26-.4.45-.08.19-.04.44.13.54.14.09.32.05.48.01,1.01-.27,1.93-.78,2.84-1.29,1.01-.57,2.02-1.14,2.98-1.79.78-.53,1.54-1.15,1.98-1.98.22-.42.35-.89.37-1.36.03-.5-.08-1.23-.53-1.54-.39.77-.75,1.46-1.27,2.17Z" style="fill: #8fc4de;"/>
        <path d="M117.34,86.41c-.76.1-1.54.09-2.3.14-1.04.08-2.06.28-3.09.48-.11.02-.23.05-.32.12-.14.12-.17.33-.13.51.1.41.5.69.91.77.41.08.84,0,1.25-.07,1.02-.18,2.04-.37,3.06-.55.71-.13,1.42-.26,2.13-.43,1.02-.25,2.02-.6,3.02-.96.26-.09.54-.2.73-.4.19-.2.28-.54.12-.77-.5-.72-1.77.07-2.3.28-.99.4-2.01.74-3.08.87Z" style="fill: #8fc4de;"/>
        <path d="M131.78,44.62c2.91.31,5.83-.43,8.76-.49,2.27-.04,4.53.32,6.77.68.94.15,1.89.31,2.76.69.72.32,1.37.78,1.99,1.27,2.78,2.18,5.19,4.84,7.06,7.84.17.27.34.57.28.88-.04.22-.18.41-.33.58-1.85,2.2-4.27,3.82-6.58,5.53-.67.49-1.39,1.08-1.52,1.9-.23,1.37,1.27,2.5,1.31,3.89-5.09-1.46-10.13-3.04-15.14-4.76-.63,0-1.55-.51-2.16-.7-.73-.23-1.46-.47-2.19-.71-1.39-.48-2.77-.96-4.13-1.51-.14-.06-.28-.12-.38-.23-.14-.16-.15-.4-.08-.6.07-.2.2-.37.34-.53.57-.67.97-1.22,1.17-2.09.23-1.01.46-2.02.67-3.04.15-.71,1.51-8.59,1.4-8.6Z" style="fill: #1f89bd;"/>
        <path d="M113.16,62.3c-.7,2.29-3.42,3.42-4.34,5.63-.54,1.28-.39,2.73-.21,4.1.65,5,1.63,9.95,2.92,14.82,3.14-.42,6.26-1.03,9.32-1.84,1.76-.47,2.13,0,3.27,1.27,1.06,1.19,2,2.48,2.84,3.83,1.69,2.72,2.97,5.69,3.98,8.72.62,1.84,1.15,3.74,1.23,5.68.12,3.08-.93,6.19-.35,9.22.9,4.72-.22,10.1.11,14.89.16,2.26.39,4.51.48,6.77.27,6.76-.63,13.58-.15,20.33.05.78.2,1.66.85,2.08.3.2.67.26,1.03.32,6.5,1.1,13.22,1.9,19.8,2.29,6.98.41,14.09-.11,20.71-2.38.44-.15.89-.32,1.2-.67.44-.5.47-1.22.46-1.88-.13-6.04-2.08-11.88-2.99-17.86-.66-4.29-1.03-8.78-.63-13.08.35-3.79.25-7.58.39-11.37.15-3.86-.15-7.74-.88-11.53-.25-1.29-.55-2.57-.97-3.81-.44-1.32-1.01-2.59-1.58-3.85-1.84-4.09-3.57-8.24-5.51-12.28-.35-.73-.55-1.52-.95-2.23-.26-.46-.8-1.42-1.43-1.31-.71.12-1.27,1.26-1.92,1.59-1.16.6-2.52.76-3.78.93-.74.1-1.49.21-2.24.22-4.03.08-7.78-2.46-11.24-4.24-2.65-1.36-4.91-3.09-7.35-4.58-4.17-2.54-8.37-4.99-12.38-8.12-.51.09-1.56.34-2.07.43-.54.09-1.08.18-1.62.12-1.07-.13-1.96-.83-2.86-1.43-.9-.6-2.09-1.07-3.13-.77Z" style="fill: #1f89bd;"/>
        <g>
          <path d="M111.52,93.93c-.72.56-1.66.76-2.56.94-2.54.49-5.1.93-7.66,1.31-1.98.29-3.99.56-5.97.32-2.17-.26-4.29-1.11-6.46-.88-1.63.17-3.13.95-4.59,1.7-.87.45-1.74.91-2.61,1.36-1.14.59-2.43,1.42-2.45,2.7-.02.94.69,1.94.23,2.76.45.27,1.02.02,1.47-.25,1.25-.78,2.34-1.8,3.63-2.5,1.29-.7,2.91-1.05,4.22-.39-.42,1.58-3.44.92-3.94,2.48,1.12.9,2.74.89,4.13.5,1.39-.39,2.68-1.09,4.08-1.44,2.16-.54,4.43-.2,6.62.17,6.65,1.12,13.48,2.53,20.05,1.01.92-.21,1.92-.55,2.4-1.36.23-.39.32-.85.4-1.3.86-4.96.95-10.05.25-15.04.13.96-7.94,1.84-8.69,2.23-1.97,1.01-.7,4.22-2.57,5.68Z" style="fill: #fff;"/>
          <path d="M127.57,55.04c-.44,1.29-.93,2.6-1.86,3.59-.38.4-.82.74-1.27,1.07-.74.55-1.49,1.08-2.24,1.61-.72.5-1.46.98-2.29,1.25-1.01.32-2.09.29-3.15.31-.24,0-.49.01-.71.13-.21.11-.38.36-.31.6.06.19.24.31.41.4,1.79.93,4.22.66,6-.12.16-.07.31-.14.46-.23.44-.28.71-.68,1.18-.91.56-.27,1.11-.55,1.64-.87.69-.4,1.8-.85,2.29-1.5.56-.75,1.13-1.51,1.46-2.38.11-.29.19-.58.32-.86.16-.36.45-.62.63-.95.22-.41.29-.98.41-1.44.26-.98.48-1.96.66-2.95.35-1.95.55-3.93.6-5.91,0-.32-.03-.7-.31-.85-1.45-.78-1.96,3.43-2.11,4.03-.53,2.02-1.13,4.02-1.8,5.99Z" style="fill: #8fc4de;"/>
          <path d="M155.31,160.16c.08,0,.16.01.21.07.05.05.06.13.06.2.31,7.13.04,14.29-.8,21.38-.22,1.87-.48,3.75-.43,5.63.05,1.79.4,3.55.67,5.32.05.34.1.69.02,1.03-.08.32-.27.6-.47.86-1.63,2.24-3.53,4.3-5.64,6.09-.19.16-.4.33-.65.36-.21.02-.41-.05-.6-.13l-3.15-1.21c.22-.57.78-.92,1.25-1.31,1.47-1.21,2.3-3.05,2.63-4.93.33-1.87.21-3.79.04-5.69-.68-7.74-2.07-15.4-3.45-23.05-.24-1.34-.51-2.69-.73-4.03-.29-1.79.93-1.23,2.37-1.14,2.89.18,5.77.35,8.66.53Z" style="fill: #fff;"/>
          <g>
            <path d="M176.51,178.84c.56,2.75,1.05,5.52,1.45,8.31.16,1.09.3,2.18.59,3.24.77,2.81-.37,4.39-1.92,6.7-.31.46-.64.91-.87,1.42-.15.33-.26.68-.48.96-.21.28-.51.48-.81.67-.32.21-.64.42-.96.63-.07.04-.14.09-.22.11-.11.02-.22,0-.33-.03-.98-.26-1.99-.4-3-.42.45-1.18.9-2.35,1.35-3.53.5-1.32.89-2.81.95-4.23.03-.66-.01-1.32-.2-1.95-.13-.44-.33-.86-.53-1.28-.94-1.97-1.43-4.13-2.35-6.08-1-2.11-1.93-4.26-2.85-6.41-.4-.93-.81-1.86-1.16-2.81-1.69-4.52-2.33-9.52-5.09-13.47,3.33-.64,6.75-.81,10.12-1.15.19-.02.39-.04.57.03.25.09.42.31.57.54.74,1.14,1.12,2.46,1.48,3.77,1.38,4.96,2.65,9.96,3.68,15Z" style="fill: #fff;"/>
            <path d="M180.25,198.3c-.44,1.58-1.16,3.08-2.12,4.41-.17.23-.34.46-.49.7-.27.45-.44.95-.71,1.4-.63,1.07-1.72,1.79-2.83,2.34-.45.22-.91.42-1.4.53-1.04.25-2.13.1-3.17-.1-.11-.02-.23-.04-.34,0-.11.04-.19.17-.14.27.03.05.08.09.13.12,1.03.6,2.31.49,3.5.35,1.23-.14,2.51-.3,3.52-1,.29-.2.55-.45.81-.69.41-.38.82-.76,1.23-1.14.37-.35,1.79-2.99,2.1-3.96.26-.78.61-1.54.81-2.34.14-.56.32-1.61-.05-2.12-.45-.64-.76.89-.85,1.22Z" style="fill: #fff;"/>
            <path d="M176.88,197.12c-.58.83-1.17,1.66-1.79,2.47-.39.51-.82,1.03-1.42,1.25-.74.28-1.56.04-2.34-.1s-1.7-.14-2.22.45c-.18.21-.29.47-.4.72-.49,1.16-.99,2.32-1.48,3.48-.05.13-.11.26-.09.39.02.13.11.24.2.34.65.69,1.59,1.05,2.53,1.15.94.1,1.89-.05,2.82-.23,1-.2,2.03-.45,2.86-1.04,1.07-.75,1.72-1.94,2.33-3.08.27-.51.54-1.01.82-1.52.76-1.41,1.52-2.83,2.07-4.33.37-1.02.65-2.14.32-3.17-.2-.62-.62-1.16-1.16-1.51-.12-.08-.27-.19-.41-.22-.29-.08-.21-.11-.32.14-.13.29-.13.71-.22,1.02-.43,1.4-1.28,2.63-2.11,3.81Z" style="fill: #fff9cb;"/>
            <path d="M170.77,159.53c3.33,5,8.16,33.15,8.16,33.15" style="fill: none; stroke: #2e3117; stroke-linecap: round; stroke-miterlimit: 10; stroke-width: 1.09px;"/>
            <line x1="160" y1="160.26" x2="172.39" y2="191.84" style="fill: none; stroke: #2e3117; stroke-linecap: round; stroke-miterlimit: 10; stroke-width: 1.09px;"/>
            <path d="M172.39,191.84c.41,4-2.85,8.68-4.6,11.69-.46.78-.88,1.73-.52,2.56.31.7,1.08,1.08,1.82,1.28,2.56.68,5.47-.13,7.3-2.04,1.01-1.05,1.69-2.37,2.3-3.69.53-1.14,1.02-2.31,1.52-3.47.47-1.11.95-2.25.96-3.45.01-1.2-.55-2.49-1.64-2.98" style="fill: none; stroke: #2e3117; stroke-linecap: round; stroke-miterlimit: 10; stroke-width: 1.09px;"/>
            <path d="M169.87,200.69c1.04-.2,2.15-.04,3.09.45.15.08.31.16.47.12.09-.03.17-.1.24-.16,2.63-2.51,4.55-5.75,5.5-9.25" style="fill: none; stroke: #2e3117; stroke-linecap: round; stroke-miterlimit: 10; stroke-width: 1.09px;"/>
            <path d="M167.57,206.79c.99,1.6,3.1,2.21,4.95,1.89,1.85-.32,4.31-.86,6.47-4.63.36-.63.57-1.33.86-1.99,1-2.33,2.03-4.89,1.34-7.33" style="fill: none; stroke: #2e3117; stroke-linecap: round; stroke-miterlimit: 10; stroke-width: 1.09px;"/>
          </g>
          <path d="M131.71,105.35c.37,17.33.19,33.83.56,51.16" style="fill: none; stroke: #2e3138; stroke-linecap: round; stroke-miterlimit: 10; stroke-width: 1.09px;"/>
          <path d="M132.71,157.71c4.47,1.42,9.16,1.7,13.81,1.94,9.14.46,22.45,2.11,30.25-3.13-.62-7.36-3.57-15.29-4.19-22.64-1.04-12.26,6.35-27.63-11.03-56.27" style="fill: none; stroke: #2e3138; stroke-linecap: round; stroke-miterlimit: 10; stroke-width: 1.09px;"/>
          <g>
            <path d="M106.78,32.43c.21-.08.42-.18.65-.29.61-.32,1.3-.48,1.82-.95.84-.74,1.1-2.13,2.15-2.52.53-.19,1.12-.06,1.62.18,1.14.55,2,1.67,2.21,2.92.22,1.25-.2,2.59-1.09,3.49-.13.14-.29.29-.28.48.01.14.11.26.21.36,2.3,2.44,4.61,4.88,6.91,7.33.45.48.91.96,1.4,1.41.59.54,1.23,1.01,1.88,1.47.21.15.69.62.94.65.24.02.39-.21.6-.29.33-.12.76-.13,1.11-.19.81-.13,1.63-.27,2.44-.4.09-.02.19-.03.27.01.15.08.15.29.14.45-.07.83-.14,1.66-.22,2.48-.12,1.33-.24,2.68-.6,3.97-.38,1.35-1.13,2.8-2.01,3.9-.64.8-1.05,1.75-1.53,2.65-.55,1.01-1.22,1.58-2.1,2.32-.27.23-.54.45-.85.62-.66.35-1.44.38-2.19.38-1.28-.01-2.57-.13-3.84-.33-.6-.1-.79-.31-.6-.86.21-.61.52-1.2.78-1.79.09-.21.18-.44.08-.65-.07-.15-.22-.24-.36-.32-1.87-1.07-3.74-2.13-5.61-3.2-1.83,1.38-4.22,2.49-6.51,2.53-1.87.03-3.67-.62-5.42-1.26-1.09-.4-2.18-.8-3.27-1.2-2.81-1.03-4.7-3.5-6.93-5.5,1.92-4.56,1-9.62.63-14.55-.01-.17-.02-.35.07-.49.1-.15.28-.21.46-.24.9-.2,1.83-.09,2.75-.04,1.95.11,3.92.2,5.85-.17.86-.16,1.71-.4,2.55-.65,1.59-.46,3.17-.91,4.76-1.37.41-.12.77-.22,1.12-.36Z" style="fill: #fff;"/>
            <path d="M114.14,35.77c1.28,1.66,2.74,3.17,4.19,4.68.91.95,1.83,1.9,2.91,2.65,1.03-1.16,1.79-2.55,2.21-4.05.11-.38.19-.77.15-1.16-.05-.41-.23-.79-.31-1.2-.28-1.41.73-2.74.87-4.17.12-1.17-.36-2.32-.94-3.33-.58-1.02-1.29-1.97-1.72-3.07-1.04-2.63-1.65-5.35-4.66-6.38-.56-.19-1.16-.3-1.74-.22-.9.13-1.67.69-2.47,1.13-.98.54-2.29,1.09-3.43,1.05-1.16-.03-2.13-.56-3.19-.95-.63-.23-1.3-.34-1.96-.46-1.4-.24-2.82-.48-4.24-.44-1.55.04-3.06.41-4.57.78-1.76.43-3.55.88-5.05,1.89-1.56,1.06-2.66,2.66-3.72,4.22-.98,1.44-1.64,2.97-2.82,4.26-.51.56-1.1,1.05-1.63,1.6-2.72,2.81-3.6,7.26-2.16,10.9.41,1.03.98,1.99,1.36,3.03.58,1.57.7,3.3,1.38,4.83.22.51.51.99.7,1.51.16.44.25.91.31,1.38.15,1.2.08,2.43-.21,3.61-.59,2.46,2.09,5.08,4.53,5.71,1.81.47,3.71-.08,5.48-.67.25-.08.51-.17.7-.35-.15-.02-.29-.07-.42-.14,1.51,1.25,3.24,2.23,5.1,2.86.52.18,1.06.33,1.61.35.94.03,1.84-.32,2.69-.72,1.27-.59,2.59-1.4,3.07-2.72,1.07.19,2.18-.24,3.03-.91.85-.68,1.49-1.58,2.08-2.49.44-.67.86-1.56.39-2.21-.38-.52-1.16-.55-1.75-.31-.59.25-1.07.7-1.6,1.05-1,.64-2.22.89-3.41.89-1.19,0-2.37-.23-3.53-.49-1.43-.31-2.85-.65-4.19-1.25-.89-.4-1.73-.9-2.5-1.5-1.74-1.36-3.41-2.4-5.03-3.9-.21-.19-.42-.39-.52-.65-.13-.33-.07-.71,0-1.06.24-1.33.52-2.65.72-3.98.51-3.39.48-6.9-.54-10.17,1.38.32,2.83.16,4.23-.01,4.39-.55,8.76-1.27,13.1-2.16,1.11-.23,2.33-.55,2.92-1.52.39-.65.42-1.51.93-2.08.48-.54,1.29-.68,1.99-.49.69.19,1.28.65,1.78,1.17.79.82,1.43,1.85,1.48,2.99.05,1.14-.47,2.39-1.58,2.68Z" style="fill: #4b4c4e;"/>
            <path d="M121.16,43.02c1.62-.44,3-4.04,2.27-5.64-.72-1.6.28-2.9.64-3.54,1.83-3.34-2.88-7.83-2.88-7.83-.32-3.59-1.18-4.56-3.71-6.24-2.53-1.68-5.24,1.25-5.24,1.25-3.71,2.23-4.82-.4-8.42-.8-16.07-1.77-19.32,9.98-19.32,9.98,0,0-8.27,4.94-4.28,14.34,3.99,9.4,3.82,10.74,3.49,12.03-.32,1.29-.49,7.36,7.22,7.32,0,0,1.77-.4,3.32-1.26,0,0,7.39,6.45,11.68-.19,0,0,3.14.39,5.37-3.68" style="fill: none; stroke: #2e3138; stroke-linecap: round; stroke-miterlimit: 10; stroke-width: 1.09px;"/>
            <path d="M88.35,51.13c3-7.37.78-15.93.78-15.93,0,0,12.23.36,21.12-4.07" style="fill: none; stroke: #2e3138; stroke-linecap: round; stroke-miterlimit: 10; stroke-width: 1.09px;"/>
            <path d="M109.91,31.19c.07-.48.23-.94.47-1.36.26-.48.66-.93,1.19-1.04.33-.07.67,0,.98.1,1.61.53,2.85,2.05,3.05,3.73.08.66,0,1.34-.3,1.93s-.82,1.08-1.46,1.25" style="fill: none; stroke: #2e3138; stroke-linecap: round; stroke-miterlimit: 10; stroke-width: 1.09px;"/>
            <path d="M88.85,50.51s16.16,15.61,23.71,2.42" style="fill: none; stroke: #2e3138; stroke-linecap: round; stroke-miterlimit: 10; stroke-width: 1.09px;"/>
            <path d="M111.99,34.22s11.13,11.74,13.54,12.81" style="fill: none; stroke: #2e3138; stroke-linecap: round; stroke-miterlimit: 10; stroke-width: 1.09px;"/>
            <path d="M93.15,37.04c-.28.58-.66,1.12-1.12,1.58" style="fill: none; stroke: #2e3138; stroke-linecap: round; stroke-miterlimit: 10; stroke-width: 1.09px;"/>
            <path d="M95.06,37.75c-.42.89-.98,1.72-1.66,2.43" style="fill: none; stroke: #2e3138; stroke-linecap: round; stroke-miterlimit: 10; stroke-width: 1.09px;"/>
            <path d="M99.18,43.76c.58.76,1.06,1.59,1.42,2.48.17.43.34.9.73,1.15.36.23.83.2,1.22.05.57-.23,1.06-.78,1.02-1.4" style="fill: none; stroke: #2e3138; stroke-linecap: round; stroke-miterlimit: 10; stroke-width: 1.09px;"/>
            <path d="M106.84,43.15c.47-.04.96.09,1.35.37" style="fill: none; stroke: #2e3138; stroke-linecap: round; stroke-miterlimit: 10; stroke-width: 1.09px;"/>
            <line x1="110.97" y1="56.06" x2="116.84" y2="59.47" style="fill: none; stroke: #2e3138; stroke-linecap: round; stroke-miterlimit: 10; stroke-width: 1.09px;"/>
            <path d="M112.1,31.67c-.21-.21-.09-.61.18-.73s.6-.03.81.17c.22.2.34.48.43.76" style="fill: none; stroke: #2e3138; stroke-linecap: round; stroke-miterlimit: 10; stroke-width: 1.09px;"/>
            <path d="M102,50.64c-.01.39.24.78.61.93" style="fill: none; stroke: #2e3138; stroke-linecap: round; stroke-miterlimit: 10; stroke-width: 1.09px;"/>
            <path d="M101.84,37.63c-.13.5-.18,1.01-.15,1.52.51-.41,1.03-.82,1.54-1.23" style="fill: none; stroke: #2e3138; stroke-linecap: round; stroke-linejoin: round; stroke-width: 1.09px;"/>
            <path d="M94.21,47.7c.5-.24,1.08-.31,1.63-.19-.58.75-1.08,1.57-1.49,2.43" style="fill: none; stroke: #2e3138; stroke-linecap: round; stroke-linejoin: round; stroke-width: 1.09px;"/>
            <path d="M106.24,52.97c-.34-.04-.63-.33-.67-.67s.17-.69.49-.81c.31-.12.66-.03.98-.13.34-.11.59-.45.58-.81,0-.35-.23-.74-.04-1.04.31-.51,1.23-.02,1.67-.43.19-.17.22-.46.22-.72,0-.26-.03-.53.09-.76.12-.23.44-.38.64-.21" style="fill: none; stroke: #2e3138; stroke-linecap: round; stroke-linejoin: round; stroke-width: 1.09px;"/>
            <path d="M91.79,27.25c1.44-.66,3.1-.82,4.63-.44,1.17.29,2.33.88,3.51.65" style="fill: none; stroke: #2e3138; stroke-linecap: round; stroke-miterlimit: 10; stroke-width: 1.09px;"/>
            <path d="M102.4,29.04c.61,0,1.23,0,1.84,0,.87,0,1.86-.05,2.43-.71" style="fill: none; stroke: #2e3138; stroke-linecap: round; stroke-miterlimit: 10; stroke-width: 1.09px;"/>
            <path d="M102.33,23.66c.95-.3,2.03-.16,2.87.37.67.42,1.23,1.09,2.01,1.26.69.15,1.4-.13,2.05-.41" style="fill: none; stroke: #2e3138; stroke-linecap: round; stroke-miterlimit: 10; stroke-width: 1.09px;"/>
            <path d="M113.16,23.84c.68.08,1.38.15,2.02.4.64.24,1.24.68,1.54,1.3" style="fill: none; stroke: #2e3138; stroke-linecap: round; stroke-miterlimit: 10; stroke-width: 1.09px;"/>
            <path d="M119.71,30.27c.33.45.66.9.99,1.35.29.4.59.81.74,1.28.15.47.13,1.03-.18,1.42" style="fill: none; stroke: #2e3138; stroke-linecap: round; stroke-miterlimit: 10; stroke-width: 1.09px;"/>
            <path d="M98.2,61.12c.48,1.4,2.01,2.34,3.48,2.15" style="fill: none; stroke: #2e3138; stroke-linecap: round; stroke-miterlimit: 10; stroke-width: 1.09px;"/>
            <path d="M87.4,55.82c.63,2.1,2.5,3.77,4.66,4.16" style="fill: none; stroke: #2e3138; stroke-linecap: round; stroke-miterlimit: 10; stroke-width: 1.09px;"/>
            <path d="M85.19,35.54c-.62,1.07-1.26,2.26-1,3.47.15.69.58,1.27.89,1.9.73,1.47.84,3.18.6,4.8-.24,1.62-.8,3.17-1.36,4.71" style="fill: none; stroke: #2e3138; stroke-linecap: round; stroke-miterlimit: 10; stroke-width: 1.09px;"/>
          </g>
          <path d="M125.63,46.79c3.26-.3,2.75-.24,4.43-1.15" style="fill: none; stroke: #2e3138; stroke-linecap: round; stroke-miterlimit: 10; stroke-width: 1.09px;"/>
          <path d="M116.86,59.38c-.25.65-.37,1.3-.55,1.97-.19.75-.55,1.24.42,1.55,1.92.61,4.07.17,5.79-.88,1.72-1.04,3.05-2.64,4.1-4.35,2.12-3.48,2.82-6.91,3.16-10.9.03-.39.07-.79.28-1.12.39-.63,1.22-.79,1.95-.88,3.72-.5,7.36-.77,11.13-.56,2.32.13,4.7.42,6.88,1.26,2.19.85,3.17,2.08,4.63,3.75,1.67,1.91,5.92,5.54,5.27,8.43-.55,2.42-6.8,5.49-8.87,6.4-.78-2.13-1.96-4.11-3.47-5.81" style="fill: none; stroke: #2e3138; stroke-linecap: round; stroke-miterlimit: 10; stroke-width: 1.09px;"/>
          <g>
            <path d="M122.81,85.88c1.03,4.05.43,13.98-.52,16.64-1.01,2.83-24.04.28-24.04.28-1.13-.17-2.27-.34-3.4-.52-.39-.06-.78-.12-1.17-.07-.43.05-.84.24-1.23.43-.6.29-1.19.61-1.76.96-.28.17-.56.34-.87.46-.39.14-.8.18-1.22.21-1,.06-1.99.07-2.99.03-.3-.01-.61-.03-.88-.17-.27-.14-.49-.42-.46-.72.04-.47.6-.69,1.06-.8.56-.13,1.12-.27,1.67-.4.84-.2,1.82-.53,2.07-1.36" style="fill: none; stroke: #2e3138; stroke-linecap: round; stroke-miterlimit: 10; stroke-width: 1.09px;"/>
            <path d="M113.5,94.19c-5.64.41-13.24,2.69-19.42,2.03" style="fill: none; stroke: #2e3138; stroke-linecap: round; stroke-miterlimit: 10; stroke-width: 1.09px;"/>
            <path d="M93.9,96.2c-1.82-.38-3.71-.55-5.58-.49-.29,0-.59.02-.87.11-.18.05-.34.13-.5.22-2.5,1.25-5.17,2.33-6.83,4.49-.5.65-.8,1.45-.61,2.22" style="fill: none; stroke: #2e3138; stroke-linecap: round; stroke-miterlimit: 10; stroke-width: 1.09px;"/>
            <path d="M112.59,94.19c.21-1.95.31-3.48.2-5.44" style="fill: none; stroke: #2e3138; stroke-linecap: round; stroke-miterlimit: 10; stroke-width: 1.09px;"/>
            <path d="M87.71,97.91c-4.19,1.17-6.48,3.14-8.09,5.4-.2.29-.39.64-.22.94.16.28.59.38.94.31.35-.07.65-.26.95-.44,2.15-1.33,3.66-4.05,7.32-3.6" style="fill: none; stroke: #2e3138; stroke-linecap: round; stroke-miterlimit: 10; stroke-width: 1.09px;"/>
          </g>
          <path d="M115.58,59.37c-1.49,1.81-2.98,3.62-4.47,5.44-.91,1.11-1.85,2.26-2.25,3.64-.36,1.25-.25,2.58-.12,3.87.52,5.03,1.38,10.02,2.56,14.93.12.5.28,1.04.73,1.3.38.21.84.15,1.26.07,3.7-.69,6.69-1.58,10.09-3.2" style="fill: none; stroke: #2e3138; stroke-linecap: round; stroke-miterlimit: 10; stroke-width: 1.09px;"/>
          <path d="M115.8,61.66c-.59.44-.56,1.4-.1,1.97.46.57,1.2.83,1.92.97,3,.56,6.15-.65,8.39-2.72,2.24-2.07,3.63-4.92,4.43-7.86.8-2.94,1.04-6,1.28-9.04" style="fill: none; stroke: #2e3138; stroke-linecap: round; stroke-miterlimit: 10; stroke-width: 1.09px;"/>
          <path d="M111.62,87.1c.88.12,1.78-.05,2.65-.24,2.72-.59,5.4-1.36,8.01-2.33" style="fill: none; stroke: #2e3138; stroke-linecap: round; stroke-miterlimit: 10; stroke-width: 1.09px;"/>
          <path d="M150.79,62.75c3.52-1.5,6.6-4.01,8.78-7.15" style="fill: none; stroke: #2e3138; stroke-linecap: round; stroke-miterlimit: 10; stroke-width: 1.09px;"/>
          <path d="M155.32,199.98c-.74,1.47-1.74,2.8-2.95,3.91-.21.19-.43.38-.62.59-.35.39-.62.84-.97,1.24-.82.93-2.03,1.42-3.23,1.74-.48.13-.98.23-1.48.25-1.07.04-2.1-.32-3.09-.72-.11-.04-.22-.09-.33-.07s-.22.13-.19.24c.01.06.06.1.1.14.89.79,2.17.93,3.36,1.03,1.23.1,2.52.2,3.65-.29.33-.14.63-.33.93-.52.47-.29.95-.59,1.42-.88.43-.27,2.34-2.59,2.84-3.47.41-.72.9-1.39,1.25-2.13.24-.52.63-1.51.37-2.09-.32-.71-.91.72-1.07,1.04Z" style="fill: #fff;"/>
          <path d="M155.24,180.12c0,.07-.01.14-.02.21-.09.99-.42,1.92-.55,2.88-.12.89.18,1.9.31,2.8.3,2.11.58,4.23.63,6.37,0,.37.15.65.03,1.01-.21.62-.53,1.19-.91,1.73-.78,1.1-1.77,2.02-2.73,2.97-.39.39-.81.77-1.13,1.22-.21.29-.39.61-.66.85-.26.23-.6.37-.92.5-.36.14-.71.28-1.07.43-.07.03-.15.06-.23.06-.11,0-.22-.05-.32-.1-.91-.44-1.87-.78-2.86-1,.67-1.07,1.34-2.13,2.01-3.2.82-1.31,1.75-2.55,1.84-4.16.06-1.1-.14-2.2-.31-3.29-.43-2.75-.43-5.5-.71-8.24-.13-1.25-.71-2.45-.86-3.72-.16-1.33-.18-2.68-.3-4.02-.39-4.39-1.91-8.66-1.89-13.06,0-.17.01-.36.14-.47.11-.1.28-.11.43-.1,1.13,0,10.67.78,10.66.68.05,1.82-.14,3.63-.4,5.43-.2,1.37-.09,2.61-.16,3.97-.18,3.42.25,6.86-.03,10.27Z" style="fill: #fff;"/>
          <path d="M152.25,198.16c-.73.7-1.47,1.4-2.23,2.07-.48.42-1.01.85-1.64.95-.78.12-1.54-.27-2.27-.56-.73-.29-1.64-.47-2.26,0-.22.17-.38.4-.54.63-.71,1.04-1.42,2.08-2.13,3.12-.08.11-.16.23-.16.37,0,.13.06.26.13.37.5.81,1.36,1.34,2.26,1.62s1.87.32,2.81.33c1.02,0,2.08-.05,3.01-.46,1.19-.52,2.06-1.56,2.89-2.57.37-.44.73-.89,1.1-1.33,1.02-1.24,2.04-2.48,2.88-3.85.57-.92,1.06-1.97.93-3.05-.07-.64-.38-1.25-.84-1.71-.1-.1-.23-.24-.36-.3-.27-.13-.19-.15-.34.07-.19.26-.26.67-.42.96-.69,1.29-1.77,2.33-2.82,3.33Z" style="fill: #fff9cb;"/>
          <path d="M155.66,160.26l-.78,26.53s-.17,3.81.61,7.08" style="fill: none; stroke: #2e3117; stroke-linecap: round; stroke-miterlimit: 10; stroke-width: 1.09px;"/>
          <line x1="144.44" y1="160.26" x2="149.02" y2="192.09" style="fill: none; stroke: #2e3117; stroke-linecap: round; stroke-miterlimit: 10; stroke-width: 1.09px;"/>
          <path d="M149.02,192.09c-.67,3.42-4.63,7.97-6.94,10.58-.6.68-1.2,1.53-1.01,2.41.16.75.85,1.27,1.54,1.61,2.38,1.17,5.39.94,7.56-.57,1.19-.83,2.12-1.99,2.98-3.17.74-1.02,1.45-2.06,2.16-3.1.68-.99,1.37-2.02,1.62-3.19.25-1.17-.05-2.55-1.03-3.24" style="fill: none; stroke: #2e3117; stroke-linecap: round; stroke-miterlimit: 10; stroke-width: 1.09px;"/>
          <path d="M144.68,200.29c1.06,0,2.12.38,2.95,1.05.13.1.27.22.44.21.1,0,.18-.06.27-.11,3.07-1.95,5.58-4.75,7.2-8" style="fill: none; stroke: #2e3117; stroke-linecap: round; stroke-miterlimit: 10; stroke-width: 1.09px;"/>
          <path d="M141.23,205.82c.66,1.76,2.61,2.78,4.49,2.83,1.88.05,4.39,0,7.25-3.28.48-.54.82-1.19,1.23-1.78,1.44-2.09,2.95-4.4,2.75-6.92" style="fill: none; stroke: #2e3117; stroke-linecap: round; stroke-miterlimit: 10; stroke-width: 1.09px;"/>
          <path d="M121.77,83.94c1.56.88,2.53,2.49,3.44,4.03,3,5.1,7.01,11.48,6.51,17.38" style="fill: none; stroke: #2e3138; stroke-linecap: round; stroke-miterlimit: 10; stroke-width: 1.09px;"/>
          <g>
            <path d="M105.79,52.15c.02.23.09.47,0,.68-.08.17-.25.27-.4.39-.75.63-.68,1.81-.34,2.72.68,1.83,2.16,3.29,3.87,4.24,1.71.95,3.64,1.43,5.56,1.76,1.28.22,2.58.37,3.87.46.68.05,1.37.08,2.02.28,1.15.37,2.05,1.23,2.96,2.01,2.66,2.26,5.75,3.88,8.8,5.54,2.7,1.47,5.37,3.05,8.11,4.49,2.09,1.1,4.09,2.34,6,3.72.83.6,1.66,1.23,2.58,1.69,1.44.71,2.87.88,4.42.68,1.51-.2,3.08.17,4.56-.3,1.61-.51,2.43-1.79,3.51-2.96,1-1.09,1.96-1.98,2.36-3.49.55-2.03-.05-4.18-.74-6.17-.66-1.92-1.4-3.81-2.22-5.66-.48-1.1-1.28-2.36-2.47-2.28-.65.05-1.19.51-1.71.91-1.01.79-2.13,1.45-3.31,1.96-.74.32-1.61.69-1.81,1.47-.29,1.13,1.07,2.14.95,3.3-6.06-.9-11.47-3.98-17.28-5.72-5.74-1.72-11.5-3.39-16.86-6.18-.23-.12-.46-.24-.64-.42-.36-.35-.47-.87-.64-1.35-.43-1.2-1.32-2.24-2.43-2.86-.16-.09-.33-.17-.51-.16-.36.02-.6.4-.65.75-.18,1.24,1.1,2.3,1.09,3.56,0,.1-2.25-.97-2.46-1.11-.85-.56-1.62-1.24-2.43-1.87-.91-.7-4.07-2.97-3.77-.09Z" style="fill: #fff;"/>
            <g>
              <path d="M110.83,56.21c-.93-.35-1.52-.66-2.29-1.29-.74-.61-1.53-1.19-2.42-1.57-.45-.19-.99-.33-1.4-.07-.37.23-.5.73-.42,1.15s.34.8.62,1.13c1.89,2.26,4.79,3.76,7.69,4.17" style="fill: none; stroke: #2e3138; stroke-linecap: round; stroke-linejoin: round; stroke-width: 1.09px;"/>
              <path d="M114.94,55.57c-.44-.6-.89-1.2-1.17-1.88-.28-.68-.39-1.47-.14-2.17.08-.23.23-.47.46-.56.18-.07.37-.03.55.03.62.24,1.01.85,1.35,1.42.55.93,1.1,1.85,1.65,2.78.58.98,2.26,1.09,3.15,1.79" style="fill: #fff; stroke: #2e3138; stroke-linecap: round; stroke-linejoin: round; stroke-width: 1.09px;"/>
              <path d="M114.79,55.59c-2.44-.81-4.64-2.19-6.18-3.88-.42-.46-.9-1-1.59-1.07-.46-.05-.89.15-1.1.44-.22.29-.26.64-.23.99.11,1.41,1.24,2.81,2.73,3.82,1.49,1.01,3.32,1.66,5.15,2.15" style="fill: #fff; stroke: #2e3138; stroke-linecap: round; stroke-linejoin: round; stroke-width: 1.09px;"/>
              <path d="M105.11,56.21c-.14-.05-.28.09-.3.23s.05.28.12.41c.43.8,2.11,2.42,2.83,2.98,1.92,1.5,5.82,2.93,12.71,2.45" style="fill: none; stroke: #2e3138; stroke-linecap: round; stroke-linejoin: round; stroke-width: 1.09px;"/>
              <path d="M120.95,62.39c2.62,2.4,5.87,4.25,8.85,6.15,4.33,2.76,8.73,5.43,13.17,8.01,4.85,2.83,10.22,6.63,15.88,3.37,3.2-1.84,5.2-5.57,4.97-9.25-.24-3.9-2.71-7.25-4.35-10.8" style="fill: none; stroke: #2e3138; stroke-linecap: round; stroke-linejoin: round; stroke-width: 1.09px;"/>
              <path d="M121.1,57.25c5.57,1.68,27.28,9.5,32.85,11.17" style="fill: none; stroke: #2e3138; stroke-linecap: round; stroke-linejoin: round; stroke-width: 1.09px;"/>
              <path d="M151.06,64.05s5.42-2.24,8.07-4.74" style="fill: none; stroke: #2e3138; stroke-linecap: round; stroke-linejoin: round; stroke-width: 1.09px;"/>
            </g>
            <path d="M151.06,64.05c.33,1.38,1.39,2.6,1.72,3.98" style="fill: none; stroke: #2e3138; stroke-linecap: round; stroke-linejoin: round; stroke-width: 1.09px;"/>
          </g>
          <path d="M79.12,101.62c-10.23.35-21.6-.42-31.83-.26-.25,1.62-.67,4.14.07,5.6,27.8-.28,56.21.45,84.39,0" style="fill: none; stroke: #2e3138; stroke-linecap: round; stroke-miterlimit: 10; stroke-width: 1.09px;"/>
          <line x1="50.54" y1="107.58" x2="50.54" y2="197.49" style="fill: none; stroke: #2e3138; stroke-linecap: round; stroke-miterlimit: 10; stroke-width: 1.09px;"/>
          <path d="M140.11,159.22v38.73" style="fill: none; stroke: #2e3138; stroke-linecap: round; stroke-miterlimit: 10; stroke-width: 1.09px;"/>
          <path d="M122.86,101.36c2.89-.13,5.78-.09,8.67.1" style="fill: none; stroke: #2e3138; stroke-linecap: round; stroke-miterlimit: 10; stroke-width: 1.09px;"/>
          <path d="M131.26,110.47H54.06l-.09,20.41c15.47,0,67.49.4,77.78.06" style="fill: none; stroke: #2e3138; stroke-linecap: round; stroke-miterlimit: 10; stroke-width: 1.09px;"/>
          <path d="M96.8,117.13c.73.12,1.52-.3,1.83-.98.14-.31.19-.66.22-1.01.02-.24.02-.48-.05-.71-.15-.5-.69-.86-1.2-.91-.53-.05-1.22-.02-1.65.33-.12.1-.22.23-.3.36-.22.34-.35.73-.35,1.13,0,.83.69,1.65,1.51,1.78Z" style="fill: #ff6d04; stroke: #2e3138; stroke-linecap: round; stroke-miterlimit: 10; stroke-width: 1.09px;"/>
          <path d="M131.26,134.43H54.06l-.09,20.41c15.47,0,67.49.4,77.78.06" style="fill: none; stroke: #2e3138; stroke-linecap: round; stroke-miterlimit: 10; stroke-width: 1.09px;"/>
          <path d="M96.8,141.1c.73.12,1.52-.3,1.83-.98.14-.31.19-.66.22-1.01.02-.24.02-.48-.05-.71-.15-.5-.69-.86-1.2-.91-.53-.05-1.22-.02-1.65.33-.12.1-.22.23-.3.36-.22.34-.35.73-.35,1.13,0,.83.69,1.65,1.51,1.78Z" style="fill: #ff6d04; stroke: #2e3138; stroke-linecap: round; stroke-miterlimit: 10; stroke-width: 1.09px;"/>
          <path d="M133.89,158.05l-79.82.34-.09,20.41c15.47,0,71.63.4,81.92.06" style="fill: none; stroke: #2e3138; stroke-linecap: round; stroke-miterlimit: 10; stroke-width: 1.09px;"/>
          <path d="M96.8,165.06c.73.12,1.52-.3,1.83-.98.14-.31.19-.66.22-1.01.02-.24.02-.48-.05-.71-.15-.5-.69-.86-1.2-.91-.53-.05-1.22-.02-1.65.33-.12.1-.22.23-.3.36-.22.34-.35.73-.35,1.13,0,.83.69,1.65,1.51,1.78Z" style="fill: #ff6d04; stroke: #2e3138; stroke-linecap: round; stroke-miterlimit: 10; stroke-width: 1.09px;"/>
          <line x1="136.02" y1="178.85" x2="136.02" y2="159.09" style="fill: none; stroke: #2e3138; stroke-linecap: round; stroke-miterlimit: 10; stroke-width: 1.09px;"/>
          <path d="M54.24,197.85c.69-3.74,1.46-7.46,2.3-11.17h76.89c1.04,3.68,1.92,7.52,2.89,11.36" style="fill: none; stroke: #2e3138; stroke-linecap: round; stroke-miterlimit: 10; stroke-width: 1.09px;"/>
          <path d="M136.32,198.12c1.26-.06,2.53-.12,3.79-.18" style="fill: none; stroke: #2e3138; stroke-linecap: round; stroke-miterlimit: 10; stroke-width: 1.09px;"/>
          <path d="M50.7,197.81c1.35-.04,2.19.08,3.54.04" style="fill: none; stroke: #2e3138; stroke-linecap: round; stroke-miterlimit: 10; stroke-width: 1.09px;"/>
        </g>
      </g>
      <rect width="228" height="228" style="fill: none;"/>
    </g>
  </g>
</svg>