<?xml version="1.0" encoding="UTF-8"?>
<svg id="_圖層_2" data-name="圖層 2" xmlns="http://www.w3.org/2000/svg" viewBox="0 0 228 228">
  <g id="_圖層_1-2" data-name="圖層 1">
    <g>
      <g>
        <path d="M134.56,156.77c.71.75.87,2.14,1.88,2.32.31.06.62-.03.92-.1,3.22-.75,6.64-.24,9.84-1.06.82-.21,1.66-.53,2.19-1.19.72-.9.56-2.47-.8-2.35-1.43.12-3.04.99-4.45,1.32-3.13.75-6.36,1.1-9.58,1.05Z" style="fill: #8fc4de;"/>
        <path d="M119.51,131.69c-.5.39-1.04.73-1.52,1.14-.26.22-.5.46-.78.63-.44.28-1,.42-1.29.85-.03.05-.06.1-.06.15,0,.06.04.11.08.16.4.52.81,1.04,1.21,1.56,1.07-.63,2.15-1.27,3.1-2.06.64-.53,1.22-1.14,1.8-1.74,1.17-1.21,2.34-2.43,3.26-3.83.1-.15.19-.33.12-.49,0,0-1.94-.13-2.13-.13-.55,0-.72.49-1.04.9-.81,1.05-1.7,2.04-2.75,2.85Z" style="fill: #8fc4de;"/>
        <path d="M99.59,136.21c.75.38,1.62.45,2.46.51.96.07,1.92.14,2.88.06.63-.05,1.31-.16,1.86.15.26.14.46.36.66.58.4.43.8.86,1.19,1.29.12.13.25.29.24.47-.02.28-.35.4-.63.45-1.7.32-3.46.37-5.18.13-1.26-.17-2.52-.51-3.62-1.14-1.25-.71-2.26-1.77-3.25-2.82-.5-.52-1.1-1.17-.99-1.96.09-.62.58-1.03,1.2-.81.61.22,1.05,1.05,1.45,1.53.49.6,1.01,1.2,1.72,1.55Z" style="fill: #8fc4de;"/>
        <path d="M124.9,129.33c.55-.52,1.13-1.05,1.86-1.23.66-.17,1.14.03,1.75.17.76.17,1.57.21,2.34.32,1.94.26,3.95.55,5.6,1.61.58.37,1.1.82,1.61,1.27.91.79,1.83,1.32,2.8,2.01.47.33.93.69,1.36,1.08.22.2,1.21.94,1.21,1.25,1.87,2.22,2.85,5.04,3.78,7.79,1.02,2.99,2.04,6,2.56,9.12.06.33.1.7-.1.98-.18.26-.51.35-.82.43-3.79.94-7.64,1.63-11.49,2.33-.89.16-1.85.32-2.68-.05-.89-.4-1.43-1.29-1.97-2.05-.59-.82-1.27-1.56-1.99-2.26-1.41-1.38-2.95-2.67-4.06-4.32-.39-.59-.73-1.22-1.14-1.8-.75-1.04-1.74-1.88-2.62-2.81-.77-.82-1.41-1.62-2.24-2.38-1.08-.99-3.64-3.09-2.8-4.83.55-1.14,2.42-2.3,3.35-3.17,1.22-1.15,2.45-2.3,3.67-3.46Z" style="fill: #1f89bd;"/>
        <path d="M106.75,139.89c.6-.08,1.22-.19,1.79,0,.77.25,1.26.99,1.69,1.67,1.12,1.79,2.24,3.58,3.35,5.37.94,1.51,1.89,3.03,2.68,4.63.74,1.51,1.34,3.09,2.22,4.52.73,1.19,1.65,2.26,2.33,3.47,1.01,1.8,1.46,3.86,2.3,5.74,1.08,2.42,2.76,4.5,4.43,6.56-1.46.32-2.96.24-4.44.1-1.35-.12-2.63-.04-3.99-.02-3.03.03-6.06.06-9.1.1-9.64.1-19.29.2-28.93-.1-.14,0-.28-.01-.39-.09-.28-.19-.16-.62-.02-.92,3.56-7.61,6.57-15.33,9.43-23.24,1.02-2.82,2.08-5.62,3.31-8.36.55-1.23.96-2.52,1.4-3.8.03-.1.07-.2.15-.27.08-.07.21-.09.28-.01.42.68,1.12.9,1.7,1.39.51.44.96.98,1.53,1.34,2.44,1.55,5.42,2.28,8.3,1.92Z" style="fill: #1f89bd;"/>
        <path d="M68.98,149.66c-.61-.18-1.24-.37-1.88-.4-.26.69-.52,1.37-.79,2.06-.07.19-.14.41-.04.58.09.14.27.2.43.24,1.3.34,2.61.68,3.91,1.03.68.18,1.36.36,2.06.4.48.03,1.02-.03,1.33-.4.21-.24.27-.57.33-.88.11-.6.28-.79-.22-1.09-.47-.28-1.22-.36-1.74-.52-1.14-.34-2.28-.66-3.41-1.01Z" style="fill: #8fc4de;"/>
        <path d="M86.12,131.2c-.85.17-1.7.31-2.53.55-2.47.73-4.52,2.42-6.47,4.11-3.99,3.46-7.98,7.31-9.64,12.32-.05.16-.1.34-.05.5.04.14.15.24.26.34,1.78,1.59,4.2,2.43,6.58,2.29.27-.02.54-.05.78-.17.24-.12.42-.33.59-.53,2.79-3.21,5.44-6.57,7.69-10.18.49-.78.96-1.58,1.52-2.31.59-.77,1.28-1.46,1.88-2.22.86-1.08,1.82-2.48,2.15-3.84.47-1.94-1.76-1.06-2.76-.86Z" style="fill: #1f89bd;"/>
        <g>
          <path d="M47.7,174.11c-2.57,1.41-4.89,3.42-7.05,5.58-1.01,1.01-2.04,2.39-1.57,3.74.38,1.09,1.58,1.63,2.68,1.97,10.39,3.2,21.65-1.41,32.44-.01,2.05.27,4.13.78,5.77,2.03,1.64,1.25,2.73,3.4,2.24,5.4-.19.78-.6,1.51-.6,2.31,0,1.51,1.4,2.61,2.75,3.28,7.04,3.52,15.55,1.85,22.9-.97,7.35-2.82,14.42-6.76,22.24-7.71.94-.12,1.93-.18,2.81.19,1.32.55,2.09,1.94,3.3,2.71,1.49.94,3.41.79,5.15.46,9.86-1.89,18.09-8.41,25.89-14.72,6.28-5.08-1.47-5.22-5.44-5.22-24.17-.23-48.34-.46-72.51-.7-8.25-.08-16.5-.16-24.76-.24-3.06-.03-6.13-.16-9.19-.09-2.57.06-4.9.81-7.05,1.99Z" style="fill: #ffb784;"/>
          <g>
            <g>
              <path d="M112.35,95.09c.28.1.56.19.88.26.86.2,1.68.62,2.58.61,1.45-.02,2.87-1.16,4.23-.64.67.26,1.14.89,1.43,1.55.66,1.5.54,3.31-.3,4.71-.84,1.4-2.39,2.36-4.02,2.49-.25.02-.53.04-.68.24-.11.15-.11.35-.1.53.19,4.33.38,8.66.56,12.98.04.85.07,1.71.18,2.55.19,1.54.59,3.04.99,4.54.75.08,1.4.8,2.03,1.2.77.49,1.58.92,2.41,1.3.16.07.36.21.31.38-.02.07-.07.12-.13.16-1.39,1.25-2.78,2.5-4.16,3.75-.64.58-1.29,1.16-2.02,1.64-.49.32-1.02.59-1.55.84-2.87,1.38-5.92,2.59-9.11,2.97-2.52.3-6.02-.69-7.96-2.35-.78-.67-1.42-1.52-1.83-2.46-.04-.09-.08-.19-.05-.28.02-.08.08-.14.15-.2.82-.78,1.57-1.19,2.58-1.67.26-.13.55-.28.63-.56.06-.2-.01-.42-.08-.62-.93-2.62-1.85-5.24-2.78-7.86-2.95-.19-6.23-1.13-8.5-3.02-1.85-1.54-3.06-3.7-4.23-5.8-.73-1.31-1.45-2.62-2.18-3.93-1.88-3.38-1.64-7.38-2.12-11.22,5.72-2.83,9.09-8.56,12.89-13.68.13-.18.28-.36.49-.42.22-.06.45.04.65.15,1.04.56,1.86,1.46,2.72,2.29,1.81,1.75,3.66,3.5,5.85,4.77.98.57,2.01,1.05,3.03,1.52,1.93.89,3.86,1.79,5.8,2.68.5.23.94.43,1.4.6Z" style="fill: #fff;"/>
              <path d="M116.12,104.7c.6,2.64.75,5.24.75,7.96.09,1.69.19,3.4.61,5.04,1.98-.27,3.9-.99,5.57-2.09.42-.28.84-.59,1.13-1.01.3-.44.44-.97.71-1.44.92-1.61,3.03-2.06,4.37-3.34,1.1-1.04,1.6-2.56,1.89-4.05.29-1.49.4-3.02.91-4.45,1.21-3.44,2.9-6.61.84-10.16-.38-.66-.88-1.27-1.52-1.68-.99-.63-2.22-.73-3.36-.98-1.41-.3-3.15-.87-4.23-1.86-1.11-1.01-1.61-2.34-2.32-3.62-.42-.76-.98-1.43-1.53-2.1-1.17-1.42-2.35-2.84-3.77-4-1.55-1.26-3.34-2.18-5.12-3.1-2.08-1.06-4.21-2.15-6.53-2.41-2.42-.28-4.84.35-7.2.98-2.17.58-4.11,1.52-6.35,1.78-.98.11-1.96.09-2.94.18-5.03.45-9.64,4.05-11.3,8.82-.47,1.35-.72,2.77-1.23,4.11-.77,2.02-2.1,3.81-2.73,5.88-.21.68-.34,1.39-.59,2.06-.22.57-.52,1.1-.86,1.61-.87,1.3-1.98,2.44-3.25,3.35-2.65,1.9-2.25,6.72-.4,9.4,1.37,1.99,3.69,3.06,5.92,3.97.32.13.65.26.99.25-.12-.15-.22-.32-.29-.5.42,2.49,1.29,4.91,2.56,7.1.36.61.75,1.21,1.27,1.7.89.82,2.07,1.24,3.24,1.57,1.74.49,3.71.82,5.29-.06.89,1.09,2.33,1.61,3.73,1.66,1.4.06,2.79-.29,4.14-.68.99-.28,2.16-.8,2.25-1.83.07-.82-.67-1.52-1.46-1.78-.79-.26-1.64-.21-2.45-.33-1.52-.22-2.91-1-4.08-2s-2.11-2.22-3.04-3.45c-1.13-1.51-2.24-3.05-3.04-4.75-.53-1.14-.93-2.34-1.17-3.57-.23-1.16-.55-2.3-.77-3.46-.24-1.23-.19-1.3.84-2.12,1.79-1.42,3.71-2.67,5.42-4.21,2.77-2.5,4.9-5.65,6.73-8.9,2.96,1.08,5.7,3.68,8,5.79,2.63,2.42,5.23,4.25,8.44,5.91,1.85.96,4.15.86,5.28,2.79.33.57.49,1.22.64,1.85.01.05.03.11.04.16Z" style="fill: #4b4c4e;"/>
              <path d="M117.46,117.56c1.96.94,6.34-1.42,6.98-3.59.64-2.17,2.72-2.59,3.61-2.92,4.6-1.72,3.8-10.08,3.8-10.08,2.72-3.77,2.69-5.44,1.64-9.22-1.05-3.78-6.17-3.21-6.17-3.21-5.51-.96-4.37-4.46-7.55-7.89-14.19-15.28-27.29-6.56-27.29-6.56,0,0-12.25-2.16-16.28,10.39-4.03,12.55-5.34,13.71-6.74,14.69-1.4.98-6.69,6.77.88,13.24,0,0,2.07,1.1,4.3,1.57,0,0,1.77,12.54,11.56,9.67,0,0,2.74,3.03,8.35.94" style="fill: none; stroke: #2e3138; stroke-linecap: round; stroke-miterlimit: 10; stroke-width: 1.4px;"/>
              <path d="M80.13,102.41c8.74-4.56,13.48-14.71,13.48-14.71,0,0,11.28,10.77,23.23,14.06" style="fill: none; stroke: #2e3138; stroke-linecap: round; stroke-miterlimit: 10; stroke-width: 1.4px;"/>
              <path d="M80.13,102.41s2.07,24.08,20.57,17.57" style="fill: none; stroke: #2e3138; stroke-linecap: round; stroke-miterlimit: 10; stroke-width: 1.4px;"/>
              <path d="M115.93,101.23s.96,20.85,2.41,23.94" style="fill: none; stroke: #2e3138; stroke-linecap: round; stroke-miterlimit: 10; stroke-width: 1.4px;"/>
              <path d="M102.09,77.38c1.96.57,3.71,1.82,4.89,3.48.9,1.27,1.53,2.82,2.87,3.6" style="fill: none; stroke: #2e3138; stroke-linecap: round; stroke-miterlimit: 10; stroke-width: 1.4px;"/>
              <path d="M110.94,88.08c.6.52,1.19,1.04,1.79,1.56.85.74,1.86,1.53,2.97,1.36" style="fill: none; stroke: #2e3138; stroke-linecap: round; stroke-miterlimit: 10; stroke-width: 1.4px;"/>
              <path d="M115.42,82.77c1.18.51,2.11,1.56,2.49,2.79.3.98.28,2.1.9,2.93.55.73,1.48,1.05,2.35,1.33" style="fill: none; stroke: #2e3138; stroke-linecap: round; stroke-miterlimit: 10; stroke-width: 1.4px;"/>
              <path d="M125.83,92.09c.6.65,1.22,1.31,1.64,2.09s.64,1.71.41,2.57" style="fill: none; stroke: #2e3138; stroke-linecap: round; stroke-miterlimit: 10; stroke-width: 1.4px;"/>
              <path d="M126.81,103.89c-.06.72-.12,1.43-.17,2.15-.05.64-.11,1.29-.36,1.88s-.74,1.12-1.37,1.24" style="fill: none; stroke: #2e3138; stroke-linecap: round; stroke-miterlimit: 10; stroke-width: 1.4px;"/>
              <path d="M79.77,115.86c-.71,1.77-.01,3.99,1.58,5.03" style="fill: none; stroke: #2e3138; stroke-linecap: round; stroke-miterlimit: 10; stroke-width: 1.4px;"/>
              <path d="M73.7,101.57c-1.16,2.58-.74,5.79,1.04,7.99" style="fill: none; stroke: #2e3138; stroke-linecap: round; stroke-miterlimit: 10; stroke-width: 1.4px;"/>
              <path d="M88.65,79.9c-1.5.52-3.14,1.15-3.9,2.54-.43.8-.51,1.73-.74,2.61-.53,2.05-1.87,3.81-3.47,5.19s-3.46,2.42-5.31,3.45" style="fill: none; stroke: #2e3138; stroke-linecap: round; stroke-miterlimit: 10; stroke-width: 1.4px;"/>
              <path d="M95.21,98.42c-.77.33-1.59.54-2.42.6" style="fill: none; stroke: #2e3138; stroke-linecap: round; stroke-miterlimit: 10; stroke-width: 1.4px;"/>
              <path d="M96.47,100.73c-1.16.52-2.41.85-3.68.97" style="fill: none; stroke: #2e3138; stroke-linecap: round; stroke-miterlimit: 10; stroke-width: 1.4px;"/>
              <path d="M97.26,105.88c-.07,1.23-.31,2.45-.71,3.61-.19.56-.43,1.17-.25,1.74.16.52.64.9,1.16,1.08.75.27,1.7.14,2.17-.51" style="fill: none; stroke: #2e3138; stroke-linecap: round; stroke-miterlimit: 10; stroke-width: 1.4px;"/>
              <line x1="96.5" y1="121.7" x2="99.36" y2="129.98" style="fill: none; stroke: #2e3138; stroke-linecap: round; stroke-miterlimit: 10; stroke-width: 1.4px;"/>
              <path d="M103.65,105.64c1.06,0,2.12-.18,3.13-.52" style="fill: none; stroke: #2e3138; stroke-linecap: round; stroke-linejoin: round; stroke-width: 1.4px;"/>
              <path d="M87.33,107.75c1.34.29,2.75.29,4.09,0" style="fill: none; stroke: #2e3138; stroke-linecap: round; stroke-linejoin: round; stroke-width: 1.4px;"/>
            </g>
            <path d="M118.64,125.02c3.43,2.46,2.89,2.09,5.29,2.62" style="fill: none; stroke: #2e3138; stroke-linecap: round; stroke-miterlimit: 10; stroke-width: 1.4px;"/>
            <path d="M99.46,129.91c-.79.42-1.46.96-2.2,1.46-.82.57-1.58.74-.9,1.86,1.36,2.21,3.83,3.59,6.39,4.03,2.56.43,5.2,0,7.68-.79,5.01-1.6,8.58-4.37,12.28-7.97.36-.35.25-.32.73-.47.91-.29,1.72-.26,2.74-.24" style="fill: none; stroke: #2e3138; stroke-linecap: round; stroke-miterlimit: 10; stroke-width: 1.4px;"/>
            <path d="M96.49,131.24c-.94-.07-1.72.89-1.76,1.84s.47,1.83,1.06,2.57c2.46,3.07,6.55,4.56,10.48,4.43s7.7-1.74,10.96-3.94,6.08-4.98,8.88-7.75" style="fill: none; stroke: #2e3138; stroke-linecap: round; stroke-miterlimit: 10; stroke-width: 1.4px;"/>
          </g>
          <g>
            <path d="M89.94,130.01c-.21.92-.68,1.75-1.14,2.57-.51.91-1.03,1.82-1.54,2.72-1.56,2.76-3.81,5.17-5.74,7.69-1.25,1.64-2.5,3.21-3.66,4.91-.6.88-1.2,1.76-1.8,2.63-.3.44-.6.88-.9,1.32-.17.24-.82.91-.82,1.2-.14.2-.29.41-.5.53-.27.14-.59.11-.89.08-1.23-.13-2.46-.26-3.7-.4-.74-.08-.85-.16-1.25.47-.32.49-.62.99-.93,1.49-1.2,1.96-2.33,3.97-3.16,6.12-.62,1.6-1.07,3.26-1.47,4.92-.42,1.72-.78,3.46-.94,5.22-.08.88,0,1.41.26,2.23.27.83.57,1.65.96,2.43,1.21,2.41,3.44,4.46,6.12,4.81,1.31.17,2.64-.06,3.93-.34.42-.09.84-.19,1.22-.39.59-.31,1.02-.84,1.44-1.36,0-.18.54-.67.66-.83.26-.33.52-.65.78-.98.5-.63,1.01-1.25,1.51-1.88.5-.63,1.01-1.25,1.51-1.88.41-.51.94-1.01,1.25-1.57.72-1.34,1.2-2.88,1.77-4.29.58-1.44,1.13-2.88,1.66-4.33,1.18-3.26,1.88-6.61,2.83-9.89.53-1.83,1.39-3.62,2.07-5.4.35-.9.69-1.8,1.04-2.7.26-.68.97-1.8.97-2.52.67-1.76,1.35-3.52,1.97-5.3.9-2.59,1.69-5.22,2.36-7.87.29-1.13.76-2.4.66-3.56-.1-1.19-.41-2.45-.7-3.6-.24-.93-.55-1.87-1.15-2.62-.64-.79-1.56-1.29-2.47-1.73-1.46-.7-2.98-1.3-4.31-2.21-1.33-.92-2.49-2.23-2.8-3.81-.24-1.21.05-3.15-.98-4.09-.46-.42-.96-.19-1.51-.35-.59-.17-.79-.76-1.33-.95-.36-.13-.76.09-.98.4s-.29.7-.35,1.07c-.24-.19-.62-.07-.81.17-.19.24-.23.56-.27.87-.23,1.91-.46,3.82-.68,5.73-.11.89-.21,1.79-.06,2.68.15.85.53,1.65.97,2.4,1.25,2.14,2.97,4.01,5,5.44,2.14,1.51,4.79,2.72,5.74,5.16,1.4-1.36,3.63-1.28,5.41-2.09.4-.18.8-.42,1.03-.8.08-.13.13-.27.17-.41" style="fill: #fff;"/>
            <path d="M96.47,128.27c-.11-2.24-.52-4.47-1.22-6.61-.79-2.43-3.35-3.32-5.54-4.35-.89-.42-1.82-.81-2.61-1.4-1.39-1.04-2.29-2.71-2.4-4.44-.05-.83.07-1.66-.08-2.48-.12-.7-1.46-2.64-2.09-1.32-.23.49-.09,1.41-.18,1.96-.15.91-.33,1.83-.24,2.75.08.81.38,1.58.67,2.35.44,1.16.89,2.32,1.33,3.48" style="fill: none; stroke: #2e3138; stroke-linecap: round; stroke-miterlimit: 10; stroke-width: 1.4px;"/>
            <path d="M82.33,108.56c-.15-.34-.29-.69-.44-1.03-.17-.39-.42-.84-.85-.84-.47,0-.72.56-.82,1.02-.88,4.04.12,8.45,2.66,11.71-.03-.08-.05-.17-.08-.25" style="fill: none; stroke: #2e3138; stroke-linecap: round; stroke-linejoin: round; stroke-width: 1.4px;"/>
            <path d="M79.66,108.17c.02-.18-.28-.19-.43-.09-.57.41-.67,1.19-.7,1.89-.18,3.87.47,7.91,2.65,11.12" style="fill: none; stroke: #2e3138; stroke-linecap: round; stroke-linejoin: round; stroke-width: 1.4px;"/>
            <path d="M78.25,113.21c-.64,2.46.18,5.06,1.18,7.4,1.26,2.95,4.2,4.53,6.93,5.95.66.34,1.33.67,1.9,1.14.89.72,1.49,1.73,1.94,2.78" style="fill: none; stroke: #2e3138; stroke-linecap: round; stroke-miterlimit: 10; stroke-width: 1.4px;"/>
            <path d="M96.47,128.27c-3.17,13.73-13.82,43.95-20.53,49.7-2.55,2.19-6.09,3.88-9.21,2.64-2.21-.88-3.69-3.07-4.31-5.37-2.07-7.63,3.45-15.33,6.07-22.27" style="fill: none; stroke: #2e3138; stroke-linecap: round; stroke-miterlimit: 10; stroke-width: 1.4px;"/>
            <path d="M89.79,130.41c-6.66,10.28-14.55,20.84-20.75,31.4" style="fill: none; stroke: #2e3138; stroke-linecap: round; stroke-miterlimit: 10; stroke-width: 1.4px;"/>
            <path d="M88.9,130.71c-5.68.33-10.75,3.8-14.61,7.98-3.5,3.78-6.27,8.22-8.13,13.02,2.47,1.03,5.1,1.65,7.77,1.83" style="fill: none; stroke: #2e3138; stroke-linecap: round; stroke-miterlimit: 10; stroke-width: 1.4px;"/>
          </g>
          <path d="M67.8,149.35c2.26,1.18,4.74,1.91,7.28,2.13" style="fill: none; stroke: #2e3138; stroke-linecap: round; stroke-miterlimit: 10; stroke-width: 1.4px;"/>
          <path d="M125.17,127.77c6.32.14,12.8,2.05,17.24,6.85,4.65,5.03,6.24,11.96,7.25,18.53.23,1.47.93,3.23-.18,4.06-1.24.93-4.73.89-6.27,1.11-4.07.59-8.18.93-12.29,1.01" style="fill: none; stroke: #2e3138; stroke-linecap: round; stroke-miterlimit: 10; stroke-width: 1.4px;"/>
          <path d="M38.32,171.87h23.16" style="fill: none; stroke: #2e3138; stroke-linecap: round; stroke-miterlimit: 10; stroke-width: 1.4px;"/>
          <line x1="81.02" y1="172.05" x2="133.76" y2="172.22" style="fill: none; stroke: #2e3138; stroke-linecap: round; stroke-miterlimit: 10; stroke-width: 1.4px;"/>
          <path d="M146.65,173.37c0-.12,43.03-.09,43.03-.09" style="fill: none; stroke: #2e3138; stroke-linecap: round; stroke-miterlimit: 10; stroke-width: 1.4px;"/>
          <path d="M101,119.47c-.52-.38-.65-1.06-.74-1.68-.14-.96-.26-2.02.29-2.83.66-.97,2.04-1.23,3.26-1.23.52,0,1.06.03,1.54.24.73.31,1.23.99,1.48,1.71.25.72.29,1.49.32,2.25" style="fill: none; stroke: #2e3138; stroke-linecap: round; stroke-miterlimit: 10; stroke-width: 1.4px;"/>
          <g>
            <path d="M107.35,123.93c-.62-1.2-1.23-2.39-1.85-3.59-.62-1.2-1.25-2.42-2.23-3.36-1.27-1.23-3-1.84-4.67-2.42-.89,1.31-1.36,2.91-1.32,4.5-.44-.03-.89-.06-1.33-.1-1.01,1.61,1.62,3.47,1.22,5.33-.09.42-.34.8-.35,1.23-.02.51.28.96.58,1.38,1.68,2.34,3.61,4.51,5.74,6.44,1.32,1.2,2.72,2.31,3.87,3.67,1.12,1.31,1.98,2.81,2.83,4.3,1.11,1.94,2.17,3.92,3.21,5.91.9,1.71,2.23,2.94,3.28,4.57,2.12,3.27,3.36,7.02,5.43,10.32.44.71.92,1.39,1.35,2.11.68,1.16,1.03,2.51,1.72,3.64.56.93,1.41,1.81,2.11,2.66,1.63,1.96,3.41,3.81,5.36,5.46,3.18,2.7,8.27,7.13,12.33,3.42,1.47-1.34,1.89-3.47,2.09-5.45.28-2.75.24-5.48.08-8.24-.07-1.18.43-2.28.48-3.48.05-1.26-.14-2.53-.56-3.71-3.03.05-6.05.31-9.04.76-.6.09-1.44.2-1.99-.14-.63-.39-.84-1.3-1.33-1.87-1.78-2.06-3.85-3.86-5.6-5.95-2.55-3.03-5.1-6.06-7.65-9.09-1.98-2.36-4-4.76-5.29-7.59-1.14-2.5-.52-5.23-.47-7.94.05-2.71-.56-5.75-2.81-7.26-1.35-.91-1.8,4.97-1.86,5.24-.5,2.43-2.54.74-3.31-.76Z" style="fill: #fff;"/>
            <path d="M110.81,127.06c.28-2.24-.55-4.72.64-6.63.4-.64,1.13-1.18,1.87-1,.92.23,1.21,1.37,1.34,2.31.33,2.42.65,4.88.26,7.28-.2,1.27-.6,2.57-.24,3.81.2.71.64,1.33,1.07,1.92,2.35,3.24,4.83,6.39,7.45,9.43,6.03,7,11.97,13.36,17.18,20.99" style="fill: none; stroke: #2e3138; stroke-linecap: round; stroke-miterlimit: 10; stroke-width: 1.4px;"/>
            <path d="M110.08,127.1c-2.3-2.24-4.22-4.87-5.63-7.75-.36-.74-.75-1.51-1.18-2.2-.36-.59-.76-1.21-1.39-1.48-.08-.04-.18-.07-.27-.05-.1.02-.19.08-.26.16-.64.66-.41,1.74-.13,2.62.83,2.65,1.72,5.35,3.38,7.57" style="fill: none; stroke: #2e3138; stroke-linecap: round; stroke-miterlimit: 10; stroke-width: 1.4px;"/>
            <path d="M100.72,116.84c-.24-.32-.36-.7-.56-1.04-.2-.34-.51-.66-.9-.69-.38-.03-.74.23-.93.56-.19.33-.25.72-.27,1.1-.14,1.95.34,3.9,1.09,5.7.75,1.8,1.78,3.47,2.8,5.13" style="fill: none; stroke: #2e3138; stroke-linecap: round; stroke-miterlimit: 10; stroke-width: 1.4px;"/>
            <path d="M98.13,120.64c-.15-.31-.3-.63-.51-.91s-.5-.51-.84-.59c-.48-.11-.92.14-1.07.6-.3.96.2,1.97.68,2.85,1.31,2.4,2.69,4.83,4.77,6.61" style="fill: none; stroke: #2e3138; stroke-linecap: round; stroke-miterlimit: 10; stroke-width: 1.4px;"/>
            <path d="M136.32,159.29c3.41-.62,6.98-.88,10.44-1.08.4,4.92.53,12.6-.49,17.43-.33,1.57-.9,3.22-2.22,4.12-1.49,1-3.48.75-5.19.23-1.55-.47-3.05-1.12-4.44-1.94-7.78-4.56-11.56-14.56-15.89-22.08-3.19-5.54-6.48-11.03-9.54-16.64-.31-.57-.63-1.15-1.08-1.63-.45-.48-1.01-.83-1.55-1.2-1.57-1.08-3.03-2.32-4.48-3.56-1.31-1.12-2.63-2.26-3.61-3.68-.97-1.41-1.55-3.09-1.68-4.79-.03-.38.14-.91.51-.81" style="fill: none; stroke: #2e3138; stroke-linecap: round; stroke-miterlimit: 10; stroke-width: 1.4px;"/>
          </g>
          <path d="M134.33,156.59c5.14-.27,10.04-.46,14.8-2.43" style="fill: none; stroke: #2e3138; stroke-linecap: round; stroke-miterlimit: 10; stroke-width: 1.4px;"/>
          <path d="M106.99,112.07c.88.12,1.61.96,1.61,1.86" style="fill: none; stroke: #2e3138; stroke-linecap: round; stroke-miterlimit: 10; stroke-width: 1.4px;"/>
          <path d="M95.69,115.43c-.34.19-.58.55-.61.94-.04.39.13.79.43,1.03" style="fill: none; stroke: #2e3138; stroke-linecap: round; stroke-miterlimit: 10; stroke-width: 1.4px;"/>
        </g>
        <path d="M123.9,72.67c-1.61-.63-3.26-1.29-4.47-2.52-1.2-1.23-1.83-3.21-1-4.72.68-1.24,2.1-1.84,3.28-2.63,2.59-1.73,4.28-4.75,4.39-7.86.03-.99-.1-2.03-.7-2.81-.5-.65-1.26-1.05-1.99-1.42-2.43-1.24-4.86-2.48-7.29-3.72-1.6-.82-3.25-1.67-4.38-3.07-1.13-1.4-1.59-3.51-.59-5,.97-1.47,2.91-1.87,4.65-2.14,7-1.09,14.56-1.91,20.83,1.39.41,1.35-1.45,2.18-2.86,2.31-6.28.57-12.67-.04-18.74-1.78-.85-.24-1.8-.62-2.08-1.45-.19-.58.02-1.22.28-1.78,1.45-3.12,4.42-5.35,7.64-6.58,3.22-1.23,6.7-1.57,10.13-1.79-2.02.41-4.11.46-6.15.17.55-.63,1.32-1.07,2.15-1.22" style="fill: none; stroke: #2e3138; stroke-linecap: round; stroke-miterlimit: 10; stroke-width: 1.4px;"/>
      </g>
      <rect width="228" height="228" style="fill: none;"/>
    </g>
  </g>
</svg>