<?xml version="1.0" encoding="UTF-8"?>
<svg id="_圖層_2" data-name="圖層 2" xmlns="http://www.w3.org/2000/svg" xmlns:xlink="http://www.w3.org/1999/xlink" viewBox="0 0 1493.6 564.06">
  <defs>
    <linearGradient id="_未命名漸層_7" data-name="未命名漸層 7" x1="0" y1="282.03" x2="1493.6" y2="282.03" gradientUnits="userSpaceOnUse">
      <stop offset="0" stop-color="#ecf1f5"/>
      <stop offset="0" stop-color="#fff"/>
      <stop offset="1" stop-color="#f5f2e0"/>
    </linearGradient>
  </defs>
  <g id="_圖層_1-2" data-name="圖層 1">
    <path d="M18.16,52.52c10.92,13.52,26.14,23.2,43.65,24.79,16.52,1.5,31.86-1.6,48.15-3.05,65.98-5.86,137.62,25.22,184.88,70.09,45.43,43.13,79.66,98.91,135.07,130.75,82.05,47.14,194.24,48.11,281.36,16.24,45.33-16.58,88.39-42.65,136.52-46.26,26.68-2,53.87,3.25,77.88,15.04,43.94,21.58,77.91,64.54,126.13,73,31.32,5.5,62.93-4.79,94.16-10.77,67.9-12.98,146.84-1.38,190.17,52.48,22.9,28.47,32.98,64.95,50.86,96.82,20.27,36.14,61.21,83.82,103.63,92.4,6.17-43.8.86-92.54.86-136.99V1.11s-.54,0-.57,0c-86.78-.08-173.56-.15-260.34-.22-187.89-.16-375.79-.32-563.68-.48-105.78-.09-211.55-.18-317.33-.27C298.28.09,247.01.05,195.73,0c-21.26-.02-42.51.13-63.77.26C104.44.43,0,1.69.02,1.11c-.49,17.87,6.59,37.11,18.13,51.41Z" style="fill: url(#_未命名漸層_7);"/>
  </g>
</svg>