<?xml version="1.0" encoding="UTF-8"?>
<svg id="_圖層_2" data-name="圖層 2" xmlns="http://www.w3.org/2000/svg" viewBox="0 0 1935.6 719.02">
  <g id="_圖層_1-2" data-name="圖層 1">
    <path d="M1.06,3.57c78.04-15.28,162.98,20.86,230.17,63.12,67.18,42.26,131.96,92.68,209.32,111.07,104.19,24.77,214.3-12.59,320.24,3.27,121.58,18.21,224.08,104.13,345.16,125.33,75.87,13.29,153.53.22,230.45-4.09,53.83-3.01,109.71-1.29,161.11,16.42,34.49,11.88,71.84,21.28,104.61,37.39,28.37,13.95,52.14,33.54,85.23,36.13,21.48,1.68,42.81-4.01,64.32-5.15,38.91-2.05,78.42,11.55,107.7,37.06,23.81,20.75,44.63,51.27,76.23,53.63v240.86c-16.09,2.82-29.63-10.41-42.23-20.72-59.72-48.86-146.32-43.65-222.69-31.19-97.26,15.88-194.02,39.41-292.59,39.55-31.98.05-64.4-2.47-94.58-12.97-31.02-10.8-58.52-29.61-84.46-49.65-34.49-26.64-62.3-54.68-102.98-74.37-38.22-18.5-79.23-31.18-121.07-38.56-76.12-13.43-154.55-9.74-230.76,3.17-44.97,7.62-89.5,18.44-134.96,22.17-40.44,3.32-81.35.92-121.13-7.01-39.49-7.87-63.82-25.44-97.61-46.07-49.12-29.98-107.39-49.07-164.45-40.76-22.72,3.31-44.62,10.83-67.23,14.84-39.17,6.94-80.24,3-117.34-11.26-14.41-5.54-31.7-17.17-40.89-29.49,0,0,.06-95.33.04-121.55-.03-49.45-.05-98.9-.04-148.34.01-54.17-1.65-108.69.44-162.84Z" style="fill: #f0f5f8;"/>
  </g>
</svg>