<?xml version="1.0" encoding="UTF-8"?>
<svg id="_圖層_2" data-name="圖層 2" xmlns="http://www.w3.org/2000/svg" xmlns:xlink="http://www.w3.org/1999/xlink" viewBox="0 0 1920 889">
  <defs>
    <clipPath id="clippath">
      <rect y="0" width="1920" height="889" style="fill: none;"/>
    </clipPath>
    <linearGradient id="_未命名漸層_7" data-name="未命名漸層 7" x1="-32.33" y1="424.98" x2="1988.02" y2="424.98" gradientUnits="userSpaceOnUse">
      <stop offset="0" stop-color="#ecf1f5"/>
      <stop offset="0" stop-color="#fff"/>
      <stop offset="1" stop-color="#f5f2e0"/>
    </linearGradient>
  </defs>
  <g id="_圖層_1-2" data-name="圖層 1">
    <g style="clip-path: url(#clippath);">
      <path d="M1947.1,9.76c-77.57,20.33-138.75,79.42-212.1,111.8-193.16,85.27-419.25-28.85-626.87,9.58-99.53,18.42-190.47,71.4-290.52,86.75-110.37,16.94-223.45-13.14-334.35-.16-69.72,8.16-137.35,33.57-195.19,73.35-45.64,31.39-85.01,71.35-131.52,101.42-46.51,30.07-104.07,49.95-157.32,34.71-12.43-3.55-15.31-11.83-28.24-11.83v324.16c0,25.04-10.04,79.74,4.77,100.66,23.52-12.04,44.38-43.39,68.29-59.33,24.24-16.17,50.68-29.01,78.09-38.83,60.62-21.71,125.4-29.14,189.7-32.42,36.93-1.88,74.11-2.44,110.72,2.77,33,4.7,65.15,14.03,97.85,20.47,104.07,20.5,213.6,9.92,312.6-27.74,50.82-19.33,93.26-47.56,138.73-76.39,45.67-28.96,77.69-66.5,115.39-105.44,89.27-92.2,210.66-152.68,338.03-168.41,96.42-11.91,200.01-.21,285.33-46.68,45.37-24.71,82.86-64.82,132.48-79.23,49.12-14.26,109.58-3.74,145.03-40.6-39.59-47.58-55.83-118.54-40.92-178.62Z" style="fill: url(#_未命名漸層_7);"/>
    </g>
  </g>
</svg>