<?xml version="1.0" encoding="UTF-8"?>
<svg xmlns="http://www.w3.org/2000/svg" viewBox="0 0 370.37 575.49">
  <g style="isolation: isolate;">
    <g id="_圖層_2" data-name="圖層 2">
      <g id="_圖層_1-2" data-name="圖層 1">
        <g>
          <ellipse cx="204.06" cy="511.85" rx="150.81" ry="63.64" style="fill: #e6e6e7; mix-blend-mode: multiply;"/>
          <path d="M86.76,501.49c-1.13,1.65-2.33,3.3-3.96,4.44-1.04.73-2.23,1.23-3.33,1.86-5.79,3.32-8.88,10.01-10.05,16.58-.62,3.49-.8,7.12.12,10.54.92,3.42,3.05,6.62,6.18,8.28,2.69,1.42,5.84,1.61,8.88,1.74,7.83.34,15.86.51,23.26-2.08,1.68-.59,3.32-1.32,4.75-2.36,1.3-.94,2.4-2.11,3.47-3.31,5.67-6.37,10.35-13.62,13.83-21.4,3.18-7.11,5.37-14.84,4.87-22.6-.02-.35-.06-.72-.29-.98-.23-.26-.59-.34-.93-.41-6.13-1.23-12.47-1.34-18.54-2.83-3.58-.88-7.03-2.23-10.62-3.02-2.37-.52-4.83-.8-7.26-.52-2.4.28-3.42.51-3.96,2.86-1.12,4.87-3.6,9.14-6.4,13.23Z" style="fill: #fff;"/>
          <path d="M172.37,516.49c-1.13,1.64-2.33,3.3-3.96,4.44-1.04.73-2.23,1.23-3.33,1.86-5.79,3.32-8.88,10.01-10.05,16.58-.62,3.49-.8,7.12.12,10.54.92,3.42,3.05,6.62,6.18,8.28,2.69,1.42,5.84,1.61,8.88,1.74,7.83.34,15.86.51,23.26-2.08,1.68-.59,3.32-1.32,4.75-2.36,1.3-.94,2.4-2.11,3.47-3.31,5.67-6.37,10.35-13.62,13.83-21.4,3.18-7.11,5.37-14.84,4.87-22.6-.02-.35-.06-.72-.29-.98-.23-.26-.59-.34-.93-.41-6.13-1.23-12.47-1.34-18.54-2.83-3.58-.88-7.03-2.23-10.62-3.02-2.37-.52-4.83-.8-7.26-.52-2.4.28-3.42.51-3.96,2.86-1.12,4.87-3.6,9.14-6.4,13.23Z" style="fill: #fff;"/>
          <path d="M167.35,468.97c.15.8.27,1.68.87,2.23.4.37.95.52,1.47.66,1.05.28,2.1.56,3.15.84.17.05.36.09.53.01.11-.05.19-.16.26-.27.99-1.62.09-6.47-1.7-7.46-1.03-.57-2.38-.22-3.4.19-2.31.93-1.56,1.71-1.18,3.8Z" style="fill: #858587;"/>
          <path d="M240.29,440.59c.89.28,1.76.55,2.6,1.14.21.15.42.31.52.54.11.24.09.51.07.77-.21,3.09-.87,6.16-1,9.21-.16,3.74-.25,7.49-.37,11.24.04-1.14,4.22-3.84,5.12-4.52,1.97-1.49,4.07-2.81,6.25-3.96,4.3-2.26,8.84-3.3,13.32-4.69.97-.3,2.03-.23,3.01.01.42.1.85.24,1.2.49.95.67,1.19,2.17.48,3.09-.22.29-.51.52-.76.77-.68.68-1.03,1.5-1.7,2.18-.99,1.01-2.27,1.84-3.38,2.72-2.17,1.74-4.36,3.46-6.55,5.16s-4.41,3.39-6.63,5.06c-1.16.87-2.32,1.73-3.48,2.59-.68.5-2.42,2.32-3.23,2.36,7.03-.38,14.12.31,20.96,2.02,3.42.85,6.77,1.96,10.02,3.31,1.58.66,3.15,1.66,4.77,2.18,1.5.48,3,.6,4.45,1.35,1.15.59,2.2,1.45,2.82,2.58.56,1.03.72,2.27.46,3.42-.1.43-.26.85-.51,1.22-.36.53-.89.92-1.44,1.23-3.88,2.17-9.56.05-13.44-1.16-6.41-2.14-13.3-2.91-20-3.54-6.67-.62-13.3-1.34-19.95-1.92-1.96-.17-4.16-.26-5.64,1.04-.51.45-1.02,1.1-1.7,1.02-.74-.09-1.08-.98-1.14-1.73-.21-2.61.33-5.09.02-7.71-.29-2.48-.07-5.17.1-7.66.35-5.39,1.17-10.79.76-16.2-.25-3.23-.94-6.43-1.01-9.67-.06-2.69.1-8.03,3.43-8.61,2.32-.4,4.96,1.24,6.9,2.28,1.09.59,2.18,1.41,3.32,1.88.45.19.91.33,1.35.47Z" style="fill: #858587;"/>
          <path d="M276.51,101.68c16.04,1.37,31.98,3.84,47.68,7.38,7.73,1.75,15.45,3.7,23.03,6.03,5.3,1.63,13.01,5.02,16.44,9.49,1.75,2.28,2.64,5.08,3.34,7.86,2.12,8.37,2.8,17.1,2.03,25.7-.77,8.71-1.47,17.28-1.91,26.05-.39,7.79-.77,15.59-1.87,23.32-.37,2.58-.81,5.15-1.06,7.74-.26,2.72-.3,5.45-.41,8.17-.66,16.12-4.47,31.78-5.62,47.86-1.18,16.5-.82,33.06-.93,49.59-.09,13.73-.51,27.49-2.39,41.11-.72,5.2-1.65,10.4-3.32,15.38-4.81,14.38-15.34,26-25.6,37.17-9.91,10.8-20.31,21.94-33.95,27.34-20.63,8.17-43.83,1.52-64.99-5.17-.38-.12,1.22-12.05,1.34-13.21.23-2.26.46-4.52.69-6.77.19-1.83-.23-3.12.4-4.83.34-.94.21-1.98.07-2.97-.28-2.04-.57-4.09-.85-6.13-.05-.34-.09-.7.01-1.03.18-.56.76-.89,1.29-1.14,1.36-.64,2.91-.88,4.24-1.52,1.12-.54,2.18-1.48,3.24-2.16,2.79-1.78,5.57-3.55,8.36-5.33,5.57-3.55,11.15-7.1,16.72-10.65,2.41-1.53,6.43,2.44,8.3,4.07,4.46,3.87,7.89,8.76,11.28,13.6,1.17,1.68,2.35,3.36,3.52,5.03.4.58.83,1.17,1.46,1.49,1.41.7,3.04-.32,4.27-1.3,12.67-10.15,24.26-22.23,33.94-35.27,3.33-4.49,6.55-9.38,7.22-14.94.35-2.89,0-5.81-.37-8.7-1.16-9.28-2.31-18.57-3.47-27.85-1.56-12.52,13.42-16.26,20.54-23.76.6-17.59,2.8-34.98,3.52-52.57.52-12.57,1.06-24.81-3.49-36.7-6.39-16.71-12.78-33.44-19.95-49.83-1.25-2.87-2.54-5.73-4.17-8.4-4.25-6.94-10.77-12.3-17.93-16.18-7.16-3.88-14.97-6.39-22.82-8.57-1.33-3.98-4.96-7.11-7.69-10.3-.31-.36-.62-.75-.74-1.21-.13-.51,0-1.05.11-1.57.43-2.05.68-4.24.47-6.33Z" style="fill: #ffb27a;"/>
          <polygon points="276.61 117.38 304.5 127.98 318.8 136.83 327 148.46 344.43 188.86 356.67 221.89 363.99 253.92 365.64 270.28 363.84 278.28 361.99 283.23 348.52 295.62 329.57 309.82 329.1 315.37 330.53 327.88 333.15 345.56 331.93 355.43 328.01 364.62 313.29 383.57 291.83 404.84 288.7 405.95 285.25 404.29 278.01 392.44 265.71 380.48 247.76 370.55 231.46 366.39 223.4 365.58 206.9 367.66 213.83 352.32 227.75 333.43 238.5 310.71 246.7 288.11 258.35 230.92 260.87 217.96 271.6 155.15 276.61 117.38" style="fill: #fff;"/>
          <path d="M209.62,23.97c-2.09.63-3.34,2.87-3.58,5.05-.24,2.17.3,4.34.63,6.51,1.17,7.71-.37,15.54-1.91,23.19-.34,1.71-.71,3.48-1.7,4.91-.87,1.25-2.15,2.17-3.04,3.4-1.72,2.38-1.72,5.56-1.66,8.49.08,3.45.16,6.93.95,10.29.67,2.83,1.83,5.52,2.75,8.29,2.9,8.71,3.38,18.21,1.38,27.17,6.54,8.67,13.85,17.21,21.99,24.4,1.56,1.38,3.34,2.8,5.42,2.8,1.26,0,2.46-.54,3.61-1.07,2.78-1.27,5.56-2.55,8.33-3.82,3.97-1.82,7.97-3.66,11.54-6.17,3.04-2.14,5.71-4.74,8.38-7.33,3.39-3.29,6.77-6.58,10.16-9.88.57-.55,1.14-1.12,1.49-1.83.37-.77.44-1.64.51-2.49.35-4.57.7-9.14,1.05-13.71.17-2.29.35-4.57.52-6.86.12-1.51-.3-5.11.48-6.36.53-.86,2.68-1.41,3.56-2.21,1.07-.97,1.88-2.19,2.46-3.51,1.13-2.59,1.35-5.56.95-8.34-.25-1.77-1.01-3.72-2.68-4.33-.69-.25-1.44-.24-2.17-.23-2.66.06-5.33.11-7.99.17.11-2.93.45-6.13.57-9.06.09-2.29.18-4.6-.09-6.88-.49-4.21-2.16-8.17-3.82-12.07-1.1-2.59-2.21-5.19-3.59-7.65-.29-.52-.63-1.06-1.17-1.31-.44-.2-.95-.18-1.44-.16-4.22.19-8.46-.19-12.57-1.15-1.29-.3-2.57-.66-3.75-1.26-1.11-.57-2.11-1.33-3.14-2.03-2.94-2-6.2-3.46-9.44-4.92-1.88-.84-3.78-1.69-5.8-2.09-2.44-.48-4.96-.29-7.43,0-3.21.38-6.67,1.11-9.77,2.04Z" style="fill: #fff;"/>
          <path d="M203.39,115.51l-21.15,10.39-13.06,8.73-8.49,9.23-7.23,11.26-13.49,25.96-11.58,27.12-61.3-43.31-8.34,13.56-8.17,20.52-.84,3.09,39.93,30.3,14.58,8.48,16.62,10.53,13.15,8.58,5.5,1.13,5.9-2.27,8.57-11.97,9.99-19.34-.52,69.7s-48.03,15.93-55.64,27.61l17.49,9.17s32.57,18.19,42.05,31.61c0,0,13.55-25.02,36.02-41.58l5.61-7.67.73-7.17-3.47-11.43.16-11.29-1.23-38.88-1.56-57.31-.24-60.17v-14.58Z" style="fill: #fff;"/>
          <polygon points="208.08 303.36 206.26 297.73 214.1 297.62 240.55 302.68 237.31 315.37 229.61 329.33 219.1 346.24 212.04 354.34 207.96 363.86 206.9 367.66 223.4 365.58 231.46 366.39 247.76 370.55 260.7 377.02 263.6 379.76 233.53 399.3 228.46 401.19 225.97 468.85 224.44 495.97 223.04 506.16 218.17 508.71 211.07 510.96 200.61 510.96 184.85 509.11 177.94 505.48 174.83 499.22 173.79 464.7 173.02 394.65 173.02 377.13 174.36 371.83 168.04 374.89 139.51 382.84 141.09 415.7 141.77 440.01 141.28 459.18 139.92 480.12 139.51 487.85 136.37 490.28 133.59 492.8 124.98 492.65 95.49 485.94 91.08 481.6 90.45 457.38 85.69 374.67 87.72 348.5 92.36 338.2 100.78 332.46 112.49 328.4 125.31 333.98 133.61 338.2 139.24 342.39 143.24 344.87 145.58 347.63 148.48 349.56 150.13 350.39 152.34 352.18 154.27 354.34 158.82 357.42 161.01 359.58 162.95 361.97 164.88 364.04 167.36 365.58 181.57 346.11 196.53 329.44 205.69 322.17 209 316.33 209.73 313.44 209.73 309.16 208.08 303.36" style="fill: #4b4c4e;"/>
          <polygon points="204.49 122.08 221.83 142.69 228.46 148.08 234.49 148.08 252.68 137.39 276.61 117.38 275.77 123.19 269.64 163.85 249.64 282.93 245.8 289.86 242.66 302.33 218.27 298.35 206.26 297.73 206.42 289.87 204.49 223.18 204.49 122.08" style="fill: #1f89bd;"/>
          <path d="M188.36,34.38c-.69,2.33-1.17,4.74-1.2,7.17-.03,2.11.29,4.21.6,6.29.38,2.51.51,5.19,1.02,7.65.52,2.51,2.44,4.78,3.39,7.15.28.71.52,1.45.91,2.1.32.53.73,1,1.14,1.46,1.29,1.46,2.57,2.93,3.88,4.37.56-1.37,1.77-2.65,2.56-3.94.87-1.42,1.67-2.89,2.38-4.39,1.43-3.01,2.55-6.17,3.33-9.41,1.56-6.48,1.78-13.29.54-19.84-.31-1.64-.71-3.31-.41-4.95.61-3.31,4.46-5.49,7.55-5.87,6-.74,12,.48,17.73,2.19,2.59.77,5.12,1.84,7.74,2.38,2.82.59,5.52,1.7,7.94,3.25.86.56,1.69,1.17,2.64,1.57,1.39.58,2.93.64,4.44.7,1.51.06,3.02.11,4.53.17,1.19.04,2.88-.21,3.98.32,1.32.63,3.4,4.77,3.4,6.22,4.86,9.96,7.27,20.51,5.64,31.47,2.13-1.2,4.68-1.66,7.1-1.28.68.11,1.37.28,2.05.15,1.62-.32,2.4-2.13,2.86-3.71.82-2.86,1.44-5.77,1.85-8.72.4-2.88.17-5.94.71-8.76,1.07-5.61,1.22-11.29-.37-16.86-2.88-10.09-11.06-18.04-20.45-22.74-9.38-4.69-19.93-6.51-30.36-7.63-2.51-.27-5.04-.5-7.54-.23-4.8.52-9.07,2.86-12.75,5.88-3.65,3-6.14,7.9-9.81,10.61-3.18,2.35-7.2,2.46-10.34,5.55-3.21,3.17-5.41,7.38-6.68,11.68Z" style="fill: #ff6d04;"/>
          <path d="M142.12,382c-.62.13-1.3.3-1.63.84-.19.3-.22.67-.25,1.03-.91,10.62-.35,21.37,1.65,31.84,10.35,2.33,20.47,5.68,30.17,9.97.1-12.26.2-24.53.3-36.79.02-2.76.04-5.52.24-8.27.17-2.32,1.5-5.96,1-8.07-5.18,1.18-10.3,3.77-15.43,5.33-5.29,1.61-10.64,2.98-16.05,4.12Z" style="fill: #ffb27a;"/>
          <path d="M172.75,481.18c.1.07.22.15.35.14.25-.01.37-.3.43-.55.57-2.44.49-5.03-.21-7.43-.04-.14-4.07-1.39-4.38-1.34-1.36.26-1.04,1.6-.74,2.67.71,2.58,2.39,4.95,4.56,6.5Z" style="fill: #4b4c4e;"/>
          <path d="M269.2,501.31c2.61,2.51,6.47,3.54,10.05,2.95,2.61-.43,5.11-1.71,6.81-3.73,1.7-2.02,2.55-4.8,2.03-7.39-1.49,1.55-4,1.24-6.11.81l-7.87-1.6c-1.61-.33-5.49-1.9-7-1.13-3.28,1.68.5,8.5,2.09,10.09Z" style="fill: #4b4c4e;"/>
          <path d="M262.82,463.71c.95.09,1.78.77,2.74.81,1.01.04,1.89-.64,2.66-1.29.89-.76,5.57-5.53,2.14-5.36-1.32.07-2.31,1.39-3.17,2.21-1.37,1.31-2.83,2.53-4.37,3.62Z" style="fill: #4b4c4e;"/>
          <g>
            <path d="M204.5,18.63s15.66-33.63,66.04-7.71c0,0,28.6,15.26,10.63,59.07" style="fill: none; fill-rule: evenodd; stroke: #2e3138; stroke-linecap: round; stroke-miterlimit: 10; stroke-width: 2.21px;"/>
            <path d="M204.48,17.31c-5.98,1.56-10.8,6.27-13.57,11.79-2.76,5.52-3.66,11.81-3.76,17.98-.11,6.76,5.29,17.15,8.82,22.91" style="fill: none; fill-rule: evenodd; stroke: #2e3138; stroke-linecap: round; stroke-miterlimit: 10; stroke-width: 2.21px;"/>
            <path d="M205.82,28.89c5.99-11.59,23.26-6.59,31.65-3.06,3.76,1.58,7.25,3.74,11.04,5.24,8.89,3.52,19.8,2.91,27.15-3.21" style="fill: none; fill-rule: evenodd; stroke: #2e3138; stroke-linecap: round; stroke-miterlimit: 10; stroke-width: 2.21px;"/>
            <path d="M246.42,20.32c1.22.78,2.58,1.35,3.98,1.72,4.44,1.18,9.38.34,13.19-2.25" style="fill: none; fill-rule: evenodd; stroke: #2e3138; stroke-linecap: round; stroke-miterlimit: 10; stroke-width: 2.21px;"/>
            <path d="M221.67,13.49c3.44-.91,7.2-.58,10.43.93" style="fill: none; fill-rule: evenodd; stroke: #2e3138; stroke-linecap: round; stroke-miterlimit: 10; stroke-width: 2.21px;"/>
            <path d="M199.4,30.8c-2.24,3.1-3.46,6.94-3.43,10.77" style="fill: none; fill-rule: evenodd; stroke: #2e3138; stroke-linecap: round; stroke-miterlimit: 10; stroke-width: 2.21px;"/>
            <path d="M201.3,45.58c.64,4.97-1.06,9.91-2.74,14.63" style="fill: none; fill-rule: evenodd; stroke: #2e3138; stroke-linecap: round; stroke-miterlimit: 10; stroke-width: 2.21px;"/>
            <path d="M205.82,28.89c1.03,9.59,2.01,19.57-1.28,28.63-1.6,4.41-4.16,8.4-6.85,12.23" style="fill: none; fill-rule: evenodd; stroke: #2e3138; stroke-linecap: round; stroke-miterlimit: 10; stroke-width: 2.21px;"/>
            <path d="M263.6,33.89c7.11,11.15,9.92,24.97,7.74,38.01" style="fill: none; fill-rule: evenodd; stroke: #2e3138; stroke-linecap: round; stroke-miterlimit: 10; stroke-width: 2.21px;"/>
            <path d="M271.97,70.45c1.93-.5,3.9-.96,5.9-.91,2,.05,4.05.68,5.46,2.09,1.33,1.33,1.97,3.27,1.94,5.15s-.67,3.72-1.61,5.36c-.65,1.14-1.45,2.2-2.4,3.09-2.79,2.61-6.67,3.63-10.38,4.55" style="fill: none; fill-rule: evenodd; stroke: #2e3138; stroke-linecap: round; stroke-miterlimit: 10; stroke-width: 2.21px;"/>
            <path d="M272.77,78.35c.33-.71.94-1.3,1.7-1.5s1.63.02,2.12.62c.49.6.51,1.57-.02,2.14" style="fill: none; fill-rule: evenodd; stroke: #2e3138; stroke-linecap: round; stroke-miterlimit: 10; stroke-width: 2.21px;"/>
            <path d="M203.76,100.23c.7,5.45.3,14.66.65,20.12" style="fill: none; fill-rule: evenodd; stroke: #2e3138; stroke-linecap: round; stroke-miterlimit: 10; stroke-width: 2.21px;"/>
            <path d="M276.61,88.09c-.27,11.09-.45,16.06-.73,27.15" style="fill: none; fill-rule: evenodd; stroke: #2e3138; stroke-linecap: round; stroke-miterlimit: 10; stroke-width: 2.21px;"/>
            <path d="M211.81,51.26c.68-.88,1.74-1.42,2.84-1.63,1.09-.22,2.23-.14,3.33.01.87.12,1.77.31,2.44.88" style="fill: none; fill-rule: evenodd; stroke: #2e3138; stroke-linecap: round; stroke-miterlimit: 10; stroke-width: 2.21px;"/>
            <path d="M251.91,49.33c2.4-1.72,5.81-1.87,8.36-.38" style="fill: none; fill-rule: evenodd; stroke: #2e3138; stroke-linecap: round; stroke-miterlimit: 10; stroke-width: 2.21px;"/>
            <path d="M231.82,64.44c-.23,3.92-.48,7.96-2.12,11.53-.44.96-.99,1.91-1.1,2.97-.16,1.53.66,3.04,1.87,3.99,1.21.95,2.75,1.38,4.27,1.53,2.22.21,4.88-.45,5.65-2.54" style="fill: none; fill-rule: evenodd; stroke: #2e3138; stroke-linecap: round; stroke-miterlimit: 10; stroke-width: 2.21px;"/>
            <path d="M239.7,94.87c-2.64,2.05-6.67,2.08-9.33.06" style="fill: none; fill-rule: evenodd; stroke: #2e3138; stroke-linecap: round; stroke-miterlimit: 10; stroke-width: 2.21px;"/>
            <path d="M237.01,101.76c-1.08.34-2.28.26-3.31-.22" style="fill: none; fill-rule: evenodd; stroke: #2e3138; stroke-linecap: round; stroke-miterlimit: 10; stroke-width: 2.21px;"/>
            <path d="M219.54,64.87c0,1.89-1.53,3.42-3.42,3.42s-3.42-1.53-3.42-3.42,1.53-3.42,3.42-3.42,3.42,1.53,3.42,3.42Z" style="fill: #2e3138;"/>
            <path d="M259.51,64.87c0,1.89-1.53,3.42-3.42,3.42s-3.42-1.53-3.42-3.42,1.53-3.42,3.42-3.42,3.42,1.53,3.42,3.42Z" style="fill: #2e3138;"/>
            <path d="M229.08,115.24c-2.99-.02-12.39-3.36-15.98-5.71-2.54-1.66-7.19-4.98-8.8-7.99,0,0-6.1-13.78-5.74-30.52" style="fill: none; fill-rule: evenodd; stroke: #2e3138; stroke-linecap: round; stroke-miterlimit: 10; stroke-width: 2.21px;"/>
            <path d="M204.49,122.08c3.81,8.33,13.85,17.2,20.35,23.48,1.44,1.39,3.05,2.77,5.46,2.89,2.21.11,4.77-.86,7.22-1.86,15.19-6.22,25.03-19.21,39.09-29.22" style="fill: none; fill-rule: evenodd; stroke: #2e3138; stroke-linecap: round; stroke-miterlimit: 10; stroke-width: 2.21px;"/>
            <path d="M206.42,287.31c.08.46-13.57-67.57-23.62-93.93-.51-1.34-1.05-2.73-1.08-4.24-.02-1.33.35-2.63.75-3.88,2.65-8.32,6.51-16.03,11.3-22.56-2.29-5.08-4.57-10.15-6.86-15.23-.42-.93-.86-1.96-.73-3.06.09-.8.47-1.5.84-2.15,5.17-9.21,10.63-18.14,16.37-26.75,0,0-.28,153.61,3.03,171.8Z" style="fill: none; fill-rule: evenodd; stroke: #2e3138; stroke-linecap: round; stroke-linejoin: round; stroke-width: 2.21px;"/>
            <path d="M245.8,289.86c-.38,1.02,32.28-65.17,48.89-97.92.93-1.82.41-4.13-.17-6.09-.58-1.97-1.89-3.64-3.17-5.25-4.35-5.48-8.69-10.95-13.04-16.43l12.6-12.4c-6.36-10.48-7.94-23.92-14.3-34.4,0,0-21.03,146.59-30.81,172.48Z" style="fill: none; fill-rule: evenodd; stroke: #2e3138; stroke-linecap: round; stroke-miterlimit: 10; stroke-width: 2.21px;"/>
            <path d="M270.88,96.42c-2.7,7.6-8.57,13.78-15.62,16.48-2.36.9-4.83,1.43-7.3,1.85-4.46.76-8.96,1.2-13.48,1.3" style="fill: none; fill-rule: evenodd; stroke: #2e3138; stroke-linecap: round; stroke-miterlimit: 10; stroke-width: 2.21px;"/>
            <path d="M318.05,264.09c-3.6-6.3-6.52-12.99-8.68-19.92-3.69-11.83-5.21-24.44-10.82-35.49" style="fill: none; fill-rule: evenodd; stroke: #2e3138; stroke-linecap: round; stroke-miterlimit: 10; stroke-width: 2.21px;"/>
            <path d="M203.39,115.51s-22.87,7.51-37.76,22.43c-14.89,14.92-37.23,69.05-37.23,69.05" style="fill: none; fill-rule: evenodd; stroke: #2e3138; stroke-linecap: round; stroke-miterlimit: 10; stroke-width: 2.21px;"/>
            <path d="M128.4,208.21c-22.79-15.87-38.37-27.03-60.74-43.48" style="fill: none; fill-rule: evenodd; stroke: #2e3138; stroke-linecap: round; stroke-miterlimit: 10; stroke-width: 2.21px;"/>
            <path d="M67.1,164.89c-8.04,11.16-13.96,23.84-17.35,37.17,14.92,11.46,29.91,22.87,45.54,33.36,8.01,5.38,16.4,10.07,24.52,15.24,5.5,3.5,12.09,10.05,18.86,10.4,3.44.18,6.72-1.75,9.01-4.33,6.2-7.01,9.89-18.7,15.27-28.97" style="fill: none; fill-rule: evenodd; stroke: #2e3138; stroke-linecap: round; stroke-miterlimit: 10; stroke-width: 2.21px;"/>
            <path d="M164.28,189.35c-.27,34.33-.55,68.66-.82,102.99" style="fill: none; fill-rule: evenodd; stroke: #2e3138; stroke-linecap: round; stroke-miterlimit: 10; stroke-width: 2.21px;"/>
            <path d="M65.44,166.23c-5.58-4.48-7.74-10.95-9.84-17.8s-3.78-14.01-7.85-19.9c-1-1.44-2.51-2.94-4.23-2.57-2.1.45-2.62,3.21-2.42,5.36.3,3.25,1.21,6.43,2.67,9.35.23.45.47.91.54,1.41.07.53-.06,1.06-.17,1.58-1.14,5.4.28,11.29,3.77,15.56" style="fill: none; stroke: #2e3138; stroke-linecap: round; stroke-miterlimit: 10; stroke-width: 2.21px;"/>
            <path d="M41.32,141.04c-6.73-4.65-12.82-10.23-19.09-15.5-.77-.65-1.56-1.3-2.49-1.68-.45-.18-.96-.3-1.43-.18-4.55,1.18,1.47,9.59,2.79,11.14,3.21,3.78,6.61,7.39,10.19,10.81" style="fill: none; stroke: #2e3138; stroke-linecap: round; stroke-miterlimit: 10; stroke-width: 2.21px;"/>
            <path d="M31.29,145.63c-2.49-1.74-12.24-10.11-14.73-11.84-2.73-1.91-5.77-3.9-9.09-3.59-.44.04-.9.13-1.25.39-.72.53-.82,1.57-.62,2.44.27,1.14.93,2.14,1.62,3.09,4.66,6.4,11.74,10.23,18.2,14.83" style="fill: none; stroke: #2e3138; stroke-linecap: round; stroke-miterlimit: 10; stroke-width: 2.21px;"/>
            <path d="M25.42,150.95c-2.98-2.31-15.97-10.07-19.33-11.78-1.16-.59-3.06-1.47-4.28-.55-1.45,1.09-.29,3.42.41,4.62.88,1.5,2.12,2.73,3.36,3.94,4.68,4.56,9.7,9.1,15.91,11.16" style="fill: none; stroke: #2e3138; stroke-linecap: round; stroke-miterlimit: 10; stroke-width: 2.21px;"/>
            <path d="M18.34,157.03c-3.85-1.85-7.71-3.69-11.56-5.54-1.38-.66-3.53-1.03-4,.43-.25.79.25,1.6.76,2.25,3.04,3.8,7.4,6.31,11.81,8.38,1.62.76,3.27,1.49,4.73,2.53,1.78,1.27,3.06,3.12,4.66,4.61,16.58,15.4,26.57,15.93,29.57,16.5" style="fill: none; stroke: #2e3138; stroke-linecap: round; stroke-miterlimit: 10; stroke-width: 2.21px;"/>
            <path d="M36.06,150.28c-1.64,1.15-2.42,3.15-3.12,5.04-.94,2.54-1.88,5.11-2.33,7.78" style="fill: none; stroke: #2e3138; stroke-linecap: round; stroke-miterlimit: 10; stroke-width: 2.21px;"/>
            <path d="M277.24,107.57c11.36.27,22.7,1.36,33.9,3.24,11.78,1.98,24.13,5.24,32.3,13.96,9.9,10.55,11.24,26.34,11.39,40.81.17,15.65-.43,31.3-1.79,46.89" style="fill: none; stroke: #2e3138; stroke-linecap: round; stroke-miterlimit: 10; stroke-width: 2.21px;"/>
            <path d="M348.52,297.73c-.52,13.76-1.03,27.51-1.55,41.27-.11,2.91-.22,5.85-1.04,8.65-.81,2.78-2.28,5.32-3.86,7.74-6.78,10.38-48.24,51.81-50.76,53.66-3.81,2.8-9.97,1.81-14.34,1.32-15.9-1.81-31.62-5.16-46.87-9.98" style="fill: none; stroke: #2e3138; stroke-linecap: round; stroke-miterlimit: 10; stroke-width: 2.21px;"/>
            <path d="M171.38,300.01c8.27-.29,16.57,1.08,24.43,4.01" style="fill: none; stroke: #2e3138; stroke-linecap: round; stroke-miterlimit: 10; stroke-width: 2.21px;"/>
            <path d="M161.01,295.86c-16.56,5.38-40.36,19.44-54.35,29.81,22.99,7.86,43.88,21.76,60.01,39.92,9.26-13.08,18.63-26.28,30.66-36.86,5.63-4.95,12.38-10.4,12.4-17.9.02-6.75-5.67-13.28-3.34-19.62" style="fill: none; stroke: #2e3138; stroke-linecap: round; stroke-linejoin: round; stroke-width: 2.21px;"/>
            <path d="M329.57,309.82c-2.21,11.57,4.15,26.82,3.54,38.58-.62,12.07-8.48,22.44-16.51,31.48-7.51,8.46-15.48,16.53-23.85,24.15-.91.83-1.9,1.69-3.11,1.87-2.65.4-4.51-2.41-5.81-4.75-14.56-26.32-47.76-40.76-76.94-33.49,1.59-8.14,7.26-14.76,12.2-21.42,12.17-16.39,20.93-35.31,25.57-55.19" style="fill: none; stroke: #2e3138; stroke-linecap: round; stroke-linejoin: round; stroke-width: 2.21px;"/>
            <path d="M250.34,305.85c6.18-1.03,12.57-.77,18.64.75" style="fill: none; stroke: #2e3138; stroke-linecap: round; stroke-miterlimit: 10; stroke-width: 2.21px;"/>
            <path d="M110.29,329.12c-8.34,1.37-15.99,6.51-20.42,13.7-3.76,6.11-4.53,22.46-4.27,29.62.83,22.89,1.71,40.6,3.31,57.91.87,9.45,1.35,18.91,1.57,28.4.1,4.14.19,8.28.37,12.42.16,3.62-1.16,10.69,1.77,13.34.8.72,1.84,1.09,2.86,1.43,8.56,2.84,17.36,4.95,26.28,6.3,3.65.55,7.45.96,10.98-.11,3.73-1.13,6.58-3.93,6.85-7.81.37-5.13.84-10.33,1.18-15.49.7-10.85.87-21.72,1.04-32.59.26-16.4-2.57-37-2.31-53.4,16.63-3.77,22.54-4.47,35.75-11.49" style="fill: none; stroke: #2e3138; stroke-linecap: round; stroke-miterlimit: 10; stroke-width: 2.21px;"/>
            <path d="M229.43,320.3c-19.7,12.08-48.09,32.64-54.17,51.05-2.99,9.05-2.15,7.91-2.21,17.44-.1,16.93-.2,33.87-.02,50.8.09,8.55.25,17.1.52,25.64.27,8.5,1.23,17.11,1.17,25.61-.03,4.41-1.07,8.14,1.86,12.14,2.44,3.33,6.69,4.71,10.7,5.71,6.02,1.49,12.19,2.56,18.39,2.39,3.6-.1,7.21-.64,10.65-1.72,1.71-.54,3.38-1.21,4.98-2.03,2.15-1.11,2.23-1.46,2.46-3.85.81-8.33,1.44-16.68,1.99-25.04,1.09-16.34,1.75-32.71,2.17-49.08.24-9.39.41-18.78.53-28.17" style="fill: none; stroke: #2e3138; stroke-linecap: round; stroke-miterlimit: 10; stroke-width: 2.21px;"/>
            <path d="M228.46,401.19c9.89-3.02,18.35-9.41,26.58-15.68,2.52-1.92,5.03-3.84,7.55-5.75" style="fill: none; stroke: #2e3138; stroke-linecap: round; stroke-miterlimit: 10; stroke-width: 2.21px;"/>
            <path d="M220.85,311.86l5.43,10.31" style="fill: none; stroke: #2e3138; stroke-linecap: round; stroke-miterlimit: 10; stroke-width: 2.21px;"/>
            <path d="M207.36,297.8c4.32-.51,8.68.18,12.98.88,7.53,1.22,12.11,2.11,19.64,3.32" style="fill: none; stroke: #2e3138; stroke-linecap: round; stroke-miterlimit: 10; stroke-width: 2.21px;"/>
            <path d="M170.45,384.56c-2.94-1.63-6.14-2.79-9.44-3.43" style="fill: none; stroke: #2e3138; stroke-linecap: round; stroke-miterlimit: 10; stroke-width: 2.21px;"/>
            <path d="M142.4,416.6c8.12,1.33,11.43,1.93,16.61,4.45,2.69,1.31,11.07,4.25,13.91,5.16" style="fill: none; stroke: #2e3138; stroke-linecap: round; stroke-miterlimit: 10; stroke-width: 2.21px;"/>
            <path d="M228.46,435.79c7.48,2.84,12.11,4.18,19.85,6.24,13.46,3.57,28.05,5.87,41.09.97,6.56-2.47,12.34-6.62,17.87-10.93,5.62-4.39,11.09-8.99,16.09-14.08,7.26-7.39,13.48-15.72,19.68-24.03,2.93-3.93,5.89-7.91,7.8-12.43,1.41-3.34,2.21-6.9,2.94-10.45,5.58-27.23,1.09-48.9,4.92-82.97" style="fill: none; stroke: #2e3138; stroke-linecap: round; stroke-miterlimit: 10; stroke-width: 2.21px;"/>
            <path d="M276.94,102.45c21.73,1.2,42.16,4.53,63.24,9.93,10.05,2.58,21,6.42,25.87,15.59,2.78,5.25,3.37,11.42,3.18,17.36-.76,23.5-3.29,56.11-6.36,102.83" style="fill: none; stroke: #2e3138; stroke-linecap: round; stroke-miterlimit: 10; stroke-width: 2.21px;"/>
            <path d="M134.75,493.42c.44,13.52-5.61,19.11-8.52,23.21-2.14,3.02-4.27,6.03-6.41,9.05-1.81,2.56-3.78,5.57-6.12,7.67-1.95,1.75-4.44,3.29-6.97,4.02-1.14.33-7.65,1.22-9.19,1.36-5.62.51-10.39.1-15.87-1.35-2.49-.66-4.91-1.59-7.18-2.82-1.92-1.04-3.81-2.39-4.71-4.38-.8-1.77-.71-3.8-.42-5.72.69-4.64,2.47-9.18,5.51-12.75,3.04-3.58,7.39-6.12,12.06-6.55" style="fill: none; stroke: #2e3117; stroke-linecap: round; stroke-miterlimit: 10; stroke-width: 2.21px;"/>
            <path d="M84.25,505.01c4.27-4.77,6.68-14.57,11.24-19.07" style="fill: none; stroke: #2e3117; stroke-linecap: round; stroke-miterlimit: 10; stroke-width: 2.21px;"/>
            <path d="M69.55,523.39c-1.24,4.29-3.09,12.35,4.79,17.89,3.65,2.57,8.27,3.3,12.72,3.65,3.63.29,7.28.35,10.92.17,3.26-.16,6.56-.32,9.63-1.54,5.61-2.24,8.56-7.06,11.9-11.8,3.62-5.14,7.07-10.41,10.34-15.79,2.82-4.65,5.97-12.36,5.1-17.72" style="fill: none; stroke: #2e3117; stroke-linecap: round; stroke-miterlimit: 10; stroke-width: 2.21px;"/>
            <path d="M97.56,495.27c3.9,2,7.42,4.75,10.29,8.06" style="fill: none; stroke: #2e3117; stroke-linecap: round; stroke-miterlimit: 10; stroke-width: 2.21px;"/>
            <path d="M92.55,502.46c5.31-3.2,11.84-3.31,17.94-4.45" style="fill: none; stroke: #2e3117; stroke-linecap: round; stroke-miterlimit: 10; stroke-width: 2.21px;"/>
            <path d="M99.46,510.56c4.78.11,9.29,3.59,10.6,8.18" style="fill: none; stroke: #2e3117; stroke-linecap: round; stroke-miterlimit: 10; stroke-width: 2.21px;"/>
            <path d="M220.14,509.11c.44,13.52-5.61,19.11-8.52,23.21-2.14,3.02-4.27,6.03-6.41,9.05-1.81,2.56-3.78,5.57-6.12,7.67-1.95,1.75-4.44,3.29-6.97,4.02-1.14.33-7.65,1.22-9.19,1.36-5.62.51-10.39.1-15.87-1.35-2.49-.66-4.91-1.59-7.18-2.82-1.92-1.04-3.81-2.39-4.71-4.38-.8-1.77-.71-3.8-.42-5.72.69-4.64,2.47-9.18,5.51-12.75,3.04-3.58,7.39-6.12,12.06-6.55" style="fill: none; stroke: #2e3117; stroke-linecap: round; stroke-miterlimit: 10; stroke-width: 2.21px;"/>
            <path d="M169.64,520.7c4.27-4.77,4.57-7.87,9.12-12.37" style="fill: none; stroke: #2e3117; stroke-linecap: round; stroke-miterlimit: 10; stroke-width: 2.21px;"/>
            <path d="M154.94,539.08c-1.24,4.29-3.09,12.35,4.79,17.89,3.65,2.57,8.27,3.3,12.72,3.65,3.63.29,7.28.35,10.92.17,3.26-.16,6.56-.32,9.63-1.54,5.61-2.24,8.56-7.06,11.9-11.8,3.62-5.14,7.07-10.41,10.34-15.79,2.82-4.65,5.97-12.35,5.11-17.72" style="fill: none; stroke: #2e3117; stroke-linecap: round; stroke-miterlimit: 10; stroke-width: 2.21px;"/>
            <path d="M182.95,510.96c3.9,2,7.42,4.75,10.29,8.06" style="fill: none; stroke: #2e3117; stroke-linecap: round; stroke-miterlimit: 10; stroke-width: 2.21px;"/>
            <path d="M177.94,518.15c5.31-3.2,11.84-3.31,17.94-4.45" style="fill: none; stroke: #2e3117; stroke-linecap: round; stroke-miterlimit: 10; stroke-width: 2.21px;"/>
            <path d="M184.85,526.26c4.78.11,9.29,3.59,10.6,8.18" style="fill: none; stroke: #2e3117; stroke-linecap: round; stroke-miterlimit: 10; stroke-width: 2.21px;"/>
            <path d="M243.75,442.54c-1.8,10.96-2.04,22.07-.7,33.06.24,3.97-9.87,7.06-15.85,6.87" style="fill: none; stroke: #2e3117; stroke-linecap: round; stroke-miterlimit: 10; stroke-width: 2.21px;"/>
            <path d="M245.91,475.14c11.32.61,22.61,2.53,33.7,5.75,3.08.9,6.32,2.02,8.55,5.09.47.66.9,1.42,1.07,2.31.41,2.2-.93,4.44-2.5,5.12s-3.27.24-4.88-.2c-15.47-4.19-40.19-6.65-55.88-8.77" style="fill: none; stroke: #2e3117; stroke-linecap: round; stroke-miterlimit: 10; stroke-width: 2.21px;"/>
            <path d="M243.29,463.94c6.39-5.52,13.7-9.97,21.55-13.1,1.51-.6,3.12-1.16,4.73-.92,1.61.24,3.17,1.56,3.12,3.18-.05,1.46-1.28,2.56-2.43,3.46-8.14,6.43-16.64,12.42-25.44,17.91" style="fill: none; stroke: #2e3117; stroke-linecap: round; stroke-miterlimit: 10; stroke-width: 2.21px;"/>
            <path d="M266.36,491.23c-2.39,5.16,1.19,12.1,6.77,13.15,5.58,1.05,11.44-4.13,11.08-9.8" style="fill: none; stroke: #2e3117; stroke-linecap: round; stroke-miterlimit: 10; stroke-width: 2.21px;"/>
            <path d="M288.58,492.96c.33,3.86-1.43,7.83-4.5,10.18-3.08,2.35-7.37,2.99-11,1.65" style="fill: none; stroke: #2e3117; stroke-linecap: round; stroke-miterlimit: 10; stroke-width: 2.21px;"/>
            <path d="M271.75,493.12c-.87.56-1.06,1.86-.57,2.78.49.92,1.49,1.47,2.52,1.66.31.06.64.09.94,0,.39-.11.7-.41.96-.71.42-.49.78-1.07.91-1.7.13-.64,0-1.35-.44-1.83" style="fill: none; stroke: #2e3117; stroke-linecap: round; stroke-miterlimit: 10; stroke-width: 2.21px;"/>
            <path d="M271.74,456.41c.17,1.91-.42,3.88-1.61,5.39s-2.96,2.54-4.86,2.83c-.67.1-1.37.11-2-.12" style="fill: none; stroke: #2e3117; stroke-linecap: round; stroke-miterlimit: 10; stroke-width: 2.21px;"/>
            <path d="M230.64,485.34c-2.01.96-3.94,2.09-5.77,3.35" style="fill: none; stroke: #2e3117; stroke-linecap: round; stroke-miterlimit: 10; stroke-width: 2.21px;"/>
            <path d="M172.93,464.7c-1.47-.91-6.03.57-6.38,2.26-.35,1.7.67,3.44,2.07,4.46s3.14,1.45,4.82,1.86" style="fill: none; stroke: #2e3117; stroke-linecap: round; stroke-miterlimit: 10; stroke-width: 2.21px;"/>
            <path d="M167.19,470.61c-1.14,4.6,2,9.83,6.6,10.99" style="fill: none; stroke: #2e3117; stroke-linecap: round; stroke-miterlimit: 10; stroke-width: 2.21px;"/>
            <g>
              <path d="M251,317.27c-2.44.13-4.92.27-7.22,1.1-4.91,1.78-8.26,6.43-13,8.62-.93.43-2.1,1.07-1.94,2.08.06.36.29.67.54.93,1.49,1.52,3.84,1.88,5.94,1.57,2.11-.31,4.08-1.17,6.13-1.77.37-.11.89-.14,1.04.22.09.24-.05.5-.22.69-1.1,1.3-3.02,1.39-4.63,1.94-1.18.4-2.23,1.09-3.27,1.78-3.49,2.32-6.92,4.73-10.27,7.25-.95.72-1.95,1.51-2.32,2.64-.09.27-.13.56-.04.82.18.51.78.71,1.31.82,1.65.33,3.36.39,5.03.16-.38,1.22-1.84,1.63-3.04,2.08s-2.5,1.58-2.01,2.76c.35.83,1.47,1.2,1.67,2.08.06.27.02.55.03.82.03,2.04,2.21,3.31,4.16,3.87,2.44.7,5.01.94,7.54.7.29-.03.61-.06.86.1.32.21.39.64.57.99.54,1.03,1.96,1.09,3.11,1.01,2.59-.18,5.2-.36,7.74-.89,4.94-1.02,9.53-3.32,13.9-5.86.99-.58,1.97-1.17,2.92-1.82,2.95-2.03,5.51-4.62,7.51-7.6.39-.58.77-1.2.94-1.88.3-1.22-.11-2.52-.77-3.58-.67-1.06-1.58-1.94-2.42-2.87-2.1-2.32-3.79-5-4.98-7.89-.96-2.34-1.61-4.84-2.88-7.03-.86-1.47-2.48-3.93-4.28-4.25-2.3-.41-5.29.27-7.63.4Z" style="fill: #fff;"/>
              <g>
                <path d="M259.51,317.33c-4.27.15-7.35.52-11.62.67-1.15.04-2.32.08-3.43.42-1.34.4-2.51,1.21-3.66,2.01-3,2.08-6,4.16-9,6.24-.98.68-2.04,1.49-2.2,2.66-.2,1.47,1.21,2.76,2.67,2.99,1.47.23,3.16.1,4.32-.83,2.39-1.93,5.28-1.07,7.55-1.93" style="fill: none; stroke: #2e3138; stroke-linecap: round; stroke-miterlimit: 10; stroke-width: 2.21px;"/>
                <path d="M244.14,329.56c-6.53,4.33-13.26,8.37-20.15,12.09-1.27.69-2.75,1.74-2.53,3.17.23,1.45,2.03,1.99,3.49,2.01,3.91.06,7.68-1.39,11.26-2.99,4.56-2.04,8.99-4.37,13.26-6.97" style="fill: none; stroke: #2e3138; stroke-linecap: round; stroke-miterlimit: 10; stroke-width: 2.21px;"/>
                <path d="M246.36,338.71c-7.28,3.84-16.05,8.05-23.84,10.7-.7,1.36.31,3.1,1.7,3.72,1.4.62,3.01.43,4.51.17,7.73-1.36,15.19-4.34,21.58-8.9" style="fill: none; stroke: #2e3138; stroke-linecap: round; stroke-miterlimit: 10; stroke-width: 2.21px;"/>
                <path d="M231.77,352.64c-1.61.23-3.22.46-4.83.69-.7.1-1.49.25-1.9.83-.61.87.05,2.09.89,2.74,1.92,1.5,4.58,1.58,7.01,1.43,5.7-.35,11.34-1.57,16.68-3.6,2.01-.77,4.03-1.68,5.52-3.24" style="fill: none; stroke: #2e3138; stroke-linecap: round; stroke-miterlimit: 10; stroke-width: 2.21px;"/>
                <path d="M243.66,356.64c-1.24.31-3.42,1.05-4.66,1.36-.79.2-1.78.65-1.69,1.46.07.66.84.98,1.49,1.13,2,.46,4.09.55,6.12.26,1.97-.28,3.87-.9,5.75-1.56,4.72-1.66,9.39-3.59,13.55-6.39,4.15-2.79,7.79-6.51,9.88-11.05" style="fill: none; stroke: #2e3138; stroke-linecap: round; stroke-miterlimit: 10; stroke-width: 2.21px;"/>
              </g>
            </g>
            <path d="M276.61,117.38s35.8,10.21,45.73,23.1c9.93,12.89,55.22,123.32,40.33,141.94-14.89,18.61-85.71,62.04-85.71,62.04l-17.45-27.13s51.66-47.32,65.31-56.63" style="fill: none; fill-rule: evenodd; stroke: #2e3138; stroke-linecap: round; stroke-miterlimit: 10; stroke-width: 2.21px;"/>
          </g>
          <g>
            <path d="M183.34,189.79s-17.38-79.29,18.66-82.71l.22,3.12s-28.88,1.44-14.55,80.06" style="fill: #a0a0a1; stroke: #2e3138; stroke-miterlimit: 10; stroke-width: 2.21px;"/>
            <g>
              <path d="M197.57,202.6c-.67,6.14-6.2,10.58-12.34,9.9-6.14-.67-10.58-6.2-9.9-12.34.67-6.14,6.2-10.58,12.34-9.9,6.14.67,10.58,6.2,9.9,12.34Z" style="fill: #fff; stroke: #2e3138; stroke-miterlimit: 10; stroke-width: 2.21px;"/>
              <path d="M193.84,202.19c-.45,4.08-4.12,7.03-8.2,6.58-4.08-.45-7.03-4.12-6.58-8.2.45-4.08,4.12-7.03,8.2-6.58,4.08.45,7.03,4.12,6.58,8.2Z" style="fill: #a0a0a1; stroke: #2e3138; stroke-miterlimit: 10; stroke-width: 2.21px;"/>
            </g>
            <path d="M276.25,111.59s22.38,22.5,14.28,52.41c0,0,37.75,9.34-3.85,61.83l-2.36-2.95s37.47-44.22,3.18-56.69c-34.29-12.47-24.23,46.93-24.23,46.93l-3.01-.16s-12.05-57.05,24.43-51.17c0,0,11.42-16.01-8.07-44.71l-.36-5.48Z" style="fill: #a0a0a1; stroke: #2e3138; stroke-miterlimit: 10; stroke-width: 2.21px;"/>
            <path d="M286.75,226.37c-.49,1.18-1.83,1.74-3.01,1.25-1.18-.49-1.74-1.83-1.25-3.01.49-1.18,1.83-1.74,3.01-1.25,1.18.49,1.74,1.83,1.25,3.01Z" style="fill: #a0a0a1; stroke: #2e3138; stroke-miterlimit: 10; stroke-width: 2.21px;"/>
            <path d="M264.15,214.56c-.49,1.18-1.83,1.74-3.01,1.25-1.18-.49-1.74-1.83-1.25-3.01.49-1.18,1.83-1.74,3.01-1.25,1.18.49,1.74,1.83,1.25,3.01Z" style="fill: #a0a0a1; stroke: #2e3138; stroke-miterlimit: 10; stroke-width: 2.21px;"/>
          </g>
        </g>
      </g>
    </g>
  </g>
</svg>