<?xml version="1.0" encoding="UTF-8"?>
<svg xmlns="http://www.w3.org/2000/svg" viewBox="0 0 265.49 280.7">
  <style>

    #point-1 {
      animation: vibrate-1 10s ease-in-out infinite both;
    }
    #point-2 {
      animation: vibrate-1 10s ease-in-out infinite both;
      animation-delay: -4s;
    }
    #point-3 {
      animation: vibrate-1 10s ease-in-out infinite both;
      animation-delay: -2s;
    }
    #point-4 {
      animation: vibrate-1 10s ease-in-out infinite both;
      animation-delay: -3s;
    }
    #point-5 {
      animation: vibrate-1 10s ease-in-out infinite both;
      animation-delay: -1s;
    }
    #point-6 {
      animation: vibrate-1 10s ease-in-out infinite both;
      animation-delay: -3s;
    }

    @keyframes vibrate-1 {
      0% {
        transform: translate(0);
        opacity: 1;
      }
      20% {
        transform: translate(-2px, 3px);
        opacity: 0;
      }
      40% {
        transform: translate(4px, -3px);
        opacity: 1;
      }
      60% {
        transform: translate(-3px, 4px);
      }
      80% {
        transform: translate(4px, -4px);
        opacity: 0;
      }
      100% {
        transform: translate(0);
        opacity: 1;
      }
    }
  </style>
  <g style="isolation: isolate;">
    <g id="_圖層_2" data-name="圖層 2">
      <g id="_圖層_1-2" data-name="圖層 1">
        <g id="people">
          <g>
            <ellipse cx="194.58" cy="221.46" rx="47.6" ry="18.48" style="fill: none; stroke: #4b4c4e; stroke-miterlimit: 10; stroke-width: 4px;"/>
            <path d="M242.18,260.22c0,10.21-21.31,18.48-47.6,18.48s-47.6-8.28-47.6-18.48" style="fill: none; stroke: #4b4c4e; stroke-miterlimit: 10; stroke-width: 4px;"/>
            <line x1="146.97" y1="233.13" x2="146.97" y2="255.17" style="fill: none; stroke: #4b4c4e; stroke-linecap: round; stroke-miterlimit: 10; stroke-width: 4px;"/>
            <line x1="242.18" y1="233.13" x2="242.18" y2="255.17" style="fill: none; stroke: #4b4c4e; stroke-linecap: round; stroke-miterlimit: 10; stroke-width: 4px;"/>
          </g>
          <ellipse cx="49.6" cy="221.46" rx="47.6" ry="18.48" style="fill: none; stroke: #ff6100; stroke-miterlimit: 10; stroke-width: 4px;"/>
          <path d="M97.21,260.22c0,10.21-21.31,18.48-47.6,18.48s-47.6-8.28-47.6-18.48" style="fill: none; stroke: #ff6100; stroke-miterlimit: 10; stroke-width: 4px;"/>
          <ellipse cx="49.95" cy="221.71" rx="39.22" ry="11.42" style="fill: #4b4c4e; mix-blend-mode: multiply; opacity: .5;"/>
          <ellipse cx="194.58" cy="221.71" rx="39.22" ry="11.42" style="fill: #4b4c4e; mix-blend-mode: multiply; opacity: .5;"/>
          <g>
            <path d="M16.08,110.14s-5.51,114.86,15.41,114.86c14.01,0,16.85-49.31,16.85-49.31,0,0,5.25,49.31,20.69,49.31,13.46,0,12.19-68.92,12.19-68.92l.03-52.11-56.48-3.92-8.68,10.09Z" style="fill: #fff; stroke: #2d3139; stroke-linejoin: round; stroke-width: 3px;"/>
            <path d="M72.38,110.07l4.42,40.22s1.49,13.07,9.34,13.07,8.31-12.05,8.31-12.05c2.84-71.72-23.25-76.48-23.25-76.48,0,0-19.57-9.25-44.82,0C1.12,84.09,2,151.32,2,151.32c0,0,.84,12.05,9.81,12.05s9.71-13.82,9.71-13.82l4.86-38.85" style="fill: #fff; stroke: #2d3139; stroke-linecap: round; stroke-linejoin: round; stroke-width: 3px;"/>
            <circle cx="48.34" cy="34.07" r="32.57" style="fill: #fff; stroke: #2d3139; stroke-miterlimit: 10; stroke-width: 3px;"/>
          </g>
          <g>
            <path d="M162.32,110.14s-5.51,114.86,15.41,114.86c14.01,0,16.85-49.31,16.85-49.31,0,0,5.25,49.31,20.69,49.31,13.46,0,12.19-68.92,12.19-68.92l.03-52.11-56.48-3.92-8.68,10.09Z" style="fill: #ff6100; stroke: #2d3139; stroke-linejoin: round; stroke-width: 3px;"/>
            <path d="M218.62,110.07l4.42,40.22s1.49,13.07,9.34,13.07,8.31-12.05,8.31-12.05c2.84-71.72-23.25-76.48-23.25-76.48,0,0-19.57-9.25-44.82,0-25.26,9.25-24.37,76.48-24.37,76.48,0,0,.84,12.05,9.81,12.05s9.71-13.82,9.71-13.82l4.86-38.85" style="fill: #ff6100; stroke: #2d3139; stroke-linecap: round; stroke-linejoin: round; stroke-width: 3px;"/>
            <circle cx="194.58" cy="60.68" r="32.57" transform="translate(103.51 243.03) rotate(-80.78)" style="fill: #ff6100; stroke: #2d3139; stroke-miterlimit: 10; stroke-width: 3px;"/>
          </g>
          <g>
            <path d="M33.73,92.09c1.39,3.11,1.12,6.93-.04,10.16-2.04,5.69-6.55,9.86-11.5,12.24-4.95,2.38-10.36,3.17-15.71,3.74,2.52,3.3,4.93,6.72,7.22,10.24,11.32-.33,21.79-10.78,23.62-23.58.57-4.01.34-8.31-1.42-11.83-1.29-2.59-3.84-5.32-6.57-5.17,1.83.75,3.5,2.17,4.41,4.19Z" style="fill: #fff; stroke: #000; stroke-linecap: round; stroke-linejoin: round; stroke-width: 3px;"/>
            <path d="M33.78,90.48s-6.46-2.34-7.15,3.09c-.44,3.4.17,6.85,1.81,9.72,3.34,5.86,8.7,9.96,14.47,12.27,5.77,2.31,11.95,2.94,18.06,2.91-3.62,3.83-7.24,7.66-10.87,11.49-.37.4-.76.8-1.24,1.01-.81.36-1.72.08-2.54-.22-7.1-2.63-13.63-7.81-17.51-15.11-3.88-7.3-7.79-16.68-4.64-24.43,0,0,3.08-6.96,9.61-.75Z" style="fill: #fff; stroke: #000; stroke-linecap: round; stroke-linejoin: round; stroke-width: 3px;"/>
          </g>
          <g>
            <path d="M181.97,97.45c1.39,3.11,1.12,6.93-.04,10.16-2.04,5.69-6.55,9.86-11.5,12.24-4.95,2.38-10.36,3.17-15.71,3.74,2.52,3.3,4.93,6.72,7.22,10.24,11.32-.33,21.79-10.78,23.62-23.58.57-4.01.34-8.31-1.42-11.83-1.29-2.59-3.84-5.32-6.57-5.17,1.83.75,3.5,2.17,4.41,4.19Z" style="fill: #fff; stroke: #000; stroke-linecap: round; stroke-linejoin: round; stroke-width: 3px;"/>
            <path d="M182.02,95.83s-6.46-2.34-7.15,3.1c-.44,3.4.17,6.85,1.81,9.72,3.34,5.86,8.7,9.96,14.47,12.27,5.77,2.31,11.95,2.94,18.06,2.91-3.62,3.83-7.24,7.66-10.87,11.49-.37.4-.76.8-1.24,1.01-.81.36-1.72.08-2.54-.22-7.1-2.63-13.63-7.81-17.51-15.11-3.88-7.3-7.79-16.68-4.64-24.43,0,0,3.08-6.96,9.61-.75Z" style="fill: #fff; stroke: #000; stroke-linecap: round; stroke-linejoin: round; stroke-width: 3px;"/>
          </g>
          <line x1="2" y1="233.13" x2="2" y2="255.17" style="fill: none; stroke: #ff6100; stroke-linecap: round; stroke-miterlimit: 10; stroke-width: 4px;"/>
          <line x1="97.21" y1="233.13" x2="97.21" y2="255.17" style="fill: none; stroke: #ff6100; stroke-linecap: round; stroke-miterlimit: 10; stroke-width: 4px;"/>
        </g>
        <g id="point">
          <g id="point-6">
            <g>
              <path d="M222.81,187.23c-4.35,0-7.9-3.54-7.9-7.9s3.54-7.9,7.9-7.9,7.9,3.54,7.9,7.9-3.54,7.9-7.9,7.9Z" style="fill: #4b4c4e;"/>
              <path d="M222.81,172.94c3.53,0,6.4,2.87,6.4,6.4s-2.87,6.4-6.4,6.4-6.4-2.87-6.4-6.4,2.87-6.4,6.4-6.4M222.81,169.94c-5.19,0-9.4,4.21-9.4,9.4s4.21,9.4,9.4,9.4,9.4-4.21,9.4-9.4-4.21-9.4-9.4-9.4h0Z" style="fill: #2d3139;"/>
            </g>
            <line x1="222.81" y1="169.94" x2="222.81" y2="165.74" style="fill: #4b4c4e; stroke: #2d3139; stroke-linecap: round; stroke-miterlimit: 10; stroke-width: 3px;"/>
            <line x1="232.2" y1="179.34" x2="236.41" y2="179.34" style="fill: #4b4c4e; stroke: #2d3139; stroke-linecap: round; stroke-miterlimit: 10; stroke-width: 3px;"/>
            <line x1="222.81" y1="188.73" x2="222.81" y2="192.94" style="fill: #4b4c4e; stroke: #2d3139; stroke-linecap: round; stroke-miterlimit: 10; stroke-width: 3px;"/>
            <line x1="213.41" y1="179.34" x2="209.21" y2="179.34" style="fill: #4b4c4e; stroke: #2d3139; stroke-linecap: round; stroke-miterlimit: 10; stroke-width: 3px;"/>
            <line x1="229.45" y1="172.69" x2="232.42" y2="169.72" style="fill: #4b4c4e; stroke: #2d3139; stroke-linecap: round; stroke-miterlimit: 10; stroke-width: 3px;"/>
            <line x1="229.45" y1="185.98" x2="232.42" y2="188.95" style="fill: #4b4c4e; stroke: #2d3139; stroke-linecap: round; stroke-miterlimit: 10; stroke-width: 3px;"/>
            <line x1="216.16" y1="185.98" x2="213.19" y2="188.95" style="fill: #4b4c4e; stroke: #2d3139; stroke-linecap: round; stroke-miterlimit: 10; stroke-width: 3px;"/>
            <line x1="216.16" y1="172.69" x2="213.19" y2="169.72" style="fill: #4b4c4e; stroke: #2d3139; stroke-linecap: round; stroke-miterlimit: 10; stroke-width: 3px;"/>
          </g>
          <g id="point-5">
            <g>
              <path d="M250.39,86.03c-4.35,0-7.9-3.54-7.9-7.9s3.54-7.9,7.9-7.9,7.9,3.54,7.9,7.9-3.54,7.9-7.9,7.9Z" style="fill: #4b4c4e;"/>
              <path d="M250.39,71.74c3.53,0,6.4,2.87,6.4,6.4s-2.87,6.4-6.4,6.4-6.4-2.87-6.4-6.4,2.87-6.4,6.4-6.4M250.39,68.74c-5.19,0-9.4,4.21-9.4,9.4s4.21,9.4,9.4,9.4,9.4-4.21,9.4-9.4-4.21-9.4-9.4-9.4h0Z" style="fill: #2d3139;"/>
            </g>
            <line x1="250.39" y1="68.74" x2="250.39" y2="64.54" style="fill: #4b4c4e; stroke: #2d3139; stroke-linecap: round; stroke-miterlimit: 10; stroke-width: 3px;"/>
            <line x1="259.79" y1="78.14" x2="263.99" y2="78.14" style="fill: #4b4c4e; stroke: #2d3139; stroke-linecap: round; stroke-miterlimit: 10; stroke-width: 3px;"/>
            <line x1="250.39" y1="87.53" x2="250.39" y2="91.74" style="fill: #4b4c4e; stroke: #2d3139; stroke-linecap: round; stroke-miterlimit: 10; stroke-width: 3px;"/>
            <line x1="240.99" y1="78.14" x2="236.79" y2="78.14" style="fill: #4b4c4e; stroke: #2d3139; stroke-linecap: round; stroke-miterlimit: 10; stroke-width: 3px;"/>
            <line x1="257.03" y1="71.49" x2="260" y2="68.52" style="fill: #4b4c4e; stroke: #2d3139; stroke-linecap: round; stroke-miterlimit: 10; stroke-width: 3px;"/>
            <line x1="257.03" y1="84.78" x2="260" y2="87.75" style="fill: #4b4c4e; stroke: #2d3139; stroke-linecap: round; stroke-miterlimit: 10; stroke-width: 3px;"/>
            <line x1="243.75" y1="84.78" x2="240.77" y2="87.75" style="fill: #4b4c4e; stroke: #2d3139; stroke-linecap: round; stroke-miterlimit: 10; stroke-width: 3px;"/>
            <line x1="243.75" y1="71.49" x2="240.77" y2="68.52" style="fill: #4b4c4e; stroke: #2d3139; stroke-linecap: round; stroke-miterlimit: 10; stroke-width: 3px;"/>
          </g>
          <g id="point-4">
            <g>
              <path d="M58.91,107.95c-4.35,0-7.9-3.54-7.9-7.9s3.54-7.9,7.9-7.9,7.9,3.54,7.9,7.9-3.54,7.9-7.9,7.9Z" style="fill: #4b4c4e;"/>
              <path d="M58.91,93.66c3.53,0,6.4,2.87,6.4,6.4s-2.87,6.4-6.4,6.4-6.4-2.87-6.4-6.4,2.87-6.4,6.4-6.4M58.91,90.66c-5.19,0-9.4,4.21-9.4,9.4s4.21,9.4,9.4,9.4,9.4-4.21,9.4-9.4-4.21-9.4-9.4-9.4h0Z" style="fill: #2d3139;"/>
            </g>
            <line x1="58.91" y1="90.66" x2="58.91" y2="86.46" style="fill: #4b4c4e; stroke: #2d3139; stroke-linecap: round; stroke-miterlimit: 10; stroke-width: 3px;"/>
            <line x1="68.31" y1="100.05" x2="72.51" y2="100.05" style="fill: #4b4c4e; stroke: #2d3139; stroke-linecap: round; stroke-miterlimit: 10; stroke-width: 3px;"/>
            <line x1="58.91" y1="109.45" x2="58.91" y2="113.65" style="fill: #4b4c4e; stroke: #2d3139; stroke-linecap: round; stroke-miterlimit: 10; stroke-width: 3px;"/>
            <line x1="49.52" y1="100.05" x2="45.31" y2="100.05" style="fill: #4b4c4e; stroke: #2d3139; stroke-linecap: round; stroke-miterlimit: 10; stroke-width: 3px;"/>
            <line x1="65.56" y1="93.41" x2="68.53" y2="90.44" style="fill: #4b4c4e; stroke: #2d3139; stroke-linecap: round; stroke-miterlimit: 10; stroke-width: 3px;"/>
            <line x1="65.56" y1="106.7" x2="68.53" y2="109.67" style="fill: #4b4c4e; stroke: #2d3139; stroke-linecap: round; stroke-miterlimit: 10; stroke-width: 3px;"/>
            <line x1="52.27" y1="106.7" x2="49.3" y2="109.67" style="fill: #4b4c4e; stroke: #2d3139; stroke-linecap: round; stroke-miterlimit: 10; stroke-width: 3px;"/>
            <line x1="52.27" y1="93.41" x2="49.3" y2="90.44" style="fill: #4b4c4e; stroke: #2d3139; stroke-linecap: round; stroke-miterlimit: 10; stroke-width: 3px;"/>
          </g>
          <g id="point-3">
            <g>
              <path d="M209.21,118.33c-4.35,0-7.9-3.54-7.9-7.9s3.54-7.9,7.9-7.9,7.9,3.54,7.9,7.9-3.54,7.9-7.9,7.9Z" style="fill: #4b4c4e;"/>
              <path d="M209.21,104.04c3.53,0,6.4,2.87,6.4,6.4s-2.87,6.4-6.4,6.4-6.4-2.87-6.4-6.4,2.87-6.4,6.4-6.4M209.21,101.04c-5.19,0-9.4,4.21-9.4,9.4s4.21,9.4,9.4,9.4,9.4-4.21,9.4-9.4-4.21-9.4-9.4-9.4h0Z" style="fill: #2d3139;"/>
            </g>
            <line x1="209.21" y1="101.04" x2="209.21" y2="96.83" style="fill: #4b4c4e; stroke: #2d3139; stroke-linecap: round; stroke-miterlimit: 10; stroke-width: 3px;"/>
            <line x1="218.6" y1="110.43" x2="222.81" y2="110.43" style="fill: #4b4c4e; stroke: #2d3139; stroke-linecap: round; stroke-miterlimit: 10; stroke-width: 3px;"/>
            <line x1="209.21" y1="119.83" x2="209.21" y2="124.03" style="fill: #4b4c4e; stroke: #2d3139; stroke-linecap: round; stroke-miterlimit: 10; stroke-width: 3px;"/>
            <line x1="199.81" y1="110.43" x2="195.61" y2="110.43" style="fill: #4b4c4e; stroke: #2d3139; stroke-linecap: round; stroke-miterlimit: 10; stroke-width: 3px;"/>
            <line x1="215.85" y1="103.79" x2="218.82" y2="100.82" style="fill: #4b4c4e; stroke: #2d3139; stroke-linecap: round; stroke-miterlimit: 10; stroke-width: 3px;"/>
            <line x1="215.85" y1="117.08" x2="218.82" y2="120.05" style="fill: #4b4c4e; stroke: #2d3139; stroke-linecap: round; stroke-miterlimit: 10; stroke-width: 3px;"/>
            <line x1="202.57" y1="117.08" x2="199.59" y2="120.05" style="fill: #4b4c4e; stroke: #2d3139; stroke-linecap: round; stroke-miterlimit: 10; stroke-width: 3px;"/>
            <line x1="202.57" y1="103.79" x2="199.59" y2="100.82" style="fill: #4b4c4e; stroke: #2d3139; stroke-linecap: round; stroke-miterlimit: 10; stroke-width: 3px;"/>
          </g>
          <g id="point-2">
            <g>
              <path d="M166.91,162.14c-4.35,0-7.9-3.54-7.9-7.9s3.54-7.9,7.9-7.9,7.9,3.54,7.9,7.9-3.54,7.9-7.9,7.9Z" style="fill: #4b4c4e;"/>
              <path d="M166.91,147.85c3.53,0,6.4,2.87,6.4,6.4s-2.87,6.4-6.4,6.4-6.4-2.87-6.4-6.4,2.87-6.4,6.4-6.4M166.91,144.85c-5.19,0-9.4,4.21-9.4,9.4s4.21,9.4,9.4,9.4,9.4-4.21,9.4-9.4-4.21-9.4-9.4-9.4h0Z" style="fill: #2d3139;"/>
            </g>
            <line x1="166.91" y1="144.85" x2="166.91" y2="140.65" style="fill: #4b4c4e; stroke: #2d3139; stroke-linecap: round; stroke-miterlimit: 10; stroke-width: 3px;"/>
            <line x1="176.3" y1="154.24" x2="180.5" y2="154.24" style="fill: #4b4c4e; stroke: #2d3139; stroke-linecap: round; stroke-miterlimit: 10; stroke-width: 3px;"/>
            <line x1="166.91" y1="163.64" x2="166.91" y2="167.84" style="fill: #4b4c4e; stroke: #2d3139; stroke-linecap: round; stroke-miterlimit: 10; stroke-width: 3px;"/>
            <line x1="157.51" y1="154.24" x2="153.31" y2="154.24" style="fill: #4b4c4e; stroke: #2d3139; stroke-linecap: round; stroke-miterlimit: 10; stroke-width: 3px;"/>
            <line x1="173.55" y1="147.6" x2="176.52" y2="144.63" style="fill: #4b4c4e; stroke: #2d3139; stroke-linecap: round; stroke-miterlimit: 10; stroke-width: 3px;"/>
            <line x1="173.55" y1="160.89" x2="176.52" y2="163.86" style="fill: #4b4c4e; stroke: #2d3139; stroke-linecap: round; stroke-miterlimit: 10; stroke-width: 3px;"/>
            <line x1="160.26" y1="160.89" x2="157.29" y2="163.86" style="fill: #4b4c4e; stroke: #2d3139; stroke-linecap: round; stroke-miterlimit: 10; stroke-width: 3px;"/>
            <line x1="160.26" y1="147.6" x2="157.29" y2="144.63" style="fill: #4b4c4e; stroke: #2d3139; stroke-linecap: round; stroke-miterlimit: 10; stroke-width: 3px;"/>
          </g>
          <g id="point-1">
            <g>
              <path d="M160.27,97.11c-2.85,0-5.5-1.54-6.89-4.03-1.03-1.84-1.29-3.97-.72-6s1.9-3.72,3.73-4.75c1.18-.66,2.52-1.01,3.86-1.01,2.85,0,5.5,1.54,6.89,4.03,2.13,3.8.78,8.62-3.01,10.75-1.18.66-2.52,1.01-3.86,1.01Z" style="fill: #4b4c4e;"/>
              <path d="M160.25,82.81h0c2.31,0,4.45,1.25,5.58,3.26,1.73,3.07.63,6.98-2.44,8.71-.96.54-2.04.82-3.12.82-2.31,0-4.45-1.25-5.58-3.26-1.73-3.07-.63-6.98,2.44-8.71.96-.54,2.04-.82,3.12-.82M160.25,79.81c-1.56,0-3.14.39-4.59,1.21-4.52,2.54-6.13,8.27-3.59,12.79,1.72,3.07,4.91,4.79,8.2,4.79,1.56,0,3.14-.39,4.59-1.21,4.52-2.54,6.13-8.27,3.59-12.79-1.72-3.07-4.91-4.79-8.2-4.79h0Z" style="fill: #2d3139;"/>
            </g>
            <line x1="155.66" y1="81.02" x2="153.6" y2="77.35" style="fill: #4b4c4e; stroke: #2d3139; stroke-linecap: round; stroke-miterlimit: 10; stroke-width: 3px;"/>
            <line x1="168.45" y1="84.61" x2="172.12" y2="82.55" style="fill: #4b4c4e; stroke: #2d3139; stroke-linecap: round; stroke-miterlimit: 10; stroke-width: 3px;"/>
            <line x1="164.86" y1="97.4" x2="166.92" y2="101.06" style="fill: #4b4c4e; stroke: #2d3139; stroke-linecap: round; stroke-miterlimit: 10; stroke-width: 3px;"/>
            <line x1="152.07" y1="93.81" x2="148.41" y2="95.87" style="fill: #4b4c4e; stroke: #2d3139; stroke-linecap: round; stroke-miterlimit: 10; stroke-width: 3px;"/>
            <line x1="162.8" y1="80.16" x2="163.93" y2="76.12" style="fill: #4b4c4e; stroke: #2d3139; stroke-linecap: round; stroke-miterlimit: 10; stroke-width: 3px;"/>
            <line x1="169.31" y1="91.75" x2="173.35" y2="92.88" style="fill: #4b4c4e; stroke: #2d3139; stroke-linecap: round; stroke-miterlimit: 10; stroke-width: 3px;"/>
            <line x1="157.72" y1="98.26" x2="156.59" y2="102.3" style="fill: #4b4c4e; stroke: #2d3139; stroke-linecap: round; stroke-miterlimit: 10; stroke-width: 3px;"/>
            <line x1="151.22" y1="86.67" x2="147.17" y2="85.54" style="fill: #4b4c4e; stroke: #2d3139; stroke-linecap: round; stroke-miterlimit: 10; stroke-width: 3px;"/>
          </g>
        </g>
      </g>
    </g>
  </g>
</svg>