<?xml version="1.0" encoding="UTF-8"?>
<svg id="_圖層_2" data-name="圖層 2" xmlns="http://www.w3.org/2000/svg" viewBox="0 0 1492.49 563.64">
  <g id="_圖層_1-2" data-name="圖層 1">
    <path d="M18.14,52.48c10.91,13.51,26.12,23.18,43.62,24.77,16.51,1.5,31.84-1.6,48.12-3.05,65.93-5.85,137.51,25.2,184.74,70.04,45.4,43.1,79.6,98.84,134.97,130.66,81.98,47.11,194.09,48.07,281.16,16.23,45.29-16.57,88.33-42.62,136.42-46.23,26.66-2,53.83,3.25,77.82,15.03,43.91,21.56,77.85,64.49,126.03,72.95,31.3,5.5,62.88-4.79,94.09-10.76,67.85-12.97,146.73-1.38,190.03,52.44,22.89,28.45,32.96,64.9,50.82,96.74,20.25,36.11,61.16,83.76,103.55,92.34,6.16-43.77.86-92.47.86-136.89V1.11s-.54,0-.57,0c-86.72-.08-173.43-.15-260.15-.22-187.76-.16-375.51-.32-563.27-.48-105.7-.09-211.39-.18-317.09-.27C298.06.09,246.82.05,195.58,0c-21.24-.02-42.48.13-63.72.26C104.36.43,0,1.69.02,1.11c-.49,17.85,6.58,37.09,18.12,51.37Z" style="fill: #fff;"/>
  </g>
</svg>