<?xml version="1.0" encoding="UTF-8"?>
<svg id="_圖層_2" data-name="圖層 2" xmlns="http://www.w3.org/2000/svg" xmlns:xlink="http://www.w3.org/1999/xlink" viewBox="0 0 282.61 276.52">
  <defs>
    <filter id="drop-shadow-1" x="0" y="0" width="294.61" height="288.51" filterUnits="userSpaceOnUse">
      <feOffset dx="11.99" dy="11.99"/>
      <feGaussianBlur result="blur" stdDeviation="0"/>
      <feFlood flood-color="#000" flood-opacity=".2"/>
      <feComposite in2="blur" operator="in"/>
      <feComposite in="SourceGraphic"/>
    </filter>
  </defs>
  <g id="_圖層_1-2" data-name="圖層 1">
    <g style="filter: url(#drop-shadow-1);">
      <path d="M136.97,79.5s-16.9-36.7-13.66-52.15c.26-1.25,7.4-20.34,27.71-20.04,0,0-8.42-4.12-12.54,9.39-4.12,13.51,6.93,48.12,6.93,48.12l-6.76,13.03" style="fill: #fff; stroke: #2e3138; stroke-linecap: round; stroke-linejoin: round; stroke-width: 3px;"/>
      <path d="M156.1,87.86s2.21-17.95,20.61-32.15c18.4-14.21,48.11,6.3,78.13,77.97,30.03,71.67,39.71,147.71,0,140.93-39.71-6.78-64.98-9.18-81.89-39.7l29.59-29.79-2.76-40.39-43.69-76.86Z" style="fill: #d36f62;"/>
      <path d="M207.21,257.42c13.12,2.87,26.97,1.63,39.87,5.37,1.94.56,3.93,1.29,5.27,2.8,1.34,1.51,1.75,4.01.39,5.51-1.19,1.31-3.2,1.39-4.97,1.38-5.79-.05-11.62-.11-17.3-1.26-7.38-1.49-14.29-4.8-21.67-6.29-2.55-.52-5.16-.82-7.58-1.76-3.47-1.35-6.32-3.9-9.08-6.4-2.11-1.91-4.23-3.83-6.26-5.83-1.72-1.69-4.81-4.08-5.59-6.36,4.34,2.27,8.1,5.71,12.61,7.89,4.55,2.2,9.36,3.87,14.3,4.95Z" style="fill: #f4a289;"/>
      <path d="M131.02,88.88s-1.61-33.66-19.05-43.83c-17.43-10.17-58.11,38.74-81.84,84.27C6.4,174.84,1.83,247.6,1.56,252.81c-.31,5.97-.94,23.73,41.65,11.14,56.46-16.69,72.01-14.27,83.95-36.92" style="fill: #d36f62;"/>
      <path d="M118.84,237.84c-25.47,10.19-52.47,16.55-79.8,18.81-4.34.36-6.84,1.34-11,2.66-1.67.53-3.63,1.51-3.65,3.26-.02,1.18.96,2.19,2.08,2.59s2.33.32,3.51.22c9.43-.81,18.79-2.56,27.88-5.21,8.63-2.52,17.08-5.87,25.99-7.1,3.24-.45,9.42-2.52,12.63-3.16,9.39-1.89,15.16-5.75,22.36-12.06Z" style="fill: #f4a289;"/>
      <path d="M156.1,87.86s2.21-17.95,20.61-32.15c18.4-14.21,48.11,6.3,78.13,77.97,30.03,71.67,39.71,147.71,0,140.93-39.71-6.78-64.98-9.18-81.89-39.7l29.59-29.79-2.76-40.39-43.69-76.86Z" style="fill: none; stroke: #2e3138; stroke-linecap: round; stroke-linejoin: round; stroke-width: 3px;"/>
      <path d="M131.02,88.88s-1.61-33.66-19.05-43.83c-17.43-10.17-58.11,38.74-81.84,84.27C6.4,174.84,1.83,247.6,1.56,252.81c-.31,5.97-.94,23.73,41.65,11.14,56.46-16.69,72.01-14.27,83.95-36.92" style="fill: none; stroke: #2e3138; stroke-linecap: round; stroke-linejoin: round; stroke-width: 3px;"/>
      <g>
        <path d="M91.88,71.87c-7.95,6.16-14.57,13.87-19.9,20.58-13.4,16.88-24.27,35.79-32.66,55.62-11.53,27.25-18.38,54.48-12.91,84.22.8,4.37,2.16,9.16,5.96,11.46,1.81,1.09,3.95,1.47,6.05,1.7,12.29,1.37,25.11-1.23,37.24-3.05,12.7-1.9,25.36-4.08,37.97-6.5,3.39-.65,6.92-1.38,9.6-3.54,2.92-2.35,4.4-6.03,5.51-9.61,3.09-10.02,4.22-20.54,5.13-30.99,2.11-24.21,3.14-48.51,3.09-72.81-.01-7.26-.19-14.8-3.39-21.32-1.11-2.26-1.89-5.68-2.55-8.75-1.58-7.33-1.17-17.81-8.94-21.98-8.93-4.8-23.06-.57-30.21,4.97Z" style="fill: #ea8a7d; stroke: #2e3138; stroke-linecap: round; stroke-linejoin: round; stroke-width: 3px;"/>
        <path d="M159.02,86.16c-4.98,8.78-9.71,17.87-11.87,27.74-4.3,19.61,2.21,40.5,14.04,56.71,6.59,9.03,15.2,17.95,15.34,29.13.08,6.04-2.4,11.77-4.1,17.56-1.7,5.8-2.55,12.4.53,17.59,5.08,8.58,18.72,10.53,27.63,10.41,13.1-.19,25.55,5.08,38.61,5.42,12,.31,17.39-5.84,18.79-17.26,6.37-52.05-11.03-106.54-46.38-145.26-8.02-8.79-17.61-17.04-29.55-19.59-11.89-2.54-17.82,8.34-23.04,17.54Z" style="fill: #ea8a7d; stroke: #2e3138; stroke-linecap: round; stroke-linejoin: round; stroke-width: 3px;"/>
        <path d="M143.1,92.01c6.9,7.84,27.46,30.69,32.51,35.98,6.35,6.64,6,9.55,6,9.55l-.15,6.57c.24,16.49-5.16,18.76-5.16,18.76,2.77-.7,4.65-4.04,4.65-4.04.64,3.88,4.01,7.18,7.12,9.6-1.8-1.16-2.79-3.22-3.51-5.24-2.81-7.97-2.52-16.99.79-24.76,3.85,5.85,7.72,11.72,10.76,18.03,1.31,2.72,2.46,5.5,3.66,8.26,1.04,2.38.58,5.02-.28,7.43-.52,1.45-1.19,2.86-2.19,4.03s-2.35,2.08-3.87,2.34c1.52.44,3.13-.33,4.38-1.31,2.15-1.7,3.72-4.1,4.42-6.75.99,1.16,1.69,2.68,2.43,4.01.87,1.56,1.73,3.12,2.49,4.74,1.45,3.11,2.5,6.51,2.1,9.98-.47,4.07-3.01,7.84-6.61,9.8,4.62.37,9.14-3.57,9.41-8.19,1.44,2.08,1.93,4.67,2.28,7.17.52,3.71.81,7.51.15,11.2s-2.36,7.3-5.26,9.68c3.44-1.23,5.71-4.63,6.76-8.13,1.05-3.5,1.13-7.21,1.63-10.84.08-.55.27-1.22.82-1.32.41-.08.78.22,1.09.5,1.62,1.43,3.36,2.77,5.33,3.66,3.13,1.42,6.78,1.64,10.05.61-4.67,1.13-9.45-1.67-12.73-5.19-8.34-8.96-9.53-21.7-16.44-31.8-.96-1.41-1.93-2.82-2.89-4.23-.21-.31-.44-.65-.46-1.03-.04-.63.5-1.17,1.11-1.36.6-.18,1.25-.09,1.87,0,3.38.52,6.79,1.05,9.98,2.26,3.19,1.22,6.2,3.2,8.04,6.08-.36-1.67-.85-3.35-1.78-4.79-.93-1.44-2.6-2.86-4.28-3.17.77-2.14,2.7-3.7,4.81-4.55,2.11-.85,5.03-2.07,7.29-2.31-2.42-.98-5.82-.08-8.28.78,1.6-3.96,1.18-8.68-1.09-12.3.69,2.61,1.19,5.87.07,8.45-.96,2.2-3.32,4.43-5.69,4.98-2.27.52-5.47.09-7.62-.73-2.34-.9-4.3-2.59-5.9-4.52-.79-.95-1.49-1.96-2.12-3.02-1.38-2.34-2.19-4.93-3.52-7.31-1.32-2.35-2.78-4.63-4.29-6.86-2.19-3.23-4.38-6.52-6.75-9.63-1.78-2.33-4.65-4.93-3.79-8.2.35-1.32,1.32-2.39,2.41-3.22,3.12-2.36,7.28-2.95,11.18-2.54,2.78.29,5.88,1.36,6.91,3.96.47,1.18.42,2.5.35,3.77-.11,1.75-.33,3.67-1.59,4.89s-3.88,1.03-4.29-.68c-.36,2.06,1.87,3.91,3.95,3.69s3.72-1.99,4.44-3.94.69-4.1.66-6.19c1.27,4.65,4.2,8.83,8.14,11.63-.12-.11-.24-.23-.36-.34-1.99-1.92-3.62-4.22-4.8-6.72-.58-1.23-.96-2.52-1.44-3.78-.43-1.11.23-2.46,1.12-3.2.82-.68,1.9-.96,2.96-1.07,1.06-.12,2.13-.1,3.18-.29.87-.15,1.71-.45,2.48-.87-2.61.19-5.63.27-8.18-.39-2.03-.53-4.01-2.15-4.94-4.02-1.1-2.22-.69-5.24,1.3-6.72-4.49,3.26-9.78,5.41-15.27,6.21-1.86.27-3.94.33-5.44-.81-1.96-1.5-2.11-4.4-1.64-6.83.46-2.39,1.35-4.7,2.6-6.78,1.63-2.72,3.9-5.11,4.84-8.14.94-3.03-.15-7.07-3.22-7.85,2.48,1.41,2.31,5.22.7,7.57-1.61,2.35-4.16,3.89-6.03,6.04-2.12,2.44-3.29,5.69-3.21,8.92.08,3.3,1.56,6.97.56,10.23-1.19,3.86-5.58,3.07-8.18.9-1.4-1.17-14.85-22.8-18.61-28.82" style="fill: #fff; stroke: #2e3138; stroke-linecap: round; stroke-linejoin: round; stroke-width: 3px;"/>
        <path d="M177.23,30.28c-.13-5.03-3.48-11.52-6.73-15.36s-5.39-8.82-19.48-7.62c3.43.09,8.91-.07,11.54,4.86,1.62,3.03.45,5.14.36,8.57-.23,8.58-15.14,41.11-27.36,62.89l-2.33,2.96c-3.4,6-6.6,11.26-9.34,15.26l-1.9,3.36c-1.76,2.85-.98,1.95-2.71,4.8-1.74,2.84-4.21,5.58-7.5,6.14-4.52.78-8.81-3.05-10.2-7.42-1.39-4.37-.63-9.11.14-13.63-3.92,3.6-4.81,10.06-2.01,14.58-2.9,1.43-6.57.14-8.79-2.22-2.21-2.36-3.27-5.56-4.11-8.69-.56,5.13,1.62,10.47,5.6,13.75-1.81.73-7.66,5.47-5.28,7.73-.28-3.66,4.2-5.48,7.32-4.8,1.75.38,3.28,1.42,4.75,2.44,1.93,1.33,3.85,2.67,5.78,4,.64.44,1.31.91,1.66,1.61.54,1.06.21,2.34-.14,3.48-1.22,4.06-2.65,8.43-6.12,10.87-2.28,1.6-5.13,2.13-7.9,2.47-2.49.31-5,.5-7.51.57-1.49.04-3.01.04-4.43-.41-2.3-.73-4.11-2.58-5.29-4.68s-1.82-4.46-2.45-6.79c-.5,4.66.91,9.49,3.83,13.15-2.66,1.18-5.35,2.37-7.67,4.11s-4.3,4.11-5.02,6.93c1.61-3.51,5.65-5.3,9.5-5.67,3.84-.37,7.71.36,11.57.38,4.7.02,9.4-1.04,13.64-3.08-2.22,3.59-4.44,7.18-6.67,10.77-2.14,3.47-4.47,7.1-8.11,8.93-2.67,1.35-5.79,1.57-8.49,2.86-2.25,1.08-4.14,2.9-5.3,5.11.53-1.54,1.98-2.62,3.52-3.17,1.54-.55,3.19-.66,4.81-.86,3.29-.42,6.53-1.24,9.61-2.45.44,2.62-1.78,8.12-4.1,12.6-3.22,6.22-4.84,8.05-8.84,13.33-2.09,2.75-4.27,5.16-7.45,6.58-3.6,1.6-7.33,3.24-11.28,3.24,1.22.73,2.72.78,4.15.72,2.44-.1,6.17.54,13.84-4.05,1.31-.79,2.26-2.07,3.19-3.28.44.9.1,2.7,0,3.67-.13,1.29-.39,2.56-.78,3.8-.76,2.47-2.01,4.8-3.68,6.77,4.18-2.13,5.75-7.19,7.18-11.65,3.44-10.71,8.4-20.93,14.7-30.25.72.41,1.09,1.59,1.38,2.37,1.72,4.64,3.43,9.28,5.15,13.91.83,2.23,1.65,4.46,2.27,6.76,1.25,4.6,1.66,9.43,1.21,14.17-.35,3.7-1.33,7.55-3.95,10.19,4.69-3.93,7.53-9.99,7.53-16.11,3.34,2.6,7.05,3.52,11.16,3.66-1.35-.62-2.68-1.28-3.99-1.97-.97-.52-1.94-1.06-2.79-1.77-.9-.75-1.64-1.66-2.34-2.6-3.54-4.74-4.82-10.15-6.49-15.81-1.77-5.97-4.02-10.95-5.99-16.86-.54-1.61-.44-2.4.3-3.97.79-1.67,22.57-40.52,31.18-48.53l11.73-16.18s36.15-55.43,35.92-64.49Z" style="fill: #fff; stroke: #2e3138; stroke-linecap: round; stroke-linejoin: round; stroke-width: 3px;"/>
      </g>
      <path d="M125.23,104.28c1.41,1.11,3.06,1.92,4.81,2.36" style="fill: none; stroke: #2e3138; stroke-linecap: round; stroke-linejoin: round; stroke-width: 3px;"/>
      <path d="M129.06,97.21c1.01,1.44,2.79,2.31,4.55,2.22" style="fill: none; stroke: #2e3138; stroke-linecap: round; stroke-linejoin: round; stroke-width: 3px;"/>
      <path d="M161.09,99.5c-1.1.97-2.47,1.64-3.91,1.92" style="fill: none; stroke: #2e3138; stroke-linecap: round; stroke-linejoin: round; stroke-width: 3px;"/>
      <path d="M156.54,93.33c-1.24,1.46-2.98,2.49-4.86,2.88" style="fill: none; stroke: #2e3138; stroke-linecap: round; stroke-linejoin: round; stroke-width: 3px;"/>
      <path d="M131.98,87.84c1.58,1.82,3.6,3.27,5.83,4.17" style="fill: none; stroke: #2e3138; stroke-linecap: round; stroke-linejoin: round; stroke-width: 3px;"/>
      <path d="M16.92,162.84c1.61,7.3,4.93,12.62,10.15,17.97" style="fill: none; stroke: #2e3138; stroke-linecap: round; stroke-linejoin: round; stroke-width: 3px;"/>
      <path d="M45.31,263.33c-6.97,2.45-16.35,2.75-23.46.74-2.37-.67-5.01-1.96-5.49-4.38-.52-2.58,1.7-4.86,3.84-6.38,6.86-4.88,13.92-6.77,22.07-7.48" style="fill: none; stroke: #2e3138; stroke-linecap: round; stroke-linejoin: round; stroke-width: 3px;"/>
      <path d="M239.19,250.73c1.75.12,4.77.07,6.52.18,3.13.21,6.29.43,9.29,1.34,3,.91,5.88,2.58,7.65,5.17s2.25,6.18.67,8.89c-1.43,2.45-4.19,3.79-6.88,4.69-6.57,2.2-14.76,1.6-21.55.21" style="fill: none; stroke: #2e3138; stroke-linecap: round; stroke-linejoin: round; stroke-width: 3px;"/>
      <path d="M270.7,181.2c-2.54,5.94-5.73,10.9-11.56,13.7" style="fill: none; stroke: #2e3138; stroke-linecap: round; stroke-linejoin: round; stroke-width: 3px;"/>
      <path d="M123.31,27.34s4.47-17.61,7.08-19.09c4.67-2.65,10.41-6.2,20.19-6.71,12.92-.68,22.25,8.13,25.86,13.59,0,0,1.2,13.38.79,15.15,0,0-5.17-10.32-25.92-11.45-20.75-1.13-28.01,8.51-28.01,8.51Z" style="fill: #fff; stroke: #2e3138; stroke-linecap: round; stroke-linejoin: round; stroke-width: 3px;"/>
    </g>
  </g>
</svg>