<?xml version="1.0" encoding="UTF-8"?>
<svg xmlns="http://www.w3.org/2000/svg" viewBox="0 0 294.82 288.73">
  <g style="isolation: isolate;">
    <g id="_圖層_2" data-name="圖層 2">
      <g id="_圖層_4" data-name="圖層 4">
        <g>
          <g style="mix-blend-mode: multiply; opacity: .2;">
            <path d="M149.07,91.56s-16.91-36.72-13.67-52.19c.26-1.25,7.4-20.35,27.73-20.06,0,0-8.42-4.12-12.55,9.4-4.12,13.52,6.93,48.15,6.93,48.15l-6.76,13.04" style="stroke: #000; stroke-linecap: round; stroke-linejoin: round; stroke-width: 3px;"/>
            <path d="M168.21,99.92s2.21-17.96,20.63-32.18c18.42-14.22,48.14,6.3,78.19,78.03,30.05,71.73,39.74,147.82,0,141.03-39.74-6.78-65.03-9.19-81.95-39.73l29.62-29.81-2.77-40.42-43.72-76.92Z"/>
            <path d="M219.36,269.61c13.13,2.87,26.99,1.63,39.9,5.37,1.94.56,3.93,1.29,5.27,2.8s1.75,4.02.39,5.51c-1.19,1.31-3.2,1.39-4.97,1.38-5.79-.05-11.63-.11-17.31-1.26-7.38-1.49-14.3-4.8-21.68-6.29-2.55-.52-5.16-.82-7.58-1.76-3.47-1.35-6.32-3.9-9.08-6.4-2.12-1.92-4.23-3.83-6.27-5.83-1.72-1.7-4.82-4.08-5.59-6.37,4.34,2.27,8.1,5.71,12.62,7.9s9.37,3.87,14.31,4.95Z"/>
            <path d="M143.12,100.94s-1.62-33.68-19.06-43.86c-17.45-10.18-58.16,38.77-81.9,84.33-23.75,45.56-28.32,118.37-28.59,123.58-.31,5.98-.94,23.75,41.68,11.15,56.5-16.7,72.06-14.28,84.01-36.94"/>
            <path d="M130.93,250.02c-25.49,10.2-52.5,16.57-79.86,18.82-4.35.36-6.85,1.34-11,2.66-1.67.53-3.63,1.51-3.65,3.26-.02,1.18.96,2.2,2.08,2.6s2.34.32,3.51.22c9.44-.81,18.8-2.56,27.9-5.22,8.64-2.52,17.1-5.87,26.01-7.11,3.24-.45,9.43-2.52,12.64-3.17,9.39-1.9,15.17-5.76,22.38-12.07Z"/>
            <path d="M168.21,99.92s2.21-17.96,20.63-32.18c18.42-14.22,48.14,6.3,78.19,78.03,30.05,71.73,39.74,147.82,0,141.03-39.74-6.78-65.03-9.19-81.95-39.73l29.62-29.81-2.77-40.42-43.72-76.92Z" style="fill: none; stroke: #000; stroke-linecap: round; stroke-linejoin: round; stroke-width: 3px;"/>
            <path d="M143.12,100.94s-1.62-33.68-19.06-43.86c-17.45-10.18-58.16,38.77-81.9,84.33-23.75,45.56-28.32,118.37-28.59,123.58-.31,5.98-.94,23.75,41.68,11.15,56.5-16.7,72.06-14.28,84.01-36.94" style="fill: none; stroke: #000; stroke-linecap: round; stroke-linejoin: round; stroke-width: 3px;"/>
            <path d="M103.95,83.92c-7.96,6.16-14.58,13.88-19.92,20.59-13.41,16.89-24.29,35.81-32.68,55.66-11.54,27.27-18.39,54.52-12.92,84.28.8,4.37,2.16,9.17,5.97,11.47,1.81,1.09,3.96,1.47,6.06,1.7,12.29,1.37,25.13-1.23,37.26-3.05,12.71-1.9,25.38-4.09,38-6.5,3.39-.65,6.92-1.38,9.61-3.54,2.93-2.35,4.4-6.03,5.51-9.62,3.1-10.03,4.22-20.55,5.13-31.01,2.11-24.23,3.14-48.55,3.1-72.87-.01-7.27-.19-14.82-3.39-21.34-1.11-2.26-1.89-5.69-2.55-8.76-1.58-7.34-1.17-17.82-8.94-22-8.94-4.8-23.08-.57-30.23,4.97Z" style="stroke: #000; stroke-linecap: round; stroke-linejoin: round; stroke-width: 3px;"/>
            <path d="M171.13,98.22c-4.99,8.79-9.72,17.89-11.88,27.76-4.3,19.62,2.21,40.53,14.05,56.76,6.59,9.04,15.21,17.97,15.35,29.16.08,6.04-2.4,11.78-4.11,17.58-1.7,5.8-2.55,12.4.53,17.61,5.08,8.58,18.73,10.54,27.65,10.42,13.11-.19,25.57,5.09,38.64,5.42,12.01.31,17.4-5.85,18.8-17.28,6.37-52.09-11.04-106.61-46.41-145.37-8.03-8.8-17.63-17.05-29.57-19.6-11.9-2.54-17.83,8.35-23.05,17.56Z" style="stroke: #000; stroke-linecap: round; stroke-linejoin: round; stroke-width: 3px;"/>
            <path d="M155.21,104.08c6.9,7.84,27.48,30.72,32.53,36,6.35,6.64,6.01,9.56,6.01,9.56l-.15,6.58c.24,16.51-5.17,18.78-5.17,18.78,2.77-.7,4.65-4.04,4.65-4.04.64,3.89,4.02,7.18,7.13,9.6-1.8-1.16-2.8-3.22-3.51-5.24-2.81-7.98-2.52-17,.79-24.78,3.86,5.85,7.73,11.73,10.77,18.05,1.31,2.72,2.46,5.51,3.67,8.27,1.04,2.39.58,5.02-.28,7.44-.52,1.45-1.19,2.87-2.19,4.04s-2.36,2.08-3.87,2.34c1.52.44,3.14-.33,4.38-1.31,2.15-1.7,3.73-4.1,4.42-6.75.99,1.16,1.69,2.69,2.43,4.01.87,1.56,1.73,3.12,2.49,4.74,1.45,3.12,2.5,6.51,2.1,9.99-.47,4.07-3.01,7.85-6.61,9.8,4.62.37,9.14-3.57,9.41-8.2,1.44,2.09,1.93,4.67,2.28,7.18.52,3.72.81,7.52.15,11.21s-2.36,7.31-5.26,9.69c3.45-1.23,5.71-4.63,6.76-8.14,1.05-3.51,1.13-7.22,1.63-10.84.08-.55.27-1.22.82-1.32.41-.08.78.22,1.09.5,1.62,1.43,3.36,2.77,5.33,3.67,3.13,1.42,6.78,1.64,10.06.61-4.67,1.13-9.46-1.67-12.74-5.19-8.35-8.96-9.54-21.71-16.45-31.82-.97-1.41-1.93-2.82-2.9-4.23-.21-.31-.44-.65-.46-1.03-.04-.63.5-1.17,1.11-1.36s1.25-.09,1.87,0c3.38.52,6.79,1.05,9.99,2.27,3.2,1.22,6.2,3.2,8.05,6.08-.36-1.67-.85-3.35-1.78-4.79s-2.6-2.86-4.28-3.17c.77-2.14,2.7-3.7,4.81-4.55,2.11-.85,5.03-2.07,7.29-2.31-2.42-.98-5.82-.08-8.28.78,1.61-3.96,1.19-8.69-1.09-12.31.69,2.62,1.19,5.88.07,8.45-.96,2.2-3.32,4.44-5.69,4.98-2.27.52-5.47.09-7.62-.74-2.34-.9-4.3-2.6-5.9-4.53-.79-.95-1.49-1.96-2.12-3.02-1.38-2.34-2.2-4.94-3.53-7.31s-2.78-4.63-4.29-6.86c-2.19-3.24-4.38-6.53-6.75-9.63-1.78-2.33-4.65-4.94-3.79-8.21.35-1.32,1.32-2.4,2.41-3.22,3.13-2.36,7.29-2.95,11.18-2.54,2.78.29,5.88,1.36,6.92,3.96.47,1.18.42,2.5.35,3.77-.11,1.75-.33,3.67-1.59,4.9s-3.88,1.03-4.29-.68c-.36,2.06,1.87,3.91,3.95,3.69s3.72-1.99,4.44-3.95.69-4.1.66-6.19c1.28,4.66,4.2,8.84,8.14,11.63-.12-.11-.24-.23-.36-.34-1.99-1.92-3.63-4.22-4.81-6.73-.58-1.23-.96-2.52-1.44-3.79-.43-1.11.23-2.47,1.12-3.2.82-.68,1.91-.96,2.97-1.08s2.14-.1,3.19-.29c.87-.15,1.71-.45,2.49-.87-2.62.19-5.63.27-8.18-.39-2.03-.53-4.02-2.16-4.94-4.02-1.1-2.22-.69-5.25,1.3-6.72-4.49,3.26-9.79,5.41-15.28,6.21-1.87.27-3.94.33-5.44-.81-1.96-1.5-2.11-4.41-1.64-6.83.46-2.39,1.35-4.7,2.6-6.79,1.63-2.72,3.91-5.12,4.85-8.14s-.15-7.08-3.23-7.85c2.48,1.42,2.31,5.22.7,7.58-1.61,2.36-4.17,3.89-6.03,6.04-2.12,2.44-3.29,5.7-3.21,8.93.08,3.31,1.56,6.97.56,10.24-1.19,3.87-5.58,3.08-8.19.91-1.4-1.17-14.87-22.82-18.63-28.84" style="stroke: #000; stroke-linecap: round; stroke-linejoin: round; stroke-width: 3px;"/>
            <path d="M189.36,42.3c-.13-5.03-3.48-11.52-6.73-15.37s-5.39-8.83-19.5-7.63c3.43.09,8.91-.07,11.55,4.86,1.62,3.03.45,5.14.36,8.57-.23,8.59-15.16,41.14-27.38,62.93l-2.33,2.97c-3.4,6.01-6.6,11.27-9.35,15.27l-1.9,3.36c-1.76,2.85-.98,1.95-2.72,4.8-1.74,2.85-4.21,5.58-7.5,6.15-4.53.78-8.82-3.05-10.21-7.42-1.39-4.38-.63-9.11.14-13.64-3.93,3.6-4.82,10.07-2.01,14.59-2.91,1.43-6.58.14-8.79-2.22s-3.28-5.56-4.11-8.69c-.56,5.13,1.62,10.48,5.6,13.76-1.82.73-7.67,5.48-5.29,7.73-.28-3.66,4.2-5.48,7.32-4.8,1.75.38,3.28,1.42,4.75,2.45,1.93,1.33,3.86,2.67,5.79,4,.64.44,1.31.92,1.66,1.61.54,1.06.21,2.34-.14,3.49-1.22,4.06-2.65,8.44-6.13,10.87-2.28,1.6-5.13,2.13-7.9,2.47-2.49.31-5,.5-7.51.57-1.49.04-3.01.04-4.43-.41-2.3-.73-4.11-2.58-5.3-4.69-1.18-2.1-1.82-4.46-2.45-6.79-.5,4.66.91,9.5,3.84,13.16-2.66,1.18-5.35,2.37-7.68,4.11s-4.31,4.11-5.02,6.93c1.61-3.51,5.66-5.3,9.5-5.67,3.85-.37,7.71.37,11.58.38,4.7.02,9.41-1.04,13.65-3.08-2.22,3.59-4.45,7.19-6.67,10.78-2.15,3.47-4.47,7.1-8.11,8.94-2.67,1.35-5.8,1.57-8.5,2.87-2.25,1.08-4.14,2.9-5.3,5.11.53-1.54,1.98-2.62,3.52-3.17s3.19-.66,4.81-.87c3.29-.42,6.53-1.24,9.62-2.45.44,2.62-1.78,8.12-4.1,12.61-3.22,6.23-4.84,8.06-8.85,13.34-2.09,2.76-4.27,5.16-7.46,6.58-3.6,1.61-7.34,3.24-11.28,3.25,1.22.73,2.73.78,4.15.72,2.44-.1,6.17.54,13.85-4.05,1.31-.79,2.26-2.07,3.19-3.28.44.9.1,2.7,0,3.67-.13,1.29-.39,2.56-.78,3.8-.76,2.47-2.01,4.8-3.69,6.78,4.18-2.13,5.75-7.19,7.19-11.66,3.44-10.72,8.41-20.94,14.71-30.27.72.41,1.09,1.6,1.38,2.37,1.72,4.64,3.44,9.28,5.16,13.93.83,2.23,1.65,4.47,2.28,6.76,1.25,4.6,1.66,9.43,1.21,14.18-.35,3.7-1.33,7.55-3.95,10.19,4.7-3.93,7.54-10,7.54-16.13,3.34,2.6,7.05,3.52,11.17,3.66-1.35-.62-2.68-1.28-3.99-1.98-.97-.52-1.94-1.06-2.79-1.77-.9-.75-1.64-1.67-2.34-2.6-3.55-4.74-4.82-10.16-6.5-15.82-1.77-5.97-4.02-10.95-5.99-16.87-.54-1.61-.44-2.41.3-3.97.79-1.67,22.59-40.55,31.2-48.57l11.74-16.19s36.18-55.47,35.94-64.54Z" style="stroke: #000; stroke-linecap: round; stroke-linejoin: round; stroke-width: 3px;"/>
            <path d="M137.32,116.35c1.41,1.11,3.07,1.93,4.81,2.37" style="fill: none; stroke: #000; stroke-linecap: round; stroke-linejoin: round; stroke-width: 3px;"/>
            <path d="M141.15,109.28c1.01,1.44,2.79,2.31,4.55,2.22" style="fill: none; stroke: #000; stroke-linecap: round; stroke-linejoin: round; stroke-width: 3px;"/>
            <path d="M173.21,111.57c-1.1.97-2.47,1.64-3.91,1.92" style="fill: none; stroke: #000; stroke-linecap: round; stroke-linejoin: round; stroke-width: 3px;"/>
            <path d="M168.66,105.4c-1.25,1.46-2.98,2.49-4.86,2.89" style="fill: none; stroke: #000; stroke-linecap: round; stroke-linejoin: round; stroke-width: 3px;"/>
            <path d="M144.08,99.91c1.58,1.83,3.6,3.27,5.84,4.17" style="fill: none; stroke: #000; stroke-linecap: round; stroke-linejoin: round; stroke-width: 3px;"/>
            <path d="M28.93,174.96c1.61,7.3,4.94,12.63,10.16,17.98" style="fill: none; stroke: #000; stroke-linecap: round; stroke-linejoin: round; stroke-width: 3px;"/>
            <path d="M57.35,275.52c-6.98,2.45-16.36,2.76-23.48.74-2.38-.67-5.01-1.96-5.5-4.38-.52-2.58,1.7-4.86,3.85-6.39,6.86-4.89,13.93-6.77,22.09-7.48" style="fill: none; stroke: #000; stroke-linecap: round; stroke-linejoin: round; stroke-width: 3px;"/>
            <path d="M251.37,262.91c1.75.12,4.77.07,6.52.18,3.13.21,6.3.43,9.3,1.34s5.88,2.58,7.66,5.17c1.77,2.59,2.25,6.19.67,8.9-1.43,2.45-4.19,3.79-6.88,4.69-6.58,2.2-14.77,1.6-21.57.21" style="fill: none; stroke: #000; stroke-linecap: round; stroke-linejoin: round; stroke-width: 3px;"/>
            <path d="M282.9,193.33c-2.55,5.94-5.74,10.91-11.57,13.71" style="fill: none; stroke: #000; stroke-linecap: round; stroke-linejoin: round; stroke-width: 3px;"/>
            <path d="M135.4,39.36s4.47-17.62,7.09-19.11c4.67-2.65,10.42-6.2,20.21-6.72,12.93-.68,22.27,8.14,25.88,13.6,0,0,1.2,13.39.79,15.16,0,0-5.17-10.32-25.94-11.46-20.76-1.13-28.03,8.52-28.03,8.52Z" style="stroke: #000; stroke-linecap: round; stroke-linejoin: round; stroke-width: 3px;"/>
          </g>
          <g>
            <path d="M137.07,79.56s-16.91-36.72-13.67-52.19c.26-1.25,7.4-20.35,27.73-20.06,0,0-8.42-4.12-12.55,9.4-4.12,13.52,6.93,48.15,6.93,48.15l-6.76,13.04" style="fill: #fff; stroke: #2e3138; stroke-linecap: round; stroke-linejoin: round; stroke-width: 3px;"/>
            <path d="M156.21,87.92s2.21-17.96,20.63-32.18c18.42-14.22,48.14,6.3,78.19,78.03,30.05,71.73,39.74,147.82,0,141.03-39.74-6.78-65.03-9.19-81.95-39.73l29.62-29.81-2.77-40.42-43.72-76.92Z" style="fill: #f79255;"/>
            <path d="M207.36,257.61c13.13,2.87,26.99,1.63,39.9,5.37,1.94.56,3.93,1.29,5.27,2.8s1.75,4.02.39,5.51c-1.19,1.31-3.2,1.39-4.97,1.38-5.79-.05-11.63-.11-17.31-1.26-7.38-1.49-14.3-4.8-21.68-6.29-2.55-.52-5.16-.82-7.58-1.76-3.47-1.35-6.32-3.9-9.08-6.4-2.12-1.92-4.23-3.83-6.27-5.83-1.72-1.7-4.82-4.08-5.59-6.37,4.34,2.27,8.1,5.71,12.62,7.9s9.37,3.87,14.31,4.95Z" style="fill: #fab890;"/>
            <path d="M131.12,88.94s-1.62-33.68-19.06-43.86c-17.45-10.18-58.16,38.77-81.9,84.33C6.41,174.97,1.83,247.78,1.56,252.99c-.31,5.98-.94,23.75,41.68,11.15,56.5-16.7,72.06-14.28,84.01-36.94" style="fill: #f79255;"/>
            <path d="M118.93,238.02c-25.49,10.2-52.5,16.57-79.86,18.82-4.35.36-6.85,1.34-11,2.66-1.67.53-3.63,1.51-3.65,3.26-.02,1.18.96,2.2,2.08,2.6s2.34.32,3.51.22c9.44-.81,18.8-2.56,27.9-5.22,8.64-2.52,17.1-5.87,26.01-7.11,3.24-.45,9.43-2.52,12.64-3.17,9.39-1.9,15.17-5.76,22.38-12.07Z" style="fill: #fab890;"/>
            <path d="M156.21,87.92s2.21-17.96,20.63-32.18c18.42-14.22,48.14,6.3,78.19,78.03,30.05,71.73,39.74,147.82,0,141.03-39.74-6.78-65.03-9.19-81.95-39.73l29.62-29.81-2.77-40.42-43.72-76.92Z" style="fill: none; stroke: #2e3138; stroke-linecap: round; stroke-linejoin: round; stroke-width: 3px;"/>
            <path d="M131.12,88.94s-1.62-33.68-19.06-43.86c-17.45-10.18-58.16,38.77-81.9,84.33C6.41,174.97,1.83,247.78,1.56,252.99c-.31,5.98-.94,23.75,41.68,11.15,56.5-16.7,72.06-14.28,84.01-36.94" style="fill: none; stroke: #2e3138; stroke-linecap: round; stroke-linejoin: round; stroke-width: 3px;"/>
            <g>
              <path d="M91.95,71.92c-7.96,6.16-14.58,13.88-19.92,20.59-13.41,16.89-24.29,35.81-32.68,55.66-11.54,27.27-18.39,54.52-12.92,84.28.8,4.37,2.16,9.17,5.97,11.47,1.81,1.09,3.96,1.47,6.06,1.7,12.29,1.37,25.13-1.23,37.26-3.05,12.71-1.9,25.38-4.09,38-6.5,3.39-.65,6.92-1.38,9.61-3.54,2.93-2.35,4.4-6.03,5.51-9.62,3.1-10.03,4.22-20.55,5.13-31.01,2.11-24.23,3.14-48.55,3.1-72.87-.01-7.27-.19-14.82-3.39-21.34-1.11-2.26-1.89-5.69-2.55-8.76-1.58-7.34-1.17-17.82-8.94-22-8.94-4.8-23.08-.57-30.23,4.97Z" style="fill: #fab890; stroke: #2e3138; stroke-linecap: round; stroke-linejoin: round; stroke-width: 3px;"/>
              <path d="M159.13,86.22c-4.99,8.79-9.72,17.89-11.88,27.76-4.3,19.62,2.21,40.53,14.05,56.76,6.59,9.04,15.21,17.97,15.35,29.16.08,6.04-2.4,11.78-4.11,17.58-1.7,5.8-2.55,12.4.53,17.61,5.08,8.58,18.73,10.54,27.65,10.42,13.11-.19,25.57,5.09,38.64,5.42,12.01.31,17.4-5.85,18.8-17.28,6.37-52.09-11.04-106.61-46.41-145.37-8.03-8.8-17.63-17.05-29.57-19.6-11.9-2.54-17.83,8.35-23.05,17.56Z" style="fill: #fab890; stroke: #2e3138; stroke-linecap: round; stroke-linejoin: round; stroke-width: 3px;"/>
              <path d="M143.21,92.08c6.9,7.84,27.48,30.72,32.53,36,6.35,6.64,6.01,9.56,6.01,9.56l-.15,6.58c.24,16.51-5.17,18.78-5.17,18.78,2.77-.7,4.65-4.04,4.65-4.04.64,3.89,4.02,7.18,7.13,9.6-1.8-1.16-2.8-3.22-3.51-5.24-2.81-7.98-2.52-17,.79-24.78,3.86,5.85,7.73,11.73,10.77,18.05,1.31,2.72,2.46,5.51,3.67,8.27,1.04,2.39.58,5.02-.28,7.44-.52,1.45-1.19,2.87-2.19,4.04s-2.36,2.08-3.87,2.34c1.52.44,3.14-.33,4.38-1.31,2.15-1.7,3.73-4.1,4.42-6.75.99,1.16,1.69,2.69,2.43,4.01.87,1.56,1.73,3.12,2.49,4.74,1.45,3.12,2.5,6.51,2.1,9.99-.47,4.07-3.01,7.85-6.61,9.8,4.62.37,9.14-3.57,9.41-8.2,1.44,2.09,1.93,4.67,2.28,7.18.52,3.72.81,7.52.15,11.21s-2.36,7.31-5.26,9.69c3.45-1.23,5.71-4.63,6.76-8.14,1.05-3.51,1.13-7.22,1.63-10.84.08-.55.27-1.22.82-1.32.41-.08.78.22,1.09.5,1.62,1.43,3.36,2.77,5.33,3.67,3.13,1.42,6.78,1.64,10.06.61-4.67,1.13-9.46-1.67-12.74-5.19-8.35-8.96-9.54-21.71-16.45-31.82-.97-1.41-1.93-2.82-2.9-4.23-.21-.31-.44-.65-.46-1.03-.04-.63.5-1.17,1.11-1.36s1.25-.09,1.87,0c3.38.52,6.79,1.05,9.99,2.27,3.2,1.22,6.2,3.2,8.05,6.08-.36-1.67-.85-3.35-1.78-4.79s-2.6-2.86-4.28-3.17c.77-2.14,2.7-3.7,4.81-4.55,2.11-.85,5.03-2.07,7.29-2.31-2.42-.98-5.82-.08-8.28.78,1.61-3.96,1.19-8.69-1.09-12.31.69,2.62,1.19,5.88.07,8.45-.96,2.2-3.32,4.44-5.69,4.98-2.27.52-5.47.09-7.62-.74-2.34-.9-4.3-2.6-5.9-4.53-.79-.95-1.49-1.96-2.12-3.02-1.38-2.34-2.2-4.94-3.53-7.31s-2.78-4.63-4.29-6.86c-2.19-3.24-4.38-6.53-6.75-9.63-1.78-2.33-4.65-4.94-3.79-8.21.35-1.32,1.32-2.4,2.41-3.22,3.13-2.36,7.29-2.95,11.18-2.54,2.78.29,5.88,1.36,6.92,3.96.47,1.18.42,2.5.35,3.77-.11,1.75-.33,3.67-1.59,4.9s-3.88,1.03-4.29-.68c-.36,2.06,1.87,3.91,3.95,3.69s3.72-1.99,4.44-3.95.69-4.1.66-6.19c1.28,4.66,4.2,8.84,8.14,11.63-.12-.11-.24-.23-.36-.34-1.99-1.92-3.63-4.22-4.81-6.73-.58-1.23-.96-2.52-1.44-3.79-.43-1.11.23-2.47,1.12-3.2.82-.68,1.91-.96,2.97-1.08s2.14-.1,3.19-.29c.87-.15,1.71-.45,2.49-.87-2.62.19-5.63.27-8.18-.39-2.03-.53-4.02-2.16-4.94-4.02-1.1-2.22-.69-5.25,1.3-6.72-4.49,3.26-9.79,5.41-15.28,6.21-1.87.27-3.94.33-5.44-.81-1.96-1.5-2.11-4.41-1.64-6.83.46-2.39,1.35-4.7,2.6-6.79,1.63-2.72,3.91-5.12,4.85-8.14s-.15-7.08-3.23-7.85c2.48,1.42,2.31,5.22.7,7.58-1.61,2.36-4.17,3.89-6.03,6.04-2.12,2.44-3.29,5.7-3.21,8.93.08,3.31,1.56,6.97.56,10.24-1.19,3.87-5.58,3.08-8.19.91-1.4-1.17-14.87-22.82-18.63-28.84" style="fill: #fff; stroke: #2e3138; stroke-linecap: round; stroke-linejoin: round; stroke-width: 3px;"/>
              <path d="M177.36,30.3c-.13-5.03-3.48-11.52-6.73-15.37s-5.39-8.83-19.5-7.63c3.43.09,8.91-.07,11.55,4.86,1.62,3.03.45,5.14.36,8.57-.23,8.59-15.16,41.14-27.38,62.93l-2.33,2.97c-3.4,6.01-6.6,11.27-9.35,15.27l-1.9,3.36c-1.76,2.85-.98,1.95-2.72,4.8-1.74,2.85-4.21,5.58-7.5,6.15-4.53.78-8.82-3.05-10.21-7.42-1.39-4.38-.63-9.11.14-13.64-3.93,3.6-4.82,10.07-2.01,14.59-2.91,1.43-6.58.14-8.79-2.22s-3.28-5.56-4.11-8.69c-.56,5.13,1.62,10.48,5.6,13.76-1.82.73-7.67,5.48-5.29,7.73-.28-3.66,4.2-5.48,7.32-4.8,1.75.38,3.28,1.42,4.75,2.45,1.93,1.33,3.86,2.67,5.79,4,.64.44,1.31.92,1.66,1.61.54,1.06.21,2.34-.14,3.49-1.22,4.06-2.65,8.44-6.13,10.87-2.28,1.6-5.13,2.13-7.9,2.47-2.49.31-5,.5-7.51.57-1.49.04-3.01.04-4.43-.41-2.3-.73-4.11-2.58-5.3-4.69-1.18-2.1-1.82-4.46-2.45-6.79-.5,4.66.91,9.5,3.84,13.16-2.66,1.18-5.35,2.37-7.68,4.11s-4.31,4.11-5.02,6.93c1.61-3.51,5.66-5.3,9.5-5.67,3.85-.37,7.71.37,11.58.38,4.7.02,9.41-1.04,13.65-3.08-2.22,3.59-4.45,7.19-6.67,10.78-2.15,3.47-4.47,7.1-8.11,8.94-2.67,1.35-5.8,1.57-8.5,2.87-2.25,1.08-4.14,2.9-5.3,5.11.53-1.54,1.98-2.62,3.52-3.17s3.19-.66,4.81-.87c3.29-.42,6.53-1.24,9.62-2.45.44,2.62-1.78,8.12-4.1,12.61-3.22,6.23-4.84,8.06-8.85,13.34-2.09,2.76-4.27,5.16-7.46,6.58-3.6,1.61-7.34,3.24-11.28,3.25,1.22.73,2.73.78,4.15.72,2.44-.1,6.17.54,13.85-4.05,1.31-.79,2.26-2.07,3.19-3.28.44.9.1,2.7,0,3.67-.13,1.29-.39,2.56-.78,3.8-.76,2.47-2.01,4.8-3.69,6.78,4.18-2.13,5.75-7.19,7.19-11.66,3.44-10.72,8.41-20.94,14.71-30.27.72.41,1.09,1.6,1.38,2.37,1.72,4.64,3.44,9.28,5.16,13.93.83,2.23,1.65,4.47,2.28,6.76,1.25,4.6,1.66,9.43,1.21,14.18-.35,3.7-1.33,7.55-3.95,10.19,4.7-3.93,7.54-10,7.54-16.13,3.34,2.6,7.05,3.52,11.17,3.66-1.35-.62-2.68-1.28-3.99-1.98-.97-.52-1.94-1.06-2.79-1.77-.9-.75-1.64-1.67-2.34-2.6-3.55-4.74-4.82-10.16-6.5-15.82-1.77-5.97-4.02-10.95-5.99-16.87-.54-1.61-.44-2.41.3-3.97.79-1.67,22.59-40.55,31.2-48.57l11.74-16.19s36.18-55.47,35.94-64.54Z" style="fill: #fff; stroke: #2e3138; stroke-linecap: round; stroke-linejoin: round; stroke-width: 3px;"/>
            </g>
            <path d="M125.32,104.35c1.41,1.11,3.07,1.93,4.81,2.37" style="fill: none; stroke: #2e3138; stroke-linecap: round; stroke-linejoin: round; stroke-width: 3px;"/>
            <path d="M129.15,97.28c1.01,1.44,2.79,2.31,4.55,2.22" style="fill: none; stroke: #2e3138; stroke-linecap: round; stroke-linejoin: round; stroke-width: 3px;"/>
            <path d="M161.21,99.57c-1.1.97-2.47,1.64-3.91,1.92" style="fill: none; stroke: #2e3138; stroke-linecap: round; stroke-linejoin: round; stroke-width: 3px;"/>
            <path d="M156.66,93.4c-1.25,1.46-2.98,2.49-4.86,2.89" style="fill: none; stroke: #2e3138; stroke-linecap: round; stroke-linejoin: round; stroke-width: 3px;"/>
            <path d="M132.08,87.91c1.58,1.83,3.6,3.27,5.84,4.17" style="fill: none; stroke: #2e3138; stroke-linecap: round; stroke-linejoin: round; stroke-width: 3px;"/>
            <path d="M16.93,162.96c1.61,7.3,4.94,12.63,10.16,17.98" style="fill: none; stroke: #2e3138; stroke-linecap: round; stroke-linejoin: round; stroke-width: 3px;"/>
            <path d="M45.35,263.52c-6.98,2.45-16.36,2.76-23.48.74-2.38-.67-5.01-1.96-5.5-4.38-.52-2.58,1.7-4.86,3.85-6.39,6.86-4.89,13.93-6.77,22.09-7.48" style="fill: none; stroke: #2e3138; stroke-linecap: round; stroke-linejoin: round; stroke-width: 3px;"/>
            <path d="M239.37,250.91c1.75.12,4.77.07,6.52.18,3.13.21,6.3.43,9.3,1.34s5.88,2.58,7.66,5.17c1.77,2.59,2.25,6.19.67,8.9-1.43,2.45-4.19,3.79-6.88,4.69-6.58,2.2-14.77,1.6-21.57.21" style="fill: none; stroke: #2e3138; stroke-linecap: round; stroke-linejoin: round; stroke-width: 3px;"/>
            <path d="M270.9,181.33c-2.55,5.94-5.74,10.91-11.57,13.71" style="fill: none; stroke: #2e3138; stroke-linecap: round; stroke-linejoin: round; stroke-width: 3px;"/>
            <path d="M123.4,27.36s4.47-17.62,7.09-19.11c4.67-2.65,10.42-6.2,20.21-6.72,12.93-.68,22.27,8.14,25.88,13.6,0,0,1.2,13.39.79,15.16,0,0-5.17-10.32-25.94-11.46-20.76-1.13-28.03,8.52-28.03,8.52Z" style="fill: #fff; stroke: #2e3138; stroke-linecap: round; stroke-linejoin: round; stroke-width: 3px;"/>
          </g>
        </g>
      </g>
    </g>
  </g>
</svg>