<?xml version="1.0" encoding="UTF-8"?>
<svg xmlns="http://www.w3.org/2000/svg" xmlns:xlink="http://www.w3.org/1999/xlink" viewBox="0 0 1241.83 934.1">
  <style>

    #kv-icon-1 {
      animation: vibrate-1 8s ease-in-out infinite both;
    }
    #kv-icon-2 {
      animation: vibrate-1 19s ease-in-out infinite both;
      animation-delay: -4s;
    }
    #kv-icon-3 {
      animation: vibrate-1 10s ease-in-out infinite both;
    }
    #kv-icon-4 {
      animation: vibrate-1 11s ease-in-out infinite both;
      animation-delay: -6s;
    }
    #kv-icon-5 {
      animation: vibrate-1 7s ease-in-out infinite both;
      animation-delay: -3s;
    }
    #kv-icon-6 {
      animation: vibrate-1 8s ease-in-out infinite both;
      animation-delay: -2s;
    }
    #kv-icon-7 {
      animation: vibrate-1 9s ease-in-out infinite both;
      animation-delay: -6s;
    }


    .line {
      animation: blink 2s ease-in-out infinite both;
    }
    

    #kv-doctor-3, #kv-doctor-3-1, #kv-doctor-3-1-2 {
      animation: wobble-hor-bottom 20s infinite both;
      animation-delay: -2s;
    }

    #kv-doctor-2 {
      animation: wobble-hor-bottom 25s infinite both;
      animation-delay: -6s;
    }

    #kv-doctor-1, #kv-doctor-1-1 {
      animation: wobble-hor-bottom 20s infinite both;
      animation-delay: -10s;
    }

    .eye {
      animation: blink-1 3s infinite;
      animation-direction: alternate;
    }

    @keyframes vibrate-1 {
      0% {
        transform: translate(0);
        opacity: 1;
      }
      20% {
        transform: translate(-2px, 10px);
        opacity: 0;
      }
      40% {
        transform: translate(-4px, -20px);
        opacity: 1;
      }
      60% {
        transform: translate(2px, 20px);
      }
      80% {
        transform: translate(4px, -10px);
      }
      100% {
        transform: translate(0);
      }
    }

    @keyframes wobble-hor-bottom {
      0%,
      100% {
        transform: translateX(0%);
        transform-origin: 50% 50%;
      }
      15% {
        transform: translateX(-5px) rotate(-2deg);
      }
      30% {
        transform: translateX(1px) rotate(1deg);
      }
      45% {
        transform: translateX(-1px) rotate(-1deg);
        
      }
      60% {
        transform: translateX(5px) rotate(.4deg);
      }
      75% {
        transform: translateX(-1px) rotate(-.2deg);
      }
    }

    @keyframes blink-1 {
      50% {
         transform: translateX(-5px) translateY(-1px);
      },
      70% {
        transform: translateX(7px) translateY(1px);
      }
    }

    @keyframes blink {
      50% {
        opacity: 0
      }
    }

  </style>

  <defs>
    <clipPath id="clippath">
      <rect width="1241.83" height="934.1" style="fill: none;"/>
    </clipPath>
    <clipPath id="clippath-1">
      <circle cx="756.95" cy="438.81" r="60.28" style="fill: none;"/>
    </clipPath>
  </defs>
  <g style="isolation: isolate;">
    <g id="_圖層_2" data-name="圖層 2">
      <g id="_圖層_1-2" data-name="圖層 1">
        <g style="clip-path: url(#clippath);">
          <g id="kv">
            <g id="kv-doctor-2">
              <path d="M668.17,268.27c-10.09,13.98-23.15,11.01-39.78,11.93-19.08,1.05-38.14,2.64-57.13,4.79-15.38,1.74-30.53,8.98-41.2-5.8-5.17-7.17-11.39-14.4-15.58-22.19s-6.68-16.74-11.06-24.65c-4.44-8-10-15.33-14.69-23.19-5.09-8.53-9.1-17.63-12.64-26.9-1.55-4.07-6.1-24.44-10.73-23.75-1.02-17.92-6.48-35.58-15.76-50.94-2.31-3.83-6.21-8.76-10.62-10.22-.91-.3-1.92-.48-2.81-.13-.74.29-1.29.9-1.78,1.53-3.97,5.09-4.96,11.89-8.06,17.56-1.86,3.39-4.46,6.34-6.2,9.78-1.37,2.72-2.18,5.68-3.06,8.6-1.79,5.97-3.88,11.84-6.27,17.6-.19.45-.39.91-.74,1.25-.73.68-1.93.6-2.78.08-2.56-1.54-4.47-4.67-6.79-6.61-2.62-2.21-5.34-4.32-8.19-6.23-5.47-3.66-11.51-6.57-18-7.84-1.23-.24-2.61-.4-3.66.28-4.01,2.57,5.46,6.23,7.16,6.74,4.12,1.25,8.63,1.69,12.3,4.11,6.34,4.17,7.67,12.68,9.24,20.1,2.3,10.82,6.29,21.19,10.26,31.5,4.83,12.54,9.63,25.1,14.49,37.63,4.2,10.82,11.72,20.84,17.1,31.31,14.7,28.58,25.55,59.61,42.04,86.85,4.6,7.58,9.21,15.21,12.5,23.45,1.84,4.61,3.73,9.93,8.31,11.84,2.39,1,5.08.84,7.66.67,16.14-1.08,30.47-3.63,46.72-.56,8.95,1.69,18.11,1.78,27.18,1.48,4.43-.14,8.85-.41,13.27-.64,2.66-.14,11.28-2.02,13.41-.41,4.2,3.16,1.2,14.34.75,18.92-.82,8.3,1.46,16.97,2.28,25.23,3.8,38.24,1.95,76.7,1.99,115.05,0,3.86.02,7.72.07,11.58.06,5.13-.06,10.27-.19,15.4-.32,13.28-.65,26.56-.97,39.84-.29,11.78.32,23.92-2.03,35.4-1.22,5.95-.42,12.78-.49,18.84-.08,6.66-.15,13.33-.23,19.99-.15,13.33-.3,26.66-.45,39.98-.17,15.16-1.38,30.34-2.19,45.5-.49,9.18-.99,18.37-.73,27.55,32.81,2.33,65.69,3.5,98.58,3.5.24-21.73-.92-43.47-3.47-65.05-.53-4.46-.16-9.02-.29-13.5-.18-6.2.05-12.4-.13-18.6-.25-9.11-1.37-18.18-2.49-27.22-1.4-11.35-1.01-22.99-1.6-34.42-.22-4.29-.26-8.59-.41-12.88-.23-6.62-.72-13.24-1.21-19.84-1.81-24.26-.03-48.31-4.06-72.31-1.8-10.73.58-21.56.53-32.44-.01-2.57-.03-5.15-.37-7.69-1.12-8.36-5.61-16.02-6.47-24.4-.07-.69-.14-1.38-.21-2.07-1.66-17.3-1.9-34.78-4.78-51.95-1.36-8.16-1.53-16.67-2.73-24.92-1.23-8.45-2.72-16.86-3.95-25.31-1.09-7.54-2.44-15.4-1.86-22.98.57-7.41-2.57-15.44-3.52-22.81-2.46-19.01-3.21-38.23-3.47-57.38Z" style="fill: #fff;"/>
              <path d="M378.55,128.06c-2-.26-4.11-.33-5.93.63s-3.24,3.25-2.81,5.48c.52,2.64,3.14,3.9,5.45,4.56,7.47,2.16,16.08,2.98,20.98,9.73,3.35,4.62,4.05,10.91,5.49,16.67,1.55,6.16,4.08,12.01,7.44,17.16" style="fill: none; stroke: #2e3138; stroke-linecap: round; stroke-miterlimit: 10; stroke-width: 3px;"/>
              <path d="M755.08,803.57c29.97,1.94,60.02,2.63,90.05,2.06-2.38-30.41-4.76-60.81-7.14-91.22-1.53-19.53-3.06-39.06-4.59-58.58-2.72-34.76.69-69.37-2.31-104.06-1.17-13.48-3.55-26.84-4.21-40.35-.63-12.9.32-25.82,1.27-38.7,1.38-18.72,2.76-37.44,4.14-56.17,14.1,14.71,26.67,30.9,37.42,48.21,21.42-7.38,44.02-11.32,66.67-11.61-19.8-27.01-37.25-55.74-52.11-85.75-11.76-23.74-19.62-49.73-44.44-62.72-6.68-3.5-13.44-7.01-20.73-8.89-4.39-1.14-8.92-1.67-13.28-2.91-4.62-1.31-9.02-3.42-12.93-6.2-7.8-5.53-16.72-9.49-23.17-16.55-.44,4.25.14,8.53.62,12.77.72,6.3,1.25,12.64,1.09,18.99-.18,7.28-1.26,14.5-1.92,21.76-1.47,16.01-.92,32.12-.37,48.19.43,12.49-4.6,25.02-5.07,37.51-.11,2.95-.13,5.92.32,8.84.3,1.94.8,3.84,1.03,5.79.63,5.46-.94,10.95-.82,16.45.27,12.33-3.74,24.51-3.93,36.84-.05,3.23-.07,6.51-.92,9.63-.59,2.17-1.57,4.23-2.12,6.41-.57,2.25-.67,4.59-.76,6.91-.28,6.69-.56,13.37-.84,20.06-.67,15.98-1.52,33.04-.41,48.99,1.45,20.83-.14,41.28-.24,62.16,0,1.71,0,3.52.84,5.01-1.71,15.55-2.31,31.15-1.55,46.78.28,5.65.71,11.3.84,16.96.17,8.01-.29,16.05.55,24.01,1.12,10.65-3,21.79-3.22,32.5-.15,7.15.62,14.28,1.09,21.42.55,8.51,1.46,16.94,1.14,25.46Z" style="fill: #fff;"/>
              <path d="M669,191.05c-.82,3.01-1.75,6.34-3.26,8.77s-4,3.42-4.21,6.73c-.16,2.49.55,4.95,1.05,7.4,1.02,5.08,1.09,10.32,2.16,15.39,1.42,6.73,4.52,13.26,4.52,20.24.46,7.09.47,14.38,1.45,21.42.18,1.32.4,2.67,1.09,3.81.55.91,1.36,1.63,2.16,2.33,11.5,10.01,23.78,19.12,36.71,27.2,3.94,2.46,8.3,4.92,12.92,4.45,3.53-.36,6.65-2.39,9.53-4.47,10.91-7.86,20.73-17.26,29.06-27.82,1.06-1.34,2.1-2.72,2.81-4.27,1.34-2.93,1.39-6.26,1.42-9.48.05-5.66.1-11.33.15-16.99.05-5.25,1.22-11.12,4.28-15.54,2.34-3.38,6.63-5.16,8.56-8.8,2.2-4.14.45-9.59-3.11-12.66-3.55-3.07-8.46-4.11-13.15-4.16.32-9.75-.94-19.54-3.74-28.88-1.37-4.57-3.13-9.1-5.95-12.95-4.07-5.57-9.28-7.98-15.9-8.8-9.9-1.23-19.12-5.48-28.57-8.69-7.3-2.48-15.09-4.39-22.86-3.67-2.57.24-6.25.39-8.34,1.97-2.36,1.79-3.54,5.65-4.04,8.41-.68,3.75-.45,7.6-.46,11.42-.02,8.55-1.25,17.09-3.63,25.3-.21.74-.43,1.53-.65,2.35Z" style="fill: #fff;"/>
              <path d="M647.93,158.12c-.93,3.16-1.59,6.42-1.63,9.71-.04,2.86.39,5.7.81,8.53.51,3.39.69,7.03,1.38,10.36.71,3.4,3.31,6.47,4.59,9.68.38.96.7,1.96,1.23,2.85.43.72.99,1.35,1.54,1.97,1.75,1.97,3.48,3.97,5.26,5.91.76-1.86,2.4-3.59,3.47-5.33,1.18-1.92,2.26-3.91,3.23-5.95,1.94-4.08,3.45-8.36,4.5-12.75,2.11-8.78,2.42-18,.73-26.88-.42-2.22-.96-4.49-.56-6.71.82-4.49,6.04-7.43,10.23-7.95,10.69-1.32,21.21,1.91,31.22,5.29,5.18,1.75,10.34,3.59,15.62,5.03,2.58.7,5.19,1.32,7.84,1.75,2.56.42,5.28.25,7.79.74s5.2,2.43,6.84,4.46c1.04,1.29,1.83,2.78,2.56,4.27,6.58,13.5,8.98,29,6.77,43.86,2.89-1.62,6.34-2.24,9.61-1.73.92.14,1.86.38,2.78.2,2.19-.43,3.25-2.89,3.87-5.03,1.11-3.87,1.95-7.82,2.51-11.81s.23-8.05.96-11.87c1.45-7.6,1.66-15.29-.5-22.84-3.91-13.66-14.99-24.44-27.7-30.8-12.71-6.36-26.99-8.81-41.12-10.34-3.39-.37-6.82-.68-10.21-.31-6.5.7-12.29,3.87-17.27,7.97-4.94,4.06-8.31,10.7-13.28,14.37-4.31,3.18-9.76,3.33-14.01,7.52s-7.34,10-9.05,15.82Z" style="fill: #ff6d04;"/>
              <path d="M695.39,545.55c5.54,1.93,11.31,3.21,17.15,3.8,5.62.57,11.28.5,16.92.43,8.49-.1,17.01-.21,25.4-1.54.53,8.25,1.05,16.51,1.58,24.76.22,3.5.45,7,.33,10.5-.2,5.93-1.37,11.78-1.69,17.7-.33,6.05.78,12.01.89,18.08.23,13.09-.24,26.2-1.41,39.24-.43,4.83-.96,9.66-1.25,14.5-1.03,17.21.96,34.42.58,51.63-.19,8.45-.63,16.77-.54,25.24.09,8.86.18,17.72.27,26.57.1,9.74.2,19.49.3,29.23,20.66.05,41.32.09,61.98.14.31,14.18-.26,27.95,0,42.15.28,15.77-.66,31.52-1.42,47.26-.57,11.73-1.05,23.47-.87,35.21.18,11.42.85,21.25-1.68,32.48-23.09,1.06-46.22,1.14-69.32.26,1.3-9.17-.54-18.96-1.25-28.09-.81-10.54-1.36-21.05-1.47-31.62-.23-20.76.55-41.53-.45-62.28-1.02-21.16-2.17-42.31-3.44-63.45-2.05-34.2-.12-69.39-6.08-103.2-1.42,18.49-1.55,37.34-2.05,55.89-.44,16.2-.87,32.39-1.31,48.59-.41,15.34-.83,30.7-.29,46.04.34,9.8,1.07,19.59,1.45,29.4.7,17.86.25,35.76-1.11,53.59-.63,8.23-2.28,16.66-2.51,24.8-.26,9.35,1.04,18.8.76,28.2-.03,1.04-.14,2.22-.96,2.85-.65.5-1.55.48-2.37.43-21.34-1.09-42.67-2.05-64.02-3.18-5.45-15.92-3.74-32.56-5.07-48.95-1.43-17.64-2.24-35.35-2.72-53.03-.24-8.83-2.25-17.8-2.06-26.57.21-9.64.21-19.29.32-28.93,6.72-.05,13.36,1.35,20.02,2.22,12.66,1.65,25.58,1.38,38.16-.8.79-.14,1.65-.32,2.15-.95.36-.45.47-1.04.53-1.61.57-4.9-1.16-9.71-1.12-14.58.04-5.34-.07-10.72-.74-16.03-.36-2.85-.88-5.68-1.23-8.54-.42-3.43-.59-6.89-.74-10.35-.64-14.16-1.09-28.33-1.36-42.5-.12-6.45.19-12.98-.61-19.39-.11-.91-.84-1.35-.91-2.22-1.17-15.17-1.8-30.38-1.89-45.6-.04-6.89.82-13.84.46-20.64-.37-7.15-1.56-14.22-1.88-21.37-.82-18.6-.71-37.32-3.42-55.78Z" style="fill: #4b4c4e;"/>
              <path d="M669.4,273.64c7.81,11.61,20.22,19.15,32.23,26.32,4.56,2.72,9.18,5.47,14.28,6.95,5.1,1.48,10.81,1.58,15.52-.89,5.35-2.8,8.59-8.39,13.24-12.26,2.33-1.94,5-3.43,7.47-5.2,6.56-4.7,12.55-10.65,17.44-17.07-.8,21.66.12,42.73.44,64.41,1,68.73-14.16,138.92-13.01,208.18.02,1.49-.06,3.23-1.26,4.11-.82.6-1.92.61-2.93.59-17.71-.35-36.02.51-52.99-3.74-1.03-.26-2.18-.29-3.01-.95-1.31-1.04-1.47-2.93-1.54-4.6-1.65-41.79-10.64-83.79-13.3-127.57-2.87-47.06-7.36-91.42-12.58-138.28Z" style="fill: #1f89bd;"/>
              <g>
                <path d="M670.39,135.94s21.21-45.55,89.46-10.45c0,0,38.74,20.67,14.4,80.02" style="fill: none; fill-rule: evenodd; stroke: #2e3138; stroke-linecap: round; stroke-miterlimit: 10; stroke-width: 3px;"/>
                <path d="M670.37,134.15c-8.09,2.12-14.63,8.49-18.38,15.97-3.74,7.48-4.96,15.99-5.1,24.36-.15,9.16,7.16,23.23,11.95,31.04" style="fill: none; fill-rule: evenodd; stroke: #2e3138; stroke-linecap: round; stroke-miterlimit: 10; stroke-width: 3px;"/>
                <path d="M672.18,149.84c8.12-15.7,31.51-8.92,42.88-4.14,5.09,2.14,9.82,5.07,14.96,7.1,12.05,4.77,26.82,3.94,36.78-4.35" style="fill: none; fill-rule: evenodd; stroke: #2e3138; stroke-linecap: round; stroke-miterlimit: 10; stroke-width: 3px;"/>
                <path d="M727.18,138.23c1.66,1.06,3.49,1.83,5.4,2.33,6.02,1.6,12.71.46,17.86-3.04" style="fill: none; fill-rule: evenodd; stroke: #2e3138; stroke-linecap: round; stroke-miterlimit: 10; stroke-width: 3px;"/>
                <path d="M693.65,128.97c4.66-1.23,9.75-.78,14.13,1.25" style="fill: none; fill-rule: evenodd; stroke: #2e3138; stroke-linecap: round; stroke-miterlimit: 10; stroke-width: 3px;"/>
                <path d="M663.48,152.43c-3.04,4.21-4.69,9.4-4.64,14.59" style="fill: none; fill-rule: evenodd; stroke: #2e3138; stroke-linecap: round; stroke-miterlimit: 10; stroke-width: 3px;"/>
                <path d="M666.06,172.44c.87,6.73-1.44,13.43-3.72,19.82" style="fill: none; fill-rule: evenodd; stroke: #2e3138; stroke-linecap: round; stroke-miterlimit: 10; stroke-width: 3px;"/>
                <path d="M672.18,149.84c1.39,12.99,2.72,26.51-1.74,38.79-2.17,5.97-5.63,11.38-9.28,16.57" style="fill: none; fill-rule: evenodd; stroke: #2e3138; stroke-linecap: round; stroke-miterlimit: 10; stroke-width: 3px;"/>
                <path d="M750.45,156.61c9.63,15.1,13.44,33.82,10.49,51.49" style="fill: none; fill-rule: evenodd; stroke: #2e3138; stroke-linecap: round; stroke-miterlimit: 10; stroke-width: 3px;"/>
                <path d="M761.79,206.14c2.62-.68,5.29-1.31,7.99-1.24s5.48.91,7.4,2.83c1.81,1.81,2.67,4.43,2.63,6.98-.04,2.55-.91,5.04-2.18,7.26-.88,1.54-1.96,2.98-3.26,4.19-3.78,3.54-9.04,4.91-14.06,6.17" style="fill: none; fill-rule: evenodd; stroke: #2e3138; stroke-linecap: round; stroke-miterlimit: 10; stroke-width: 3px;"/>
                <path d="M762.87,216.84c.45-.96,1.28-1.75,2.3-2.03s2.21.02,2.87.84.69,2.13-.03,2.9" style="fill: none; fill-rule: evenodd; stroke: #2e3138; stroke-linecap: round; stroke-miterlimit: 10; stroke-width: 3px;"/>
                <path d="M669.4,246.47c.95,7.38.4,19.85.88,27.25" style="fill: none; fill-rule: evenodd; stroke: #2e3138; stroke-linecap: round; stroke-miterlimit: 10; stroke-width: 3px;"/>
                <path d="M768.08,230.03c-.37,15.03-.74,26.44-1.11,41.47" style="fill: none; fill-rule: evenodd; stroke: #2e3138; stroke-linecap: round; stroke-miterlimit: 10; stroke-width: 3px;"/>
                <path d="M680.3,180.15c.92-1.2,2.36-1.92,3.84-2.21s3.01-.19,4.51.02c1.18.16,2.4.42,3.31,1.19" style="fill: none; fill-rule: evenodd; stroke: #2e3138; stroke-linecap: round; stroke-miterlimit: 10; stroke-width: 3px;"/>
                <path d="M734.61,177.52c3.25-2.32,7.87-2.53,11.32-.51" style="fill: none; fill-rule: evenodd; stroke: #2e3138; stroke-linecap: round; stroke-miterlimit: 10; stroke-width: 3px;"/>
                <path d="M707.4,198c-.31,5.32-.65,10.78-2.87,15.62-.6,1.31-1.34,2.59-1.49,4.02-.22,2.07.9,4.12,2.53,5.41,1.63,1.28,3.72,1.87,5.79,2.07,3,.29,6.61-.61,7.66-3.44" style="fill: none; fill-rule: evenodd; stroke: #2e3138; stroke-linecap: round; stroke-miterlimit: 10; stroke-width: 3px;"/>
                <path d="M718.07,239.21c-3.58,2.78-9.03,2.82-12.64.08" style="fill: none; fill-rule: evenodd; stroke: #2e3138; stroke-linecap: round; stroke-miterlimit: 10; stroke-width: 3px;"/>
                <path d="M714.43,248.55c-1.46.46-3.09.35-4.49-.29" style="fill: none; fill-rule: evenodd; stroke: #2e3138; stroke-linecap: round; stroke-miterlimit: 10; stroke-width: 3px;"/>
                <circle class="eye" cx="686.13" cy="198.57" r="4.64" style="fill: #2e3138;"/>
                <circle class="eye" cx="740.27" cy="198.57" r="4.64" style="fill: #2e3138;"/>
                <path d="M703.7,266.81c-4.05-.02-16.79-4.55-21.65-7.73-3.44-2.25-9.74-6.74-11.92-10.82,0,0-8.26-18.67-7.77-41.35" style="fill: none; fill-rule: evenodd; stroke: #2e3138; stroke-linecap: round; stroke-miterlimit: 10; stroke-width: 3px;"/>
                <path d="M670.28,273.72c9.95,11.29,28.66,23.3,41.07,31.81,2.75,1.89,5.73,3.76,9.06,3.92,3.05.15,5.97-1.17,8.71-2.52,17.01-8.43,25.23-21.69,38.52-35.24" style="fill: none; fill-rule: evenodd; stroke: #2e3138; stroke-linecap: round; stroke-miterlimit: 10; stroke-width: 3px;"/>
                <path d="M693.51,498.82c.2.61-31.69-90.2-52.53-124.98-1.06-1.77-2.18-3.6-2.39-5.65-.19-1.8.33-3.59.9-5.31,3.79-11.48,9.79-22.22,17.59-31.46-4.64-6.67-9.27-13.34-13.91-20.01-.85-1.23-1.74-2.58-1.64-4.07.07-1.09.67-2.06,1.26-2.98,8.17-12.89,16.9-25.43,26.15-37.56,0,0,16.66,207.7,24.57,232.01Z" style="fill: none; fill-rule: evenodd; stroke: #2e3138; stroke-linecap: round; stroke-linejoin: round; stroke-width: 3px;"/>
                <path d="M756.26,495.59c-.52,1.38,40.11-81.47,45.31-128.24.31-2.75.56-5.59-.23-8.25-.79-2.67-2.56-4.93-4.3-7.11-5.89-7.42-11.78-14.83-17.66-22.25,5.69-5.6,11.38-11.2,17.07-16.79-8.62-14.19-17.23-28.38-25.85-42.58,0,0-1.1,190.15-14.34,225.22Z" style="fill: none; fill-rule: evenodd; stroke: #2e3138; stroke-linecap: round; stroke-miterlimit: 10; stroke-width: 3px;"/>
                <path d="M779.4,282.23c18.88,5.58,37.44,12.2,55.59,19.81,7.49,3.14,15.86,6.66,20.94,13.26,6.2,8.06,10.37,18.91,15.43,27.77,10.99,19.28,22.42,38.3,34.27,57.06,10.72,16.97,21.8,33.74,31.49,51.32" style="fill: none; fill-rule: evenodd; stroke: #2e3138; stroke-linecap: round; stroke-miterlimit: 10; stroke-width: 3px;"/>
                <path d="M611.08,378.38l7.11,111.64-8.63,311.3s85.89,6.41,99.35,3.2l-15.4-305.7" style="fill: none; fill-rule: evenodd; stroke: #2e3138; stroke-linecap: round; stroke-miterlimit: 10; stroke-width: 3px;"/>
                <polyline points="834.14 381.63 825.69 498.82 844.8 805.42 753.58 805.42 756.26 495.59" style="fill: none; fill-rule: evenodd; stroke: #2e3138; stroke-linecap: round; stroke-miterlimit: 10; stroke-width: 3px;"/>
                <path d="M696.84,545.53c18.76,5.03,38.61,5.98,57.77,2.77" style="fill: none; fill-rule: evenodd; stroke: #2e3138; stroke-linecap: round; stroke-miterlimit: 10; stroke-width: 3px;"/>
                <polyline points="646.07 803.68 656.69 963.21 724.1 963.21 729.23 633.64 742.81 963.21 812.59 964.26 816.78 806.48" style="fill: none; fill-rule: evenodd; stroke: #2e3138; stroke-linecap: round; stroke-miterlimit: 10; stroke-width: 3px;"/>
                <path d="M833.31,410.24c15.47,25.91,34.3,49.81,55.86,70.93" style="fill: none; fill-rule: evenodd; stroke: #2e3138; stroke-linecap: round; stroke-miterlimit: 10; stroke-width: 3px;"/>
                <path d="M760.31,241.32c-3.66,10.3-11.6,18.67-21.16,22.32-3.2,1.22-6.54,1.93-9.89,2.5-6.04,1.03-12.14,1.62-18.25,1.76" style="fill: none; fill-rule: evenodd; stroke: #2e3138; stroke-linecap: round; stroke-miterlimit: 10; stroke-width: 3px;"/>
                <path d="M661.03,276.63c-39.45,4.98-79.05,8.74-118.73,11.25-2.05.13-4.19.24-6.06-.61-2.18-.99-3.59-3.11-4.87-5.12-24.92-39.13-46.21-80.57-63.51-123.62-18.9,8.54-43.28,16.87-62.17,25.4,32.05,89.45,62.25,135.78,96.72,204.05,36.06-2.76,72.34-2.68,108.39.25" style="fill: none; fill-rule: evenodd; stroke: #2e3138; stroke-linecap: round; stroke-miterlimit: 10; stroke-width: 3px;"/>
              </g>
              <g>
                <path d="M655.27,376.77s-35.1-104.2,12.92-114.12l.75,4.16s-38.67,6.21-7.77,109.96" style="fill: #a0a0a1; stroke: #2e3138; stroke-miterlimit: 10; stroke-width: 3px;"/>
                <circle cx="661.16" cy="391.92" r="10.07" style="fill: #a0a0a1; stroke: #2e3138; stroke-miterlimit: 10; stroke-width: 3px;"/>
                <path d="M770.06,259.07s32.23,25.67,25.74,67.14c0,0,52.21,7.01,3.93,83.83l-3.62-3.63s43.93-65.08-4.08-76.81c-48.01-11.73-25.71,66.77-25.71,66.77l-4.07.23s-24.64-75.04,25.34-72.51c0,0,11.59-23.77-18.89-59.55l1.35-5.47Z" style="fill: #a0a0a1; stroke: #2e3138; stroke-miterlimit: 10; stroke-width: 3px;"/>
                <circle cx="796.91" cy="409.9" r="3.13" style="fill: #a0a0a1; stroke: #2e3138; stroke-miterlimit: 10; stroke-width: 3px;"/>
                <circle cx="764.73" cy="397.33" r="3.13" style="fill: #a0a0a1; stroke: #2e3138; stroke-miterlimit: 10; stroke-width: 3px;"/>
              </g>
              <g>
                <path d="M385.51,34.66c9.71-12.3,25.39-20.36,40.98-18.69,15.58,1.66,29.99,14.23,31.63,29.82,1.6,15.22-8.05,29.02-16.59,41.72-14.72,21.87-27.66,45.61-32.29,71.57-5.57-11.09-15.53-19.91-27.22-24.09-20.22-7.23-44.26-.95-62.85-11.69-20.92-12.09-24.8-44.88-8.34-62.56,17.48-18.79,45.09-15.02,64.01-1.34,2.61-8.8,4.7-17.16,10.67-24.73Z" style="fill: #ff6d04; stroke: #2e3138; stroke-linecap: round; stroke-linejoin: round; stroke-width: 3px;"/>
                <path d="M414.84,31.49c7.17-7.11,20.54-3.66,25.95,4.85,5.41,8.52,4.36,19.78.53,29.12-3.83,9.34-10.08,17.45-15.03,26.25-6.27,11.15-10.42,23.33-14.54,35.44-3.14-2.62-2.51-7.54-1.52-11.51,3.69-14.78,8.37-29.32,14-43.48,2.45-6.17,5.14-12.68,4.06-19.23-1.08-6.55-7.72-12.65-13.99-10.48-3.26,1.13-6.11,4.25-9.49,3.57-3.12-.63-4.71-4.52-3.87-7.59.84-3.07,3.38-5.37,6.01-7.17,5.71-3.89,12.71-6.29,19.55-5.27,6.83,1.02,13.27,5.98,14.77,12.72" style="fill: #fff;"/>
              </g>
              <path d="M425.46,115.03c-7.86-3.52-20.35-3.04-28.8-4.7-2.56-.5-5.55-.8-7.47.97-1.57,1.45-1.85,3.93-1.16,5.96s2.21,3.66,3.81,5.08c3.53,3.12,7.73,5.49,12.23,6.9,3.7,1.16,7.69,1.72,10.9,3.89,3.73,2.53,5.79,6.81,8.44,10.46,3.16,4.36,7.34,7.98,12.11,10.49" style="fill: #fff; stroke: #2e3138; stroke-linecap: round; stroke-miterlimit: 10; stroke-width: 3px;"/>
              <path d="M438.22,95.6c9.81,2.83,11.87,12.95,15.51,22.49,5.15,13.49,8.38,27.71,9.57,42.09" style="fill: none; stroke: #2e3138; stroke-linecap: round; stroke-miterlimit: 10; stroke-width: 3px;"/>
            </g>
            <g id="kv-doctor-1">
              <path d="M148.63,994.18c-1.82,4.32-3.65,8.64-5.47,12.97-2.38,5.63-5.06,11.63-10.29,14.8,3.58.42,7.08,1.49,10.29,3.14,1.43.74,2.99,1.62,4.56,1.25.83-.2,1.53-.72,2.2-1.24,10.07-7.78,18.93-17.12,26.18-27.58.86-1.24,1.7-2.51,2.14-3.94.3-.96.4-1.96.51-2.96,1.33-12.39,2.66-24.78,3.99-37.17.79-7.34.36-15.01.52-22.4.11-5.11,1.19-10.29,1.44-15.45.28-5.86.56-11.71.84-17.57.37-7.66.73-15.35-.03-22.99-14.82.51-29.66.47-44.48-.1,2.36,29.14,4.73,58.3,5.72,87.52.19,5.66,1.26,11.33,1.82,16.96.28,2.83.16,5.69.04,8.53-.08,1.95.78,4.44.03,6.23Z" style="fill: #fff;"/>
              <path d="M199.02,876.1c.83,20.3,1.65,40.59,2.48,60.89.19,4.74.04,9.56.42,14.28s.74,8.97,1.18,13.47c.64,6.5.19,13.07.87,19.57.15,1.44.36,2.88.32,4.33-.04,1.55-.63,2.77-.12,4.26.9,2.63,2.25,5.06,3.85,7.32,3.3,4.66,7.51,8.56,11.54,12.56,1.67,1.66,3.42,3.25,4.8,5.15.89,1.23,1.64,2.59,2.78,3.6,1.11.98,2.53,1.55,3.91,2.11,1.5.6,3.01,1.2,4.51,1.8.32.13.64.26.98.26.47.01.91-.21,1.34-.41,3.86-1.88,7.93-3.3,12.12-4.24-2.84-4.51-5.67-9.02-8.51-13.54-1.27-2.02-2.55-4.07-3.34-6.32-.74-2.13-1.01-4.39-1.2-6.64-.84-9.91-.16-19.87.52-29.79.74-10.75,1.47-21.49,2.21-32.24.61-8.92.4-17.9,1.22-26.83.16-1.71.35-3.41.45-5.13.13-2.22.12-4.45.1-6.68-.04-5.76-.08-11.52-.13-17.28-2.5-1.61-6.96-.78-9.8-.76-3.62.01-7.24.07-10.86.13-7.22.12-14.44.25-21.65.12Z" style="fill: #fff;"/>
              <path d="M277.05,578.69c-1.51,20.14-2.19,40.6-8.09,59.92-3.62-19.9-8.74-39.53-15.29-58.66-1.19-3.47-2.44-6.97-2.76-10.63-.55-6.2,1.6-12.28,3.33-18.26,2.93-10.13,4.76-20.58,5.43-31.11.14-2.17.39-4.66,2.17-5.91.95-.67,2.16-.83,3.31-1.01,3.57-.55,16.93-6.99,19.43-5.3,3.14,2.13-1.57,18.12-2.11,21.82-2.38,16.31-4.19,32.71-5.42,49.15Z" style="fill: #fff;"/>
              <path d="M216.78,567.8c.15-3.68.49-7.52,2.42-10.65.41-.68.9-1.32,1.19-2.05s.36-1.62-.05-2.29c-1.85-.15-3.6.79-5.41,1.2-1.14.25-2.31.29-3.45.54-1.27.28-2.46.81-3.66,1.31-2.5,1.04-5.06,1.92-7.67,2.63-2.35.63-5.14,1.61-7.53,1.06-5.18-1.19-10.54-.18-15.76.12-5.21.3-10.43-.07-15.63-.44-12.14-.86-24.29-1.71-36.43-2.57-1.54-.11-3.3-.34-4.16-1.62-.62-.92-.58-2.11-.51-3.21.82-12.8,2.7-25.75.46-38.38-10.77-3.98-22.15-6.35-32.91-10.33.04,5.29-1.25,10.49-2.23,15.69-2.15,11.33-2.03,22.49-2.55,33.93-.54,11.89-.06,23.84,1.35,35.66.52,4.35,1.33,9.03,4.48,12.09,27.4-2.42,54.64-4.08,81.85-8.61,3.35-.56,6.77-1.14,10.12-.61,4.37.7,8.25,3.25,12.58,4.17,7.61,1.62,15.27-1.96,22.23-5.44,1.65-.82,3.35-1.69,4.49-3.14s1.54-3.65.42-5.11c-.67-.87-1.79-1.38-2.28-2.37-.37-.75-.31-1.63-.26-2.47.19-3.36-.05-6.73-.71-10.03-.18-.89-.4-1.81-.95-2.53-1.56-2.04-4.66-1.55-7.22-1.29-3.15.32-6.37-.04-9.38-1.04-1.98-.66-3.86-1.59-5.86-2.18-.04-.01-.08-.02-.12-.04" style="fill: #fff;"/>
              <path d="M149.42,285c-.78.53-1.6,1.02-2.51,1.49-2.51,1.3-4.7,3.25-7.5,3.92-4.5,1.09-9.81-1.33-13.6,1.33-1.89,1.33-2.84,3.64-3.22,5.92-.86,5.16.92,10.68,4.63,14.37,3.71,3.69,9.24,5.44,14.4,4.55.78-.13,1.67-.3,2.28.2.45.37.6.99.72,1.56,2.82,13.56,5.64,27.11,8.46,40.67.56,2.67,1.11,5.34,1.46,8.05.63,4.92.56,9.9.49,14.86-8.19,2.99-16.21,6.44-24.01,10.34,3.67,3.77,7.4,7.58,11.87,10.35,4.05,2.51,8.6,4.1,13.19,5.36,16.29,4.49,33.65,5.06,50.2,1.66,6.43-1.32,12.88-3.3,18.22-7.13s9.48-9.75,9.88-16.31c-5.11-1.03-10.22-2.07-15.34-3.1-.91-.18-1.92-.44-2.39-1.24-.34-.58-.29-1.31-.23-1.98.81-8.85,1.63-17.7,2.44-26.54,8.99-2.91,18.4-8.39,23.95-16.04,4.52-6.23,6.58-13.86,8.55-21.31,1.22-4.63,2.45-9.26,3.67-13.89,3.16-11.94-.71-24.16-2.25-36.42-19.94-4.27-34.89-19.36-50.69-32.25-.54-.44-1.15-.91-1.85-.92-.73-.01-1.36.47-1.9.97-2.79,2.57-4.62,5.99-6.62,9.22-4.23,6.83-8.59,13.71-14.37,19.38-2.58,2.53-5.4,4.82-8.21,7.09-5.29,4.28-10.57,8.57-15.86,12.85-1.36,1.1-2.56,2.07-3.87,2.96Z" style="fill: #fff;"/>
              <path d="M275.02,495.43c7.66-4.46,15.89-9.06,24.75-8.62.95.05,1.96.18,2.65.84.71.67.89,1.72,1.02,2.69.34,2.39.68,4.85.15,7.21s-2.12,4.64-4.46,5.26c-1.44.39-2.96.12-4.45.08-5.75-.14-10.93,3.19-15.89,6.1-4.96,2.91-10.73,5.61-16.28,4.09-.45-.12-.91-.29-1.21-.64-.32-.37-.4-.88-.46-1.36-.44-3.69-.85-6.93,2.52-8.86,3.9-2.24,7.77-4.52,11.66-6.78Z" style="fill: #8bc2dd;"/>
              <path d="M106.04,495.34c-6.9-2.63-13.94-4.88-21.08-6.74-3.15-.82-6.36-1.57-9.61-1.58-.4,0-.85.03-1.14.31-.28.29-.31.73-.32,1.14-.07,4.23.01,8.47.24,12.7.02.28.04.58.18.82.23.37.68.5,1.1.61,10.99,2.75,22.38,2.03,33.19,5.87,4.54,1.61,9.1,3.85,14,3.96,2.9.07,2.94-.63,2.93-3.27,0-1.45,0-2.98-.23-4.41-.45-2.81-.61-3.88-3.31-4.37-5.56-1-10.71-3.02-15.97-5.02Z" style="fill: #8bc2dd;"/>
              <path d="M112.81,398.67c3.04,3.85,6.64,7.25,10.66,10.06,4.77,3.34,10.09,5.82,15.52,7.94,19.04,7.44,39.77,10.5,60.15,8.89,8.36-.66,16.74-2.12,24.49-5.34,2.22-.92,4.38-1.98,6.48-3.15,9.45-5.24,17.71-12.61,23.98-21.4-5.56-3.64-11.81-6.22-18.31-7.58-6.54,7.26-13.45,14.78-22.62,18.16-3.58,1.32-7.37,1.96-11.14,2.51-12.47,1.85-25.23,2.94-37.65.83-7.07-1.2-14.02-3.51-20.25-7.09-3.09-1.78-6-3.87-8.62-6.28-.94-.87-2.56-3.4-3.72-3.8-1.29-.45-4.43.88-5.73,1.23-4.56,1.24-9,2.92-13.24,5.01Z" style="fill: #8bc2dd;"/>
              <path d="M143.33,317.77c2.58,8.24,4.25,16.74,5.92,25.21,1.04,5.32,2.09,10.67,2.08,16.09-6.35.73-12.86,0-18.89-2.1-1.53-.53-3.06-1.18-4.28-2.25-1.28-1.13-2.14-2.66-3.33-3.89-4.1-4.26-10.99-4.01-16.15-6.91-4.22-2.37-6.98-6.68-9.04-11.06-2.06-4.38-3.62-9.04-6.3-13.07-6.45-9.71-14.19-18.2-10.57-30.81.67-2.35,1.72-4.63,3.39-6.41,2.57-2.74,6.29-4,9.66-5.67,4.13-2.05,9.07-5.17,11.65-9.1s3.15-8.52,4.35-13.04c.71-2.68,1.9-5.2,3.09-7.7,2.51-5.31,5.05-10.65,8.54-15.37,3.8-5.13,8.63-9.39,13.42-13.61,5.6-4.93,11.36-9.95,18.33-12.6,7.28-2.77,15.27-2.72,23.06-2.63,7.19.08,13.93,1.48,21.06.53,3.11-.41,6.16-1.26,9.26-1.75,15.94-2.55,33.04,4.96,41.94,18.43,2.52,3.81,4.41,8.02,7.03,11.77,3.96,5.67,9.5,10.16,13.08,16.08,1.18,1.95,2.14,4.04,3.45,5.91,1.12,1.6,2.49,3.01,3.94,4.31,3.72,3.34,8.04,6,12.69,7.81,9.71,3.79,12.24,19.04,8.62,28.81-2.68,7.23-9.03,12.36-15.23,16.95-.88.65-1.79,1.31-2.86,1.54.27-.55.44-1.15.5-1.76.67,8.05-.13,16.23-2.36,24-.62,2.18-1.37,4.35-2.6,6.26-2.1,3.25-5.45,5.47-8.8,7.41-5.02,2.9-10.85,5.46-16.45,3.97-1.89,4.07-5.95,6.81-10.25,8.09-4.3,1.28-8.87,1.29-13.35,1.16-3.29-.09-7.33-.77-8.4-3.89-.86-2.5.88-5.24,3.11-6.66s4.9-1.94,7.34-2.94c4.54-1.86,8.24-5.39,11.05-9.41s4.8-8.55,6.69-13.08c2.32-5.55,4.53-11.2,5.68-17.11.76-3.94,1.04-7.98.83-11.99-.48-9.08-.08-17.2-1.32-26.22-.16-1.15-.34-2.34-.98-3.31-.81-1.24-2.22-1.92-3.56-2.54-5.06-2.32-10.18-4.5-15.16-6.97-12.65-6.29-24.47-14.68-33.12-25.85-2.18,5.43-6.12,9.94-10.04,14.28-12.23,13.55-24.99,26.62-38.25,39.17-3.38,3.21-7.38,6.59-12.03,6.27-3.14-.22-6.09-2.15-9.21-1.78-2.94.35-5.34,2.78-6.34,5.56s-.82,5.87-.25,8.77c.9,4.6,2.89,9.22,6.61,12.08,3.72,2.86,9.22,4.05,12.78.99Z" style="fill: #4b4c4e;"/>
              <path d="M111.15,399.82c-6.83-1.8-16.1,9.38-18.93,14.13-4.18,7-6.21,15.04-8.19,22.95-2.15,8.58-4.29,17.16-6.44,25.74-1.11,4.42-2.25,8.83-3.31,13.25-.55,2.3-.44,4.57-.15,6.89.45,3.63.33,3.75,3.57,4.46,5.16,1.14,10.53,1.43,15.71,2.62,10.59,2.42,20.88,6.13,30.56,11.05,2.01,19.07,4.03,38.14,6.04,57.2,10.7.85,21.41,1.71,32.11,2.56,1.96.16,3.93.47,5.91.43,1.66-.03,2.91-.72,4.46-.98,1.77-.3,3.99.38,5.79.5,2.05.14,4.11.19,6.16.16,8.34-.14,16.65-1.73,24.44-4.7,3.8-1.45,7.61-3.25,11.68-3.31.31,0,.64.01.88.21.42.35.28,1.02.02,1.5-.44.81-1.1,1.48-1.58,2.26-1.29,2.1.36,2.91.53,4.84.17,1.84-1.26,3.39-2.01,5.09-2.65,5.94,3.15,13.07.8,19.14-1.41,3.64-5.28,5.6-8.84,7.19-3.53,1.58-7.26,3.17-11.12,2.87-4.12-.31-7.77-2.71-11.77-3.72-4.48-1.12-9.18-.44-13.74.24-15.39,2.3-30.79,4.6-46.18,6.89.02,0-3.29,12.31-3.41,13.34-.55,4.97.99,9.53-.93,14.51-.65,1.67-1.57,3.23-2.21,4.91-2.3,6.04-2.53,13.85-2.91,20.26-.5,8.36-2.16,16.6-3.8,24.79-3.99,19.94-1.71,39.91-2.09,60.24-.33,17.44.82,35.19,1.74,52.6.66,12.46,1.31,24.93,1.64,37.41.16,6.3.25,12.6.2,18.9-.02,3.05-.53,6.44-.17,9.46.27,2.24,1.47,4.31,1.65,6.71.25,3.26-.07,6.72,1.4,9.74.2.4.43.8.78,1.08.38.3.87.42,1.34.52,1.61.31,3.15.17,4.76.15,44.99-.61,90.07-2.15,134.92,1.44.91.07,1.91.13,2.66-.39.69-.47,1.29-1.26,1.29-2.09-.02-5.62.57-12.68,1.83-21.5,2.14-14.97,5.11-34.41,4.75-49.53-.43-18.28,4.64-36.38,4.06-54.66-1.2-37.75.2-85.99-10.09-129.7-1.67-7.1-5-13.73-6.65-20.84-1.35-5.8-1.93-11.76-3.24-17.57-.6-2.67-2.02-5.37-2.5-7.98-.52-2.77.13-6.04.42-8.84,1.26-12.29,4.04-24.35,5.65-36.58.81-6.17,1.29-12.38,1.44-18.6.05-2.04.37-4.71,2.39-5.83s4.9-.79,7.1-1.84c1.18-.56,2.28-1.27,3.38-1.98,4.42-2.84,8.88-6.6,13.93-8.09s10.49-2.66,16-2.42c-3.35-21.2-7.52-40.5-14.42-60.82-1.73-5.08-3.72-10.22-7.28-14.24-2.66-2.99-6.05-5.21-9.41-7.4-3.89-2.53-7.79-5.07-11.68-7.6-.7-.45-1.47-.92-2.29-.84-.8.09-1.45.68-2.03,1.25-6.05,5.89-12.34,11.56-18.86,16.93-5.96,4.91-15.74,6.04-23.13,8.02-6.22,1.67-12.48,3.25-18.88,3.98-20.52,2.32-40.96-4.27-60.13-11.94-4.41-1.76-8.81-3.62-12.91-6.02-2.11-1.24-4.15-2.6-6.02-4.18-1.27-1.07-2.94-3.69-4.52-4.15-.05-.01-.1-.03-.15-.04Z" style="fill: #1f89bd;"/>
              <g>
                <path d="M151.26,358.6c-5.33,4.45-20.75.59-24.45-5.64s-10.47-5.89-13.48-6.22c-15.61-1.7-19.68-28.23-19.68-28.23-11.38-9.56-12.62-14.74-12.33-27.28.3-12.53,16.6-14.78,16.6-14.78,16.3-7.3,10.03-17.26,17.19-30.37,31.97-58.5,79.38-41.75,79.38-41.75,0,0,36.25-16.3,58.61,19.41,22.35,35.71,27.31,38.28,32.43,40.22,5.12,1.94,26.05,15.72,7.69,41.69,0,0-5.54,5.05-12.1,8.25,0,0,4.36,40.23-28.22,39.05,0,0-6.11,11.54-25.13,9.48" style="fill: none; stroke: #2e3138; stroke-linecap: round; stroke-miterlimit: 10; stroke-width: 3px;"/>
                <path d="M256.17,266.86c-32.02-7.28-55.7-34.99-55.7-34.99,0,0-27.67,42.23-63.63,61.81" style="fill: none; stroke: #2e3138; stroke-linecap: round; stroke-miterlimit: 10; stroke-width: 3px;"/>
                <path d="M137.84,292.65c-1.79-.88-3.73-1.44-5.71-1.65-2.23-.24-4.7.04-6.33,1.59-1,.94-1.57,2.25-1.97,3.56-2.03,6.69.18,14.48,5.42,19.11,2.04,1.8,4.53,3.16,7.23,3.56,2.69.4,5.59-.24,7.67-1.99" style="fill: none; stroke: #2e3138; stroke-linecap: round; stroke-miterlimit: 10; stroke-width: 3px;"/>
                <path d="M252.89,267.08s14.59,91.51-47.82,85.89" style="fill: none; stroke: #2e3138; stroke-linecap: round; stroke-miterlimit: 10; stroke-width: 3px;"/>
                <path d="M143.17,306.84s13.42,65.35,11.35,76.04" style="fill: none; stroke: #2e3138; stroke-linecap: round; stroke-miterlimit: 10; stroke-width: 3px;"/>
                <path d="M167.31,222.05c-5.62,3.3-10.07,8.54-12.42,14.62-1.78,4.63-2.53,9.95-6.07,13.41" style="fill: none; stroke: #2e3138; stroke-linecap: round; stroke-miterlimit: 10; stroke-width: 3px;"/>
                <path d="M148.3,262.17c-1.44,2.08-2.88,4.16-4.32,6.24-2.05,2.96-4.55,6.19-8.14,6.53" style="fill: none; stroke: #2e3138; stroke-linecap: round; stroke-miterlimit: 10; stroke-width: 3px;"/>
                <path d="M130.25,249.24c-3.24,2.52-5.31,6.49-5.51,10.59-.16,3.28.78,6.74-.48,9.77-1.13,2.7-3.75,4.42-6.23,5.97" style="fill: none; stroke: #2e3138; stroke-linecap: round; stroke-miterlimit: 10; stroke-width: 3px;"/>
                <path d="M105.32,286.28c-1.36,2.49-2.74,5.02-3.43,7.77s-.65,5.8.74,8.28" style="fill: none; stroke: #2e3138; stroke-linecap: round; stroke-miterlimit: 10; stroke-width: 3px;"/>
                <path d="M111.56,323.61c.74,2.18,1.48,4.35,2.23,6.53.66,1.94,1.34,3.92,2.59,5.54,1.24,1.63,3.17,2.87,5.22,2.76" style="fill: none; stroke: #2e3138; stroke-linecap: round; stroke-miterlimit: 10; stroke-width: 3px;"/>
                <path d="M266.68,323.75c3.58,4.92,3.17,12.35-.94,16.84" style="fill: none; stroke: #2e3138; stroke-linecap: round; stroke-miterlimit: 10; stroke-width: 3px;"/>
                <path d="M274.28,274.71c5.61,7.08,6.84,17.36,3.06,25.56" style="fill: none; stroke: #2e3138; stroke-linecap: round; stroke-miterlimit: 10; stroke-width: 3px;"/>
                <path d="M210.92,219.33c5.07.43,10.63,1.08,14.08,4.81,1.97,2.12,2.95,4.95,4.33,7.5,3.24,5.93,8.78,10.34,14.82,13.36,6.04,3.02,12.62,4.78,19.15,6.52" style="fill: none; stroke: #2e3138; stroke-linecap: round; stroke-miterlimit: 10; stroke-width: 3px;"/>
                <circle class="eye" cx="230.21" cy="284.33" r="4.44" style="fill: #2e3138;"/>
                <circle class="eye" cx="181.1" cy="284.33" r="4.44" style="fill: #2e3138;"/>
                <path d="M197.2,249.8c2.64.42,5.35.41,7.98-.03" style="fill: none; stroke: #2e3138; stroke-linecap: round; stroke-miterlimit: 10; stroke-width: 3px;"/>
                <path d="M195.11,257.92c4.01.69,8.13.73,12.15.12" style="fill: none; stroke: #2e3138; stroke-linecap: round; stroke-miterlimit: 10; stroke-width: 3px;"/>
                <path d="M205.68,286.04c1.18,3.76,2.88,7.35,5.03,10.64,1.05,1.6,2.25,3.29,2.16,5.19-.08,1.75-1.28,3.28-2.74,4.25-2.12,1.41-5.16,1.75-7.12.14" style="fill: none; stroke: #2e3138; stroke-linecap: round; stroke-miterlimit: 10; stroke-width: 3px;"/>
                <path d="M197.7,324.62c4.36,3.57,11.08,3.87,15.74.71" style="fill: none; stroke: #2e3138; stroke-linecap: round; stroke-miterlimit: 10; stroke-width: 3px;"/>
                <path d="M204,334.89h6.52" style="fill: none; stroke: #2e3138; stroke-linecap: round; stroke-miterlimit: 10; stroke-width: 3px;"/>
                <path d="M185.54,310.51c-1.27,1.5-1.97,3.46-1.94,5.42" style="fill: none; stroke: #2e3138; stroke-linecap: round; stroke-miterlimit: 10; stroke-width: 3px;"/>
                <path d="M222.09,310.95c3.28.12,6.36,2.46,7.37,5.58" style="fill: none; stroke: #2e3138; stroke-linecap: round; stroke-miterlimit: 10; stroke-width: 3px;"/>
                <line x1="219.44" y1="354.97" x2="217.08" y2="382.88" style="fill: none; stroke: #2e3138; stroke-linecap: round; stroke-miterlimit: 10; stroke-width: 3px;"/>
                <path d="M134.29,301.18c-.22-1.19-1.84-1.73-2.89-1.14-1.05.59-1.5,1.95-1.33,3.15s.82,2.27,1.54,3.25" style="fill: none; stroke: #2e3138; stroke-linecap: round; stroke-miterlimit: 10; stroke-width: 3px;"/>
                <path d="M153.46,382.66c-7.47,2.44-14.77,5.43-21.8,8.94" style="fill: none; stroke: #2e3138; stroke-linecap: round; stroke-miterlimit: 10; stroke-width: 3px;"/>
                <path d="M131.21,392.07c4.06,6.4,10.5,11.06,17.52,13.92,7.02,2.86,14.61,4.05,22.18,4.57,9.85.68,19.77.28,29.53-1.2,7.09-1.07,14.17-2.74,20.53-6.03s12.11-9.33,15.13-15.83l-19.36-4.77" style="fill: none; stroke: #2e3138; stroke-linecap: round; stroke-miterlimit: 10; stroke-width: 3px;"/>
                <path d="M131.21,392.07s-35.06,8.67-40.99,24.5c-5.09,13.59-15.7,60.38-17.86,79.73-.41,3.66,2.49,6.82,6.16,6.82,6.62-.01,17.05.66,25.13,4.38,12.84,5.91,21.72,5.96,21.72,5.96" style="fill: none; stroke: #2e3138; stroke-linecap: round; stroke-miterlimit: 10; stroke-width: 3px;"/>
                <line x1="123.08" y1="471.01" x2="128.43" y2="555.91" style="fill: none; stroke: #2e3138; stroke-linecap: round; stroke-miterlimit: 10; stroke-width: 3px;"/>
                <path d="M236.09,387.51s21.05,5.75,41.73,19.84c12.89,8.78,20.72,44.16,26.17,88.08.35,2.84-.54,7.39-3.38,7.09-3.91-.41-10.78.67-18.65,4.99-14.58,7.99-21.03,6.18-21.03,6.18" style="fill: none; stroke: #2e3138; stroke-linecap: round; stroke-miterlimit: 10; stroke-width: 3px;"/>
                <path d="M253.31,460.8c2.36,11.63,4.43,23.32,6.22,35.05.72,4.75,1.4,9.52,1.4,14.33,0,6.44-1.25,12.81-2.48,19.13-2.59,13.28-5.18,26.55-7.77,39.83,0,0,42.25,74.22,12.64,306.62l-145.28-1.7s-12.42-129.65-3.65-199.2c4.66-36.9,12.99-76.36,12.99-76.36" style="fill: none; stroke: #2e3138; stroke-linecap: round; stroke-miterlimit: 10; stroke-width: 3px;"/>
                <line x1="286.12" y1="505.47" x2="269.63" y2="646.98" style="fill: none; stroke: #2e3138; stroke-linecap: round; stroke-miterlimit: 10; stroke-width: 3px;"/>
                <path d="M113.73,400.91s27.52,29.06,69.92,25.09c42.41-3.97,47.15-4.31,70.86-29.18" style="fill: none; stroke: #2e3138; stroke-linecap: round; stroke-miterlimit: 10; stroke-width: 3px;"/>
                <path d="M73.57,487.6s22.57,1.54,34.42,7.75c11.86,6.21,16.05,5.89,16.05,5.89" style="fill: none; stroke: #2e3138; stroke-linecap: round; stroke-miterlimit: 10; stroke-width: 3px;"/>
                <path d="M260.92,503.24s12.25-4.61,21.03-11.16,21.03-4.39,21.03-4.39" style="fill: none; stroke: #2e3138; stroke-linecap: round; stroke-miterlimit: 10; stroke-width: 3px;"/>
                <path d="M86.6,504.37c-2.46,8.33-2.9,17.1-3.33,25.77-1,20.38-1.99,40.88.54,61.13.45,3.57,1.36,7.66,4.58,9.28,1.76.89,3.82.81,5.79.7,29.42-1.63,58.71-5.43,87.57-11.35" style="fill: none; stroke: #2e3138; stroke-linecap: round; stroke-miterlimit: 10; stroke-width: 3px;"/>
                <path d="M110.72,558.73c20.93-1.67,42.04-1.16,62.86,1.53" style="fill: none; stroke: #2e3138; stroke-linecap: round; stroke-miterlimit: 10; stroke-width: 3px;"/>
                <line x1="123.08" y1="513.85" x2="121.41" y2="557.77" style="fill: none; stroke: #2e3138; stroke-linecap: round; stroke-miterlimit: 10; stroke-width: 3px;"/>
                <line x1="142.15" y1="874.34" x2="148.12" y2="994.88" style="fill: none; stroke: #2e3138; stroke-linecap: round; stroke-miterlimit: 10; stroke-width: 3px;"/>
                <line x1="185.63" y1="875.75" x2="180.4" y2="992.46" style="fill: none; stroke: #2e3138; stroke-linecap: round; stroke-miterlimit: 10; stroke-width: 3px;"/>
                <line x1="198.37" y1="875.74" x2="204.15" y2="992.46" style="fill: none; stroke: #2e3138; stroke-linecap: round; stroke-miterlimit: 10; stroke-width: 3px;"/>
                <line x1="241.85" y1="877.16" x2="236.58" y2="994.88" style="fill: none; stroke: #2e3138; stroke-linecap: round; stroke-miterlimit: 10; stroke-width: 3px;"/>
                <path d="M173.44,560.34c7.89.95,16.75.88,24.5-1.02,7.77-1.9,15.18-5.36,23.21-6.1" style="fill: none; stroke: #2e3138; stroke-linecap: round; stroke-miterlimit: 10; stroke-width: 3px;"/>
              </g>
              <g>
                <path d="M159.42,453.57c1.39,3.11,1.12,6.93-.04,10.16-2.04,5.69-6.55,9.86-11.5,12.24-4.95,2.38-10.36,3.17-15.71,3.74,2.52,3.3,4.93,6.72,7.22,10.24,11.32-.33,21.79-10.78,23.62-23.58.57-4.01.34-8.31-1.42-11.83-1.29-2.59-3.84-5.32-6.57-5.17,1.83.75,3.5,2.17,4.41,4.19Z" style="fill: #fff; stroke: #000; stroke-linecap: round; stroke-linejoin: round; stroke-width: 3px;"/>
                <path d="M159.47,451.96s-6.46-2.34-7.15,3.1c-.44,3.4.17,6.85,1.81,9.72,3.34,5.86,8.7,9.96,14.47,12.27,5.77,2.31,11.95,2.94,18.06,2.91-3.62,3.83-7.24,7.66-10.87,11.49-.37.4-.76.8-1.24,1.01-.81.36-1.72.08-2.54-.22-7.1-2.63-13.63-7.81-17.51-15.11-3.88-7.3-7.79-16.68-4.64-24.43,0,0,3.08-6.96,9.61-.75Z" style="fill: #fff; stroke: #000; stroke-linecap: round; stroke-linejoin: round; stroke-width: 3px;"/>
              </g>
            </g>
            <g id="kv-doctor-3">
              <polygon points="881.24 721.91 886.57 1052.87 888.39 1055.65 938.43 1056 941.69 1052.87 959.07 906.65 968.31 846.08 974.84 893.12 994.41 1027.33 999.65 1053.83 1003.32 1058.3 1055.68 1055.89 1067.05 802.48 1070.68 723.84 1070.19 710.24 1032.41 723.84 1014.87 727.39 975.96 730 939.7 729.02 910.59 726.65 890.32 724.06 883.41 719.28 881.24 721.91" style="fill: #fff;"/>
              <path d="M905.88,311.26c-1.79,5.93-3.58,11.87-5.37,17.8-2.67,8.85-5.35,17.73-6.97,26.84-.96,5.4-1.55,10.86-2.12,16.31-1.04,9.9-2.02,20.05.38,29.71.61,2.45,1.43,4.85,2.58,7.09,3.38,6.55,9.45,11.4,16.08,14.62,6.63,3.22,13.86,4.97,21.03,6.68.56,6.41,1.56,12.47,2.13,18.88.21,2.41.17,5.36-1.92,6.59-1.21.71-3.22,1.22-2.86,2.58.11.43.47.74.81,1.02,9.65,7.91,22.44,11.32,34.92,11.24,2.69-.02,5.39-.19,8.02-.77,2.79-.62,5.46-1.69,8.17-2.59,12.12-4.04,25.35-4.79,36.75-10.55-1.15-11.95-2.3-23.96-1.49-35.93.41-6.07-.95-12.16.02-18.19,4.58-1.59,8.27-3.16,12.34-5.79,2.14-1.38,4.28-2.99,5.42-5.26,1.87-3.71.55-8.49-2.44-11.37-2.98-2.88-7.28-4.08-11.43-4.11-4.15-.03-8.23.98-12.25,1.98-.86.21-1.75.43-2.63.28-.81-.14-1.54-.58-2.23-1.02-11.64-7.48-20.37-19.36-24.04-32.7-1.57-5.71-2.24-11.66-4.28-17.23-2.22-6.09-6.11-12.08-5.16-18.5-5.62,1.92-11.24,3.84-16.87,5.76-3.69,1.26-7.41,2.53-11.28,3.11-3.97.59-8.02.44-12.01,0-8.15-.91-15.8-3.16-23.31-6.47Z" style="fill: #fff;"/>
              <path d="M1067.71,713.01c-31.1,15.29-67.02,16.35-101.67,16.86-28.84.43-58.65.49-85.16-10.86-1.24-39-5.86-78.37-11.71-117.11-1.51-10.03-3.19-20.04-4.31-30.11-.63-5.69-1.09-11.4-1.49-17.11-.34-4.81.19-9.77-.91-14.43-2.35-9.92-7.42-18.89-11.47-28.17-1.18-2.7-2.3-5.49-2.59-8.43-.4-3.95.72-7.9,2.25-11.56,3.98-9.51,7.4-20.25,16.69-25.86,4.9-2.95,10.14-4.44,15.68-5.59,5.01-1.04,9.83-3.42,14.94-4.59,11.5-2.64,23.46-3.35,35.19-2.01-1.65,1.99-3.6,3.73-5.76,5.14,6.69,2.74,13.46,5.27,20.31,7.58,6.39,2.15,12.56,4.87,19.3,4.37,9.06-.67,18.07-2.12,26.89-4.3,4.27-1.06,9.02-2.01,13.04-3.84,2.91-1.32,7.01-2.35,9.32-4.57,1.38-1.33,1.94-3.75,2.15-5.52,10.41.11,20.71,2.69,30.44,6.27,4.98,1.83,9.85,3.95,14.6,6.3,4.62,2.29,9.59,3.53,14.45,5.27,1.2.43,2.41.88,3.4,1.68,1.26,1.01,2.04,2.48,2.94,3.82,1.77,2.63,4.1,4.84,5.97,7.4,4.77,6.54,6.2,14.87,7.17,22.91,1.17,9.69,1.85,19.44,2.06,29.2.2,9.4-.71,18.8-.13,28.14,1.19,19.25.89,38.6-.9,57.8-1.01,10.78-4.03,23.55-14.23,27.19-4.07,1.45-11.24.73-14.49,3.84-1.85,1.77-.91,5.53-.86,8.07.06,3.35.13,6.7.19,10.04.25,13.59.51,27.18.76,40.77" style="fill: #1f89bd;"/>
              <path d="M999.83,582.2c.14,1.02.31,2.1.96,2.91.86,1.06,2.33,1.38,3.68,1.57,5.51.81,11.1.84,16.66.88,3.85.02,7.69.05,11.54.07,1.31,0,2.76-.04,3.71-.93.95-.9,1.08-2.35,1.15-3.66.58-12.27.57-24.57,0-36.85-10.75-1.65-21.67-2.2-32.53-1.64-3.4.18-4.5.63-4.86,3.83-.43,3.73-.91,7.44-1.14,11.19-.45,7.55-.17,15.13.83,22.63Z" style="fill: #f79255;"/>
              <path d="M928.13,264.09c-2.41-3.63-3.57-8.72-7.67-10.2-2.63-.95-5.6.05-7.95,1.58-3.2,2.07-5.75,5.12-7.24,8.63-4.52-2.95-10.55-3.41-15.46-1.18s-8.54,7.07-9.3,12.41c-1.22,8.62,4.52,16.57,10.34,23.05,7.5,8.35,16.41,13.29,27.24,16.27,8.55,2.35,17.58,2.99,26.38,1.8s17.06-2.48,24.68-6.47c2.86,25.43,14.98,49.71,33.57,67.29,1,.94,2.08,1.9,3.41,2.19,1.14.24,2.33-.03,3.46-.31,4.08-1,8.17-2,12.25-3,1.68-.41,3.44-.87,4.67-2.09,1.06-1.05,1.56-2.52,2.01-3.93,4.22-13.07,7.39-26.67,7.64-40.46.08-4.18-.12-8.37-.65-12.52-.47-3.68-.23-7.37-.92-11.06-1.4-7.42-4.64-14.47-9.25-20.44-1.4-1.82-2.94-3.55-4.71-5.01-1.18-.97-2.45-1.81-3.72-2.65-7.03-4.66-13.72-9.27-22.12-11.02-5.48-1.14-11.12-1.19-16.71-.95-10.06.42-20.06,1.75-29.98,3.43-7.72,1.31-14.93,2.23-19.97-5.35Z" style="fill: #4b4c4e;"/>
              <circle class="eye" cx="911.37" cy="356.31" r="5.11" style="fill: #2e3138;"/>
              <circle class="eye" cx="957.15" cy="361.78" r="5.11" style="fill: #2e3138;"/>
              <path d="M1007.4,380.51c-12.49-6.45-21.35-18.52-26.7-31.52-5.35-13-7.58-27.04-9.77-40.92-19.47,11.18-44.38,12.27-64.75,2.84-13.05-6.04-24.95-17.89-25.03-32.27-.04-6.26,2.56-12.87,7.91-16.13,5.34-3.27,13.47-1.93,16.34,3.63.48-4.41,2.46-8.92,6.26-11.21,3.8-2.29,9.53-1.5,11.67,2.39.83,1.52,1.06,3.28,1.65,4.91,2.05,5.64,8.35,8.82,14.35,9.03,6,.22,11.8-1.92,17.42-4.03,0,0,53.33-11.52,72.49,24.12,19.16,35.64-3.27,82.47-3.27,82.47" style="fill: none; stroke: #2e3138; stroke-linecap: round; stroke-miterlimit: 10; stroke-width: 3px;"/>
              <path d="M1007.71,382.06c5.12-5.32,13.43-7.3,20.4-4.85,4.48,1.57,8.65,5.56,8.34,10.3-.22,3.26-2.47,6.03-4.96,8.15-6.08,5.18-14.69,7.87-22.3,5.44" style="fill: none; stroke: #2e3138; stroke-linecap: round; stroke-miterlimit: 10; stroke-width: 3px;"/>
              <path d="M906.18,310.9s-51.81,119.23,27.45,118.98" style="fill: none; stroke: #2e3138; stroke-linecap: round; stroke-miterlimit: 10; stroke-width: 3px;"/>
              <line x1="1014.52" y1="404.24" x2="1016.48" y2="454.8" style="fill: none; stroke: #2e3138; stroke-linecap: round; stroke-miterlimit: 10; stroke-width: 3px;"/>
              <path d="M931.15,430.53c1.1,8.59,2.2,17.19,3.3,25.78" style="fill: none; stroke: #2e3138; stroke-linecap: round; stroke-miterlimit: 10; stroke-width: 3px;"/>
              <path d="M931.3,349.45c-.62,5.65-2.72,11.12-6.04,15.73-1.04,1.44-2.23,2.89-2.49,4.64-.15,1.07.06,2.17.47,3.17,1.72,4.22,7.21,6.43,11.37,4.58" style="fill: none; stroke: #2e3138; stroke-linecap: round; stroke-miterlimit: 10; stroke-width: 3px;"/>
              <path d="M948.27,347.15c6.26.04,12.51,1.92,17.76,5.34" style="fill: none; stroke: #2e3138; stroke-linecap: round; stroke-miterlimit: 10; stroke-width: 3px;"/>
              <path d="M922.23,344.68c-6.15-1.62-12.75-1.48-18.84.38" style="fill: none; stroke: #2e3138; stroke-linecap: round; stroke-miterlimit: 10; stroke-width: 3px;"/>
              <path d="M917.41,395.8c5.57,3.08,12.3,4,18.49,2.52" style="fill: none; stroke: #2e3138; stroke-linecap: round; stroke-miterlimit: 10; stroke-width: 3px;"/>
              <path d="M922.52,405.65c1.85.28,3.7.55,5.55.83" style="fill: none; stroke: #2e3138; stroke-linecap: round; stroke-miterlimit: 10; stroke-width: 3px;"/>
              <path d="M942.83,393.23c2.07,1.02,3.3,3.5,2.85,5.76" style="fill: none; stroke: #2e3138; stroke-linecap: round; stroke-miterlimit: 10; stroke-width: 3px;"/>
              <path d="M908.18,389.82c-.66.37-1.33.73-1.99,1.1-.03.83-.06,1.66-.09,2.49" style="fill: none; stroke: #2e3138; stroke-linecap: round; stroke-miterlimit: 10; stroke-width: 3px;"/>
              <path d="M933.56,455.73c-2.37.12-9.06,1.7-6.18,3.13,8.86,5.22,32.13,12.94,34.06,12.82,1.88-.12,39-6.89,54.85-12.83,1.29-.48,2.7-1.14,3.15-2.44.45-1.3-1.04-3.02-2.17-2.23" style="fill: none; stroke: #2e3138; stroke-linecap: round; stroke-miterlimit: 10; stroke-width: 3px;"/>
              <path d="M1017.37,386.25c.7-1.04,2.11-1.25,3.36-1.38.29-.03.58-.06.87,0,.56.13.98.6,1.24,1.1.79,1.53.32,3.6-1.06,4.64" style="fill: none; stroke: #2e3138; stroke-linecap: round; stroke-miterlimit: 10; stroke-width: 3px;"/>
              <path d="M917.43,278.42c6.21,5.02,13.96,8.11,21.93,8.73" style="fill: none; stroke: #2e3138; stroke-linecap: round; stroke-miterlimit: 10; stroke-width: 3px;"/>
              <path d="M894.98,279.78c.41,6.5,3.71,12.77,8.84,16.8" style="fill: none; stroke: #2e3138; stroke-linecap: round; stroke-miterlimit: 10; stroke-width: 3px;"/>
              <path d="M995.64,319.83c.85,6.17,3.81,12.03,8.25,16.38" style="fill: none; stroke: #2e3138; stroke-linecap: round; stroke-miterlimit: 10; stroke-width: 3px;"/>
              <path d="M1023.79,329.92c1.26.82,1.37,2.59,1.34,4.09-.07,3.31-.19,6.66-1,9.87-1,3.99-3.05,7.79-3.09,11.91" style="fill: none; stroke: #2e3138; stroke-linecap: round; stroke-miterlimit: 10; stroke-width: 3px;"/>
              <path d="M878.04,522.39c-9.15,51.57-2.41,143.52,3.11,195.61,23.37,13.94,50.9,7.41,77.92,10.67,32.85,3.97,74.27-1.83,111.13-18.44" style="fill: none; stroke: #2e3138; stroke-linecap: round; stroke-miterlimit: 10; stroke-width: 3px;"/>
              <path d="M864.1,628.89c-14.67.5-52.15-27.64-17.37-127.13,0,0,4.5-19.67,13.61-30.6,9.11-10.92,47.04-16.18,71.7-18.81" style="fill: none; stroke: #2e3138; stroke-linecap: round; stroke-miterlimit: 10; stroke-width: 3px;"/>
              <path d="M1038.16,546.27c.24,13.13.28,26.27.12,39.41,0,.59-.03,1.23-.41,1.69-.49.6-1.37.65-2.15.64l-32.29-.03c-2.6,0-4.7-2.13-4.66-4.74l.6-37.94c12.94-.2,25.84.66,38.78.96Z" style="fill: none; stroke: #2e3138; stroke-linecap: round; stroke-miterlimit: 10; stroke-width: 3px;"/>
              <path d="M999.87,553.58c12.67,1.3,25.43,1.74,38.16,1.29" style="fill: none; stroke: #2e3138; stroke-linecap: round; stroke-miterlimit: 10; stroke-width: 3px;"/>
              <path d="M881.15,718.01s5.42,247.27,5.42,337.51c0,0,35.57,2.91,54.31,0l26.33-215.49" style="fill: none; stroke: #2e3138; stroke-linecap: round; stroke-miterlimit: 10; stroke-width: 3px;"/>
              <path d="M959.07,785.92c6.3,27.9,35.83,269.08,42.23,271.74h54.31s9.59-234.87,9.59-234.87c7.8-79.56,5-112.55,5-112.55,0-6.99.49-14.49-1.91-57.25" style="fill: none; stroke: #2e3138; stroke-linecap: round; stroke-miterlimit: 10; stroke-width: 3px;"/>
              <path class="line" d="M1050.99,750.79c1.57,12.4,3.13,24.8,4.7,37.21.84,6.63,2.89,14.69,9.39,16.24" style="fill: none; stroke: #2e3138; stroke-linecap: round; stroke-linejoin: round; stroke-width: 3px;"/>
              <g>
                <path d="M924.67,512.87c1.49,3.31,1.19,7.38-.05,10.83-2.17,6.07-6.98,10.51-12.26,13.05-5.28,2.54-11.05,3.38-16.75,3.99,2.69,3.52,5.26,7.16,7.7,10.92,12.07-.35,23.23-11.49,25.18-25.13.61-4.27.36-8.85-1.51-12.61-1.38-2.77-4.1-5.67-7.01-5.51,1.95.8,3.73,2.32,4.7,4.47Z" style="fill: #fff; stroke: #000; stroke-linecap: round; stroke-linejoin: round; stroke-width: 3px;"/>
                <path d="M924.72,511.15s-6.88-2.49-7.63,3.3c-.47,3.62.18,7.3,1.93,10.36,3.56,6.24,9.27,10.62,15.42,13.08,6.15,2.46,12.74,3.13,19.26,3.11-3.86,4.08-7.72,8.17-11.58,12.25-.4.42-.81.85-1.32,1.08-.86.38-1.83.09-2.71-.24-7.57-2.81-14.53-8.32-18.67-16.11-4.14-7.78-8.31-17.79-4.94-26.05,0,0,3.29-7.42,10.24-.8Z" style="fill: #fff; stroke: #000; stroke-linecap: round; stroke-linejoin: round; stroke-width: 3px;"/>
              </g>
            </g>
            <path id="kv-bg" d="M-83.82,627.56s975.56-127.41,1446.54,442.97v22.57H-83.82v-465.54Z" style="fill: #fff9cb;"/>
            <g id="kv-box-2">
              <polygon points="233.78 526.7 537.41 422.62 880.17 504.01 573.41 619.83 233.78 526.7" style="fill: #c9c9ca; stroke: #2e3138; stroke-linecap: round; stroke-linejoin: round; stroke-width: 3px;"/>
              <line x1="537.41" y1="422.62" x2="537.41" y2="607.86" style="fill: #fff; stroke: #2e3138; stroke-linecap: round; stroke-linejoin: round; stroke-width: 3px;"/>
            </g>
            <g id="kv-doctor-3-1">
              <path d="M804.59,484.65c-.77,1.42-1.19,2.99-1.6,4.56-1.39,5.35-2.7,10.91-1.73,16.35.35,1.94,1.19,4.06,3.04,4.75,1.24.47,2.67.14,3.81-.54s2.05-1.68,2.94-2.67c1.16,1.2,1.97,2.75,2.28,4.39.28,1.49.4,3.4,1.83,3.93,1.27.48,2.57-.58,3.48-1.58,1.32-1.45,2.59-3.04,3.15-4.92,1.06-.49,2.21.65,2.48,1.79s.09,2.38.55,3.45c.43,1.01,1.36,1.7,2.26,2.32.45.31.95.63,1.49.56.38-.05.7-.28,1-.52,1.05-.84,1.98-1.84,2.74-2.96.62-.91,1.13-1.9,1.9-2.67s1.91-1.3,2.97-1c1.14.33,1.83,1.52,2.1,2.68s.26,2.38.63,3.51c.14.45.38.91.8,1.11.78.37,1.63-.34,2.19-1,2.05-2.44,3.79-5.14,5.15-8.01,1.03-2.17,1.86-4.45,3.22-6.43,1.36-1.98,3.4-3.66,5.78-3.9.46-.05.97-.06,1.31-.37.45-.42.37-1.15.25-1.75-1.07-5.38-2.37-11.17-6.51-14.76-1.54-1.33-3.38-2.27-5.27-3.03-6.03-2.43-12.58-3.15-19.03-3.21-3.27-.03-6.54.1-9.81.27-2.64.13-5.22.04-7.06,2.12-2.11,2.39-4.82,4.68-6.35,7.51Z" style="fill: #fff;"/>
              <path d="M858.7,498.9c1.39-10.34-4.83-24.85-37.99-24.85-11.33,0-15.93,10.26-17.63,13.9-2.07,4.42-2.4,9.43-2.63,14.31-.11,2.29-.14,4.78,1.22,6.63,1.42,1.93,4.29,2.61,6.42,1.53,2.65-1.34,3.6-4.57,4.36-7.44.82-3.07,1.74-6.11,2.75-9.12.56-1.67,3.55-6.26,5.15-7.02" style="fill: none; stroke: #2e3138; stroke-linecap: round; stroke-miterlimit: 10; stroke-width: 3px;"/>
              <path d="M844.11,493.76c-2.77,1.78-4.48,5.36-5.76,8.4s-1.11,5.5-1.33,8.79c-.14,2.06-.13,4.21.79,6.06s3.02,3.25,5.02,2.75c1.37-.34,2.41-1.49,3.01-2.76s.83-2.69,1.09-4.07c.73-3.77,1.8-7.47,3.2-11.05.29-.73.61-1.49,1.19-2.02.53-.49,1.23-.74,1.93-.94,1.77-.52,3.61-.81,5.46-.86" style="fill: #fff; stroke: #2e3138; stroke-linecap: round; stroke-miterlimit: 10; stroke-width: 3px;"/>
              <path d="M833.23,491.19c-1.9.27-4.17,3.52-5.03,5.24-1.87,3.74-3.07,7.83-3.51,11.99-.33,3.16,0,6.84,2.57,8.71.65.47,1.44.8,2.24.75,1.95-.11,3.41-2.05,3.91-3.94,1.46-5.57,6.16-19.25,10.7-20.17" style="fill: none; stroke: #2e3138; stroke-linecap: round; stroke-miterlimit: 10; stroke-width: 3px;"/>
              <path d="M820.36,486.84c-.94,1.09-2.09,2.03-2.95,3.17-1.37,1.81-2.6,3.82-3.53,5.89-.47,1.04-.88,2.11-1.17,3.22-.58,2.26-.62,4.62-.66,6.95-.03,2.04-.06,4.12.52,6.08.25.84.61,1.67,1.2,2.32.91,1.02,2.33,1.55,3.68,1.37,1.75-.23,3.2-1.55,4.05-3.1s1.22-3.3,1.6-5.03c.89-4,2.87-7.64,4.81-11.22,1.23-2.28,2.81-4.73,5.33-5.32" style="fill: #fff; stroke: #2e3138; stroke-linecap: round; stroke-miterlimit: 10; stroke-width: 3px;"/>
            </g>
            <g id="kv-icon-4">
              <circle cx="753.15" cy="443.23" r="72.16" style="fill: #2e3138; stroke: #2e3138; stroke-linecap: round; stroke-linejoin: round; stroke-width: 3px;"/>
              <path d="M728.08,503.44c-8.16,38.27-16.32,76.55-24.48,114.82-1.35,6.32-1.99,14.4,3.54,17.74,4.22,2.55,9.99.47,13.16-3.3,3.17-3.77,4.37-8.77,5.48-13.57,8.46-36.71,16.93-73.43,25.39-110.14" style="fill: #4b4c4e; stroke: #2e3138; stroke-linecap: round; stroke-linejoin: round; stroke-width: 3px;"/>
              <circle cx="756.95" cy="437.75" r="72.16" style="fill: #4b4c4e; stroke: #2e3138; stroke-linecap: round; stroke-linejoin: round; stroke-width: 3px;"/>
              <circle cx="756.95" cy="437.75" r="60.28" style="fill: #fff; stroke: #2e3138; stroke-linecap: round; stroke-linejoin: round; stroke-width: 3px;"/>
              <g style="opacity: .22;">
                <g style="clip-path: url(#clippath-1);">
                  <g>
                    <path d="M282.75,56.64c-2.52-.33-5.18-.42-7.49.8s-4.09,4.1-3.55,6.92c.65,3.33,3.96,4.92,6.87,5.76,9.42,2.73,20.29,3.76,26.47,12.28,4.22,5.83,5.11,13.77,6.93,21.03,1.95,7.78,5.15,15.15,9.38,21.65" style="fill: none; stroke: #2e3138; stroke-linecap: round; stroke-miterlimit: 10; stroke-width: 3px;"/>
                    <g>
                      <path d="M790.46,949.19c42.5,2.75,85.11,3.73,127.69,2.92-3.38-43.12-6.75-86.23-10.13-129.35-2.17-27.69-4.34-55.38-6.5-83.07-1.77-22.61-3.53-45.49.16-67.87,7.14-.61,14.61-.06,21.81-.28,7.89-.24,15.78-.62,23.66-1.13.46-.03.95-.07,1.31-.36.43-.35.55-.95.63-1.5.96-6.61,1.14-13.34.55-20-2.12-23.73-.64-48.17,1.28-71.92.77-9.58,1.94-19.15,1.88-28.76-.16-26.38-2.8-52.73-1.1-79.05,2.01-31.07,1.26-62.52.4-93.64-.8-29.22-2.93-58.38-6.91-87.34-1.17-8.49-2.56-17.22-7.01-24.55-6.12-10.09-17.07-16.05-27.53-21.52-9.47-4.96-19.05-9.93-29.4-12.61-6.22-1.61-12.64-2.37-18.82-4.13-6.55-1.86-12.78-4.85-18.34-8.79-11.06-7.85-23.7-13.45-32.86-23.46-.62,6.02.19,12.09.88,18.11,1.02,8.94,1.77,17.93,1.55,26.92-.25,10.32-1.78,20.57-2.72,30.85-2.08,22.7-1.3,45.55-.52,68.33.61,17.71-6.52,35.48-7.18,53.19-.16,4.18-.18,8.39.46,12.53.42,2.75,1.14,5.44,1.46,8.2.9,7.75-1.34,15.53-1.16,23.33.38,17.48-5.3,34.76-5.57,52.24-.07,4.58-.1,9.23-1.3,13.65-.83,3.08-2.22,5.99-3,9.09-.8,3.19-.95,6.51-1.08,9.8-.4,9.48-.8,18.96-1.19,28.44-.95,22.65-2.15,46.85-.57,69.47,2.05,29.54-.2,58.54-.34,88.15-.01,2.43,0,4.99,1.19,7.11-2.43,22.05-3.28,44.17-2.19,66.33.39,8.02,1.01,16.02,1.19,24.04.24,11.36-.41,22.75.78,34.05,1.59,15.11-4.25,30.9-4.57,46.09-.21,10.14.88,20.25,1.54,30.37.79,12.07,2.07,24.01,1.62,36.1Z" style="fill: #fff;"/>
                      <path d="M667.18,189.65c-10.47,14.49-26.79,23.67-43.49,30.04s-34.24,10.39-50.8,17.1c-5.16,2.09-10.24,4.45-14.81,7.61-7.59,5.25-13.53,12.53-18.88,20.04-2.94,4.12-5.76,8.39-7.54,13.12-2.01,5.34-2.63,11.09-3.22,16.77-2.69,25.47-5.54,53.72-4.87,79.33.22,8.48.86,16.96.58,25.44-.72,21.68-7.44,43.45-3.29,64.74,5.21,26.71-4.8,55.21-4.46,82.42.21,16.44.93,32.99-1.53,49.25-5.1,33.62.22,69-2.29,102.91-.61,8.27-1.34,16.57-3.1,24.67-1.19,5.44-2.85,10.94-2.16,16.46.61,4.91,3.03,9.39,4.47,14.13,1.5,4.95,1.93,10.2,3.73,15.04,4.83,12.97,18.18,20.38,30.57,26.57,2.42,1.21,5.18,2.44,7.74,1.56,3.63-1.26,4.63-6.21,3.25-9.8-1.39-3.58-4.36-6.27-6.74-9.29-8.09-10.25-9.29-24.31-8.42-37.34,2.25,6.94,4.49,13.89,6.74,20.83.9,2.79,1.89,5.72,4.08,7.67,2.19,1.95,5.98,2.44,7.9.21.78-.91,1.14-2.1,1.45-3.26,6.25-23.25,4.4-48.61-5.17-70.7,2.95-.8,5.91-1.6,8.86-2.41,1.07-.29,2.21-.62,2.95-1.45.76-.85.95-2.06,1.11-3.19,3.07-22.23,6.15-44.46,9.22-66.68,1.08-7.84,2.17-15.7,2.15-23.61-.03-12.65,3.01-24.95,3-37.6-.02-18.48,2.47-36.97,7.37-54.79,2.85,5.39,3.13,11.73,3.34,17.83.9,25.85,0,51.76.32,77.74.09,7.28-.09,14.56-.27,21.84-.46,18.83-.92,37.66-1.38,56.49-.41,16.7.46,33.91-2.88,50.2-1.73,8.43-.6,18.12-.7,26.71-.11,9.45-.21,18.9-.32,28.35-.21,18.9-.43,37.8-.64,56.7-.24,21.5-1.95,43.02-3.11,64.52-.7,13.01-1.4,26.04-1.04,39.07,46.52,3.31,93.15,4.96,139.79,4.96.34-30.81-1.3-61.64-4.92-92.24-.75-6.32-.22-12.79-.41-19.15-.26-8.79.07-17.58-.18-26.37-.36-12.92-1.94-25.77-3.53-38.6-1.99-16.1-1.43-32.61-2.28-48.8-.32-6.08-.37-12.18-.58-18.27-.32-9.39-1.02-18.77-1.72-28.14-2.57-34.4-.05-68.51-5.76-102.53-2.55-15.21.83-30.58.76-46-.02-3.64-.05-7.3-.53-10.91-1.58-11.85-7.96-22.71-9.18-34.61-.1-.98-.2-1.96-.29-2.94-2.36-24.54-2.7-49.32-6.77-73.67-1.93-11.56-2.17-23.63-3.88-35.34-1.74-11.98-3.86-23.91-5.6-35.89-1.55-10.69-3.46-21.83-2.64-32.58s-3.64-21.89-4.99-32.35c-3.52-27.22-4.43-54.4-4.97-81.84Z" style="fill: #fff;"/>
                      <path d="M672.61,81.79c-2.35,3.63-4.93,7.12-7.72,10.43-1.51,1.78-3.25,3.62-5.55,4.04-2.35.43-4.67-.74-7.05-1.02-5.05-.61-9.94,3.02-12.03,7.65-2.1,4.64-1.87,10.01-.78,14.98.63,2.9,1.58,5.8,3.37,8.17,4.09,5.41,11.45,6.84,18.12,8.08,1.9.36,3.98.83,5.15,2.37.94,1.24,1.08,2.9,1.18,4.45.49,7.56.99,15.12,1.48,22.69.65,10.05.66,20.4,2.06,30.37.26,1.87.57,3.78,1.54,5.4.77,1.29,1.92,2.31,3.06,3.3,16.3,14.2,33.72,27.11,52.05,38.57,5.58,3.49,11.77,6.98,18.33,6.31,5.01-.51,9.43-3.39,13.51-6.33,15.48-11.15,29.39-24.47,41.2-39.45,1.5-1.9,2.98-3.85,3.99-6.06,1.9-4.15,1.97-8.88,2.01-13.44.07-8.03.15-16.06.22-24.09.06-6.93.51-14.75,5.71-19.33,3.34-2.94,7.97-3.88,11.72-6.27,4.77-3.04,7.77-8.21,9.88-13.47,1.16-2.89,2.12-6,1.65-9.07-.74-4.85-5.01-8.6-9.69-10.07s-9.74-1.08-14.6-.42c4.06-7.07,3.85-15.19,3.21-23.32-1.27-16.19-3.07-33.64-13.91-45.73-.9-1-1.88-1.97-3.12-2.5-1.59-.68-3.4-.52-5.13-.37-8.94.82-17.96,1.48-26.87.37-14.04-1.75-27.12-7.77-40.51-12.32s-28.08-7.64-41.58-3.39c-1.28.4-2.6.91-3.43,1.96-.83,1.05-1.03,2.45-1.13,3.79-.45,6.28.78,12.54,1.36,18.8,1.41,15.36.67,31.94-7.7,44.9Z" style="fill: #fff;"/>
                      <path d="M638.53,33.95c-1.32,4.48-2.25,9.1-2.31,13.77-.05,4.05.55,8.08,1.15,12.09.72,4.81.98,9.97,1.96,14.69,1,4.83,4.69,9.17,6.51,13.73.54,1.37.99,2.78,1.75,4.04.61,1.02,1.4,1.91,2.19,2.8,2.48,2.8,4.93,5.63,7.45,8.39,1.08-2.63,3.4-5.09,4.92-7.56,1.68-2.73,3.2-5.54,4.58-8.43,2.75-5.78,4.89-11.86,6.39-18.08,2.99-12.45,3.43-25.53,1.03-38.12-.6-3.15-1.37-6.36-.79-9.51,1.16-6.36,8.57-10.54,14.5-11.27,15.16-1.87,30.08,2.71,44.27,7.5,7.35,2.48,14.66,5.09,22.14,7.14,3.66,1,7.36,1.87,11.11,2.48s7.48.36,11.05,1.04,7.38,3.45,9.7,6.33c1.48,1.84,2.59,3.94,3.63,6.05,9.34,19.14,12.73,41.12,9.61,62.19,4.1-2.3,8.98-3.18,13.63-2.45,1.31.21,2.64.53,3.94.28,3.11-.61,4.61-4.09,5.49-7.13,1.58-5.49,2.77-11.09,3.55-16.74s.33-11.41,1.36-16.84c2.05-10.77,2.35-21.68-.71-32.38-5.54-19.38-21.25-34.65-39.27-43.67-18.02-9.02-38.28-12.5-58.31-14.66-4.81-.52-9.67-.97-14.48-.45-9.21,1-17.43,5.49-24.49,11.3s-11.78,15.17-18.84,20.38c-6.11,4.51-13.83,4.72-19.87,10.67s-10.4,14.17-12.83,22.43Z" style="fill: #fff9cb;"/>
                      <path d="M705.83,583.32c7.86,2.74,16.03,4.55,24.31,5.38,7.96.8,15.99.71,23.99.61,12.04-.15,24.13-.3,36.02-2.18.75,11.7,1.49,23.41,2.24,35.11.32,4.96.63,9.93.47,14.89-.28,8.41-1.94,16.7-2.4,25.09-.47,8.59,1.11,17.03,1.26,25.64.33,18.56-.34,37.14-2,55.64-.61,6.85-1.36,13.69-1.78,20.56-1.46,24.41,1.36,48.8.82,73.22-.26,11.98-.89,23.78-.76,35.79.13,12.56.26,25.12.39,37.68.14,13.82.29,27.63.43,41.45,29.3.07,58.59.13,87.89.2.44,20.11-.36,39.63,0,59.76.4,22.35-.93,44.69-2.01,67.01-.8,16.63-1.49,33.28-1.23,49.93s1.21,30.14-2.38,46.06c-32.74,1.5-65.54,1.62-98.3.37,1.85-13-.77-26.88-1.77-39.83-1.16-14.94-1.93-29.84-2.09-44.84-.32-29.44.78-58.89-.64-88.31-1.45-30-3.08-59.99-4.87-89.97-2.9-48.5-.18-98.4-8.63-146.34-2.01,26.22-2.2,52.95-2.91,79.25-.62,22.96-1.24,45.93-1.86,68.89-.59,21.76-1.17,43.53-.42,65.28.48,13.9,1.51,27.78,2.05,41.68.99,25.33.35,50.71-1.57,75.98-.89,11.67-3.23,23.62-3.56,35.16-.37,13.25,1.47,26.65,1.08,39.99-.04,1.47-.19,3.15-1.37,4.03-.93.7-2.2.68-3.36.62-30.26-1.54-60.51-2.91-90.78-4.51-7.72-22.58-5.3-46.17-7.19-69.41-2.03-25.01-3.17-50.12-3.86-75.2-.34-12.52-3.18-25.24-2.92-37.68.29-13.67.3-27.35.45-41.02,9.53-.07,18.94,1.92,28.39,3.15,17.96,2.35,36.27,1.96,54.11-1.13,1.12-.19,2.34-.46,3.05-1.34.51-.63.66-1.47.76-2.28.8-6.95-1.64-13.77-1.59-20.68.06-7.58-.1-15.2-1.04-22.73-.51-4.04-1.25-8.06-1.74-12.1-.6-4.87-.83-9.77-1.06-14.67-.91-20.08-1.55-40.16-1.92-60.26-.17-9.15.27-18.41-.87-27.5-.16-1.28-1.2-1.92-1.29-3.15-1.66-21.51-2.56-43.08-2.69-64.65-.06-9.77,1.16-19.62.66-29.27-.53-10.13-2.22-20.17-2.66-30.31-1.16-26.37-1-52.92-4.85-79.09Z" style="fill: #4b4c4e;"/>
                      <path d="M668.97,197.75c11.07,16.47,28.67,27.16,45.7,37.33,6.47,3.86,13.02,7.76,20.25,9.86s15.33,2.24,22-1.26c7.58-3.98,12.19-11.9,18.77-17.38,3.31-2.75,7.09-4.87,10.59-7.37,9.31-6.66,17.8-15.1,24.72-24.21-1.13,30.72.17,60.59.62,91.33,1.42,97.45-20.08,196.99-18.44,295.2.04,2.12-.08,4.57-1.78,5.83-1.16.86-2.72.87-4.16.84-25.11-.5-51.07.73-75.14-5.31-1.47-.37-3.09-.4-4.27-1.35-1.85-1.48-2.09-4.16-2.18-6.53-2.34-59.25-15.08-118.81-18.87-180.9-4.07-66.74-10.44-129.63-17.83-196.08Z" style="fill: #1f89bd;"/>
                      <g>
                        <path d="M670.38,2.5s30.08-64.6,126.86-14.81c0,0,54.93,29.31,20.41,113.47" style="fill: none; fill-rule: evenodd; stroke: #2e3138; stroke-linecap: round; stroke-miterlimit: 10; stroke-width: 3px;"/>
                        <path d="M670.35-.04c-11.48,3-20.75,12.03-26.06,22.65-5.31,10.61-7.04,22.68-7.23,34.54-.21,12.99,10.16,32.94,16.95,44.01" style="fill: none; fill-rule: evenodd; stroke: #2e3138; stroke-linecap: round; stroke-miterlimit: 10; stroke-width: 3px;"/>
                        <path d="M672.92,22.21c11.51-22.26,44.68-12.65,60.8-5.88,7.22,3.03,13.93,7.18,21.21,10.07,17.08,6.77,38.03,5.58,52.16-6.17" style="fill: none; fill-rule: evenodd; stroke: #2e3138; stroke-linecap: round; stroke-miterlimit: 10; stroke-width: 3px;"/>
                        <path d="M750.9,5.75c2.35,1.51,4.95,2.59,7.65,3.31,8.54,2.27,18.03.65,25.33-4.31" style="fill: none; fill-rule: evenodd; stroke: #2e3138; stroke-linecap: round; stroke-miterlimit: 10; stroke-width: 3px;"/>
                        <path d="M660.59,25.88c-4.31,5.96-6.65,13.33-6.58,20.68" style="fill: none; fill-rule: evenodd; stroke: #2e3138; stroke-linecap: round; stroke-miterlimit: 10; stroke-width: 3px;"/>
                        <path d="M664.24,54.26c1.23,9.55-2.05,19.04-5.27,28.11" style="fill: none; fill-rule: evenodd; stroke: #2e3138; stroke-linecap: round; stroke-miterlimit: 10; stroke-width: 3px;"/>
                        <path d="M672.92,22.21c1.97,18.42,3.86,37.59-2.47,55-3.08,8.46-7.98,16.13-13.15,23.5" style="fill: none; fill-rule: evenodd; stroke: #2e3138; stroke-linecap: round; stroke-miterlimit: 10; stroke-width: 3px;"/>
                        <path d="M783.9,31.81c13.65,21.42,19.06,47.95,14.88,73.01" style="fill: none; fill-rule: evenodd; stroke: #2e3138; stroke-linecap: round; stroke-miterlimit: 10; stroke-width: 3px;"/>
                        <path d="M799.97,102.04c3.71-.96,7.5-1.85,11.33-1.75s7.78,1.3,10.49,4.01c2.56,2.56,3.79,6.28,3.74,9.9-.05,3.62-1.29,7.15-3.09,10.3-1.25,2.19-2.78,4.22-4.62,5.94-5.36,5.02-12.81,6.97-19.94,8.74" style="fill: none; fill-rule: evenodd; stroke: #2e3138; stroke-linecap: round; stroke-miterlimit: 10; stroke-width: 3px;"/>
                        <path d="M801.51,117.21c.64-1.35,1.81-2.49,3.26-2.89s3.13.03,4.07,1.19c.95,1.16.98,3.02-.05,4.11" style="fill: none; fill-rule: evenodd; stroke: #2e3138; stroke-linecap: round; stroke-miterlimit: 10; stroke-width: 3px;"/>
                        <path d="M668.97,159.23c1.35,10.47.57,28.15,1.25,38.64" style="fill: none; fill-rule: evenodd; stroke: #2e3138; stroke-linecap: round; stroke-miterlimit: 10; stroke-width: 3px;"/>
                        <path d="M808.9,135.91c-.53,21.31-1.05,37.49-1.58,58.8" style="fill: none; fill-rule: evenodd; stroke: #2e3138; stroke-linecap: round; stroke-miterlimit: 10; stroke-width: 3px;"/>
                        <path d="M684.43,65.18c1.31-1.7,3.35-2.72,5.45-3.13s4.27-.27,6.4.03c1.67.23,3.41.6,4.69,1.69" style="fill: none; fill-rule: evenodd; stroke: #2e3138; stroke-linecap: round; stroke-miterlimit: 10; stroke-width: 3px;"/>
                        <path d="M761.44,61.46c4.61-3.29,11.17-3.59,16.05-.73" style="fill: none; fill-rule: evenodd; stroke: #2e3138; stroke-linecap: round; stroke-miterlimit: 10; stroke-width: 3px;"/>
                        <path d="M722.86,90.5c-.44,7.54-.92,15.28-4.07,22.15-.85,1.85-1.9,3.68-2.11,5.7-.31,2.93,1.27,5.85,3.59,7.67,2.32,1.82,5.27,2.65,8.21,2.94,4.25.41,9.37-.87,10.86-4.88" style="fill: none; fill-rule: evenodd; stroke: #2e3138; stroke-linecap: round; stroke-miterlimit: 10; stroke-width: 3px;"/>
                        <path d="M737.99,148.93c-5.07,3.94-12.8,4-17.92.12" style="fill: none; fill-rule: evenodd; stroke: #2e3138; stroke-linecap: round; stroke-miterlimit: 10; stroke-width: 3px;"/>
                        <path d="M732.82,162.18c-2.07.65-4.39.5-6.36-.42" style="fill: none; fill-rule: evenodd; stroke: #2e3138; stroke-linecap: round; stroke-miterlimit: 10; stroke-width: 3px;"/>
                        <circle cx="692.69" cy="91.31" r="6.58" style="fill: #2e3138;"/>
                        <circle cx="769.47" cy="91.31" r="6.58" style="fill: #2e3138;"/>
                        <path d="M717.6,188.07c-5.74-.03-23.8-6.45-30.7-10.97-4.87-3.19-13.8-9.56-16.91-15.34,0,0-11.71-26.48-11.02-58.63" style="fill: none; fill-rule: evenodd; stroke: #2e3138; stroke-linecap: round; stroke-miterlimit: 10; stroke-width: 3px;"/>
                        <path d="M670.22,197.87c14.11,16.01,40.64,33.04,58.24,45.1,3.9,2.67,8.13,5.33,12.85,5.55,4.33.21,8.47-1.65,12.35-3.58,24.11-11.95,35.77-30.76,54.61-49.97" style="fill: none; fill-rule: evenodd; stroke: #2e3138; stroke-linecap: round; stroke-miterlimit: 10; stroke-width: 3px;"/>
                        <path d="M703.16,517.06c.28.86-44.94-127.9-74.49-177.22-1.5-2.51-3.08-5.1-3.39-8.01-.27-2.55.47-5.09,1.28-7.53,5.37-16.28,13.89-31.51,24.94-44.61-6.57-9.46-13.15-18.91-19.72-28.37-1.21-1.74-2.47-3.66-2.33-5.77.1-1.54.95-2.92,1.78-4.23,11.58-18.28,23.96-36.06,37.08-53.26,0,0,23.62,294.51,34.84,328.99Z" style="fill: none; fill-rule: evenodd; stroke: #2e3138; stroke-linecap: round; stroke-linejoin: round; stroke-width: 3px;"/>
                        <path d="M792.14,512.48c-.74,1.95,56.87-115.53,64.25-181.84.43-3.9.79-7.93-.32-11.7-1.12-3.79-3.63-6.99-6.09-10.09-8.35-10.52-16.7-21.03-25.05-31.55,8.07-7.94,16.14-15.88,24.21-23.81-12.22-20.12-24.43-40.25-36.65-60.37,0,0-1.56,269.63-20.34,319.36Z" style="fill: none; fill-rule: evenodd; stroke: #2e3138; stroke-linecap: round; stroke-miterlimit: 10; stroke-width: 3px;"/>
                        <path d="M824.95,209.93c26.76,7.91,53.09,17.3,78.83,28.09,10.62,4.46,22.49,9.45,29.69,18.81,8.78,11.43,14.71,26.81,21.87,39.38,15.58,27.33,31.79,54.31,48.59,80.91,15.2,24.06,30.91,47.84,44.65,72.77" style="fill: none; fill-rule: evenodd; stroke: #2e3138; stroke-linecap: round; stroke-miterlimit: 10; stroke-width: 3px;"/>
                        <path d="M586.28,346.27l10.08,158.31-12.24,441.42s121.79,9.09,140.88,4.54l-21.84-433.48" style="fill: none; fill-rule: evenodd; stroke: #2e3138; stroke-linecap: round; stroke-miterlimit: 10; stroke-width: 3px;"/>
                        <polyline points="902.58 350.89 890.59 517.06 917.68 951.81 788.34 951.81 792.14 512.48" style="fill: none; fill-rule: evenodd; stroke: #2e3138; stroke-linecap: round; stroke-miterlimit: 10; stroke-width: 3px;"/>
                        <path d="M707.88,583.29c26.61,7.13,54.74,8.48,81.91,3.92" style="fill: none; fill-rule: evenodd; stroke: #2e3138; stroke-linecap: round; stroke-miterlimit: 10; stroke-width: 3px;"/>
                        <polyline points="635.9 949.35 650.95 1175.55 746.54 1175.55 753.81 708.23 773.06 1175.55 872.01 1177.04 877.96 953.31" style="fill: none; fill-rule: evenodd; stroke: #2e3138; stroke-linecap: round; stroke-miterlimit: 10; stroke-width: 3px;"/>
                        <path d="M950.82,673.55c3.91,9.21,7.82,18.42,11.73,27.63.81,1.91,1.63,3.94,1.19,5.94-.39,1.76-1.7,3.22-3,4.58-5.46,5.68-11.55,10.87-18.17,15.46-2.45,1.7-5.22,3.39-8.31,3.36-2.32-.02-4.48-1.02-6.51-2.04-3.9-1.95-7.69-4.06-11.37-6.32-2.59-1.6-5.17-3.31-7.03-5.59-3.05-3.74-3.72-8.94-4.55-13.55-1.04-5.83-1.47-11.78-1.25-17.7.06-1.5.17-3.08.95-4.36s2.43-2.18,3.82-1.61c1.71.7,2.04,2.92,2.19,4.75.2,2.34.52,4.67.96,6.97.48,2.49,1.15,5.04,2.73,7.04s4.27,3.3,6.7,2.55c.78-2.82.8-5.66.92-8.58.25-6.07.49-12.14.74-18.22,9.06.61,19.21.42,28.26-.31Z" style="fill: #fff; fill-rule: evenodd; stroke: #2e3138; stroke-linecap: round; stroke-miterlimit: 10; stroke-width: 3px;"/>
                        <rect x="902.56" y="554.91" width="12.72" height="148.15" rx="3.92" ry="3.92" transform="translate(-65.9 107.95) rotate(-6.56)" style="fill: #fff; stroke: #2e3138; stroke-linecap: round; stroke-miterlimit: 10; stroke-width: 3px;"/>
                        <path d="M901.4,391.45c21.94,36.74,48.64,70.64,79.21,100.58" style="fill: none; fill-rule: evenodd; stroke: #2e3138; stroke-linecap: round; stroke-miterlimit: 10; stroke-width: 3px;"/>
                        <path d="M797.89,151.93c-5.19,14.6-16.45,26.48-30,31.65-4.53,1.73-9.27,2.74-14.02,3.55-8.56,1.46-17.22,2.3-25.88,2.5" style="fill: none; fill-rule: evenodd; stroke: #2e3138; stroke-linecap: round; stroke-miterlimit: 10; stroke-width: 3px;"/>
                        <path d="M657.11,202c-55.94,7.07-112.09,12.39-168.36,15.95-2.9.18-5.94.34-8.59-.87-3.09-1.41-5.08-4.41-6.91-7.27-35.33-55.49-65.52-114.25-90.05-175.29-26.8,12.11-61.37,23.92-88.16,36.02,45.45,126.83,88.27,192.54,137.15,289.34,51.13-3.91,102.57-3.79,153.69.35" style="fill: none; fill-rule: evenodd; stroke: #2e3138; stroke-linecap: round; stroke-miterlimit: 10; stroke-width: 3px;"/>
                      </g>
                      <g>
                        <path d="M648.93,343.99s-49.78-147.75,18.32-161.82l1.06,5.9s-54.83,8.8-11.02,155.92" style="fill: #a0a0a1; stroke: #2e3138; stroke-miterlimit: 10; stroke-width: 3px;"/>
                        <g>
                          <circle cx="657.3" cy="365.48" r="21.49" style="fill: #fff; stroke: #2e3138; stroke-miterlimit: 10; stroke-width: 3px;"/>
                          <circle cx="657.3" cy="365.48" r="14.28" style="fill: #a0a0a1; stroke: #2e3138; stroke-miterlimit: 10; stroke-width: 3px;"/>
                        </g>
                        <path d="M811.71,177.1s45.7,36.4,36.5,95.21c0,0,74.04,9.95,5.58,118.86l-5.13-5.15s62.29-92.28-5.79-108.92c-68.08-16.64-36.45,94.68-36.45,94.68l-5.77.33s-34.94-106.41,35.94-102.82c0,0,16.43-33.71-26.79-84.44l1.92-7.76Z" style="fill: #a0a0a1; stroke: #2e3138; stroke-miterlimit: 10; stroke-width: 3px;"/>
                        <circle cx="849.77" cy="390.97" r="4.43" style="fill: #a0a0a1; stroke: #2e3138; stroke-miterlimit: 10; stroke-width: 3px;"/>
                        <circle cx="804.15" cy="373.14" r="4.43" style="fill: #a0a0a1; stroke: #2e3138; stroke-miterlimit: 10; stroke-width: 3px;"/>
                      </g>
                    </g>
                    <g>
                      <path d="M291.54-61.21c12.25-15.52,32.04-25.69,51.71-23.59s37.84,17.96,39.91,37.63c2.02,19.2-10.16,36.62-20.93,52.64-18.58,27.6-34.91,57.56-40.75,90.31-7.03-14-19.6-25.12-34.35-30.4-25.51-9.13-55.85-1.2-79.31-14.76-26.4-15.25-31.29-56.63-10.52-78.95,22.06-23.71,56.9-18.96,80.77-1.68,3.29-11.1,5.93-21.65,13.47-31.2Z" style="fill: #ffad0f; stroke: #2e3138; stroke-linecap: round; stroke-linejoin: round; stroke-width: 3px;"/>
                      <path d="M328.55-65.21c9.04-8.97,25.92-4.62,32.75,6.13,6.83,10.75,5.5,24.97.67,36.75-4.83,11.79-12.72,22.02-18.96,33.12-7.92,14.06-13.15,29.44-18.35,44.72-3.97-3.31-3.16-9.51-1.91-14.52,4.66-18.66,10.57-37,17.67-54.87,3.09-7.79,6.48-16,5.12-24.27-1.36-8.27-9.74-15.96-17.66-13.22-4.11,1.42-7.71,5.36-11.97,4.5-3.94-.79-5.94-5.7-4.88-9.58,1.06-3.88,4.27-6.78,7.59-9.04,7.2-4.91,16.04-7.94,24.67-6.65,8.62,1.29,16.74,7.55,18.64,16.05" style="fill: #fff;"/>
                    </g>
                    <path d="M341.96,40.2c-9.92-4.44-25.67-3.84-36.34-5.93-3.23-.63-7-1.01-9.43,1.22-1.99,1.83-2.34,4.96-1.46,7.52s2.79,4.62,4.81,6.41c4.46,3.94,9.75,6.93,15.43,8.71,4.67,1.46,9.71,2.17,13.76,4.91,4.71,3.19,7.31,8.59,10.65,13.2,3.99,5.51,9.26,10.08,15.28,13.24" style="fill: #fff; stroke: #2e3138; stroke-linecap: round; stroke-miterlimit: 10; stroke-width: 3px;"/>
                    <path d="M358.05,15.68c12.39,3.57,14.98,16.34,19.58,28.38,6.49,17.02,10.57,34.96,12.08,53.12" style="fill: none; stroke: #2e3138; stroke-linecap: round; stroke-miterlimit: 10; stroke-width: 3px;"/>
                  </g>
                </g>
              </g>
              <path d="M722.57,417.43c.94-1.27,1.84-2.57,2.71-3.89,1.48-2.25,2.87-4.57,4.72-6.53,5.15-5.47,12.05-8.69,19.38-10.06,5.06-.95,10.16-1,15.29-.79,3.04.13,8.4-.41,9.5-3.94.64-2.03-.63-4.28-2.43-5.42s-3.99-1.43-6.11-1.62c-6.8-.6-13.72-.48-20.36,1.13-11.93,2.9-21.17,11.64-28.58,21.07-3.17,4.04-5.56,8.88-5.85,14.01-.11,1.82.35,4.07,2.09,4.63,1.67.53,3.28-.86,4.44-2.17,1.83-2.06,3.57-4.2,5.2-6.42Z" style="fill: #fff;"/>
            </g>
            <g id="kv-icon-5">
              <g>
                <path d="M634.54,566.18l2.75,50.91s2.49,14.88,22.91,13.77,20.44-16.39,20.44-16.39l-2.73-50.63-43.36,2.34Z" style="fill: #1f89bd;"/>
                <path d="M677.9,563.84l-2.75-50.91s-2.49-14.88-22.91-13.77c-20.14,1.09-20.44,16.39-20.44,16.39l2.73,50.63,43.36-2.34Z" style="fill: #fff;"/>
              </g>
              <path d="M646.79,627.81s-11.91-.3-10.27-25.11l-4.71-87.16s2.09-9.67,7.37-11.91l7.61,124.18Z" style="fill: #fffded; mix-blend-mode: multiply;"/>
              <g>
                <path d="M634.54,566.18l2.75,50.91s2.49,14.88,22.91,13.77,20.44-16.39,20.44-16.39l-2.73-50.63-43.36,2.34Z" style="fill: none; stroke: #2e3138; stroke-linecap: round; stroke-miterlimit: 10; stroke-width: 3px;"/>
                <path d="M677.9,563.84l-2.75-50.91s-2.49-14.88-22.91-13.77c-20.14,1.09-20.44,16.39-20.44,16.39l2.73,50.63,43.36-2.34Z" style="fill: none; stroke: #2e3138; stroke-linecap: round; stroke-miterlimit: 10; stroke-width: 3px;"/>
              </g>
            </g>
            <g id="kv-icon-2">
              <path d="M573.5,382.46c53.68,28.77,68.36,141.11-1.89,175.01-75.16,36.27-100.95-4.42-100.95-4.42l-4.08-13.51-24,1.37-7.28,9.82s77.6,103.88,186.07,2.79c37.43-34.88,30.68-91.14,13.16-125.66-20.41-40.2-55.64-56.19-55.64-56.19l-7.12.98,1.73,9.81Z" style="fill: #f4f2f2; stroke: #4b4c4e; stroke-miterlimit: 10; stroke-width: 3px;"/>
              <rect x="426.37" y="309.98" width="177.13" height="73.62" transform="translate(-104.45 388.9) rotate(-37.85)" style="fill: #98999a; stroke: #4b4c4e; stroke-miterlimit: 10; stroke-width: 3px;"/>
              <rect x="581.38" y="256.37" width="29.26" height="53.14" transform="translate(-48.23 425.21) rotate(-37.85)" style="fill: #fff; stroke: #4b4c4e; stroke-miterlimit: 10; stroke-width: 3px;"/>
              <rect x="432.81" y="378.74" width="13.61" height="53.14" transform="translate(-156.21 354.99) rotate(-37.85)" style="fill: #fff; stroke: #4b4c4e; stroke-miterlimit: 10; stroke-width: 3px;"/>
              <circle cx="549.73" cy="367.16" r="28.27" style="fill: #fff; stroke: #4b4c4e; stroke-miterlimit: 10; stroke-width: 3px;"/>
              <circle cx="549.73" cy="367.16" r="18.4" style="fill: #4b4c4e; stroke: #4b4c4e; stroke-miterlimit: 10; stroke-width: 3px;"/>
              <polygon points="358.04 545.31 352.54 505.43 521.12 542.18 523.15 556.9 358.04 545.31" style="fill: #4b4c4e; stroke: #4b4c4e; stroke-miterlimit: 10; stroke-width: 3px;"/>
              <path d="M565.9,642.44l-7.71-79.08s10.94-41.34,54.83-21.27c0,0,20.02,22.4,44.5,87.72l51.75-7.13,3.34,24.21-253.99,35.01-3.21-23.26,110.49-16.2Z" style="fill: #f4f2f2; stroke: #4b4c4e; stroke-miterlimit: 10; stroke-width: 3px;"/>
              <circle cx="591.3" cy="564.91" r="12.32" style="fill: #737375; stroke: #4b4c4e; stroke-miterlimit: 10; stroke-width: 3px;"/>
            </g>
            <g id="kv-icon-3">
              <path d="M408.4,409.22c24.34-14.42,56-17.8,81.17-4.88,25.17,12.92,41.27,43.46,33.91,70.77-7.19,26.67-32.41,43.67-55.04,59.5-39,27.29-76.22,58.87-100.88,99.58-2.18-22.3-13.24-43.62-30.21-58.25-29.36-25.32-73.94-30.34-98.28-60.52-27.39-33.95-12.62-91.7,26.59-110.81,41.65-20.29,85.71,3.98,108.69,39.32,10.1-13.12,19.06-25.85,34.04-34.72Z" style="fill: #ff6d04; stroke: #2e3138; stroke-linecap: round; stroke-linejoin: round; stroke-width: 3px;"/>
              <path d="M459.86,422.92c16.69-7.32,36.98,7.17,40.56,25.03,3.59,17.87-5.51,36.16-18.02,49.41-12.51,13.25-28.31,22.85-42.36,34.46-17.8,14.7-32.72,32.54-47.51,50.26-3.6-6.45.67-14.33,4.92-20.37,15.82-22.51,33.15-43.96,51.82-64.16,8.14-8.8,16.89-18.03,19.33-29.76,2.44-11.74-4.79-26.32-16.77-26.74-6.22-.22-13.05,3.19-18.3-.15-4.85-3.09-4.99-10.67-1.58-15.3,3.41-4.63,9.19-6.85,14.79-8.17,12.14-2.85,25.5-2.34,36.35,3.82,10.85,6.16,18.47,18.69,16.62,31.02" style="fill: #fff; opacity: .53;"/>
            </g>
            <g id="kv-icon-6">
              <g>
                <path d="M650.63,445l22.89-45.56s5.23-14.15-13.05-23.33c-18.02-9.05-25.88,4.09-25.88,4.09l-22.76,45.31,38.8,19.49Z" style="fill: #ff6d04;"/>
                <path d="M611.83,425.51l-22.89,45.56s-5.23,14.15,13.05,23.33c18.02,9.05,25.88-4.09,25.88-4.09l22.76-45.31-38.8-19.49Z" style="fill: #fff;"/>
              </g>
              <path d="M670.6,385.42s10.19,6.17-3.55,26.9l-39.18,78s-6.62,7.35-12.31,6.68l55.04-111.57Z" style="fill: #fcd9c3; mix-blend-mode: multiply;"/>
              <g>
                <path d="M650.63,445l22.89-45.56s5.23-14.15-13.05-23.33c-18.02-9.05-25.88,4.09-25.88,4.09l-22.76,45.31,38.8,19.49Z" style="fill: none; stroke: #2e3138; stroke-linecap: round; stroke-miterlimit: 10; stroke-width: 3px;"/>
                <path d="M611.83,425.51l-22.89,45.56s-5.23,14.15,13.05,23.33c18.02,9.05,25.88-4.09,25.88-4.09l22.76-45.31-38.8-19.49Z" style="fill: none; stroke: #2e3138; stroke-linecap: round; stroke-miterlimit: 10; stroke-width: 3px;"/>
              </g>
            </g>
            <g id="kv-icon-7">
              <path d="M483.14,441.4c-19.41,12.4-22.6,34.74-11.44,51.84,9.42,14.44,25.54,23.51,41.92,18.39,0,0,8.84-2.36,14.55-9.65" style="fill: #ece9e8; stroke: #2e3138; stroke-linecap: round; stroke-miterlimit: 10; stroke-width: 3px;"/>
              <ellipse cx="505.35" cy="471.94" rx="29" ry="37.82" transform="translate(-174.09 343.64) rotate(-32.35)" style="fill: #fff; stroke: #2e3138; stroke-linecap: round; stroke-miterlimit: 10; stroke-width: 3px;"/>
              <path d="M527.63,467.44c-13.51.49-26.88,4.38-38.54,11.23" style="fill: none; stroke: #2e3138; stroke-linecap: round; stroke-miterlimit: 10; stroke-width: 3px;"/>
            </g>
            <g id="kv-box-1">
              <polygon points="240.82 782.6 523.61 985.14 1198.31 968.92 884.08 791.99 799.37 778.42 240.82 782.6" style="fill: #ece9e8; mix-blend-mode: multiply; opacity: .67;"/>
              <g>
                <polygon points="573.41 619.83 573.41 900.76 240.82 782.6 233.78 526.7 573.41 619.83" style="fill: #fff; stroke: #2e3138; stroke-linecap: round; stroke-linejoin: round; stroke-width: 3px;"/>
                <polygon points="884.08 791.99 880.17 504.01 573.41 619.83 573.41 900.76 884.08 791.99" style="fill: #c9c9ca; stroke: #2e3138; stroke-linecap: round; stroke-linejoin: round; stroke-width: 3px;"/>
                <polygon points="233.78 526.7 176.91 655.56 507.68 758.86 573.41 619.83 233.78 526.7" style="fill: #e4e4e4; stroke: #2e3138; stroke-linecap: round; stroke-linejoin: round; stroke-width: 3px;"/>
                <polygon points="573.41 619.83 646.45 758.86 966.77 626.35 880.17 504.01 573.41 619.83" style="fill: #a5a5a6; stroke: #2e3138; stroke-linecap: round; stroke-linejoin: round; stroke-width: 3px;"/>
              </g>
            </g>
            <g id="kv-doctor-1-1">
              <path d="M240.47,559.18c.49.08.99.19,1.47.33,1.88.57,3.75,2.01,3.85,3.97.02.4-.02.83.2,1.16.64.91,2.41.45,3.33.87.75.35,1.61,1.17,2.08,1.83,1.21,1.69,1.31,4.25-.58,5.57-.78.54-1.73.76-2.56,1.21s-1.6,1.27-1.5,2.21c.1.9.96,1.58,1.03,2.47.08.99-.79,1.77-1.58,2.38-2.15,1.65-4.33,3.32-6.85,4.33-1.71.69-3.93,1.59-3.82,3.42.07,1.04.96,2.01.64,3-.13.4-.43.72-.75.99-2.18,1.87-5.18,2.4-8.03,2.75-15.05,1.83-30.63.23-44.65-5.56-1.13-.47-2.36-1.07-2.79-2.22-.56-1.5.51-3.06,1.52-4.3,2.02-2.49,4.44-4.66,6.3-7.29,1.69-2.38,1.77-5.38,3.28-7.53,3.32-4.72,12.21-5.88,17.26-7.53,2.93-.96,5.78-2.14,8.52-3.54.27,9.29,18.85.74,23.61,1.47Z" style="fill: #fff;"/>
              <path d="M180.59,590.17c2.96.13,5.76,1.33,8.54,2.35,13.75,5.02,28.95,5.98,43.21,2.73,1.62-.37,3.49-1.04,3.91-2.65.35-1.35-.59-2.77-1.82-3.42s-2.68-.73-4.07-.79c-7.14-.32-14.28-.64-21.42-.95" style="fill: none; stroke: #2e3138; stroke-linecap: round; stroke-miterlimit: 10; stroke-width: 3px;"/>
              <path d="M217.82,559.36c-2.23,1.39-.53,2.93,1.28,3,1.99.08,3.88-.19,5.76-.78,1.81-.57,3.76-.66,5.62-1.1,4.05-.95,8.28-2.51,12.47-1.41.58.15,1.15.36,1.62.73,1.1.86,1.39,2.51.89,3.83s-1.63,2.3-2.89,2.91c-9.43,4.57-20.96,5.77-31.36,5.69" style="fill: none; stroke: #2e3138; stroke-linecap: round; stroke-miterlimit: 10; stroke-width: 3px;"/>
              <path d="M233.18,569.77c3.79-1.26,8.51-2.26,12.3-3.52,1.93-.64,4.22-.52,5.48,1.07.88,1.1.66,2.78-.15,3.93s-2.08,1.88-3.34,2.51c-10.26,5.15-22.1,6.17-33.58,5.92" style="fill: none; stroke: #2e3138; stroke-linecap: round; stroke-miterlimit: 10; stroke-width: 3px;"/>
              <path d="M234.71,578.1c3.48-.99,6.27-1.57,9.01-1.67,1.26-.05,2.96-.43,3.4,2.69.11.76-.5,1.42-1.09,1.92-3.48,2.97-8.07,4.29-12.56,5.16-4.84.93-9.77,1.44-14.7,1.51" style="fill: none; stroke: #2e3138; stroke-linecap: round; stroke-miterlimit: 10; stroke-width: 3px;"/>
            </g>
            <g id="kv-doctor-3-1-2" data-name="kv-doctor-3-1">
              <path d="M904.41,579.83c-3.53-2.74-4.94-7.34-7.46-11.02-4.37-6.36-11.88-9.7-19.13-12.35-2.18-.79-4.45-1.57-6.76-1.32s-4.63,1.82-4.98,4.11c-.26,1.69.6,3.39,1.79,4.62s2.7,2.09,4.12,3.05c3.5,2.38,6.53,5.45,8.87,8.98.28.42.56.95.35,1.41-.19.42-.68.58-1.13.68-4.25.92-8.64-.32-12.76-1.7-4.55-1.52-9.05-3.23-13.47-5.1-1.89-.8-3.92-1.65-5.92-1.21-2.57.56-4.36,3.49-3.68,6.03-1.81.79-3.66-.93-5.55-1.5-2.9-.89-6.31,1.57-6.39,4.6-.04,1.73.78,3.64-.17,5.09-.69,1.06-2.07,1.4-3.06,2.17-1.76,1.37-2.11,4.01-1.4,6.12.71,2.12,2.25,3.84,3.78,5.46.83.88,1.69,1.78,2.15,2.9s.46,2.52-.34,3.43c-.84.95-2.28,1.1-3.33,1.81-1.69,1.13-2.1,3.4-2.37,5.41-.1.76-.19,1.58.21,2.24.3.5.84.8,1.35,1.08,3.38,1.87,6.75,3.74,10.13,5.6,3.44,1.91,6.9,3.81,10.51,5.38,17.08,7.39,36.43,6.59,55.02,5.67,2.38-.12,5.03-.36,6.61-2.15.87-.98,1.26-2.3,1.51-3.58.59-3.03.15-5.88.26-8.9s.78-5.79.99-8.69c.44-6.07.26-12.19-.55-18.22-.34-2.52-.79-5.95-2.96-7.57-1.79-1.34-4.44-1.13-6.23-2.53Z" style="fill: #fff;"/>
              <g>
                <path d="M1036.04,587.59c-5.78.14-11.31-2.1-16.85-3.75-12.28-3.66-25.19-4.5-37.98-5.26-10.89-.65-21.81-.8-32.71-1.3-5.33-.24-10.65-.56-15.96-1.07-4.41-.42-13.8-4.47-17.98-2.06-3.81,2.19-.65,14.8-.6,18.84.05,3.98-2.91,47.33-4.13,47.14,48.94,7.3,98.2,14.63,147.66,13.01,6.82-.22,13.7-.63,20.28-2.45,9.65-2.67,19.11-9.02,22.42-18.82,1.75-5.18,1.88-10.75,1.9-16.22.11-22.43-1.22-44.87-3.98-67.13-.14-1.1-.28-2.22-.81-3.19-1.34-2.45-4.51-3.08-7.27-3.45-14.66-1.95-29.72-4.16-44.54-2.93-12.82,1.06-12.1,12.76-12.13,23.32-.02,8.5.88,17.01,2.68,25.32Z" style="fill: #1f89bd;"/>
                <path d="M1019.46,453.36c17.12,3.65,33.98,8.53,50.41,14.57,5.09,1.87,10.25,3.92,14.34,7.47,8.72,7.56,10.8,20.07,11.98,31.55,3.65,35.5,3.93,71.25,4.2,106.94.07,8.88-.04,18.39-5.05,25.73-5.84,8.56-16.8,11.88-27.06,13.38-22.89,3.37-46.2.67-69.18-2.03-26.16-3.07-52.32-6.15-78.49-9.22" style="fill: none; stroke: #2e3138; stroke-linecap: round; stroke-miterlimit: 10; stroke-width: 3px;"/>
                <path d="M1048.44,591.2c-44.3-11.5-90.1-17.23-135.87-17.01,2.75,22.71,2.04,44.13-2.81,66.49,3.23.11,7.95.52,10.86,1.06" style="fill: none; stroke: #2e3138; stroke-linecap: round; stroke-miterlimit: 10; stroke-width: 3px;"/>
                <path d="M1036.05,541.19c-1.85,15.83-2.25,30.62,0,46.4" style="fill: #f79255; stroke: #2e3138; stroke-linecap: round; stroke-miterlimit: 10; stroke-width: 3px;"/>
              </g>
              <g>
                <path d="M888.35,580.64c-10.84-.73-21.57-2.64-32.26-9.02-2.41-1.44-5.03-2.54-7.76-3.16-.69-.15-1.4-.27-2.09-.1-1.3.31-2.19,1.56-2.57,2.84-.73,2.47.05,5.21,1.53,7.32,1.48,2.11,3.59,3.69,5.75,5.1,7.25,4.73,15.48,7.95,24.02,9.39" style="fill: none; stroke: #2e3138; stroke-linecap: round; stroke-miterlimit: 10; stroke-width: 3px;"/>
                <path d="M846.67,580.24c-2.09-1.22-4.24-2.35-6.41-3.39-2.22-1.07-4.43-2.09-6.96-1.99-.26.01-.51.03-.76.09-4.3,1.06-1.01,9.15.35,11.34,1.76,2.83,4.27,5.13,6.94,7.13,8.94,6.74,24,11.57,35.19,11.87" style="fill: none; stroke: #2e3138; stroke-linecap: round; stroke-miterlimit: 10; stroke-width: 3px;"/>
                <path d="M835.22,589.34c-1.87-1.67-6.39-3.1-8.37-1.57-2.25,1.74-1.25,5.34.29,7.72,4.38,6.75,12.08,12.84,19.27,16.47,7.87,3.97,16.36,4.73,24.31,5.99" style="fill: none; stroke: #2e3138; stroke-linecap: round; stroke-miterlimit: 10; stroke-width: 3px;"/>
                <path d="M836.19,605.29c-2.71-2.27-8.41-1.66-9.01,1.83-.59,3.4,1.09,6.87,3.84,8.94,11.3,8.49,25.07,13.34,39.07,15.27,14,1.93,25.71,2.33,39.67.11" style="fill: none; stroke: #2e3138; stroke-linecap: round; stroke-miterlimit: 10; stroke-width: 3px;"/>
                <path d="M885.21,579.82l-3.3-4.15c-1.46-1.84-2.94-3.7-4.85-5.08-1.95-1.41-4.24-2.23-6.4-3.28s-4.3-2.41-5.48-4.5c-1.33-2.33-1.03-5.31,1.16-6.96,2.5-1.89,4.85-.45,7.47.1,7.26,1.54,13.52,3.19,19.08,8.52,6.95,6.67,9.52,14.84,19.67,18.1" style="fill: none; stroke: #2e3138; stroke-linecap: round; stroke-miterlimit: 10; stroke-width: 3px;"/>
              </g>
            </g>
            <g id="kv-icon-1">
              <path d="M307.48,366.35c.5,1.15,1.56,3.47,2.78,3.62s4.04-1.75,5.2-2.26c3.62-1.61,7.21-3.28,10.77-5.02,1.66-.82,3.41-1.45,5.07-2.26,2.15-1.05,3.98-2.48,6.06-3.62.19-.11.4-.22.5-.42.11-.21.07-.47.02-.7-.25-1.21-.66-2.38-1.21-3.48-10,4.12-19.77,8.8-29.24,14.03.01.03.03.07.04.1Z" style="fill: #fff; stroke: #000; stroke-linecap: round; stroke-linejoin: round; stroke-width: 3px;"/>
              <path d="M326.15,418c-.2-1.28-.39-2.57-.59-3.85-.05-.31,23.39-10.83,25.53-11.62,4.22,6.73-1.7,7.45-7.23,9.42-5.88,2.1-11.78,4.12-17.71,6.06Z" style="fill: #fff; stroke: #000; stroke-linecap: round; stroke-linejoin: round; stroke-width: 3px;"/>
              <path d="M322.68,440.35c.59,1.45,1.17,2.89,1.76,4.34,17.42-3.94,29.9-7.75,47.73-13.93-.74-1.48-1.68-4.89-3.44-5.39-1.48-.42-4.72,1.91-6.1,2.49-4.34,1.81-8.85,3.19-13.38,4.45-2.16.6-26.84,7.37-26.57,8.04Z" style="fill: #fff; stroke: #000; stroke-linecap: round; stroke-linejoin: round; stroke-width: 3px;"/>
              <path d="M341.52,468.67c-1.17-1.4-2.34-2.81-3.51-4.21,11.04-5.91,22.4-11.23,34-15.95,1.03-.42.84,6.1-.22,7.19-2.15,2.2-6.67,3.43-9.45,4.69-6.81,3.09-13.76,5.85-20.83,8.28Z" style="fill: #fff; stroke: #000; stroke-linecap: round; stroke-linejoin: round; stroke-width: 3px;"/>
              <path d="M356.02,511.22c.53.96,1.05,1.92,1.58,2.87.16.29.34.61.65.74.38.17.82,0,1.21-.16,10.57-4.53,22.14-8.3,32.17-13.86-.14-5.9-13.24,2.45-16.07,3.63-6.37,2.66-12.9,4.93-19.54,6.78Z" style="fill: #fff; stroke: #000; stroke-linecap: round; stroke-linejoin: round; stroke-width: 3px;"/>
              <path d="M409.8,516.71c-2.28-9.85-8.13-18.89-16.36-24.76-5.55-3.95-11.98-6.42-18.29-8.98-17.51-7.1-39.54-16.68-47.01-35.58-7.29-18.44,1.41-40.77,8.02-58.11,3.74-9.82,8.18-19.58,9.23-30.04.61-6.08.03-12.26-1.67-18.13-.84-2.9-1.9-5.85-3.36-8.51-1.86-3.39-2.79-2.18-5.76-.4-5.58,3.34-1.78,7.87-.11,12.1,2.23,5.65,2.44,11.98,1.53,17.93-1.12,7.32-3.87,14.27-6.61,21.14-5.66,14.22-9.44,28.38-11.87,43.55-1.47,11.65-.87,24.2,5.49,34.07,5.82,9.03,15.67,14.62,25.59,18.74,9.92,4.12,20.37,7.18,29.52,12.81,6.5,4,12.19,9.28,16.73,15.41,2.31,3.12,3.69,7.16,6.05,10.12,1.85,2.33.46,2.39,3.57,1.89,1.81-.29,3.97-2.09,5.3-3.26Z" style="fill: #fff; stroke: #000; stroke-linecap: round; stroke-linejoin: round; stroke-width: 3px;"/>
              <path d="M313.21,384.31c10.23,6.65,22.09,10.53,32.19,17.39,16.08,10.94,27.03,28.31,24.87,48.11-1.86,17.03-9.38,32.36-15.27,48.24-2.38,6.42-4.58,12.97-5.27,19.78-.7,6.81.2,13.95,3.68,19.84,1.96-1.55,4.2-2.75,6.58-3.51-4.18-16.06.9-32.95,6.54-48.55,5.64-15.6,12.02-31.7,10.42-48.22-1.78-18.47-13.99-35.22-30.32-44.03-4.51-2.43-9.29-4.31-13.88-6.58-13.17-6.52-24.63-16.41-33.12-28.4-2.63-3.71-4.16-7.77-7.73-10.68.09.08-5.49,3.29-5.66,3.72-.61,1.52,1.51,4.64,2.21,5.92,1.96,3.56,4.42,6.81,6.83,10.07,4.92,6.63,11.01,12.4,17.93,16.9Z" style="fill: #fff; stroke: #000; stroke-linecap: round; stroke-linejoin: round; stroke-width: 3px;"/>
            </g>
            <path class="line" d="M157.28,643.64c-7.17-.32-14.38.29-21.4,1.81" style="fill: none; stroke: #2e3138; stroke-linecap: round; stroke-linejoin: round; stroke-width: 3px;"/>
            <path class="line" d="M159.12,664.83c-5.77,3.28-11.43,6.75-16.96,10.41" style="fill: none; stroke: #2e3138; stroke-linecap: round; stroke-linejoin: round; stroke-width: 3px;"/>
            <path class="line" d="M174.83,675.24l-8.25,15.77" style="fill: none; stroke: #2e3138; stroke-linecap: round; stroke-linejoin: round; stroke-width: 3px;"/>
          </g>
        </g>
      </g>
    </g>
  </g>
</svg>