<?xml version="1.0" encoding="UTF-8"?>
<svg xmlns="http://www.w3.org/2000/svg" viewBox="0 0 124.97 408.16">
  <g style="isolation: isolate;">
    <g id="_圖層_2" data-name="圖層 2">
      <g id="_圖層_1-2" data-name="圖層 1">
        <g>
          <ellipse cx="62.02" cy="384.07" rx="62.02" ry="24.09" style="fill: #e6e6e7; mix-blend-mode: multiply;"/>
          <path d="M106.26,206.64c-13.91,6.84-29.97,7.31-45.47,7.54-7.02.1-14.07.17-21.06-.62-3.52-.4-7.01-1.01-10.43-1.94-2.14-.59-6.31-3.89-6.71-.14-.08.73.12,1.44.57,2.02-1.53.64-16.14,1.53-16.13,1.91-.36-8.13-1-16.24-1.92-24.33-.68-6.02-2.29-12.61-1.86-18.69.56-7.87,1.21-15.73,1.88-23.59.7-8.14,1.43-16.27,2.21-24.4.3-3.13.61-6.26.94-9.39.54-5.11,2.33-10.16,5.04-14.53.13-.21.26-.41.39-.62.49-.75,1.01-1.49,1.64-2.14.89-.93,1.97-1.65,3.09-2.29,5.06-2.88,10.91-3.99,16.63-5.05,2.54-.47,5.08-.95,7.62-1.42.7-.13,1.41-.26,2.11-.12.69.14,1.37.62,1.52,1.32.24,1.14-2,2.44-2.81,2.96,2.99,1.23,6.02,2.36,9.08,3.39,2.86.96,5.62,2.18,8.63,1.95,4.05-.3,8.08-.95,12.02-1.92,1.91-.47,4.03-.9,5.83-1.72,1.3-.59,3.14-1.05,4.17-2.04.62-.59.87-1.68.96-2.47,4.66.05,9.26,1.2,13.61,2.8,2.23.82,4.4,1.77,6.53,2.82,2.07,1.02,4.29,1.58,6.46,2.36.53.19,1.08.39,1.52.75.56.45.91,1.11,1.32,1.71,1.46,2.17,3.67,3.6,5.03,5.82,1.33,2.17,2.08,4.65,2.73,7.1.69,2.58,1.33,5.17,1.64,7.82.24,1.99.3,3.99.35,6,.17,6.07.34,12.14.52,18.22.08,2.84.1,5.91-1.55,8.23-.5.71-1.5,1.39-1.8,2.2-.25.69-.04,1.72-.08,2.45-.12,2.4-.29,4.81-.52,7.2-.45,4.82-1.8,10.53-6.36,12.16-1.82.65-5.03.33-6.48,1.72-.83.79-.41,2.47-.38,3.61.03,1.5.06,2.99.08,4.49.11,6.08.23,12.15.34,18.23" style="fill: #1f89bd;"/>
          <path d="M75.9,148.15c.06.46.14.94.43,1.3.39.48,1.04.61,1.65.7,2.46.36,4.96.38,7.45.39,1.72.01,3.44.02,5.16.03.59,0,1.23-.02,1.66-.42.43-.4.48-1.05.51-1.64.26-5.49.26-10.99,0-16.48-4.81-.74-9.69-.99-14.55-.73-1.52.08-2.01.28-2.17,1.71-.19,1.67-.41,3.33-.51,5-.2,3.37-.08,6.77.37,10.12Z" style="fill: #ffad0f;"/>
          <polygon points="22.87 210.63 25.25 358.63 26.06 359.87 48.44 360.03 49.9 358.63 57.67 293.24 61.8 266.15 64.73 287.19 73.48 347.21 75.82 359.06 77.46 361.06 100.88 359.98 105.96 246.66 107.59 211.49 107.37 205.41 90.47 211.49 82.63 213.07 65.23 214.24 49.01 213.8 35.99 212.74 26.93 211.59 23.84 209.45 22.87 210.63" style="fill: #fff;"/>
          <path d="M33.88,26.98l-2.4,7.96c-1.19,3.96-2.39,7.93-3.12,12-.43,2.41-.69,4.85-.95,7.29-.46,4.43-.9,8.97.17,13.29.27,1.09.64,2.17,1.16,3.17,1.51,2.93,4.22,5.1,7.19,6.54,2.96,1.44,6.2,2.22,9.4,2.99.25,2.87.7,5.58.95,8.44.09,1.08.07,2.4-.86,2.95-.54.32-1.44.54-1.28,1.15.05.19.21.33.36.46,4.31,3.54,10.04,5.06,15.62,5.02,1.2,0,2.41-.08,3.59-.34,1.25-.28,2.44-.76,3.66-1.16,5.42-1.81,11.33-2.14,16.43-4.72-.51-5.34-1.03-10.71-.67-16.07.18-2.72-.43-5.44,0-8.14,2.05-.71,3.7-1.41,5.52-2.59.96-.62,1.91-1.34,2.43-2.35.84-1.66.24-3.79-1.09-5.08-1.33-1.29-3.26-1.82-5.11-1.84-1.86-.01-3.68.44-5.48.89-.39.1-.78.19-1.18.13-.36-.06-.69-.26-1-.46-5.2-3.34-9.11-8.66-10.75-14.62-.7-2.55-1-5.22-1.91-7.7-.99-2.72-2.73-5.4-2.31-8.27-2.51.86-5.03,1.72-7.54,2.58-1.65.56-3.32,1.13-5.04,1.39-1.78.27-3.59.2-5.37,0-3.64-.41-7.07-1.42-10.42-2.89Z" style="fill: #fff;"/>
          <path d="M16.17,391.41c3.63,1.46,7.68,1.36,11.59,1.23,2.28-.08,4.7-.2,6.57-1.5,1.01-.7,1.77-1.68,2.52-2.65,1.88-2.43,3.75-4.86,5.63-7.28,1.42-1.83,2.89-3.81,3.07-6.11-1.41-.19-2.63.94-3.58,1.99-1.9,2.1-3.69,4.29-5.38,6.57-.97,1.3-1.96,2.69-3.44,3.37-1.23.57-2.65.56-4,.54-2.71-.04-5.43-.08-8.14-.12-2.02-.03-4.08-.06-6.02-.62-1.2-.34-5.88-3.7-4.57-.53.97,2.35,3.49,4.2,5.76,5.12Z" style="fill: #4b4c4e;"/>
          <path d="M20.57,367.02c-.46.66-.95,1.32-1.6,1.78-.74.52-1.64.76-2.46,1.14-2.31,1.08-3.95,3.28-4.85,5.67s-1.14,4.96-1.28,7.51c-.02.44-.04.91.2,1.28.23.36.65.54,1.04.7,3.46,1.41,7.04,2.61,10.74,3.06,5.73.69,12.07-.73,15.82-5.12,1.11-1.3,1.95-2.81,2.96-4.19.82-1.12,1.74-2.15,2.59-3.25,3.23-4.13,5.41-9.08,6.29-14.25.04-.26.08-.54-.02-.78-.23-.55-.98-.59-1.58-.54-5.83.46-11.68.58-17.53.36-1.82-.07-5.3-1.05-6.69.29-1.52,1.46-2.41,4.55-3.65,6.34Z" style="fill: #9e9e9f;"/>
          <path d="M110.29,392.09c-3.63,1.46-7.68,1.36-11.59,1.23-1.8-.06-3.67-.13-5.35-.83-1.85-.77-3.23-1.65-4.52-3.14-2.01-2.33-3.75-5.51-5.48-8.05-.64-.95-1.25-1.92-1.85-2.89-.49-.79-.99-1.6-1.18-2.52.86-.05,1.45-.19,2.26.24.74.4,1.35,1.02,1.91,1.63,1.9,2.1,3.69,4.29,5.38,6.57.97,1.3,1.96,2.69,3.44,3.37,1.23.57,2.65.56,4,.54,2.71-.04,5.43-.08,8.14-.12,2.02-.03,4.08-.06,6.02-.62,1.2-.34,5.88-3.7,4.57-.53-.97,2.35-3.49,4.2-5.76,5.12Z" style="fill: #4b4c4e;"/>
          <path d="M105.33,368.05c.46.66.95,1.32,1.6,1.78.74.52,1.64.76,2.46,1.14,1.56.73,2.82,1.99,3.74,3.43.45.71.69,1.51,1.1,2.22.49.86,1.19,1.48,1.38,2.51.09.47.07.94.05,1.42-.05,1.19-.1,2.38-.15,3.57-.05,1.14-.11,1.55-1.23,2.01-3.46,1.41-7.04,2.61-10.74,3.06-5.73.69-12.07-.73-15.82-5.12-1.11-1.3-1.95-2.81-2.96-4.19-.82-1.12-1.74-2.15-2.59-3.25-3.23-4.13-5.41-9.08-6.29-14.25-.04-.26-.08-.54.02-.78.23-.55.98-.59,1.58-.54,5.83.46,11.68.58,17.53.36,1.82-.07,5.3-1.05,6.69.29,1.52,1.46,2.41,4.55,3.65,6.34Z" style="fill: #9e9e9f;"/>
          <path d="M43.84,5.89c-1.08-1.62-1.6-3.9-3.43-4.56-1.18-.43-2.5.02-3.56.71-1.43.93-2.57,2.29-3.24,3.86-2.02-1.32-4.72-1.53-6.92-.53-2.2,1-3.82,3.16-4.16,5.55-.55,3.86,2.02,7.41,4.62,10.31,3.35,3.73,7.34,5.94,12.18,7.27,3.83,1.05,7.86,1.34,11.8.81,3.76-.51,7.63-1.11,11.04-2.89,1.28,11.37,6.7,22.23,15.01,30.09.44.42.93.85,1.53.98.51.11,1.04-.02,1.55-.14,1.83-.45,3.65-.89,5.48-1.34.75-.18,1.54-.39,2.09-.93.47-.47.7-1.13.9-1.76,1.89-5.85,3.3-11.92,3.42-18.09.03-1.87-.05-3.74-.29-5.6-.21-1.65-.1-3.3-.41-4.95-.62-3.32-2.08-6.47-4.13-9.14-.63-.81-1.31-1.59-2.11-2.24-.53-.43-1.1-.81-1.66-1.19-3.14-2.08-6.14-4.15-9.89-4.93-2.45-.51-4.97-.53-7.47-.43-4.5.19-8.97.78-13.41,1.53-3.45.59-6.68,1-8.93-2.39Z" style="fill: #4b4c4e;"/>
          <circle cx="36.34" cy="47.13" r="2.29" style="fill: #2e3138;"/>
          <path d="M59.1,49.57c0,1.26-1.02,2.29-2.29,2.29s-2.29-1.02-2.29-2.29,1.02-2.29,2.29-2.29,2.29,1.02,2.29,2.29Z" style="fill: #2e3138;"/>
          <path d="M79.29,57.95c-5.59-2.89-9.55-8.28-11.94-14.09s-3.39-12.09-4.37-18.3c-8.71,5-19.85,5.49-28.96,1.27-5.83-2.7-11.16-8-11.19-14.43-.02-2.8,1.15-5.75,3.54-7.22,2.39-1.46,6.02-.86,7.31,1.62.21-1.97,1.1-3.99,2.8-5.01,1.7-1.03,4.26-.67,5.22,1.07.37.68.47,1.47.74,2.2.92,2.52,3.74,3.94,6.42,4.04,2.68.1,5.28-.86,7.79-1.8,0,0,23.85-5.15,32.42,10.78,8.57,15.94-1.46,36.88-1.46,36.88" style="fill: none; stroke: #2e3138; stroke-linecap: round; stroke-miterlimit: 10; stroke-width: 2.44px;"/>
          <path d="M79.43,58.65c2.29-2.38,6.01-3.26,9.12-2.17,2,.7,3.87,2.49,3.73,4.61-.1,1.46-1.11,2.7-2.22,3.64-2.72,2.32-6.57,3.52-9.97,2.43" style="fill: none; stroke: #2e3138; stroke-linecap: round; stroke-miterlimit: 10; stroke-width: 2.44px;"/>
          <path d="M34.02,26.83s-23.17,53.32,12.28,53.21" style="fill: none; stroke: #2e3138; stroke-linecap: round; stroke-miterlimit: 10; stroke-width: 2.44px;"/>
          <line x1="82.47" y1="68.57" x2="83.35" y2="91.17" style="fill: none; stroke: #2e3138; stroke-linecap: round; stroke-miterlimit: 10; stroke-width: 2.44px;"/>
          <path d="M45.19,80.32c.49,3.84.98,7.69,1.47,11.53" style="fill: none; stroke: #2e3138; stroke-linecap: round; stroke-miterlimit: 10; stroke-width: 2.44px;"/>
          <path d="M45.25,44.06c-.28,2.52-1.22,4.97-2.7,7.03-.46.64-1,1.29-1.11,2.08-.07.48.03.97.21,1.42.77,1.89,3.22,2.87,5.09,2.05" style="fill: none; stroke: #2e3138; stroke-linecap: round; stroke-miterlimit: 10; stroke-width: 2.44px;"/>
          <path d="M52.84,43.03c2.8.02,5.59.86,7.94,2.39" style="fill: none; stroke: #2e3138; stroke-linecap: round; stroke-miterlimit: 10; stroke-width: 2.44px;"/>
          <path d="M41.2,41.93c-2.75-.72-5.7-.66-8.42.17" style="fill: none; stroke: #2e3138; stroke-linecap: round; stroke-miterlimit: 10; stroke-width: 2.44px;"/>
          <path d="M39.04,64.79c2.49,1.38,5.5,1.79,8.27,1.13" style="fill: none; stroke: #2e3138; stroke-linecap: round; stroke-miterlimit: 10; stroke-width: 2.44px;"/>
          <path d="M41.33,69.19c.83.12,1.65.25,2.48.37" style="fill: none; stroke: #2e3138; stroke-linecap: round; stroke-miterlimit: 10; stroke-width: 2.44px;"/>
          <path d="M50.41,63.64c.92.46,1.47,1.57,1.28,2.58" style="fill: none; stroke: #2e3138; stroke-linecap: round; stroke-miterlimit: 10; stroke-width: 2.44px;"/>
          <path d="M34.91,62.11c-.3.16-.59.33-.89.49l-.04,1.11" style="fill: none; stroke: #2e3138; stroke-linecap: round; stroke-miterlimit: 10; stroke-width: 2.44px;"/>
          <path d="M46.26,91.59c-1.06.06-4.05.76-2.76,1.4,3.96,2.34,14.37,5.79,15.23,5.73.84-.05,17.44-3.08,24.53-5.74.58-.22,1.21-.51,1.41-1.09.2-.58-.47-1.35-.97-1" style="fill: none; stroke: #2e3138; stroke-linecap: round; stroke-miterlimit: 10; stroke-width: 2.44px;"/>
          <path d="M83.74,60.52c.31-.46.94-.56,1.5-.62.13-.01.26-.03.39,0,.25.06.44.27.55.49.35.69.14,1.61-.47,2.07" style="fill: none; stroke: #2e3138; stroke-linecap: round; stroke-miterlimit: 10; stroke-width: 2.44px;"/>
          <path d="M39.05,12.3c2.78,2.25,6.24,3.63,9.81,3.9" style="fill: none; stroke: #2e3138; stroke-linecap: round; stroke-miterlimit: 10; stroke-width: 2.44px;"/>
          <path d="M29.01,12.9c.18,2.91,1.66,5.71,3.95,7.51" style="fill: none; stroke: #2e3138; stroke-linecap: round; stroke-miterlimit: 10; stroke-width: 2.44px;"/>
          <path d="M74.03,30.82c.38,2.76,1.7,5.38,3.69,7.33" style="fill: none; stroke: #2e3138; stroke-linecap: round; stroke-miterlimit: 10; stroke-width: 2.44px;"/>
          <path d="M86.62,35.33c.56.37.61,1.16.6,1.83-.03,1.48-.09,2.98-.45,4.41-.45,1.79-1.36,3.48-1.38,5.33" style="fill: none; stroke: #2e3138; stroke-linecap: round; stroke-miterlimit: 10; stroke-width: 2.44px;"/>
          <path d="M21.44,121.4c-4.09,23.06-1.08,64.18,1.39,87.48,10.45,6.23,22.76,3.31,34.84,4.77,14.69,1.77,33.21-.82,49.7-8.24" style="fill: none; stroke: #2e3138; stroke-linecap: round; stroke-miterlimit: 10; stroke-width: 2.44px;"/>
          <path d="M93.04,132.08c.11,5.87.13,11.75.06,17.62,0,.26-.01.55-.18.75-.22.27-.61.29-.96.29h-14.44c-1.16-.01-2.1-.97-2.08-2.13l.27-16.97c5.79-.09,11.56.3,17.34.43Z" style="fill: none; stroke: #2e3138; stroke-linecap: round; stroke-miterlimit: 10; stroke-width: 2.44px;"/>
          <path d="M75.92,135.35c5.67.58,11.37.78,17.06.58" style="fill: none; stroke: #2e3138; stroke-linecap: round; stroke-miterlimit: 10; stroke-width: 2.44px;"/>
          <path d="M22.83,208.88s2.42,110.58,2.42,150.93c0,0,15.91,1.3,24.29,0l11.77-96.37" style="fill: none; stroke: #2e3138; stroke-linecap: round; stroke-miterlimit: 10; stroke-width: 2.44px;"/>
          <path d="M57.67,239.25c2.82,12.48,16.02,120.33,18.88,121.52h24.29l4.29-105.03c3.49-35.58,2.24-50.33,2.24-50.33,0-3.13.22-6.48-.86-25.6" style="fill: none; stroke: #2e3138; stroke-linecap: round; stroke-miterlimit: 10; stroke-width: 2.44px;"/>
          <path d="M49.54,359.81c1.45,8.76-3.25,12.78-5.01,15.27-1.3,1.83-2.59,3.66-3.89,5.5-1.1,1.55-2.29,3.38-3.72,4.66-1.19,1.06-2.69,2-4.23,2.44-.69.2-4.65.74-5.58.82-3.41.31-6.31.06-9.64-.82-1.51-.4-2.98-.97-4.36-1.71-1.16-.63-2.31-1.45-2.86-2.66-.49-1.07-.43-2.31-.26-3.47.42-2.82,1.5-5.57,3.34-7.74,1.84-2.17,4.48-3.72,7.32-3.98" style="fill: none; stroke: #2e3138; stroke-linecap: round; stroke-miterlimit: 10; stroke-width: 2.44px;"/>
          <path d="M19.03,368.02c2.59-2.9,3.45-5.48,6.22-8.21" style="fill: none; stroke: #2e3138; stroke-linecap: round; stroke-miterlimit: 10; stroke-width: 2.44px;"/>
          <path d="M10.1,379.18c-.75,2.6-1.88,7.5,2.91,10.87,2.22,1.56,5.02,2,7.72,2.22,2.2.18,4.42.21,6.63.11,1.98-.1,3.98-.19,5.85-.94,3.4-1.36,5.2-4.29,7.22-7.17,2.2-3.12,4.29-6.32,6.28-9.59,1.71-2.82,3.63-7.5,3.1-10.76" style="fill: none; stroke: #2e3138; stroke-linecap: round; stroke-miterlimit: 10; stroke-width: 2.44px;"/>
          <path d="M33.83,361.63c-2.27,2.21-4.12,4.85-5.43,7.73" style="fill: none; stroke: #2e3138; stroke-linecap: round; stroke-miterlimit: 10; stroke-width: 2.44px;"/>
          <path d="M29.45,362.8c2.04-.22,4.29-.38,5.95.83" style="fill: none; stroke: #2e3138; stroke-linecap: round; stroke-miterlimit: 10; stroke-width: 2.44px;"/>
          <path d="M27.49,364.87c2.05-.41,4.27.16,5.86,1.51" style="fill: none; stroke: #2e3138; stroke-linecap: round; stroke-miterlimit: 10; stroke-width: 2.44px;"/>
          <path d="M25.97,367.86c1.59-.12,3.2-.02,4.77.31.77.16,1.61.45,1.95,1.15" style="fill: none; stroke: #2e3138; stroke-linecap: round; stroke-miterlimit: 10; stroke-width: 2.44px;"/>
          <path d="M76.55,360.77c-1.45,8.76,3.25,12.78,5.01,15.27,1.3,1.83,2.59,3.66,3.89,5.5,1.1,1.55,2.29,3.38,3.72,4.66,1.19,1.06,2.69,2,4.23,2.44.69.2,4.65.74,5.58.82,3.41.31,6.31.06,9.64-.82,1.51-.4,2.98-.97,4.36-1.71,1.16-.63,2.31-1.45,2.86-2.66.49-1.07.43-2.31.26-3.47-.42-2.82-1.5-5.57-3.34-7.74-1.84-2.17-4.48-3.72-7.32-3.98" style="fill: none; stroke: #2e3138; stroke-linecap: round; stroke-miterlimit: 10; stroke-width: 2.44px;"/>
          <path d="M107.06,368.99c-2.59-2.9-3.45-5.48-6.22-8.21" style="fill: none; stroke: #2e3138; stroke-linecap: round; stroke-miterlimit: 10; stroke-width: 2.44px;"/>
          <path d="M115.99,380.15c.75,2.6,1.88,7.5-2.91,10.86-2.22,1.56-5.02,2-7.72,2.22-2.2.18-4.42.21-6.63.11-1.98-.1-3.98-.19-5.85-.94-3.4-1.36-5.2-4.29-7.22-7.17-2.2-3.12-4.29-6.32-6.28-9.59-1.71-2.82-3.63-7.5-3.1-10.76" style="fill: none; stroke: #2e3138; stroke-linecap: round; stroke-miterlimit: 10; stroke-width: 2.44px;"/>
          <path d="M92.27,362.6c2.27,2.21,4.12,4.85,5.43,7.73" style="fill: none; stroke: #2e3138; stroke-linecap: round; stroke-miterlimit: 10; stroke-width: 2.44px;"/>
          <path d="M96.64,363.76c-2.04-.22-4.29-.38-5.95.83" style="fill: none; stroke: #2e3138; stroke-linecap: round; stroke-miterlimit: 10; stroke-width: 2.44px;"/>
          <path d="M98.6,365.83c-2.05-.41-4.27.16-5.86,1.51" style="fill: none; stroke: #2e3138; stroke-linecap: round; stroke-miterlimit: 10; stroke-width: 2.44px;"/>
          <path d="M100.12,368.83c-1.59-.12-3.2-.02-4.77.31-.77.16-1.61.45-1.95,1.15" style="fill: none; stroke: #2e3138; stroke-linecap: round; stroke-miterlimit: 10; stroke-width: 2.44px;"/>
          <path d="M98.78,223.54c.7,5.55,1.4,11.09,2.1,16.64.37,2.96,1.29,6.57,4.2,7.26" style="fill: none; stroke: #2e3138; stroke-linecap: round; stroke-linejoin: round; stroke-width: 2.44px;"/>
          <g>
            <path d="M80.91,108.36c.66,1.48.53,3.3-.02,4.84-.97,2.71-3.12,4.7-5.48,5.84-2.36,1.13-4.94,1.51-7.49,1.78,1.2,1.57,2.35,3.2,3.44,4.88,5.4-.16,10.39-5.14,11.26-11.24.27-1.91.16-3.96-.68-5.64-.62-1.24-1.83-2.54-3.13-2.46.87.36,1.67,1.04,2.1,2Z" style="fill: #fff; stroke: #000; stroke-linecap: round; stroke-linejoin: round; stroke-width: 2.44px;"/>
            <path d="M80.93,107.59s-3.08-1.12-3.41,1.48c-.21,1.62.08,3.26.86,4.63,1.59,2.79,4.15,4.75,6.9,5.85,2.75,1.1,5.7,1.4,8.61,1.39-1.73,1.83-3.45,3.65-5.18,5.48-.18.19-.36.38-.59.48-.39.17-.82.04-1.21-.11-3.39-1.26-6.5-3.72-8.35-7.2-1.85-3.48-3.71-7.95-2.21-11.65,0,0,1.47-3.32,4.58-.36Z" style="fill: #fff; stroke: #000; stroke-linecap: round; stroke-linejoin: round; stroke-width: 2.44px;"/>
          </g>
          <path d="M98.23,146.11c.13-5.43.27-10.86.4-16.29" style="fill: none; stroke: #2e3138; stroke-linecap: round; stroke-miterlimit: 10; stroke-width: 2.44px;"/>
          <path d="M46.29,88.67s-30.14,2.82-34.06,12.39c-1.97,4.81-2.72,10.3-3.61,15.39-1.5,8.6-2.61,17.27-3.45,25.96-1.85,19.21-1.55,38.08.57,57.18.59,5.3,1.06,10.62,1.4,15.94,5.14,0,10.28-.59,15.29-1.74" style="fill: none; stroke: #2e3138; stroke-linecap: round; stroke-miterlimit: 10; stroke-width: 2.44px;"/>
          <g>
            <path d="M67.5,139.51c-.54-1.65-.9-3.34-1.46-4.98-1.19-3.5-3.23-6.71-5.91-9.26-.45-.43-1.01-.87-1.63-.78-.53.08-.93.56-1.08,1.08-.15.51-.09,1.06-.03,1.6.32,2.52.9,5.02,1.73,7.42-3.75-3.46-4.77-9.17-8.54-12.61-.59-.54-1.36-1.05-2.14-.87-.93.21-1.39,1.24-1.73,2.13-.18.49-.54,1.07-1.05.97-.17-.03-.32-.14-.47-.23-.88-.52-2.1-.38-2.83.33-.73.71-.9,1.93-.4,2.82-.79-.12-1.67-.21-2.31.26-.87.62-.88,1.93-.54,2.95.34,1.02.95,1.96,1.03,3.03-.56.51-1.56.4-2,1.02-.34.46-.19,1.11-.01,1.65,1.96,6.12,5.79,11.92,11.52,14.83,1.64.83,3.39,1.41,5.14,1.98,3.53,1.16,7.07,2.32,10.6,3.47.25.08.51.16.77.12.16-.03.31-.11.45-.2,2.08-1.27,2.96-3.8,3.68-6.12.31-1,.72-2.11.71-3.17,0-.89-.41-1.16-.9-1.84-1.16-1.65-1.98-3.67-2.6-5.58Z" style="fill: #fff;"/>
            <path d="M72.51,143.09c-1.13,2.64-2.26,5.27-3.39,7.91-.46,1.08-.93,2.16-1.62,3.1-.98,1.33-2.37,2.3-3.75,3.22,13.6,8.12,27.26,16.28,41.92,22.28,1.86.76,3.76,1.49,5.75,1.67s4.13-.26,5.62-1.6c2.53-2.27,2.6-6.16,3.39-9.23.94-3.65,2.37-7.78,2.53-11.56.04-.89-1.16-6.74,1.08-5.96-5.88-2.02-12.46-.68-18.45-2.36-2.67-.75-5.2-1.98-7.81-2.92-2.18-.78-4.54-1.23-6.78-1.91-2.89-.88-5.83-1.66-8.81-2.16-1.6-.27-3.21-.46-4.83-.55-.55-.03-4.67-.38-4.86.07Z" style="fill: #1f89bd;"/>
            <path d="M84.95,90.15c5.46,1.59,10.93,3.19,16.39,4.78,6.94,2.02,14.14,5.1,17.54,11.88,1.87,3.73,2.68,7.89,3.29,12.02,2.75,18.53,1.93,37.62-2.74,55.77-.67,2.6-1.83,5.6-4.44,6.25-3.81.94-13.46-2.25-16.77-3.83-5.23-2.5-7.37-4.1-12.6-6.6-10.47-5.01-12.71-8.02-23.18-13.03" style="fill: none; stroke: #2e3138; stroke-linecap: round; stroke-miterlimit: 10; stroke-width: 2.44px;"/>
            <g>
              <path d="M70.39,145.3c-1.02-2.25-1.93-4.54-2.71-6.88-.39-1.16-.74-2.33-1.08-3.51-.31-1.1-1.05-2.04-1.71-2.98-1.2-1.72-2.39-3.43-3.59-5.15-.51-.73-1.02-1.46-1.61-2.13-.37-.42-.91-.85-1.44-.65-.25.09-.43.3-.57.52-.74,1.11-.76,2.53-.4,3.78.21.72.58,1.38.9,2.05.62,1.29,1.07,2.66,1.51,4.02" style="fill: none; stroke: #2e3138; stroke-linecap: round; stroke-miterlimit: 10; stroke-width: 2.44px;"/>
              <path d="M60.38,135.18c-2.7-2.61-3.84-4.14-5.92-7.23-1.43-2.12-3.11-6.88-6.13-6.99-.2,0-.41.01-.6.08-.55.2-.89.76-1.07,1.32-.99,3.12,2.36,6.76,4.07,9.07,2.3,3.11,2.07,3.35,4.88,6.01" style="fill: none; stroke: #2e3138; stroke-linecap: round; stroke-miterlimit: 10; stroke-width: 2.44px;"/>
              <path d="M49.23,129.49c-.7-1.34-1.92-2.93-2.87-4.11-.47-.58-.98-1.16-1.62-1.54-.64-.39-1.44-.57-2.15-.33-.25.08-.48.22-.64.42-.36.45-.29,1.09-.19,1.65.13.72.29,1.45.47,2.16.15.58.43,1.02.71,1.55.88,1.67,1.81,3.5,2.88,5.04,1.09,1.58,2.59,2.83,4.05,4.06.78.65,1.55,1.3,2.33,1.94" style="fill: none; stroke: #2e3138; stroke-linecap: round; stroke-miterlimit: 10; stroke-width: 2.44px;"/>
              <path d="M42.94,129.29c-.58-.68-1.35-1.89-2.21-2.12-.33-.09-.69-.1-1.03-.04-.25.05-.49.14-.67.31-.2.18-.32.42-.38.68-.15.69.15,1.39.44,2.04.77,1.71,1.51,3.42,2.22,5.15.33.79.59,1.66,1.01,2.41.42.74.96,1.43,1.48,2.09,1.31,1.65,3.11,3.3,5.04,4" style="fill: none; stroke: #2e3138; stroke-linecap: round; stroke-miterlimit: 10; stroke-width: 2.44px;"/>
              <path d="M41.93,136.88c-.32-.88-.97-2.14-1.7-2.73-.57-.46-1.46-.77-1.98-.26-.31.31-.35.79-.34,1.23.08,3.27,1.85,6.12,3.56,8.79,1.15,1.81,2.71,3.31,4.39,4.62.71.55,1.46,1.27,2.23,1.73,1.03.61,2.45.89,3.59,1.28,5.01,1.76,8.96,3.15,13.97,4.91" style="fill: none; stroke: #2e3138; stroke-linecap: round; stroke-miterlimit: 10; stroke-width: 2.44px;"/>
            </g>
            <path d="M62.46,157.39c6.34-.11,7.61-8.48,9.48-13.68.08-.23.19-.46.39-.6.2-.14.46-.15.7-.15,1.64-.03,3.29.02,4.92.21,2.4.28,4.75.86,7.1,1.44,6.08,1.5,12.2,3,17.94,5.5" style="fill: none; stroke: #2e3138; stroke-linecap: round; stroke-miterlimit: 10; stroke-width: 2.44px;"/>
          </g>
          <g>
            <path d="M11.41,217.03c.04,2.29.08,4.58.11,6.88.02,1.15.04,2.31.25,3.45.25,1.34.76,2.62,1.27,3.89.75,1.87,1.51,3.74,2.26,5.61.63,1.57,1.17,4.43,2.36,5.65,2.96,3.04,2.37-5.08,2.09-6.28q-.46-1.94-.91-3.87" style="fill: none; stroke: #2e3138; stroke-linecap: round; stroke-miterlimit: 10; stroke-width: 2.44px;"/>
            <path d="M19.56,242.28c.32.41.95.47,1.42.24.47-.22.8-.66,1.03-1.13.65-1.29.68-2.79.7-4.23.01-.96.02-1.92.04-2.88.02-1.43-.01-3-.96-4.06" style="fill: none; stroke: #2e3138; stroke-linecap: round; stroke-miterlimit: 10; stroke-width: 2.44px;"/>
            <path d="M13.72,223.46c-.17,3.17.63,6.4,2.27,9.12.23.38.52.79.96.88.45.1.9-.17,1.22-.5.94-.98,1.13-2.47,1.02-3.82-.11-1.36-.48-2.69-.43-4.05.1-3.31,2.57-6.44,1.79-9.65" style="fill: none; stroke: #2e3138; stroke-linecap: round; stroke-miterlimit: 10; stroke-width: 2.44px;"/>
          </g>
        </g>
      </g>
    </g>
  </g>
</svg>