<?xml version="1.0" encoding="UTF-8"?>
<svg id="_圖層_2" data-name="圖層 2" xmlns="http://www.w3.org/2000/svg" viewBox="0 0 260.07 386.5">
  <g id="_圖層_1-2" data-name="圖層 1">
    <g>
      <path d="M59.02,368.2c.85,2.78,1.69,5.57,2.27,8.41.39,1.91.55,4.19-.88,5.53-.97.92-2.41,1.1-3.74,1.23-2.5.25-5.14.73-7.65.56-2.66-.18-5.37-.07-8.04.04-5.36.22-10.71.75-16.07,1.02-.91.05-1.82.08-2.73.11-2.85.09-5.69.07-8.54.23-2.57.14-5.38,1.05-7.84-.03-2.35-1.02-3.64-3.7-3.72-6.26s.85-5.04,1.89-7.38c.68-1.53,1.43-3.07,2.65-4.22,1.05-.99,2.36-1.74,3.73-2.19,1.35-.44,2.65-.99,3.99-1.5,2.92-1.12,5.96-1.94,9.05-2.47,1.93-.33,4.05-.21,5.9-.75,2.07-.6,4.13-1.29,6.04-2.3,1.98-1.05,3.7-3.42,6.05-3.52.71-.03,1.41.22,2.08.47,3.55,1.34,7.03,2.88,10.41,4.61,1.44.74,2.63,1.15,3.38,2.53.9,1.66,1.23,4.05,1.78,5.86Z" style="fill: #fff;"/>
      <path d="M251.7,366.91c1.85,1.33,3.73,2.69,5.11,4.52,1.37,1.82,2.19,4.21,1.6,6.42-.63,2.39-2.79,4.14-5.12,4.95-2.34.81-4.86.84-7.33.86-4.56.03-9.12.07-13.67.1-1.91.01-3.97-.02-5.5-1.15-2.54-1.88-2.38-5.66-1.97-8.79.4-3.03.8-6.05,1.2-9.08.06-.42.12-.87.37-1.21.3-.42.82-.62,1.31-.8,2.19-.8,4.41-1.52,6.65-2.17,1.69-.49,4.74-1.91,6.47-1.46,1.66.44,3.73,2.68,5.14,3.69,1.92,1.38,3.84,2.76,5.76,4.14Z" style="fill: #fff;"/>
      <path d="M180.16,179.61c7.27,4.16,12.2,11.37,15.58,18.86,4.1,9.08,7.59,18.35,10.91,27.76.93,2.63,1.86,5.27,2.79,7.9,2.72,7.72,4.44,15.62,5.96,23.66,1.55,8.2,3.6,16.3,6.14,24.24,3.45,10.81,5.35,21.82,7.72,32.92.59,2.77,1.18,5.55,2.06,8.25.67,2.07,2.49,4.94,2.49,7.08,1.17,3.39,2.35,6.8,2.95,10.33.4,2.32.55,4.7,1.24,6.95.48,1.58,1.22,3.07,1.66,4.66.46,1.66.59,3.39.72,5.11.2,2.67-1.52,3.05-3.72,3.72-2.39.73-4.83,1.34-7.29,1.81-.69.13-1.41.25-2.07.02-.71-.25-1.22-.85-1.7-1.42-1.85-2.24-3.86-4.47-5.87-6.55-1.8-1.87-2.18-4.17-3.15-6.54-1.14-2.75-3.15-5.04-4.86-7.48-4.35-6.18-7.75-14.15-9.27-21.56-.76-3.7-2.77-7.32-4.07-10.91-1.43-3.92-2.73-7.89-4.09-11.83-1.06-3.09-2.33-6.11-3.58-9.13-1.2-2.91-2.52-5.31-3.59-8.28-.43-1.19-.65-2.11-1.36-3.15-.5-.75-.8-2.43-1.31-3.17-.54-.78-.95-1.65-1.35-2.52-1.34-2.86-3.48-5.25-5.4-7.77-.98-1.29-1.96-2.58-2.94-3.87-.49-.64-.98-1.29-1.47-1.93-.28-.37-1.28-2.09-1.28-2.53-2.42-3.18-5.04-5.78-6.9-9.31-1.17-2.21-2.11-4.56-3.58-6.58-.18-.25-.4-.51-.7-.56-.36-.06-.7.19-.97.44-2.25,2.04-3.76,4.74-5.88,6.97-2.39,2.51-4.71,5.07-6.96,7.7-4.51,5.25-8.75,10.73-12.7,16.41-4.11,5.9-7.95,12.08-13.14,17.05-15.93,15.23-26.97,35.71-42.47,51.39-7.47,7.55-11.59,14.76-18.83,23.17-6.11-1.58-14.51-3.38-19.19-7.62,15.66-26.48,31.06-53.72,48.83-78.83,13.28-18.77,22.94-38.63,36.84-56.95.61-.81,1.24-1.63,2.06-2.24.91-.68,2-1.05,3.07-1.45,9.21-3.4,17.54-8.78,25.78-14.11,3.1-2.01,6.22-4.02,8.99-6.47,3.49-3.08,6.36-6.77,9.21-10.45,1.18-1.53,3.14-2.07,4.7-3.2Z" style="fill: #ffad0f;"/>
      <path d="M120.86,98.42c.74-2.85,1.49-5.71,2.58-8.44,1.51-3.79,3.67-7.29,5.46-10.96,2.07-4.23,3.29-8.82,5.34-13.03,2.26-4.63,4.73-9.16,7.09-13.74,1.31-2.54,2.63-5.09,3.94-7.63.59-1.14,1.77-5.1,3.23-5.26.32-.04.63.1.92.23,2.99,1.36,5.99,2.72,8.98,4.08.67.31,1.37.63,1.86,1.19,1.11,1.28.72,3.22.28,4.85-6.41,23.86-10.75,48.27-12.96,72.87-.07.75-.13,1.52.14,2.22.32.82,1.03,1.4,1.69,1.97,1.88,1.64,3.53,3.56,4.88,5.67,1.38,2.16,3.08,4.12,4.34,6.38.85,1.51,1.49,3.12,2.29,4.65,1.32,2.53,3.05,4.81,4.77,7.08,1.28,1.69,2.12,3.32,2.97,5.23.77,1.72,2.16,3.32,3.14,4.95,1.77,2.96,3.53,5.94,4.93,9.1.7,1.59,1.32,3.22,1.77,4.9.31,1.14,1.21,3.63.75,4.78-3.18,3.2-6.35,6.41-9.53,9.61-1.3,1.31-2.61,2.63-3.98,3.86-3.97,3.55-8.53,6.37-13.12,9.08-7.86,4.64-15.9,8.97-23.93,13.31-.38.2-.77.41-1.19.43-1.44.06-1.66-1.46-2.22-2.4-.73-1.21-2.21-2.28-3.22-3.29-2.35-2.35-4.69-4.72-6.98-7.13-4.58-4.8-8.99-9.78-12.96-15.1-.59-.78-1.19-1.54-1.82-2.3-1.39,1.17-2.17,2.91-2.62,4.67-.45,1.76-.62,3.58-1.02,5.35-.53,2.32-1.46,4.52-2.25,6.76-.39,1.11-.78,2.24-1.02,3.4-.2.99-.06,1.95-.25,2.95-.37,1.97-.74,3.93-1.11,5.9-.35,1.87-1,3.39-1.66,5.16-1.39,3.73-2.5,7.57-3.33,11.47-.51,2.41-.91,4.84-1.53,7.23-.45,1.75-1.02,3.46-1.7,5.14-.45,1.1-1.09,3.62-2.26,4.1-.95.39-2.02-.04-2.96-.46-2.97-1.34-5.91-2.73-8.83-4.17-1.43-.71-3.01-1.61-3.37-3.17-.12-.53-.08-1.07-.04-1.61.32-4.25,1.57-8.48,2.51-12.66,1.88-8.38,3.75-16.77,5.58-25.16,1.53-6.99,2.06-14.06,3.77-20.99,1.63-6.59,3.68-13.08,6.13-19.41.49-1.27,1-2.53,1.52-3.78,1.81-4.34,3.83-8.66,4.6-13.3,1.16.33,1.21,1.95.95,3.13s-.43,2.73.64,3.29c.35.18.76.2,1.16.21,4.95.03,9.79-2.02,13.57-5.2,3.79-3.18,6.58-7.44,8.52-11.99.22-.52.44-1.08.36-1.63-.07-.49-.36-.92-.66-1.32-1.26-1.65-2.87-3.03-4.71-4,.81-1.6,1.93-3.04,3.28-4.21,1.36-1.18,2.76-2.79,3.2-4.54.19-.76.27-1.58.68-2.25.52-.84,1.47-1.3,2.24-1.93,1.98-1.61,2.69-4.4,2.44-6.94-.26-2.54-.21-4.87-1.28-7.19Z" style="fill: #1f89bd;"/>
      <path d="M145.83,25.18c-.62-1.99-1.44-3.93-1.82-5.99-.39-2.05-.3-4.29.79-6.07,1.01-1.65,2.94-1.22,3.62.48.32.81.35,1.69.5,2.55.12.73.32,1.44.6,2.12.21.51.47,1.01.9,1.36.43.34,1.05.49,1.53.23.31-.17.52-.48.71-.78,1.41-2.24,2.17-4.76,3.46-7.07,1.3-2.31,2.89-4.45,4.65-6.43,1.31-1.48,2.8-2.92,4.68-3.52.63-.2,1.32-.3,1.96-.12.64.18,1.22.69,1.33,1.35,1.48-.99,3.83.04,4.12,1.79.06.36.05.74.19,1.07.38.86,1.55.96,2.49.92.58,1.4.64,3.02.16,4.46-.15.46-.35.99-.1,1.4.12.2.32.33.48.5.51.55.49,1.4.39,2.14-.59,4.02-2.81,7.58-4.99,11.01-.88,1.38-1.76,2.77-2.73,4.08-2.07,2.82-4.6,5.41-5.77,8.71-.41,1.15-.63,2.35-1.04,3.5-.35.99-.38,2.05-1.72,1.35-3.23-1.7-6.45-3.41-9.68-5.11-1.94-1.03-1.94-3.08-2.48-5.02-.39-1.4-.71-2.82-1.03-4.23-.36-1.57-.72-3.14-1.19-4.67Z" style="fill: #fff;"/>
      <path d="M76.82,263.3c-.72,1.6-1.45,3.22-2.58,4.56-1.82,2.17-4.49,3.41-7.07,4.59.2-.67-.48-1.44-1.17-1.32-.3.05-.57.23-.83.39-1.09.67-2.34,1.08-3.62,1.19-.59.05-1.29-.02-1.62-.51-.67-.99.84-2.1.94-3.3-1.61.43-3.22.86-4.83,1.29-1.06.28-2.53.37-2.91-.66-.09-.24-.09-.52-.24-.73-.28-.4-.87-.36-1.34-.48-.89-.22-1.48-1.15-1.54-2.06-.06-.92.3-1.81.77-2.6,1.06-1.77,2.64-3.16,4.06-4.66,4.44-4.72,7.26-10.72,9.56-16.78.18-.47.4-.99.86-1.19.52-.23,1.11.05,1.61.33,2.21,1.26,4.29,2.73,6.43,4.11,1.1.71,2.22,1.4,3.38,2.01.85.45,2.46.8,3.13,1.47,1.38,1.38.39,4.79-.03,6.46-.68,2.73-1.83,5.32-2.98,7.88Z" style="fill: #fff;"/>
      <path d="M69.47,115.51c-.14.34-.29.67-.48,1.02-.52.96-.8,2.06-1.55,2.88-1.21,1.32-3.43,1.7-4.07,3.37-.32.83-.12,1.78.25,2.6.84,1.84,2.61,3.22,4.6,3.6,1.99.38,4.14-.26,5.6-1.66.22-.21.47-.46.78-.43.23.02.41.19.57.34,3.84,3.73,7.68,7.47,11.52,11.2.76.74,1.51,1.47,2.21,2.26.84.96,2.68,2.75,2.96,4.01.26,1.21-1.15,2.18-.56,3.69.97,2.48,4.78.95,6.51.37,4.12-1.39,7.96-3.61,11.23-6.48.73-.64,1.43-1.31,2.05-2.06,2.12-2.57,4.65-6.36,3.72-9.87-.37-1.4-1.33-2.6-2.46-3.5-1.14-.9-2.46-1.54-3.78-2.13-1.02-.46-2.02-.93-2.86-1.69.92-1.58,2.45-2.83,3.33-4.63.97-1.99,1.65-4.16,1.73-6.38.1-2.98-.89-5.87-1.87-8.68-.61-1.75-1.22-3.5-1.83-5.25-1.57-4.51-5.46-7.59-8.61-11.18-7.32,2.95-15.38,1.35-23.23.64-.27-.02-.56-.04-.79.11-.24.15-.33.45-.4.72-.34,1.43-.18,2.92-.13,4.39.12,3.11.21,6.25-.41,9.32-.28,1.37-.69,2.71-1.09,4.05-.77,2.52-1.53,5.04-2.3,7.55-.2.65-.37,1.22-.6,1.78Z" style="fill: #fff;"/>
      <path d="M74.61,127.33c2.61,2.08,4.99,4.44,7.36,6.8,1.49,1.48,2.98,2.97,4.15,4.71-1.88,1.61-4.12,2.79-6.51,3.42-.61.16-1.24.29-1.86.21-.66-.08-1.26-.39-1.91-.53-2.24-.48-4.39,1.09-6.67,1.28-1.87.16-3.68-.63-5.29-1.59-1.61-.96-3.12-2.11-4.85-2.82-4.17-1.72-8.49-2.76-10.06-7.58-.29-.9-.45-1.86-.3-2.79.23-1.43,1.15-2.64,1.87-3.91.88-1.55,1.79-3.62,1.76-5.44-.02-1.85-.84-3.41-1.43-5.12-.35-1.01-.52-2.08-.68-3.14-.34-2.24-.69-4.51-.59-6.77.11-2.47.73-4.88,1.35-7.27.73-2.79,1.48-5.65,3.14-8.01,1.73-2.46,4.31-4.18,6.82-5.84,2.32-1.53,4.79-2.54,6.86-4.39.91-.81,1.7-1.74,2.59-2.57,4.55-4.27,11.67-5.56,17.43-3.18,1.63.68,3.15,1.62,4.8,2.25,2.5.96,5.24,1.2,7.67,2.32.8.37,1.56.83,2.39,1.15.7.27,1.45.43,2.19.53,1.91.26,3.88.18,5.76-.24,3.93-.89,8.05,3.45,9,7.37.71,2.9-.22,5.92-1.21,8.73-.14.4-.29.81-.58,1.11-.03-.23-.11-.46-.22-.67,1.96,2.44,3.47,5.23,4.44,8.2.27.83.5,1.69.52,2.57.03,1.5-.56,2.93-1.22,4.28-.98,2.02-2.3,4.1-4.41,4.84.27,1.71-.43,3.47-1.53,4.81-1.1,1.34-2.56,2.33-4.03,3.26-1.08.68-2.52,1.34-3.53.57-.82-.62-.85-1.87-.44-2.81.41-.94,1.15-1.68,1.72-2.53,1.05-1.58,1.47-3.51,1.5-5.41.03-1.9-.31-3.78-.69-5.64-.46-2.28-.97-4.57-1.88-6.71-.61-1.43-1.39-2.78-2.33-4.02-2.12-2.81-3.75-5.5-6.1-8.12-.3-.33-.62-.68-1.03-.85-.53-.22-1.13-.14-1.69-.04-2.12.35-4.24.76-6.37,1.05-5.42.72-11.02.59-16.21-1.11.48,2.21.19,4.51-.13,6.75-.99,6.99-2.25,13.94-3.78,20.84-.39,1.76-.94,3.71-2.5,4.61-1.05.61-2.42.63-3.34,1.42-.87.75-1.11,2.05-.83,3.16.28,1.11,1.01,2.06,1.82,2.87,1.29,1.28,2.92,2.33,4.73,2.44,1.81.11,3.83-.7,4.31-2.45Z" style="fill: #4b4c4e;"/>
      <path d="M86,138.71c-.75,2.58-6.52,4.68-9.06,3.49-2.54-1.19-4.63.38-5.67.93-5.37,2.83-12.42-4.79-12.42-4.79-5.72-.6-7.24-1.99-9.86-6.07-2.62-4.08,2.12-8.33,2.12-8.33,3.64-5.87-.52-7.7-1.07-13.46-2.42-25.67,16.4-30.57,16.4-30.57,0,0,8.09-13.08,22.99-6.47s17.04,6.35,19.1,5.87c2.06-.49,11.75-.6,11.49,11.7,0,0-.68,2.82-2.09,5.26,0,0,10.11,11.95-.59,18.63,0,0,.54,5.02-6,8.48" style="fill: none; stroke: #2e3117; stroke-linecap: round; stroke-miterlimit: 10; stroke-width: 2.42px;"/>
      <path d="M99.75,86.58c-11.84,4.6-25.43.85-25.43.85,0,0,.28,19.53-7.01,33.59" style="fill: none; stroke: #2e3117; stroke-linecap: round; stroke-miterlimit: 10; stroke-width: 2.42px;"/>
      <path d="M67.41,120.47c-.76.11-1.51.35-2.19.71-.77.41-1.5,1.03-1.69,1.88-.12.52-.02,1.06.14,1.57.8,2.58,3.19,4.6,5.87,4.95,1.04.14,2.14.03,3.09-.42.95-.46,1.74-1.29,2.03-2.3" style="fill: none; stroke: #2e3117; stroke-linecap: round; stroke-miterlimit: 10; stroke-width: 2.42px;"/>
      <path d="M98.75,87.36s24.49,26.17,3.27,37.88" style="fill: none; stroke: #2e3117; stroke-linecap: round; stroke-miterlimit: 10; stroke-width: 2.42px;"/>
      <path d="M72.2,123.87s18.45,18.04,20.1,21.91" style="fill: none; stroke: #2e3117; stroke-linecap: round; stroke-miterlimit: 10; stroke-width: 2.42px;"/>
      <path d="M61.57,91.46c-1.09,2.27-1.38,4.92-.81,7.38.43,1.87,1.34,3.73.96,5.61" style="fill: none; stroke: #2e3117; stroke-linecap: round; stroke-miterlimit: 10; stroke-width: 2.42px;"/>
      <path d="M64.17,108.44c-.01.98-.02,1.96-.04,2.93-.02,1.39-.12,2.97-1.19,3.86" style="fill: none; stroke: #2e3117; stroke-linecap: round; stroke-miterlimit: 10; stroke-width: 2.42px;"/>
      <path d="M56.23,104.37c-.69,1.43-.73,3.16-.09,4.62.51,1.17,1.43,2.2,1.51,3.47.07,1.13-.54,2.17-1.13,3.14" style="fill: none; stroke: #2e3117; stroke-linecap: round; stroke-miterlimit: 10; stroke-width: 2.42px;"/>
      <path d="M53.95,121.49c-.04,1.1-.09,2.21.15,3.28.23,1.07.77,2.12,1.68,2.74" style="fill: none; stroke: #2e3117; stroke-linecap: round; stroke-miterlimit: 10; stroke-width: 2.42px;"/>
      <path d="M65.7,136.09c.71.54,1.42,1.07,2.13,1.61.63.48,1.28.96,2.03,1.22s1.64.23,2.27-.25" style="fill: none; stroke: #2e3117; stroke-linecap: round; stroke-miterlimit: 10; stroke-width: 2.42px;"/>
      <path d="M115.44,102.54c2.21.8,3.69,3.27,3.34,5.6" style="fill: none; stroke: #2e3117; stroke-linecap: round; stroke-miterlimit: 10; stroke-width: 2.42px;"/>
      <path d="M107.26,85.18c3.33,1.06,5.95,4.08,6.52,7.53" style="fill: none; stroke: #2e3117; stroke-linecap: round; stroke-miterlimit: 10; stroke-width: 2.42px;"/>
      <path d="M74.96,81.15c1.72-.96,3.64-1.95,5.56-1.51,1.09.25,2.02.95,3.01,1.46,2.32,1.2,5.05,1.41,7.64,1.07,2.59-.34,5.08-1.2,7.55-2.06" style="fill: none; stroke: #2e3117; stroke-linecap: round; stroke-miterlimit: 10; stroke-width: 2.42px;"/>
      <path d="M77.16,93.88c.94-.44,1.8-1.03,2.55-1.74" style="fill: none; stroke: #2e3117; stroke-linecap: round; stroke-miterlimit: 10; stroke-width: 2.42px;"/>
      <path d="M78.25,96.94c1.43-.65,2.76-1.53,3.92-2.59" style="fill: none; stroke: #2e3117; stroke-linecap: round; stroke-miterlimit: 10; stroke-width: 2.42px;"/>
      <path d="M87.73,103.66c1.19.95,2.51,1.73,3.92,2.32.68.29,1.43.57,1.82,1.2.35.58.3,1.33.04,1.95-.37.91-1.27,1.68-2.25,1.59" style="fill: none; stroke: #2e3117; stroke-linecap: round; stroke-miterlimit: 10; stroke-width: 2.42px;"/>
      <path d="M93.66,118.02c2.18-.01,4.26-1.58,4.87-3.67" style="fill: none; stroke: #2e3117; stroke-linecap: round; stroke-miterlimit: 10; stroke-width: 2.42px;"/>
      <path d="M97.77,119.69c.7-.47,1.39-.94,2.09-1.41" style="fill: none; stroke: #2e3117; stroke-linecap: round; stroke-miterlimit: 10; stroke-width: 2.42px;"/>
      <path d="M88.36,117.86c-.08.75.12,1.54.55,2.16" style="fill: none; stroke: #2e3117; stroke-linecap: round; stroke-miterlimit: 10; stroke-width: 2.42px;"/>
      <path d="M98.64,110.01c1.08-.67,2.57-.59,3.57.19" style="fill: none; stroke: #2e3117; stroke-linecap: round; stroke-miterlimit: 10; stroke-width: 2.42px;"/>
      <path d="M68.13,123.98c-.33-.33-.96-.16-1.17.26-.21.42-.06.95.25,1.3.31.35.76.55,1.2.71" style="fill: none; stroke: #2e3117; stroke-linecap: round; stroke-miterlimit: 10; stroke-width: 2.42px;"/>
      <path d="M95.61,99.91c.11.8.85,1.37,1.65,1.26.8-.11,1.37-.85,1.26-1.65-.11-.8-.85-1.37-1.65-1.26s-1.37.85-1.26,1.65Z" style="fill: #2e3117;"/>
      <path d="M79.76,110.8c.11.8.85,1.37,1.65,1.26.8-.11,1.37-.85,1.26-1.65-.11-.8-.85-1.37-1.65-1.26-.8.11-1.37.85-1.26,1.65Z" style="fill: #2e3117;"/>
      <path d="M92.14,144.81c-.65,1.11-1.31,2.47-.74,3.63.68,1.38,2.6,1.48,4.13,1.23,8.97-1.46,16.82-8.42,19.33-17.16.46-1.61-.84-4.25-2.24-5.17-2.18-1.43-4.38-2.82-6.61-4.18" style="fill: none; stroke: #2e3117; stroke-linecap: round; stroke-miterlimit: 10; stroke-width: 2.42px;"/>
      <path d="M90.59,143.24c-3.42,9.31-6.45,18.79-9.28,28.29-5.64,18.94-9.03,37.87-12.92,57.13-.8,3.99-1.64,7.97-2.49,11.94,5.04,3.18,10.25,6.07,15.62,8.66,2.85-6.23,4.62-12.89,6.38-19.52,4.05-15.26,8.11-30.53,12.16-45.79" style="fill: none; stroke: #2e3117; stroke-linecap: round; stroke-miterlimit: 10; stroke-width: 2.42px;"/>
      <path d="M120.41,99.06c7.74-20.98,17.87-40.99,27.97-60.94,3.73,1.7,7.34,3.68,10.79,5.91.44.28.89.59,1.13,1.05.31.6.19,1.32.07,1.99-2.33,12.47-5.45,24.7-7.25,37.31-1.87,13.11-3.36,26.3-6.18,39.26" style="fill: none; stroke: #2e3117; stroke-linecap: round; stroke-miterlimit: 10; stroke-width: 2.42px;"/>
      <path d="M146.94,123.7c11.91,12.3,19.89,27.77,27.7,43,2.22,4.33,4.45,7.16,5.65,11.88" style="fill: none; stroke: #2e3117; stroke-linecap: round; stroke-miterlimit: 10; stroke-width: 2.42px;"/>
      <path d="M98.22,175.92c-.81,7.19,4.5,13.46,9.46,18.73,6.53,6.94,13.06,13.88,19.59,20.82.23.24.48.5.8.59.41.11.84-.08,1.22-.26,10.03-4.8,19.32-11,28.57-17.18,4.09-2.73,8.2-5.48,11.72-8.92,3.69-3.6,6.68-7.92,10.72-11.12" style="fill: none; stroke: #2e3117; stroke-linecap: round; stroke-miterlimit: 10; stroke-width: 2.42px;"/>
      <path d="M181.54,179.45c5.21,4.41,8.9,10.32,12.13,16.33,20.74,38.52,25.71,83.27,37.95,125.27,3.64,12.51,7.98,24.97,9.05,37.95l-10.66,3.38c-.94.3-1.96.6-2.9.29-.8-.26-1.39-.92-1.94-1.56-15.72-18.41-23.96-41.88-31.88-64.76-2.25-6.5-4.51-13.02-7.25-19.33-5.72-13.17-17.8-27.61-25.54-39.7" style="fill: none; stroke: #2e3117; stroke-linecap: round; stroke-miterlimit: 10; stroke-width: 2.42px;"/>
      <path d="M127.35,215.95c-29.87,45.38-58.89,91.31-87.04,137.78,5.22,3.08,10.85,5.47,16.69,7.09.94.26,1.98.5,2.87.09.6-.27,1.04-.8,1.45-1.31,31.77-38.96,67.41-83.31,99.18-122.27" style="fill: none; stroke: #2e3117; stroke-linecap: round; stroke-miterlimit: 10; stroke-width: 2.42px;"/>
      <path d="M40.19,354.8c-4.34,3.42-9.88,4.86-15.28,6.04-5.4,1.19-10.96,2.27-15.67,5.16-4.71,2.89-8.46,8.09-7.91,13.58,19.95.53,39.91.73,59.86.59,1.46-2.9.58-6.41-.65-9.42s-2.82-6.03-2.71-9.28" style="fill: none; stroke: #2e3117; stroke-linecap: round; stroke-miterlimit: 10; stroke-width: 2.42px;"/>
      <path d="M60.53,379.96c.7.8.25,2.15-.63,2.75-.88.6-2,.66-3.06.71-14.93.6-29.86,1.21-44.8,1.81-2.29.09-4.66.17-6.8-.64-2.15-.81-4.03-2.76-4.04-5.06" style="fill: none; stroke: #2e3117; stroke-linecap: round; stroke-miterlimit: 10; stroke-width: 2.42px;"/>
      <path d="M240.66,358.23c5.34,5.9,15.77,7.72,17.95,16.34.5,1.97.29,4.23-1.05,5.76-1.32,1.51-3.42,2.02-5.39,2.39-8.09,1.5-15.88,1.47-23.98.81-.93-.08-1.93-.18-2.64-.77-2.1-1.75-1.27-6.86-1.05-9.17.35-3.61,1.18-7.17,2.46-10.56" style="fill: none; stroke: #2e3117; stroke-linecap: round; stroke-miterlimit: 10; stroke-width: 2.42px;"/>
      <path d="M258.74,378.35c-10.96,3.67-22.81,3.1-34.35,2.5" style="fill: none; stroke: #2e3117; stroke-linecap: round; stroke-miterlimit: 10; stroke-width: 2.42px;"/>
      <path d="M234.75,361.78c1.11-.06,2.01.84,2.67,1.74.97,1.33,1.73,2.82,2.26,4.38" style="fill: none; stroke: #2e3117; stroke-linecap: round; stroke-miterlimit: 10; stroke-width: 2.42px;"/>
      <g>
        <path d="M60.01,255.01c-2.51,2.18-5.02,4.37-7.52,6.55-1.05.91-2.14,1.89-2.55,3.22-.41,1.33.22,3.07,1.58,3.34,1.06.21,2.07-.51,2.9-1.2,2.78-2.29,5.45-4.69,8.02-7.21" style="fill: none; stroke: #2e3117; stroke-linecap: round; stroke-miterlimit: 10; stroke-width: 2.42px;"/>
        <path d="M53.17,268.07c-.78.23-.97,1.36-.5,2.01.48.65,1.35.88,2.16.87,1.41-.02,2.75-.61,3.98-1.3,3.2-1.8,5.98-4.32,8.07-7.33" style="fill: none; stroke: #2e3117; stroke-linecap: round; stroke-miterlimit: 10; stroke-width: 2.42px;"/>
        <path d="M63.95,266.1c-1.35,1.51-2.67,3.04-3.97,4.59-.47.57-.97,1.35-.58,1.99.24.39.73.54,1.19.55.77.02,1.51-.28,2.2-.62,4.19-2.05,7.54-5.77,9.13-10.16" style="fill: none; stroke: #2e3117; stroke-linecap: round; stroke-miterlimit: 10; stroke-width: 2.42px;"/>
        <path d="M67.37,269.82c-.55.29-.85.98-.69,1.58.16.6.76,1.05,1.38,1.04.48,0,.92-.26,1.33-.53,3.69-2.38,6.53-5.94,8.42-9.9,1.89-3.96,2.86-8.32,3.24-12.69" style="fill: none; stroke: #2e3117; stroke-linecap: round; stroke-miterlimit: 10; stroke-width: 2.42px;"/>
        <path d="M64.64,241.59c-4.31,4.1-8.77,8.31-14.32,10.47-.63.25-1.28.47-1.82.88-.54.41-.95,1.07-.87,1.74.06.56.45,1.03.89,1.37,1.27.99,3.02,1.1,4.62.96,1.39-.12,2.79-.42,3.99-1.12.41-.24.81-.54,1.28-.61.36-.06.72.01,1.09.04,1.72.15,3.5-.69,4.48-2.11" style="fill: #fff; stroke: #2e3117; stroke-linecap: round; stroke-miterlimit: 10; stroke-width: 2.42px;"/>
      </g>
      <path d="M148.45,38.44c.6-1.81.3-3.79-.18-5.64-.82-3.19-2.15-6.22-3.1-9.37-.95-3.15-1.51-6.52-.76-9.72.22-.93.76-2.01,1.72-2.04.52-.02.99.29,1.34.67,1.85,2,.93,5.69,3.04,7.41.52.42,1.16.66,1.71,1.04,1.33.93,1.96,2.63,1.99,4.26s-.45,3.21-.92,4.77" style="fill: none; stroke: #2e3117; stroke-linecap: round; stroke-miterlimit: 10; stroke-width: 2.42px;"/>
      <path d="M152.22,20.36c3.32-5.74,5.39-10.98,9.65-16.07,1.05-1.25,2.27-2.45,3.83-2.94,1.04-.33,2.44-.15,2.82.87.22.59.02,1.25-.27,1.82-.66,1.31-1.72,2.38-2.61,3.56-1.56,2.07-3.44,5.88-4.76,8.82" style="fill: none; stroke: #2e3117; stroke-linecap: round; stroke-miterlimit: 10; stroke-width: 2.42px;"/>
      <path d="M164.14,9.68c1.18-2.18,2.42-4.44,4.45-5.88.66-.47,1.41-.84,2.21-.92.8-.07,1.67.19,2.18.81.53.64.6,1.56.4,2.37-.21.8-.66,1.52-1.12,2.21-2.35,3.52-4.41,6.97-6.57,11.24" style="fill: none; stroke: #2e3117; stroke-linecap: round; stroke-miterlimit: 10; stroke-width: 2.42px;"/>
      <path d="M172.1,8.51c.71-.86,1.8-1.4,2.92-1.42.23,0,.47.01.65.15.17.12.26.32.33.52.37,1.05.25,2.22-.1,3.27-.35,1.06-.91,2.02-1.45,3-1.34,2.43-3.77,6.02-4.78,8.6" style="fill: none; stroke: #2e3117; stroke-linecap: round; stroke-miterlimit: 10; stroke-width: 2.42px;"/>
      <path d="M174.97,13.34c.22-.62,1.23-.56,1.62-.03.39.54.34,1.27.24,1.92-.51,3.43-1.79,6.75-3.72,9.64-1.51,2.26-3.39,4.23-5.01,6.41-3.09,4.15-5.17,8.94-7.21,13.69" style="fill: none; stroke: #2e3117; stroke-linecap: round; stroke-miterlimit: 10; stroke-width: 2.42px;"/>
      <path d="M158.73,18.44c2.51,1.06,4.84,2.54,6.88,4.34.37.33.75.7.86,1.19" style="fill: none; stroke: #2e3117; stroke-linecap: round; stroke-miterlimit: 10; stroke-width: 2.42px;"/>
      <path d="M182.04,187.14c-.53-1.08-3.91-4.18-5.11-4.19" style="fill: none; stroke: #2e3117; stroke-linecap: round; stroke-miterlimit: 10; stroke-width: 2.42px;"/>
      <path d="M167.99,192.12c1.56,2.19,3.49,2.54,4.29,3.28" style="fill: none; stroke: #2e3117; stroke-linecap: round; stroke-miterlimit: 10; stroke-width: 2.42px;"/>
      <path d="M163.36,196.45c.49.93.99,1.86,1.48,2.79" style="fill: none; stroke: #2e3117; stroke-linecap: round; stroke-miterlimit: 10; stroke-width: 2.42px;"/>
      <path d="M145.14,207.63c.03.85,0,4.94,1.8,6.23" style="fill: none; stroke: #2e3117; stroke-linecap: round; stroke-miterlimit: 10; stroke-width: 2.42px;"/>
      <path d="M128.07,216.05c-.18.87.55,3.81,1.14,4.48" style="fill: none; stroke: #2e3117; stroke-linecap: round; stroke-miterlimit: 10; stroke-width: 2.42px;"/>
      <path d="M134.86,213.86c.1.46,0,3.03.86,4.18" style="fill: none; stroke: #2e3117; stroke-linecap: round; stroke-miterlimit: 10; stroke-width: 2.42px;"/>
      <path d="M178.5,191.46c-.92-.81-3.48-5.23-4.71-5.3" style="fill: none; stroke: #2e3117; stroke-linecap: round; stroke-miterlimit: 10; stroke-width: 2.42px;"/>
      <path d="M162.74,215.44c.1-4.03-4.94-11.36-7.85-14.15.99,1.01,2.35,1.57,3.73,1.82,1.12.21,3.06.56,3.96-.32.38-.37.54-.98.29-1.45-.22-.4-.67-.6-1.05-.85-.36-.24-.69-.55-1.11-.68-.26-.08-.54-.08-.81-.08-1.12,0-2.09-.1-3.11.39-1.03.5-1.91,1.08-2.51,2.09-.43.73-.66,1.56-.92,2.36-.52,1.59-1.18,3.13-1.98,4.6-.15.27-.33.57-.63.65-.26.07-.54-.06-.75-.22-.91-.7-1-2.1-.54-3.14.47-1.05,1.37-1.82,2.24-2.57.8-.68,1.61-1.37,2.41-2.05-.59,1.42,1.68,3.56,2.11,5.04.74,2.56,1.03,5.25.84,7.9" style="fill: none; stroke: #2e3117; stroke-linecap: round; stroke-miterlimit: 10; stroke-width: 2.42px;"/>
      <path d="M35.31,358.11c-.23.56-.34,1.17-.31,1.77.05,1.14.56,2.22,1.22,3.16" style="fill: none; stroke: #2e3117; stroke-linecap: round; stroke-miterlimit: 10; stroke-width: 2.42px;"/>
      <path d="M29.74,360.36c-.37.33-.3.93-.17,1.41.33,1.18.85,2.32,1.52,3.34" style="fill: none; stroke: #2e3117; stroke-linecap: round; stroke-miterlimit: 10; stroke-width: 2.42px;"/>
      <path d="M23.3,361.28c-.53,1.7-.05,3.66,1.19,4.93" style="fill: none; stroke: #2e3117; stroke-linecap: round; stroke-miterlimit: 10; stroke-width: 2.42px;"/>
      <path d="M239.96,362.36c-2.11.27-4.14,1.13-5.81,2.45" style="fill: none; stroke: #2e3117; stroke-linecap: round; stroke-miterlimit: 10; stroke-width: 2.42px;"/>
      <path d="M241.33,365.25c-1.84.45-3.59,1.28-5.1,2.42" style="fill: none; stroke: #2e3117; stroke-linecap: round; stroke-miterlimit: 10; stroke-width: 2.42px;"/>
      <path d="M111.12,124.64c2.79,1.12,5.91,2.59,6.72,5.48.25.9.24,1.86.13,2.79-.66,5.53-4.63,10.06-8.82,13.72-3.63,3.17-8.01,6.12-12.82,5.85-1.34-.07-2.7-.42-3.8-1.19-1.1-.77-1.92-2.01-1.98-3.36" style="fill: none; stroke: #2e3117; stroke-linecap: round; stroke-miterlimit: 10; stroke-width: 2.42px;"/>
    </g>
  </g>
</svg>