<?xml version="1.0" encoding="UTF-8"?>
<svg xmlns="http://www.w3.org/2000/svg" viewBox="0 0 736.29 650.62">
  <g style="isolation: isolate;">
    <g id="_圖層_2" data-name="圖層 2">
      <g id="_圖層_1-2" data-name="圖層 1">
        <g>
          <path d="M558.14,181.51c5.37-3.24,10.77-6.49,15.67-10.4,4.34-3.46,8.35-7.46,13.38-9.8,3.99-1.86,8.69-2.73,11.64-6.01,4.75-5.29,3.01-14.81,8.72-19.06,2.01-1.5,4.58-1.98,7.03-2.5,7.88-1.65,15.62-3.98,23.1-6.96.59-.23,1.19-.48,1.62-.95.66-.71.77-1.74.83-2.71.22-3.57,1.15-9.36-1.81-11.54-3.55-2.62-8.02-3.14-11.32-6.55-2.49-2.57-4.09-5.87-5.27-9.25-3.72-10.6-3.63-22.13-2.92-33.35.15-2.41.34-4.86,1.28-7.08.8-1.89,2.1-3.51,3.38-5.11,4.36-5.42,8.71-10.85,13.07-16.27,7.27,1.44,11.48,8.76,16.23,14.46,6.48,7.79,15.47,13.45,25.3,15.95,2.5.63,5.17,1.06,7.64.32,2.62-.78,4.73-2.79,7.34-3.61,4.32-1.35,9.38,1.21,11.18,5.37,1.8,4.16.4,9.36-3,12.35-3.4,2.99-8.47,3.77-12.76,2.32-1.29,14.81-2.58,29.61-3.87,44.42,7.58,3.01,15.84,3.72,23.77,5.62,7.93,1.9,16.04,5.37,20.55,12.16,3.53,5.3,4.39,11.88,5.16,18.2,2.16,17.82,2.56,35.96-4.32,52.54-1.13,2.72-2.4,5.39-3.23,8.21-.78,2.64-1.17,5.41-2.31,7.92-1.81,4-5.26,6.82-7.88,10.26-2.72,3.58-5.04,5.39-8.56,7.94-2.19,1.58-1.35,1.63-.8,4.26.64,3.06.87,6.25,1.38,9.33.88,5.32,1.91,10.62,3.1,15.88,1.14,5.04,4.08,11.22,4.22,16.33.08,2.99-.72,2.33-3.95,2.71-2.98.34-5.96.69-8.93,1.02-5.73.64-11.47,1.25-17.21,1.79-22.88,2.14-46,3.16-68.87.43-.18-4.8.21-9.56.44-14.36.32-6.68,1.43-13.3,1.88-19.97.72-10.66-.24-21.36-1.2-32l-1.16-12.91c-.4-4.48-.81-8.96-1.45-13.41-.81-5.65-2.01-11.25-3.57-16.74-5.46,3.59-11.52,6.26-17.85,7.88-1.2.31-2.44.58-3.66.42-1.1-.15-2.13-.63-3.13-1.11-8.73-4.18-17.47-8.36-26.21-12.55-1.21-.58-2.74-2.57-2.64-3.9Z" style="fill: #fff;"/>
          <path d="M453.08,345.2c.1,4.64.52,9.76,3.84,13.01,4.05,3.98,10.56,3.47,16.19,2.69,4.52-.63,9.05-1.25,13.57-1.88,2.43-.34,4.92-.67,7.34-.24,2.16.39,4.15,1.37,6.19,2.18,6.29,2.53,13.08,3.51,19.79,4.48,2.8.4,5.75.79,8.38-.25,1.58-.62,2.95-1.74,4.58-2.24,1.79-.55,3.71-.33,5.56-.1,20.64,2.54,41.61,4.53,62.15,1.33,3.1-.48,6.35-1.17,8.68-3.27,3.18-2.87,3.79-7.55,4.2-11.81.84-8.71,1.68-17.42,2.52-26.14,1.49-15.45,2.97-31.07.91-46.45-10.06-1.91-20.75-.32-29.81,4.43-.86.45-1.75.97-2.22,1.82-.48.86-.45,1.91-.41,2.9.5,11.65,1,23.31,1.51,34.96.09,2.07.15,4.28-.91,6.07-1.84,3.13-6.09,3.59-9.71,3.87-10.31.8-20.51,2.98-30.25,6.47-3.7,1.32-7.92,2.81-11.37.93-2.29-1.24-3.66-3.71-5.79-5.21-1.9-1.34-4.26-1.81-6.56-2.1-6.2-.79-12.53-.5-18.63.85-1.78.39-3.61.88-5.4.55-.95-.17-1.85-.57-2.73-.97-5.72-2.55-11.44-5.11-17.16-7.66,2.33-1.81,2.05-5.35,1.55-8.26-1.12-6.47-2.24-12.94-3.37-19.42-.52-3-1.06-6.07-2.52-8.74-2.19-4.04-6.22-6.73-10.33-8.54-6.63-2.92-5.84,3.83-6.38,8.79-1.33,12.22-2.51,24.47-3.09,36.75-.33,7.06-.47,14.13-.32,21.2Z" style="fill: #fff;"/>
          <path d="M329.4,282.54c.16.48.33.97.65,1.37.5.62,1.28.93,2.05,1.16,6.69,2,13.88-.13,20.33-2.8,6.45-2.67,12.86-5.96,19.82-6.38,2.68-.16,5.39.11,8.06-.24,2.67-.35,5.41-1.47,6.87-3.72.34-.52.58-1.27.14-1.71-.2-.2-.5-.28-.78-.34-5.29-1.2-10.58-2.4-15.87-3.6,4.3-4.19,11.27-3.91,17.02-2.17,1.16.35,2.34.75,3.54.66s2.46-.84,2.71-2.03c.27-1.25-.65-2.46-1.7-3.2-1.05-.74-2.28-1.24-3.17-2.16,2.81-.15,6.35-.89,6.88-3.65.34-1.78-.93-3.55-2.54-4.38s-3.48-.94-5.29-1.03c2.08-1.07,1.66-4.45-.19-5.87-1.86-1.41-4.39-1.43-6.73-1.38-3.21.07-6.42.13-9.63.2-10.38.22-21.17.53-30.4,5.28-3.73,1.92-7.04,4.5-10.54,6.79-1.96,1.29-6.6,2.46-7.98,4.3-2.09,2.79,1.16,8.49,2.11,11.29,1.54,4.54,3.09,9.08,4.63,13.62Z" style="fill: #fff;"/>
          <path d="M663.3,513.24c-11.98,0-23.25,1.74-33.05,4.78-19.43-22.62-60.58-38.22-108.2-38.22-66.34,0-120.13,30.28-120.13,67.63s53.78,67.63,120.13,67.63c42.89,0,80.52-12.66,101.77-31.69,11.16,4.44,24.78,7.05,39.48,7.05,37.86,0,68.54-17.28,68.54-38.59s-30.69-38.59-68.54-38.59Z" style="fill: #2e3138; mix-blend-mode: multiply; opacity: .12;"/>
          <path d="M604.8,28.94c-2.27,6.67-3.26,13.77-3.28,20.79-.01,3.88.25,7.76.52,11.63.95,14.01,1.91,28.01,2.86,42.02.57,8.4,1.26,17.34,5.37,24.87.73,1.33,2.18,4.49,3.65,5.1,1.64.68,4.81-.82,6.51-1.23,4.93-1.21,9.85-2.43,14.78-3.62,2.33-.57,4.96-1.37,6.01-3.53.46-.94.54-2,.62-3.04.24-3.19.41-6.64-1.35-9.31-2.37-3.59-7.21-4.35-11-6.4-5.28-2.86-8.62-8.48-10.08-14.31-1.46-5.82-1.29-11.92-1.12-17.92.12-3.9.23-7.8.35-11.7.07-2.34.16-4.77,1.2-6.87,1.35-2.72,4.04-4.44,6.4-6.34,5.16-4.15,9.16-9.72,11.46-15.93,12.89,13.78,26.94,28.24,45.35,32.35,1.24.28,2.54.51,3.78.24,3.98-.84,6.44-6.33,10.44-5.61,1.75.31,3.05,1.8,3.97,3.33,2.6,4.3,3.3,10.02.69,14.32-2.99,4.93-8.28,5.19-13.04,3.37-2.04,3.24-2.69,8.23-3.19,11.98-.51,3.82-.6,7.68-.68,11.53-.08,3.69-.16,7.38-.24,11.06-.06,2.56-1.42,8.63,1.35,9.67.95.36,1.98.04,2.97.1,1.79.11,3.65.66,5.41.99,3.51.65,7.03,1.3,10.54,1.94,1.08.2,2.32.36,3.16-.34.52-.43.77-1.1.99-1.74,4.67-13.4,7.62-27.57,6.97-41.74-.18-3.87-.61-7.74-1.17-11.57-.53-3.63.35-7.35.26-11.07-.07-2.99-.43-5.97-.78-8.94-.63-5.32-1.28-10.72-3.28-15.69-1.34-3.33-3.27-6.4-5.18-9.44-1.49-2.38-3.41-4.31-4.79-6.7-1.39-2.41-3.15-4.69-5-6.76-3.78-4.25-8.42-7.79-13.73-9.9-5.94-2.36-12.45-2.86-18.84-3.03-13.46-.34-24.58,2.43-37.29,6.23-3.93,1.18-9.1,2.67-12.39,5.21-3.25,2.52-5.58,7.42-7.25,11.08-.73,1.61-1.38,3.25-1.95,4.92Z" style="fill: #ff6d04;"/>
          <g>
            <path d="M671.19,491.25c.38-12.7.76-25.39,1.14-38.09l.4-13.15c.1-3.43.92-8.41-1.19-11.46-1.58-2.28-4.85-2.42-7.62-2.28-7.74.41-15.77.89-23.4,2.03-.6.09-1.23.2-1.66.63-.56.57-.54,1.48-.47,2.27,1.84,23.51,4.25,46.98,7.25,70.37.71,5.55,1.43,11.32-.38,16.61-1.16,3.38-3.28,6.34-5.37,9.24-3,4.15-5.99,8.31-8.99,12.46,5.99-.22,12.13,3.08,17.77,1.05,4.27-1.54,6.92-5.68,10.14-8.88,2.29-2.27,4.98-4.15,6.94-6.71,5.71-7.44,4.93-17.25,5.19-26.11.08-2.67.16-5.33.24-8Z" style="fill: #fff;"/>
            <path d="M673.81,547.51c.36-.15.75-.32.96-.65.19-.29.21-.64.23-.98.29-5.1.28-10.22-.03-15.32-4.68.55-9.02,3.18-11.94,6.88-2.19,2.77-6.34,9.9-3.79,13.44,2.65,3.69,11.53-2.09,14.56-3.36Z" style="fill: #ff6d04;"/>
            <path d="M622.54,540.98c-2.23,1.47-4.12,3.68-4.58,6.31-.54,3.01.88,6.13,3.12,8.21,2.24,2.08,5.19,3.23,8.17,3.91,7.26,1.65,15.09.67,21.71-2.74,3.24-1.67,6.17-3.87,9.01-6.16,4.02-3.25,7.92-6.74,10.94-10.94,3.02-4.2,5.12-9.2,5.19-14.37.02-1.35-.13-2.79-.96-3.86-1.22-1.59-3.6-1.88-5.48-1.2-1.88.68-3.37,2.13-4.76,3.57-3.22,3.34-6.23,6.88-9.02,10.59-1.75,2.33-3.47,4.79-5.91,6.39-2.91,1.91-6.63,2.39-10.05,1.75-3.52-.66-5.94-3.16-9.17-4.12-2.52-.75-6.14,1.31-8.2,2.67Z" style="fill: #868788;"/>
            <path d="M671.64,424.61s1.81,65.7-2.38,92.3" style="fill: none; stroke: #2e3117; stroke-linecap: round; stroke-miterlimit: 10; stroke-width: 3px;"/>
            <line x1="638.04" y1="430.02" x2="647.17" y2="518.31" style="fill: none; stroke: #2e3117; stroke-linecap: round; stroke-miterlimit: 10; stroke-width: 3px;"/>
            <path d="M645.68,518.78c-3.68,6.05-7,12.78-12.54,17.39-4.78,3.98-14.97,4.23-16.19,11.58-.74,4.41,3.18,8.34,7.33,10,4.2,1.68,8.81,1.91,13.32,2.13,3.23.16,6.54.3,9.63-.65,2.33-.72,4.44-2.04,6.45-3.42,8.41-5.75,34.76-29.22,16.42-38.9" style="fill: none; stroke: #2e3117; stroke-linecap: round; stroke-miterlimit: 10; stroke-width: 3px;"/>
            <path d="M629.8,539.29c5.72,2.74,12.39,5.5,18.15,2.85,2.64-1.22,4.67-3.43,6.62-5.58,5.26-5.81,10.53-11.62,15.79-17.43" style="fill: none; stroke: #2e3117; stroke-linecap: round; stroke-miterlimit: 10; stroke-width: 3px;"/>
            <path d="M675.83,530.13c-.11,4.13-.67,11.47-.78,15.6,0,.27-.02.55-.14.79-.18.37-.59.57-.96.75-2.81,1.32-5.62,2.64-8.43,3.96.26-1.65.34-3.33.24-5" style="fill: none; stroke: #2e3117; stroke-linecap: round; stroke-miterlimit: 10; stroke-width: 3px;"/>
            <path d="M663.3,552.4c-1.2-.34-1.42-.38-2.65-.57" style="fill: none; stroke: #2e3117; stroke-linecap: round; stroke-miterlimit: 10; stroke-width: 3px;"/>
          </g>
          <g>
            <path d="M699.52,499.73c.38-12.7.76-25.39,1.14-38.09l.4-13.15c.1-3.43.92-8.41-1.19-11.46-1.58-2.28-4.85-2.42-7.62-2.28-7.74.41-15.77.89-23.4,2.03-.6.09-1.23.2-1.66.63-.56.57-.54,1.48-.47,2.27,1.84,23.51,4.25,46.98,7.25,70.37.71,5.55,1.43,11.32-.38,16.61-1.16,3.38-3.28,6.34-5.37,9.24-3,4.15-5.99,8.31-8.99,12.46,5.99-.22,12.13,3.08,17.77,1.05,4.27-1.54,6.92-5.68,10.14-8.88,2.29-2.27,4.98-4.15,6.94-6.71,5.71-7.44,4.93-17.25,5.19-26.11.08-2.67.16-5.33.24-8Z" style="fill: #fff;"/>
            <path d="M702.15,555.99c.36-.15.75-.32.96-.65.19-.29.21-.64.23-.98.29-5.1.28-10.22-.03-15.32-4.68.55-9.02,3.18-11.94,6.88-2.19,2.77-6.34,9.9-3.79,13.44,2.65,3.69,11.53-2.09,14.56-3.36Z" style="fill: #4b4c4e;"/>
            <path d="M650.88,549.46c-2.23,1.47-4.12,3.68-4.58,6.31-.54,3.01.88,6.13,3.12,8.21,2.24,2.08,5.19,3.23,8.17,3.91,7.26,1.65,15.09.67,21.71-2.74,3.24-1.67,6.17-3.87,9.01-6.16,4.02-3.25,7.92-6.74,10.94-10.94s5.12-9.2,5.19-14.37c.02-1.35-.13-2.79-.96-3.86-1.22-1.59-3.6-1.88-5.48-1.2-1.88.68-3.37,2.13-4.76,3.57-3.22,3.34-6.23,6.88-9.02,10.59-1.75,2.33-3.47,4.79-5.91,6.39-2.91,1.91-6.63,2.39-10.05,1.75-3.52-.66-5.94-3.16-9.17-4.12-2.52-.75-6.14,1.31-8.2,2.67Z" style="fill: #868788;"/>
            <path d="M699.98,433.09s1.81,65.7-2.38,92.3" style="fill: none; stroke: #2e3117; stroke-linecap: round; stroke-miterlimit: 10; stroke-width: 3px;"/>
            <line x1="666.37" y1="438.5" x2="675.51" y2="526.79" style="fill: none; stroke: #2e3117; stroke-linecap: round; stroke-miterlimit: 10; stroke-width: 3px;"/>
            <path d="M674.02,527.26c-3.68,6.05-7,12.78-12.54,17.39-4.78,3.98-14.97,4.23-16.19,11.58-.74,4.41,3.18,8.34,7.33,10,4.2,1.68,8.81,1.91,13.32,2.13,3.23.16,6.54.3,9.63-.65,2.33-.72,4.44-2.04,6.45-3.42,8.41-5.75,34.76-29.22,16.42-38.9" style="fill: none; stroke: #2e3117; stroke-linecap: round; stroke-miterlimit: 10; stroke-width: 3px;"/>
            <path d="M658.14,547.77c5.72,2.74,12.39,5.5,18.15,2.85,2.64-1.22,4.67-3.43,6.62-5.58,5.26-5.81,10.53-11.62,15.79-17.43" style="fill: none; stroke: #2e3117; stroke-linecap: round; stroke-miterlimit: 10; stroke-width: 3px;"/>
            <path d="M704.17,538.61c-.11,4.13-.67,11.47-.78,15.6,0,.27-.02.55-.14.79-.18.37-.59.57-.96.75-2.81,1.32-5.62,2.64-8.43,3.96.26-1.65.34-3.33.24-5" style="fill: none; stroke: #2e3117; stroke-linecap: round; stroke-miterlimit: 10; stroke-width: 3px;"/>
            <path d="M691.63,560.89c-1.2-.34-1.42-.38-2.65-.57" style="fill: none; stroke: #2e3117; stroke-linecap: round; stroke-miterlimit: 10; stroke-width: 3px;"/>
          </g>
          <path d="M615.27,333.45c.28,6.99,1.01,14.21-1.27,20.82-2.29,6.61-8.7,12.46-15.62,11.39-1.44,3.07-.93,6.63-.62,10,.95,10.42-.4,21.06-.18,31.54.2,9.76.52,19.52,1.43,29.24.39,4.25-.36,7.13,3.57,8.57,4.01,1.47,10.44.67,14.71.81,19.9.67,39.86-.42,59.58-3.25,9.08-1.3,18.11-2.98,27.09-4.87,3.04-.64,9.73-.85,11.88-3.1,2.31-2.41,1.48-8.47,1.25-11.41-1.07-13.71-3.81-24.38-3.26-38.11,1.13-27.91,5.68-58.34,3.13-86.44-17.71,2.15-35.51,3.54-53.34,4.18-8.91.32-17.84.45-26.76.38-4.58-.03-17.16-2.74-19.97,1.6-1.95,3.01-1.31,10.37-1.5,13.9-.27,4.9-.31,9.82-.11,14.73Z" style="fill: #fff9cb;"/>
          <g>
            <path d="M629.13,6.6s-35.05-2.02-25.34,84.83c1.44,12.85,1.28,20.28,6.31,35.58" style="fill: none; stroke: #2e3117; stroke-linecap: round; stroke-miterlimit: 10; stroke-width: 3px;"/>
            <path d="M629.13,6.6s86.29-32.28,86.29,65.52c0,43.45-8.58,56.09-8.58,56.09" style="fill: none; stroke: #2e3117; stroke-linecap: round; stroke-miterlimit: 10; stroke-width: 3px;"/>
            <path d="M619.61,56.37s-15.58,59.2,33.3,55.79" style="fill: none; stroke: #2e3117; stroke-linecap: round; stroke-miterlimit: 10; stroke-width: 3px;"/>
            <path d="M612.32,56.37s12.33-.24,25.21-24.33c0,0,24.65,34.05,50.99,33.07" style="fill: none; stroke: #2e3117; stroke-linecap: round; stroke-miterlimit: 10; stroke-width: 3px;"/>
            <path d="M688.47,64.72c.48-1.96,2.48-3.1,4.32-3.94,1.66-.77,3.49-1.5,5.27-1.07,2.31.56,3.71,2.89,4.54,5.11,1.17,3.12,1.72,6.55,1.01,9.81-.71,3.26-2.81,6.3-5.86,7.64-3.05,1.34-7.02.65-9.08-1.97" style="fill: none; stroke: #2e3117; stroke-linecap: round; stroke-miterlimit: 10; stroke-width: 3px;"/>
            <line x1="688.47" y1="74.76" x2="683.48" y2="125.84" style="fill: none; stroke: #2e3117; stroke-linecap: round; stroke-miterlimit: 10; stroke-width: 3px;"/>
            <line x1="641.6" y1="111.71" x2="641.98" y2="125.84" style="fill: none; stroke: #2e3117; stroke-linecap: round; stroke-miterlimit: 10; stroke-width: 3px;"/>
            <path d="M622.89,66.02c0,1.8,1.46,3.25,3.25,3.25s3.25-1.46,3.25-3.25-1.46-3.25-3.25-3.25-3.25,1.46-3.25,3.25Z" style="fill: #2e3117;"/>
            <path d="M658.88,66.02c0,1.8,1.46,3.25,3.25,3.25s3.25-1.46,3.25-3.25-1.46-3.25-3.25-3.25-3.25,1.46-3.25,3.25Z" style="fill: #2e3117;"/>
            <path d="M644.12,67.28c-.86,2.75-2.11,5.39-3.69,7.8-.77,1.17-1.65,2.41-1.58,3.81.06,1.28.94,2.4,2.01,3.11,1.55,1.03,3.78,1.29,5.22.1" style="fill: none; stroke: #2e3117; stroke-linecap: round; stroke-miterlimit: 10; stroke-width: 3px;"/>
            <path d="M649.97,95.56c-3.19,2.61-8.12,2.84-11.54.52" style="fill: none; stroke: #2e3117; stroke-linecap: round; stroke-miterlimit: 10; stroke-width: 3px;"/>
            <path d="M645.35,103.08h-4.78" style="fill: none; stroke: #2e3117; stroke-linecap: round; stroke-miterlimit: 10; stroke-width: 3px;"/>
            <path d="M614.31,112.72c.13,4.06.68,8.1,1.63,12.05" style="fill: none; stroke: #2e3117; stroke-linecap: round; stroke-miterlimit: 10; stroke-width: 3px;"/>
            <path d="M692.48,114.97c-.24,3.6-1.2,7.15-2.79,10.39" style="fill: none; stroke: #2e3117; stroke-linecap: round; stroke-miterlimit: 10; stroke-width: 3px;"/>
            <path d="M704.93,119.46c-.18,2.41-.78,4.78-1.77,6.98" style="fill: none; stroke: #2e3117; stroke-linecap: round; stroke-miterlimit: 10; stroke-width: 3px;"/>
            <path d="M632.15,118.31c.47,1.87,1.14,3.69,1.99,5.42" style="fill: none; stroke: #2e3117; stroke-linecap: round; stroke-miterlimit: 10; stroke-width: 3px;"/>
            <path d="M653.21,27.54c3.84,4.39,7.71,8.8,12.26,12.45,4.55,3.65,9.87,6.52,15.64,7.38" style="fill: none; stroke: #2e3117; stroke-linecap: round; stroke-miterlimit: 10; stroke-width: 3px;"/>
            <path d="M616.46,25.46c-4.51,4.06-6.23,10.28-7.74,16.15" style="fill: none; stroke: #2e3117; stroke-linecap: round; stroke-miterlimit: 10; stroke-width: 3px;"/>
            <path d="M607.12,74.06c-.35,5.66.24,11.37,1.73,16.84" style="fill: none; stroke: #2e3117; stroke-linecap: round; stroke-miterlimit: 10; stroke-width: 3px;"/>
            <path d="M699.37,90.5c-.3,4.67-1.01,9.31-2.12,13.85" style="fill: none; stroke: #2e3117; stroke-linecap: round; stroke-miterlimit: 10; stroke-width: 3px;"/>
            <path d="M686.78,20.82c6.46,3.93,10.92,10.99,11.69,18.52" style="fill: none; stroke: #2e3117; stroke-linecap: round; stroke-miterlimit: 10; stroke-width: 3px;"/>
            <path d="M648.91,10.83c6.39-1.5,13.15-1.38,19.49.34" style="fill: none; stroke: #2e3117; stroke-linecap: round; stroke-miterlimit: 10; stroke-width: 3px;"/>
            <path d="M642.39,127.08c-8.68,1.44-12.63,2.07-21.17,4.14-6.38,1.55-12.89,3.35-18.21,7.2" style="fill: none; stroke: #2e3117; stroke-linecap: round; stroke-miterlimit: 10; stroke-width: 3px;"/>
            <path d="M683.48,125.84c10.19,1.32,26.4,4.91,36.36,7.44,5.13,1.3,12.55,9.85,12.55,16.34" style="fill: none; stroke: #2e3117; stroke-linecap: round; stroke-miterlimit: 10; stroke-width: 3px;"/>
            <path d="M602.09,139.49c-3.74,3.59-4.76,8.19-7.54,12.35-2.8,4.19-5.98,8.12-9.48,11.75-7.13,7.38-15.58,13.49-24.87,17.86" style="fill: none; stroke: #2e3117; stroke-linecap: round; stroke-miterlimit: 10; stroke-width: 3px;"/>
            <path d="M732.4,149.61c5.08,26.95,3.08,62.11-15.89,91-2.51,3.81-5.24,7.75-9.36,9.72-2.84,1.37-6.07,1.73-9.22,1.76-13.22.12-26.89-5.01-39.43-8.79-11.75-3.55-23.51-7.09-35.26-10.63" style="fill: none; stroke: #2e3117; stroke-linecap: round; stroke-miterlimit: 10; stroke-width: 3px;"/>
            <path d="M700.25,175.61c-3.06,6.02-3.92,12.88-5.18,19.51-1.11,5.83-2.56,11.6-4.34,17.27" style="fill: none; stroke: #2e3117; stroke-linecap: round; stroke-miterlimit: 10; stroke-width: 3px;"/>
            <path d="M699.36,216.24c-2.72-1.52-5.83-2.17-8.88-2.8-21.02-4.35-42.04-8.69-63.06-13.04" style="fill: none; stroke: #2e3117; stroke-linecap: round; stroke-miterlimit: 10; stroke-width: 3px;"/>
            <path d="M626.34,200.62c2.14,10.52.39,21.78-4.85,31.15" style="fill: none; stroke: #2e3117; stroke-linecap: round; stroke-miterlimit: 10; stroke-width: 3px;"/>
          </g>
          <path d="M591.35,431.78c-.79,2.45-2.07,4.71-3.12,7.06-1.17,2.62-2.05,5.36-3.31,7.94-4.8,9.86-15.29,16.69-26.26,17.09-.06-8.33-.13-16.66-.19-24.99,0-.99.03-2.08.71-2.79.47-.49,1.16-.69,1.83-.85,5.37-1.31,11.13-1.4,16.07-3.89,5.71-2.87,8.66-8.06,12.11-13.12,2.79-4.08,2.84.31,3.06,3.28.26,3.44.17,6.95-.89,10.27Z" style="fill: #ffa768;"/>
          <path d="M591.14,414.89c-2.16,5.31-6.54,9.48-11.45,12.43-4.92,2.95-10.4,4.8-15.84,6.63-1.8.61-3.79,1.21-5.54.48-.08-3.09-.17-6.18-.25-9.27-.03-1.09-.04-2.25.53-3.17.53-.85,1.46-1.36,2.35-1.82,4.27-2.23,8.55-4.45,12.82-6.68,2.45-1.27,4.94-2.58,6.9-4.52,1.9-1.87,3.17-4.22,4.62-6.42,1.34-2.04,2.8-5.02,5.05-2.41,3.16,3.68,2.48,10.64.82,14.75Z" style="fill: #ff6d04;"/>
          <path d="M588.92,509.92c-.5.43-1.04.82-1.63,1.11-1.65.82-3.62.79-5.41.35-.18-.72.36-1.41.87-1.95,1.37-1.47,2.81-2.9,4.46-4.05,1.08-.75,4.65-3.25,4.85-.62.14,1.88-1.83,4.06-3.14,5.17Z" style="fill: #4b4c4e;"/>
          <path d="M608.64,542.87c.73,3.81-1.6,9.42-4.85,11.56-1.85,1.22-4.06,1.79-6.26,2.02-2.2.23-4.54.1-6.43-1.03-1.22-.73-2.17-1.82-3.1-2.9-.94-1.09-1.9-2.21-2.43-3.55-.34-.86-.48-1.79-.55-2.71-.11-1.46-.39-4.95,1-5.56,1.32-.58,4.58.46,5.98.71,3.21.58,6.41,1.16,9.62,1.74,2.35.43,4.84.73,7.01-.28Z" style="fill: #4b4c4e;"/>
          <path d="M502.61,524.37c-3.99-.15-7.96-.54-11.9-1.17-.28-.05-.59-.11-.77-.34-.18-.23-.15-.55-.12-.84.49-4.27.64-8.58.43-12.87,0,.25,5.77,1.5,6.35,1.65,1.43.37,4.4.53,5.51,1.55,1.06.97.27,3.92.24,5.25-.04,2.26.04,4.53.25,6.78Z" style="fill: #858587;"/>
          <path d="M587.21,496.85c2.22-.59,5.26.33,5.11,3.12-.13,2.43-2.02,3.85-3.74,5.23l-3,2.41c-.4.32-2.86,1.86-2.86,2.29-1.77,1.42-3.54,2.85-5.47,4.04-1.6.99-3.33,1.64-4.98,2.55-1.5.82-2.9,1.82-4.12,3.02-.63.62-1.21,1.29-1.74,2-.17.23-1.35,2.3-1.46,2.29,13,1.21,26.2,2.95,38.01,8.52,1.62.76,3.23,1.62,4.45,2.93,1.47,1.58,3.33,5.58.89,7.29-.81.56-1.86.6-2.84.59-5.93-.07-11.89-.77-17.64-2.09-3.79-.87-7.21-2.21-11.19-2.76-10.67-1.48-21.33-2.95-32-4.43-.94-.13-1.9-.26-2.81-.03-1.11.27-2.02,1.04-2.88,1.79-3.74,3.31-7.18,6.97-10.24,10.91.12-5.62.37-11.25.75-16.86.35-5.14-.19-10.28.39-15.45.16-1.4.52-3.03,1.81-3.61.38-.17.8-.23,1.21-.28,8.98-1.17,17.97-2.33,26.95-3.5-.06.59-.11,2.19.39,2.62.49.42,1.09.09,1.69-.13,1.4-.52,2.68-1.33,3.91-2.15,2.49-1.67,4.79-3.7,7.48-5.04,4.45-2.22,9.13-3.99,13.94-5.27Z" style="fill: #858587;"/>
          <path d="M588.44,380.68c1.76,5.53.69,12.97-1.65,18.23-.83,1.86-1.9,3.6-3.07,5.27-3.61,5.13-8.21,9.55-13.46,12.98-2.69,1.76-5.97,2.74-8.58,4.52-2.27,1.55-2.62,4.2-2.84,6.85-2.06,25.23-.92,50.72,3.38,75.66-6.37,2.88-13.49,3.52-20.45,4.12-27.64,2.38-56.15,4.67-82.57-3.82-4.1-1.32-8.61-1.76-12.32-4.14-.34-.22-.67-.45-.93-.75-.36-.43-.56-.98-.69-1.53-.51-2.07-.32-4.24-.6-6.35-.32-2.47-1.64-4.18-2.42-6.42-.68-1.94-.96-4.23-1.44-6.25-1.19-5-2.24-10.03-3.21-15.07-2.85-14.79-5.7-29.59-8.56-44.38-.79-4.1-1.58-8.21-1.84-12.37-.25-3.99-.01-8,.29-11.99.16-2.13.35-4.28.92-6.35,1.13-4.06,3.68-7.56,6.35-10.82,3.48-4.26,7.24-8.28,11.24-12.05,3.43-3.22,7.38-8.58,12.49-6.92,10.18,3.29,21.3,3.61,31.66.92,1.57-.41,3.16-.89,4.79-.82,1.77.08,3.44.82,5.08,1.48,6.75,2.73,13.9,4.44,21.15,5.08,2.96.26,6.18.27,8.59-1.46,1.09-.78,1.98-1.9,3.24-2.36,1.05-.38,2.21-.25,3.31-.11,6.91.85,13.82,1.71,20.72,2.56,6.28.78,12.84,2.09,19.15,1,1.95-.34,4.27-.76,5.66.65.57.58.86,1.37,1.15,2.14,1.61,4.32,4.09,8.25,5.45,12.52Z" style="fill: #1f89bd;"/>
          <path d="M614.49,223.82c1.99,4.99,3.01,10.32,3.41,15.66.2,2.66.23,5.3.1,7.95-.11,2.25.44,4.49.28,6.78-.14,1.95-.58,3.89-.36,5.83.1.86.32,1.72.28,2.59-.19,4.16-6.34,5.31-9.38,6.51-1.09.43-13.05,5.25-13.08,5.19-.17-.39-.35-.79-.52-1.18-3.37,1.31-6.81,4.39-9.59,6.7-.22.18-.44.38-.57.63-.24.49-.06,1.06.08,1.58.52,1.82.78,3.92.47,5.81-.23,1.42-.96,2.63-1.26,4.06-.87,4.11-1.51,8.28-2.06,12.45-.53,4.05-.92,8.12-1.18,12.2-.07,1.05-.22,12.22-.38,12.25-15.52,2.69-30.93,6.05-46.16,10.07-5.61-7.22-15.94-10.35-24.62-7.46-1.87.62-3.68,1.5-5.64,1.69-2.31.23-4.6-.51-6.81-1.24l-16.34-5.42c-1.21-.4-2.57-.93-3.05-2.11-.42-1.02-.05-2.17.23-3.24,1.84-7.15-1.11-14.52-3.26-21.58-2.27-7.46-3.67-15.17-4.17-22.95-.09-1.37-.16-2.78-.78-4.01-.56-1.1-1.5-1.95-2.42-2.76-2.85-2.52-6.39-7.17-10.31-7.79-.44-.07-.9-.09-1.33-.24-.42-.15-.83-.46-.92-.9,2.81-5.83,2.28-13.37,3.37-19.69,1.17-6.71,2.8-13.34,4.89-19.83,1.69-5.26,3.81-10.61,7.81-14.42,2.13-2.03,4.75-3.19,7.09-4.88,2.28-1.65,4.95-2.77,7.72-3.24.35-.06.71-.11,1.05-.01.25.07.46.21.67.35,1.76,1.22,3.03,3.03,4.52,4.55,1.62,1.65,3.38,3.14,5.26,4.48,3.72,2.65,7.85,4.7,12.15,6.25,6.69,2.42,13.72,3.67,20.74,4.68,3.93.56,7.91.69,11.87.68,3.35,0,6.85.28,10.02-.74,7.35-2.35,14.81-4.33,22.14-6.77,3.34-1.11,6.28-3.37,9.07-5.5.73-.56,7.86-7.16,7.81-7.19,10.19,5.8,18.69,13.02,23.15,24.22Z" style="fill: #1f89bd;"/>
          <ellipse cx="179.1" cy="582.2" rx="162.13" ry="68.42" style="fill: #e6e6e7; mix-blend-mode: multiply;"/>
          <path d="M305.21,571.06c1.22,1.77,2.5,3.54,4.26,4.78,1.12.79,2.39,1.32,3.58,2,6.23,3.57,9.55,10.76,10.81,17.82.67,3.75.86,7.65-.12,11.33-.99,3.68-3.27,7.12-6.64,8.9-2.89,1.53-6.28,1.73-9.54,1.87-8.41.37-17.06.55-25-2.24-1.8-.63-3.57-1.42-5.11-2.54-1.39-1.01-2.58-2.27-3.73-3.56-6.09-6.85-11.12-14.64-14.87-23.01-3.42-7.64-5.78-15.95-5.24-24.3.02-.37.07-.77.31-1.05.25-.28.63-.37,1-.44,6.59-1.32,13.4-1.44,19.93-3.04,3.84-.94,7.55-2.4,11.42-3.25,2.55-.56,5.2-.86,7.8-.56,2.58.3,3.68.54,4.26,3.07,1.2,5.23,3.87,9.83,6.88,14.22Z" style="fill: #fff;"/>
          <path d="M213.17,587.18c1.22,1.77,2.5,3.54,4.26,4.78,1.12.79,2.39,1.32,3.58,2,6.23,3.57,9.55,10.76,10.81,17.82.67,3.75.86,7.65-.12,11.33-.99,3.68-3.27,7.12-6.64,8.9-2.89,1.53-6.28,1.73-9.54,1.87-8.41.37-17.06.55-25-2.24-1.8-.63-3.57-1.42-5.11-2.54-1.39-1.01-2.58-2.27-3.73-3.56-6.09-6.85-11.12-14.64-14.87-23.01-3.42-7.64-5.78-15.95-5.24-24.3.02-.37.07-.77.31-1.05.25-.28.63-.37,1-.44,6.59-1.32,13.4-1.44,19.93-3.04,3.84-.94,7.55-2.4,11.42-3.25,2.55-.56,5.2-.86,7.8-.56,2.58.3,3.68.54,4.26,3.07,1.2,5.23,3.87,9.83,6.88,14.22Z" style="fill: #fff;"/>
          <path d="M218.57,536.1c-.16.86-.29,1.81-.93,2.4-.43.4-1.02.56-1.59.71-1.13.3-2.26.6-3.39.9-.19.05-.39.1-.56.01-.12-.06-.2-.17-.27-.29-1.06-1.74-.09-6.95,1.82-8.02,1.11-.62,2.55-.24,3.65.2,2.48,1,1.68,1.84,1.27,4.09Z" style="fill: #858587;"/>
          <path d="M140.15,505.59c-.96.3-1.89.59-2.79,1.22-.22.16-.45.34-.56.58-.12.25-.1.55-.08.83.23,3.33.93,6.62,1.07,9.9.17,4.02.26,8.05.4,12.08-.04-1.23-4.54-4.13-5.51-4.86-2.12-1.6-4.37-3.02-6.72-4.26-4.62-2.42-9.5-3.54-14.32-5.04-1.04-.32-2.18-.25-3.24.01-.45.11-.91.26-1.29.53-1.03.72-1.28,2.33-.52,3.33.24.31.54.55.82.83.73.74,1.11,1.61,1.83,2.35,1.07,1.08,2.44,1.98,3.63,2.93,2.33,1.87,4.68,3.72,7.05,5.55,2.36,1.83,4.74,3.64,7.13,5.44,1.24.93,2.49,1.86,3.74,2.78.73.54,2.6,2.49,3.47,2.54-7.56-.41-15.18.34-22.53,2.17-3.67.92-7.28,2.11-10.78,3.56-1.7.71-3.39,1.79-5.13,2.35-1.61.52-3.22.64-4.79,1.45-1.24.64-2.37,1.55-3.03,2.78-.6,1.11-.78,2.44-.49,3.67.11.46.28.92.55,1.31.39.57.95.99,1.55,1.32,4.17,2.33,10.27.05,14.45-1.25,6.89-2.3,14.3-3.13,21.5-3.8,7.17-.67,14.3-1.44,21.45-2.06,2.11-.18,4.48-.28,6.06,1.12.55.49,1.09,1.18,1.83,1.1.8-.09,1.16-1.05,1.22-1.86.22-2.8-.35-5.47-.02-8.29.32-2.66.07-5.56-.1-8.23-.38-5.8-1.26-11.6-.81-17.42.27-3.48,1.01-6.91,1.08-10.4.06-2.89-.11-8.64-3.69-9.26-2.49-.43-5.33,1.33-7.42,2.46-1.17.63-2.34,1.52-3.56,2.02-.49.2-.97.36-1.45.51Z" style="fill: #858587;"/>
          <path d="M101.22,141.24c-17.24,1.47-34.38,4.12-51.26,7.94-8.31,1.88-16.61,3.97-24.76,6.48-5.7,1.75-13.99,5.39-17.68,10.21-1.88,2.45-2.84,5.46-3.59,8.45-2.28,9-3.01,18.39-2.19,27.63.83,9.36,1.58,18.58,2.05,28.01.41,8.38.83,16.77,2.01,25.07.39,2.77.87,5.53,1.14,8.32.28,2.92.32,5.86.44,8.79.71,17.33,4.8,34.16,6.04,51.45,1.27,17.74.88,35.54,1,53.31.1,14.76.55,29.55,2.57,44.19.77,5.59,1.78,11.18,3.57,16.53,5.18,15.46,16.49,27.95,27.52,39.96,10.66,11.61,21.84,23.59,36.49,29.39,22.18,8.78,47.12,1.63,69.87-5.56.41-.13-1.31-12.95-1.44-14.2-.25-2.43-.49-4.85-.74-7.28-.2-1.97.24-3.35-.43-5.2-.37-1.01-.23-2.12-.08-3.19.31-2.2.61-4.4.92-6.59.05-.37.1-.75-.01-1.11-.2-.6-.81-.96-1.39-1.23-1.46-.69-3.13-.95-4.55-1.63-1.21-.58-2.34-1.59-3.49-2.32-3-1.91-5.99-3.82-8.99-5.73-5.99-3.82-11.99-7.63-17.98-11.45-2.59-1.65-6.91,2.63-8.92,4.37-4.8,4.16-8.49,9.42-12.13,14.63-1.26,1.8-2.52,3.61-3.79,5.41-.43.62-.89,1.26-1.57,1.6-1.52.75-3.27-.34-4.59-1.4-13.62-10.91-26.08-23.9-36.48-37.92-3.58-4.83-7.04-10.09-7.76-16.06-.38-3.1.01-6.25.4-9.35,1.24-9.98,2.48-19.96,3.73-29.94,1.68-13.46-14.42-17.48-22.08-25.55-.64-18.91-3.01-37.61-3.78-56.52-.55-13.51-1.13-26.67,3.75-39.46,6.87-17.97,13.74-35.95,21.45-53.57,1.35-3.08,2.73-6.16,4.48-9.03,4.57-7.47,11.58-13.22,19.27-17.4,7.69-4.18,16.1-6.87,24.53-9.21,1.43-4.28,5.33-7.65,8.27-11.07.33-.39.67-.8.79-1.3.14-.55,0-1.13-.12-1.69-.46-2.21-.73-4.56-.51-6.81Z" style="fill: #ffb27a;"/>
          <polygon points="101.1 158.11 71.12 169.51 51.93 179.08 41.48 193.96 24.79 234.18 12.3 274.34 7.16 304.9 5.39 322.49 7.33 331.09 9.32 336.42 23.79 349.73 44.17 365 44.67 370.96 43.14 384.41 40.32 403.42 41.63 414.03 45.84 423.91 61.67 444.28 84.74 467.15 88.11 468.34 91.82 466.57 99.6 453.82 112.82 440.97 132.11 430.29 149.65 425.82 158.3 424.95 176.05 427.19 168.6 410.69 153.63 390.38 142.08 365.96 133.26 341.66 120.74 280.17 118.03 266.24 106.49 198.72 101.1 158.11" style="fill: #fff;"/>
          <path d="M173.12,57.69c2.25.68,3.59,3.09,3.85,5.43.26,2.34-.33,4.67-.68,6.99-1.26,8.29.4,16.71,2.05,24.93.37,1.84.76,3.74,1.83,5.28.93,1.35,2.31,2.33,3.27,3.66,1.85,2.56,1.85,5.97,1.78,9.13-.08,3.71-.17,7.45-1.02,11.07-.72,3.05-1.96,5.94-2.95,8.91-3.12,9.36-3.64,19.58-1.48,29.21-7.03,9.32-14.89,18.5-23.64,26.23-1.68,1.48-3.59,3.02-5.83,3.01-1.36,0-2.64-.58-3.88-1.15-2.99-1.37-5.97-2.74-8.96-4.11-4.27-1.96-8.57-3.93-12.41-6.64-3.26-2.3-6.14-5.1-9.01-7.88-3.64-3.54-7.28-7.08-10.92-10.62-.61-.59-1.23-1.2-1.6-1.97-.4-.83-.48-1.77-.55-2.68-.38-4.91-.75-9.83-1.13-14.74-.19-2.46-.38-4.91-.56-7.37-.12-1.62.32-5.49-.52-6.84-.57-.92-2.88-1.51-3.83-2.38-1.15-1.04-2.02-2.36-2.64-3.78-1.21-2.79-1.45-5.98-1.03-8.96.27-1.9,1.08-4,2.89-4.66.74-.27,1.55-.26,2.34-.24,2.86.06,5.73.12,8.59.18-.12-3.15-.49-6.59-.61-9.74-.1-2.47-.19-4.94.09-7.4.53-4.52,2.32-8.78,4.1-12.98,1.18-2.79,2.37-5.58,3.86-8.22.31-.56.67-1.14,1.25-1.4.48-.22,1.02-.19,1.55-.17,4.53.21,9.1-.21,13.52-1.24,1.38-.32,2.77-.71,4.03-1.35,1.2-.61,2.27-1.43,3.38-2.19,3.16-2.15,6.67-3.72,10.15-5.29,2.02-.91,4.06-1.82,6.23-2.25,2.62-.52,5.33-.31,7.98,0,3.45.41,7.17,1.19,10.5,2.19Z" style="fill: #fff;"/>
          <path d="M180.16,156.51c1.01-.83,3.15.73,4.3,1.23,4.12,1.79,8.23,3.58,12.35,5.37,1.85.81,3.7,1.61,5.54,2.46,6.31,2.93,12.37,6.37,18.37,9.9,5.08,2.99,11.01,4.74,15.04,9.3,5.32,6.02,5.93,14.76,9.1,22.14,1.44,3.35,3.43,6.44,5.15,9.66,2.84,5.3,4.95,10.93,7.01,16.56,1.07,2.93,2.12,5.86,3.25,8.77,1.69,4.33,3.94,8.32,5.81,12.51,2.18,4.87,2.27,10.65,4.8,15.24.14.25.32.52.6.57.22.04.44-.06.64-.17,1.63-.83,3.33-1.54,5.06-2.12,1.33-.44,2.68-.81,4.03-1.18,1.58-.43,3.15-.86,4.73-1.29,7.39-2.02,14.31-4.37,21.86-6,3.78-.81,7.83-1.7,11.71-1.11,3.68.56,3.47,2.29,4.66,5.8,2.45,7.27,5.98,14.18,7.19,21.83.1.74.18,1.52-.13,2.2-.39.87-1.32,1.36-2.18,1.78-10.93,5.3-22.25,9.73-33.56,14.14-3.15,1.23-6.29,2.46-9.44,3.69-10.92,4.26-21.87,8.54-33.22,11.48-1.36.35-2.79.69-4.17.43-1.68-.31-3.08-1.45-4.35-2.6-12.47-11.38-14.79-26.45-22.1-40.6.13,16.94.25,33.88.38,50.82.03,3.46.05,6.92.08,10.38.03,4.19.15,6.61,2.12,10.43.45.87.9,1.75,1.59,2.44.99.99,2.36,1.47,3.68,1.95,9.25,3.34,18.18,7.51,27.09,11.67,4.84,2.26,9.37,5.06,13.95,7.74,4.07,2.38,8.85,5.13,11.49,9.19l-18.8,9.86s-35.02,19.56-45.21,33.98c0,0-14.57-26.9-38.73-44.71l-6.04-8.24-.78-7.71,3.73-12.29-.17-12.13,1.32-41.79,1.68-61.61.26-64.69c0-3.98,0-7.97,0-11.95,0-.72-.3-2.21,0-2.87.09-.2.2-.35.33-.45Z" style="fill: #fff;"/>
          <polygon points="174.78 358.06 176.74 352 168.3 351.89 139.87 357.33 143.36 370.96 151.64 385.98 162.93 404.16 170.53 412.87 174.91 423.09 176.05 427.19 158.3 424.95 149.65 425.82 132.11 430.29 118.2 437.25 115.09 440.19 147.41 461.2 152.87 463.22 155.55 535.97 157.19 565.13 158.7 576.08 163.93 578.82 171.56 581.24 182.81 581.24 199.75 579.25 207.18 575.35 210.52 568.62 211.65 531.5 212.47 456.19 212.47 437.37 211.04 431.66 217.83 434.96 248.49 443.51 246.8 478.83 246.07 504.97 246.6 525.57 248.05 548.08 248.49 556.39 251.88 559.01 254.87 561.71 264.11 561.55 295.82 554.34 300.56 549.67 301.24 523.64 306.36 434.72 304.18 406.58 299.19 395.51 290.13 389.34 277.55 384.97 263.76 390.97 254.84 395.51 248.79 400.01 244.49 402.68 241.97 405.65 238.86 407.72 237.08 408.61 234.71 410.54 232.63 412.87 227.74 416.17 225.38 418.49 223.29 421.06 221.22 423.29 218.55 424.95 203.28 404.02 187.2 386.09 177.34 378.28 173.79 372 173 368.89 173 364.29 174.78 358.06" style="fill: #4b4c4e;"/>
          <polygon points="178.64 163.17 159.99 185.33 152.87 191.12 146.39 191.12 126.83 179.62 101.1 158.11 102.01 164.36 108.6 208.07 130.1 336.09 134.23 343.54 137.6 356.95 163.82 352.67 176.74 352 176.56 343.55 178.64 271.86 178.64 163.17" style="fill: #1f89bd;"/>
          <path d="M195.98,68.88c.74,2.51,1.26,5.09,1.29,7.71.03,2.27-.31,4.52-.64,6.77-.4,2.69-.55,5.58-1.1,8.22-.56,2.7-2.63,5.13-3.64,7.69-.3.76-.56,1.56-.98,2.26-.34.57-.78,1.07-1.23,1.57-1.39,1.56-2.76,3.15-4.17,4.69-.6-1.47-1.9-2.85-2.75-4.23-.94-1.53-1.79-3.1-2.56-4.72-1.54-3.24-2.74-6.64-3.58-10.12-1.68-6.97-1.92-14.29-.58-21.33.33-1.76.76-3.56.44-5.32-.65-3.56-4.8-5.9-8.12-6.31-6.45-.79-12.9.52-19.06,2.36-2.78.83-5.5,1.97-8.32,2.56-3.03.63-5.94,1.82-8.54,3.5-.93.6-1.82,1.26-2.84,1.68-1.49.62-3.15.69-4.77.75-1.62.06-3.25.12-4.88.18-1.28.05-3.09-.22-4.28.34-1.41.68-3.65,5.13-3.65,6.69-5.23,10.71-7.82,22.05-6.07,33.83-2.3-1.29-5.03-1.78-7.63-1.37-.73.11-1.48.3-2.2.16-1.74-.34-2.58-2.29-3.07-3.99-.88-3.07-1.55-6.21-1.99-9.37-.43-3.1-.18-6.39-.76-9.42-1.15-6.03-1.32-12.14.4-18.12,3.1-10.84,11.89-19.4,21.98-24.44s21.42-6.99,32.64-8.2c2.69-.29,5.41-.54,8.11-.25,5.16.56,9.76,3.07,13.71,6.33,3.92,3.23,6.6,8.49,10.54,11.41,3.42,2.52,7.74,2.64,11.12,5.97,3.45,3.4,5.82,7.93,7.18,12.55Z" style="fill: #ff6d04;"/>
          <path d="M245.69,442.6c.66.14,1.4.33,1.75.9.2.33.24.72.27,1.1.98,11.42.38,22.98-1.78,34.23-11.13,2.51-22.01,6.1-32.44,10.72-.11-13.18-.21-26.37-.32-39.55-.02-2.96-.05-5.93-.26-8.89-.18-2.49-1.62-6.41-1.08-8.67,5.57,1.27,11.08,4.05,16.59,5.73,5.68,1.73,11.44,3.2,17.25,4.43Z" style="fill: #ffb27a;"/>
          <path d="M212.76,549.23c-.11.08-.23.16-.37.15-.27-.01-.4-.33-.46-.59-.61-2.62-.53-5.41.23-7.99.04-.15,4.38-1.5,4.71-1.44,1.46.27,1.12,1.72.8,2.87-.77,2.78-2.56,5.32-4.91,6.99Z" style="fill: #4b4c4e;"/>
          <path d="M109.07,570.87c-2.8,2.7-6.96,3.8-10.8,3.17-2.8-.46-5.49-1.84-7.32-4.01-1.83-2.17-2.74-5.16-2.18-7.95,1.6,1.66,4.3,1.33,6.57.87,2.82-.57,5.64-1.14,8.47-1.72,1.73-.35,5.9-2.04,7.52-1.21,3.53,1.81-.54,9.14-2.25,10.85Z" style="fill: #4b4c4e;"/>
          <path d="M115.93,530.45c-1.02.1-1.91.83-2.94.87-1.09.04-2.03-.68-2.86-1.38-.96-.81-5.99-5.94-2.3-5.76,1.42.07,2.49,1.49,3.41,2.37,1.47,1.41,3.04,2.72,4.7,3.9Z" style="fill: #4b4c4e;"/>
          <g>
            <path d="M178.63,51.95s-16.84-36.15-71-8.29c0,0-30.75,16.4-11.42,63.51" style="fill: none; fill-rule: evenodd; stroke: #2e3138; stroke-linecap: round; stroke-miterlimit: 10; stroke-width: 3px;"/>
            <path d="M178.65,50.52c6.42,1.68,11.61,6.74,14.59,12.67,2.97,5.94,3.94,12.69,4.05,19.33.12,7.27-5.69,18.44-9.48,24.63" style="fill: none; fill-rule: evenodd; stroke: #2e3138; stroke-linecap: round; stroke-miterlimit: 10; stroke-width: 3px;"/>
            <path d="M177.21,62.98c-6.44-12.46-25.01-7.08-34.03-3.29-4.04,1.7-7.8,4.02-11.87,5.63-9.56,3.79-21.29,3.12-29.19-3.45" style="fill: none; fill-rule: evenodd; stroke: #2e3138; stroke-linecap: round; stroke-miterlimit: 10; stroke-width: 3px;"/>
            <path d="M133.56,53.77c-1.31.84-2.77,1.45-4.28,1.85-4.78,1.27-10.09.36-14.18-2.41" style="fill: none; fill-rule: evenodd; stroke: #2e3138; stroke-linecap: round; stroke-miterlimit: 10; stroke-width: 3px;"/>
            <path d="M160.17,46.42c-3.7-.98-7.74-.62-11.21,1" style="fill: none; fill-rule: evenodd; stroke: #2e3138; stroke-linecap: round; stroke-miterlimit: 10; stroke-width: 3px;"/>
            <path d="M184.11,65.03c2.41,3.34,3.72,7.46,3.68,11.58" style="fill: none; fill-rule: evenodd; stroke: #2e3138; stroke-linecap: round; stroke-miterlimit: 10; stroke-width: 3px;"/>
            <path d="M182.06,80.92c-.69,5.34,1.14,10.66,2.95,15.73" style="fill: none; fill-rule: evenodd; stroke: #2e3138; stroke-linecap: round; stroke-miterlimit: 10; stroke-width: 3px;"/>
            <path d="M177.21,62.98c-1.1,10.31-2.16,21.04,1.38,30.78,1.72,4.74,4.47,9.03,7.36,13.15" style="fill: none; fill-rule: evenodd; stroke: #2e3138; stroke-linecap: round; stroke-miterlimit: 10; stroke-width: 3px;"/>
            <path d="M115.09,68.36c-7.64,11.99-10.67,26.84-8.33,40.86" style="fill: none; fill-rule: evenodd; stroke: #2e3138; stroke-linecap: round; stroke-miterlimit: 10; stroke-width: 3px;"/>
            <path d="M106.1,107.66c-2.08-.54-4.2-1.04-6.34-.98-2.15.06-4.35.73-5.87,2.24-1.43,1.43-2.12,3.51-2.09,5.54.03,2.03.72,4,1.73,5.76.7,1.22,1.55,2.36,2.58,3.33,3,2.81,7.17,3.9,11.16,4.89" style="fill: none; fill-rule: evenodd; stroke: #2e3138; stroke-linecap: round; stroke-miterlimit: 10; stroke-width: 3px;"/>
            <path d="M105.24,116.15c-.36-.76-1.02-1.39-1.82-1.61-.81-.22-1.75.02-2.28.66-.53.65-.55,1.69.03,2.3" style="fill: none; fill-rule: evenodd; stroke: #2e3138; stroke-linecap: round; stroke-miterlimit: 10; stroke-width: 3px;"/>
            <path d="M179.42,139.67c-.75,5.86-.32,15.76-.7,21.63" style="fill: none; fill-rule: evenodd; stroke: #2e3138; stroke-linecap: round; stroke-miterlimit: 10; stroke-width: 3px;"/>
            <path d="M101.1,126.62c.29,11.93.49,17.27.78,29.19" style="fill: none; fill-rule: evenodd; stroke: #2e3138; stroke-linecap: round; stroke-miterlimit: 10; stroke-width: 3px;"/>
            <path d="M170.77,87.03c-.73-.95-1.87-1.52-3.05-1.75-1.18-.23-2.39-.15-3.58.02-.93.13-1.91.33-2.62.95" style="fill: none; fill-rule: evenodd; stroke: #2e3138; stroke-linecap: round; stroke-miterlimit: 10; stroke-width: 3px;"/>
            <path d="M127.66,84.95c-2.58-1.84-6.25-2.01-8.98-.41" style="fill: none; fill-rule: evenodd; stroke: #2e3138; stroke-linecap: round; stroke-miterlimit: 10; stroke-width: 3px;"/>
            <path d="M149.25,101.2c.24,4.22.52,8.55,2.28,12.39.48,1.04,1.06,2.06,1.18,3.19.17,1.64-.71,3.27-2.01,4.29s-2.95,1.49-4.59,1.64c-2.38.23-5.25-.49-6.08-2.73" style="fill: none; fill-rule: evenodd; stroke: #2e3138; stroke-linecap: round; stroke-miterlimit: 10; stroke-width: 3px;"/>
            <path d="M144.61,147.05c1.16.36,2.46.28,3.56-.23" style="fill: none; fill-rule: evenodd; stroke: #2e3138; stroke-linecap: round; stroke-miterlimit: 10; stroke-width: 3px;"/>
            <circle cx="166.14" cy="101.65" r="3.68" style="fill: #2e3138;"/>
            <circle cx="123.17" cy="101.65" r="3.68" style="fill: #2e3138;"/>
            <path d="M152.2,155.81c3.21-.02,13.32-3.61,17.18-6.14,2.73-1.79,7.73-5.35,9.46-8.59,0,0,6.56-14.82,6.17-32.81" style="fill: none; fill-rule: evenodd; stroke: #2e3138; stroke-linecap: round; stroke-miterlimit: 10; stroke-width: 3px;"/>
            <path d="M178.64,163.17c-4.09,8.96-14.89,18.49-21.88,25.24-1.55,1.5-3.28,2.98-5.87,3.11-2.37.12-5.13-.93-7.76-2-16.34-6.69-26.91-20.65-42.03-31.41" style="fill: none; fill-rule: evenodd; stroke: #2e3138; stroke-linecap: round; stroke-miterlimit: 10; stroke-width: 3px;"/>
            <path d="M176.57,340.8c-.09.49,14.59-72.64,25.39-100.98.55-1.44,1.13-2.93,1.16-4.56.03-1.43-.38-2.83-.81-4.17-2.85-8.95-7-17.23-12.14-24.25,2.46-5.46,4.91-10.91,7.37-16.37.45-1,.92-2.11.78-3.28-.1-.86-.51-1.61-.9-2.32-5.55-9.9-11.43-19.5-17.6-28.76,0,0,.3,165.14-3.26,184.7Z" style="fill: none; fill-rule: evenodd; stroke: #2e3138; stroke-linecap: round; stroke-linejoin: round; stroke-width: 3px;"/>
            <path d="M134.23,343.54c.41,1.09-34.7-70.07-52.56-105.27-.99-1.96-.44-4.44.18-6.55.63-2.12,2.03-3.91,3.41-5.65,4.67-5.89,9.35-11.77,14.02-17.66-4.52-4.44-9.03-8.89-13.55-13.33,6.84-11.26,8.54-25.72,15.38-36.98,0,0,22.61,157.6,33.13,185.43Z" style="fill: none; fill-rule: evenodd; stroke: #2e3138; stroke-linecap: round; stroke-miterlimit: 10; stroke-width: 3px;"/>
            <path d="M107.26,135.58c2.91,8.17,9.21,14.82,16.79,17.72,2.54.97,5.19,1.53,7.85,1.99,4.79.82,9.64,1.28,14.49,1.4" style="fill: none; fill-rule: evenodd; stroke: #2e3138; stroke-linecap: round; stroke-miterlimit: 10; stroke-width: 3px;"/>
            <path d="M53.31,312.52c3.87-6.77,7.01-13.96,9.33-21.41,3.96-12.72,5.6-26.27,11.63-38.15" style="fill: none; fill-rule: evenodd; stroke: #2e3138; stroke-linecap: round; stroke-miterlimit: 10; stroke-width: 3px;"/>
            <path d="M221.86,235.48c.29,36.91.59,73.82.88,110.72" style="fill: none; fill-rule: evenodd; stroke: #2e3138; stroke-linecap: round; stroke-miterlimit: 10; stroke-width: 3px;"/>
            <path d="M100.42,147.57c-12.21.29-24.4,1.46-36.45,3.48-12.67,2.13-25.94,5.64-34.73,15.01-10.64,11.35-12.08,28.32-12.25,43.87-.18,16.82-.13,26.27,1.33,43.02" style="fill: none; stroke: #2e3138; stroke-linecap: round; stroke-miterlimit: 10; stroke-width: 3px;"/>
            <path d="M23.79,352c.56,14.79,1.11,29.58,1.67,44.37.12,3.13.24,6.29,1.11,9.3.87,2.99,2.45,5.72,4.15,8.32,7.29,11.15,51.86,55.7,54.57,57.69,4.09,3.01,10.71,1.95,15.42,1.41,17.09-1.95,33.99-5.55,50.39-10.73" style="fill: none; stroke: #2e3138; stroke-linecap: round; stroke-miterlimit: 10; stroke-width: 3px;"/>
            <path d="M214.23,354.46c-8.89-.31-17.82,1.16-26.27,4.31" style="fill: none; stroke: #2e3138; stroke-linecap: round; stroke-miterlimit: 10; stroke-width: 3px;"/>
            <path d="M225.38,349.99c17.8,5.78,43.39,20.9,58.43,32.05-24.71,8.45-47.17,23.39-64.52,42.92-9.95-14.06-20.03-28.26-32.96-39.63-6.06-5.33-13.31-11.18-13.33-19.24-.02-7.25,6.09-14.28,3.6-21.09" style="fill: none; stroke: #2e3138; stroke-linecap: round; stroke-linejoin: round; stroke-width: 3px;"/>
            <path d="M44.17,365c2.38,12.44-4.46,28.83-3.81,41.48.67,12.98,9.12,24.13,17.75,33.85,8.08,9.1,16.64,17.77,25.64,25.96.98.89,2.04,1.81,3.34,2.01,2.84.43,4.85-2.59,6.25-5.11,15.65-28.29,51.35-43.83,82.72-36-1.71-8.75-7.81-15.87-13.12-23.03-13.08-17.63-22.5-37.96-27.49-59.33" style="fill: none; stroke: #2e3138; stroke-linecap: round; stroke-linejoin: round; stroke-width: 3px;"/>
            <path d="M129.34,360.73c-6.64-1.1-13.51-.83-20.04.8" style="fill: none; stroke: #2e3138; stroke-linecap: round; stroke-miterlimit: 10; stroke-width: 3px;"/>
            <path d="M279.9,385.75c8.97,1.48,17.19,6.99,21.95,14.73,4.04,6.56,4.87,24.14,4.59,31.85-.89,24.61-1.84,43.65-3.56,62.26-.94,10.16-1.45,20.33-1.69,30.53-.1,4.45-.2,8.9-.4,13.35-.17,3.89,1.24,11.49-1.91,14.34-.86.78-1.98,1.17-3.08,1.53-9.2,3.06-18.67,5.32-28.26,6.77-3.93.59-8.01,1.04-11.81-.11-4.01-1.22-7.07-4.23-7.37-8.39-.39-5.51-.91-11.1-1.26-16.65-.75-11.66-.94-23.35-1.12-35.04-.28-17.63,2.77-39.78,2.49-57.41-17.88-4.06-24.24-4.8-38.43-12.36" style="fill: none; stroke: #2e3138; stroke-linecap: round; stroke-miterlimit: 10; stroke-width: 3px;"/>
            <path d="M151.83,376.27c21.18,12.99,51.7,35.09,58.24,54.88,3.21,9.73,2.31,8.51,2.38,18.75.11,18.2.22,36.41.02,54.61-.1,9.19-.27,18.38-.56,27.57-.29,9.14-1.32,18.4-1.26,27.53.03,4.75,1.15,8.75-2,13.05-2.62,3.58-7.19,5.07-11.5,6.14-6.47,1.61-13.11,2.75-19.77,2.57-3.87-.11-7.75-.68-11.45-1.85-1.84-.58-3.64-1.3-5.35-2.19-2.31-1.19-2.4-1.57-2.65-4.14-.87-8.96-1.55-17.94-2.14-26.92-1.17-17.57-1.88-35.16-2.34-52.76-.26-10.09-.44-20.19-.57-30.29" style="fill: none; stroke: #2e3138; stroke-linecap: round; stroke-miterlimit: 10; stroke-width: 3px;"/>
            <path d="M152.87,463.22c-10.63-3.25-19.73-10.11-28.57-16.85-2.71-2.06-5.41-4.12-8.12-6.18" style="fill: none; stroke: #2e3138; stroke-linecap: round; stroke-miterlimit: 10; stroke-width: 3px;"/>
            <path d="M161.05,367.19c-1.95,3.69-3.89,7.39-5.84,11.09" style="fill: none; stroke: #2e3138; stroke-linecap: round; stroke-miterlimit: 10; stroke-width: 3px;"/>
            <path d="M175.56,352.08c-4.65-.55-9.34.19-13.95.94-8.1,1.31-13.02,2.27-21.11,3.57" style="fill: none; stroke: #2e3138; stroke-linecap: round; stroke-miterlimit: 10; stroke-width: 3px;"/>
            <path d="M215.23,445.35c3.16-1.75,6.6-3,10.15-3.69" style="fill: none; stroke: #2e3138; stroke-linecap: round; stroke-miterlimit: 10; stroke-width: 3px;"/>
            <path d="M245.39,479.8c-8.73,1.43-12.28,2.08-17.86,4.79-2.89,1.41-11.9,4.57-14.96,5.55" style="fill: none; stroke: #2e3138; stroke-linecap: round; stroke-miterlimit: 10; stroke-width: 3px;"/>
            <path d="M152.87,500.42c-8.05,3.06-13.02,4.5-21.34,6.71-14.47,3.84-30.16,6.31-44.18,1.04-7.06-2.65-13.27-7.12-19.21-11.75-6.05-4.72-11.92-9.67-17.3-15.14-7.81-7.94-14.5-16.9-21.16-25.83-3.15-4.22-6.33-8.5-8.38-13.36-1.52-3.59-2.38-7.42-3.16-11.23-6-29.28-1.17-52.58-5.28-89.2" style="fill: none; stroke: #2e3138; stroke-linecap: round; stroke-miterlimit: 10; stroke-width: 3px;"/>
            <path d="M100.75,142.06c-23.36,1.29-45.33,4.87-67.99,10.68-10.81,2.77-22.58,6.91-27.81,16.76-2.99,5.64-3.62,12.28-3.41,18.67.81,25.27,2.99,52.12,6.29,102.36" style="fill: none; stroke: #2e3138; stroke-linecap: round; stroke-miterlimit: 10; stroke-width: 3px;"/>
            <path d="M253.61,562.38c-.47,14.54,6.04,20.55,9.15,24.95,2.3,3.24,4.59,6.49,6.89,9.73,1.95,2.75,4.06,5.99,6.58,8.25,2.1,1.88,4.77,3.54,7.49,4.33,1.22.35,8.23,1.31,9.88,1.46,6.04.54,11.17.11,17.06-1.45,2.68-.71,5.28-1.71,7.72-3.03,2.06-1.12,4.09-2.57,5.06-4.7.86-1.9.76-4.09.45-6.15-.74-4.99-2.66-9.87-5.92-13.71-3.26-3.84-7.94-6.58-12.96-7.05" style="fill: none; stroke: #2e3117; stroke-linecap: round; stroke-miterlimit: 10; stroke-width: 3px;"/>
            <path d="M307.9,574.84c-4.59-5.13-7.18-15.66-12.08-20.5" style="fill: none; stroke: #2e3117; stroke-linecap: round; stroke-miterlimit: 10; stroke-width: 3px;"/>
            <path d="M323.71,594.6c1.34,4.61,3.32,13.28-5.15,19.24-3.93,2.76-8.89,3.54-13.67,3.93-3.9.31-7.83.37-11.74.19-3.51-.17-7.05-.34-10.35-1.66-6.03-2.41-9.2-7.59-12.79-12.69-3.89-5.53-7.6-11.19-11.11-16.97-3.03-5-6.42-13.28-5.49-19.05" style="fill: none; stroke: #2e3117; stroke-linecap: round; stroke-miterlimit: 10; stroke-width: 3px;"/>
            <path d="M293.6,564.37c-4.19,2.15-7.97,5.1-11.06,8.66" style="fill: none; stroke: #2e3117; stroke-linecap: round; stroke-miterlimit: 10; stroke-width: 3px;"/>
            <path d="M298.98,572.1c-5.71-3.44-12.73-3.56-19.28-4.78" style="fill: none; stroke: #2e3117; stroke-linecap: round; stroke-miterlimit: 10; stroke-width: 3px;"/>
            <path d="M291.55,580.81c-5.14.12-9.98,3.86-11.4,8.8" style="fill: none; stroke: #2e3117; stroke-linecap: round; stroke-miterlimit: 10; stroke-width: 3px;"/>
            <path d="M161.81,579.25c-.47,14.54,6.04,20.55,9.15,24.95l6.89,9.73c1.95,2.75,4.06,5.99,6.58,8.25,2.1,1.88,4.77,3.54,7.49,4.33,1.22.35,8.23,1.31,9.88,1.46,6.04.54,11.17.11,17.06-1.45,2.68-.71,5.28-1.71,7.72-3.03,2.06-1.12,4.09-2.57,5.06-4.7.86-1.9.76-4.09.45-6.15-.74-4.99-2.66-9.87-5.92-13.71s-7.94-6.58-12.96-7.05" style="fill: none; stroke: #2e3117; stroke-linecap: round; stroke-miterlimit: 10; stroke-width: 3px;"/>
            <path d="M216.1,591.72c-4.59-5.13-4.91-8.46-9.81-13.3" style="fill: none; stroke: #2e3117; stroke-linecap: round; stroke-miterlimit: 10; stroke-width: 3px;"/>
            <path d="M231.91,611.47c1.34,4.61,3.32,13.28-5.15,19.24-3.93,2.76-8.89,3.54-13.67,3.93-3.9.31-7.83.37-11.74.19-3.51-.17-7.05-.34-10.35-1.66-6.03-2.41-9.2-7.59-12.79-12.69-3.89-5.53-7.6-11.19-11.11-16.97-3.03-5-6.42-13.28-5.49-19.05" style="fill: none; stroke: #2e3117; stroke-linecap: round; stroke-miterlimit: 10; stroke-width: 3px;"/>
            <path d="M201.8,581.24c-4.19,2.15-7.97,5.1-11.06,8.66" style="fill: none; stroke: #2e3117; stroke-linecap: round; stroke-miterlimit: 10; stroke-width: 3px;"/>
            <path d="M207.18,588.97c-5.71-3.44-12.73-3.56-19.28-4.78" style="fill: none; stroke: #2e3117; stroke-linecap: round; stroke-miterlimit: 10; stroke-width: 3px;"/>
            <path d="M199.75,597.68c-5.14.12-9.98,3.86-11.4,8.8" style="fill: none; stroke: #2e3117; stroke-linecap: round; stroke-miterlimit: 10; stroke-width: 3px;"/>
            <path d="M136.43,507.68c1.94,11.78,2.19,23.72.75,35.55-.26,4.27,10.61,7.59,17.04,7.38" style="fill: none; stroke: #2e3117; stroke-linecap: round; stroke-miterlimit: 10; stroke-width: 3px;"/>
            <path d="M134.11,542.74c-12.17.65-24.31,2.72-36.23,6.19-3.31.96-6.8,2.17-9.19,5.47-.51.7-.97,1.52-1.15,2.49-.44,2.36,1,4.77,2.69,5.5,1.69.74,3.51.26,5.25-.21,16.63-4.51,43.21-7.15,60.08-9.42" style="fill: none; stroke: #2e3117; stroke-linecap: round; stroke-miterlimit: 10; stroke-width: 3px;"/>
            <path d="M136.92,530.69c-6.87-5.94-14.73-10.72-23.17-14.08-1.62-.65-3.35-1.25-5.08-.99-1.73.26-3.41,1.68-3.35,3.42.05,1.57,1.38,2.75,2.61,3.72,8.75,6.92,17.89,13.35,27.35,19.25" style="fill: none; stroke: #2e3117; stroke-linecap: round; stroke-miterlimit: 10; stroke-width: 3px;"/>
            <path d="M112.13,560.03c2.57,5.54-1.28,13.01-7.28,14.14s-12.3-4.44-11.91-10.53" style="fill: none; stroke: #2e3117; stroke-linecap: round; stroke-miterlimit: 10; stroke-width: 3px;"/>
            <path d="M88.24,561.89c-.36,4.15,1.53,8.42,4.84,10.94,3.31,2.52,7.93,3.22,11.83,1.78" style="fill: none; stroke: #2e3117; stroke-linecap: round; stroke-miterlimit: 10; stroke-width: 3px;"/>
            <path d="M106.33,562.06c.94.6,1.14,2,.62,2.99-.53.99-1.61,1.58-2.7,1.78-.34.06-.69.09-1.02,0-.42-.12-.75-.44-1.04-.77-.46-.53-.84-1.15-.97-1.83-.14-.69,0-1.45.47-1.97" style="fill: none; stroke: #2e3117; stroke-linecap: round; stroke-miterlimit: 10; stroke-width: 3px;"/>
            <path d="M106.34,522.6c-.18,2.05.45,4.17,1.73,5.79,1.28,1.62,3.18,2.73,5.22,3.04.72.11,1.47.12,2.15-.13" style="fill: none; stroke: #2e3117; stroke-linecap: round; stroke-miterlimit: 10; stroke-width: 3px;"/>
            <path d="M150.53,553.69c2.16,1.04,4.23,2.24,6.2,3.61" style="fill: none; stroke: #2e3117; stroke-linecap: round; stroke-miterlimit: 10; stroke-width: 3px;"/>
            <path d="M212.57,531.5c1.58-.98,6.48.61,6.86,2.43.38,1.82-.72,3.7-2.23,4.79-1.51,1.09-3.37,1.56-5.18,2" style="fill: none; stroke: #2e3117; stroke-linecap: round; stroke-miterlimit: 10; stroke-width: 3px;"/>
            <path d="M218.74,537.86c1.23,4.95-2.15,10.57-7.09,11.82" style="fill: none; stroke: #2e3117; stroke-linecap: round; stroke-miterlimit: 10; stroke-width: 3px;"/>
            <g>
              <path d="M128.64,373.01c2.62.14,5.29.29,7.76,1.19,5.28,1.91,8.88,6.91,13.98,9.26,1,.46,2.26,1.15,2.08,2.24-.06.39-.31.72-.59,1-1.6,1.64-4.13,2.02-6.39,1.69-2.26-.33-4.39-1.26-6.59-1.9-.4-.12-.96-.15-1.11.24-.1.25.06.53.23.74,1.18,1.4,3.25,1.49,4.98,2.09,1.27.43,2.4,1.17,3.52,1.91,3.76,2.49,7.44,5.09,11.05,7.8,1.03.77,2.1,1.62,2.5,2.84.09.29.14.6.05.88-.19.55-.84.77-1.41.88-1.78.36-3.61.42-5.41.17.41,1.31,1.98,1.76,3.27,2.24,1.29.48,2.69,1.7,2.16,2.97-.37.89-1.58,1.29-1.79,2.23-.07.29-.03.59-.03.88-.04,2.19-2.37,3.56-4.48,4.17-2.62.75-5.39,1.01-8.1.76-.31-.03-.66-.06-.92.11-.35.23-.42.69-.61,1.06-.58,1.1-2.1,1.17-3.35,1.08-2.79-.2-5.59-.39-8.32-.96-5.32-1.1-10.25-3.57-14.94-6.3-1.06-.62-2.12-1.26-3.14-1.96-3.17-2.18-5.93-4.97-8.07-8.17-.42-.63-.83-1.29-1.01-2.02-.32-1.31.11-2.7.83-3.84.72-1.14,1.7-2.09,2.6-3.09,2.26-2.49,4.08-5.38,5.36-8.49,1.04-2.52,1.73-5.2,3.1-7.55.92-1.58,2.66-4.23,4.61-4.57,2.47-.44,5.69.29,8.2.43Z" style="fill: #fff;"/>
              <g>
                <path d="M119.49,373.07c4.59.16,7.9.56,12.49.72,1.24.04,2.5.09,3.69.45,1.44.43,2.7,1.3,3.93,2.16,3.23,2.24,6.45,4.48,9.68,6.71,1.05.73,2.19,1.6,2.36,2.86.22,1.58-1.3,2.97-2.88,3.22-1.58.25-3.4.11-4.64-.89-2.57-2.08-5.67-1.16-8.11-2.08" style="fill: none; stroke: #2e3138; stroke-linecap: round; stroke-miterlimit: 10; stroke-width: 3px;"/>
                <path d="M136.01,386.22c7.02,4.65,14.26,8.99,21.67,13,1.37.74,2.96,1.87,2.72,3.41-.25,1.55-2.18,2.14-3.75,2.16-4.21.06-8.26-1.49-12.1-3.21-4.9-2.2-9.67-4.7-14.26-7.5" style="fill: none; stroke: #2e3138; stroke-linecap: round; stroke-miterlimit: 10; stroke-width: 3px;"/>
                <path d="M133.63,396.06c7.83,4.13,17.26,8.66,25.64,11.5.75,1.46-.33,3.33-1.83,4-1.5.67-3.23.46-4.85.18-8.31-1.46-16.33-4.67-23.2-9.56" style="fill: none; stroke: #2e3138; stroke-linecap: round; stroke-miterlimit: 10; stroke-width: 3px;"/>
                <path d="M149.31,411.04c1.73.25,3.46.49,5.19.74.76.11,1.6.27,2.04.9.65.94-.06,2.25-.96,2.95-2.07,1.61-4.92,1.69-7.54,1.53-6.13-.38-12.19-1.68-17.93-3.87-2.16-.82-4.33-1.81-5.94-3.48" style="fill: none; stroke: #2e3138; stroke-linecap: round; stroke-miterlimit: 10; stroke-width: 3px;"/>
                <path d="M136.53,415.33c1.33.33,3.67,1.13,5.01,1.47.85.21,1.91.7,1.81,1.57-.08.71-.9,1.06-1.6,1.22-2.15.49-4.39.59-6.58.28-2.12-.3-4.16-.96-6.18-1.67-5.08-1.78-10.1-3.86-14.56-6.87-4.46-3-8.38-7-10.63-11.88" style="fill: none; stroke: #2e3138; stroke-linecap: round; stroke-miterlimit: 10; stroke-width: 3px;"/>
              </g>
            </g>
            <path d="M101.1,158.11s-43.12,11.27-53.5,25.35c-15.12,20.5-55.02,132.07-39.02,152.08,16.01,20.01,92.15,66.7,92.15,66.7l18.76-29.17s-55.54-50.87-70.21-60.88" style="fill: none; fill-rule: evenodd; stroke: #2e3138; stroke-linecap: round; stroke-miterlimit: 10; stroke-width: 3px;"/>
            <path d="M179.82,156.1s44.1,16.68,54.1,28.02c10.01,11.34,38.14,87.66,38.14,87.66" style="fill: none; stroke: #2e3138; stroke-linecap: round; stroke-miterlimit: 10; stroke-width: 3px;"/>
            <path d="M222.75,274.7s14.33,43.08,25.43,44.95c11.09,1.88,83.2-30.66,83.2-30.66l-9.4-31.46c-41.61,6.54-53.36,15.7-53.36,15.7" style="fill: none; stroke: #2e3138; stroke-linecap: round; stroke-miterlimit: 10; stroke-width: 3px;"/>
            <path d="M362.41,269.15c7.92-1.61,16.27-1.07,23.92,1.54,1.1.38,2.4,1.12,2.26,2.28-.05.45-.34.85-.67,1.16-1.52,1.45-3.86,1.49-5.96,1.44-3.01-.07-6.02-.15-9.03-.22-3.23-.08-6.58-.13-9.53,1.17-1.88.83-3.49,2.16-5.22,3.27-7.91,5.12-17.87,5.59-27.29,5.89" style="fill: none; stroke: #2e3138; stroke-linecap: round; stroke-miterlimit: 10; stroke-width: 3px;"/>
            <path d="M358.36,246.41c8.41-3.24,17.57-3.82,26.57-4.35,1.93-.12,4.34.05,5.09,1.83.4.95.13,2.07-.41,2.95-1.82,2.99-5.9,3.45-9.4,3.59l-6.18.25c-3.75.15-10.65,2.72-14.28,3.68" style="fill: none; stroke: #2e3138; stroke-linecap: round; stroke-miterlimit: 10; stroke-width: 3px;"/>
            <path d="M385.18,257.44c1.89.07,5.48,1.33,7,2.45,1.02.75,1.95,2.07,1.39,3.2-.35.69-1.13,1.03-1.88,1.22-3.61.91-7.35-.45-11.05-.81-5.64-.54-12.86,3.85-18.23,5.65" style="fill: none; stroke: #2e3138; stroke-linecap: round; stroke-miterlimit: 10; stroke-width: 3px;"/>
            <path d="M385.36,249.75c2.01-.18,6.18.46,8.18.72,1.03.13,2.13.37,2.82,1.15,1.12,1.28.45,3.44-.92,4.44-1.37,1-3.17,1.15-4.87,1.21-3.03.1-6.06.03-9.08-.22-.54-.05-1.09-.1-1.62,0-.65.11-3.84,1.05-4.5,1.16-6.24,1.01-8.82,1.95-14.26,2.33" style="fill: none; stroke: #2e3138; stroke-linecap: round; stroke-miterlimit: 10; stroke-width: 3px;"/>
            <path d="M322.94,256.58c2.73-1.92,5.47-3.83,8.2-5.75,1.32-.93,2.65-1.86,3.83-2.95.77-.71,1.47-1.49,2.23-2.21,3.83-3.68,8.87-5.92,14.05-7.12,5.18-1.2,10.53-1.43,15.84-1.53.8-.02,1.69.01,2.24.59.69.72.46,1.91.01,2.81-1.16,2.34-3.4,4.01-5.81,5.01-2.41,1-5.03,1.41-7.61,1.82-.41.06-.84.14-1.15.41-.31.27-.45.69-.57,1.09-2.25,6.97-7.28,13.26-14.13,15.86" style="fill: #fff; stroke: #2e3138; stroke-linecap: round; stroke-miterlimit: 10; stroke-width: 3px;"/>
            <path d="M355.9,259.35c1.28,2.91,1.79,6.16,1.47,9.33" style="fill: none; stroke: #2e3138; stroke-linecap: round; stroke-miterlimit: 10; stroke-width: 3px;"/>
            <path d="M156.96,134.8c0-.1.01-.2.01-.31.03-.86-.09-1.79-.61-2.42-1.42-1.71-5.2-.78-7.02-.74l-10.16.2c-2.56.05-5.63.12-5.21,4.05.78,7.19,10.16,7.59,14.84,6.85,4.04-.63,7.83-2.55,8.14-7.63Z" style="fill: none; fill-rule: evenodd; stroke: #2e3138; stroke-linecap: round; stroke-miterlimit: 10; stroke-width: 3px;"/>
            <path d="M74.35,281.4c-.01,5.58-2.71,32.86-3.79,38.33" style="fill: none; fill-rule: evenodd; stroke: #2e3138; stroke-linecap: round; stroke-miterlimit: 10; stroke-width: 3px;"/>
          </g>
          <g>
            <path d="M88.42,242.83s-26.66-83.09,11.56-90.41l.55,3.31s-30.76,4.48-7.43,87.17" style="fill: #a0a0a1; stroke: #2e3138; stroke-miterlimit: 10; stroke-width: 3px;"/>
            <g>
              <path d="M104.95,255.1c-.1,6.64-5.56,11.95-12.2,11.85-6.64-.1-11.95-5.56-11.85-12.2.1-6.64,5.56-11.95,12.2-11.85,6.64.1,11.95,5.56,11.85,12.2Z" style="fill: #fff; stroke: #2e3138; stroke-miterlimit: 10; stroke-width: 3px;"/>
              <path d="M100.91,255.04c-.06,4.41-3.69,7.94-8.1,7.87-4.41-.06-7.94-3.69-7.87-8.1.06-4.41,3.69-7.94,8.1-7.87,4.41.06,7.94,3.69,7.87,8.1Z" style="fill: #a0a0a1; stroke: #2e3138; stroke-miterlimit: 10; stroke-width: 3px;"/>
            </g>
            <path d="M179.9,149.69s26.24,21.8,20.62,54.64c0,0,41.35,6.16,2.16,66.57l-2.83-2.92s35.6-51.14-2.36-61-21.17,52.69-21.17,52.69l-3.23.14s-18.69-59.83,20.94-57.25c0,0,10.59-18.3-13.18-47.03l-.95-5.83Z" style="fill: #a0a0a1; stroke: #2e3138; stroke-miterlimit: 10; stroke-width: 3px;"/>
            <path d="M202.81,271.47c-.4,1.31-1.79,2.05-3.1,1.65-1.31-.4-2.05-1.79-1.65-3.1.4-1.31,1.79-2.05,3.1-1.65,1.31.4,2.05,1.79,1.65,3.1Z" style="fill: #a0a0a1; stroke: #2e3138; stroke-miterlimit: 10; stroke-width: 3px;"/>
            <path d="M177.42,261.13c-.4,1.31-1.79,2.05-3.1,1.65-1.31-.4-2.05-1.79-1.65-3.1.4-1.31,1.79-2.05,3.1-1.65,1.31.4,2.05,1.79,1.65,3.1Z" style="fill: #a0a0a1; stroke: #2e3138; stroke-miterlimit: 10; stroke-width: 3px;"/>
          </g>
          <g>
            <path d="M487.36,568.9c-2.29,4.55-5.4,8.68-9.14,12.13-.65.6-1.33,1.19-1.93,1.85-1.09,1.2-1.92,2.62-2.99,3.83-2.55,2.88-6.31,4.41-10.03,5.39-1.5.4-3.03.72-4.59.78-3.31.12-6.52-1-9.6-2.22-.33-.13-.68-.27-1.03-.21s-.68.39-.59.74c.04.18.18.31.32.44,2.77,2.46,6.74,2.88,10.43,3.2,3.81.32,7.81.62,11.32-.91,1.01-.44,1.95-1.02,2.89-1.6,1.47-.91,2.95-1.82,4.42-2.73,1.35-.83,7.26-8.03,8.81-10.77,1.26-2.23,2.8-4.3,3.88-6.62.76-1.63,1.95-4.69,1.15-6.49-.98-2.21-2.84,2.24-3.33,3.21Z" style="fill: #fff;"/>
            <path d="M484.92,506.91c1.73.28,3.57.82,4.63,2.13,1.6,2,.66,6.45.47,8.88-.26,3.28-.54,6.58-.87,9.87-.47,4.76-.14,9.58-.64,14.34-.11,1.05-.26,2.11-.24,3.17.03,1.14.46,2.03.09,3.12-.66,1.93-1.65,3.71-2.82,5.36-2.42,3.41-5.5,6.27-8.46,9.2-1.22,1.21-2.5,2.38-3.52,3.78-.65.9-1.2,1.9-2.03,2.64-.82.72-1.85,1.14-2.86,1.54-1.1.44-2.2.88-3.31,1.32-.23.09-.47.19-.72.19-.35,0-.67-.15-.98-.3-2.83-1.38-5.81-2.42-8.88-3.11,2.08-3.31,4.16-6.61,6.24-9.92.93-1.48,1.87-2.98,2.44-4.64.54-1.56.74-3.22.88-4.87.61-7.26.11-14.56-.38-21.83-.28-4.15-.57-8.3-.85-12.45-.14-2.05-1.9-9.4.45-10.54.71-.34,1.54-.26,2.32-.17,5.81.68,11.62,1.36,17.43,2.04.5.06,1.05.12,1.6.22Z" style="fill: #fff;"/>
            <path d="M477.85,563.26c-2.28,2.18-4.56,4.35-6.93,6.43-1.49,1.31-3.12,2.62-5.08,2.94-2.42.39-4.77-.83-7.05-1.74-2.28-.91-5.08-1.46-7.02.03-.68.52-1.18,1.24-1.66,1.95-2.2,3.23-4.41,6.45-6.61,9.68-.24.35-.49.72-.51,1.15-.02.41.18.8.4,1.15,1.55,2.5,4.21,4.16,7.02,5.03s5.79,1,8.73,1.01c3.18,0,6.44-.15,9.35-1.43,3.7-1.62,6.41-4.85,8.97-7.96,1.13-1.38,2.27-2.76,3.4-4.13,3.16-3.84,6.33-7.69,8.93-11.93,1.75-2.87,3.28-6.12,2.89-9.46-.23-2-1.19-3.89-2.62-5.3-.32-.32-.7-.73-1.11-.93-.83-.41-.58-.47-1.07.22-.58.8-.81,2.09-1.29,2.98-2.15,4.01-5.49,7.22-8.74,10.32Z" style="fill: #fff9cb;"/>
            <line x1="490.25" y1="509.09" x2="488.38" y2="548.11" style="fill: none; stroke: #2e3117; stroke-linecap: round; stroke-miterlimit: 10; stroke-width: 3px;"/>
            <line x1="462.34" y1="504.19" x2="464.62" y2="549.88" style="fill: none; stroke: #2e3117; stroke-linecap: round; stroke-miterlimit: 10; stroke-width: 3px;"/>
            <path d="M464.89,551.26c-2.07,10.6-11.43,17.9-18.59,25.98-1.86,2.11-3.72,4.74-3.13,7.49.5,2.33,2.63,3.94,4.77,4.99,7.38,3.63,16.71,2.92,23.46-1.78,3.7-2.58,6.57-6.18,9.23-9.82,2.31-3.16,4.51-6.4,6.72-9.63,2.1-3.08,4.24-6.26,5.01-9.91.77-3.65-.15-7.91-3.19-10.06" style="fill: none; stroke: #2e3117; stroke-linecap: round; stroke-miterlimit: 10; stroke-width: 3px;"/>
            <path d="M454.35,569.86c3.29.03,6.57,1.19,9.14,3.25.4.32.85.69,1.36.64.3-.03.57-.19.83-.35,9.51-6.05,17.33-14.73,22.35-24.82" style="fill: none; stroke: #2e3117; stroke-linecap: round; stroke-miterlimit: 10; stroke-width: 3px;"/>
            <path d="M443.65,587.02c2.03,5.45,8.1,8.61,13.92,8.77,5.82.15,13.62,0,22.51-10.17,1.47-1.69,2.55-3.69,3.82-5.54,4.47-6.47,9.14-13.64,8.52-21.48" style="fill: none; stroke: #2e3117; stroke-linecap: round; stroke-miterlimit: 10; stroke-width: 3px;"/>
            <path d="M526.74,571.25c-2.29,4.55-5.4,8.68-9.14,12.13-.65.6-1.33,1.19-1.93,1.85-1.09,1.2-1.92,2.62-2.99,3.83-2.55,2.88-6.31,4.41-10.03,5.39-1.5.4-3.03.72-4.59.78-3.31.12-6.52-1-9.6-2.22-.33-.13-.68-.27-1.03-.21s-.68.39-.59.74c.04.18.18.31.32.44,2.77,2.46,6.74,2.88,10.43,3.2,3.81.32,7.81.62,11.32-.91,1.01-.44,1.95-1.02,2.89-1.6,1.47-.91,2.95-1.82,4.42-2.73,1.35-.83,7.26-8.03,8.81-10.77,1.26-2.23,2.8-4.3,3.88-6.62.76-1.63,1.95-4.69,1.15-6.49-.98-2.21-2.84,2.24-3.33,3.21Z" style="fill: #fff;"/>
            <path d="M525.48,509.76c.12.02.23.03.35.05,1.99.33,3.63.75,3.8,2.78.22,2.48-.04,5.2-.23,7.68-.26,3.28-.54,6.58-.87,9.87-.47,4.76-.14,9.58-.64,14.34-.11,1.05-.26,2.11-.24,3.17.03,1.14.46,2.03.09,3.12-.66,1.93-1.65,3.71-2.82,5.36-2.42,3.41-5.5,6.27-8.46,9.2-1.22,1.21-2.5,2.38-3.52,3.78-.65.9-1.2,1.9-2.03,2.64-.82.72-1.85,1.14-2.86,1.54-1.1.44-2.2.88-3.31,1.32-.23.09-.47.19-.72.19-.35,0-.67-.15-.98-.3-2.83-1.38-5.81-2.42-8.88-3.11,2.08-3.31,4.16-6.61,6.24-9.92.93-1.48,1.87-2.98,2.44-4.64.54-1.56.74-3.22.88-4.87.61-7.26.11-14.56-.38-21.83-.26-3.8-.52-7.6-.78-11.4-.13-1.94-.12-3.95-.4-5.87-.21-1.42-.55-2.22,1.44-2.33,5.42-.29,10.84-.58,16.26-.87,1.88-.1,3.77-.2,5.62.06Z" style="fill: #fff;"/>
            <path d="M517.22,565.61c-2.28,2.18-4.56,4.35-6.93,6.43-1.49,1.31-3.12,2.62-5.08,2.94-2.42.39-4.77-.83-7.05-1.74-2.28-.91-5.08-1.46-7.02.03-.68.52-1.18,1.24-1.66,1.95-2.2,3.23-4.41,6.45-6.61,9.68-.24.35-.49.72-.51,1.15-.02.41.18.8.4,1.15,1.55,2.5,4.21,4.16,7.02,5.03s5.79,1,8.73,1.01c3.18,0,6.44-.15,9.35-1.43,3.7-1.62,6.41-4.85,8.97-7.96l3.4-4.13c3.16-3.84,6.33-7.69,8.93-11.93,1.75-2.87,3.28-6.12,2.89-9.46-.23-2-1.19-3.89-2.62-5.3-.32-.32-.7-.73-1.11-.93-.83-.41-.58-.47-1.07.22-.58.8-.81,2.09-1.29,2.98-2.15,4.01-5.49,7.22-8.74,10.32Z" style="fill: #fff9cb;"/>
            <line x1="529.71" y1="511.17" x2="527.76" y2="550.46" style="fill: none; stroke: #2e3117; stroke-linecap: round; stroke-miterlimit: 10; stroke-width: 3px;"/>
            <line x1="502.13" y1="510.64" x2="504" y2="552.23" style="fill: none; stroke: #2e3117; stroke-linecap: round; stroke-miterlimit: 10; stroke-width: 3px;"/>
            <path d="M504.26,553.61c-2.07,10.6-11.43,17.9-18.59,25.98-1.86,2.11-3.72,4.74-3.13,7.49.5,2.33,2.63,3.94,4.77,4.99,7.38,3.63,16.71,2.92,23.46-1.78,3.7-2.58,6.57-6.18,9.23-9.82,2.31-3.16,4.51-6.4,6.72-9.63,2.1-3.08,4.24-6.26,5.01-9.91.77-3.65-.15-7.91-3.19-10.06" style="fill: none; stroke: #2e3117; stroke-linecap: round; stroke-miterlimit: 10; stroke-width: 3px;"/>
            <path d="M493.73,572.21c3.29.03,6.57,1.19,9.14,3.25.4.32.85.69,1.36.64.3-.02.57-.19.83-.35,9.51-6.05,17.33-14.73,22.35-24.82" style="fill: none; stroke: #2e3117; stroke-linecap: round; stroke-miterlimit: 10; stroke-width: 3px;"/>
            <path d="M483.02,589.37c2.03,5.45,8.1,8.61,13.92,8.77,5.82.15,13.62,0,22.51-10.17,1.47-1.69,2.55-3.69,3.82-5.54,4.47-6.47,9.14-13.64,8.52-21.48" style="fill: none; stroke: #2e3117; stroke-linecap: round; stroke-miterlimit: 10; stroke-width: 3px;"/>
            <path d="M563.2,115.87c.57.39,1.17.75,1.84,1.09,1.84.95,3.45,2.38,5.5,2.88,3.3.8,7.19-.98,9.96.98,1.38.97,2.08,2.67,2.36,4.34.63,3.78-.68,7.83-3.39,10.53s-6.77,3.98-10.55,3.34c-.57-.1-1.22-.22-1.67.15-.33.27-.44.72-.53,1.14-2.07,9.93-4.13,19.87-6.2,29.8-.41,1.96-.81,3.92-1.07,5.9-.46,3.61-.41,7.25-.36,10.89,6,2.19,11.88,4.72,17.59,7.58-2.69,2.76-5.42,5.55-8.7,7.59-2.97,1.84-6.3,3-9.66,3.93-11.94,3.29-24.66,3.71-36.79,1.21-4.72-.97-9.44-2.42-13.35-5.22s-6.95-7.14-7.24-11.95c3.75-.76,7.49-1.52,11.24-2.27.67-.13,1.41-.32,1.75-.91.25-.43.21-.96.16-1.45-.6-6.48-1.19-12.97-1.79-19.45-6.59-2.13-13.48-6.15-17.55-11.75-3.32-4.57-4.82-10.16-6.26-15.61-.9-3.39-1.79-6.78-2.69-10.18-2.31-8.75.52-17.71,1.65-26.69,14.61-3.13,25.57-14.19,37.15-23.63.4-.32.84-.66,1.35-.67.53,0,1,.35,1.39.71,2.05,1.88,3.39,4.39,4.85,6.75,3.1,5.01,6.3,10.05,10.53,14.2,1.89,1.86,3.96,3.53,6.01,5.2,3.87,3.14,7.75,6.28,11.62,9.42,1,.81,1.88,1.52,2.83,2.17Z" style="fill: #fff;"/>
            <path d="M466.46,268.83c-2.78-3.58-5.77-7.27-8.98-6.92-.34.04-.71.15-.96.67-.26.54-.32,1.38-.37,2.16-.12,1.92-.25,3.89-.05,5.78.19,1.89.77,3.72,1.62,4.22.52.31,1.07.09,1.61.06,2.09-.11,3.96,2.56,5.77,4.9s3.89,4.5,5.91,3.28c.16-.1.33-.23.44-.51.11-.3.15-.71.17-1.1.08-1.46.05-2.9.04-4.36-.01-1.28.03-2.61-.79-3.7-.2-.27-.44-.49-.69-.72-1.3-1.22-2.61-2.37-3.7-3.77Z" style="fill: #8bc2dd;"/>
            <path d="M596.6,268.88c4.71-1.93,9.52-3.58,14.39-4.94,2.15-.6,4.34-1.15,6.56-1.16.28,0,.58.02.78.23.19.21.21.54.22.83.05,3.1,0,6.21-.17,9.31-.01.21-.02.42-.13.6-.15.27-.47.37-.75.45-7.51,2.02-15.28,1.49-22.66,4.3-1.81.69-8.46,4.4-9.85,2.21-1.27-2.01-2.49-7.53.7-8.15,3.8-.73,7.31-2.21,10.9-3.68Z" style="fill: #8bc2dd;"/>
            <path d="M590.02,199.18c-2.23,2.82-4.87,5.31-7.81,7.37-2.65,1.86-5.71,3.69-8.78,4.75-2.96,1.02-5.7,2.75-8.68,3.85-6.08,2.25-12.42,3.17-18.87,3.35-3.06.09-6.14.6-9.24.66-3.3.07-6.59-.02-9.88-.28-6.13-.49-12.27-1.56-17.95-3.91-1.63-.67-3.21-1.45-4.75-2.31-3.83-2.12-7.39-4.72-10.59-7.71-1.6-1.5-3.11-3.09-4.51-4.77-.58-.69-1.68-1.58-1.3-2.35.34-.69,2.09-1.26,2.75-1.57,1.53-.72,3.05-1.45,4.58-2.17,1.43-.68,2.88-1.36,4.4-1.81,1.86-.55,3.8-.73,5.74-.83.78,2.7,1.68,6.83,3.71,8.82,2.39,2.34,5.77,3.85,8.73,5.32,3.26,1.62,6.88,2.42,10.5,2.71,3.28.27,6.58.13,9.86-.11,3.03-.22,6.01-.16,9.01-.84,4.42-1,8.87-2,13.02-3.84,2.17-.96,4.24-2.15,6.3-3.33,2.85-1.64,5.69-3.32,8.56-4.91,2.07-1.14,3.37-.36,5.52.22,3.34.91,6.6,2.14,9.7,3.67Z" style="fill: #8bc2dd;"/>
            <path d="M567.66,139.89c-1.89,6.04-3.12,12.27-4.34,18.48-.76,3.9-1.53,7.82-1.53,11.79,4.65.54,9.42,0,13.84-1.54,1.12-.39,2.25-.86,3.14-1.65.94-.83,1.57-1.95,2.44-2.85,3.01-3.12,8.06-2.94,11.84-5.06,3.09-1.74,5.12-4.9,6.63-8.11,1.51-3.21,2.65-6.62,4.62-9.58,4.73-7.12,10.4-13.34,7.75-22.58-.49-1.72-1.26-3.39-2.49-4.7-1.88-2.01-4.61-2.93-7.08-4.16-3.02-1.5-6.65-3.79-8.54-6.67-1.93-2.94-2.31-6.25-3.19-9.55-.52-1.96-1.4-3.81-2.26-5.65-1.84-3.89-3.7-7.8-6.26-11.26-2.78-3.76-6.32-6.88-9.83-9.97-4.1-3.61-8.32-7.29-13.43-9.24-5.33-2.03-11.19-1.99-16.9-1.93-5.27.06-10.21,1.08-15.43.39-2.28-.3-4.51-.92-6.79-1.29-11.68-1.87-24.22,3.64-30.74,13.51-1.85,2.79-3.23,5.88-5.15,8.62-2.9,4.16-6.96,7.45-9.58,11.78-.87,1.43-1.57,2.96-2.53,4.33-.82,1.17-1.82,2.2-2.88,3.16-2.72,2.44-5.89,4.39-9.3,5.73-7.11,2.78-8.97,13.96-6.32,21.12,1.96,5.3,6.62,9.06,11.16,12.42.64.48,1.31.96,2.1,1.13-.2-.4-.32-.84-.37-1.29-.49,5.9.1,11.89,1.73,17.58.46,1.6,1.01,3.19,1.91,4.58,1.54,2.38,3.99,4.01,6.45,5.43,3.68,2.13,7.95,4,12.05,2.91,1.39,2.98,4.36,4.99,7.51,5.93,3.15.94,6.5.94,9.78.85,2.41-.07,5.37-.57,6.15-2.85.63-1.83-.65-3.84-2.28-4.88s-3.59-1.42-5.38-2.16c-3.33-1.37-6.04-3.95-8.1-6.9-2.06-2.95-3.52-6.26-4.9-9.58-1.7-4.07-3.32-8.21-4.16-12.54-.56-2.89-.76-5.85-.61-8.79.35-6.66.06-12.61.97-19.21.12-.84.25-1.72.72-2.43.59-.91,1.63-1.41,2.61-1.86,3.71-1.7,7.46-3.29,11.11-5.11,9.27-4.61,17.93-10.76,24.27-18.94,1.6,3.98,4.49,7.28,7.36,10.47,8.96,9.93,18.32,19.51,28.03,28.71,2.48,2.35,5.41,4.83,8.81,4.6,2.3-.16,4.46-1.58,6.75-1.31,2.16.26,3.91,2.04,4.65,4.08s.6,4.3.18,6.43c-.66,3.37-2.11,6.76-4.84,8.85s-6.76,2.97-9.36.73Z" style="fill: #4b4c4e;"/>
            <path d="M561.85,169.82c3.91,3.26,15.2.43,17.92-4.13s7.68-4.32,9.88-4.56c11.44-1.25,14.42-20.69,14.42-20.69,8.34-7.01,9.25-10.8,9.03-19.99-.22-9.19-12.16-10.83-12.16-10.83-11.95-5.35-7.35-12.65-12.6-22.25-23.43-42.87-58.17-30.59-58.17-30.59,0,0-26.57-11.95-42.95,14.22-16.38,26.17-20.01,28.05-23.77,29.48-3.75,1.42-19.09,11.52-5.63,30.55,0,0,4.06,3.7,8.87,6.04,0,0-3.2,29.48,20.68,28.62,0,0,4.48,8.46,18.41,6.95" style="fill: none; stroke: #2e3117; stroke-linecap: round; stroke-miterlimit: 10; stroke-width: 3px;"/>
            <path d="M484.97,102.58c23.47-5.33,40.82-25.64,40.82-25.64,0,0,20.28,30.94,46.63,45.29" style="fill: none; stroke: #2e3117; stroke-linecap: round; stroke-miterlimit: 10; stroke-width: 3px;"/>
            <path d="M571.69,121.48c1.31-.64,2.74-1.05,4.19-1.21,1.64-.18,3.44.03,4.64,1.16.73.69,1.15,1.65,1.44,2.61,1.49,4.91-.13,10.61-3.97,14-1.49,1.32-3.32,2.32-5.3,2.61-1.97.29-4.1-.17-5.62-1.46" style="fill: none; stroke: #2e3117; stroke-linecap: round; stroke-miterlimit: 10; stroke-width: 3px;"/>
            <path d="M487.37,102.74s-10.69,67.06,35.04,62.94" style="fill: none; stroke: #2e3117; stroke-linecap: round; stroke-miterlimit: 10; stroke-width: 3px;"/>
            <path d="M567.77,131.88s-9.84,47.89-8.31,55.73" style="fill: none; stroke: #2e3117; stroke-linecap: round; stroke-miterlimit: 10; stroke-width: 3px;"/>
            <path d="M550.09,69.75c4.12,2.42,7.38,6.26,9.1,10.72,1.31,3.39,1.85,7.29,4.45,9.83" style="fill: none; stroke: #2e3117; stroke-linecap: round; stroke-miterlimit: 10; stroke-width: 3px;"/>
            <path d="M564.02,99.14c1.06,1.52,2.11,3.05,3.17,4.57,1.5,2.17,3.34,4.54,5.96,4.79" style="fill: none; stroke: #2e3117; stroke-linecap: round; stroke-miterlimit: 10; stroke-width: 3px;"/>
            <path d="M577.24,89.67c2.38,1.84,3.89,4.75,4.04,7.76.12,2.41-.58,4.94.35,7.16.83,1.98,2.75,3.24,4.56,4.37" style="fill: none; stroke: #2e3117; stroke-linecap: round; stroke-miterlimit: 10; stroke-width: 3px;"/>
            <path d="M595.51,116.82c1,1.83,2.01,3.68,2.52,5.69.51,2.02.47,4.25-.54,6.07" style="fill: none; stroke: #2e3117; stroke-linecap: round; stroke-miterlimit: 10; stroke-width: 3px;"/>
            <path d="M590.94,144.17l-1.63,4.78c-.48,1.42-.98,2.87-1.9,4.06-.91,1.19-2.33,2.11-3.83,2.02" style="fill: none; stroke: #2e3117; stroke-linecap: round; stroke-miterlimit: 10; stroke-width: 3px;"/>
            <path d="M477.27,144.28c-2.62,3.61-2.32,9.05.69,12.34" style="fill: none; stroke: #2e3117; stroke-linecap: round; stroke-miterlimit: 10; stroke-width: 3px;"/>
            <path d="M471.7,108.34c-4.11,5.19-5.01,12.72-2.24,18.73" style="fill: none; stroke: #2e3117; stroke-linecap: round; stroke-miterlimit: 10; stroke-width: 3px;"/>
            <path d="M518.13,67.75c-3.71.31-7.79.79-10.32,3.53-1.44,1.56-2.16,3.63-3.18,5.49-2.37,4.35-6.44,7.57-10.86,9.79s-9.25,3.5-14.03,4.78" style="fill: none; stroke: #2e3117; stroke-linecap: round; stroke-miterlimit: 10; stroke-width: 3px;"/>
            <path d="M500.74,115.38c0,1.8,1.46,3.25,3.25,3.25s3.25-1.46,3.25-3.25-1.46-3.25-3.25-3.25-3.25,1.46-3.25,3.25Z" style="fill: #2e3117;"/>
            <circle cx="539.98" cy="115.38" r="3.25" style="fill: #2e3117;"/>
            <path d="M528.18,90.08c-1.93.31-3.92.3-5.85-.02" style="fill: none; stroke: #2e3117; stroke-linecap: round; stroke-miterlimit: 10; stroke-width: 3px;"/>
            <path d="M529.72,96.04c-2.94.51-5.96.53-8.91.09" style="fill: none; stroke: #2e3117; stroke-linecap: round; stroke-miterlimit: 10; stroke-width: 3px;"/>
            <path d="M521.97,116.64c-.86,2.75-2.11,5.39-3.69,7.8-.77,1.17-1.65,2.41-1.58,3.81.06,1.28.94,2.4,2.01,3.11,1.55,1.03,3.78,1.29,5.22.1" style="fill: none; stroke: #2e3117; stroke-linecap: round; stroke-miterlimit: 10; stroke-width: 3px;"/>
            <path d="M527.81,144.91c-3.19,2.61-8.12,2.84-11.54.52" style="fill: none; stroke: #2e3117; stroke-linecap: round; stroke-miterlimit: 10; stroke-width: 3px;"/>
            <path d="M523.2,152.44h-4.78" style="fill: none; stroke: #2e3117; stroke-linecap: round; stroke-miterlimit: 10; stroke-width: 3px;"/>
            <path d="M536.73,134.57c.93,1.1,1.45,2.53,1.42,3.97" style="fill: none; stroke: #2e3117; stroke-linecap: round; stroke-miterlimit: 10; stroke-width: 3px;"/>
            <path d="M509.94,134.9c-2.4.09-4.66,1.8-5.4,4.09" style="fill: none; stroke: #2e3117; stroke-linecap: round; stroke-miterlimit: 10; stroke-width: 3px;"/>
            <line x1="511.88" y1="167.15" x2="513.61" y2="187.61" style="fill: none; stroke: #2e3117; stroke-linecap: round; stroke-miterlimit: 10; stroke-width: 3px;"/>
            <path d="M574.28,127.73c.16-.87,1.35-1.27,2.12-.83.77.43,1.1,1.43.98,2.31-.12.88-.6,1.66-1.13,2.38" style="fill: none; stroke: #2e3117; stroke-linecap: round; stroke-miterlimit: 10; stroke-width: 3px;"/>
            <path d="M560.24,187.45c5.48,1.79,10.82,3.98,15.97,6.55" style="fill: none; stroke: #2e3117; stroke-linecap: round; stroke-miterlimit: 10; stroke-width: 3px;"/>
            <path d="M513.87,187.51c-2.04.5-3.87,1.33-5.83,2.06-2.18.82-4.02.77-3.11,3.71,1.81,5.81,6.63,10.37,12.2,12.83,5.56,2.46,11.81,3,17.88,2.63,8.25-.51,16.32-2.65,23.98-5.7,3.86-1.54,7.62-3.31,11.3-5.24,2.49-1.31,4.69-3.55,7.38-2.98,19.09,4.11,35.15,19.34,40.1,38.27,2.22,8.46.99,17.9.83,26.61-.09,5.07-.21,10.14-.38,15.21,0,0-11.98-.58-19.05,1.95-7.07,2.53-11.04,5.43-13.97,4.32" style="fill: none; stroke: #2e3117; stroke-linecap: round; stroke-miterlimit: 10; stroke-width: 3px;"/>
            <path d="M589.36,200.82s-20.17,21.29-51.24,18.39c-31.08-2.91-34.55-3.16-51.93-21.39" style="fill: none; stroke: #2e3117; stroke-linecap: round; stroke-miterlimit: 10; stroke-width: 3px;"/>
            <path d="M618.32,264.15s-13.11-.98-21.8,3.57c-8.69,4.55-11.92,5.51-11.92,5.51" style="fill: none; stroke: #2e3117; stroke-linecap: round; stroke-miterlimit: 10; stroke-width: 3px;"/>
            <g>
              <path d="M554.43,238.54c1.02,2.28.82,5.08-.03,7.45-1.49,4.17-4.8,7.23-8.43,8.97-3.63,1.74-7.6,2.32-11.51,2.74,1.85,2.42,3.62,4.93,5.29,7.51,8.3-.24,15.97-7.9,17.31-17.28.42-2.94.25-6.09-1.04-8.67-.95-1.9-2.82-3.9-4.82-3.79,1.34.55,2.57,1.59,3.23,3.07Z" style="fill: #fff; stroke: #000; stroke-linecap: round; stroke-linejoin: round; stroke-width: 3px;"/>
              <path d="M554.46,237.35s-4.73-1.71-5.24,2.27c-.32,2.49.12,5.02,1.33,7.12,2.45,4.29,6.38,7.3,10.6,8.99s8.76,2.15,13.24,2.14c-2.65,2.81-5.31,5.62-7.96,8.42-.27.29-.56.59-.91.74-.59.26-1.26.06-1.86-.16-5.2-1.93-9.99-5.72-12.83-11.07-2.85-5.35-5.71-12.23-3.4-17.91,0,0,2.26-5.1,7.04-.55Z" style="fill: #fff; stroke: #000; stroke-linecap: round; stroke-linejoin: round; stroke-width: 3px;"/>
            </g>
            <path d="M505.77,190.23c-5.98,3.04-12.45,4.95-18.69,7.42-6.24,2.47-12.39,5.63-16.87,10.63-4.54,5.06-7,11.63-8.89,18.16-4.47,15.43-6.28,31.63-5.33,47.67" style="fill: none; stroke: #2e3117; stroke-linecap: round; stroke-miterlimit: 10; stroke-width: 3px;"/>
            <path d="M458.04,357.69c-14.63,9.35-27.98,20.56-30.45,38.7-1.54,11.32,1.49,21.44,3.31,32.42,1.93,11.69,3.97,23.37,6.92,34.85.98,3.81,6.32,35.7,10.17,36.86.06.02,61.54,18.62,113.9,5.29,0,0-10.11-56.2,0-108.46" style="fill: none; stroke: #2e3117; stroke-linecap: round; stroke-miterlimit: 10; stroke-width: 3px;"/>
            <path d="M481.58,244.38c-12.01,13.39-11.35,33.86-7,51.31,1.95,7.84,4.52,15.62,6.66,23.44" style="fill: none; stroke: #2e3117; stroke-linecap: round; stroke-miterlimit: 10; stroke-width: 3px;"/>
            <path d="M618.31,274.19c-1.07,23.02-2.15,46.04-3.22,69.06-.24,5.24-.62,10.85-3.85,14.98-4.53,5.81-12.87,6.6-20.23,6.81-20.63.59-38.36-2.78-58.97-3.86" style="fill: none; stroke: #2e3117; stroke-linecap: round; stroke-miterlimit: 10; stroke-width: 3px;"/>
            <path d="M583.29,266.16c1.74,20.62,2.25,41.35,1.53,62.03" style="fill: none; stroke: #2e3117; stroke-linecap: round; stroke-miterlimit: 10; stroke-width: 3px;"/>
            <path d="M591.15,329c-22.19,1.01-33.16,5.51-54.89,10.09" style="fill: none; stroke: #2e3117; stroke-linecap: round; stroke-miterlimit: 10; stroke-width: 3px;"/>
            <path d="M472.27,283.97c-.61-.7-1.73-.44-2.65-.57-1.69-.23-2.79-1.82-3.95-3.08-2.62-2.87-6.31-4.46-9.89-5.98" style="fill: none; stroke: #2e3117; stroke-linecap: round; stroke-miterlimit: 10; stroke-width: 3px;"/>
            <path d="M501.12,334.03c-8.6-4.05-17.53-7.4-26.67-10.03" style="fill: none; stroke: #2e3117; stroke-linecap: round; stroke-miterlimit: 10; stroke-width: 3px;"/>
            <path d="M457.71,275.49s-6.61,41.77-5.5,59.58-2.85,33.32,43.6,22.58" style="fill: none; stroke: #2e3117; stroke-linecap: round; stroke-miterlimit: 10; stroke-width: 3px;"/>
            <path d="M509.72,333.68c4.76-.82,18.16-.19,17.94,6.76-.06,1.75-1.2,3.43-.81,5.14.29,1.29,1.43,2.34,1.42,3.66-.02,2.53-4.02,3.57-4.08,6.1-.02.89.47,1.86-.01,2.6-.52.82-1.82.72-2.5,1.42-.89.92-.16,2.48-.49,3.72-.28,1.08-1.37,1.79-2.48,1.97-1.1.18-2.22-.07-3.31-.31-2.47-.56-4.95-1.12-7.42-1.68-2.78-.63-5.59-1.27-8.14-2.53-2.55-1.27-4.86-3.25-5.94-5.88" style="fill: none; stroke: #2e3138; stroke-linecap: round; stroke-miterlimit: 10; stroke-width: 3px;"/>
            <path d="M520.19,334.23c.36-1.08-.2-2.3-1.09-3.01-.89-.71-2.04-.99-3.16-1.15-5.2-.76-10.69.71-14.82,3.96" style="fill: none; stroke: #2e3138; stroke-linecap: round; stroke-miterlimit: 10; stroke-width: 3px;"/>
            <path d="M534.74,339.17c-1.07-2.52-3.5-4.14-5.84-5.56-2.53-1.54-5.25-3.05-8.21-3.11" style="fill: none; stroke: #2e3117; stroke-linecap: round; stroke-miterlimit: 10; stroke-width: 3px;"/>
            <path d="M531.33,361.27c-1.19.96-2.01,2.33-3.25,3.23-2.12,1.54-4.98,1.39-7.59,1.19" style="fill: none; stroke: #2e3117; stroke-linecap: round; stroke-miterlimit: 10; stroke-width: 3px;"/>
            <path d="M479.66,314.04c-.4,3.16-.8,6.32-1.19,9.49" style="fill: none; stroke: #2e3117; stroke-linecap: round; stroke-miterlimit: 10; stroke-width: 3px;"/>
            <path d="M582.62,365.11c-.22,6.74,7.31,14.61,7.09,21.35-.1,3.04-.2,6.1-.87,9.06-2.96,13.16-16.08,21.4-28.8,25.88" style="fill: none; stroke: #2e3117; stroke-linecap: round; stroke-miterlimit: 10; stroke-width: 3px;"/>
            <path d="M590.34,400.68c4.19,8.28.51,18.92-6.48,25.03-6.98,6.11-16.47,8.5-25.69,9.54" style="fill: none; stroke: #2e3117; stroke-linecap: round; stroke-miterlimit: 10; stroke-width: 3px;"/>
            <path d="M591.66,404.34c.9,12.51,1.01,27.81-4.43,39.11s-16.48,20.55-29.01,20.91" style="fill: none; stroke: #2e3117; stroke-linecap: round; stroke-miterlimit: 10; stroke-width: 3px;"/>
            <path d="M528.24,546.66c5.08-4.7,10.15-9.41,15.23-14.11-5.28.39-8.9-1.33-13.46-4.02" style="fill: none; stroke: #2e3117; stroke-linecap: round; stroke-miterlimit: 10; stroke-width: 3px;"/>
            <path d="M502.59,524.95c-3.95-1.21-8.07-1.87-12.21-1.96" style="fill: none; stroke: #2e3117; stroke-linecap: round; stroke-miterlimit: 10; stroke-width: 3px;"/>
            <path d="M502.22,511.9c-3.36-.61-6.71-1.22-10.07-1.82" style="fill: none; stroke: #2e3117; stroke-linecap: round; stroke-miterlimit: 10; stroke-width: 3px;"/>
            <path d="M585.19,290.67c-2.46,13.53-3.95,24.64-5.14,38.34" style="fill: none; stroke: #2e3117; stroke-linecap: round; stroke-miterlimit: 10; stroke-width: 3px;"/>
            <path d="M560.05,506.28c.49,12.71.49,10.13.49,18.03.26,4.27-13.63,8.43-20.07,8.23" style="fill: none; stroke: #2e3117; stroke-linecap: round; stroke-miterlimit: 10; stroke-width: 3px;"/>
            <path d="M563.61,523.82c12.17.65,24.31,2.72,36.23,6.19,3.31.96,6.8,2.17,9.19,5.47.51.7.97,1.52,1.15,2.49.45,2.36-1,4.77-2.69,5.5-1.69.74-3.51.26-5.25-.21-16.63-4.51-43.21-7.15-60.08-9.42" style="fill: none; stroke: #2e3117; stroke-linecap: round; stroke-miterlimit: 10; stroke-width: 3px;"/>
            <path d="M560.79,511.77c6.87-5.94,14.73-10.72,23.17-14.08,1.62-.65,3.35-1.25,5.08-.99s3.41,1.68,3.35,3.42c-.05,1.57-1.38,2.75-2.61,3.72-8.75,6.92-17.89,13.35-27.35,19.25" style="fill: none; stroke: #2e3117; stroke-linecap: round; stroke-miterlimit: 10; stroke-width: 3px;"/>
            <path d="M585.58,541.11c-2.57,5.54,1.28,13.01,7.28,14.14s12.3-4.44,11.91-10.53" style="fill: none; stroke: #2e3117; stroke-linecap: round; stroke-miterlimit: 10; stroke-width: 3px;"/>
            <path d="M609.48,542.97c.36,4.15-1.53,8.42-4.84,10.94-3.31,2.52-7.93,3.22-11.83,1.78" style="fill: none; stroke: #2e3117; stroke-linecap: round; stroke-miterlimit: 10; stroke-width: 3px;"/>
            <path d="M591.38,543.15c-.94.6-1.14,2-.62,2.99.53.99,1.61,1.58,2.7,1.78.34.06.69.09,1.02,0,.42-.12.75-.44,1.04-.77.46-.53.84-1.15.97-1.83.14-.69,0-1.45-.47-1.97" style="fill: none; stroke: #2e3117; stroke-linecap: round; stroke-miterlimit: 10; stroke-width: 3px;"/>
            <path d="M591.38,503.68c.18,2.05-.45,4.17-1.73,5.79-1.28,1.62-3.18,2.73-5.22,3.04-.72.11-1.47.12-2.15-.13" style="fill: none; stroke: #2e3117; stroke-linecap: round; stroke-miterlimit: 10; stroke-width: 3px;"/>
            <path d="M456.28,261.89c3.01.38,5.51,2.46,7.66,4.61,2.14,2.15,4.2,4.52,6.95,5.81" style="fill: none; stroke: #2e3117; stroke-linecap: round; stroke-miterlimit: 10; stroke-width: 3px;"/>
          </g>
          <g>
            <path d="M585.74,209c-.23,1.15-.37,2.33-.41,3.51-.03,1.1.03,2.25.53,3.24,1.2,2.38,3.45,1.46,5.45.83.74,1.15-.73,2.42-1.15,3.72-.24.74-.12,1.55.05,2.3.4,1.8,1.4,3.81,3.22,4.05,1.37.18,2.62-.73,3.69-1.59.94.65,1.25,1.9,1.31,3.04.06,1.14-.05,2.33.36,3.4.41,1.07,1.59,1.97,2.67,1.57.53-.2.92-.66,1.27-1.1,2.4-2.98,4.79-5.95,7.19-8.93,1.81,2.22,1.07,5.45.88,8.31-.07,1.05-.03,2.18.53,3.07.56.89,1.81,1.43,2.72.89.4-.24.68-.64.98-1,1.75-2.03,2.52-4.45,4.83-3.1,3.37-4.85,5.74-13.48,5.7-22.87,0-1,.28-4.39-.37-5.14-.42-.48-.66-1.51-1.25-1.77-6.59-2.81-13.7-4.41-20.86-4.71-2.31-.1-4.64-.09-6.93.25-1.16.17-2.31.42-3.41.8-1.21.42-1.73.88-2.53,1.85-2.23,2.7-3.78,5.96-4.47,9.4Z" style="fill: #fff;"/>
            <path d="M627.42,200.41c-5.48-1.99-18.1-3.49-23.89-4.17-2.51-.29-5.14-.52-7.6.16-1.23.34-2.32,1.04-3.33,1.82-4.21,3.27-7.1,8.24-7.7,13.53-.08.73-.12,1.46,0,2.18.1.59.32,1.16.57,1.71.14.29.29.57.5.81.58.65,1.56.82,2.41.65,3.17-.62,5.01-3.33,6.68-5.85,1.73-2.62,3.47-5.25,5.2-7.87" style="fill: none; stroke: #2e3117; stroke-linecap: round; stroke-miterlimit: 10; stroke-width: 3px;"/>
            <path d="M599.73,204.66c-2.33,4.32-4.85,8.53-7.53,12.64-.72,1.09-1.45,2.19-1.85,3.44s-.44,2.67.22,3.79c1.22,2.09,4.37,2.3,6.42,1.02,2.05-1.28,3.22-3.57,4.15-5.81,1.5-3.61,2.73-7.51,5.53-10.23" style="fill: none; stroke: #2e3117; stroke-linecap: round; stroke-miterlimit: 10; stroke-width: 3px;"/>
            <path d="M606.76,211.16c-3.18,4.37-5.8,9.16-7.76,14.2-.62,1.6-1.19,3.34-.8,5.02.15.65.46,1.3,1,1.7.83.63,2.04.55,2.95.05.91-.5,1.58-1.35,2.16-2.21,3.01-4.54,7.43-10.05,8.42-15.41" style="fill: none; stroke: #2e3117; stroke-linecap: round; stroke-miterlimit: 10; stroke-width: 3px;"/>
            <path d="M613.19,216.14c-1.16,4.99-2.32,10.07-1.95,15.18.07,1,.22,2.04.77,2.89.54.85,1.59,1.45,2.56,1.19.82-.22,1.39-.96,1.8-1.7,1.79-3.19,1.95-7.01,2.07-10.67" style="fill: none; stroke: #2e3117; stroke-linecap: round; stroke-miterlimit: 10; stroke-width: 3px;"/>
          </g>
          <path d="M613.14,175.61c-.78,6.16,1.25,16.04-.53,21.98" style="fill: none; stroke: #2e3117; stroke-linecap: round; stroke-miterlimit: 10; stroke-width: 3px;"/>
          <path d="M707.15,250.33c-1.1,13.66,7.88,33.07,9.03,46.73-32.39,5.8-65.54,7.33-98.32,4.53" style="fill: none; stroke: #2e3117; stroke-linecap: round; stroke-miterlimit: 10; stroke-width: 3px;"/>
          <path d="M638.11,128.47c-.2,4.82-.11,9.66.26,14.47.13,1.64.31,3.36,1.22,4.73,1.71,2.58,5.31,3.03,8.39,2.75,7.25-.66,14.06-3.97,19.89-8.32,5.84-4.35,10.82-9.72,15.77-15.07" style="fill: none; stroke: #2e3117; stroke-linecap: round; stroke-miterlimit: 10; stroke-width: 3px;"/>
          <path d="M597.81,366.63c-1.51,26.34.18,51.84,2.62,78.11,36.93,3.01,74.31.45,110.48-7.55,1.87-.41,3.86-.91,5.18-2.29,2.38-2.49,1.57-6.49.78-9.84-9.87-41.55,6.61-85.6-1.14-127.59" style="fill: none; stroke: #2e3117; stroke-linecap: round; stroke-miterlimit: 10; stroke-width: 3px;"/>
          <path d="M693.31,68.81c.04-.37.18-.74.42-1.03.25-.31.6-.52.98-.65,1.26-.43,2.79.24,3.34,1.46.54,1.22.02,2.81-1.14,3.46-.51.28-1.16.39-1.65.09" style="fill: none; stroke: #2e3117; stroke-linecap: round; stroke-miterlimit: 10; stroke-width: 3px;"/>
          <path d="M495.5,191.93c-.03-2.17,2.08-3.41,4.08-2.98.85.18,1.62.63,2.34,1.11.67.45,1.32.94,1.86,1.54.89.98,1.46,2.2,1.98,3.42.55,1.29,1.05,2.62,1.2,4.01.26,2.38-.8,5.38-3.58,5.41-2.02.02-3.33-2.07-4.22-3.88-.87-1.77-1.74-3.54-2.6-5.32-.52-1.05-1.04-2.15-1.06-3.32Z" style="fill: #fff; stroke: #2e3117; stroke-linecap: round; stroke-miterlimit: 10; stroke-width: 3px;"/>
          <path d="M487.96,193.64c-.03-2.17,2.08-3.41,4.08-2.98.85.18,1.62.63,2.34,1.11.67.45,1.32.94,1.86,1.54.89.98,1.46,2.2,1.98,3.42.55,1.29,1.05,2.62,1.2,4.01.26,2.38-.8,5.38-3.58,5.41-2.02.02-3.33-2.07-4.22-3.88-.87-1.77-1.74-3.54-2.6-5.32-.52-1.05-1.04-2.15-1.06-3.32Z" style="fill: #fff; stroke: #2e3117; stroke-linecap: round; stroke-miterlimit: 10; stroke-width: 3px;"/>
          <path d="M482.2,196.84c-.03-1.9,1.82-2.98,3.57-2.61.74.16,1.41.55,2.05.97.59.39,1.16.83,1.63,1.35.78.86,1.28,1.93,1.73,2.99.48,1.13.92,2.29,1.05,3.51.22,2.08-.7,4.71-3.13,4.73-1.77.02-2.91-1.81-3.69-3.4-.76-1.55-1.52-3.1-2.28-4.65-.45-.92-.91-1.88-.93-2.91Z" style="fill: #fff; stroke: #2e3117; stroke-linecap: round; stroke-miterlimit: 10; stroke-width: 3px;"/>
          <path d="M476.76,200.61c-.06-.72,0-1.44.29-2.09.46-1.03,1.74-1.76,2.75-1.26.75.38,1.08,1.26,1.34,2.06.41,1.26.85,2.36,1.36,3.59.68,1.65,1.26,3.45.23,5.1-.49.8-1.45,1.36-2.36,1.16-1.12-.24-1.73-1.44-2.11-2.52-.57-1.57-1.01-3.18-1.32-4.82-.08-.4-.14-.81-.18-1.23Z" style="fill: #fff; stroke: #2e3117; stroke-linecap: round; stroke-miterlimit: 10; stroke-width: 3px;"/>
          <path d="M612.61,190.72c-3.72,2.63-3.49,2.6-7.21,5.23" style="fill: none; stroke: #2e3117; stroke-linecap: round; stroke-miterlimit: 10; stroke-width: 3px;"/>
        </g>
      </g>
    </g>
  </g>
</svg>