<?xml version="1.0" encoding="UTF-8"?>
<svg id="_圖層_2" data-name="圖層 2" xmlns="http://www.w3.org/2000/svg" viewBox="0 0 398.89 115.99">
  <g id="_圖層_1-2" data-name="圖層 1">
    <path d="M63.36,111.99c29.72-2.23,284.27-.93,310.31-1.9,4.44-.17,9.12-.48,12.81-2.96,5.7-3.84,7.17-11.48,7.76-18.32,1.79-20.75-.04-41.81-5.39-61.94-2.04-7.67-5.15-15.92-12.14-19.67-4.31-2.32-9.41-2.51-14.31-2.63-26.76-.69-253.55-.72-280.32-.22-13.55.26-27.1.67-40.64,1.22-10.52.43-20.59.04-27.12,9.93-4.36,6.6-5.65,14.7-6.69,22.55-2.55,19.34-4.19,38.86-3.45,58.35.17,4.51.78,9.63,4.44,12.27,2.03,1.48,4.64,1.87,7.13,2.16,9.98,1.17,20.07,1.46,30.1.87l17.51.3Z" style="fill: #ff6d04; stroke: #ff6d04; stroke-linecap: round; stroke-linejoin: round; stroke-width: 8px;"/>
  </g>
</svg>