<?xml version="1.0" encoding="UTF-8"?>
<svg id="_圖層_2" xmlns="http://www.w3.org/2000/svg" xmlns:xlink="http://www.w3.org/1999/xlink" version="1.1" viewBox="0 0 255 209">
  <!-- Generator: Adobe Illustrator 29.1.0, SVG Export Plug-In . SVG Version: 2.1.0 Build 142)  -->
  <defs>
    <style>
      .st0, .st1, .st2, .st3 {
        fill: none;
      }

      .st4 {
        fill: #1f89bd;
      }

      .st1, .st2, .st5, .st6, .st7 {
        stroke: #2e3138;
      }

      .st1, .st2, .st3, .st7 {
        stroke-linecap: round;
        stroke-width: 4px;
      }

      .st1, .st5, .st6, .st3 {
        stroke-miterlimit: 10;
      }

      .st2, .st7 {
        stroke-linejoin: round;
      }

      .st5 {
        fill: #2e3117;
      }

      .st5, .st6 {
        stroke-width: 1.3px;
      }

      .st6, .st8 {
        fill: #8bc2dd;
      }

      .st9, .st7 {
        fill: #fff;
      }

      .st3 {
        stroke: #4b4c4e;
      }

      .st10 {
        fill: #4b4c4e;
      }

      .st11 {
        clip-path: url(#clippath);
      }
    </style>
    <clipPath id="clippath">
      <rect class="st0" width="255" height="209"/>
    </clipPath>
  </defs>
  <g id="_圖層_1-2">
    <g class="st11">
      <g>
        <g>
          <path class="st9" d="M51.2,137.7c-.6-.9-1.2-1.7-1.5-2.7-.5-1.8.3-3.6.8-5.4,1.2-4.8-.8-8.3-2-12.8-1.3-4.7-1.7-9.6-1-14.4.1-.9.2-2.1-.6-2.5-1.4-.7-2.5,1.9-4.1,2-2.6-5-5.2-10-7.7-15.1-.6-1.2-1.5-2.5-2.8-2.6-1,0-1.9.7-2.8,1.2-1.8,1-4.1,1.1-6,0-1.2-.6-2.4-1.7-3.6-1.3-3,.9,0,7.1-3,8.2-.5.2-1.2.1-1.7.3-1.6.4-2.4,2.4-2.2,4.1s.9,3.3,1,5c0,.4,0,.8-.1,1.2-.4.8-1.6.9-2.4,1.2-2.3.8-3.3,3.6-2.9,6s2,4.4,3.5,6.3c2.9,3.7,5.8,7.3,8.7,11,2.1,2.6,4.1,5.2,6.8,7.2,2.5,1.9,5.4,3.2,7.8,5.1,3.7,2.9,4.7,7.3,5.9,11.6,4,13.8,8,27.6,12,41.3,2.9,9.9,5.8,19.9,7.2,30.1.7,5.1,1,10.4,5.4,13.9,2,1.6,4.4,2.6,6.9,3.2.9.2,1.8.4,2.7.4.8,0,1.7-.3,2.4-.5,3.1-.9,6.2-1.6,8.1-4.3,3.7-5.1,5.6-11.2,9.3-16.2,4.1-5.6,10.6-10.4,11-17.4.4-6.5-5.2-12.2-11.4-14.2-3.2-1-6.6-1.3-10-1.2-2.1,0-6.6,1.5-8.5.6-3.5-1.7-5.2-12.2-6.8-15.9-4.8-11.8-10.9-23-18.1-33.5h0Z"/>
          <path class="st4" d="M230.9,163.1c1.8,4.4,2.7,9.1,3,13.9.2,2.4.2,4.7,0,7.1,0,2,.4,4,.2,6-.1,1.7-.5,3.4-.3,5.2,0,.8.3,1.5.2,2.3-.2,3.7-5.6,4.7-8.3,5.8-1,.4-11.6,4.7-11.6,4.6-.1-.4-.3-.7-.5-1.1-3,1.2-6,3.9-8.5,5.9-.2.2-.4.3-.5.6-.2.4,0,.9,0,1.4.5,1.6.7,3.5.4,5.1-.2,1.3-.9,2.3-1.1,3.6-1.3,6-1.2,11.6-1.7,17.7-.6,6.9-.9,13.8-.9,20.7,0,13.9,1.1,27.9,3.4,41.6.7,4.1,1.5,8.3,1.3,12.5,0,1.1-.2,2.4-.9,3.3-1.3,1.6-3.8,1.5-5.8.8-4.5-1.5-7.9-5-11.4-8.2-8.8-8-18.6-14.8-29.1-20.2-4.1-2.1-8.3-4-12.1-6.5-2.6-1.7-5.1-3.6-7.5-5.5-8.4-6.6-16.8-13.2-25.2-19.8-1.3-1-2.7-2.1-3.6-3.5-2.3-3.7.3-7.7.2-11.7-.1-5-2-9.7-3.4-14.4-1.3-4.3-2.3-8.7-2.9-13.1-.3-2.1-.8-4.4-.8-6.5,0-2.5.3-5.6,1.1-8,.2-.5.3-1,.3-1.5,0-.8-.7-1.4-1.4-1.6s-1.5-.3-2.2-.4c-5.2-.4-9.5-2.7-14.2-4.8-3-1.4-6.3-2-9.2-3.5-.3-.2-.6-.3-.8-.6-.3-.5,0-1.1.2-1.6,2.8-6.5,6.4-12.6,9.9-18.8,3-5.2,6-10.5,9.9-15.1,3.8-4.4,8.4-7.4,13-10.8,2-1.5,4.4-2.5,6.8-2.9.3,0,.6-.1.9,0,.2,0,.4.2.6.3,1.6,1.1,2.7,2.7,4,4,1.4,1.5,3,2.8,4.7,4,3.3,2.4,7,4.2,10.8,5.5,5.9,2.1,12.2,3.3,18.4,4.1,3.5.5,7,.6,10.5.6,3,0,6.1.2,8.9-.7,6.5-2.1,13.1-3.8,19.6-6,3-1,5.6-3,8.1-4.9.6-.5,7-6.4,6.9-6.4,9,5.1,16.6,11.6,20.5,21.5h0Z"/>
          <path class="st9" d="M185.4,67.3c.5.3,1,.7,1.6,1,1.6.8,3.1,2.1,4.9,2.6,2.9.7,6.4-.9,8.8.9,1.2.9,1.9,2.4,2.1,3.8.6,3.3-.6,6.9-3,9.3-2.4,2.4-6,3.5-9.4,3-.5,0-1.1-.2-1.5.1-.3.2-.4.6-.5,1-1.8,8.8-3.7,17.6-5.5,26.4-.4,1.7-.7,3.5-.9,5.2-.4,3.2-.4,6.4-.3,9.7,5.3,1.9,10.5,4.2,15.6,6.7-2.4,2.4-4.8,4.9-7.7,6.7-2.6,1.6-5.6,2.7-8.6,3.5-10.6,2.9-21.9,3.3-32.6,1.1-4.2-.9-8.4-2.1-11.8-4.6-3.5-2.5-6.2-6.3-6.4-10.6,3.3-.7,6.6-1.3,10-2,.6-.1,1.2-.3,1.6-.8.2-.4.2-.9.1-1.3l-1.6-17.2c-5.8-1.9-12-5.4-15.6-10.4-2.9-4.1-4.3-9-5.6-13.8-.8-3-1.6-6-2.4-9-2.1-7.8.5-15.7,1.5-23.7,13-2.8,22.7-12.6,32.9-21,.4-.3.7-.6,1.2-.6.5,0,.9.3,1.2.6,1.8,1.7,3,3.9,4.3,6,2.8,4.4,5.6,8.9,9.3,12.6,1.7,1.7,3.5,3.1,5.3,4.6,3.4,2.8,6.9,5.6,10.3,8.4.9.7,1.7,1.3,2.5,1.9h0Z"/>
          <path class="st6" d="M215,203c4.2-1.7,8.4-3.2,12.8-4.4,1.9-.5,3.9-1,5.8-1,.2,0,.5,0,.7.2.2.2.2.5.2.7,0,2.8,0,5.5-.1,8.2,0,.2,0,.4-.1.5-.1.2-.4.3-.7.4-6.7,1.8-13.6,1.3-20.1,3.8-1.6.6-7.5,3.9-8.7,2-1.1-1.8-2.2-6.7.6-7.2,3.4-.6,6.5-2,9.7-3.3h0Z"/>
          <path class="st8" d="M209.2,141.2c-2,2.5-4.3,4.7-6.9,6.5-2.4,1.6-5.1,3.3-7.8,4.2-2.6.9-5.1,2.4-7.7,3.4-5.4,2-11,2.8-16.7,3-2.7,0-5.4.5-8.2.6-2.9,0-5.9,0-8.8-.2-5.4-.4-10.9-1.4-15.9-3.5-1.4-.6-2.9-1.3-4.2-2.1-3.4-1.9-6.6-4.2-9.4-6.8-1.4-1.3-2.8-2.7-4-4.2-.5-.6-1.5-1.4-1.2-2.1.3-.6,1.8-1.1,2.4-1.4,1.3-.6,2.7-1.3,4.1-1.9,1.3-.6,2.6-1.2,3.9-1.6,1.6-.5,3.4-.6,5.1-.7.7,2.4,1.5,6.1,3.3,7.8,2.1,2.1,5.1,3.4,7.7,4.7,2.9,1.4,6.1,2.1,9.3,2.4,2.9.2,5.8.1,8.7-.1,2.7-.2,5.3-.1,8-.7,3.9-.9,7.9-1.8,11.5-3.4,1.9-.9,3.8-1.9,5.6-2.9,2.5-1.4,5-2.9,7.6-4.4,1.8-1,3-.3,4.9.2,3,.8,5.9,1.9,8.6,3.3h0Z"/>
          <path class="st10" d="M189.3,88.6c-1.7,5.4-2.8,10.9-3.9,16.4-.7,3.5-1.4,6.9-1.4,10.5,4.1.5,8.4,0,12.3-1.4,1-.3,2-.8,2.8-1.5.8-.7,1.4-1.7,2.2-2.5,2.7-2.8,7.1-2.6,10.5-4.5,2.7-1.5,4.5-4.3,5.9-7.2,1.3-2.8,2.4-5.9,4.1-8.5,4.2-6.3,9.2-11.8,6.9-20-.4-1.5-1.1-3-2.2-4.2-1.7-1.8-4.1-2.6-6.3-3.7-2.7-1.3-5.9-3.4-7.6-5.9-1.7-2.6-2.1-5.5-2.8-8.5-.5-1.7-1.2-3.4-2-5-1.6-3.5-3.3-6.9-5.6-10-2.5-3.3-5.6-6.1-8.7-8.9-3.6-3.2-7.4-6.5-11.9-8.2-4.7-1.8-9.9-1.8-15-1.7-4.7,0-9.1,1-13.7.3-2-.3-4-.8-6-1.1-10.4-1.7-21.5,3.2-27.3,12-1.6,2.5-2.9,5.2-4.6,7.7-2.6,3.7-6.2,6.6-8.5,10.5-.8,1.3-1.4,2.6-2.2,3.8-.7,1-1.6,2-2.6,2.8-2.4,2.2-5.2,3.9-8.2,5.1-6.3,2.5-8,12.4-5.6,18.7,1.7,4.7,5.9,8,9.9,11,.6.4,1.2.8,1.9,1-.2-.4-.3-.8-.3-1.1-.4,5.2,0,10.6,1.5,15.6.4,1.4.9,2.8,1.7,4.1,1.4,2.1,3.5,3.6,5.7,4.8,3.3,1.9,7.1,3.6,10.7,2.6,1.2,2.6,3.9,4.4,6.7,5.3,2.8.8,5.8.8,8.7.8,2.1,0,4.8-.5,5.5-2.5.6-1.6-.6-3.4-2-4.3-1.4-.9-3.2-1.3-4.8-1.9-2.9-1.2-5.4-3.5-7.2-6.1-1.8-2.6-3.1-5.6-4.3-8.5-1.5-3.6-2.9-7.3-3.7-11.1-.5-2.6-.7-5.2-.5-7.8.3-5.9,0-11.2.9-17,0-.8.2-1.5.6-2.2.5-.8,1.4-1.2,2.3-1.7,3.3-1.5,6.6-2.9,9.9-4.5,8.2-4.1,15.9-9.5,21.5-16.8,1.4,3.5,4,6.5,6.5,9.3,7.9,8.8,16.2,17.3,24.9,25.5,2.2,2.1,4.8,4.3,7.8,4.1,2-.1,4-1.4,6-1.2,1.9.2,3.5,1.8,4.1,3.6.6,1.8.5,3.8.2,5.7-.6,3-1.9,6-4.3,7.8-2.4,1.9-6,2.6-8.3.7h0Z"/>
          <path class="st1" d="M184.2,115.2c3.5,2.9,13.5.4,15.9-3.7s6.8-3.8,8.8-4c10.1-1.1,12.8-18.3,12.8-18.3,7.4-6.2,8.2-9.6,8-17.7-.2-8.2-10.8-9.6-10.8-9.6-10.6-4.8-6.5-11.2-11.2-19.7-20.8-38-51.6-27.1-51.6-27.1,0,0-23.6-10.6-38.1,12.6s-17.8,24.9-21.1,26.1-16.9,10.2-5,27.1c0,0,3.6,3.3,7.9,5.4,0,0-2.8,26.2,18.3,25.4,0,0,4,7.5,16.3,6.2"/>
          <path class="st1" d="M116,55.5c20.8-4.7,36.2-22.7,36.2-22.7,0,0,18,27.4,41.3,40.2"/>
          <path class="st1" d="M192.9,72.3c1.2-.6,2.4-.9,3.7-1.1,1.4-.2,3.1,0,4.1,1,.6.6,1,1.5,1.3,2.3,1.3,4.3-.1,9.4-3.5,12.4-1.3,1.2-2.9,2.1-4.7,2.3-1.8.3-3.6-.2-5-1.3"/>
          <path class="st1" d="M118.1,55.7s-9.5,59.5,31.1,55.8"/>
          <path class="st1" d="M189.4,81.5s-8.7,42.5-7.4,49.4"/>
          <path class="st3" d="M173.8,26.4c3.6,2.1,6.6,5.5,8.1,9.5,1.2,3,1.6,6.5,3.9,8.7"/>
          <path class="st3" d="M186.1,52.5c.9,1.3,1.9,2.7,2.8,4,1.3,1.9,3,4,5.3,4.2"/>
          <path class="st3" d="M197.8,44.1c2.1,1.6,3.4,4.2,3.6,6.9.1,2.1-.5,4.4.3,6.3.7,1.8,2.4,2.9,4.1,3.9"/>
          <path class="st3" d="M214,68.2c.9,1.6,1.8,3.3,2.2,5.1s.4,3.8-.5,5.4"/>
          <path class="st3" d="M210,92.4c-.5,1.4-1,2.8-1.4,4.2-.4,1.3-.9,2.6-1.7,3.6-.8,1.1-2.1,1.9-3.4,1.8"/>
          <path class="st3" d="M109.2,92.5c-2.3,3.2-2.1,8,.6,10.9"/>
          <path class="st3" d="M104.2,60.7c-3.6,4.6-4.4,11.3-2,16.6"/>
          <path class="st3" d="M145.4,24.7c-3.3.3-6.9.7-9.1,3.1-1.3,1.4-1.9,3.2-2.8,4.9-2.1,3.8-5.7,6.7-9.6,8.7-3.9,2-8.2,3.1-12.4,4.2"/>
          <path class="st5" d="M130,66.9c0,1.6,1.3,2.9,2.9,2.9s2.9-1.3,2.9-2.9-1.3-2.9-2.9-2.9-2.9,1.3-2.9,2.9Z"/>
          <path class="st5" d="M161.9,66.9c0,1.6,1.3,2.9,2.9,2.9s2.9-1.3,2.9-2.9-1.3-2.9-2.9-2.9-2.9,1.3-2.9,2.9Z"/>
          <path class="st1" d="M154.3,44.5c-1.7.3-3.5.3-5.2,0"/>
          <path class="st1" d="M155.7,49.8c-2.6.5-5.3.5-7.9,0"/>
          <path class="st1" d="M148.8,68c-.8,2.4-1.9,4.8-3.3,6.9-.7,1-1.5,2.1-1.4,3.4,0,1.1.8,2.1,1.8,2.8,1.4.9,3.4,1.1,4.6,0"/>
          <path class="st1" d="M161.9,83.9c.8,1,1.3,2.2,1.3,3.5"/>
          <line class="st1" x1="139.9" y1="112.8" x2="141.4" y2="131"/>
          <path class="st1" d="M195.2,77.9c.1-.8,1.2-1.1,1.9-.7s1,1.3.9,2.1c-.1.8-.5,1.5-1,2.1"/>
          <path class="st1" d="M182.8,130.8c4.9,1.6,9.6,3.5,14.2,5.8"/>
          <path class="st1" d="M141.6,130.9c-1.8.4-3.4,1.2-5.2,1.8-1.9.7-3.6.7-2.8,3.3,1.6,5.1,5.9,9.2,10.8,11.4,4.9,2.2,10.5,2.7,15.9,2.3,7.3-.4,14.5-2.4,21.3-5.1,3.4-1.4,6.8-2.9,10-4.6,2.2-1.2,4.2-3.1,6.6-2.6,16.9,3.6,31.2,17.2,35.6,33.9,2,7.5.9,15.9.7,23.6,0,4.5-.2,9-.3,13.5,0,0-10.6-.5-16.9,1.7-6.3,2.2-9.8,4.8-12.4,3.8"/>
          <path class="st1" d="M208.6,142.7s-17.9,18.9-45.4,16.3c-27.6-2.6-30.6-2.8-46.1-19"/>
          <path class="st1" d="M234.3,198.9s-11.6-.9-19.3,3.2c-7.7,4-10.6,4.9-10.6,4.9"/>
          <g>
            <path class="st7" d="M177.6,176.1c.9,2,.7,4.5,0,6.6-1.3,3.7-4.2,6.4-7.5,8s-6.7,2.1-10.2,2.4c1.6,2.1,3.2,4.4,4.7,6.7,7.4-.2,14.2-7,15.4-15.3.4-2.6.2-5.4-.9-7.7-.8-1.7-2.5-3.5-4.3-3.4,1.2.5,2.3,1.4,2.9,2.7h0Z"/>
            <path class="st7" d="M177.6,175.1s-4.2-1.5-4.6,2c-.3,2.2.1,4.4,1.2,6.3,2.2,3.8,5.6,6.5,9.4,8s7.8,1.9,11.7,1.9c-2.4,2.5-4.7,5-7.1,7.5-.2.3-.5.5-.8.7-.5.2-1.1,0-1.6-.1-4.6-1.7-8.9-5.1-11.4-9.8s-5.1-10.8-3-15.9c0,0,2-4.5,6.2-.5h0Z"/>
          </g>
          <path class="st1" d="M134.4,133.3c-5.3,2.7-11.1,4.4-16.6,6.6-8.8,3.5-15.3,9.4-21.5,16.4-2.4,2.6-4.3,5.7-6.1,8.7-4.9,8-9.5,16.1-13.8,24.5,8.3,7,19.3,10.5,30.1,9.7"/>
          <path class="st1" d="M113,181.3c-10.7,11.9-10.1,30-6.2,45.5,1.7,6.9,4,13.9,5.9,20.8"/>
          <path class="st1" d="M111.3,243.1c-.3,2.8-3.1,24.5-3.4,27.4"/>
          <path class="st2" d="M141.4,89.4s6,1.9,13.6,0c0,0,.4,5.4-7.4,5.4-5.7,0-6.2-5.4-6.2-5.4h0Z"/>
          <path class="st1" d="M138,84.8c-.9.6-1.3,1.7-1.1,2.8"/>
          <path class="st1" d="M81,183.3c2.9.1,5.5,1.8,8.1,3.3,5,2.9,10.4,5,16,6.4"/>
          <path class="st1" d="M48.9,133.1c11,21.1,24,42.1,29.6,65.2"/>
          <path class="st1" d="M36.8,140.9c10.4,29.1,13.1,52.7,22.5,82.2,1.1,3.6,2.4,7.1,4.5,10.2,2.1,3.1,5.1,5.7,8.7,6.6,4.7,1.1,9.6-.9,13.3-4,3.6-3.1,6.2-7.3,8.7-11.4,3.2-5.2,6.4-10.4,9.6-15.6"/>
          <path class="st1" d="M48.7,131.4c.9-2.3,1.2-4.8,1-7.2-.3-3.4-1.6-6.6-1.8-10-.3-4.4,1.2-8.7,1-13,0-.7-.2-1.6-.9-1.9-.6-.2-1.2.1-1.7.5-2.2,1.7-3.7,4.4-3.9,7.2,0,1.2,0,2.5-.5,3.6-.3.7-1,1.3-1.5,1.9-1.7,2.1-2.1,5-1.7,7.6.4,2.7,1.5,5.1,2.6,7.6"/>
          <path class="st1" d="M41.6,104.3c-1.2-4.1-2.5-8.1-3.9-12.1-.7-1.8-1.4-3.7-2.5-5.2-1.1-1.5-2.7-2.7-4.5-2.7-1,0-2.1.4-2.5,1.5-.1.4-.2.8-.2,1.2-.1,3.6,1.9,6.7,2.8,10.1.9,3.2,3,5.7,3.8,9"/>
          <path class="st1" d="M32.7,101.8c-2.5-4.2-4.9-8.4-7.2-12.8-.8-1.6-1.7-3.4-3.1-4.4-1.4-1.1-3.5-1.2-4.6.3-1,1.4-.7,3.5-.2,5.2.9,3.1,2.5,5.8,3.8,8.6,1.4,3.1,2.8,6.2,4.2,9.2"/>
          <path class="st1" d="M24.3,105.4c-1.2-2.5-6.3-10-8.6-11.2-1-.6-2.3-.9-3.2,0-.6.6-.7,1.6-.7,2.5,0,3.4,1.4,6.7,3.1,9.5,1.7,2.8,3.7,5.4,5.4,8.3"/>
          <path class="st1" d="M19.9,114.9c-2.5-3.8-5.1-7.7-8.8-10-.6-.4-1.2-.7-1.9-.7-1.3,0-2.3,1.5-2.5,3-.2,1.5.3,3,.8,4.3,1.7,4.1,4.4,7.7,7.6,10.3.6.4,1.1.8,1.6,1.4.5.6.9,1.3,1.3,2,3.4,5.5,10.2,14.2,19.5,13.4"/>
        </g>
        <path class="st1" d="M203.9,205.3c2,12.7,2,25.7,0,38.4-.8,5.2-2,10.4-2.1,15.7-.1,4.9.6,9.8,1.3,14.7,2.4,18.1,3.4,36.3,3,54.6"/>
      </g>
    </g>
  </g>
</svg>