<?xml version="1.0" encoding="UTF-8"?>
<svg id="_圖層_2" data-name="圖層 2" xmlns="http://www.w3.org/2000/svg" viewBox="0 0 377 368.02">
  <g id="_圖層_1-2" data-name="圖層 1">
    <g>
      <path d="M73.14,227.85c-.14.42-.29.84-.56,1.18-.43.54-1.11.8-1.77,1-5.77,1.72-11.98-.11-17.55-2.42-5.57-2.31-11.1-5.14-17.11-5.5-2.32-.14-4.66.1-6.96-.21-2.3-.3-4.67-1.27-5.93-3.21-.29-.45-.5-1.1-.12-1.48.18-.18.43-.24.67-.29,4.57-1.04,9.14-2.07,13.7-3.11-3.71-3.62-9.73-3.38-14.69-1.87-1,.3-2.02.65-3.06.57-1.04-.08-2.12-.73-2.34-1.75-.23-1.08.57-2.12,1.47-2.76.9-.64,1.97-1.07,2.73-1.87-2.42-.13-5.48-.77-5.94-3.15-.3-1.54.8-3.07,2.19-3.78,1.39-.72,3-.81,4.57-.89-1.79-.92-1.44-3.85.17-5.07,1.6-1.22,3.79-1.23,5.81-1.19,2.77.06,5.54.12,8.31.17,8.96.19,18.28.46,26.25,4.56,3.22,1.66,6.08,3.89,9.1,5.86,1.7,1.11,5.7,2.13,6.89,3.71,1.8,2.41-1,7.33-1.82,9.74-1.33,3.92-2.67,7.84-4,11.76Z" style="fill: #fff;"/>
      <path d="M354.21,182.46c-.36,7.23-.72,14.47-1.73,21.64-.34,2.39-.75,4.78-.98,7.18-.24,2.52-.28,5.06-.38,7.59-.61,14.96-4.15,29.49-5.22,44.41-1.1,15.31-.76,30.68-.87,46.02-.09,12.74-.47,25.51-2.22,38.15-.67,4.83-1.54,9.65-3.08,14.27-.19.56-.4,1.1-.6,1.65-10.45-.16-20.9-.25-31.35-.29,2.65-3.1,5.19-6.27,7.59-9.51,3.09-4.17,6.07-8.71,6.7-13.86.32-2.68,0-5.39-.34-8.07-1.07-8.61-2.14-17.23-3.22-25.84-1.45-11.62,12.45-15.09,19.06-22.05.55-16.33,2.59-32.46,3.26-48.79.48-11.66.98-23.02-3.24-34.06-5.93-15.51-11.86-31.03-18.51-46.24-1.16-2.66-2.35-5.32-3.87-7.79-3.95-6.44-9.99-11.41-16.64-15.02-6.64-3.61-13.9-5.93-21.18-7.95-1.24-3.69-4.6-6.6-7.14-9.56-.29-.34-.58-.69-.68-1.12-.12-.48,0-.98.1-1.46.4-1.91.63-3.94.44-5.88,14.88,1.27,29.68,3.56,44.25,6.85,7.18,1.62,14.34,3.43,21.37,5.6,4.92,1.51,12.07,4.66,15.26,8.81,1.62,2.11,2.45,4.72,3.1,7.3,1.96,7.77,2.6,15.87,1.89,23.86-.72,8.08-1.37,16.04-1.77,24.18Z" style="fill: #ffb27a;"/>
      <path d="M349.45,274.36l-12.5,11.5-17.59,13.18-.43,5.14,1.32,11.61,2.44,16.41-1.14,9.16-3.63,8.53-10.25,13.19c-16.65-.06-33.3.01-49.94.21l-14.28-7.9-15.13-3.86-7.47-.75-15.32,1.93,6.43-14.24,12.92-17.53,9.97-21.08,7.61-20.98,10.81-53.08,2.34-12.02,9.96-58.29,4.65-35.06,25.88,9.84,16.57,8.26,9.02,12.84,14.4,34.72,10.78,34.67,4.44,26.38,1.53,15.18-1.68,7.42-1.72,4.6Z" style="fill: #fff;"/>
      <path d="M208.04,33.75c-1.94.58-3.1,2.67-3.32,4.68s.28,4.03.58,6.04c1.08,7.15-.35,14.42-1.77,21.52-.32,1.59-.66,3.23-1.58,4.56-.8,1.16-2,2.01-2.82,3.16-1.59,2.21-1.6,5.16-1.54,7.88.07,3.2.15,6.43.88,9.55.62,2.63,1.69,5.13,2.55,7.69,2.69,8.08,3.14,16.9,1.28,25.21,6.07,8.05,12.86,15.97,20.41,22.64,1.45,1.28,3.1,2.6,5.03,2.6,1.17,0,2.28-.5,3.35-.99,2.58-1.18,5.16-2.36,7.73-3.55,3.69-1.69,7.4-3.39,10.71-5.73,2.82-1.99,5.3-4.4,7.77-6.8,3.14-3.06,6.29-6.11,9.43-9.17.53-.51,1.06-1.04,1.38-1.7.35-.71.41-1.52.47-2.31.32-4.24.65-8.48.97-12.73.16-2.12.32-4.24.49-6.36.11-1.4-.27-4.74.45-5.9.5-.8,2.48-1.31,3.31-2.05.99-.9,1.75-2.03,2.28-3.26,1.05-2.4,1.25-5.16.89-7.74-.23-1.64-.93-3.45-2.49-4.02-.64-.23-1.34-.22-2.02-.21-2.47.05-4.94.1-7.41.16.11-2.72.42-5.69.53-8.41.08-2.13.17-4.27-.08-6.38-.45-3.9-2.01-7.58-3.54-11.2-1.02-2.41-2.05-4.82-3.33-7.1-.27-.48-.58-.98-1.08-1.21-.41-.19-.88-.16-1.33-.14-3.91.18-7.85-.18-11.67-1.07-1.2-.28-2.39-.61-3.48-1.17-1.03-.52-1.96-1.24-2.91-1.89-2.73-1.85-5.76-3.21-8.76-4.57-1.74-.78-3.5-1.57-5.38-1.94-2.26-.45-4.6-.27-6.89,0-2.98.36-6.19,1.03-9.06,1.89Z" style="fill: #fff;"/>
      <path d="M201.97,119.06c-.87-.71-2.72.63-3.71,1.06-3.55,1.55-7.11,3.09-10.66,4.64-1.6.7-3.2,1.39-4.78,2.13-5.45,2.53-10.68,5.5-15.85,8.55-4.38,2.58-9.5,4.09-12.98,8.03-4.59,5.2-5.12,12.74-7.85,19.11-1.24,2.9-2.96,5.56-4.44,8.34-2.45,4.57-4.27,9.43-6.05,14.29-.93,2.53-1.83,5.06-2.81,7.57-1.46,3.74-3.4,7.19-5.02,10.8-1.88,4.2-1.96,9.19-4.14,13.15-.12.22-.27.45-.51.5-.19.04-.38-.06-.56-.14-1.41-.72-2.87-1.33-4.37-1.83-1.15-.38-2.31-.7-3.48-1.02-1.36-.37-2.72-.74-4.08-1.12-6.38-1.74-12.35-3.77-18.87-5.18-3.27-.7-6.76-1.47-10.11-.96-3.17.48-3,1.98-4.02,5.01-2.12,6.27-5.16,12.24-6.21,18.84-.09.64-.15,1.31.11,1.9.34.75,1.14,1.17,1.88,1.54,9.43,4.58,19.21,8.4,28.97,12.21,2.72,1.06,5.43,2.12,8.15,3.18,9.43,3.68,18.88,7.37,28.67,9.91,1.18.31,2.4.6,3.6.38,1.45-.27,2.66-1.25,3.75-2.25,10.77-9.82,12.77-22.83,19.08-35.05-.11,14.62-.22,29.24-.33,43.87-.02,2.99-.04,5.97-.07,8.96-.03,3.61-.13,5.7-1.83,9.01-.38.75-.78,1.51-1.38,2.1-.86.85-2.04,1.27-3.17,1.68-7.98,2.89-15.69,6.48-23.38,10.07-4.18,1.95-8.09,4.37-12.04,6.68-3.52,2.05-7.64,4.43-9.92,7.93l16.23,8.51s30.23,16.88,39.03,29.33c0,0,12.58-23.22,33.43-38.59l5.21-7.12.68-6.65-3.22-10.61.15-10.47-1.14-36.08-1.45-53.18-.23-55.84c0-3.44,0-6.88,0-10.32,0-.62.26-1.91,0-2.48-.08-.17-.17-.3-.29-.39Z" style="fill: #fff;"/>
      <path d="M174.07,365.14v-3.64s1.24-4.92,1.24-4.92l-5.86,2.84-23.86,6.65c-17.35.61-34.71,1.26-52.06,1.95l-.51-8.81,1.88-24.29,4.31-9.56,7.82-5.33,10.86-3.77,11.9,5.18,7.7,3.92,5.22,3.89,3.71,2.3,2.18,2.56,2.69,1.79,1.54.77,2.05,1.66,1.79,2.01,4.22,2.85,2.04,2,1.8,2.22,1.79,1.92,2.3,1.44,13.18-18.07,13.88-15.47,8.51-6.74,3.07-5.42.68-2.69v-3.97s-1.53-5.38-1.53-5.38l-1.69-5.23,7.28-.1,24.54,4.69-3.01,11.77-7.15,12.96-9.75,15.69-6.55,7.52-3.79,8.83-.98,3.53,15.32-1.93,7.47.75,15.13,3.86,12.01,6,2.01,1.9c-27.8.34-55.6.99-83.39,1.84Z" style="fill: #4b4c4e;"/>
      <polygon points="203.28 124.8 219.38 143.93 225.52 148.93 231.12 148.93 248.01 139.01 270.21 120.44 269.43 125.83 263.74 163.57 245.18 274.08 241.62 280.51 238.7 292.08 216.07 288.39 204.92 287.81 205.07 280.52 203.28 218.63 203.28 124.8" style="fill: #1f89bd;"/>
      <path d="M188.31,43.41c-.64,2.16-1.09,4.4-1.12,6.65-.03,1.96.26,3.9.55,5.84.35,2.33.47,4.82.95,7.1.49,2.33,2.27,4.43,3.14,6.63.26.66.48,1.34.85,1.95.29.49.68.92,1.06,1.35,1.2,1.35,2.38,2.72,3.6,4.05.52-1.27,1.64-2.46,2.38-3.65.81-1.32,1.55-2.68,2.21-4.07,1.33-2.79,2.36-5.73,3.09-8.74,1.45-6.01,1.66-12.33.5-18.42-.29-1.52-.66-3.07-.38-4.6.56-3.07,4.14-5.09,7.01-5.45,5.56-.69,11.14.45,16.46,2.03,2.4.72,4.75,1.7,7.19,2.21,2.61.54,5.13,1.57,7.37,3.02.8.52,1.57,1.09,2.45,1.45,1.29.54,2.72.6,4.12.65,1.4.05,2.81.11,4.21.16,1.1.04,2.67-.19,3.69.3,1.22.58,3.15,4.43,3.15,5.77,4.51,9.25,6.75,19.03,5.24,29.21,1.98-1.11,4.34-1.54,6.58-1.18.63.1,1.28.26,1.9.14,1.5-.29,2.23-1.98,2.65-3.45.76-2.65,1.34-5.36,1.72-8.09.37-2.67.16-5.51.66-8.13.99-5.21,1.14-10.48-.34-15.65-2.68-9.36-10.27-16.74-18.98-21.1-8.71-4.36-18.49-6.04-28.17-7.08-2.33-.25-4.67-.47-7-.22-4.45.48-8.42,2.65-11.83,5.46-3.39,2.78-5.69,7.33-9.1,9.85-2.95,2.18-6.68,2.28-9.6,5.15-2.98,2.94-5.03,6.85-6.2,10.84Z" style="fill: #ff6d04;"/>
      <path d="M173.66,365.15c-9.53.29-19.05.6-28.57.94.1-.03.21-.05.31-.07,5.02-1.06,9.99-2.33,14.89-3.82,4.76-1.45,9.51-3.84,14.32-4.94.47,1.95-.77,5.33-.93,7.48-.01.14,0,.28-.02.42Z" style="fill: #ffb27a;"/>
      <g>
        <path d="M203.29,28.8s14.53-31.21,61.29-7.16c0,0,26.54,14.16,9.86,54.82" style="fill: none; fill-rule: evenodd; stroke: #2e3138; stroke-linecap: round; stroke-miterlimit: 10; stroke-width: 2.59px;"/>
        <path d="M203.27,27.57c-5.55,1.45-10.03,5.81-12.59,10.94-2.56,5.13-3.4,10.96-3.49,16.69-.1,6.27,4.91,15.91,8.19,21.26" style="fill: none; fill-rule: evenodd; stroke: #2e3138; stroke-linecap: round; stroke-miterlimit: 10; stroke-width: 2.59px;"/>
        <path d="M204.51,38.32c5.56-10.75,21.59-6.11,29.37-2.84,3.49,1.47,6.73,3.47,10.25,4.86,8.25,3.27,18.37,2.7,25.2-2.98" style="fill: none; fill-rule: evenodd; stroke: #2e3138; stroke-linecap: round; stroke-miterlimit: 10; stroke-width: 2.59px;"/>
        <path d="M242.19,30.36c1.13.73,2.39,1.25,3.7,1.6,4.12,1.1,8.71.31,12.24-2.08" style="fill: none; fill-rule: evenodd; stroke: #2e3138; stroke-linecap: round; stroke-miterlimit: 10; stroke-width: 2.59px;"/>
        <path d="M219.23,24.02c3.19-.84,6.68-.53,9.68.86" style="fill: none; fill-rule: evenodd; stroke: #2e3138; stroke-linecap: round; stroke-miterlimit: 10; stroke-width: 2.59px;"/>
        <path d="M198.56,40.09c-2.08,2.88-3.21,6.44-3.18,9.99" style="fill: none; fill-rule: evenodd; stroke: #2e3138; stroke-linecap: round; stroke-miterlimit: 10; stroke-width: 2.59px;"/>
        <path d="M200.32,53.8c.59,4.61-.99,9.2-2.55,13.58" style="fill: none; fill-rule: evenodd; stroke: #2e3138; stroke-linecap: round; stroke-miterlimit: 10; stroke-width: 2.59px;"/>
        <path d="M204.51,38.32c.95,8.9,1.87,18.16-1.19,26.57-1.49,4.09-3.86,7.79-6.36,11.35" style="fill: none; fill-rule: evenodd; stroke: #2e3138; stroke-linecap: round; stroke-miterlimit: 10; stroke-width: 2.59px;"/>
        <path d="M258.13,42.96c6.6,10.35,9.21,23.17,7.19,35.27" style="fill: none; fill-rule: evenodd; stroke: #2e3138; stroke-linecap: round; stroke-miterlimit: 10; stroke-width: 2.59px;"/>
        <path d="M265.9,76.89c1.79-.46,3.62-.89,5.47-.85,1.85.05,3.76.63,5.07,1.94,1.24,1.24,1.83,3.03,1.81,4.78-.02,1.75-.62,3.46-1.49,4.98-.6,1.06-1.34,2.04-2.23,2.87-2.59,2.42-6.19,3.37-9.63,4.22" style="fill: none; fill-rule: evenodd; stroke: #2e3138; stroke-linecap: round; stroke-miterlimit: 10; stroke-width: 2.59px;"/>
        <path d="M266.64,84.22c.31-.65.88-1.2,1.57-1.39.7-.19,1.51.01,1.97.57.46.56.47,1.46-.02,1.99" style="fill: none; fill-rule: evenodd; stroke: #2e3138; stroke-linecap: round; stroke-miterlimit: 10; stroke-width: 2.59px;"/>
        <path d="M202.61,104.52c.65,5.06.28,13.6.6,18.67" style="fill: none; fill-rule: evenodd; stroke: #2e3138; stroke-linecap: round; stroke-miterlimit: 10; stroke-width: 2.59px;"/>
        <path d="M270.21,93.25c-.25,10.3-.42,14.9-.68,25.2" style="fill: none; fill-rule: evenodd; stroke: #2e3138; stroke-linecap: round; stroke-miterlimit: 10; stroke-width: 2.59px;"/>
        <path d="M210.07,59.08c.63-.82,1.62-1.31,2.63-1.51,1.02-.2,2.07-.13,3.09.01.81.11,1.65.29,2.26.82" style="fill: none; fill-rule: evenodd; stroke: #2e3138; stroke-linecap: round; stroke-miterlimit: 10; stroke-width: 2.59px;"/>
        <path d="M247.29,57.28c2.23-1.59,5.39-1.74,7.76-.35" style="fill: none; fill-rule: evenodd; stroke: #2e3138; stroke-linecap: round; stroke-miterlimit: 10; stroke-width: 2.59px;"/>
        <path d="M228.65,71.31c-.21,3.64-.44,7.38-1.97,10.7-.41.89-.92,1.78-1.02,2.75-.15,1.42.61,2.83,1.73,3.7,1.12.88,2.55,1.28,3.97,1.42,2.06.2,4.53-.42,5.25-2.36" style="fill: none; fill-rule: evenodd; stroke: #2e3138; stroke-linecap: round; stroke-miterlimit: 10; stroke-width: 2.59px;"/>
        <path d="M232.66,110.89c-1,.31-2.12.24-3.07-.2" style="fill: none; fill-rule: evenodd; stroke: #2e3138; stroke-linecap: round; stroke-miterlimit: 10; stroke-width: 2.59px;"/>
        <path d="M217.25,71.7c0,1.76-1.42,3.18-3.18,3.18s-3.18-1.42-3.18-3.18,1.42-3.18,3.18-3.18,3.18,1.42,3.18,3.18Z" style="fill: #2e3138;"/>
        <path d="M254.34,71.7c0,1.76-1.42,3.18-3.18,3.18s-3.18-1.42-3.18-3.18,1.42-3.18,3.18-3.18c1.76,0,3.18,1.42,3.18,3.18Z" style="fill: #2e3138;"/>
        <path d="M226.1,118.45c-2.77-.02-11.5-3.11-14.83-5.3-2.35-1.54-6.67-4.62-8.17-7.41,0,0-5.66-12.79-5.33-28.33" style="fill: none; fill-rule: evenodd; stroke: #2e3138; stroke-linecap: round; stroke-miterlimit: 10; stroke-width: 2.59px;"/>
        <path d="M203.28,124.8c3.53,7.73,12.86,15.96,18.89,21.79,1.34,1.29,2.83,2.57,5.07,2.68,2.05.1,4.43-.8,6.7-1.73,14.1-5.77,23.23-17.83,36.28-27.11" style="fill: none; fill-rule: evenodd; stroke: #2e3138; stroke-linecap: round; stroke-miterlimit: 10; stroke-width: 2.59px;"/>
        <path d="M205.07,278.14c.08.42-12.59-62.7-21.92-87.17-.47-1.24-.98-2.53-1-3.94-.02-1.24.33-2.45.7-3.6,2.46-7.72,6.04-14.87,10.48-20.94-2.12-4.71-4.24-9.42-6.36-14.13-.39-.87-.79-1.82-.68-2.84.09-.74.44-1.39.78-2,4.79-8.55,9.87-16.84,15.19-24.83,0,0-.26,142.56,2.81,159.44Z" style="fill: none; fill-rule: evenodd; stroke: #2e3138; stroke-linecap: round; stroke-linejoin: round; stroke-width: 2.59px;"/>
        <path d="M241.62,280.51c-.36.94,29.95-60.48,45.37-90.88.86-1.69.38-3.83-.16-5.65-.54-1.83-1.76-3.38-2.94-4.87-4.03-5.08-8.07-10.16-12.1-15.24,3.9-3.84,7.8-7.67,11.7-11.51-5.9-9.72-7.37-22.2-13.27-31.92,0,0-19.52,136.05-28.6,160.07Z" style="fill: none; fill-rule: evenodd; stroke: #2e3138; stroke-linecap: round; stroke-miterlimit: 10; stroke-width: 2.59px;"/>
        <path d="M264.89,100.99c-2.51,7.05-7.95,12.79-14.49,15.29-2.19.84-4.48,1.32-6.77,1.72-4.14.71-8.32,1.11-12.51,1.21" style="fill: none; fill-rule: evenodd; stroke: #2e3138; stroke-linecap: round; stroke-miterlimit: 10; stroke-width: 2.59px;"/>
        <path d="M311.47,253.73c-3.34-5.84-6.05-12.05-8.05-18.48-3.42-10.98-4.84-22.68-10.04-32.93" style="fill: none; fill-rule: evenodd; stroke: #2e3138; stroke-linecap: round; stroke-miterlimit: 10; stroke-width: 2.59px;"/>
        <path d="M165.97,187.23c-.25,31.86-.51,63.72-.76,95.58" style="fill: none; fill-rule: evenodd; stroke: #2e3138; stroke-linecap: round; stroke-miterlimit: 10; stroke-width: 2.59px;"/>
        <path d="M270.8,111.34c10.54.25,21.06,1.26,31.46,3.01,10.93,1.84,22.39,4.87,29.98,12.95,9.19,9.79,10.43,24.45,10.57,37.87.16,14.52.11,22.67-1.15,37.14" style="fill: none; stroke: #2e3138; stroke-linecap: round; stroke-miterlimit: 10; stroke-width: 2.59px;"/>
        <path d="M336.95,287.81c.37,12.86-1.12,27.79-1.12,41.22,0,10.45-8.96,14.93-14.12,23.42" style="fill: none; stroke: #2e3138; stroke-linecap: round; stroke-miterlimit: 10; stroke-width: 2.59px;"/>
        <path d="M172.56,289.93c7.67-.27,15.38,1,22.67,3.72" style="fill: none; stroke: #2e3138; stroke-linecap: round; stroke-miterlimit: 10; stroke-width: 2.59px;"/>
        <path d="M162.93,286.07c-15.37,4.99-37.46,18.04-50.43,27.66,21.33,7.29,40.72,20.19,55.69,37.05,8.59-12.14,17.29-24.39,28.45-34.21,5.23-4.6,11.49-9.65,11.51-16.61.02-6.26-5.26-12.33-3.1-18.2" style="fill: none; stroke: #2e3138; stroke-linecap: round; stroke-linejoin: round; stroke-width: 2.59px;"/>
        <path d="M205.69,351.88c2.92-12.25,14.12-22.24,20.26-33.02,6.63-11.63,11.57-24.21,14.62-37.24" style="fill: none; stroke: #2e3138; stroke-linecap: round; stroke-linejoin: round; stroke-width: 2.59px;"/>
        <path d="M234.02,352.55c-9.12-2.04-18.68-2.16-27.79-.01" style="fill: none; stroke: #2e3138; stroke-linecap: round; stroke-linejoin: round; stroke-width: 2.59px;"/>
        <path d="M319.36,299.03c-1.66,8.94,1.42,18.12,2.69,26.91,1.4,9.65-.34,18.14-5.61,26.41" style="fill: none; stroke: #2e3138; stroke-linecap: round; stroke-linejoin: round; stroke-width: 2.59px;"/>
        <path d="M245.83,295.34c5.73-.95,11.66-.72,17.3.69" style="fill: none; stroke: #2e3138; stroke-linecap: round; stroke-miterlimit: 10; stroke-width: 2.59px;"/>
        <path d="M115.86,316.94c-20.39,1.64-24.87,24.04-23.49,39.99" style="fill: none; stroke: #2e3138; stroke-linecap: round; stroke-miterlimit: 10; stroke-width: 2.59px;"/>
        <path d="M226.43,308.76c-17.91,13.48-40.44,24.3-49.8,46" style="fill: none; stroke: #2e3138; stroke-linecap: round; stroke-miterlimit: 10; stroke-width: 2.59px;"/>
        <path d="M218.46,300.93c1.68,3.19,3.36,6.38,5.04,9.57" style="fill: none; stroke: #2e3138; stroke-linecap: round; stroke-miterlimit: 10; stroke-width: 2.59px;"/>
        <path d="M205.94,287.88c4.01-.48,8.06.17,12.05.81,6.99,1.13,11.24,1.96,18.23,3.08" style="fill: none; stroke: #2e3138; stroke-linecap: round; stroke-miterlimit: 10; stroke-width: 2.59px;"/>
        <path d="M342.59,351.8c4.08-24.05,1.09-48.71,3.8-72.92" style="fill: none; stroke: #2e3138; stroke-linecap: round; stroke-miterlimit: 10; stroke-width: 2.59px;"/>
        <path d="M270.52,106.59c20.16,1.11,39.13,4.2,58.69,9.22,9.33,2.39,19.49,5.96,24,14.47,2.58,4.87,3.12,10.6,2.95,16.11-.7,21.81-2.58,44.99-5.43,88.36" style="fill: none; stroke: #2e3138; stroke-linecap: round; stroke-miterlimit: 10; stroke-width: 2.59px;"/>
        <g>
          <path d="M246.44,305.95c-2.26.12-4.57.25-6.7,1.02-4.56,1.65-7.67,5.97-12.07,8-.86.4-1.95.99-1.8,1.93.05.33.27.62.51.86,1.38,1.41,3.56,1.74,5.52,1.46,1.95-.28,3.79-1.09,5.69-1.64.35-.1.83-.13.96.2.09.22-.05.46-.2.64-1.02,1.21-2.81,1.29-4.3,1.8-1.09.37-2.07,1.01-3.04,1.65-3.24,2.15-6.42,4.39-9.54,6.73-.89.66-1.81,1.4-2.16,2.45-.08.25-.12.52-.04.76.16.47.72.66,1.21.76,1.53.31,3.12.36,4.67.15-.35,1.13-1.71,1.52-2.82,1.93s-2.32,1.47-1.87,2.56c.32.77,1.36,1.11,1.55,1.93.06.25.02.51.03.76.03,1.89,2.05,3.08,3.86,3.6,2.26.65,4.65.87,7,.65.27-.03.57-.05.8.1.3.19.36.6.53.92.5.95,1.82,1.01,2.89.93,2.41-.17,4.82-.34,7.19-.83,4.59-.95,8.85-3.08,12.9-5.44.92-.54,1.83-1.09,2.71-1.69,2.74-1.88,5.12-4.29,6.97-7.05.36-.54.71-1.11.87-1.74.28-1.13-.1-2.33-.72-3.32-.62-.98-1.47-1.8-2.25-2.66-1.95-2.15-3.52-4.64-4.62-7.33-.89-2.18-1.49-4.49-2.67-6.52-.79-1.37-2.3-3.65-3.98-3.95-2.14-.38-4.91.25-7.08.37Z" style="fill: #fff;"/>
          <g>
            <path d="M254.34,306c-3.96.14-6.82.48-10.78.62-1.07.04-2.16.08-3.18.39-1.24.38-2.33,1.13-3.39,1.86-2.78,1.93-5.57,3.86-8.35,5.79-.9.63-1.89,1.38-2.04,2.47-.19,1.36,1.12,2.56,2.48,2.78,1.36.21,2.94.1,4.01-.77,2.22-1.79,4.9-1,7-1.79" style="fill: none; stroke: #2e3138; stroke-linecap: round; stroke-miterlimit: 10; stroke-width: 2.59px;"/>
            <path d="M240.08,317.35c-6.06,4.02-12.31,7.76-18.7,11.22-1.18.64-2.55,1.62-2.35,2.94.21,1.34,1.88,1.85,3.24,1.87,3.63.06,7.13-1.29,10.45-2.77,4.23-1.9,8.35-4.06,12.31-6.47" style="fill: none; stroke: #2e3138; stroke-linecap: round; stroke-miterlimit: 10; stroke-width: 2.59px;"/>
            <path d="M242.14,325.84c-6.76,3.57-14.9,7.47-22.13,9.93-.65,1.26.28,2.88,1.58,3.46,1.3.58,2.79.4,4.19.15,7.17-1.26,14.1-4.03,20.02-8.26" style="fill: none; stroke: #2e3138; stroke-linecap: round; stroke-miterlimit: 10; stroke-width: 2.59px;"/>
            <path d="M228.6,338.77c-1.49.21-2.99.43-4.48.64-.65.09-1.38.23-1.76.77-.56.81.05,1.94.83,2.55,1.79,1.39,4.25,1.46,6.51,1.32,5.29-.32,10.53-1.45,15.48-3.34,1.87-.71,3.74-1.56,5.12-3" style="fill: none; stroke: #2e3138; stroke-linecap: round; stroke-miterlimit: 10; stroke-width: 2.59px;"/>
            <path d="M239.63,342.48c-1.15.29-3.17.98-4.32,1.27-.74.18-1.65.61-1.56,1.36.07.61.78.91,1.38,1.05,1.86.43,3.79.51,5.68.24,1.83-.26,3.59-.83,5.33-1.44,4.38-1.54,8.72-3.33,12.57-5.93,3.85-2.59,7.23-6.04,9.17-10.26" style="fill: none; stroke: #2e3138; stroke-linecap: round; stroke-miterlimit: 10; stroke-width: 2.59px;"/>
          </g>
        </g>
        <path d="M270.21,120.44s37.22,9.73,46.18,21.88c13.05,17.7,47.5,114.01,33.68,131.28-13.82,17.27-79.54,57.58-79.54,57.58l-16.19-25.18s47.94-43.92,60.61-52.55" style="fill: none; fill-rule: evenodd; stroke: #2e3138; stroke-linecap: round; stroke-miterlimit: 10; stroke-width: 2.59px;"/>
        <path d="M202.26,118.7s-38.07,14.4-46.7,24.19c-8.64,9.79-32.93,75.67-32.93,75.67" style="fill: none; stroke: #2e3138; stroke-linecap: round; stroke-miterlimit: 10; stroke-width: 2.59px;"/>
        <path d="M165.2,221.08s-12.37,37.19-21.95,38.81c-9.58,1.62-71.82-26.47-71.82-26.47l8.12-27.16c35.92,5.64,46.06,13.56,46.06,13.56" style="fill: none; stroke: #2e3138; stroke-linecap: round; stroke-miterlimit: 10; stroke-width: 2.59px;"/>
        <path d="M44.64,216.29c-6.84-1.39-14.05-.93-20.65,1.33-.95.33-2.07.97-1.95,1.97.05.39.29.73.58,1,1.31,1.25,3.33,1.28,5.15,1.24,2.6-.06,5.19-.13,7.79-.19,2.79-.07,5.68-.12,8.23,1.01,1.62.71,3.01,1.86,4.5,2.83,6.83,4.42,15.42,4.82,23.56,5.09" style="fill: none; stroke: #2e3138; stroke-linecap: round; stroke-miterlimit: 10; stroke-width: 2.59px;"/>
        <path d="M48.14,196.66c-7.26-2.8-15.17-3.29-22.94-3.76-1.66-.1-3.74.04-4.39,1.58-.35.82-.11,1.79.35,2.55,1.58,2.58,5.09,2.98,8.11,3.1,1.78.07,3.56.14,5.34.22,3.24.13,9.2,2.35,12.33,3.18" style="fill: none; stroke: #2e3138; stroke-linecap: round; stroke-miterlimit: 10; stroke-width: 2.59px;"/>
        <path d="M24.99,206.18c-1.63.06-4.73,1.15-6.05,2.11-.88.65-1.69,1.78-1.2,2.76.3.6.98.89,1.62,1.05,3.11.78,6.34-.39,9.54-.7,4.87-.46,11.1,3.32,15.74,4.88" style="fill: none; stroke: #2e3138; stroke-linecap: round; stroke-miterlimit: 10; stroke-width: 2.59px;"/>
        <path d="M24.84,199.55c-1.74-.16-5.33.39-7.06.62-.89.12-1.84.32-2.43,1-.96,1.11-.39,2.97.79,3.83,1.19.87,2.74.99,4.21,1.05,2.61.09,5.23.03,7.84-.19.47-.04.94-.08,1.4,0,.56.09,3.32.91,3.88,1,5.39.88,7.61,1.68,12.31,2.01" style="fill: none; stroke: #2e3138; stroke-linecap: round; stroke-miterlimit: 10; stroke-width: 2.59px;"/>
        <path d="M78.72,205.44c-2.36-1.65-4.72-3.31-7.08-4.96-1.14-.8-2.29-1.6-3.31-2.55-.66-.61-1.27-1.28-1.92-1.91-3.31-3.18-7.66-5.11-12.13-6.15-4.47-1.04-9.09-1.23-13.67-1.32-.69-.01-1.46,0-1.94.51-.59.62-.39,1.65-.01,2.42,1,2.02,2.93,3.46,5.02,4.32,2.08.86,4.34,1.22,6.57,1.57.35.06.72.12.99.35.27.24.39.6.5.94,1.94,6.02,6.28,11.45,12.19,13.69" style="fill: #fff; stroke: #2e3138; stroke-linecap: round; stroke-miterlimit: 10; stroke-width: 2.59px;"/>
        <path d="M50.26,207.83c-1.1,2.52-1.55,5.32-1.27,8.05" style="fill: none; stroke: #2e3138; stroke-linecap: round; stroke-miterlimit: 10; stroke-width: 2.59px;"/>
        <path d="M221.99,100.32c0-.09,0-.18-.01-.27-.02-.74.07-1.55.52-2.09,1.22-1.48,4.49-.67,6.06-.64,2.92.06,5.85.12,8.77.18,2.21.04,4.86.1,4.5,3.49-.67,6.21-8.77,6.55-12.81,5.91-3.48-.55-6.76-2.2-7.03-6.59Z" style="fill: none; fill-rule: evenodd; stroke: #2e3138; stroke-linecap: round; stroke-miterlimit: 10; stroke-width: 2.59px;"/>
        <path d="M293.31,226.86c0,4.82,2.34,28.37,3.27,33.09" style="fill: none; fill-rule: evenodd; stroke: #2e3138; stroke-linecap: round; stroke-miterlimit: 10; stroke-width: 2.59px;"/>
      </g>
      <g>
        <path d="M281.16,193.57s23.02-71.72-9.98-78.05l-.47,2.86s26.55,3.87,6.41,75.25" style="fill: #a0a0a1; stroke: #2e3138; stroke-miterlimit: 10; stroke-width: 2.59px;"/>
        <g>
          <path d="M266.89,204.16c.08,5.73,4.8,10.31,10.53,10.23,5.73-.08,10.31-4.8,10.23-10.53-.08-5.73-4.8-10.31-10.53-10.23-5.73.08-10.31,4.8-10.23,10.53Z" style="fill: #fff; stroke: #2e3138; stroke-miterlimit: 10; stroke-width: 2.59px;"/>
          <path d="M270.38,204.11c.05,3.81,3.19,6.85,7,6.8,3.81-.05,6.85-3.19,6.8-7-.06-3.81-3.19-6.85-7-6.8-3.81.05-6.85,3.19-6.8,7Z" style="fill: #a0a0a1; stroke: #2e3138; stroke-miterlimit: 10; stroke-width: 2.59px;"/>
        </g>
        <path d="M202.19,113.17s-22.65,18.82-17.8,47.17c0,0-35.7,5.32-1.87,57.46l2.44-2.52s-30.73-44.15,2.04-52.66c32.77-8.51,18.27,45.48,18.27,45.48l2.79.12s16.14-51.65-18.08-49.42c0,0-9.15-15.79,11.38-40.6l.82-5.03Z" style="fill: #a0a0a1; stroke: #2e3138; stroke-miterlimit: 10; stroke-width: 2.59px;"/>
        <path d="M182.42,218.3c.35,1.13,1.54,1.77,2.67,1.42s1.77-1.54,1.42-2.67c-.35-1.13-1.54-1.77-2.67-1.42-1.13.35-1.77,1.54-1.42,2.67Z" style="fill: #a0a0a1; stroke: #2e3138; stroke-miterlimit: 10; stroke-width: 2.59px;"/>
        <path d="M204.33,209.36c.35,1.13,1.54,1.77,2.67,1.42s1.77-1.54,1.42-2.67-1.54-1.77-2.67-1.42-1.77,1.54-1.42,2.67Z" style="fill: #a0a0a1; stroke: #2e3138; stroke-miterlimit: 10; stroke-width: 2.59px;"/>
      </g>
    </g>
    <rect width="377" height="243" style="fill: none;"/>
  </g>
</svg>