<?xml version="1.0" encoding="UTF-8"?>
<svg id="_圖層_2" data-name="圖層 2" xmlns="http://www.w3.org/2000/svg" viewBox="0 0 221.1 221.1">
  <g>
    <path d="M221.1,110.55c0,61.06-49.49,110.55-110.55,110.55S0,171.61,0,110.55,49.5,0,110.55,0s110.55,49.49,110.55,110.55h0ZM110.55,28.18c-45.5,0-82.37,36.88-82.37,82.37s36.88,82.37,82.37,82.37,82.37-36.88,82.37-82.37S156.04,28.18,110.55,28.18h0Z" style="fill: #005bac; fill-rule: evenodd;"/>
    <path d="M79.66,79.27c.12,0,.23-.02.34-.02l13.71.12.04-12.28c.07-.57-.05-1.28-.05-1.87,0-7.75-6.29-14.04-14.04-14.04s-13.64,5.91-14,13.34h-.04v14.73h13.69c.12,0,.23.02.35.02h0ZM141.18,80.24c7.76,0,14.04-6.28,14.04-14.05s-6.29-14.05-14.04-14.05-14.04,6.3-14.04,14.05,6.28,14.05,14.04,14.05h0ZM141.18,81.94c-10.86,0-19.68,8.69-19.88,19.49h-21.74c.01-.26.02-.52.02-.77,0-10.99-8.91-19.89-19.88-19.89s-19.9,8.9-19.9,19.89c0,.75.05,1.5.13,2.24v56.27h39.53v-37.97h21.96v39.4h39.54v-56.52c.08-.74.13-1.49.13-2.25,0-10.98-8.91-19.88-19.89-19.88h0Z" style="fill: #00a84d; fill-rule: evenodd;"/>
  </g>
  <g>
    <path d="M21.24,112.24H7.25v1.93h10.01l-10.01,4.88v1.97h13.99v-1.93h-9.93l9.93-4.71v-2.15h0ZM10.36,136.41l13.06-6.34-.37-2.01-14.46-1.26.37,2.01,2.82.19.77,4.19-2.56,1.2.37,2.01h0ZM20.23,129.62l-5.4,2.48-.62-2.88,6.02.4h0ZM25.79,138.68l-1.09-3.29-2.41.83,1.09,3.29-10.87,3.55.61,1.84,10.87-3.55,1.06,3.21,2.41-.83-1.67-5.05h0ZM28.67,146.77l-12.73,5.81.8,1.76,12.73-5.8-.8-1.77h0ZM32.75,154.55c-.98-1.63-2.67-1.73-5.05-.29-.8.48-1.6.96-2.4,1.45-.78.47-1.58.95-2.39,1.44-2.4,1.45-3.12,2.99-2.14,4.62.33.54.66,1.09.99,1.64.33.54.65,1.08.98,1.62.98,1.63,2.68,1.73,5.09.29.8-.48,1.6-.96,2.39-1.44.8-.48,1.6-.96,2.4-1.45,2.39-1.44,3.09-2.97,2.1-4.61-.33-.54-.65-1.08-.98-1.62-.32-.54-.65-1.09-.99-1.64h0ZM24.81,158.27c.5-.3,1-.6,1.49-.9.5-.3.99-.6,1.49-.9,1.47-.88,2.73-.96,3.32,0,.2.32.39.65.59.98.19.31.38.63.58.97.58.96-.1,2-1.57,2.9-.49.3-.99.6-1.49.9-.5.3-1,.6-1.49.9-1.49.9-2.75.86-3.33-.11-.2-.33-.39-.65-.58-.96-.2-.33-.39-.65-.59-.97-.58-.96.1-1.9,1.58-2.8h0ZM38.72,163.84l-10.61,9.12,1.26,1.46,7.59-6.52-4.41,10.23,1.29,1.5,10.61-9.12-1.26-1.46-7.53,6.47,4.47-10.04-1.4-1.63h0ZM45.27,190.43l5.96-13.23-1.57-1.3-11.9,8.3,1.57,1.3,2.29-1.66,3.28,2.72-1.2,2.56,1.57,1.3h0ZM48.5,178.88l-2.4,5.09-2.17-1.8,4.57-3.29h0ZM52.13,192.68l6.53-9.56-1.6-1.1-7.93,11.53,6.26,4.3,1.39-1.96-4.66-3.2h0ZM74.76,201.21l-2.34,5.34,1.78.78,5.6-12.82-1.78-.78-2.25,5.31-4.5-1.96,2.25-5.31-1.78-.78-5.6,12.82,1.78.78,2.34-5.34,4.5,1.96h0ZM81.4,209.6l6.11,1.94.8-2.53-6.11-1.94,1.02-3.21,5.39,1.71.69-2.2-5.39-1.71.96-3.08,5.91,1.87.75-2.32-7.76-2.46-4.23,13.34,1.85.59h0ZM102.59,213.8l-1.63-14.42-2.02-.32-5.99,13.22,2.02.32,1.12-2.6,4.21.66.28,2.82,2.01.32h0ZM99.46,202.23l.54,6.17-3.07-.5,2.53-5.66h0ZM109.59,211.36v-11.56h-1.94v13.99h7.6v-2.43h-5.66ZM119.99,199.49l-3.45.35.27,2.64,3.45-.35,1.14,11.27,1.93-.2-1.14-11.27,3.36-.34-.27-2.64-5.29.54h0ZM137.52,204.53l1.45,5.53,1.88-.49-3.55-13.53-1.88.49,1.43,5.43-4.75,1.25-1.43-5.43-1.88.49,3.55,13.53,1.88-.49-1.45-5.53,4.75-1.25h0ZM146.64,192.45l5.52,12.85,1.78-.76-5.52-12.85-1.78.77h0ZM151.98,189.99l7.24,11.97,1.65-1-5.18-8.56,9.36,6.04,1.69-1.02-7.24-11.97-1.65,1,5.14,8.5-9.17-6.06-1.84,1.12h0ZM171.09,183.79c-.77.62-1.66,1.32-2.66,2.12-.41.33-.95-.1-1.47-.75-.59-.74-1.06-1.43-.61-1.79.53-.42.92-.73,1.17-.93.24-.2.62-.5,1.13-.9.46-.36.98-.06,1.61.72l1.52-1.21c-.97-1.21-1.51-1.85-2.14-2.14-.61-.29-1.19-.21-1.75.24-.76.6-1.36,1.08-1.81,1.44-.44.35-.79.62-1.03.82-1.55,1.24-1.61,2.76-.17,4.56.08.11.21.27.39.48.15.19.39.48.7.87,1.32,1.66,2.32,1.72,3.6.7.98-.78,1.82-1.49,2.6-2.11.47-.38.97-.25,1.48.4.72.9,1.41,2.01.94,2.38-.56.45-.96.77-1.22.97-.25.2-.67.54-1.27,1.01-.43.35-.78.12-1.29-.53-.12-.15-.26-.33-.42-.52l-1.52,1.21c.33.47.64.92.92,1.27,1.24,1.52,2.11,1.56,3.2.85.79-.51,1.34-1.06,1.8-1.43.46-.36,1.05-.84,1.79-1.42,1.1-.88.98-2.16-.38-3.86-.28-.35-.51-.64-.7-.88-.16-.21-.37-.46-.6-.76-1.37-1.72-2.48-1.88-3.81-.82h0ZM172.31,175.22l6.86,6.63c2.12,2.05,3.97,2.28,5.54.67.19-.2.43-.45.71-.74.29-.3.52-.54.68-.71,1.58-1.63,1.31-3.48-.82-5.54l-6.86-6.63-1.35,1.39,6.61,6.29c1.16,1.11,1.37,2.05.64,2.8-.22.23-.43.44-.61.63-.19.19-.39.41-.62.64-.72.74-1.66.56-2.82-.55l-6.61-6.29-1.35,1.39h0ZM193.41,165.89l3.08,2.1,1.1-1.61-3.08-2.1c-.65-.44-1.36-.65-2.13-.64-.23-.7-.88-1.41-1.94-2.14-.25-.17-.49-.34-.73-.5-.25-.17-.5-.34-.75-.51-1.94-1.33-3.35-1.36-4.21-.11-.19.28-.42.62-.69,1.01l-2.98,4.37,11.56,7.88,1.09-1.6-4.21-2.87,1.89-2.77c.26-.37.55-.62.9-.75.35-.11.73-.03,1.11.23h0ZM186.25,162.89c.12-.17.26-.39.44-.65.29-.43.93-.31,1.92.37.97.66,1.32,1.22,1.04,1.65-.18.26-.33.48-.44.64l-1.89,2.76-2.96-2.02,1.88-2.76h0ZM204.92,153.42l-14.18-3.08-.95,1.81,10.6,9.91.95-1.81-2.1-1.89,1.98-3.77,2.76.64.95-1.81h0ZM192.96,152.66l5.48,1.28-1.31,2.5-4.17-3.78h0ZM193.7,144.09l13.19,4.67.64-1.82-9.43-3.35,11.07-1.26.66-1.86-13.19-4.67-.64,1.82,9.36,3.32-10.93,1.12-.72,2.03h0ZM202.51,123.09c-2.14-.4-3.4.34-3.76,2.21-.12.62-.23,1.24-.35,1.87-.12.62-.23,1.25-.35,1.89-.35,1.87.85,3.06,3.59,3.57.92.17,1.84.34,2.76.51.9.17,1.81.34,2.75.51,2.76.51,4.31-.17,4.66-2.04.12-.62.23-1.25.35-1.89.12-.62.23-1.25.35-1.88.35-1.89-.65-3.06-3.02-3.51-.79-.15-.87-.18-1.65-.33l-.35,1.91c.44.08.83.21,1.27.29,1.31.24,1.55.89,1.34,2.02-.07.38-.14.76-.21,1.13-.07.37-.14.75-.21,1.12-.21,1.1-1.5,1.39-3.21,1.08-.57-.1-1.14-.21-1.71-.32-.57-.11-1.14-.21-1.71-.32-1.69-.31-2.66-1.03-2.46-2.14.07-.37.14-.75.21-1.12.07-.36.14-.73.21-1.11.2-1.1.87-1.56,1.99-1.36.37.07.2-.01.59.06l.35-1.91c-.73-.14-.69-.12-1.42-.25h0ZM214,117.64v-6.41h-2.54v6.41h-3.23v-5.65h-2.44v5.65s-3.34,0-3.34,0v-6.2h-2.44v8.14h13.99v-1.94h0Z" style="fill: #fff; fill-rule: evenodd;"/>
    <path d="M190.09,60.19l-1.43-1.78,2.24-1.82,1.91,2.37-1.89,1.53c-.13.12-.26.14-.39.08-.14-.06-.29-.17-.44-.37h0ZM183.7,52.37l-1.26-1.57,2.29-1.88,1.76,2.18-1.96,1.6c-.11.1-.24.11-.37.07-.14-.06-.29-.19-.46-.4h0ZM172.34,47.58l1.55,1.92c.55.64,1.08,1.03,1.61,1.15.5.12,1.01,0,1.48-.38l4.77-3.85c.23-.18.37-.46.41-.79.03-.35-.02-.75-.16-1.22.43.24.84.36,1.22.36.39,0,.75-.14,1.08-.41l5.47-4.43-4.96-6.17-15.97,12.93,1.82,2.27,1.7-1.39h0ZM178.94,42.23l.48.59c.3.37.5.67.61.88.1.23.11.38.02.46l-4.4,3.56c-.13.1-.25.14-.35.14-.11,0-.19-.06-.28-.16l-1.12-1.4,5.03-4.08h0ZM185.06,37.29l1.37,1.71-4.26,3.44c-.12.1-.25.13-.4.07-.14-.05-.28-.18-.45-.38l-.88-1.09,4.62-3.75h0ZM191.36,43.28l-1-.31c-.2-.06-.41-.18-.61-.36-.22-.18-.44-.42-.68-.71l-.41-.52-1.52,1.22,1.27,1.58c.42.53.63.72,1.01,1.02.43.34,2.36.47,2.93.64l3.9,4.92,1.15,1.47c.06.61-.15,2.66.08,3.15.21.45.29.64.71,1.18l1.4,1.79,1.53-1.2-.55-.71c-.24-.3-.42-.57-.55-.83-.11-.24-.18-.47-.2-.67l-.07-1.04.24-1.8-6.82-8.62-1.81-.18h0ZM179,58.32l2.85,3.72v-.03s.04.04.04.04c.41.51.84.84,1.3,1.03.45.16.9.17,1.37,0l2.04-.78-1.17,2.56c-.14.38-.2.74-.18,1.06.02.33.14.6.31.84l1.39,1.71,1.41-1.14-.49-.61c-.12-.16-.21-.33-.21-.49-.01-.16.03-.33.14-.5.64-2.2.58-1.67-.52-3.66l1.56-.66.86,1.07c.46.57.88.93,1.27,1.07.38.14.76.09,1.08-.18l4.01-3.27-5.52-6.84-5.01,4.06,1.29,1.6-3.3,1.37c-.23.07-.43.09-.58.06-.15-.03-.28-.09-.35-.18l-.97-1.33h0s-.41-.52-.41-.52c-.12-.15-.19-.3-.19-.44,0-.15.03-.31.14-.48.64-1.91.81-1.42-.23-3.18l1.47-.62.88,1.09c.43.54.84.87,1.22,1,.38.13.74.07,1.07-.2l4.08-3.32-5.29-6.57-5.09,4.12,1.13,1.4-3.17,1.37c-.23.07-.42.1-.56.1-.15-.01-.25-.06-.33-.17l-.64-.78-1.35,1.09,1.27,1.58c.4.48.82.82,1.26.98.44.16.89.16,1.36,0l1.36-.55-.78,1.77c-.15.36-.19.71-.16,1.01,0,.3.13.57.31.8l.02.03h-.01ZM186.79,44.05l11.27,14.24-1.4,1.11-11.27-14.24,1.4-1.1h0ZM80.51,7.61l-.93,5.32c-.07.35-.16.61-.28.8-.13.18-.28.29-.46.32l-1.15.19.4,2.39,2.01-.34,2.28,13.51,3-.5-2.8-16.53,1.2-5.71-3.26.55h0ZM89.98,7.05l.3,1.67,4.36-.7.3,1.7-5.33.86.32,1.77,5.33-.87.3,1.68-4.36.7.29,1.67,4.36-.71.32,1.77-4.79.78.32,1.77,4.77-.79.29,1.6-5.32.87.31,1.77,5.32-.87.18.98,3.37-.55-.17-.97,6.44-1.05-.31-1.77-6.46,1.05-.27-1.62,5.9-.95-.3-1.77-5.91.96-.31-1.76,2.96-.49c.87-.14,1.51-.37,1.91-.7.4-.31.56-.73.47-1.22l-.32-1.85,1.68-.28-.31-1.76-1.7.28-.6-3.38-5.61.92-.23-1.24-3.38.55.21,1.25-4.36.71h0ZM98.03,7.45l2.65-.43.31,1.7-2.67.43-.3-1.7h0ZM85.9,17.42l-.29.05.26,1.48.74-.11h0c.19.05.34.19.39.55.38,1.75.83,3.5,1.15,5.26.04.23,0,.51-.07.63-.16.23-.37.36-.6.4l-.54.11.35,1.99,1.56-.27c.51-.1.93-.3,1.24-.62.26-.26.8-1.8.81-1.8,1.05.58,2.96,1.68,4,1.5l13.96-2.34-.33-2-11.95,1.98c-1.21.2-6.47-1.56-6.47-2.44-.26-2.13-.82-4.37-1.89-4.47h0c.44-.08.8-.7.74-1.14l-1.27-7.67c-.07-.44-.47-.74-.91-.68l-2.38.34-.51.08.3,2,.55-.09c.36-.06.76-.05.83.46l1.05,6.06c.05.34-.29.67-.72.74h0ZM98.64,10.92l2.67-.43.23,1.32c.03.12-.02.22-.14.31-.11.07-.28.13-.52.17l-1.95.32-.29-1.68h0ZM51.13,33.04c5.75-3.54,11.43-7.04,17.18-10.58.64-.38,1.05-.8,1.24-1.23.18-.44.12-.9-.18-1.37l-3.66-5.96-22.11,13.57,9.78,15.92c.32.53.73.82,1.23.89.49.06,1.08-.12,1.76-.54l9.29-5.71-1.21-2-7.68,4.73c-.22.13-.39.21-.54.2-.16,0-.27-.07-.36-.2l-2.21-3.59c3.89-2.39,7.72-4.75,11.56-7.12l6.81,2.76c.72.59,1.94.21,2.63-.22l3.44-1.91-1.32-1.83-2.31,1.24c-.2.12-.4.18-.57.2-.18,0-.34-.07-.49-.19l-5.03-1.99c1.78-1.09,3.56-2.18,5.35-3.28l-1.15-1.9c-2.28,1.39-4.53,2.78-6.78,4.16l-1.59-.63-3.14,1.92,1.6.65c-3.38,2.08-6.76,4.16-10.17,6.26l-1.36-2.24h0ZM47.76,27.55l16.11-9.9,1.96,3.16c.08.15.09.27.02.4-.06.12-.2.25-.4.38l-15.51,9.53-2.18-3.57h0ZM39.66,39.66l-15.58,19.62,1.83,1.44,6.73-8.47,2.57,2.03-6.57,8.33,1.81,1.41,6.57-8.31,2.42,1.91-7.14,9.04,1.9,1.51,16.49-20.85-1.91-1.5-7.22,9.14-2.43-1.91,6.64-8.41-1.79-1.42-6.65,8.4-2.58-2.04,6.74-8.48-1.82-1.43h0ZM22.16,53.23l.12,1.24c.03.25,0,.52-.12.78-.11.27-.29.55-.53.87l-1.28,1.62,1.32,1.03,2.16-2.73c.43-.55.75-1.06.92-1.55.18-.49.22-.95.15-1.4l-.03-2.48,3.13-3.93,3.7-4.63,2.42-.52c.45-.02.9-.18,1.33-.46.44-.28.87-.7,1.31-1.25l2.17-2.71-1.3-1.05-1.29,1.61c-.24.31-.49.54-.73.71-.23.15-.47.25-.73.28l-1.24.15-2.16-.06-4.95,6.17h0s-.28.36-.28.36l-.32.39h0s-4.31,5.45-4.31,5.45l.54,2.09h0ZM133.78,25.23l.41,1.69c.13.5.36.9.69,1.21.32.3.76.51,1.29.61l4.06.75.35-1.85-2.72-.51c-.15-.03-.27-.09-.36-.18-.1-.09-.15-.23-.18-.39l-.1-.7-3.44-.64h0ZM137.83,21.89c-.27.33-.52.56-.78.7-.26.14-.52.18-.78.14l-2.71-.51-.35,1.87,4.07.76c.33.06.66.08.96.04.32-.02.62-.11.9-.25.29-.12.6-.36.94-.71.33-.36.68-.83,1.09-1.42l-3.34-.62h0ZM122.45,23.12c-.29.34-.57.58-.85.72-.29.14-.57.18-.86.12l-1.81-.35-.35,1.84,3.19.6c.35.06.71.08,1.04.05.34-.03.66-.12.98-.22.28-.11.6-.35.96-.7.36-.35.74-.83,1.16-1.43l-3.46-.64h0ZM120.84,18.73l.54,1.69c.15.52.44.95.84,1.27.4.32.91.52,1.53.64l2.95.55.35-1.87-1.73-.32c-.25-.04-.43-.12-.58-.23-.15-.1-.25-.23-.32-.4l-.22-.71-3.34-.61h0ZM132.88,16.92l4.56.86-.15.85c-.02.12-.1.19-.23.23-.15.03-.32.03-.57-.01l-3.84-.71.23-1.22h0ZM133.4,14.15l4.56.85-.2,1.11-4.58-.85.22-1.11h0ZM121.69,10.05l-.34,1.86,8.85,1.65-.21,1.11-9.47-1.79-.31,1.64,9.47,1.8-.22,1.22-8.86-1.65-.34,1.85,8.86,1.66-1.09,5.91c-.03.13-.09.22-.23.26-.12.04-.28.04-.49,0l-1.23-.23-.34,1.85,1.99.38c1.01.17,1.8.16,2.37-.04.58-.21.92-.63,1.03-1.25l1.17-6.3,4.96.92c1.89.35,2.93,0,3.13-1.04l.26-1.48,1.97.36.3-1.66-1.95-.37.54-2.96-7.79-1.44.21-1.13-3.18-.59-.21,1.12-8.86-1.65h0ZM129.9,6.21l-.24,1.3-11.82-2.21-3.2,17.33c-.03.12-.09.2-.21.23-.12.04-.28.04-.49,0l-.96-.18-.39,2.04,1.62.3c1.06.21,1.91.15,2.52-.16.61-.29.98-.85,1.14-1.64l2.82-15.28,23.39,4.35.38-2.03-11.1-2.07.24-1.3-3.69-.69h0ZM163.96,35.48l-1.3,5.28c-.15.56-.11,1.07.11,1.54.21.47.6.89,1.15,1.26l1.98,1.34,1.3-1.93-.86-.57c-.16-.11-.25-.25-.32-.42-.05-.17-.05-.38.02-.62l.91-3.87-2.99-2h0ZM154.55,29.21l-2.9,2.57c-.24.15-.45.25-.61.28-.17.04-.31.01-.42-.05l-1.35-.9-1.24,1.84,2.28,1.53c.58.37,1.14.57,1.68.59.53,0,1.04-.19,1.51-.57l3.98-3.36-2.92-1.93h0ZM169.99,29.77l-9.28-6.19,2.36-3.53,9.81,6.55-1.98,2.96c-.13.19-.27.31-.44.34-.14.04-.3-.01-.48-.12h0ZM161.34,16.34l-4.72,7.06,5.9,3.94-1.38,2.07-7.22-4.81-1.29,1.92,7.21,4.82-4.71,7.06,2.99,2,4.72-7.07,7.35,4.91,1.28-1.93-7.34-4.9,1.38-2.08,4.65,3.11c1.37.91,2.41.85,3.09-.17l3.69-5.52-15.61-10.41h0ZM157.55,13.1l-3.66,2.23c-.25.13-.48.22-.66.24-.19.03-.37,0-.52-.12l-1.14-.77-1.35,2.02,1.78,1.18-8.52,12.75,2.78,1.85,9.94-14.88,4.34-2.51-2.98-1.99h0Z" style="fill: #fff;"/>
  </g>
</svg>